G04 #@! TF.GenerationSoftware,KiCad,Pcbnew,7.0.2*
G04 #@! TF.CreationDate,2023-12-12T10:52:05+03:00*
G04 #@! TF.ProjectId,GPS_MODULE_V3.kicad_pro,4750535f-4d4f-4445-954c-455f56332e6b,rev?*
G04 #@! TF.SameCoordinates,Original*
G04 #@! TF.FileFunction,Legend,Top*
G04 #@! TF.FilePolarity,Positive*
%FSLAX46Y46*%
G04 Gerber Fmt 4.6, Leading zero omitted, Abs format (unit mm)*
G04 Created by KiCad (PCBNEW 7.0.2) date 2023-12-12 10:52:05*
%MOMM*%
%LPD*%
G01*
G04 APERTURE LIST*
%ADD10C,0.150000*%
%ADD11C,0.120000*%
G04 APERTURE END LIST*
D10*
X242452976Y-97972333D02*
X243062500Y-97972333D01*
X242757738Y-98277095D02*
X242757738Y-97667571D01*
X243367261Y-97477095D02*
X243862499Y-97477095D01*
X243862499Y-97477095D02*
X243595833Y-97781857D01*
X243595833Y-97781857D02*
X243710118Y-97781857D01*
X243710118Y-97781857D02*
X243786309Y-97819952D01*
X243786309Y-97819952D02*
X243824404Y-97858047D01*
X243824404Y-97858047D02*
X243862499Y-97934238D01*
X243862499Y-97934238D02*
X243862499Y-98124714D01*
X243862499Y-98124714D02*
X243824404Y-98200904D01*
X243824404Y-98200904D02*
X243786309Y-98239000D01*
X243786309Y-98239000D02*
X243710118Y-98277095D01*
X243710118Y-98277095D02*
X243481547Y-98277095D01*
X243481547Y-98277095D02*
X243405356Y-98239000D01*
X243405356Y-98239000D02*
X243367261Y-98200904D01*
X244091071Y-97477095D02*
X244357738Y-98277095D01*
X244357738Y-98277095D02*
X244624404Y-97477095D01*
X244814880Y-97477095D02*
X245310118Y-97477095D01*
X245310118Y-97477095D02*
X245043452Y-97781857D01*
X245043452Y-97781857D02*
X245157737Y-97781857D01*
X245157737Y-97781857D02*
X245233928Y-97819952D01*
X245233928Y-97819952D02*
X245272023Y-97858047D01*
X245272023Y-97858047D02*
X245310118Y-97934238D01*
X245310118Y-97934238D02*
X245310118Y-98124714D01*
X245310118Y-98124714D02*
X245272023Y-98200904D01*
X245272023Y-98200904D02*
X245233928Y-98239000D01*
X245233928Y-98239000D02*
X245157737Y-98277095D01*
X245157737Y-98277095D02*
X244929166Y-98277095D01*
X244929166Y-98277095D02*
X244852975Y-98239000D01*
X244852975Y-98239000D02*
X244814880Y-98200904D01*
X269102380Y-71714000D02*
X269216666Y-71752095D01*
X269216666Y-71752095D02*
X269407142Y-71752095D01*
X269407142Y-71752095D02*
X269483333Y-71714000D01*
X269483333Y-71714000D02*
X269521428Y-71675904D01*
X269521428Y-71675904D02*
X269559523Y-71599714D01*
X269559523Y-71599714D02*
X269559523Y-71523523D01*
X269559523Y-71523523D02*
X269521428Y-71447333D01*
X269521428Y-71447333D02*
X269483333Y-71409238D01*
X269483333Y-71409238D02*
X269407142Y-71371142D01*
X269407142Y-71371142D02*
X269254761Y-71333047D01*
X269254761Y-71333047D02*
X269178571Y-71294952D01*
X269178571Y-71294952D02*
X269140476Y-71256857D01*
X269140476Y-71256857D02*
X269102380Y-71180666D01*
X269102380Y-71180666D02*
X269102380Y-71104476D01*
X269102380Y-71104476D02*
X269140476Y-71028285D01*
X269140476Y-71028285D02*
X269178571Y-70990190D01*
X269178571Y-70990190D02*
X269254761Y-70952095D01*
X269254761Y-70952095D02*
X269445238Y-70952095D01*
X269445238Y-70952095D02*
X269559523Y-70990190D01*
X269788095Y-70952095D02*
X270245238Y-70952095D01*
X270016666Y-71752095D02*
X270016666Y-70952095D01*
X270473809Y-71523523D02*
X270854762Y-71523523D01*
X270397619Y-71752095D02*
X270664286Y-70952095D01*
X270664286Y-70952095D02*
X270930952Y-71752095D01*
X271083333Y-70952095D02*
X271540476Y-70952095D01*
X271311904Y-71752095D02*
X271311904Y-70952095D01*
X271807143Y-70952095D02*
X271807143Y-71599714D01*
X271807143Y-71599714D02*
X271845238Y-71675904D01*
X271845238Y-71675904D02*
X271883333Y-71714000D01*
X271883333Y-71714000D02*
X271959524Y-71752095D01*
X271959524Y-71752095D02*
X272111905Y-71752095D01*
X272111905Y-71752095D02*
X272188095Y-71714000D01*
X272188095Y-71714000D02*
X272226190Y-71675904D01*
X272226190Y-71675904D02*
X272264286Y-71599714D01*
X272264286Y-71599714D02*
X272264286Y-70952095D01*
X272607142Y-71714000D02*
X272721428Y-71752095D01*
X272721428Y-71752095D02*
X272911904Y-71752095D01*
X272911904Y-71752095D02*
X272988095Y-71714000D01*
X272988095Y-71714000D02*
X273026190Y-71675904D01*
X273026190Y-71675904D02*
X273064285Y-71599714D01*
X273064285Y-71599714D02*
X273064285Y-71523523D01*
X273064285Y-71523523D02*
X273026190Y-71447333D01*
X273026190Y-71447333D02*
X272988095Y-71409238D01*
X272988095Y-71409238D02*
X272911904Y-71371142D01*
X272911904Y-71371142D02*
X272759523Y-71333047D01*
X272759523Y-71333047D02*
X272683333Y-71294952D01*
X272683333Y-71294952D02*
X272645238Y-71256857D01*
X272645238Y-71256857D02*
X272607142Y-71180666D01*
X272607142Y-71180666D02*
X272607142Y-71104476D01*
X272607142Y-71104476D02*
X272645238Y-71028285D01*
X272645238Y-71028285D02*
X272683333Y-70990190D01*
X272683333Y-70990190D02*
X272759523Y-70952095D01*
X272759523Y-70952095D02*
X272950000Y-70952095D01*
X272950000Y-70952095D02*
X273064285Y-70990190D01*
X260990476Y-71402095D02*
X260990476Y-70602095D01*
X260990476Y-70602095D02*
X261447619Y-71402095D01*
X261447619Y-71402095D02*
X261447619Y-70602095D01*
X261828571Y-70983047D02*
X262095237Y-70983047D01*
X262209523Y-71402095D02*
X261828571Y-71402095D01*
X261828571Y-71402095D02*
X261828571Y-70602095D01*
X261828571Y-70602095D02*
X262209523Y-70602095D01*
X262438095Y-70602095D02*
X262895238Y-70602095D01*
X262666666Y-71402095D02*
X262666666Y-70602095D01*
X214090476Y-97997333D02*
X214700000Y-97997333D01*
X214395238Y-98302095D02*
X214395238Y-97692571D01*
X215004761Y-97502095D02*
X215499999Y-97502095D01*
X215499999Y-97502095D02*
X215233333Y-97806857D01*
X215233333Y-97806857D02*
X215347618Y-97806857D01*
X215347618Y-97806857D02*
X215423809Y-97844952D01*
X215423809Y-97844952D02*
X215461904Y-97883047D01*
X215461904Y-97883047D02*
X215499999Y-97959238D01*
X215499999Y-97959238D02*
X215499999Y-98149714D01*
X215499999Y-98149714D02*
X215461904Y-98225904D01*
X215461904Y-98225904D02*
X215423809Y-98264000D01*
X215423809Y-98264000D02*
X215347618Y-98302095D01*
X215347618Y-98302095D02*
X215119047Y-98302095D01*
X215119047Y-98302095D02*
X215042856Y-98264000D01*
X215042856Y-98264000D02*
X215004761Y-98225904D01*
X215728571Y-97502095D02*
X215995238Y-98302095D01*
X215995238Y-98302095D02*
X216261904Y-97502095D01*
X216452380Y-97502095D02*
X216947618Y-97502095D01*
X216947618Y-97502095D02*
X216680952Y-97806857D01*
X216680952Y-97806857D02*
X216795237Y-97806857D01*
X216795237Y-97806857D02*
X216871428Y-97844952D01*
X216871428Y-97844952D02*
X216909523Y-97883047D01*
X216909523Y-97883047D02*
X216947618Y-97959238D01*
X216947618Y-97959238D02*
X216947618Y-98149714D01*
X216947618Y-98149714D02*
X216909523Y-98225904D01*
X216909523Y-98225904D02*
X216871428Y-98264000D01*
X216871428Y-98264000D02*
X216795237Y-98302095D01*
X216795237Y-98302095D02*
X216566666Y-98302095D01*
X216566666Y-98302095D02*
X216490475Y-98264000D01*
X216490475Y-98264000D02*
X216452380Y-98225904D01*
X248019048Y-96239142D02*
X248019048Y-96620095D01*
X247752381Y-95820095D02*
X248019048Y-96239142D01*
X248019048Y-96239142D02*
X248285714Y-95820095D01*
X248514285Y-95896285D02*
X248552381Y-95858190D01*
X248552381Y-95858190D02*
X248628571Y-95820095D01*
X248628571Y-95820095D02*
X248819047Y-95820095D01*
X248819047Y-95820095D02*
X248895238Y-95858190D01*
X248895238Y-95858190D02*
X248933333Y-95896285D01*
X248933333Y-95896285D02*
X248971428Y-95972476D01*
X248971428Y-95972476D02*
X248971428Y-96048666D01*
X248971428Y-96048666D02*
X248933333Y-96162952D01*
X248933333Y-96162952D02*
X248476190Y-96620095D01*
X248476190Y-96620095D02*
X248971428Y-96620095D01*
X254704404Y-97568031D02*
X254704404Y-97621906D01*
X254704404Y-97621906D02*
X254650529Y-97729656D01*
X254650529Y-97729656D02*
X254596654Y-97783530D01*
X254596654Y-97783530D02*
X254488905Y-97837405D01*
X254488905Y-97837405D02*
X254381155Y-97837405D01*
X254381155Y-97837405D02*
X254300343Y-97810468D01*
X254300343Y-97810468D02*
X254165656Y-97729656D01*
X254165656Y-97729656D02*
X254084844Y-97648843D01*
X254084844Y-97648843D02*
X254004031Y-97514156D01*
X254004031Y-97514156D02*
X253977094Y-97433344D01*
X253977094Y-97433344D02*
X253977094Y-97325595D01*
X253977094Y-97325595D02*
X254030969Y-97217845D01*
X254030969Y-97217845D02*
X254084844Y-97163970D01*
X254084844Y-97163970D02*
X254192593Y-97110095D01*
X254192593Y-97110095D02*
X254246468Y-97110095D01*
X254758279Y-96975408D02*
X254677467Y-97002346D01*
X254677467Y-97002346D02*
X254623592Y-97002346D01*
X254623592Y-97002346D02*
X254542780Y-96975408D01*
X254542780Y-96975408D02*
X254515842Y-96948471D01*
X254515842Y-96948471D02*
X254488905Y-96867659D01*
X254488905Y-96867659D02*
X254488905Y-96813784D01*
X254488905Y-96813784D02*
X254515842Y-96732972D01*
X254515842Y-96732972D02*
X254623592Y-96625222D01*
X254623592Y-96625222D02*
X254704404Y-96598285D01*
X254704404Y-96598285D02*
X254758279Y-96598285D01*
X254758279Y-96598285D02*
X254839091Y-96625222D01*
X254839091Y-96625222D02*
X254866028Y-96652160D01*
X254866028Y-96652160D02*
X254892966Y-96732972D01*
X254892966Y-96732972D02*
X254892966Y-96786847D01*
X254892966Y-96786847D02*
X254866028Y-96867659D01*
X254866028Y-96867659D02*
X254758279Y-96975408D01*
X254758279Y-96975408D02*
X254731341Y-97056221D01*
X254731341Y-97056221D02*
X254731341Y-97110095D01*
X254731341Y-97110095D02*
X254758279Y-97190908D01*
X254758279Y-97190908D02*
X254866028Y-97298657D01*
X254866028Y-97298657D02*
X254946841Y-97325595D01*
X254946841Y-97325595D02*
X255000715Y-97325595D01*
X255000715Y-97325595D02*
X255081528Y-97298657D01*
X255081528Y-97298657D02*
X255189277Y-97190908D01*
X255189277Y-97190908D02*
X255216215Y-97110095D01*
X255216215Y-97110095D02*
X255216215Y-97056221D01*
X255216215Y-97056221D02*
X255189277Y-96975408D01*
X255189277Y-96975408D02*
X255081528Y-96867659D01*
X255081528Y-96867659D02*
X255000715Y-96840721D01*
X255000715Y-96840721D02*
X254946841Y-96840721D01*
X254946841Y-96840721D02*
X254866028Y-96867659D01*
X237209524Y-80420095D02*
X237209524Y-79620095D01*
X237209524Y-79620095D02*
X237400000Y-79620095D01*
X237400000Y-79620095D02*
X237514286Y-79658190D01*
X237514286Y-79658190D02*
X237590476Y-79734380D01*
X237590476Y-79734380D02*
X237628571Y-79810571D01*
X237628571Y-79810571D02*
X237666667Y-79962952D01*
X237666667Y-79962952D02*
X237666667Y-80077238D01*
X237666667Y-80077238D02*
X237628571Y-80229619D01*
X237628571Y-80229619D02*
X237590476Y-80305809D01*
X237590476Y-80305809D02*
X237514286Y-80382000D01*
X237514286Y-80382000D02*
X237400000Y-80420095D01*
X237400000Y-80420095D02*
X237209524Y-80420095D01*
X237933333Y-79620095D02*
X238428571Y-79620095D01*
X238428571Y-79620095D02*
X238161905Y-79924857D01*
X238161905Y-79924857D02*
X238276190Y-79924857D01*
X238276190Y-79924857D02*
X238352381Y-79962952D01*
X238352381Y-79962952D02*
X238390476Y-80001047D01*
X238390476Y-80001047D02*
X238428571Y-80077238D01*
X238428571Y-80077238D02*
X238428571Y-80267714D01*
X238428571Y-80267714D02*
X238390476Y-80343904D01*
X238390476Y-80343904D02*
X238352381Y-80382000D01*
X238352381Y-80382000D02*
X238276190Y-80420095D01*
X238276190Y-80420095D02*
X238047619Y-80420095D01*
X238047619Y-80420095D02*
X237971428Y-80382000D01*
X237971428Y-80382000D02*
X237933333Y-80343904D01*
X241893904Y-75214285D02*
X241932000Y-75252381D01*
X241932000Y-75252381D02*
X241970095Y-75366666D01*
X241970095Y-75366666D02*
X241970095Y-75442857D01*
X241970095Y-75442857D02*
X241932000Y-75557143D01*
X241932000Y-75557143D02*
X241855809Y-75633333D01*
X241855809Y-75633333D02*
X241779619Y-75671428D01*
X241779619Y-75671428D02*
X241627238Y-75709524D01*
X241627238Y-75709524D02*
X241512952Y-75709524D01*
X241512952Y-75709524D02*
X241360571Y-75671428D01*
X241360571Y-75671428D02*
X241284380Y-75633333D01*
X241284380Y-75633333D02*
X241208190Y-75557143D01*
X241208190Y-75557143D02*
X241170095Y-75442857D01*
X241170095Y-75442857D02*
X241170095Y-75366666D01*
X241170095Y-75366666D02*
X241208190Y-75252381D01*
X241208190Y-75252381D02*
X241246285Y-75214285D01*
X241246285Y-74909524D02*
X241208190Y-74871428D01*
X241208190Y-74871428D02*
X241170095Y-74795238D01*
X241170095Y-74795238D02*
X241170095Y-74604762D01*
X241170095Y-74604762D02*
X241208190Y-74528571D01*
X241208190Y-74528571D02*
X241246285Y-74490476D01*
X241246285Y-74490476D02*
X241322476Y-74452381D01*
X241322476Y-74452381D02*
X241398666Y-74452381D01*
X241398666Y-74452381D02*
X241512952Y-74490476D01*
X241512952Y-74490476D02*
X241970095Y-74947619D01*
X241970095Y-74947619D02*
X241970095Y-74452381D01*
X241436761Y-73766666D02*
X241970095Y-73766666D01*
X241132000Y-73957142D02*
X241703428Y-74147619D01*
X241703428Y-74147619D02*
X241703428Y-73652380D01*
X272070095Y-88203332D02*
X271689142Y-88469999D01*
X272070095Y-88660475D02*
X271270095Y-88660475D01*
X271270095Y-88660475D02*
X271270095Y-88355713D01*
X271270095Y-88355713D02*
X271308190Y-88279523D01*
X271308190Y-88279523D02*
X271346285Y-88241428D01*
X271346285Y-88241428D02*
X271422476Y-88203332D01*
X271422476Y-88203332D02*
X271536761Y-88203332D01*
X271536761Y-88203332D02*
X271612952Y-88241428D01*
X271612952Y-88241428D02*
X271651047Y-88279523D01*
X271651047Y-88279523D02*
X271689142Y-88355713D01*
X271689142Y-88355713D02*
X271689142Y-88660475D01*
X271270095Y-87517618D02*
X271270095Y-87669999D01*
X271270095Y-87669999D02*
X271308190Y-87746190D01*
X271308190Y-87746190D02*
X271346285Y-87784285D01*
X271346285Y-87784285D02*
X271460571Y-87860475D01*
X271460571Y-87860475D02*
X271612952Y-87898571D01*
X271612952Y-87898571D02*
X271917714Y-87898571D01*
X271917714Y-87898571D02*
X271993904Y-87860475D01*
X271993904Y-87860475D02*
X272032000Y-87822380D01*
X272032000Y-87822380D02*
X272070095Y-87746190D01*
X272070095Y-87746190D02*
X272070095Y-87593809D01*
X272070095Y-87593809D02*
X272032000Y-87517618D01*
X272032000Y-87517618D02*
X271993904Y-87479523D01*
X271993904Y-87479523D02*
X271917714Y-87441428D01*
X271917714Y-87441428D02*
X271727238Y-87441428D01*
X271727238Y-87441428D02*
X271651047Y-87479523D01*
X271651047Y-87479523D02*
X271612952Y-87517618D01*
X271612952Y-87517618D02*
X271574857Y-87593809D01*
X271574857Y-87593809D02*
X271574857Y-87746190D01*
X271574857Y-87746190D02*
X271612952Y-87822380D01*
X271612952Y-87822380D02*
X271651047Y-87860475D01*
X271651047Y-87860475D02*
X271727238Y-87898571D01*
X252410095Y-91313332D02*
X252029142Y-91579999D01*
X252410095Y-91770475D02*
X251610095Y-91770475D01*
X251610095Y-91770475D02*
X251610095Y-91465713D01*
X251610095Y-91465713D02*
X251648190Y-91389523D01*
X251648190Y-91389523D02*
X251686285Y-91351428D01*
X251686285Y-91351428D02*
X251762476Y-91313332D01*
X251762476Y-91313332D02*
X251876761Y-91313332D01*
X251876761Y-91313332D02*
X251952952Y-91351428D01*
X251952952Y-91351428D02*
X251991047Y-91389523D01*
X251991047Y-91389523D02*
X252029142Y-91465713D01*
X252029142Y-91465713D02*
X252029142Y-91770475D01*
X251610095Y-90589523D02*
X251610095Y-90970475D01*
X251610095Y-90970475D02*
X251991047Y-91008571D01*
X251991047Y-91008571D02*
X251952952Y-90970475D01*
X251952952Y-90970475D02*
X251914857Y-90894285D01*
X251914857Y-90894285D02*
X251914857Y-90703809D01*
X251914857Y-90703809D02*
X251952952Y-90627618D01*
X251952952Y-90627618D02*
X251991047Y-90589523D01*
X251991047Y-90589523D02*
X252067238Y-90551428D01*
X252067238Y-90551428D02*
X252257714Y-90551428D01*
X252257714Y-90551428D02*
X252333904Y-90589523D01*
X252333904Y-90589523D02*
X252372000Y-90627618D01*
X252372000Y-90627618D02*
X252410095Y-90703809D01*
X252410095Y-90703809D02*
X252410095Y-90894285D01*
X252410095Y-90894285D02*
X252372000Y-90970475D01*
X252372000Y-90970475D02*
X252333904Y-91008571D01*
X243866667Y-87443904D02*
X243828571Y-87482000D01*
X243828571Y-87482000D02*
X243714286Y-87520095D01*
X243714286Y-87520095D02*
X243638095Y-87520095D01*
X243638095Y-87520095D02*
X243523809Y-87482000D01*
X243523809Y-87482000D02*
X243447619Y-87405809D01*
X243447619Y-87405809D02*
X243409524Y-87329619D01*
X243409524Y-87329619D02*
X243371428Y-87177238D01*
X243371428Y-87177238D02*
X243371428Y-87062952D01*
X243371428Y-87062952D02*
X243409524Y-86910571D01*
X243409524Y-86910571D02*
X243447619Y-86834380D01*
X243447619Y-86834380D02*
X243523809Y-86758190D01*
X243523809Y-86758190D02*
X243638095Y-86720095D01*
X243638095Y-86720095D02*
X243714286Y-86720095D01*
X243714286Y-86720095D02*
X243828571Y-86758190D01*
X243828571Y-86758190D02*
X243866667Y-86796285D01*
X244171428Y-86796285D02*
X244209524Y-86758190D01*
X244209524Y-86758190D02*
X244285714Y-86720095D01*
X244285714Y-86720095D02*
X244476190Y-86720095D01*
X244476190Y-86720095D02*
X244552381Y-86758190D01*
X244552381Y-86758190D02*
X244590476Y-86796285D01*
X244590476Y-86796285D02*
X244628571Y-86872476D01*
X244628571Y-86872476D02*
X244628571Y-86948666D01*
X244628571Y-86948666D02*
X244590476Y-87062952D01*
X244590476Y-87062952D02*
X244133333Y-87520095D01*
X244133333Y-87520095D02*
X244628571Y-87520095D01*
X243666667Y-79743904D02*
X243628571Y-79782000D01*
X243628571Y-79782000D02*
X243514286Y-79820095D01*
X243514286Y-79820095D02*
X243438095Y-79820095D01*
X243438095Y-79820095D02*
X243323809Y-79782000D01*
X243323809Y-79782000D02*
X243247619Y-79705809D01*
X243247619Y-79705809D02*
X243209524Y-79629619D01*
X243209524Y-79629619D02*
X243171428Y-79477238D01*
X243171428Y-79477238D02*
X243171428Y-79362952D01*
X243171428Y-79362952D02*
X243209524Y-79210571D01*
X243209524Y-79210571D02*
X243247619Y-79134380D01*
X243247619Y-79134380D02*
X243323809Y-79058190D01*
X243323809Y-79058190D02*
X243438095Y-79020095D01*
X243438095Y-79020095D02*
X243514286Y-79020095D01*
X243514286Y-79020095D02*
X243628571Y-79058190D01*
X243628571Y-79058190D02*
X243666667Y-79096285D01*
X244390476Y-79020095D02*
X244009524Y-79020095D01*
X244009524Y-79020095D02*
X243971428Y-79401047D01*
X243971428Y-79401047D02*
X244009524Y-79362952D01*
X244009524Y-79362952D02*
X244085714Y-79324857D01*
X244085714Y-79324857D02*
X244276190Y-79324857D01*
X244276190Y-79324857D02*
X244352381Y-79362952D01*
X244352381Y-79362952D02*
X244390476Y-79401047D01*
X244390476Y-79401047D02*
X244428571Y-79477238D01*
X244428571Y-79477238D02*
X244428571Y-79667714D01*
X244428571Y-79667714D02*
X244390476Y-79743904D01*
X244390476Y-79743904D02*
X244352381Y-79782000D01*
X244352381Y-79782000D02*
X244276190Y-79820095D01*
X244276190Y-79820095D02*
X244085714Y-79820095D01*
X244085714Y-79820095D02*
X244009524Y-79782000D01*
X244009524Y-79782000D02*
X243971428Y-79743904D01*
X252327897Y-96763541D02*
X252274022Y-96763541D01*
X252274022Y-96763541D02*
X252166272Y-96709666D01*
X252166272Y-96709666D02*
X252112398Y-96655791D01*
X252112398Y-96655791D02*
X252058523Y-96548042D01*
X252058523Y-96548042D02*
X252058523Y-96440292D01*
X252058523Y-96440292D02*
X252085460Y-96359480D01*
X252085460Y-96359480D02*
X252166272Y-96224793D01*
X252166272Y-96224793D02*
X252247085Y-96143981D01*
X252247085Y-96143981D02*
X252381772Y-96063168D01*
X252381772Y-96063168D02*
X252462584Y-96036231D01*
X252462584Y-96036231D02*
X252570333Y-96036231D01*
X252570333Y-96036231D02*
X252678083Y-96090106D01*
X252678083Y-96090106D02*
X252731958Y-96143981D01*
X252731958Y-96143981D02*
X252785833Y-96251730D01*
X252785833Y-96251730D02*
X252785833Y-96305605D01*
X253028269Y-96440292D02*
X253405393Y-96817416D01*
X253405393Y-96817416D02*
X252597271Y-97140665D01*
X259665714Y-88503904D02*
X259627618Y-88542000D01*
X259627618Y-88542000D02*
X259513333Y-88580095D01*
X259513333Y-88580095D02*
X259437142Y-88580095D01*
X259437142Y-88580095D02*
X259322856Y-88542000D01*
X259322856Y-88542000D02*
X259246666Y-88465809D01*
X259246666Y-88465809D02*
X259208571Y-88389619D01*
X259208571Y-88389619D02*
X259170475Y-88237238D01*
X259170475Y-88237238D02*
X259170475Y-88122952D01*
X259170475Y-88122952D02*
X259208571Y-87970571D01*
X259208571Y-87970571D02*
X259246666Y-87894380D01*
X259246666Y-87894380D02*
X259322856Y-87818190D01*
X259322856Y-87818190D02*
X259437142Y-87780095D01*
X259437142Y-87780095D02*
X259513333Y-87780095D01*
X259513333Y-87780095D02*
X259627618Y-87818190D01*
X259627618Y-87818190D02*
X259665714Y-87856285D01*
X259932380Y-87780095D02*
X260427618Y-87780095D01*
X260427618Y-87780095D02*
X260160952Y-88084857D01*
X260160952Y-88084857D02*
X260275237Y-88084857D01*
X260275237Y-88084857D02*
X260351428Y-88122952D01*
X260351428Y-88122952D02*
X260389523Y-88161047D01*
X260389523Y-88161047D02*
X260427618Y-88237238D01*
X260427618Y-88237238D02*
X260427618Y-88427714D01*
X260427618Y-88427714D02*
X260389523Y-88503904D01*
X260389523Y-88503904D02*
X260351428Y-88542000D01*
X260351428Y-88542000D02*
X260275237Y-88580095D01*
X260275237Y-88580095D02*
X260046666Y-88580095D01*
X260046666Y-88580095D02*
X259970475Y-88542000D01*
X259970475Y-88542000D02*
X259932380Y-88503904D01*
X260694285Y-87780095D02*
X261227619Y-87780095D01*
X261227619Y-87780095D02*
X260884761Y-88580095D01*
X261288571Y-103290095D02*
X261288571Y-102490095D01*
X261288571Y-102490095D02*
X261479047Y-102490095D01*
X261479047Y-102490095D02*
X261593333Y-102528190D01*
X261593333Y-102528190D02*
X261669523Y-102604380D01*
X261669523Y-102604380D02*
X261707618Y-102680571D01*
X261707618Y-102680571D02*
X261745714Y-102832952D01*
X261745714Y-102832952D02*
X261745714Y-102947238D01*
X261745714Y-102947238D02*
X261707618Y-103099619D01*
X261707618Y-103099619D02*
X261669523Y-103175809D01*
X261669523Y-103175809D02*
X261593333Y-103252000D01*
X261593333Y-103252000D02*
X261479047Y-103290095D01*
X261479047Y-103290095D02*
X261288571Y-103290095D01*
X262507618Y-103290095D02*
X262050475Y-103290095D01*
X262279047Y-103290095D02*
X262279047Y-102490095D01*
X262279047Y-102490095D02*
X262202856Y-102604380D01*
X262202856Y-102604380D02*
X262126666Y-102680571D01*
X262126666Y-102680571D02*
X262050475Y-102718666D01*
X263002857Y-102490095D02*
X263079047Y-102490095D01*
X263079047Y-102490095D02*
X263155238Y-102528190D01*
X263155238Y-102528190D02*
X263193333Y-102566285D01*
X263193333Y-102566285D02*
X263231428Y-102642476D01*
X263231428Y-102642476D02*
X263269523Y-102794857D01*
X263269523Y-102794857D02*
X263269523Y-102985333D01*
X263269523Y-102985333D02*
X263231428Y-103137714D01*
X263231428Y-103137714D02*
X263193333Y-103213904D01*
X263193333Y-103213904D02*
X263155238Y-103252000D01*
X263155238Y-103252000D02*
X263079047Y-103290095D01*
X263079047Y-103290095D02*
X263002857Y-103290095D01*
X263002857Y-103290095D02*
X262926666Y-103252000D01*
X262926666Y-103252000D02*
X262888571Y-103213904D01*
X262888571Y-103213904D02*
X262850476Y-103137714D01*
X262850476Y-103137714D02*
X262812380Y-102985333D01*
X262812380Y-102985333D02*
X262812380Y-102794857D01*
X262812380Y-102794857D02*
X262850476Y-102642476D01*
X262850476Y-102642476D02*
X262888571Y-102566285D01*
X262888571Y-102566285D02*
X262926666Y-102528190D01*
X262926666Y-102528190D02*
X263002857Y-102490095D01*
X259617142Y-105572619D02*
X259283809Y-105096428D01*
X259045714Y-105572619D02*
X259045714Y-104572619D01*
X259045714Y-104572619D02*
X259426666Y-104572619D01*
X259426666Y-104572619D02*
X259521904Y-104620238D01*
X259521904Y-104620238D02*
X259569523Y-104667857D01*
X259569523Y-104667857D02*
X259617142Y-104763095D01*
X259617142Y-104763095D02*
X259617142Y-104905952D01*
X259617142Y-104905952D02*
X259569523Y-105001190D01*
X259569523Y-105001190D02*
X259521904Y-105048809D01*
X259521904Y-105048809D02*
X259426666Y-105096428D01*
X259426666Y-105096428D02*
X259045714Y-105096428D01*
X259950476Y-104572619D02*
X260569523Y-104572619D01*
X260569523Y-104572619D02*
X260236190Y-104953571D01*
X260236190Y-104953571D02*
X260379047Y-104953571D01*
X260379047Y-104953571D02*
X260474285Y-105001190D01*
X260474285Y-105001190D02*
X260521904Y-105048809D01*
X260521904Y-105048809D02*
X260569523Y-105144047D01*
X260569523Y-105144047D02*
X260569523Y-105382142D01*
X260569523Y-105382142D02*
X260521904Y-105477380D01*
X260521904Y-105477380D02*
X260474285Y-105525000D01*
X260474285Y-105525000D02*
X260379047Y-105572619D01*
X260379047Y-105572619D02*
X260093333Y-105572619D01*
X260093333Y-105572619D02*
X259998095Y-105525000D01*
X259998095Y-105525000D02*
X259950476Y-105477380D01*
X260950476Y-104667857D02*
X260998095Y-104620238D01*
X260998095Y-104620238D02*
X261093333Y-104572619D01*
X261093333Y-104572619D02*
X261331428Y-104572619D01*
X261331428Y-104572619D02*
X261426666Y-104620238D01*
X261426666Y-104620238D02*
X261474285Y-104667857D01*
X261474285Y-104667857D02*
X261521904Y-104763095D01*
X261521904Y-104763095D02*
X261521904Y-104858333D01*
X261521904Y-104858333D02*
X261474285Y-105001190D01*
X261474285Y-105001190D02*
X260902857Y-105572619D01*
X260902857Y-105572619D02*
X261521904Y-105572619D01*
X243821667Y-85408904D02*
X243783571Y-85447000D01*
X243783571Y-85447000D02*
X243669286Y-85485095D01*
X243669286Y-85485095D02*
X243593095Y-85485095D01*
X243593095Y-85485095D02*
X243478809Y-85447000D01*
X243478809Y-85447000D02*
X243402619Y-85370809D01*
X243402619Y-85370809D02*
X243364524Y-85294619D01*
X243364524Y-85294619D02*
X243326428Y-85142238D01*
X243326428Y-85142238D02*
X243326428Y-85027952D01*
X243326428Y-85027952D02*
X243364524Y-84875571D01*
X243364524Y-84875571D02*
X243402619Y-84799380D01*
X243402619Y-84799380D02*
X243478809Y-84723190D01*
X243478809Y-84723190D02*
X243593095Y-84685095D01*
X243593095Y-84685095D02*
X243669286Y-84685095D01*
X243669286Y-84685095D02*
X243783571Y-84723190D01*
X243783571Y-84723190D02*
X243821667Y-84761285D01*
X244088333Y-84685095D02*
X244583571Y-84685095D01*
X244583571Y-84685095D02*
X244316905Y-84989857D01*
X244316905Y-84989857D02*
X244431190Y-84989857D01*
X244431190Y-84989857D02*
X244507381Y-85027952D01*
X244507381Y-85027952D02*
X244545476Y-85066047D01*
X244545476Y-85066047D02*
X244583571Y-85142238D01*
X244583571Y-85142238D02*
X244583571Y-85332714D01*
X244583571Y-85332714D02*
X244545476Y-85408904D01*
X244545476Y-85408904D02*
X244507381Y-85447000D01*
X244507381Y-85447000D02*
X244431190Y-85485095D01*
X244431190Y-85485095D02*
X244202619Y-85485095D01*
X244202619Y-85485095D02*
X244126428Y-85447000D01*
X244126428Y-85447000D02*
X244088333Y-85408904D01*
X265349524Y-71857595D02*
X265349524Y-71057595D01*
X265349524Y-71057595D02*
X265540000Y-71057595D01*
X265540000Y-71057595D02*
X265654286Y-71095690D01*
X265654286Y-71095690D02*
X265730476Y-71171880D01*
X265730476Y-71171880D02*
X265768571Y-71248071D01*
X265768571Y-71248071D02*
X265806667Y-71400452D01*
X265806667Y-71400452D02*
X265806667Y-71514738D01*
X265806667Y-71514738D02*
X265768571Y-71667119D01*
X265768571Y-71667119D02*
X265730476Y-71743309D01*
X265730476Y-71743309D02*
X265654286Y-71819500D01*
X265654286Y-71819500D02*
X265540000Y-71857595D01*
X265540000Y-71857595D02*
X265349524Y-71857595D01*
X266530476Y-71057595D02*
X266149524Y-71057595D01*
X266149524Y-71057595D02*
X266111428Y-71438547D01*
X266111428Y-71438547D02*
X266149524Y-71400452D01*
X266149524Y-71400452D02*
X266225714Y-71362357D01*
X266225714Y-71362357D02*
X266416190Y-71362357D01*
X266416190Y-71362357D02*
X266492381Y-71400452D01*
X266492381Y-71400452D02*
X266530476Y-71438547D01*
X266530476Y-71438547D02*
X266568571Y-71514738D01*
X266568571Y-71514738D02*
X266568571Y-71705214D01*
X266568571Y-71705214D02*
X266530476Y-71781404D01*
X266530476Y-71781404D02*
X266492381Y-71819500D01*
X266492381Y-71819500D02*
X266416190Y-71857595D01*
X266416190Y-71857595D02*
X266225714Y-71857595D01*
X266225714Y-71857595D02*
X266149524Y-71819500D01*
X266149524Y-71819500D02*
X266111428Y-71781404D01*
X245720095Y-84309523D02*
X246367714Y-84309523D01*
X246367714Y-84309523D02*
X246443904Y-84271428D01*
X246443904Y-84271428D02*
X246482000Y-84233333D01*
X246482000Y-84233333D02*
X246520095Y-84157142D01*
X246520095Y-84157142D02*
X246520095Y-84004761D01*
X246520095Y-84004761D02*
X246482000Y-83928571D01*
X246482000Y-83928571D02*
X246443904Y-83890476D01*
X246443904Y-83890476D02*
X246367714Y-83852380D01*
X246367714Y-83852380D02*
X245720095Y-83852380D01*
X246520095Y-83052381D02*
X246520095Y-83509524D01*
X246520095Y-83280952D02*
X245720095Y-83280952D01*
X245720095Y-83280952D02*
X245834380Y-83357143D01*
X245834380Y-83357143D02*
X245910571Y-83433333D01*
X245910571Y-83433333D02*
X245948666Y-83509524D01*
X250743904Y-92364285D02*
X250782000Y-92402381D01*
X250782000Y-92402381D02*
X250820095Y-92516666D01*
X250820095Y-92516666D02*
X250820095Y-92592857D01*
X250820095Y-92592857D02*
X250782000Y-92707143D01*
X250782000Y-92707143D02*
X250705809Y-92783333D01*
X250705809Y-92783333D02*
X250629619Y-92821428D01*
X250629619Y-92821428D02*
X250477238Y-92859524D01*
X250477238Y-92859524D02*
X250362952Y-92859524D01*
X250362952Y-92859524D02*
X250210571Y-92821428D01*
X250210571Y-92821428D02*
X250134380Y-92783333D01*
X250134380Y-92783333D02*
X250058190Y-92707143D01*
X250058190Y-92707143D02*
X250020095Y-92592857D01*
X250020095Y-92592857D02*
X250020095Y-92516666D01*
X250020095Y-92516666D02*
X250058190Y-92402381D01*
X250058190Y-92402381D02*
X250096285Y-92364285D01*
X250820095Y-91602381D02*
X250820095Y-92059524D01*
X250820095Y-91830952D02*
X250020095Y-91830952D01*
X250020095Y-91830952D02*
X250134380Y-91907143D01*
X250134380Y-91907143D02*
X250210571Y-91983333D01*
X250210571Y-91983333D02*
X250248666Y-92059524D01*
X250020095Y-90878571D02*
X250020095Y-91259523D01*
X250020095Y-91259523D02*
X250401047Y-91297619D01*
X250401047Y-91297619D02*
X250362952Y-91259523D01*
X250362952Y-91259523D02*
X250324857Y-91183333D01*
X250324857Y-91183333D02*
X250324857Y-90992857D01*
X250324857Y-90992857D02*
X250362952Y-90916666D01*
X250362952Y-90916666D02*
X250401047Y-90878571D01*
X250401047Y-90878571D02*
X250477238Y-90840476D01*
X250477238Y-90840476D02*
X250667714Y-90840476D01*
X250667714Y-90840476D02*
X250743904Y-90878571D01*
X250743904Y-90878571D02*
X250782000Y-90916666D01*
X250782000Y-90916666D02*
X250820095Y-90992857D01*
X250820095Y-90992857D02*
X250820095Y-91183333D01*
X250820095Y-91183333D02*
X250782000Y-91259523D01*
X250782000Y-91259523D02*
X250743904Y-91297619D01*
X260407142Y-100962619D02*
X260073809Y-100486428D01*
X259835714Y-100962619D02*
X259835714Y-99962619D01*
X259835714Y-99962619D02*
X260216666Y-99962619D01*
X260216666Y-99962619D02*
X260311904Y-100010238D01*
X260311904Y-100010238D02*
X260359523Y-100057857D01*
X260359523Y-100057857D02*
X260407142Y-100153095D01*
X260407142Y-100153095D02*
X260407142Y-100295952D01*
X260407142Y-100295952D02*
X260359523Y-100391190D01*
X260359523Y-100391190D02*
X260311904Y-100438809D01*
X260311904Y-100438809D02*
X260216666Y-100486428D01*
X260216666Y-100486428D02*
X259835714Y-100486428D01*
X260788095Y-100057857D02*
X260835714Y-100010238D01*
X260835714Y-100010238D02*
X260930952Y-99962619D01*
X260930952Y-99962619D02*
X261169047Y-99962619D01*
X261169047Y-99962619D02*
X261264285Y-100010238D01*
X261264285Y-100010238D02*
X261311904Y-100057857D01*
X261311904Y-100057857D02*
X261359523Y-100153095D01*
X261359523Y-100153095D02*
X261359523Y-100248333D01*
X261359523Y-100248333D02*
X261311904Y-100391190D01*
X261311904Y-100391190D02*
X260740476Y-100962619D01*
X260740476Y-100962619D02*
X261359523Y-100962619D01*
X261930952Y-100391190D02*
X261835714Y-100343571D01*
X261835714Y-100343571D02*
X261788095Y-100295952D01*
X261788095Y-100295952D02*
X261740476Y-100200714D01*
X261740476Y-100200714D02*
X261740476Y-100153095D01*
X261740476Y-100153095D02*
X261788095Y-100057857D01*
X261788095Y-100057857D02*
X261835714Y-100010238D01*
X261835714Y-100010238D02*
X261930952Y-99962619D01*
X261930952Y-99962619D02*
X262121428Y-99962619D01*
X262121428Y-99962619D02*
X262216666Y-100010238D01*
X262216666Y-100010238D02*
X262264285Y-100057857D01*
X262264285Y-100057857D02*
X262311904Y-100153095D01*
X262311904Y-100153095D02*
X262311904Y-100200714D01*
X262311904Y-100200714D02*
X262264285Y-100295952D01*
X262264285Y-100295952D02*
X262216666Y-100343571D01*
X262216666Y-100343571D02*
X262121428Y-100391190D01*
X262121428Y-100391190D02*
X261930952Y-100391190D01*
X261930952Y-100391190D02*
X261835714Y-100438809D01*
X261835714Y-100438809D02*
X261788095Y-100486428D01*
X261788095Y-100486428D02*
X261740476Y-100581666D01*
X261740476Y-100581666D02*
X261740476Y-100772142D01*
X261740476Y-100772142D02*
X261788095Y-100867380D01*
X261788095Y-100867380D02*
X261835714Y-100915000D01*
X261835714Y-100915000D02*
X261930952Y-100962619D01*
X261930952Y-100962619D02*
X262121428Y-100962619D01*
X262121428Y-100962619D02*
X262216666Y-100915000D01*
X262216666Y-100915000D02*
X262264285Y-100867380D01*
X262264285Y-100867380D02*
X262311904Y-100772142D01*
X262311904Y-100772142D02*
X262311904Y-100581666D01*
X262311904Y-100581666D02*
X262264285Y-100486428D01*
X262264285Y-100486428D02*
X262216666Y-100438809D01*
X262216666Y-100438809D02*
X262121428Y-100391190D01*
X264570095Y-91159523D02*
X265217714Y-91159523D01*
X265217714Y-91159523D02*
X265293904Y-91121428D01*
X265293904Y-91121428D02*
X265332000Y-91083333D01*
X265332000Y-91083333D02*
X265370095Y-91007142D01*
X265370095Y-91007142D02*
X265370095Y-90854761D01*
X265370095Y-90854761D02*
X265332000Y-90778571D01*
X265332000Y-90778571D02*
X265293904Y-90740476D01*
X265293904Y-90740476D02*
X265217714Y-90702380D01*
X265217714Y-90702380D02*
X264570095Y-90702380D01*
X264912952Y-90207143D02*
X264874857Y-90283333D01*
X264874857Y-90283333D02*
X264836761Y-90321428D01*
X264836761Y-90321428D02*
X264760571Y-90359524D01*
X264760571Y-90359524D02*
X264722476Y-90359524D01*
X264722476Y-90359524D02*
X264646285Y-90321428D01*
X264646285Y-90321428D02*
X264608190Y-90283333D01*
X264608190Y-90283333D02*
X264570095Y-90207143D01*
X264570095Y-90207143D02*
X264570095Y-90054762D01*
X264570095Y-90054762D02*
X264608190Y-89978571D01*
X264608190Y-89978571D02*
X264646285Y-89940476D01*
X264646285Y-89940476D02*
X264722476Y-89902381D01*
X264722476Y-89902381D02*
X264760571Y-89902381D01*
X264760571Y-89902381D02*
X264836761Y-89940476D01*
X264836761Y-89940476D02*
X264874857Y-89978571D01*
X264874857Y-89978571D02*
X264912952Y-90054762D01*
X264912952Y-90054762D02*
X264912952Y-90207143D01*
X264912952Y-90207143D02*
X264951047Y-90283333D01*
X264951047Y-90283333D02*
X264989142Y-90321428D01*
X264989142Y-90321428D02*
X265065333Y-90359524D01*
X265065333Y-90359524D02*
X265217714Y-90359524D01*
X265217714Y-90359524D02*
X265293904Y-90321428D01*
X265293904Y-90321428D02*
X265332000Y-90283333D01*
X265332000Y-90283333D02*
X265370095Y-90207143D01*
X265370095Y-90207143D02*
X265370095Y-90054762D01*
X265370095Y-90054762D02*
X265332000Y-89978571D01*
X265332000Y-89978571D02*
X265293904Y-89940476D01*
X265293904Y-89940476D02*
X265217714Y-89902381D01*
X265217714Y-89902381D02*
X265065333Y-89902381D01*
X265065333Y-89902381D02*
X264989142Y-89940476D01*
X264989142Y-89940476D02*
X264951047Y-89978571D01*
X264951047Y-89978571D02*
X264912952Y-90054762D01*
X255388841Y-92887019D02*
X255119467Y-93156393D01*
X255496591Y-92402145D02*
X255388841Y-92887019D01*
X255388841Y-92887019D02*
X255873714Y-92779269D01*
X255792902Y-93829828D02*
X255469653Y-93506579D01*
X255631277Y-93668203D02*
X256196963Y-93102518D01*
X256196963Y-93102518D02*
X256062276Y-93129455D01*
X256062276Y-93129455D02*
X255954526Y-93129455D01*
X255954526Y-93129455D02*
X255873714Y-93102518D01*
X233209524Y-75720095D02*
X233209524Y-74920095D01*
X233209524Y-74920095D02*
X233400000Y-74920095D01*
X233400000Y-74920095D02*
X233514286Y-74958190D01*
X233514286Y-74958190D02*
X233590476Y-75034380D01*
X233590476Y-75034380D02*
X233628571Y-75110571D01*
X233628571Y-75110571D02*
X233666667Y-75262952D01*
X233666667Y-75262952D02*
X233666667Y-75377238D01*
X233666667Y-75377238D02*
X233628571Y-75529619D01*
X233628571Y-75529619D02*
X233590476Y-75605809D01*
X233590476Y-75605809D02*
X233514286Y-75682000D01*
X233514286Y-75682000D02*
X233400000Y-75720095D01*
X233400000Y-75720095D02*
X233209524Y-75720095D01*
X234352381Y-75186761D02*
X234352381Y-75720095D01*
X234161905Y-74882000D02*
X233971428Y-75453428D01*
X233971428Y-75453428D02*
X234466667Y-75453428D01*
X229125714Y-102123904D02*
X229087618Y-102162000D01*
X229087618Y-102162000D02*
X228973333Y-102200095D01*
X228973333Y-102200095D02*
X228897142Y-102200095D01*
X228897142Y-102200095D02*
X228782856Y-102162000D01*
X228782856Y-102162000D02*
X228706666Y-102085809D01*
X228706666Y-102085809D02*
X228668571Y-102009619D01*
X228668571Y-102009619D02*
X228630475Y-101857238D01*
X228630475Y-101857238D02*
X228630475Y-101742952D01*
X228630475Y-101742952D02*
X228668571Y-101590571D01*
X228668571Y-101590571D02*
X228706666Y-101514380D01*
X228706666Y-101514380D02*
X228782856Y-101438190D01*
X228782856Y-101438190D02*
X228897142Y-101400095D01*
X228897142Y-101400095D02*
X228973333Y-101400095D01*
X228973333Y-101400095D02*
X229087618Y-101438190D01*
X229087618Y-101438190D02*
X229125714Y-101476285D01*
X229392380Y-101400095D02*
X229887618Y-101400095D01*
X229887618Y-101400095D02*
X229620952Y-101704857D01*
X229620952Y-101704857D02*
X229735237Y-101704857D01*
X229735237Y-101704857D02*
X229811428Y-101742952D01*
X229811428Y-101742952D02*
X229849523Y-101781047D01*
X229849523Y-101781047D02*
X229887618Y-101857238D01*
X229887618Y-101857238D02*
X229887618Y-102047714D01*
X229887618Y-102047714D02*
X229849523Y-102123904D01*
X229849523Y-102123904D02*
X229811428Y-102162000D01*
X229811428Y-102162000D02*
X229735237Y-102200095D01*
X229735237Y-102200095D02*
X229506666Y-102200095D01*
X229506666Y-102200095D02*
X229430475Y-102162000D01*
X229430475Y-102162000D02*
X229392380Y-102123904D01*
X230192380Y-101476285D02*
X230230476Y-101438190D01*
X230230476Y-101438190D02*
X230306666Y-101400095D01*
X230306666Y-101400095D02*
X230497142Y-101400095D01*
X230497142Y-101400095D02*
X230573333Y-101438190D01*
X230573333Y-101438190D02*
X230611428Y-101476285D01*
X230611428Y-101476285D02*
X230649523Y-101552476D01*
X230649523Y-101552476D02*
X230649523Y-101628666D01*
X230649523Y-101628666D02*
X230611428Y-101742952D01*
X230611428Y-101742952D02*
X230154285Y-102200095D01*
X230154285Y-102200095D02*
X230649523Y-102200095D01*
X253490476Y-78870095D02*
X253490476Y-79517714D01*
X253490476Y-79517714D02*
X253528571Y-79593904D01*
X253528571Y-79593904D02*
X253566666Y-79632000D01*
X253566666Y-79632000D02*
X253642857Y-79670095D01*
X253642857Y-79670095D02*
X253795238Y-79670095D01*
X253795238Y-79670095D02*
X253871428Y-79632000D01*
X253871428Y-79632000D02*
X253909523Y-79593904D01*
X253909523Y-79593904D02*
X253947619Y-79517714D01*
X253947619Y-79517714D02*
X253947619Y-78870095D01*
X254290475Y-78946285D02*
X254328571Y-78908190D01*
X254328571Y-78908190D02*
X254404761Y-78870095D01*
X254404761Y-78870095D02*
X254595237Y-78870095D01*
X254595237Y-78870095D02*
X254671428Y-78908190D01*
X254671428Y-78908190D02*
X254709523Y-78946285D01*
X254709523Y-78946285D02*
X254747618Y-79022476D01*
X254747618Y-79022476D02*
X254747618Y-79098666D01*
X254747618Y-79098666D02*
X254709523Y-79212952D01*
X254709523Y-79212952D02*
X254252380Y-79670095D01*
X254252380Y-79670095D02*
X254747618Y-79670095D01*
X239140476Y-100070095D02*
X239140476Y-100717714D01*
X239140476Y-100717714D02*
X239178571Y-100793904D01*
X239178571Y-100793904D02*
X239216666Y-100832000D01*
X239216666Y-100832000D02*
X239292857Y-100870095D01*
X239292857Y-100870095D02*
X239445238Y-100870095D01*
X239445238Y-100870095D02*
X239521428Y-100832000D01*
X239521428Y-100832000D02*
X239559523Y-100793904D01*
X239559523Y-100793904D02*
X239597619Y-100717714D01*
X239597619Y-100717714D02*
X239597619Y-100070095D01*
X239902380Y-100070095D02*
X240435714Y-100070095D01*
X240435714Y-100070095D02*
X240092856Y-100870095D01*
X246835714Y-86993904D02*
X246797618Y-87032000D01*
X246797618Y-87032000D02*
X246683333Y-87070095D01*
X246683333Y-87070095D02*
X246607142Y-87070095D01*
X246607142Y-87070095D02*
X246492856Y-87032000D01*
X246492856Y-87032000D02*
X246416666Y-86955809D01*
X246416666Y-86955809D02*
X246378571Y-86879619D01*
X246378571Y-86879619D02*
X246340475Y-86727238D01*
X246340475Y-86727238D02*
X246340475Y-86612952D01*
X246340475Y-86612952D02*
X246378571Y-86460571D01*
X246378571Y-86460571D02*
X246416666Y-86384380D01*
X246416666Y-86384380D02*
X246492856Y-86308190D01*
X246492856Y-86308190D02*
X246607142Y-86270095D01*
X246607142Y-86270095D02*
X246683333Y-86270095D01*
X246683333Y-86270095D02*
X246797618Y-86308190D01*
X246797618Y-86308190D02*
X246835714Y-86346285D01*
X247597618Y-87070095D02*
X247140475Y-87070095D01*
X247369047Y-87070095D02*
X247369047Y-86270095D01*
X247369047Y-86270095D02*
X247292856Y-86384380D01*
X247292856Y-86384380D02*
X247216666Y-86460571D01*
X247216666Y-86460571D02*
X247140475Y-86498666D01*
X248359523Y-87070095D02*
X247902380Y-87070095D01*
X248130952Y-87070095D02*
X248130952Y-86270095D01*
X248130952Y-86270095D02*
X248054761Y-86384380D01*
X248054761Y-86384380D02*
X247978571Y-86460571D01*
X247978571Y-86460571D02*
X247902380Y-86498666D01*
X242893904Y-75214285D02*
X242932000Y-75252381D01*
X242932000Y-75252381D02*
X242970095Y-75366666D01*
X242970095Y-75366666D02*
X242970095Y-75442857D01*
X242970095Y-75442857D02*
X242932000Y-75557143D01*
X242932000Y-75557143D02*
X242855809Y-75633333D01*
X242855809Y-75633333D02*
X242779619Y-75671428D01*
X242779619Y-75671428D02*
X242627238Y-75709524D01*
X242627238Y-75709524D02*
X242512952Y-75709524D01*
X242512952Y-75709524D02*
X242360571Y-75671428D01*
X242360571Y-75671428D02*
X242284380Y-75633333D01*
X242284380Y-75633333D02*
X242208190Y-75557143D01*
X242208190Y-75557143D02*
X242170095Y-75442857D01*
X242170095Y-75442857D02*
X242170095Y-75366666D01*
X242170095Y-75366666D02*
X242208190Y-75252381D01*
X242208190Y-75252381D02*
X242246285Y-75214285D01*
X242246285Y-74909524D02*
X242208190Y-74871428D01*
X242208190Y-74871428D02*
X242170095Y-74795238D01*
X242170095Y-74795238D02*
X242170095Y-74604762D01*
X242170095Y-74604762D02*
X242208190Y-74528571D01*
X242208190Y-74528571D02*
X242246285Y-74490476D01*
X242246285Y-74490476D02*
X242322476Y-74452381D01*
X242322476Y-74452381D02*
X242398666Y-74452381D01*
X242398666Y-74452381D02*
X242512952Y-74490476D01*
X242512952Y-74490476D02*
X242970095Y-74947619D01*
X242970095Y-74947619D02*
X242970095Y-74452381D01*
X242170095Y-74185714D02*
X242170095Y-73690476D01*
X242170095Y-73690476D02*
X242474857Y-73957142D01*
X242474857Y-73957142D02*
X242474857Y-73842857D01*
X242474857Y-73842857D02*
X242512952Y-73766666D01*
X242512952Y-73766666D02*
X242551047Y-73728571D01*
X242551047Y-73728571D02*
X242627238Y-73690476D01*
X242627238Y-73690476D02*
X242817714Y-73690476D01*
X242817714Y-73690476D02*
X242893904Y-73728571D01*
X242893904Y-73728571D02*
X242932000Y-73766666D01*
X242932000Y-73766666D02*
X242970095Y-73842857D01*
X242970095Y-73842857D02*
X242970095Y-74071428D01*
X242970095Y-74071428D02*
X242932000Y-74147619D01*
X242932000Y-74147619D02*
X242893904Y-74185714D01*
X241370095Y-97427975D02*
X240570095Y-97427975D01*
X240570095Y-97427975D02*
X240570095Y-97237499D01*
X240570095Y-97237499D02*
X240608190Y-97123213D01*
X240608190Y-97123213D02*
X240684380Y-97047023D01*
X240684380Y-97047023D02*
X240760571Y-97008928D01*
X240760571Y-97008928D02*
X240912952Y-96970832D01*
X240912952Y-96970832D02*
X241027238Y-96970832D01*
X241027238Y-96970832D02*
X241179619Y-97008928D01*
X241179619Y-97008928D02*
X241255809Y-97047023D01*
X241255809Y-97047023D02*
X241332000Y-97123213D01*
X241332000Y-97123213D02*
X241370095Y-97237499D01*
X241370095Y-97237499D02*
X241370095Y-97427975D01*
X240570095Y-96285118D02*
X240570095Y-96437499D01*
X240570095Y-96437499D02*
X240608190Y-96513690D01*
X240608190Y-96513690D02*
X240646285Y-96551785D01*
X240646285Y-96551785D02*
X240760571Y-96627975D01*
X240760571Y-96627975D02*
X240912952Y-96666071D01*
X240912952Y-96666071D02*
X241217714Y-96666071D01*
X241217714Y-96666071D02*
X241293904Y-96627975D01*
X241293904Y-96627975D02*
X241332000Y-96589880D01*
X241332000Y-96589880D02*
X241370095Y-96513690D01*
X241370095Y-96513690D02*
X241370095Y-96361309D01*
X241370095Y-96361309D02*
X241332000Y-96285118D01*
X241332000Y-96285118D02*
X241293904Y-96247023D01*
X241293904Y-96247023D02*
X241217714Y-96208928D01*
X241217714Y-96208928D02*
X241027238Y-96208928D01*
X241027238Y-96208928D02*
X240951047Y-96247023D01*
X240951047Y-96247023D02*
X240912952Y-96285118D01*
X240912952Y-96285118D02*
X240874857Y-96361309D01*
X240874857Y-96361309D02*
X240874857Y-96513690D01*
X240874857Y-96513690D02*
X240912952Y-96589880D01*
X240912952Y-96589880D02*
X240951047Y-96627975D01*
X240951047Y-96627975D02*
X241027238Y-96666071D01*
X246966666Y-90820095D02*
X246585714Y-90820095D01*
X246585714Y-90820095D02*
X246585714Y-90020095D01*
X247195237Y-90096285D02*
X247233333Y-90058190D01*
X247233333Y-90058190D02*
X247309523Y-90020095D01*
X247309523Y-90020095D02*
X247499999Y-90020095D01*
X247499999Y-90020095D02*
X247576190Y-90058190D01*
X247576190Y-90058190D02*
X247614285Y-90096285D01*
X247614285Y-90096285D02*
X247652380Y-90172476D01*
X247652380Y-90172476D02*
X247652380Y-90248666D01*
X247652380Y-90248666D02*
X247614285Y-90362952D01*
X247614285Y-90362952D02*
X247157142Y-90820095D01*
X247157142Y-90820095D02*
X247652380Y-90820095D01*
X248657142Y-79767380D02*
X248609523Y-79815000D01*
X248609523Y-79815000D02*
X248466666Y-79862619D01*
X248466666Y-79862619D02*
X248371428Y-79862619D01*
X248371428Y-79862619D02*
X248228571Y-79815000D01*
X248228571Y-79815000D02*
X248133333Y-79719761D01*
X248133333Y-79719761D02*
X248085714Y-79624523D01*
X248085714Y-79624523D02*
X248038095Y-79434047D01*
X248038095Y-79434047D02*
X248038095Y-79291190D01*
X248038095Y-79291190D02*
X248085714Y-79100714D01*
X248085714Y-79100714D02*
X248133333Y-79005476D01*
X248133333Y-79005476D02*
X248228571Y-78910238D01*
X248228571Y-78910238D02*
X248371428Y-78862619D01*
X248371428Y-78862619D02*
X248466666Y-78862619D01*
X248466666Y-78862619D02*
X248609523Y-78910238D01*
X248609523Y-78910238D02*
X248657142Y-78957857D01*
X249609523Y-79862619D02*
X249038095Y-79862619D01*
X249323809Y-79862619D02*
X249323809Y-78862619D01*
X249323809Y-78862619D02*
X249228571Y-79005476D01*
X249228571Y-79005476D02*
X249133333Y-79100714D01*
X249133333Y-79100714D02*
X249038095Y-79148333D01*
X249990476Y-78957857D02*
X250038095Y-78910238D01*
X250038095Y-78910238D02*
X250133333Y-78862619D01*
X250133333Y-78862619D02*
X250371428Y-78862619D01*
X250371428Y-78862619D02*
X250466666Y-78910238D01*
X250466666Y-78910238D02*
X250514285Y-78957857D01*
X250514285Y-78957857D02*
X250561904Y-79053095D01*
X250561904Y-79053095D02*
X250561904Y-79148333D01*
X250561904Y-79148333D02*
X250514285Y-79291190D01*
X250514285Y-79291190D02*
X249942857Y-79862619D01*
X249942857Y-79862619D02*
X250561904Y-79862619D01*
X264320095Y-74281785D02*
X263939142Y-74548452D01*
X264320095Y-74738928D02*
X263520095Y-74738928D01*
X263520095Y-74738928D02*
X263520095Y-74434166D01*
X263520095Y-74434166D02*
X263558190Y-74357976D01*
X263558190Y-74357976D02*
X263596285Y-74319881D01*
X263596285Y-74319881D02*
X263672476Y-74281785D01*
X263672476Y-74281785D02*
X263786761Y-74281785D01*
X263786761Y-74281785D02*
X263862952Y-74319881D01*
X263862952Y-74319881D02*
X263901047Y-74357976D01*
X263901047Y-74357976D02*
X263939142Y-74434166D01*
X263939142Y-74434166D02*
X263939142Y-74738928D01*
X263596285Y-73977024D02*
X263558190Y-73938928D01*
X263558190Y-73938928D02*
X263520095Y-73862738D01*
X263520095Y-73862738D02*
X263520095Y-73672262D01*
X263520095Y-73672262D02*
X263558190Y-73596071D01*
X263558190Y-73596071D02*
X263596285Y-73557976D01*
X263596285Y-73557976D02*
X263672476Y-73519881D01*
X263672476Y-73519881D02*
X263748666Y-73519881D01*
X263748666Y-73519881D02*
X263862952Y-73557976D01*
X263862952Y-73557976D02*
X264320095Y-74015119D01*
X264320095Y-74015119D02*
X264320095Y-73519881D01*
X264320095Y-72757976D02*
X264320095Y-73215119D01*
X264320095Y-72986547D02*
X263520095Y-72986547D01*
X263520095Y-72986547D02*
X263634380Y-73062738D01*
X263634380Y-73062738D02*
X263710571Y-73138928D01*
X263710571Y-73138928D02*
X263748666Y-73215119D01*
X253375714Y-102570095D02*
X253109047Y-102189142D01*
X252918571Y-102570095D02*
X252918571Y-101770095D01*
X252918571Y-101770095D02*
X253223333Y-101770095D01*
X253223333Y-101770095D02*
X253299523Y-101808190D01*
X253299523Y-101808190D02*
X253337618Y-101846285D01*
X253337618Y-101846285D02*
X253375714Y-101922476D01*
X253375714Y-101922476D02*
X253375714Y-102036761D01*
X253375714Y-102036761D02*
X253337618Y-102112952D01*
X253337618Y-102112952D02*
X253299523Y-102151047D01*
X253299523Y-102151047D02*
X253223333Y-102189142D01*
X253223333Y-102189142D02*
X252918571Y-102189142D01*
X253680475Y-101846285D02*
X253718571Y-101808190D01*
X253718571Y-101808190D02*
X253794761Y-101770095D01*
X253794761Y-101770095D02*
X253985237Y-101770095D01*
X253985237Y-101770095D02*
X254061428Y-101808190D01*
X254061428Y-101808190D02*
X254099523Y-101846285D01*
X254099523Y-101846285D02*
X254137618Y-101922476D01*
X254137618Y-101922476D02*
X254137618Y-101998666D01*
X254137618Y-101998666D02*
X254099523Y-102112952D01*
X254099523Y-102112952D02*
X253642380Y-102570095D01*
X253642380Y-102570095D02*
X254137618Y-102570095D01*
X254861428Y-101770095D02*
X254480476Y-101770095D01*
X254480476Y-101770095D02*
X254442380Y-102151047D01*
X254442380Y-102151047D02*
X254480476Y-102112952D01*
X254480476Y-102112952D02*
X254556666Y-102074857D01*
X254556666Y-102074857D02*
X254747142Y-102074857D01*
X254747142Y-102074857D02*
X254823333Y-102112952D01*
X254823333Y-102112952D02*
X254861428Y-102151047D01*
X254861428Y-102151047D02*
X254899523Y-102227238D01*
X254899523Y-102227238D02*
X254899523Y-102417714D01*
X254899523Y-102417714D02*
X254861428Y-102493904D01*
X254861428Y-102493904D02*
X254823333Y-102532000D01*
X254823333Y-102532000D02*
X254747142Y-102570095D01*
X254747142Y-102570095D02*
X254556666Y-102570095D01*
X254556666Y-102570095D02*
X254480476Y-102532000D01*
X254480476Y-102532000D02*
X254442380Y-102493904D01*
X249435714Y-106312619D02*
X249435714Y-105312619D01*
X249435714Y-105312619D02*
X249673809Y-105312619D01*
X249673809Y-105312619D02*
X249816666Y-105360238D01*
X249816666Y-105360238D02*
X249911904Y-105455476D01*
X249911904Y-105455476D02*
X249959523Y-105550714D01*
X249959523Y-105550714D02*
X250007142Y-105741190D01*
X250007142Y-105741190D02*
X250007142Y-105884047D01*
X250007142Y-105884047D02*
X249959523Y-106074523D01*
X249959523Y-106074523D02*
X249911904Y-106169761D01*
X249911904Y-106169761D02*
X249816666Y-106265000D01*
X249816666Y-106265000D02*
X249673809Y-106312619D01*
X249673809Y-106312619D02*
X249435714Y-106312619D01*
X250959523Y-106312619D02*
X250388095Y-106312619D01*
X250673809Y-106312619D02*
X250673809Y-105312619D01*
X250673809Y-105312619D02*
X250578571Y-105455476D01*
X250578571Y-105455476D02*
X250483333Y-105550714D01*
X250483333Y-105550714D02*
X250388095Y-105598333D01*
X251340476Y-105407857D02*
X251388095Y-105360238D01*
X251388095Y-105360238D02*
X251483333Y-105312619D01*
X251483333Y-105312619D02*
X251721428Y-105312619D01*
X251721428Y-105312619D02*
X251816666Y-105360238D01*
X251816666Y-105360238D02*
X251864285Y-105407857D01*
X251864285Y-105407857D02*
X251911904Y-105503095D01*
X251911904Y-105503095D02*
X251911904Y-105598333D01*
X251911904Y-105598333D02*
X251864285Y-105741190D01*
X251864285Y-105741190D02*
X251292857Y-106312619D01*
X251292857Y-106312619D02*
X251911904Y-106312619D01*
X239737380Y-87766666D02*
X239023095Y-87766666D01*
X239023095Y-87766666D02*
X238880238Y-87719047D01*
X238880238Y-87719047D02*
X238785000Y-87623809D01*
X238785000Y-87623809D02*
X238737380Y-87480952D01*
X238737380Y-87480952D02*
X238737380Y-87385714D01*
X239737380Y-88147619D02*
X239737380Y-88766666D01*
X239737380Y-88766666D02*
X239356428Y-88433333D01*
X239356428Y-88433333D02*
X239356428Y-88576190D01*
X239356428Y-88576190D02*
X239308809Y-88671428D01*
X239308809Y-88671428D02*
X239261190Y-88719047D01*
X239261190Y-88719047D02*
X239165952Y-88766666D01*
X239165952Y-88766666D02*
X238927857Y-88766666D01*
X238927857Y-88766666D02*
X238832619Y-88719047D01*
X238832619Y-88719047D02*
X238785000Y-88671428D01*
X238785000Y-88671428D02*
X238737380Y-88576190D01*
X238737380Y-88576190D02*
X238737380Y-88290476D01*
X238737380Y-88290476D02*
X238785000Y-88195238D01*
X238785000Y-88195238D02*
X238832619Y-88147619D01*
X268790095Y-73683332D02*
X268409142Y-73949999D01*
X268790095Y-74140475D02*
X267990095Y-74140475D01*
X267990095Y-74140475D02*
X267990095Y-73835713D01*
X267990095Y-73835713D02*
X268028190Y-73759523D01*
X268028190Y-73759523D02*
X268066285Y-73721428D01*
X268066285Y-73721428D02*
X268142476Y-73683332D01*
X268142476Y-73683332D02*
X268256761Y-73683332D01*
X268256761Y-73683332D02*
X268332952Y-73721428D01*
X268332952Y-73721428D02*
X268371047Y-73759523D01*
X268371047Y-73759523D02*
X268409142Y-73835713D01*
X268409142Y-73835713D02*
X268409142Y-74140475D01*
X267990095Y-73416666D02*
X267990095Y-72883332D01*
X267990095Y-72883332D02*
X268790095Y-73226190D01*
X266692619Y-91474285D02*
X266692619Y-92045713D01*
X266692619Y-91759999D02*
X265692619Y-91759999D01*
X265692619Y-91759999D02*
X265835476Y-91855237D01*
X265835476Y-91855237D02*
X265930714Y-91950475D01*
X265930714Y-91950475D02*
X265978333Y-92045713D01*
X253295714Y-103790095D02*
X253029047Y-103409142D01*
X252838571Y-103790095D02*
X252838571Y-102990095D01*
X252838571Y-102990095D02*
X253143333Y-102990095D01*
X253143333Y-102990095D02*
X253219523Y-103028190D01*
X253219523Y-103028190D02*
X253257618Y-103066285D01*
X253257618Y-103066285D02*
X253295714Y-103142476D01*
X253295714Y-103142476D02*
X253295714Y-103256761D01*
X253295714Y-103256761D02*
X253257618Y-103332952D01*
X253257618Y-103332952D02*
X253219523Y-103371047D01*
X253219523Y-103371047D02*
X253143333Y-103409142D01*
X253143333Y-103409142D02*
X252838571Y-103409142D01*
X253600475Y-103066285D02*
X253638571Y-103028190D01*
X253638571Y-103028190D02*
X253714761Y-102990095D01*
X253714761Y-102990095D02*
X253905237Y-102990095D01*
X253905237Y-102990095D02*
X253981428Y-103028190D01*
X253981428Y-103028190D02*
X254019523Y-103066285D01*
X254019523Y-103066285D02*
X254057618Y-103142476D01*
X254057618Y-103142476D02*
X254057618Y-103218666D01*
X254057618Y-103218666D02*
X254019523Y-103332952D01*
X254019523Y-103332952D02*
X253562380Y-103790095D01*
X253562380Y-103790095D02*
X254057618Y-103790095D01*
X254743333Y-102990095D02*
X254590952Y-102990095D01*
X254590952Y-102990095D02*
X254514761Y-103028190D01*
X254514761Y-103028190D02*
X254476666Y-103066285D01*
X254476666Y-103066285D02*
X254400476Y-103180571D01*
X254400476Y-103180571D02*
X254362380Y-103332952D01*
X254362380Y-103332952D02*
X254362380Y-103637714D01*
X254362380Y-103637714D02*
X254400476Y-103713904D01*
X254400476Y-103713904D02*
X254438571Y-103752000D01*
X254438571Y-103752000D02*
X254514761Y-103790095D01*
X254514761Y-103790095D02*
X254667142Y-103790095D01*
X254667142Y-103790095D02*
X254743333Y-103752000D01*
X254743333Y-103752000D02*
X254781428Y-103713904D01*
X254781428Y-103713904D02*
X254819523Y-103637714D01*
X254819523Y-103637714D02*
X254819523Y-103447238D01*
X254819523Y-103447238D02*
X254781428Y-103371047D01*
X254781428Y-103371047D02*
X254743333Y-103332952D01*
X254743333Y-103332952D02*
X254667142Y-103294857D01*
X254667142Y-103294857D02*
X254514761Y-103294857D01*
X254514761Y-103294857D02*
X254438571Y-103332952D01*
X254438571Y-103332952D02*
X254400476Y-103371047D01*
X254400476Y-103371047D02*
X254362380Y-103447238D01*
X247225714Y-99663904D02*
X247187618Y-99702000D01*
X247187618Y-99702000D02*
X247073333Y-99740095D01*
X247073333Y-99740095D02*
X246997142Y-99740095D01*
X246997142Y-99740095D02*
X246882856Y-99702000D01*
X246882856Y-99702000D02*
X246806666Y-99625809D01*
X246806666Y-99625809D02*
X246768571Y-99549619D01*
X246768571Y-99549619D02*
X246730475Y-99397238D01*
X246730475Y-99397238D02*
X246730475Y-99282952D01*
X246730475Y-99282952D02*
X246768571Y-99130571D01*
X246768571Y-99130571D02*
X246806666Y-99054380D01*
X246806666Y-99054380D02*
X246882856Y-98978190D01*
X246882856Y-98978190D02*
X246997142Y-98940095D01*
X246997142Y-98940095D02*
X247073333Y-98940095D01*
X247073333Y-98940095D02*
X247187618Y-98978190D01*
X247187618Y-98978190D02*
X247225714Y-99016285D01*
X247492380Y-98940095D02*
X247987618Y-98940095D01*
X247987618Y-98940095D02*
X247720952Y-99244857D01*
X247720952Y-99244857D02*
X247835237Y-99244857D01*
X247835237Y-99244857D02*
X247911428Y-99282952D01*
X247911428Y-99282952D02*
X247949523Y-99321047D01*
X247949523Y-99321047D02*
X247987618Y-99397238D01*
X247987618Y-99397238D02*
X247987618Y-99587714D01*
X247987618Y-99587714D02*
X247949523Y-99663904D01*
X247949523Y-99663904D02*
X247911428Y-99702000D01*
X247911428Y-99702000D02*
X247835237Y-99740095D01*
X247835237Y-99740095D02*
X247606666Y-99740095D01*
X247606666Y-99740095D02*
X247530475Y-99702000D01*
X247530475Y-99702000D02*
X247492380Y-99663904D01*
X248749523Y-99740095D02*
X248292380Y-99740095D01*
X248520952Y-99740095D02*
X248520952Y-98940095D01*
X248520952Y-98940095D02*
X248444761Y-99054380D01*
X248444761Y-99054380D02*
X248368571Y-99130571D01*
X248368571Y-99130571D02*
X248292380Y-99168666D01*
X241243904Y-106367857D02*
X241282000Y-106398809D01*
X241282000Y-106398809D02*
X241320095Y-106491667D01*
X241320095Y-106491667D02*
X241320095Y-106553571D01*
X241320095Y-106553571D02*
X241282000Y-106646428D01*
X241282000Y-106646428D02*
X241205809Y-106708333D01*
X241205809Y-106708333D02*
X241129619Y-106739286D01*
X241129619Y-106739286D02*
X240977238Y-106770238D01*
X240977238Y-106770238D02*
X240862952Y-106770238D01*
X240862952Y-106770238D02*
X240710571Y-106739286D01*
X240710571Y-106739286D02*
X240634380Y-106708333D01*
X240634380Y-106708333D02*
X240558190Y-106646428D01*
X240558190Y-106646428D02*
X240520095Y-106553571D01*
X240520095Y-106553571D02*
X240520095Y-106491667D01*
X240520095Y-106491667D02*
X240558190Y-106398809D01*
X240558190Y-106398809D02*
X240596285Y-106367857D01*
X240520095Y-106151190D02*
X240520095Y-105748809D01*
X240520095Y-105748809D02*
X240824857Y-105965476D01*
X240824857Y-105965476D02*
X240824857Y-105872619D01*
X240824857Y-105872619D02*
X240862952Y-105810714D01*
X240862952Y-105810714D02*
X240901047Y-105779762D01*
X240901047Y-105779762D02*
X240977238Y-105748809D01*
X240977238Y-105748809D02*
X241167714Y-105748809D01*
X241167714Y-105748809D02*
X241243904Y-105779762D01*
X241243904Y-105779762D02*
X241282000Y-105810714D01*
X241282000Y-105810714D02*
X241320095Y-105872619D01*
X241320095Y-105872619D02*
X241320095Y-106058333D01*
X241320095Y-106058333D02*
X241282000Y-106120238D01*
X241282000Y-106120238D02*
X241243904Y-106151190D01*
X240520095Y-105532142D02*
X240520095Y-105129761D01*
X240520095Y-105129761D02*
X240824857Y-105346428D01*
X240824857Y-105346428D02*
X240824857Y-105253571D01*
X240824857Y-105253571D02*
X240862952Y-105191666D01*
X240862952Y-105191666D02*
X240901047Y-105160714D01*
X240901047Y-105160714D02*
X240977238Y-105129761D01*
X240977238Y-105129761D02*
X241167714Y-105129761D01*
X241167714Y-105129761D02*
X241243904Y-105160714D01*
X241243904Y-105160714D02*
X241282000Y-105191666D01*
X241282000Y-105191666D02*
X241320095Y-105253571D01*
X241320095Y-105253571D02*
X241320095Y-105439285D01*
X241320095Y-105439285D02*
X241282000Y-105501190D01*
X241282000Y-105501190D02*
X241243904Y-105532142D01*
X241293904Y-91314285D02*
X241332000Y-91352381D01*
X241332000Y-91352381D02*
X241370095Y-91466666D01*
X241370095Y-91466666D02*
X241370095Y-91542857D01*
X241370095Y-91542857D02*
X241332000Y-91657143D01*
X241332000Y-91657143D02*
X241255809Y-91733333D01*
X241255809Y-91733333D02*
X241179619Y-91771428D01*
X241179619Y-91771428D02*
X241027238Y-91809524D01*
X241027238Y-91809524D02*
X240912952Y-91809524D01*
X240912952Y-91809524D02*
X240760571Y-91771428D01*
X240760571Y-91771428D02*
X240684380Y-91733333D01*
X240684380Y-91733333D02*
X240608190Y-91657143D01*
X240608190Y-91657143D02*
X240570095Y-91542857D01*
X240570095Y-91542857D02*
X240570095Y-91466666D01*
X240570095Y-91466666D02*
X240608190Y-91352381D01*
X240608190Y-91352381D02*
X240646285Y-91314285D01*
X240646285Y-91009524D02*
X240608190Y-90971428D01*
X240608190Y-90971428D02*
X240570095Y-90895238D01*
X240570095Y-90895238D02*
X240570095Y-90704762D01*
X240570095Y-90704762D02*
X240608190Y-90628571D01*
X240608190Y-90628571D02*
X240646285Y-90590476D01*
X240646285Y-90590476D02*
X240722476Y-90552381D01*
X240722476Y-90552381D02*
X240798666Y-90552381D01*
X240798666Y-90552381D02*
X240912952Y-90590476D01*
X240912952Y-90590476D02*
X241370095Y-91047619D01*
X241370095Y-91047619D02*
X241370095Y-90552381D01*
X241370095Y-89790476D02*
X241370095Y-90247619D01*
X241370095Y-90019047D02*
X240570095Y-90019047D01*
X240570095Y-90019047D02*
X240684380Y-90095238D01*
X240684380Y-90095238D02*
X240760571Y-90171428D01*
X240760571Y-90171428D02*
X240798666Y-90247619D01*
X226123333Y-80200095D02*
X226123333Y-80771523D01*
X226123333Y-80771523D02*
X226085238Y-80885809D01*
X226085238Y-80885809D02*
X226009047Y-80962000D01*
X226009047Y-80962000D02*
X225894762Y-81000095D01*
X225894762Y-81000095D02*
X225818571Y-81000095D01*
X226923333Y-81000095D02*
X226466190Y-81000095D01*
X226694762Y-81000095D02*
X226694762Y-80200095D01*
X226694762Y-80200095D02*
X226618571Y-80314380D01*
X226618571Y-80314380D02*
X226542381Y-80390571D01*
X226542381Y-80390571D02*
X226466190Y-80428666D01*
X263890095Y-87653332D02*
X263509142Y-87919999D01*
X263890095Y-88110475D02*
X263090095Y-88110475D01*
X263090095Y-88110475D02*
X263090095Y-87805713D01*
X263090095Y-87805713D02*
X263128190Y-87729523D01*
X263128190Y-87729523D02*
X263166285Y-87691428D01*
X263166285Y-87691428D02*
X263242476Y-87653332D01*
X263242476Y-87653332D02*
X263356761Y-87653332D01*
X263356761Y-87653332D02*
X263432952Y-87691428D01*
X263432952Y-87691428D02*
X263471047Y-87729523D01*
X263471047Y-87729523D02*
X263509142Y-87805713D01*
X263509142Y-87805713D02*
X263509142Y-88110475D01*
X263356761Y-86967618D02*
X263890095Y-86967618D01*
X263052000Y-87158094D02*
X263623428Y-87348571D01*
X263623428Y-87348571D02*
X263623428Y-86853332D01*
X270533333Y-86110095D02*
X270533333Y-86681523D01*
X270533333Y-86681523D02*
X270495238Y-86795809D01*
X270495238Y-86795809D02*
X270419047Y-86872000D01*
X270419047Y-86872000D02*
X270304762Y-86910095D01*
X270304762Y-86910095D02*
X270228571Y-86910095D01*
X270914286Y-86910095D02*
X270914286Y-86110095D01*
X270914286Y-86110095D02*
X271219048Y-86110095D01*
X271219048Y-86110095D02*
X271295238Y-86148190D01*
X271295238Y-86148190D02*
X271333333Y-86186285D01*
X271333333Y-86186285D02*
X271371429Y-86262476D01*
X271371429Y-86262476D02*
X271371429Y-86376761D01*
X271371429Y-86376761D02*
X271333333Y-86452952D01*
X271333333Y-86452952D02*
X271295238Y-86491047D01*
X271295238Y-86491047D02*
X271219048Y-86529142D01*
X271219048Y-86529142D02*
X270914286Y-86529142D01*
X271676190Y-86186285D02*
X271714286Y-86148190D01*
X271714286Y-86148190D02*
X271790476Y-86110095D01*
X271790476Y-86110095D02*
X271980952Y-86110095D01*
X271980952Y-86110095D02*
X272057143Y-86148190D01*
X272057143Y-86148190D02*
X272095238Y-86186285D01*
X272095238Y-86186285D02*
X272133333Y-86262476D01*
X272133333Y-86262476D02*
X272133333Y-86338666D01*
X272133333Y-86338666D02*
X272095238Y-86452952D01*
X272095238Y-86452952D02*
X271638095Y-86910095D01*
X271638095Y-86910095D02*
X272133333Y-86910095D01*
X269342619Y-91474285D02*
X269342619Y-92045713D01*
X269342619Y-91759999D02*
X268342619Y-91759999D01*
X268342619Y-91759999D02*
X268485476Y-91855237D01*
X268485476Y-91855237D02*
X268580714Y-91950475D01*
X268580714Y-91950475D02*
X268628333Y-92045713D01*
X269950095Y-74273061D02*
X269569142Y-74539728D01*
X269950095Y-74730204D02*
X269150095Y-74730204D01*
X269150095Y-74730204D02*
X269150095Y-74425442D01*
X269150095Y-74425442D02*
X269188190Y-74349252D01*
X269188190Y-74349252D02*
X269226285Y-74311157D01*
X269226285Y-74311157D02*
X269302476Y-74273061D01*
X269302476Y-74273061D02*
X269416761Y-74273061D01*
X269416761Y-74273061D02*
X269492952Y-74311157D01*
X269492952Y-74311157D02*
X269531047Y-74349252D01*
X269531047Y-74349252D02*
X269569142Y-74425442D01*
X269569142Y-74425442D02*
X269569142Y-74730204D01*
X269226285Y-73968300D02*
X269188190Y-73930204D01*
X269188190Y-73930204D02*
X269150095Y-73854014D01*
X269150095Y-73854014D02*
X269150095Y-73663538D01*
X269150095Y-73663538D02*
X269188190Y-73587347D01*
X269188190Y-73587347D02*
X269226285Y-73549252D01*
X269226285Y-73549252D02*
X269302476Y-73511157D01*
X269302476Y-73511157D02*
X269378666Y-73511157D01*
X269378666Y-73511157D02*
X269492952Y-73549252D01*
X269492952Y-73549252D02*
X269950095Y-74006395D01*
X269950095Y-74006395D02*
X269950095Y-73511157D01*
X269226285Y-73206395D02*
X269188190Y-73168299D01*
X269188190Y-73168299D02*
X269150095Y-73092109D01*
X269150095Y-73092109D02*
X269150095Y-72901633D01*
X269150095Y-72901633D02*
X269188190Y-72825442D01*
X269188190Y-72825442D02*
X269226285Y-72787347D01*
X269226285Y-72787347D02*
X269302476Y-72749252D01*
X269302476Y-72749252D02*
X269378666Y-72749252D01*
X269378666Y-72749252D02*
X269492952Y-72787347D01*
X269492952Y-72787347D02*
X269950095Y-73244490D01*
X269950095Y-73244490D02*
X269950095Y-72749252D01*
X256373904Y-91974285D02*
X256412000Y-92012381D01*
X256412000Y-92012381D02*
X256450095Y-92126666D01*
X256450095Y-92126666D02*
X256450095Y-92202857D01*
X256450095Y-92202857D02*
X256412000Y-92317143D01*
X256412000Y-92317143D02*
X256335809Y-92393333D01*
X256335809Y-92393333D02*
X256259619Y-92431428D01*
X256259619Y-92431428D02*
X256107238Y-92469524D01*
X256107238Y-92469524D02*
X255992952Y-92469524D01*
X255992952Y-92469524D02*
X255840571Y-92431428D01*
X255840571Y-92431428D02*
X255764380Y-92393333D01*
X255764380Y-92393333D02*
X255688190Y-92317143D01*
X255688190Y-92317143D02*
X255650095Y-92202857D01*
X255650095Y-92202857D02*
X255650095Y-92126666D01*
X255650095Y-92126666D02*
X255688190Y-92012381D01*
X255688190Y-92012381D02*
X255726285Y-91974285D01*
X256450095Y-91212381D02*
X256450095Y-91669524D01*
X256450095Y-91440952D02*
X255650095Y-91440952D01*
X255650095Y-91440952D02*
X255764380Y-91517143D01*
X255764380Y-91517143D02*
X255840571Y-91593333D01*
X255840571Y-91593333D02*
X255878666Y-91669524D01*
X255916761Y-90526666D02*
X256450095Y-90526666D01*
X255612000Y-90717142D02*
X256183428Y-90907619D01*
X256183428Y-90907619D02*
X256183428Y-90412380D01*
X259315714Y-81323904D02*
X259277618Y-81362000D01*
X259277618Y-81362000D02*
X259163333Y-81400095D01*
X259163333Y-81400095D02*
X259087142Y-81400095D01*
X259087142Y-81400095D02*
X258972856Y-81362000D01*
X258972856Y-81362000D02*
X258896666Y-81285809D01*
X258896666Y-81285809D02*
X258858571Y-81209619D01*
X258858571Y-81209619D02*
X258820475Y-81057238D01*
X258820475Y-81057238D02*
X258820475Y-80942952D01*
X258820475Y-80942952D02*
X258858571Y-80790571D01*
X258858571Y-80790571D02*
X258896666Y-80714380D01*
X258896666Y-80714380D02*
X258972856Y-80638190D01*
X258972856Y-80638190D02*
X259087142Y-80600095D01*
X259087142Y-80600095D02*
X259163333Y-80600095D01*
X259163333Y-80600095D02*
X259277618Y-80638190D01*
X259277618Y-80638190D02*
X259315714Y-80676285D01*
X260077618Y-81400095D02*
X259620475Y-81400095D01*
X259849047Y-81400095D02*
X259849047Y-80600095D01*
X259849047Y-80600095D02*
X259772856Y-80714380D01*
X259772856Y-80714380D02*
X259696666Y-80790571D01*
X259696666Y-80790571D02*
X259620475Y-80828666D01*
X260344285Y-80600095D02*
X260839523Y-80600095D01*
X260839523Y-80600095D02*
X260572857Y-80904857D01*
X260572857Y-80904857D02*
X260687142Y-80904857D01*
X260687142Y-80904857D02*
X260763333Y-80942952D01*
X260763333Y-80942952D02*
X260801428Y-80981047D01*
X260801428Y-80981047D02*
X260839523Y-81057238D01*
X260839523Y-81057238D02*
X260839523Y-81247714D01*
X260839523Y-81247714D02*
X260801428Y-81323904D01*
X260801428Y-81323904D02*
X260763333Y-81362000D01*
X260763333Y-81362000D02*
X260687142Y-81400095D01*
X260687142Y-81400095D02*
X260458571Y-81400095D01*
X260458571Y-81400095D02*
X260382380Y-81362000D01*
X260382380Y-81362000D02*
X260344285Y-81323904D01*
X251185714Y-99093904D02*
X251147618Y-99132000D01*
X251147618Y-99132000D02*
X251033333Y-99170095D01*
X251033333Y-99170095D02*
X250957142Y-99170095D01*
X250957142Y-99170095D02*
X250842856Y-99132000D01*
X250842856Y-99132000D02*
X250766666Y-99055809D01*
X250766666Y-99055809D02*
X250728571Y-98979619D01*
X250728571Y-98979619D02*
X250690475Y-98827238D01*
X250690475Y-98827238D02*
X250690475Y-98712952D01*
X250690475Y-98712952D02*
X250728571Y-98560571D01*
X250728571Y-98560571D02*
X250766666Y-98484380D01*
X250766666Y-98484380D02*
X250842856Y-98408190D01*
X250842856Y-98408190D02*
X250957142Y-98370095D01*
X250957142Y-98370095D02*
X251033333Y-98370095D01*
X251033333Y-98370095D02*
X251147618Y-98408190D01*
X251147618Y-98408190D02*
X251185714Y-98446285D01*
X251452380Y-98370095D02*
X251947618Y-98370095D01*
X251947618Y-98370095D02*
X251680952Y-98674857D01*
X251680952Y-98674857D02*
X251795237Y-98674857D01*
X251795237Y-98674857D02*
X251871428Y-98712952D01*
X251871428Y-98712952D02*
X251909523Y-98751047D01*
X251909523Y-98751047D02*
X251947618Y-98827238D01*
X251947618Y-98827238D02*
X251947618Y-99017714D01*
X251947618Y-99017714D02*
X251909523Y-99093904D01*
X251909523Y-99093904D02*
X251871428Y-99132000D01*
X251871428Y-99132000D02*
X251795237Y-99170095D01*
X251795237Y-99170095D02*
X251566666Y-99170095D01*
X251566666Y-99170095D02*
X251490475Y-99132000D01*
X251490475Y-99132000D02*
X251452380Y-99093904D01*
X252442857Y-98370095D02*
X252519047Y-98370095D01*
X252519047Y-98370095D02*
X252595238Y-98408190D01*
X252595238Y-98408190D02*
X252633333Y-98446285D01*
X252633333Y-98446285D02*
X252671428Y-98522476D01*
X252671428Y-98522476D02*
X252709523Y-98674857D01*
X252709523Y-98674857D02*
X252709523Y-98865333D01*
X252709523Y-98865333D02*
X252671428Y-99017714D01*
X252671428Y-99017714D02*
X252633333Y-99093904D01*
X252633333Y-99093904D02*
X252595238Y-99132000D01*
X252595238Y-99132000D02*
X252519047Y-99170095D01*
X252519047Y-99170095D02*
X252442857Y-99170095D01*
X252442857Y-99170095D02*
X252366666Y-99132000D01*
X252366666Y-99132000D02*
X252328571Y-99093904D01*
X252328571Y-99093904D02*
X252290476Y-99017714D01*
X252290476Y-99017714D02*
X252252380Y-98865333D01*
X252252380Y-98865333D02*
X252252380Y-98674857D01*
X252252380Y-98674857D02*
X252290476Y-98522476D01*
X252290476Y-98522476D02*
X252328571Y-98446285D01*
X252328571Y-98446285D02*
X252366666Y-98408190D01*
X252366666Y-98408190D02*
X252442857Y-98370095D01*
X245833904Y-92883332D02*
X245872000Y-92921428D01*
X245872000Y-92921428D02*
X245910095Y-93035713D01*
X245910095Y-93035713D02*
X245910095Y-93111904D01*
X245910095Y-93111904D02*
X245872000Y-93226190D01*
X245872000Y-93226190D02*
X245795809Y-93302380D01*
X245795809Y-93302380D02*
X245719619Y-93340475D01*
X245719619Y-93340475D02*
X245567238Y-93378571D01*
X245567238Y-93378571D02*
X245452952Y-93378571D01*
X245452952Y-93378571D02*
X245300571Y-93340475D01*
X245300571Y-93340475D02*
X245224380Y-93302380D01*
X245224380Y-93302380D02*
X245148190Y-93226190D01*
X245148190Y-93226190D02*
X245110095Y-93111904D01*
X245110095Y-93111904D02*
X245110095Y-93035713D01*
X245110095Y-93035713D02*
X245148190Y-92921428D01*
X245148190Y-92921428D02*
X245186285Y-92883332D01*
X245910095Y-92502380D02*
X245910095Y-92349999D01*
X245910095Y-92349999D02*
X245872000Y-92273809D01*
X245872000Y-92273809D02*
X245833904Y-92235713D01*
X245833904Y-92235713D02*
X245719619Y-92159523D01*
X245719619Y-92159523D02*
X245567238Y-92121428D01*
X245567238Y-92121428D02*
X245262476Y-92121428D01*
X245262476Y-92121428D02*
X245186285Y-92159523D01*
X245186285Y-92159523D02*
X245148190Y-92197618D01*
X245148190Y-92197618D02*
X245110095Y-92273809D01*
X245110095Y-92273809D02*
X245110095Y-92426190D01*
X245110095Y-92426190D02*
X245148190Y-92502380D01*
X245148190Y-92502380D02*
X245186285Y-92540475D01*
X245186285Y-92540475D02*
X245262476Y-92578571D01*
X245262476Y-92578571D02*
X245452952Y-92578571D01*
X245452952Y-92578571D02*
X245529142Y-92540475D01*
X245529142Y-92540475D02*
X245567238Y-92502380D01*
X245567238Y-92502380D02*
X245605333Y-92426190D01*
X245605333Y-92426190D02*
X245605333Y-92273809D01*
X245605333Y-92273809D02*
X245567238Y-92197618D01*
X245567238Y-92197618D02*
X245529142Y-92159523D01*
X245529142Y-92159523D02*
X245452952Y-92121428D01*
X243666667Y-78743904D02*
X243628571Y-78782000D01*
X243628571Y-78782000D02*
X243514286Y-78820095D01*
X243514286Y-78820095D02*
X243438095Y-78820095D01*
X243438095Y-78820095D02*
X243323809Y-78782000D01*
X243323809Y-78782000D02*
X243247619Y-78705809D01*
X243247619Y-78705809D02*
X243209524Y-78629619D01*
X243209524Y-78629619D02*
X243171428Y-78477238D01*
X243171428Y-78477238D02*
X243171428Y-78362952D01*
X243171428Y-78362952D02*
X243209524Y-78210571D01*
X243209524Y-78210571D02*
X243247619Y-78134380D01*
X243247619Y-78134380D02*
X243323809Y-78058190D01*
X243323809Y-78058190D02*
X243438095Y-78020095D01*
X243438095Y-78020095D02*
X243514286Y-78020095D01*
X243514286Y-78020095D02*
X243628571Y-78058190D01*
X243628571Y-78058190D02*
X243666667Y-78096285D01*
X244352381Y-78286761D02*
X244352381Y-78820095D01*
X244161905Y-77982000D02*
X243971428Y-78553428D01*
X243971428Y-78553428D02*
X244466667Y-78553428D01*
X231285714Y-106420095D02*
X231019047Y-106039142D01*
X230828571Y-106420095D02*
X230828571Y-105620095D01*
X230828571Y-105620095D02*
X231133333Y-105620095D01*
X231133333Y-105620095D02*
X231209523Y-105658190D01*
X231209523Y-105658190D02*
X231247618Y-105696285D01*
X231247618Y-105696285D02*
X231285714Y-105772476D01*
X231285714Y-105772476D02*
X231285714Y-105886761D01*
X231285714Y-105886761D02*
X231247618Y-105962952D01*
X231247618Y-105962952D02*
X231209523Y-106001047D01*
X231209523Y-106001047D02*
X231133333Y-106039142D01*
X231133333Y-106039142D02*
X230828571Y-106039142D01*
X231971428Y-105886761D02*
X231971428Y-106420095D01*
X231780952Y-105582000D02*
X231590475Y-106153428D01*
X231590475Y-106153428D02*
X232085714Y-106153428D01*
X232314285Y-105620095D02*
X232847619Y-105620095D01*
X232847619Y-105620095D02*
X232504761Y-106420095D01*
X230520095Y-104064285D02*
X230139142Y-104330952D01*
X230520095Y-104521428D02*
X229720095Y-104521428D01*
X229720095Y-104521428D02*
X229720095Y-104216666D01*
X229720095Y-104216666D02*
X229758190Y-104140476D01*
X229758190Y-104140476D02*
X229796285Y-104102381D01*
X229796285Y-104102381D02*
X229872476Y-104064285D01*
X229872476Y-104064285D02*
X229986761Y-104064285D01*
X229986761Y-104064285D02*
X230062952Y-104102381D01*
X230062952Y-104102381D02*
X230101047Y-104140476D01*
X230101047Y-104140476D02*
X230139142Y-104216666D01*
X230139142Y-104216666D02*
X230139142Y-104521428D01*
X229986761Y-103378571D02*
X230520095Y-103378571D01*
X229682000Y-103569047D02*
X230253428Y-103759524D01*
X230253428Y-103759524D02*
X230253428Y-103264285D01*
X229720095Y-102616666D02*
X229720095Y-102769047D01*
X229720095Y-102769047D02*
X229758190Y-102845238D01*
X229758190Y-102845238D02*
X229796285Y-102883333D01*
X229796285Y-102883333D02*
X229910571Y-102959523D01*
X229910571Y-102959523D02*
X230062952Y-102997619D01*
X230062952Y-102997619D02*
X230367714Y-102997619D01*
X230367714Y-102997619D02*
X230443904Y-102959523D01*
X230443904Y-102959523D02*
X230482000Y-102921428D01*
X230482000Y-102921428D02*
X230520095Y-102845238D01*
X230520095Y-102845238D02*
X230520095Y-102692857D01*
X230520095Y-102692857D02*
X230482000Y-102616666D01*
X230482000Y-102616666D02*
X230443904Y-102578571D01*
X230443904Y-102578571D02*
X230367714Y-102540476D01*
X230367714Y-102540476D02*
X230177238Y-102540476D01*
X230177238Y-102540476D02*
X230101047Y-102578571D01*
X230101047Y-102578571D02*
X230062952Y-102616666D01*
X230062952Y-102616666D02*
X230024857Y-102692857D01*
X230024857Y-102692857D02*
X230024857Y-102845238D01*
X230024857Y-102845238D02*
X230062952Y-102921428D01*
X230062952Y-102921428D02*
X230101047Y-102959523D01*
X230101047Y-102959523D02*
X230177238Y-102997619D01*
X239832595Y-85583333D02*
X239832595Y-85964285D01*
X239832595Y-85964285D02*
X239032595Y-85964285D01*
X239832595Y-84897619D02*
X239832595Y-85354762D01*
X239832595Y-85126190D02*
X239032595Y-85126190D01*
X239032595Y-85126190D02*
X239146880Y-85202381D01*
X239146880Y-85202381D02*
X239223071Y-85278571D01*
X239223071Y-85278571D02*
X239261166Y-85354762D01*
X243841667Y-86418904D02*
X243803571Y-86457000D01*
X243803571Y-86457000D02*
X243689286Y-86495095D01*
X243689286Y-86495095D02*
X243613095Y-86495095D01*
X243613095Y-86495095D02*
X243498809Y-86457000D01*
X243498809Y-86457000D02*
X243422619Y-86380809D01*
X243422619Y-86380809D02*
X243384524Y-86304619D01*
X243384524Y-86304619D02*
X243346428Y-86152238D01*
X243346428Y-86152238D02*
X243346428Y-86037952D01*
X243346428Y-86037952D02*
X243384524Y-85885571D01*
X243384524Y-85885571D02*
X243422619Y-85809380D01*
X243422619Y-85809380D02*
X243498809Y-85733190D01*
X243498809Y-85733190D02*
X243613095Y-85695095D01*
X243613095Y-85695095D02*
X243689286Y-85695095D01*
X243689286Y-85695095D02*
X243803571Y-85733190D01*
X243803571Y-85733190D02*
X243841667Y-85771285D01*
X244603571Y-86495095D02*
X244146428Y-86495095D01*
X244375000Y-86495095D02*
X244375000Y-85695095D01*
X244375000Y-85695095D02*
X244298809Y-85809380D01*
X244298809Y-85809380D02*
X244222619Y-85885571D01*
X244222619Y-85885571D02*
X244146428Y-85923666D01*
X231220095Y-83090475D02*
X230420095Y-83090475D01*
X230420095Y-83090475D02*
X230420095Y-82899999D01*
X230420095Y-82899999D02*
X230458190Y-82785713D01*
X230458190Y-82785713D02*
X230534380Y-82709523D01*
X230534380Y-82709523D02*
X230610571Y-82671428D01*
X230610571Y-82671428D02*
X230762952Y-82633332D01*
X230762952Y-82633332D02*
X230877238Y-82633332D01*
X230877238Y-82633332D02*
X231029619Y-82671428D01*
X231029619Y-82671428D02*
X231105809Y-82709523D01*
X231105809Y-82709523D02*
X231182000Y-82785713D01*
X231182000Y-82785713D02*
X231220095Y-82899999D01*
X231220095Y-82899999D02*
X231220095Y-83090475D01*
X230496285Y-82328571D02*
X230458190Y-82290475D01*
X230458190Y-82290475D02*
X230420095Y-82214285D01*
X230420095Y-82214285D02*
X230420095Y-82023809D01*
X230420095Y-82023809D02*
X230458190Y-81947618D01*
X230458190Y-81947618D02*
X230496285Y-81909523D01*
X230496285Y-81909523D02*
X230572476Y-81871428D01*
X230572476Y-81871428D02*
X230648666Y-81871428D01*
X230648666Y-81871428D02*
X230762952Y-81909523D01*
X230762952Y-81909523D02*
X231220095Y-82366666D01*
X231220095Y-82366666D02*
X231220095Y-81871428D01*
X241835714Y-103370095D02*
X241569047Y-102989142D01*
X241378571Y-103370095D02*
X241378571Y-102570095D01*
X241378571Y-102570095D02*
X241683333Y-102570095D01*
X241683333Y-102570095D02*
X241759523Y-102608190D01*
X241759523Y-102608190D02*
X241797618Y-102646285D01*
X241797618Y-102646285D02*
X241835714Y-102722476D01*
X241835714Y-102722476D02*
X241835714Y-102836761D01*
X241835714Y-102836761D02*
X241797618Y-102912952D01*
X241797618Y-102912952D02*
X241759523Y-102951047D01*
X241759523Y-102951047D02*
X241683333Y-102989142D01*
X241683333Y-102989142D02*
X241378571Y-102989142D01*
X242140475Y-102646285D02*
X242178571Y-102608190D01*
X242178571Y-102608190D02*
X242254761Y-102570095D01*
X242254761Y-102570095D02*
X242445237Y-102570095D01*
X242445237Y-102570095D02*
X242521428Y-102608190D01*
X242521428Y-102608190D02*
X242559523Y-102646285D01*
X242559523Y-102646285D02*
X242597618Y-102722476D01*
X242597618Y-102722476D02*
X242597618Y-102798666D01*
X242597618Y-102798666D02*
X242559523Y-102912952D01*
X242559523Y-102912952D02*
X242102380Y-103370095D01*
X242102380Y-103370095D02*
X242597618Y-103370095D01*
X242864285Y-102570095D02*
X243359523Y-102570095D01*
X243359523Y-102570095D02*
X243092857Y-102874857D01*
X243092857Y-102874857D02*
X243207142Y-102874857D01*
X243207142Y-102874857D02*
X243283333Y-102912952D01*
X243283333Y-102912952D02*
X243321428Y-102951047D01*
X243321428Y-102951047D02*
X243359523Y-103027238D01*
X243359523Y-103027238D02*
X243359523Y-103217714D01*
X243359523Y-103217714D02*
X243321428Y-103293904D01*
X243321428Y-103293904D02*
X243283333Y-103332000D01*
X243283333Y-103332000D02*
X243207142Y-103370095D01*
X243207142Y-103370095D02*
X242978571Y-103370095D01*
X242978571Y-103370095D02*
X242902380Y-103332000D01*
X242902380Y-103332000D02*
X242864285Y-103293904D01*
X244660476Y-98870095D02*
X244660476Y-99517714D01*
X244660476Y-99517714D02*
X244698571Y-99593904D01*
X244698571Y-99593904D02*
X244736666Y-99632000D01*
X244736666Y-99632000D02*
X244812857Y-99670095D01*
X244812857Y-99670095D02*
X244965238Y-99670095D01*
X244965238Y-99670095D02*
X245041428Y-99632000D01*
X245041428Y-99632000D02*
X245079523Y-99593904D01*
X245079523Y-99593904D02*
X245117619Y-99517714D01*
X245117619Y-99517714D02*
X245117619Y-98870095D01*
X245841428Y-99136761D02*
X245841428Y-99670095D01*
X245650952Y-98832000D02*
X245460475Y-99403428D01*
X245460475Y-99403428D02*
X245955714Y-99403428D01*
X257050095Y-103474285D02*
X256669142Y-103740952D01*
X257050095Y-103931428D02*
X256250095Y-103931428D01*
X256250095Y-103931428D02*
X256250095Y-103626666D01*
X256250095Y-103626666D02*
X256288190Y-103550476D01*
X256288190Y-103550476D02*
X256326285Y-103512381D01*
X256326285Y-103512381D02*
X256402476Y-103474285D01*
X256402476Y-103474285D02*
X256516761Y-103474285D01*
X256516761Y-103474285D02*
X256592952Y-103512381D01*
X256592952Y-103512381D02*
X256631047Y-103550476D01*
X256631047Y-103550476D02*
X256669142Y-103626666D01*
X256669142Y-103626666D02*
X256669142Y-103931428D01*
X256326285Y-103169524D02*
X256288190Y-103131428D01*
X256288190Y-103131428D02*
X256250095Y-103055238D01*
X256250095Y-103055238D02*
X256250095Y-102864762D01*
X256250095Y-102864762D02*
X256288190Y-102788571D01*
X256288190Y-102788571D02*
X256326285Y-102750476D01*
X256326285Y-102750476D02*
X256402476Y-102712381D01*
X256402476Y-102712381D02*
X256478666Y-102712381D01*
X256478666Y-102712381D02*
X256592952Y-102750476D01*
X256592952Y-102750476D02*
X257050095Y-103207619D01*
X257050095Y-103207619D02*
X257050095Y-102712381D01*
X256250095Y-102445714D02*
X256250095Y-101912380D01*
X256250095Y-101912380D02*
X257050095Y-102255238D01*
X255528571Y-98320095D02*
X255528571Y-97520095D01*
X255528571Y-97520095D02*
X255719047Y-97520095D01*
X255719047Y-97520095D02*
X255833333Y-97558190D01*
X255833333Y-97558190D02*
X255909523Y-97634380D01*
X255909523Y-97634380D02*
X255947618Y-97710571D01*
X255947618Y-97710571D02*
X255985714Y-97862952D01*
X255985714Y-97862952D02*
X255985714Y-97977238D01*
X255985714Y-97977238D02*
X255947618Y-98129619D01*
X255947618Y-98129619D02*
X255909523Y-98205809D01*
X255909523Y-98205809D02*
X255833333Y-98282000D01*
X255833333Y-98282000D02*
X255719047Y-98320095D01*
X255719047Y-98320095D02*
X255528571Y-98320095D01*
X256747618Y-98320095D02*
X256290475Y-98320095D01*
X256519047Y-98320095D02*
X256519047Y-97520095D01*
X256519047Y-97520095D02*
X256442856Y-97634380D01*
X256442856Y-97634380D02*
X256366666Y-97710571D01*
X256366666Y-97710571D02*
X256290475Y-97748666D01*
X257509523Y-98320095D02*
X257052380Y-98320095D01*
X257280952Y-98320095D02*
X257280952Y-97520095D01*
X257280952Y-97520095D02*
X257204761Y-97634380D01*
X257204761Y-97634380D02*
X257128571Y-97710571D01*
X257128571Y-97710571D02*
X257052380Y-97748666D01*
X243666667Y-80743904D02*
X243628571Y-80782000D01*
X243628571Y-80782000D02*
X243514286Y-80820095D01*
X243514286Y-80820095D02*
X243438095Y-80820095D01*
X243438095Y-80820095D02*
X243323809Y-80782000D01*
X243323809Y-80782000D02*
X243247619Y-80705809D01*
X243247619Y-80705809D02*
X243209524Y-80629619D01*
X243209524Y-80629619D02*
X243171428Y-80477238D01*
X243171428Y-80477238D02*
X243171428Y-80362952D01*
X243171428Y-80362952D02*
X243209524Y-80210571D01*
X243209524Y-80210571D02*
X243247619Y-80134380D01*
X243247619Y-80134380D02*
X243323809Y-80058190D01*
X243323809Y-80058190D02*
X243438095Y-80020095D01*
X243438095Y-80020095D02*
X243514286Y-80020095D01*
X243514286Y-80020095D02*
X243628571Y-80058190D01*
X243628571Y-80058190D02*
X243666667Y-80096285D01*
X244352381Y-80020095D02*
X244200000Y-80020095D01*
X244200000Y-80020095D02*
X244123809Y-80058190D01*
X244123809Y-80058190D02*
X244085714Y-80096285D01*
X244085714Y-80096285D02*
X244009524Y-80210571D01*
X244009524Y-80210571D02*
X243971428Y-80362952D01*
X243971428Y-80362952D02*
X243971428Y-80667714D01*
X243971428Y-80667714D02*
X244009524Y-80743904D01*
X244009524Y-80743904D02*
X244047619Y-80782000D01*
X244047619Y-80782000D02*
X244123809Y-80820095D01*
X244123809Y-80820095D02*
X244276190Y-80820095D01*
X244276190Y-80820095D02*
X244352381Y-80782000D01*
X244352381Y-80782000D02*
X244390476Y-80743904D01*
X244390476Y-80743904D02*
X244428571Y-80667714D01*
X244428571Y-80667714D02*
X244428571Y-80477238D01*
X244428571Y-80477238D02*
X244390476Y-80401047D01*
X244390476Y-80401047D02*
X244352381Y-80362952D01*
X244352381Y-80362952D02*
X244276190Y-80324857D01*
X244276190Y-80324857D02*
X244123809Y-80324857D01*
X244123809Y-80324857D02*
X244047619Y-80362952D01*
X244047619Y-80362952D02*
X244009524Y-80401047D01*
X244009524Y-80401047D02*
X243971428Y-80477238D01*
X247470095Y-82098332D02*
X247089142Y-82364999D01*
X247470095Y-82555475D02*
X246670095Y-82555475D01*
X246670095Y-82555475D02*
X246670095Y-82250713D01*
X246670095Y-82250713D02*
X246708190Y-82174523D01*
X246708190Y-82174523D02*
X246746285Y-82136428D01*
X246746285Y-82136428D02*
X246822476Y-82098332D01*
X246822476Y-82098332D02*
X246936761Y-82098332D01*
X246936761Y-82098332D02*
X247012952Y-82136428D01*
X247012952Y-82136428D02*
X247051047Y-82174523D01*
X247051047Y-82174523D02*
X247089142Y-82250713D01*
X247089142Y-82250713D02*
X247089142Y-82555475D01*
X246670095Y-81831666D02*
X246670095Y-81336428D01*
X246670095Y-81336428D02*
X246974857Y-81603094D01*
X246974857Y-81603094D02*
X246974857Y-81488809D01*
X246974857Y-81488809D02*
X247012952Y-81412618D01*
X247012952Y-81412618D02*
X247051047Y-81374523D01*
X247051047Y-81374523D02*
X247127238Y-81336428D01*
X247127238Y-81336428D02*
X247317714Y-81336428D01*
X247317714Y-81336428D02*
X247393904Y-81374523D01*
X247393904Y-81374523D02*
X247432000Y-81412618D01*
X247432000Y-81412618D02*
X247470095Y-81488809D01*
X247470095Y-81488809D02*
X247470095Y-81717380D01*
X247470095Y-81717380D02*
X247432000Y-81793571D01*
X247432000Y-81793571D02*
X247393904Y-81831666D01*
X253493904Y-101014285D02*
X253532000Y-101052381D01*
X253532000Y-101052381D02*
X253570095Y-101166666D01*
X253570095Y-101166666D02*
X253570095Y-101242857D01*
X253570095Y-101242857D02*
X253532000Y-101357143D01*
X253532000Y-101357143D02*
X253455809Y-101433333D01*
X253455809Y-101433333D02*
X253379619Y-101471428D01*
X253379619Y-101471428D02*
X253227238Y-101509524D01*
X253227238Y-101509524D02*
X253112952Y-101509524D01*
X253112952Y-101509524D02*
X252960571Y-101471428D01*
X252960571Y-101471428D02*
X252884380Y-101433333D01*
X252884380Y-101433333D02*
X252808190Y-101357143D01*
X252808190Y-101357143D02*
X252770095Y-101242857D01*
X252770095Y-101242857D02*
X252770095Y-101166666D01*
X252770095Y-101166666D02*
X252808190Y-101052381D01*
X252808190Y-101052381D02*
X252846285Y-101014285D01*
X252846285Y-100709524D02*
X252808190Y-100671428D01*
X252808190Y-100671428D02*
X252770095Y-100595238D01*
X252770095Y-100595238D02*
X252770095Y-100404762D01*
X252770095Y-100404762D02*
X252808190Y-100328571D01*
X252808190Y-100328571D02*
X252846285Y-100290476D01*
X252846285Y-100290476D02*
X252922476Y-100252381D01*
X252922476Y-100252381D02*
X252998666Y-100252381D01*
X252998666Y-100252381D02*
X253112952Y-100290476D01*
X253112952Y-100290476D02*
X253570095Y-100747619D01*
X253570095Y-100747619D02*
X253570095Y-100252381D01*
X253570095Y-99871428D02*
X253570095Y-99719047D01*
X253570095Y-99719047D02*
X253532000Y-99642857D01*
X253532000Y-99642857D02*
X253493904Y-99604761D01*
X253493904Y-99604761D02*
X253379619Y-99528571D01*
X253379619Y-99528571D02*
X253227238Y-99490476D01*
X253227238Y-99490476D02*
X252922476Y-99490476D01*
X252922476Y-99490476D02*
X252846285Y-99528571D01*
X252846285Y-99528571D02*
X252808190Y-99566666D01*
X252808190Y-99566666D02*
X252770095Y-99642857D01*
X252770095Y-99642857D02*
X252770095Y-99795238D01*
X252770095Y-99795238D02*
X252808190Y-99871428D01*
X252808190Y-99871428D02*
X252846285Y-99909523D01*
X252846285Y-99909523D02*
X252922476Y-99947619D01*
X252922476Y-99947619D02*
X253112952Y-99947619D01*
X253112952Y-99947619D02*
X253189142Y-99909523D01*
X253189142Y-99909523D02*
X253227238Y-99871428D01*
X253227238Y-99871428D02*
X253265333Y-99795238D01*
X253265333Y-99795238D02*
X253265333Y-99642857D01*
X253265333Y-99642857D02*
X253227238Y-99566666D01*
X253227238Y-99566666D02*
X253189142Y-99528571D01*
X253189142Y-99528571D02*
X253112952Y-99490476D01*
X258120095Y-96483332D02*
X257739142Y-96749999D01*
X258120095Y-96940475D02*
X257320095Y-96940475D01*
X257320095Y-96940475D02*
X257320095Y-96635713D01*
X257320095Y-96635713D02*
X257358190Y-96559523D01*
X257358190Y-96559523D02*
X257396285Y-96521428D01*
X257396285Y-96521428D02*
X257472476Y-96483332D01*
X257472476Y-96483332D02*
X257586761Y-96483332D01*
X257586761Y-96483332D02*
X257662952Y-96521428D01*
X257662952Y-96521428D02*
X257701047Y-96559523D01*
X257701047Y-96559523D02*
X257739142Y-96635713D01*
X257739142Y-96635713D02*
X257739142Y-96940475D01*
X257662952Y-96026190D02*
X257624857Y-96102380D01*
X257624857Y-96102380D02*
X257586761Y-96140475D01*
X257586761Y-96140475D02*
X257510571Y-96178571D01*
X257510571Y-96178571D02*
X257472476Y-96178571D01*
X257472476Y-96178571D02*
X257396285Y-96140475D01*
X257396285Y-96140475D02*
X257358190Y-96102380D01*
X257358190Y-96102380D02*
X257320095Y-96026190D01*
X257320095Y-96026190D02*
X257320095Y-95873809D01*
X257320095Y-95873809D02*
X257358190Y-95797618D01*
X257358190Y-95797618D02*
X257396285Y-95759523D01*
X257396285Y-95759523D02*
X257472476Y-95721428D01*
X257472476Y-95721428D02*
X257510571Y-95721428D01*
X257510571Y-95721428D02*
X257586761Y-95759523D01*
X257586761Y-95759523D02*
X257624857Y-95797618D01*
X257624857Y-95797618D02*
X257662952Y-95873809D01*
X257662952Y-95873809D02*
X257662952Y-96026190D01*
X257662952Y-96026190D02*
X257701047Y-96102380D01*
X257701047Y-96102380D02*
X257739142Y-96140475D01*
X257739142Y-96140475D02*
X257815333Y-96178571D01*
X257815333Y-96178571D02*
X257967714Y-96178571D01*
X257967714Y-96178571D02*
X258043904Y-96140475D01*
X258043904Y-96140475D02*
X258082000Y-96102380D01*
X258082000Y-96102380D02*
X258120095Y-96026190D01*
X258120095Y-96026190D02*
X258120095Y-95873809D01*
X258120095Y-95873809D02*
X258082000Y-95797618D01*
X258082000Y-95797618D02*
X258043904Y-95759523D01*
X258043904Y-95759523D02*
X257967714Y-95721428D01*
X257967714Y-95721428D02*
X257815333Y-95721428D01*
X257815333Y-95721428D02*
X257739142Y-95759523D01*
X257739142Y-95759523D02*
X257701047Y-95797618D01*
X257701047Y-95797618D02*
X257662952Y-95873809D01*
X245923904Y-95334285D02*
X245962000Y-95372381D01*
X245962000Y-95372381D02*
X246000095Y-95486666D01*
X246000095Y-95486666D02*
X246000095Y-95562857D01*
X246000095Y-95562857D02*
X245962000Y-95677143D01*
X245962000Y-95677143D02*
X245885809Y-95753333D01*
X245885809Y-95753333D02*
X245809619Y-95791428D01*
X245809619Y-95791428D02*
X245657238Y-95829524D01*
X245657238Y-95829524D02*
X245542952Y-95829524D01*
X245542952Y-95829524D02*
X245390571Y-95791428D01*
X245390571Y-95791428D02*
X245314380Y-95753333D01*
X245314380Y-95753333D02*
X245238190Y-95677143D01*
X245238190Y-95677143D02*
X245200095Y-95562857D01*
X245200095Y-95562857D02*
X245200095Y-95486666D01*
X245200095Y-95486666D02*
X245238190Y-95372381D01*
X245238190Y-95372381D02*
X245276285Y-95334285D01*
X246000095Y-94572381D02*
X246000095Y-95029524D01*
X246000095Y-94800952D02*
X245200095Y-94800952D01*
X245200095Y-94800952D02*
X245314380Y-94877143D01*
X245314380Y-94877143D02*
X245390571Y-94953333D01*
X245390571Y-94953333D02*
X245428666Y-95029524D01*
X245200095Y-94077142D02*
X245200095Y-94000952D01*
X245200095Y-94000952D02*
X245238190Y-93924761D01*
X245238190Y-93924761D02*
X245276285Y-93886666D01*
X245276285Y-93886666D02*
X245352476Y-93848571D01*
X245352476Y-93848571D02*
X245504857Y-93810476D01*
X245504857Y-93810476D02*
X245695333Y-93810476D01*
X245695333Y-93810476D02*
X245847714Y-93848571D01*
X245847714Y-93848571D02*
X245923904Y-93886666D01*
X245923904Y-93886666D02*
X245962000Y-93924761D01*
X245962000Y-93924761D02*
X246000095Y-94000952D01*
X246000095Y-94000952D02*
X246000095Y-94077142D01*
X246000095Y-94077142D02*
X245962000Y-94153333D01*
X245962000Y-94153333D02*
X245923904Y-94191428D01*
X245923904Y-94191428D02*
X245847714Y-94229523D01*
X245847714Y-94229523D02*
X245695333Y-94267619D01*
X245695333Y-94267619D02*
X245504857Y-94267619D01*
X245504857Y-94267619D02*
X245352476Y-94229523D01*
X245352476Y-94229523D02*
X245276285Y-94191428D01*
X245276285Y-94191428D02*
X245238190Y-94153333D01*
X245238190Y-94153333D02*
X245200095Y-94077142D01*
X232780951Y-73684000D02*
X232895237Y-73722095D01*
X232895237Y-73722095D02*
X233085713Y-73722095D01*
X233085713Y-73722095D02*
X233161904Y-73684000D01*
X233161904Y-73684000D02*
X233199999Y-73645904D01*
X233199999Y-73645904D02*
X233238094Y-73569714D01*
X233238094Y-73569714D02*
X233238094Y-73493523D01*
X233238094Y-73493523D02*
X233199999Y-73417333D01*
X233199999Y-73417333D02*
X233161904Y-73379238D01*
X233161904Y-73379238D02*
X233085713Y-73341142D01*
X233085713Y-73341142D02*
X232933332Y-73303047D01*
X232933332Y-73303047D02*
X232857142Y-73264952D01*
X232857142Y-73264952D02*
X232819047Y-73226857D01*
X232819047Y-73226857D02*
X232780951Y-73150666D01*
X232780951Y-73150666D02*
X232780951Y-73074476D01*
X232780951Y-73074476D02*
X232819047Y-72998285D01*
X232819047Y-72998285D02*
X232857142Y-72960190D01*
X232857142Y-72960190D02*
X232933332Y-72922095D01*
X232933332Y-72922095D02*
X233123809Y-72922095D01*
X233123809Y-72922095D02*
X233238094Y-72960190D01*
X233580952Y-73722095D02*
X233580952Y-72922095D01*
X233961904Y-73722095D02*
X233961904Y-72922095D01*
X233961904Y-72922095D02*
X234228570Y-73493523D01*
X234228570Y-73493523D02*
X234495237Y-72922095D01*
X234495237Y-72922095D02*
X234495237Y-73722095D01*
X234685714Y-73798285D02*
X235295237Y-73798285D01*
X235485714Y-73722095D02*
X235485714Y-72922095D01*
X235485714Y-72922095D02*
X235790476Y-72922095D01*
X235790476Y-72922095D02*
X235866666Y-72960190D01*
X235866666Y-72960190D02*
X235904761Y-72998285D01*
X235904761Y-72998285D02*
X235942857Y-73074476D01*
X235942857Y-73074476D02*
X235942857Y-73188761D01*
X235942857Y-73188761D02*
X235904761Y-73264952D01*
X235904761Y-73264952D02*
X235866666Y-73303047D01*
X235866666Y-73303047D02*
X235790476Y-73341142D01*
X235790476Y-73341142D02*
X235485714Y-73341142D01*
X236209523Y-72922095D02*
X236399999Y-73722095D01*
X236399999Y-73722095D02*
X236552380Y-73150666D01*
X236552380Y-73150666D02*
X236704761Y-73722095D01*
X236704761Y-73722095D02*
X236895238Y-72922095D01*
X237657143Y-73722095D02*
X237390476Y-73341142D01*
X237200000Y-73722095D02*
X237200000Y-72922095D01*
X237200000Y-72922095D02*
X237504762Y-72922095D01*
X237504762Y-72922095D02*
X237580952Y-72960190D01*
X237580952Y-72960190D02*
X237619047Y-72998285D01*
X237619047Y-72998285D02*
X237657143Y-73074476D01*
X237657143Y-73074476D02*
X237657143Y-73188761D01*
X237657143Y-73188761D02*
X237619047Y-73264952D01*
X237619047Y-73264952D02*
X237580952Y-73303047D01*
X237580952Y-73303047D02*
X237504762Y-73341142D01*
X237504762Y-73341142D02*
X237200000Y-73341142D01*
X238419047Y-73722095D02*
X237961904Y-73722095D01*
X238190476Y-73722095D02*
X238190476Y-72922095D01*
X238190476Y-72922095D02*
X238114285Y-73036380D01*
X238114285Y-73036380D02*
X238038095Y-73112571D01*
X238038095Y-73112571D02*
X237961904Y-73150666D01*
X257993904Y-91064285D02*
X258032000Y-91102381D01*
X258032000Y-91102381D02*
X258070095Y-91216666D01*
X258070095Y-91216666D02*
X258070095Y-91292857D01*
X258070095Y-91292857D02*
X258032000Y-91407143D01*
X258032000Y-91407143D02*
X257955809Y-91483333D01*
X257955809Y-91483333D02*
X257879619Y-91521428D01*
X257879619Y-91521428D02*
X257727238Y-91559524D01*
X257727238Y-91559524D02*
X257612952Y-91559524D01*
X257612952Y-91559524D02*
X257460571Y-91521428D01*
X257460571Y-91521428D02*
X257384380Y-91483333D01*
X257384380Y-91483333D02*
X257308190Y-91407143D01*
X257308190Y-91407143D02*
X257270095Y-91292857D01*
X257270095Y-91292857D02*
X257270095Y-91216666D01*
X257270095Y-91216666D02*
X257308190Y-91102381D01*
X257308190Y-91102381D02*
X257346285Y-91064285D01*
X258070095Y-90302381D02*
X258070095Y-90759524D01*
X258070095Y-90530952D02*
X257270095Y-90530952D01*
X257270095Y-90530952D02*
X257384380Y-90607143D01*
X257384380Y-90607143D02*
X257460571Y-90683333D01*
X257460571Y-90683333D02*
X257498666Y-90759524D01*
X257270095Y-90035714D02*
X257270095Y-89502380D01*
X257270095Y-89502380D02*
X258070095Y-89845238D01*
X243885714Y-106270095D02*
X243619047Y-105889142D01*
X243428571Y-106270095D02*
X243428571Y-105470095D01*
X243428571Y-105470095D02*
X243733333Y-105470095D01*
X243733333Y-105470095D02*
X243809523Y-105508190D01*
X243809523Y-105508190D02*
X243847618Y-105546285D01*
X243847618Y-105546285D02*
X243885714Y-105622476D01*
X243885714Y-105622476D02*
X243885714Y-105736761D01*
X243885714Y-105736761D02*
X243847618Y-105812952D01*
X243847618Y-105812952D02*
X243809523Y-105851047D01*
X243809523Y-105851047D02*
X243733333Y-105889142D01*
X243733333Y-105889142D02*
X243428571Y-105889142D01*
X244190475Y-105546285D02*
X244228571Y-105508190D01*
X244228571Y-105508190D02*
X244304761Y-105470095D01*
X244304761Y-105470095D02*
X244495237Y-105470095D01*
X244495237Y-105470095D02*
X244571428Y-105508190D01*
X244571428Y-105508190D02*
X244609523Y-105546285D01*
X244609523Y-105546285D02*
X244647618Y-105622476D01*
X244647618Y-105622476D02*
X244647618Y-105698666D01*
X244647618Y-105698666D02*
X244609523Y-105812952D01*
X244609523Y-105812952D02*
X244152380Y-106270095D01*
X244152380Y-106270095D02*
X244647618Y-106270095D01*
X245333333Y-105736761D02*
X245333333Y-106270095D01*
X245142857Y-105432000D02*
X244952380Y-106003428D01*
X244952380Y-106003428D02*
X245447619Y-106003428D01*
X274196666Y-90302619D02*
X274196666Y-91016904D01*
X274196666Y-91016904D02*
X274149047Y-91159761D01*
X274149047Y-91159761D02*
X274053809Y-91255000D01*
X274053809Y-91255000D02*
X273910952Y-91302619D01*
X273910952Y-91302619D02*
X273815714Y-91302619D01*
X274625238Y-90397857D02*
X274672857Y-90350238D01*
X274672857Y-90350238D02*
X274768095Y-90302619D01*
X274768095Y-90302619D02*
X275006190Y-90302619D01*
X275006190Y-90302619D02*
X275101428Y-90350238D01*
X275101428Y-90350238D02*
X275149047Y-90397857D01*
X275149047Y-90397857D02*
X275196666Y-90493095D01*
X275196666Y-90493095D02*
X275196666Y-90588333D01*
X275196666Y-90588333D02*
X275149047Y-90731190D01*
X275149047Y-90731190D02*
X274577619Y-91302619D01*
X274577619Y-91302619D02*
X275196666Y-91302619D01*
X274301666Y-74042619D02*
X274301666Y-74756904D01*
X274301666Y-74756904D02*
X274254047Y-74899761D01*
X274254047Y-74899761D02*
X274158809Y-74995000D01*
X274158809Y-74995000D02*
X274015952Y-75042619D01*
X274015952Y-75042619D02*
X273920714Y-75042619D01*
X275254047Y-74042619D02*
X274777857Y-74042619D01*
X274777857Y-74042619D02*
X274730238Y-74518809D01*
X274730238Y-74518809D02*
X274777857Y-74471190D01*
X274777857Y-74471190D02*
X274873095Y-74423571D01*
X274873095Y-74423571D02*
X275111190Y-74423571D01*
X275111190Y-74423571D02*
X275206428Y-74471190D01*
X275206428Y-74471190D02*
X275254047Y-74518809D01*
X275254047Y-74518809D02*
X275301666Y-74614047D01*
X275301666Y-74614047D02*
X275301666Y-74852142D01*
X275301666Y-74852142D02*
X275254047Y-74947380D01*
X275254047Y-74947380D02*
X275206428Y-74995000D01*
X275206428Y-74995000D02*
X275111190Y-75042619D01*
X275111190Y-75042619D02*
X274873095Y-75042619D01*
X274873095Y-75042619D02*
X274777857Y-74995000D01*
X274777857Y-74995000D02*
X274730238Y-74947380D01*
X243893904Y-75214285D02*
X243932000Y-75252381D01*
X243932000Y-75252381D02*
X243970095Y-75366666D01*
X243970095Y-75366666D02*
X243970095Y-75442857D01*
X243970095Y-75442857D02*
X243932000Y-75557143D01*
X243932000Y-75557143D02*
X243855809Y-75633333D01*
X243855809Y-75633333D02*
X243779619Y-75671428D01*
X243779619Y-75671428D02*
X243627238Y-75709524D01*
X243627238Y-75709524D02*
X243512952Y-75709524D01*
X243512952Y-75709524D02*
X243360571Y-75671428D01*
X243360571Y-75671428D02*
X243284380Y-75633333D01*
X243284380Y-75633333D02*
X243208190Y-75557143D01*
X243208190Y-75557143D02*
X243170095Y-75442857D01*
X243170095Y-75442857D02*
X243170095Y-75366666D01*
X243170095Y-75366666D02*
X243208190Y-75252381D01*
X243208190Y-75252381D02*
X243246285Y-75214285D01*
X243246285Y-74909524D02*
X243208190Y-74871428D01*
X243208190Y-74871428D02*
X243170095Y-74795238D01*
X243170095Y-74795238D02*
X243170095Y-74604762D01*
X243170095Y-74604762D02*
X243208190Y-74528571D01*
X243208190Y-74528571D02*
X243246285Y-74490476D01*
X243246285Y-74490476D02*
X243322476Y-74452381D01*
X243322476Y-74452381D02*
X243398666Y-74452381D01*
X243398666Y-74452381D02*
X243512952Y-74490476D01*
X243512952Y-74490476D02*
X243970095Y-74947619D01*
X243970095Y-74947619D02*
X243970095Y-74452381D01*
X243246285Y-74147619D02*
X243208190Y-74109523D01*
X243208190Y-74109523D02*
X243170095Y-74033333D01*
X243170095Y-74033333D02*
X243170095Y-73842857D01*
X243170095Y-73842857D02*
X243208190Y-73766666D01*
X243208190Y-73766666D02*
X243246285Y-73728571D01*
X243246285Y-73728571D02*
X243322476Y-73690476D01*
X243322476Y-73690476D02*
X243398666Y-73690476D01*
X243398666Y-73690476D02*
X243512952Y-73728571D01*
X243512952Y-73728571D02*
X243970095Y-74185714D01*
X243970095Y-74185714D02*
X243970095Y-73690476D01*
G36*
X260877228Y-69350000D02*
G01*
X260877228Y-72367822D01*
X247841914Y-72367822D01*
X234806601Y-72367822D01*
X234806601Y-69614154D01*
X235226210Y-69614154D01*
X235298440Y-70109435D01*
X235497493Y-70514922D01*
X235800729Y-70816780D01*
X236185506Y-71001170D01*
X236629183Y-71054257D01*
X237109121Y-70962202D01*
X237302775Y-70883249D01*
X237545169Y-70728179D01*
X237754491Y-70525314D01*
X237885690Y-70323416D01*
X237908251Y-70227862D01*
X237849728Y-70096923D01*
X237708795Y-70067260D01*
X237537409Y-70139874D01*
X237452910Y-70219083D01*
X237151125Y-70480131D01*
X236791558Y-70596624D01*
X236608911Y-70607426D01*
X236302403Y-70572502D01*
X236080868Y-70479178D01*
X235982091Y-70344628D01*
X235980198Y-70321679D01*
X236053923Y-70245327D01*
X236256305Y-70124968D01*
X236559159Y-69975826D01*
X236881353Y-69834956D01*
X237238643Y-69677303D01*
X237372403Y-69610409D01*
X238428879Y-69610409D01*
X238450631Y-70042237D01*
X238542899Y-70314694D01*
X238753707Y-70646871D01*
X239040829Y-70872489D01*
X239306827Y-70988945D01*
X239590292Y-71077410D01*
X239810673Y-71099281D01*
X240057162Y-71058115D01*
X240185866Y-71024012D01*
X240449840Y-70921791D01*
X240675762Y-70788785D01*
X240688836Y-70778403D01*
X240817413Y-70656639D01*
X240822176Y-70567750D01*
X240747880Y-70479550D01*
X240643942Y-70394717D01*
X240534893Y-70392835D01*
X240353164Y-70474525D01*
X240336052Y-70483349D01*
X239972108Y-70586872D01*
X239593845Y-70553934D01*
X239259288Y-70392771D01*
X239173843Y-70318383D01*
X238994757Y-70030665D01*
X238943816Y-69691812D01*
X238954266Y-69646736D01*
X241339132Y-69646736D01*
X241377807Y-70073613D01*
X241550494Y-70476028D01*
X241777348Y-70747294D01*
X242122910Y-70960524D01*
X242546624Y-71061267D01*
X242998390Y-71045016D01*
X243428109Y-70907263D01*
X243447320Y-70897518D01*
X243782835Y-70639384D01*
X244001294Y-70295554D01*
X244102203Y-69900841D01*
X244085068Y-69490055D01*
X243949396Y-69098009D01*
X243694693Y-68759515D01*
X243479987Y-68593783D01*
X243129849Y-68458191D01*
X242710978Y-68412556D01*
X242295810Y-68457882D01*
X241992209Y-68573132D01*
X241649829Y-68861115D01*
X241430971Y-69230776D01*
X241339132Y-69646736D01*
X238954266Y-69646736D01*
X239021019Y-69358797D01*
X239173843Y-69136073D01*
X239459074Y-68947435D01*
X239798384Y-68862650D01*
X240129676Y-68890935D01*
X240302679Y-68968549D01*
X240464453Y-69060542D01*
X240571450Y-69053126D01*
X240681676Y-68966357D01*
X240810145Y-68830656D01*
X240814089Y-68731565D01*
X240682799Y-68622963D01*
X240588646Y-68565717D01*
X240267164Y-68451944D01*
X239865972Y-68416051D01*
X239453582Y-68457565D01*
X239098507Y-68576011D01*
X238766098Y-68835734D01*
X238538462Y-69194387D01*
X238428879Y-69610409D01*
X237372403Y-69610409D01*
X237533242Y-69529973D01*
X237733235Y-69410108D01*
X237806389Y-69338119D01*
X237771148Y-69158984D01*
X237635781Y-68931060D01*
X237437102Y-68702280D01*
X237211926Y-68520582D01*
X237152124Y-68486209D01*
X236775973Y-68376391D01*
X236377333Y-68400030D01*
X235990557Y-68537005D01*
X235649997Y-68767199D01*
X235390006Y-69070493D01*
X235244935Y-69426766D01*
X235226210Y-69614154D01*
X234806601Y-69614154D01*
X234806601Y-69350000D01*
X234806601Y-67338119D01*
X244782178Y-67338119D01*
X244782178Y-69168372D01*
X244784632Y-69706164D01*
X244791498Y-70186594D01*
X244802038Y-70584657D01*
X244815508Y-70875348D01*
X244831169Y-71033661D01*
X244838064Y-71054511D01*
X244955315Y-71095460D01*
X245131463Y-71110396D01*
X245309202Y-71080489D01*
X245367894Y-70971508D01*
X245368977Y-70942740D01*
X245378279Y-70820366D01*
X245430415Y-70788228D01*
X245561726Y-70846293D01*
X245723221Y-70942426D01*
X246114101Y-71095149D01*
X246506424Y-71099707D01*
X246873882Y-70973276D01*
X247190164Y-70733036D01*
X247428960Y-70396163D01*
X247563961Y-69979836D01*
X247584441Y-69727228D01*
X248099387Y-69727228D01*
X248172457Y-70191401D01*
X248374823Y-70576079D01*
X248681219Y-70866724D01*
X249066378Y-71048795D01*
X249505033Y-71107754D01*
X249971919Y-71029062D01*
X250201395Y-70936792D01*
X250569538Y-70675090D01*
X250817773Y-70325725D01*
X250940540Y-69923288D01*
X250934375Y-69609081D01*
X251438679Y-69609081D01*
X251452820Y-69996045D01*
X251536474Y-70337867D01*
X251621899Y-70496493D01*
X251956490Y-70849550D01*
X252328454Y-71045389D01*
X252756576Y-71093417D01*
X252807447Y-71090117D01*
X253101815Y-71041803D01*
X253333849Y-70959377D01*
X253400846Y-70914993D01*
X253563942Y-70793571D01*
X253646758Y-70809876D01*
X253667987Y-70948051D01*
X253695668Y-71065662D01*
X253810256Y-71101694D01*
X253940429Y-71094750D01*
X254212871Y-71068482D01*
X254222133Y-70302755D01*
X254842782Y-70302755D01*
X254927863Y-70613498D01*
X255129858Y-70880154D01*
X255246139Y-70966872D01*
X255556994Y-71078729D01*
X255929763Y-71099007D01*
X256285146Y-71026500D01*
X256381034Y-70984137D01*
X256610173Y-70880814D01*
X256730554Y-70876254D01*
X256769206Y-70970880D01*
X256769637Y-70990222D01*
X256823931Y-71085242D01*
X257000165Y-71095007D01*
X257230693Y-71068482D01*
X257249200Y-70302755D01*
X257860604Y-70302755D01*
X257945684Y-70613498D01*
X258147679Y-70880154D01*
X258263961Y-70966872D01*
X258574816Y-71078729D01*
X258947585Y-71099007D01*
X259302968Y-71026500D01*
X259398856Y-70984137D01*
X259627995Y-70880814D01*
X259748376Y-70876254D01*
X259787027Y-70970880D01*
X259787459Y-70990222D01*
X259841752Y-71085242D01*
X260017987Y-71095007D01*
X260248515Y-71068482D01*
X260272190Y-70228630D01*
X260275539Y-69827789D01*
X260264822Y-69451731D01*
X260242237Y-69157193D01*
X260226720Y-69055976D01*
X260082474Y-68731952D01*
X259821205Y-68500422D01*
X259471146Y-68370153D01*
X259060527Y-68349915D01*
X258617583Y-68448477D01*
X258467162Y-68509459D01*
X258210361Y-68660015D01*
X258116227Y-68808987D01*
X258180078Y-68964912D01*
X258203527Y-68989963D01*
X258325501Y-69035578D01*
X258532189Y-68983335D01*
X258578063Y-68964815D01*
X258931691Y-68867260D01*
X259253891Y-68867605D01*
X259511022Y-68956456D01*
X259669447Y-69124417D01*
X259703630Y-69279164D01*
X259678877Y-69369985D01*
X259578650Y-69416787D01*
X259363998Y-69432941D01*
X259253053Y-69433829D01*
X258784315Y-69453712D01*
X258440963Y-69519819D01*
X258184757Y-69641836D01*
X258070168Y-69733466D01*
X257899683Y-69994039D01*
X257860604Y-70302755D01*
X257249200Y-70302755D01*
X257254205Y-70095676D01*
X257256512Y-69686460D01*
X257244808Y-69319907D01*
X257221313Y-69039680D01*
X257193423Y-68901160D01*
X257008484Y-68634886D01*
X256709965Y-68452682D01*
X256333720Y-68362603D01*
X255915600Y-68372699D01*
X255491459Y-68491022D01*
X255449340Y-68509459D01*
X255192539Y-68660015D01*
X255098406Y-68808987D01*
X255162256Y-68964912D01*
X255185706Y-68989963D01*
X255307679Y-69035578D01*
X255514367Y-68983335D01*
X255560241Y-68964815D01*
X255913869Y-68867260D01*
X256236069Y-68867605D01*
X256493201Y-68956456D01*
X256651626Y-69124417D01*
X256685808Y-69279164D01*
X256661055Y-69369985D01*
X256560828Y-69416787D01*
X256346176Y-69432941D01*
X256235231Y-69433829D01*
X255766493Y-69453712D01*
X255423141Y-69519819D01*
X255166935Y-69641836D01*
X255052346Y-69733466D01*
X254881861Y-69994039D01*
X254842782Y-70302755D01*
X254222133Y-70302755D01*
X254235432Y-69203301D01*
X254257993Y-67338119D01*
X253962990Y-67338119D01*
X253667987Y-67338119D01*
X253667987Y-68008746D01*
X253663713Y-68320202D01*
X253652355Y-68554728D01*
X253636110Y-68672650D01*
X253630864Y-68679373D01*
X253542269Y-68640690D01*
X253365056Y-68543809D01*
X253291820Y-68501235D01*
X252901638Y-68361309D01*
X252492507Y-68373830D01*
X252093766Y-68530695D01*
X251734756Y-68823802D01*
X251619371Y-68963142D01*
X251494160Y-69242829D01*
X251438679Y-69609081D01*
X250934375Y-69609081D01*
X250932281Y-69502368D01*
X250787436Y-69097554D01*
X250546999Y-68786357D01*
X250133436Y-68487495D01*
X249686230Y-68352358D01*
X249212696Y-68382095D01*
X248835568Y-68517664D01*
X248456008Y-68785592D01*
X248209898Y-69152485D01*
X248103460Y-69608122D01*
X248099387Y-69727228D01*
X247584441Y-69727228D01*
X247513740Y-69243538D01*
X247311807Y-68848198D01*
X246993896Y-68558766D01*
X246575265Y-68392796D01*
X246402119Y-68366585D01*
X246108163Y-68360648D01*
X245880421Y-68425541D01*
X245683333Y-68543420D01*
X245368977Y-68758149D01*
X245368977Y-68048134D01*
X245368977Y-67338119D01*
X245075577Y-67338119D01*
X244782178Y-67338119D01*
X234806601Y-67338119D01*
X234806601Y-66332179D01*
X247841914Y-66332179D01*
X260877228Y-66332179D01*
X260877228Y-69350000D01*
G37*
G36*
X236830511Y-68859455D02*
G01*
X237079061Y-68982621D01*
X237113674Y-69016668D01*
X237194191Y-69121418D01*
X237204841Y-69207497D01*
X237125599Y-69293233D01*
X236936442Y-69396955D01*
X236617347Y-69536995D01*
X236484756Y-69592374D01*
X236147161Y-69731419D01*
X235932604Y-69811681D01*
X235809264Y-69838615D01*
X235745317Y-69817681D01*
X235708941Y-69754335D01*
X235698398Y-69727228D01*
X235690930Y-69504243D01*
X235830684Y-69239392D01*
X235966256Y-69077558D01*
X236213715Y-68910129D01*
X236521931Y-68836359D01*
X236830511Y-68859455D01*
G37*
G36*
X243082407Y-68921027D02*
G01*
X243371422Y-69113554D01*
X243551101Y-69397169D01*
X243604525Y-69742569D01*
X243514772Y-70120450D01*
X243478823Y-70196048D01*
X243264358Y-70445834D01*
X242965361Y-70585818D01*
X242628662Y-70610379D01*
X242301090Y-70513895D01*
X242093221Y-70362389D01*
X241930357Y-70162478D01*
X241859986Y-69946177D01*
X241848185Y-69727228D01*
X241915744Y-69339496D01*
X242108307Y-69054290D01*
X242410700Y-68887239D01*
X242700977Y-68848894D01*
X243082407Y-68921027D01*
G37*
G36*
X246390134Y-68899266D02*
G01*
X246684046Y-69060398D01*
X246887646Y-69321893D01*
X246988765Y-69639142D01*
X246975231Y-69967532D01*
X246834877Y-70262455D01*
X246779118Y-70325157D01*
X246504921Y-70502734D01*
X246180083Y-70574938D01*
X245872086Y-70530122D01*
X245797346Y-70494609D01*
X245541998Y-70271175D01*
X245407847Y-69990554D01*
X245382813Y-69685258D01*
X245454813Y-69387803D01*
X245611766Y-69130701D01*
X245841591Y-68946468D01*
X246132207Y-68867616D01*
X246390134Y-68899266D01*
G37*
G36*
X249964243Y-69004706D02*
G01*
X250194604Y-69219595D01*
X250336253Y-69499883D01*
X250370605Y-69812842D01*
X250279075Y-70125742D01*
X250124332Y-70333079D01*
X249866821Y-70496062D01*
X249546237Y-70575099D01*
X249242542Y-70553282D01*
X249183168Y-70532082D01*
X248899002Y-70331997D01*
X248731160Y-70054765D01*
X248676568Y-69739347D01*
X248732154Y-69424703D01*
X248894845Y-69149791D01*
X249161568Y-68953573D01*
X249311730Y-68902050D01*
X249663757Y-68887948D01*
X249964243Y-69004706D01*
G37*
G36*
X253027050Y-68892148D02*
G01*
X253323391Y-69061654D01*
X253560530Y-69358849D01*
X253643441Y-69707186D01*
X253566647Y-70080462D01*
X253546005Y-70126605D01*
X253329250Y-70420617D01*
X253044423Y-70576303D01*
X252726017Y-70586590D01*
X252408528Y-70444408D01*
X252325144Y-70376898D01*
X252092731Y-70071596D01*
X252017055Y-69730909D01*
X252102160Y-69380818D01*
X252155106Y-69285040D01*
X252409629Y-69000721D01*
X252708362Y-68868211D01*
X253027050Y-68892148D01*
G37*
G36*
X256594346Y-69860997D02*
G01*
X256667068Y-69904494D01*
X256685328Y-69994931D01*
X256685808Y-70038163D01*
X256611553Y-70276293D01*
X256421074Y-70464005D01*
X256162800Y-70582476D01*
X255885160Y-70612883D01*
X255636582Y-70536402D01*
X255560113Y-70475696D01*
X255423550Y-70271620D01*
X255445628Y-70100776D01*
X255619331Y-69970571D01*
X255937645Y-69888410D01*
X256135185Y-69868500D01*
X256429580Y-69852859D01*
X256594346Y-69860997D01*
G37*
G36*
X259483481Y-69857735D02*
G01*
X259632237Y-69882817D01*
X259692444Y-69944402D01*
X259703630Y-70056457D01*
X259628715Y-70282833D01*
X259434861Y-70461848D01*
X259168404Y-70574293D01*
X258875682Y-70600960D01*
X258603031Y-70522642D01*
X258592904Y-70516883D01*
X258466132Y-70361343D01*
X258469942Y-70156135D01*
X258577935Y-69984701D01*
X258759994Y-69894017D01*
X259081678Y-69855076D01*
X259206648Y-69852971D01*
X259483481Y-69857735D01*
G37*
D11*
X249275000Y-93025000D02*
X249275000Y-94375000D01*
X247525000Y-93025000D02*
X247525000Y-94375000D01*
X255440921Y-95864327D02*
X255593424Y-95711824D01*
X255950038Y-96373444D02*
X256102541Y-96220941D01*
X236950000Y-79790000D02*
X233650000Y-79790000D01*
X236950000Y-79790000D02*
X236950000Y-85300000D01*
X233650000Y-79790000D02*
X233650000Y-85300000D01*
X242262500Y-98375000D02*
G75*
G03*
X242262500Y-98375000I-700000J0D01*
G01*
X241960000Y-76692164D02*
X241960000Y-76907836D01*
X241240000Y-76692164D02*
X241240000Y-76907836D01*
X271090000Y-87946359D02*
X271090000Y-88253641D01*
X270330000Y-87946359D02*
X270330000Y-88253641D01*
X253266359Y-90730000D02*
X253573641Y-90730000D01*
X253266359Y-91490000D02*
X253573641Y-91490000D01*
X242217164Y-86745000D02*
X242432836Y-86745000D01*
X242217164Y-87465000D02*
X242432836Y-87465000D01*
X242037164Y-79085000D02*
X242252836Y-79085000D01*
X242037164Y-79805000D02*
X242252836Y-79805000D01*
X251351693Y-95760810D02*
X251199190Y-95608307D01*
X251860810Y-95251693D02*
X251708307Y-95099190D01*
X260397836Y-89560000D02*
X260182164Y-89560000D01*
X260397836Y-88840000D02*
X260182164Y-88840000D01*
X272665000Y-72006276D02*
X271195000Y-72006276D01*
X271195000Y-72006276D02*
X271195000Y-74291276D01*
X272665000Y-74291276D02*
X272665000Y-72006276D01*
X259140000Y-101290000D02*
X257465000Y-101290000D01*
X259140000Y-101290000D02*
X259790000Y-101290000D01*
X259140000Y-104410000D02*
X258490000Y-104410000D01*
X259140000Y-104410000D02*
X259790000Y-104410000D01*
X258113641Y-105490000D02*
X257806359Y-105490000D01*
X258113641Y-104730000D02*
X257806359Y-104730000D01*
X242207164Y-84775000D02*
X242422836Y-84775000D01*
X242207164Y-85495000D02*
X242422836Y-85495000D01*
X265235000Y-74935000D02*
X266705000Y-74935000D01*
X266705000Y-74935000D02*
X266705000Y-72650000D01*
X265235000Y-72650000D02*
X265235000Y-74935000D01*
X241825000Y-84335000D02*
X244825000Y-84335000D01*
X243325000Y-81115000D02*
X244825000Y-81115000D01*
X250160000Y-89742164D02*
X250160000Y-89957836D01*
X249440000Y-89742164D02*
X249440000Y-89957836D01*
X258820000Y-100353641D02*
X258820000Y-100046359D01*
X259580000Y-100353641D02*
X259580000Y-100046359D01*
X264225000Y-91825000D02*
X263965000Y-91825000D01*
X263965000Y-91825000D02*
X263965000Y-90150000D01*
X258775000Y-91825000D02*
X259035000Y-91825000D01*
X264225000Y-94550000D02*
X264225000Y-91825000D01*
X264225000Y-94550000D02*
X264225000Y-97275000D01*
X258775000Y-94550000D02*
X258775000Y-91825000D01*
X258775000Y-94550000D02*
X258775000Y-97275000D01*
X264225000Y-97275000D02*
X263965000Y-97275000D01*
X258775000Y-97275000D02*
X259035000Y-97275000D01*
X253868629Y-96954163D02*
X256202082Y-94620710D01*
X256202082Y-94620710D02*
X253373655Y-91792283D01*
X239810000Y-79350000D02*
X239810000Y-76050000D01*
X239810000Y-79350000D02*
X234300000Y-79350000D01*
X239810000Y-76050000D02*
X234300000Y-76050000D01*
X231957836Y-102210000D02*
X231742164Y-102210000D01*
X231957836Y-101490000D02*
X231742164Y-101490000D01*
X250090000Y-88660000D02*
X250540000Y-88660000D01*
X250540000Y-88660000D02*
X250540000Y-89950000D01*
X257310000Y-88660000D02*
X256860000Y-88660000D01*
X250090000Y-88210000D02*
X250090000Y-88660000D01*
X257310000Y-88210000D02*
X257310000Y-88660000D01*
X250090000Y-81890000D02*
X250090000Y-81440000D01*
X257310000Y-81890000D02*
X257310000Y-81440000D01*
X250090000Y-81440000D02*
X250540000Y-81440000D01*
X257310000Y-81440000D02*
X256860000Y-81440000D01*
X236625000Y-106305000D02*
X240075000Y-106305000D01*
X236625000Y-106305000D02*
X234675000Y-106305000D01*
X236625000Y-101185000D02*
X238575000Y-101185000D01*
X236625000Y-101185000D02*
X234675000Y-101185000D01*
X247637836Y-88167500D02*
X247422164Y-88167500D01*
X247637836Y-87447500D02*
X247422164Y-87447500D01*
X242960000Y-76692164D02*
X242960000Y-76907836D01*
X242240000Y-76692164D02*
X242240000Y-76907836D01*
X242560000Y-94537500D02*
X242560000Y-92737500D01*
X242560000Y-94537500D02*
X242560000Y-95337500D01*
X239440000Y-94537500D02*
X239440000Y-93737500D01*
X239440000Y-94537500D02*
X239440000Y-95337500D01*
X246937221Y-88747500D02*
X247262779Y-88747500D01*
X246937221Y-89767500D02*
X247262779Y-89767500D01*
X249537836Y-80910000D02*
X249322164Y-80910000D01*
X249537836Y-80190000D02*
X249322164Y-80190000D01*
X263200000Y-73709693D02*
X263200000Y-74016975D01*
X262440000Y-73709693D02*
X262440000Y-74016975D01*
X251616359Y-101920000D02*
X251923641Y-101920000D01*
X251616359Y-102680000D02*
X251923641Y-102680000D01*
X252230000Y-104270000D02*
X252230000Y-106270000D01*
X252230000Y-104270000D02*
X256240000Y-104270000D01*
X252230000Y-106270000D02*
X256240000Y-106270000D01*
X246395000Y-79861359D02*
X246395000Y-80168641D01*
X245635000Y-79861359D02*
X245635000Y-80168641D01*
X224330000Y-87400000D02*
X224330000Y-100400000D01*
X238220000Y-87430000D02*
X234120000Y-87430000D01*
X234120000Y-87430000D02*
X224330000Y-87400000D01*
X238220000Y-89780000D02*
X238220000Y-87430000D01*
X238210000Y-97380000D02*
X237580000Y-97380000D01*
X238210000Y-100430000D02*
X238210000Y-97380000D01*
X234610000Y-100430000D02*
X238210000Y-100430000D01*
X234120000Y-100430000D02*
X224330000Y-100400000D01*
X234120000Y-100430000D02*
X234610000Y-100430000D01*
X267040000Y-73703641D02*
X267040000Y-73396359D01*
X267800000Y-73703641D02*
X267800000Y-73396359D01*
X266550000Y-89150000D02*
X265950000Y-89150000D01*
X265250000Y-88500000D02*
X265250000Y-85700000D01*
X267250000Y-85700000D02*
X267250000Y-88500000D01*
X265950000Y-85050000D02*
X266550000Y-85050000D01*
X265250000Y-88450000D02*
G75*
G03*
X265950000Y-89150000I699999J-1D01*
G01*
X266550000Y-89150000D02*
G75*
G03*
X267250000Y-88450000I1J699999D01*
G01*
X265950000Y-85050000D02*
G75*
G03*
X265250000Y-85750000I0J-700000D01*
G01*
X267250000Y-85750000D02*
G75*
G03*
X266550000Y-85050000I-700000J0D01*
G01*
X251586359Y-103020000D02*
X251893641Y-103020000D01*
X251586359Y-103780000D02*
X251893641Y-103780000D01*
X249907836Y-99660000D02*
X249692164Y-99660000D01*
X249907836Y-98940000D02*
X249692164Y-98940000D01*
X241245000Y-103992164D02*
X241245000Y-104207836D01*
X240525000Y-103992164D02*
X240525000Y-104207836D01*
X240260000Y-90692164D02*
X240260000Y-90907836D01*
X239540000Y-90692164D02*
X239540000Y-90907836D01*
X224790000Y-72250000D02*
X224150000Y-72250000D01*
X224150000Y-72250000D02*
X224150000Y-72650000D01*
X232110000Y-72490000D02*
X224390000Y-72490000D01*
X232110000Y-72490000D02*
X232110000Y-79610000D01*
X225950000Y-72490000D02*
X225950000Y-79610000D01*
X224850000Y-72490000D02*
X224850000Y-79610000D01*
X224390000Y-72490000D02*
X224390000Y-79610000D01*
X228009000Y-76655000D02*
X227881000Y-76526000D01*
X227769000Y-76825000D02*
X227676000Y-76731000D01*
X230225000Y-78870000D02*
X230131000Y-78776000D01*
X230019000Y-79075000D02*
X229891000Y-78946000D01*
X232110000Y-79610000D02*
X224390000Y-79610000D01*
X229816000Y-72860000D02*
G75*
G03*
X228060106Y-72874642I-866000J-1439998D01*
G01*
X230390000Y-75166000D02*
G75*
G03*
X230375358Y-73410106I-1439998J866000D01*
G01*
X227510000Y-73434000D02*
G75*
G03*
X227269902Y-74328674I1440014J-866003D01*
G01*
X227270001Y-74300000D02*
G75*
G03*
X227525280Y-75190264I1679989J-3D01*
G01*
X228059001Y-75724999D02*
G75*
G03*
X229840192Y-75725503I890999J1425002D01*
G01*
X230630000Y-77800000D02*
G75*
G03*
X230630000Y-77800000I-1680000J0D01*
G01*
X264030000Y-87753641D02*
X264030000Y-87446359D01*
X264790000Y-87753641D02*
X264790000Y-87446359D01*
X269200000Y-89150000D02*
X268600000Y-89150000D01*
X267900000Y-88500000D02*
X267900000Y-85700000D01*
X269900000Y-85700000D02*
X269900000Y-88500000D01*
X268600000Y-85050000D02*
X269200000Y-85050000D01*
X267900000Y-88450000D02*
G75*
G03*
X268600000Y-89150000I699999J-1D01*
G01*
X269200000Y-89150000D02*
G75*
G03*
X269900000Y-88450000I1J699999D01*
G01*
X268600000Y-85050000D02*
G75*
G03*
X267900000Y-85750000I0J-700000D01*
G01*
X269900000Y-85750000D02*
G75*
G03*
X269200000Y-85050000I-700000J0D01*
G01*
X270970000Y-73616359D02*
X270970000Y-73923641D01*
X270210000Y-73616359D02*
X270210000Y-73923641D01*
X255330000Y-91102164D02*
X255330000Y-91317836D01*
X254610000Y-91102164D02*
X254610000Y-91317836D01*
X259722164Y-81830000D02*
X259937836Y-81830000D01*
X259722164Y-82550000D02*
X259937836Y-82550000D01*
X251632164Y-99390000D02*
X251847836Y-99390000D01*
X251632164Y-100110000D02*
X251847836Y-100110000D01*
X246340000Y-92857836D02*
X246340000Y-92642164D01*
X247060000Y-92857836D02*
X247060000Y-92642164D01*
X242027164Y-78075000D02*
X242242836Y-78075000D01*
X242027164Y-78795000D02*
X242242836Y-78795000D01*
X262285000Y-71945000D02*
X260815000Y-71945000D01*
X260815000Y-71945000D02*
X260815000Y-74230000D01*
X262285000Y-74230000D02*
X262285000Y-71945000D01*
X231953641Y-105330000D02*
X231646359Y-105330000D01*
X231953641Y-104570000D02*
X231646359Y-104570000D01*
X232011141Y-103505000D02*
X231703859Y-103505000D01*
X232011141Y-102745000D02*
X231703859Y-102745000D01*
X238102500Y-82961252D02*
X238102500Y-82438748D01*
X240322500Y-82961252D02*
X240322500Y-82438748D01*
X242207164Y-85755000D02*
X242422836Y-85755000D01*
X242207164Y-86475000D02*
X242422836Y-86475000D01*
X225190000Y-83350000D02*
X225190000Y-86650000D01*
X225190000Y-83350000D02*
X230700000Y-83350000D01*
X225190000Y-86650000D02*
X230700000Y-86650000D01*
X242320000Y-101553641D02*
X242320000Y-101246359D01*
X243080000Y-101553641D02*
X243080000Y-101246359D01*
X247025000Y-99995000D02*
X243575000Y-99995000D01*
X247025000Y-99995000D02*
X248975000Y-99995000D01*
X247025000Y-105115000D02*
X245075000Y-105115000D01*
X247025000Y-105115000D02*
X248975000Y-105115000D01*
X255180000Y-103023641D02*
X255180000Y-102716359D01*
X255940000Y-103023641D02*
X255940000Y-102716359D01*
X253840000Y-98900000D02*
X253840000Y-100900000D01*
X253840000Y-98900000D02*
X257850000Y-98900000D01*
X253840000Y-100900000D02*
X257850000Y-100900000D01*
X242027164Y-80095000D02*
X242242836Y-80095000D01*
X242027164Y-80815000D02*
X242242836Y-80815000D01*
X246425000Y-81821359D02*
X246425000Y-82128641D01*
X245665000Y-81821359D02*
X245665000Y-82128641D01*
X251612164Y-100410000D02*
X251827836Y-100410000D01*
X251612164Y-101130000D02*
X251827836Y-101130000D01*
X257370000Y-94763641D02*
X257370000Y-94456359D01*
X258130000Y-94763641D02*
X258130000Y-94456359D01*
X247060000Y-94742164D02*
X247060000Y-94957836D01*
X246340000Y-94742164D02*
X246340000Y-94957836D01*
X236300000Y-74800000D02*
G75*
G03*
X236300000Y-74800000I-700000J0D01*
G01*
X257380000Y-92767836D02*
X257380000Y-92552164D01*
X258100000Y-92767836D02*
X258100000Y-92552164D01*
X242360000Y-105143641D02*
X242360000Y-104836359D01*
X243120000Y-105143641D02*
X243120000Y-104836359D01*
X265580000Y-92225736D02*
X265880000Y-92650000D01*
X265880000Y-92650000D02*
X266180000Y-92225736D01*
X266180000Y-92225736D02*
X265580000Y-92225736D01*
X269490000Y-93610000D02*
X269490000Y-93910000D01*
X269490000Y-93910000D02*
X270190000Y-93910000D01*
X269490000Y-96110000D02*
X269490000Y-96410000D01*
X269490000Y-96410000D02*
X270190000Y-96410000D01*
X270190000Y-91930000D02*
X270190000Y-98090000D01*
X270190000Y-93610000D02*
X269490000Y-93610000D01*
X270190000Y-93910000D02*
X270190000Y-93610000D01*
X270190000Y-96110000D02*
X269490000Y-96110000D01*
X270190000Y-96410000D02*
X270190000Y-96110000D01*
X270190000Y-98090000D02*
X278870000Y-98090000D01*
X278870000Y-91930000D02*
X270190000Y-91930000D01*
X278870000Y-98090000D02*
X278870000Y-91930000D01*
X265685000Y-75965736D02*
X265985000Y-76390000D01*
X265985000Y-76390000D02*
X266285000Y-75965736D01*
X266285000Y-75965736D02*
X265685000Y-75965736D01*
X269595000Y-77350000D02*
X269595000Y-77650000D01*
X269595000Y-77650000D02*
X270295000Y-77650000D01*
X269595000Y-79850000D02*
X269595000Y-80150000D01*
X269595000Y-80150000D02*
X270295000Y-80150000D01*
X269595000Y-82350000D02*
X269595000Y-82650000D01*
X269595000Y-82650000D02*
X270295000Y-82650000D01*
X270295000Y-75670000D02*
X270295000Y-84330000D01*
X270295000Y-77350000D02*
X269595000Y-77350000D01*
X270295000Y-77650000D02*
X270295000Y-77350000D01*
X270295000Y-79850000D02*
X269595000Y-79850000D01*
X270295000Y-80150000D02*
X270295000Y-79850000D01*
X270295000Y-82350000D02*
X269595000Y-82350000D01*
X270295000Y-82650000D02*
X270295000Y-82350000D01*
X270295000Y-84330000D02*
X278975000Y-84330000D01*
X278975000Y-75670000D02*
X270295000Y-75670000D01*
X278975000Y-84330000D02*
X278975000Y-75670000D01*
X243970000Y-76682164D02*
X243970000Y-76897836D01*
X243250000Y-76682164D02*
X243250000Y-76897836D01*
M02*
