G04 #@! TF.GenerationSoftware,KiCad,Pcbnew,7.0.2*
G04 #@! TF.CreationDate,2023-12-12T16:08:47+03:00*
G04 #@! TF.ProjectId,GPS_MODULE_V3.kicad_pro,4750535f-4d4f-4445-954c-455f56332e6b,rev?*
G04 #@! TF.SameCoordinates,Original*
G04 #@! TF.FileFunction,Soldermask,Top*
G04 #@! TF.FilePolarity,Negative*
%FSLAX46Y46*%
G04 Gerber Fmt 4.6, Leading zero omitted, Abs format (unit mm)*
G04 Created by KiCad (PCBNEW 7.0.2) date 2023-12-12 16:08:47*
%MOMM*%
%LPD*%
G01*
G04 APERTURE LIST*
G04 Aperture macros list*
%AMRoundRect*
0 Rectangle with rounded corners*
0 $1 Rounding radius*
0 $2 $3 $4 $5 $6 $7 $8 $9 X,Y pos of 4 corners*
0 Add a 4 corners polygon primitive as box body*
4,1,4,$2,$3,$4,$5,$6,$7,$8,$9,$2,$3,0*
0 Add four circle primitives for the rounded corners*
1,1,$1+$1,$2,$3*
1,1,$1+$1,$4,$5*
1,1,$1+$1,$6,$7*
1,1,$1+$1,$8,$9*
0 Add four rect primitives between the rounded corners*
20,1,$1+$1,$2,$3,$4,$5,0*
20,1,$1+$1,$4,$5,$6,$7,0*
20,1,$1+$1,$6,$7,$8,$9,0*
20,1,$1+$1,$8,$9,$2,$3,0*%
%AMRotRect*
0 Rectangle, with rotation*
0 The origin of the aperture is its center*
0 $1 length*
0 $2 width*
0 $3 Rotation angle, in degrees counterclockwise*
0 Add horizontal line*
21,1,$1,$2,0,0,$3*%
%AMFreePoly0*
4,1,19,0.550000,-0.750000,0.000000,-0.750000,0.000000,-0.744911,-0.071157,-0.744911,-0.207708,-0.704816,-0.327430,-0.627875,-0.420627,-0.520320,-0.479746,-0.390866,-0.500000,-0.250000,-0.500000,0.250000,-0.479746,0.390866,-0.420627,0.520320,-0.327430,0.627875,-0.207708,0.704816,-0.071157,0.744911,0.000000,0.744911,0.000000,0.750000,0.550000,0.750000,0.550000,-0.750000,0.550000,-0.750000,
$1*%
%AMFreePoly1*
4,1,19,0.000000,0.744911,0.071157,0.744911,0.207708,0.704816,0.327430,0.627875,0.420627,0.520320,0.479746,0.390866,0.500000,0.250000,0.500000,-0.250000,0.479746,-0.390866,0.420627,-0.520320,0.327430,-0.627875,0.207708,-0.704816,0.071157,-0.744911,0.000000,-0.744911,0.000000,-0.750000,-0.550000,-0.750000,-0.550000,0.750000,0.000000,0.750000,0.000000,0.744911,0.000000,0.744911,
$1*%
G04 Aperture macros list end*
%ADD10RoundRect,0.140000X0.140000X0.170000X-0.140000X0.170000X-0.140000X-0.170000X0.140000X-0.170000X0*%
%ADD11RoundRect,0.150000X-0.512500X-0.150000X0.512500X-0.150000X0.512500X0.150000X-0.512500X0.150000X0*%
%ADD12C,1.500000*%
%ADD13RoundRect,0.200000X-0.275000X0.200000X-0.275000X-0.200000X0.275000X-0.200000X0.275000X0.200000X0*%
%ADD14R,2.500000X1.600000*%
%ADD15RoundRect,0.225000X-0.250000X0.225000X-0.250000X-0.225000X0.250000X-0.225000X0.250000X0.225000X0*%
%ADD16RoundRect,0.225000X0.250000X-0.225000X0.250000X0.225000X-0.250000X0.225000X-0.250000X-0.225000X0*%
%ADD17R,1.800000X1.000000*%
%ADD18C,2.700000*%
%ADD19RoundRect,0.140000X0.021213X-0.219203X0.219203X-0.021213X-0.021213X0.219203X-0.219203X0.021213X0*%
%ADD20RoundRect,0.250000X-0.650000X1.000000X-0.650000X-1.000000X0.650000X-1.000000X0.650000X1.000000X0*%
%ADD21RoundRect,0.140000X0.170000X-0.140000X0.170000X0.140000X-0.170000X0.140000X-0.170000X-0.140000X0*%
%ADD22RoundRect,0.135000X-0.185000X0.135000X-0.185000X-0.135000X0.185000X-0.135000X0.185000X0.135000X0*%
%ADD23RoundRect,0.135000X-0.135000X-0.185000X0.135000X-0.185000X0.135000X0.185000X-0.135000X0.185000X0*%
%ADD24RoundRect,0.140000X0.219203X0.021213X0.021213X0.219203X-0.219203X-0.021213X-0.021213X-0.219203X0*%
%ADD25RoundRect,0.218750X-0.256250X0.218750X-0.256250X-0.218750X0.256250X-0.218750X0.256250X0.218750X0*%
%ADD26RoundRect,0.150000X-0.587500X-0.150000X0.587500X-0.150000X0.587500X0.150000X-0.587500X0.150000X0*%
%ADD27RoundRect,0.135000X0.135000X0.185000X-0.135000X0.185000X-0.135000X-0.185000X0.135000X-0.185000X0*%
%ADD28RoundRect,0.218750X0.256250X-0.218750X0.256250X0.218750X-0.256250X0.218750X-0.256250X-0.218750X0*%
%ADD29RoundRect,0.140000X-0.170000X0.140000X-0.170000X-0.140000X0.170000X-0.140000X0.170000X0.140000X0*%
%ADD30RoundRect,0.135000X0.185000X-0.135000X0.185000X0.135000X-0.185000X0.135000X-0.185000X-0.135000X0*%
%ADD31RoundRect,0.150000X-0.150000X0.650000X-0.150000X-0.650000X0.150000X-0.650000X0.150000X0.650000X0*%
%ADD32RotRect,1.400000X1.200000X135.000000*%
%ADD33RoundRect,0.075000X0.075000X-0.662500X0.075000X0.662500X-0.075000X0.662500X-0.075000X-0.662500X0*%
%ADD34RoundRect,0.075000X0.662500X-0.075000X0.662500X0.075000X-0.662500X0.075000X-0.662500X-0.075000X0*%
%ADD35RoundRect,0.150000X0.825000X0.150000X-0.825000X0.150000X-0.825000X-0.150000X0.825000X-0.150000X0*%
%ADD36RoundRect,0.150000X-0.150000X0.512500X-0.150000X-0.512500X0.150000X-0.512500X0.150000X0.512500X0*%
%ADD37RoundRect,0.225000X-0.225000X-0.375000X0.225000X-0.375000X0.225000X0.375000X-0.225000X0.375000X0*%
%ADD38R,1.200000X0.900000*%
%ADD39R,1.800000X1.300000*%
%ADD40FreePoly0,90.000000*%
%ADD41R,1.500000X1.000000*%
%ADD42FreePoly1,90.000000*%
%ADD43R,2.400000X2.400000*%
%ADD44C,2.400000*%
%ADD45RoundRect,0.140000X-0.140000X-0.170000X0.140000X-0.170000X0.140000X0.170000X-0.140000X0.170000X0*%
%ADD46RoundRect,0.250000X-1.000000X-0.650000X1.000000X-0.650000X1.000000X0.650000X-1.000000X0.650000X0*%
%ADD47RoundRect,0.150000X-0.675000X-0.150000X0.675000X-0.150000X0.675000X0.150000X-0.675000X0.150000X0*%
%ADD48C,1.000000*%
%ADD49C,1.700000*%
%ADD50RoundRect,0.250000X-0.600000X-0.600000X0.600000X-0.600000X0.600000X0.600000X-0.600000X0.600000X0*%
G04 APERTURE END LIST*
D10*
X247020000Y-74700000D03*
X247980000Y-74700000D03*
D11*
X246637500Y-77150000D03*
X246637500Y-79050000D03*
X244362500Y-79050000D03*
X244362500Y-78100000D03*
X244362500Y-77150000D03*
D12*
X240500000Y-87600000D03*
D13*
X248500000Y-78750000D03*
X248500000Y-77100000D03*
D14*
X244600000Y-81100000D03*
X244600000Y-85500000D03*
D15*
X238100000Y-77100000D03*
X238100000Y-78650000D03*
X239700000Y-77125000D03*
X239700000Y-78675000D03*
X241300000Y-77100000D03*
X241300000Y-78650000D03*
D16*
X239400000Y-82225000D03*
X239400000Y-83775000D03*
X237850000Y-83775000D03*
X237850000Y-82225000D03*
X241000000Y-82225000D03*
X241000000Y-83775000D03*
D17*
X248400000Y-94950000D03*
X248400000Y-92450000D03*
D18*
X226350000Y-68960000D03*
D19*
X255432320Y-96382045D03*
X256111142Y-95703223D03*
D20*
X235300000Y-81300000D03*
X235300000Y-85300000D03*
D21*
X243600000Y-74200000D03*
X243600000Y-73240000D03*
D22*
X270710000Y-87590000D03*
X270710000Y-88610000D03*
D23*
X252910000Y-91110000D03*
X253930000Y-91110000D03*
D24*
X251869411Y-95769411D03*
X251190589Y-95090589D03*
D10*
X260770000Y-89200000D03*
X259810000Y-89200000D03*
D18*
X270430000Y-103940000D03*
D25*
X271930000Y-72703776D03*
X271930000Y-74278776D03*
D26*
X258202500Y-101900000D03*
X258202500Y-103800000D03*
X260077500Y-102850000D03*
D27*
X258470000Y-105110000D03*
X257450000Y-105110000D03*
D28*
X265970000Y-74237500D03*
X265970000Y-72662500D03*
D29*
X249800000Y-89370000D03*
X249800000Y-90330000D03*
D30*
X259200000Y-100710000D03*
X259200000Y-99690000D03*
D31*
X263405000Y-90950000D03*
X262135000Y-90950000D03*
X260865000Y-90950000D03*
X259595000Y-90950000D03*
X259595000Y-98150000D03*
X260865000Y-98150000D03*
X262135000Y-98150000D03*
X263405000Y-98150000D03*
D32*
X255000000Y-94550000D03*
X253444365Y-92994365D03*
X252242284Y-94196446D03*
X253797919Y-95752081D03*
D20*
X234400000Y-74200000D03*
X234400000Y-78200000D03*
D10*
X232330000Y-101850000D03*
X231370000Y-101850000D03*
D33*
X250950000Y-89212500D03*
X251450000Y-89212500D03*
X251950000Y-89212500D03*
X252450000Y-89212500D03*
X252950000Y-89212500D03*
X253450000Y-89212500D03*
X253950000Y-89212500D03*
X254450000Y-89212500D03*
X254950000Y-89212500D03*
X255450000Y-89212500D03*
X255950000Y-89212500D03*
X256450000Y-89212500D03*
D34*
X257862500Y-87800000D03*
X257862500Y-87300000D03*
X257862500Y-86800000D03*
X257862500Y-86300000D03*
X257862500Y-85800000D03*
X257862500Y-85300000D03*
X257862500Y-84800000D03*
X257862500Y-84300000D03*
X257862500Y-83800000D03*
X257862500Y-83300000D03*
X257862500Y-82800000D03*
X257862500Y-82300000D03*
D33*
X256450000Y-80887500D03*
X255950000Y-80887500D03*
X255450000Y-80887500D03*
X254950000Y-80887500D03*
X254450000Y-80887500D03*
X253950000Y-80887500D03*
X253450000Y-80887500D03*
X252950000Y-80887500D03*
X252450000Y-80887500D03*
X251950000Y-80887500D03*
X251450000Y-80887500D03*
X250950000Y-80887500D03*
D34*
X249537500Y-82300000D03*
X249537500Y-82800000D03*
X249537500Y-83300000D03*
X249537500Y-83800000D03*
X249537500Y-84300000D03*
X249537500Y-84800000D03*
X249537500Y-85300000D03*
X249537500Y-85800000D03*
X249537500Y-86300000D03*
X249537500Y-86800000D03*
X249537500Y-87300000D03*
X249537500Y-87800000D03*
D35*
X239100000Y-105650000D03*
X239100000Y-104380000D03*
X239100000Y-103110000D03*
X239100000Y-101840000D03*
X234150000Y-101840000D03*
X234150000Y-103110000D03*
X234150000Y-104380000D03*
X234150000Y-105650000D03*
D21*
X242600000Y-74200000D03*
X242600000Y-73240000D03*
D36*
X241950000Y-93400000D03*
X241000000Y-93400000D03*
X240050000Y-93400000D03*
X240050000Y-95675000D03*
X241950000Y-95675000D03*
D28*
X248400000Y-90787500D03*
X248400000Y-89212500D03*
D10*
X249910000Y-80600000D03*
X248950000Y-80600000D03*
D22*
X263100000Y-73353334D03*
X263100000Y-74373334D03*
D23*
X251260000Y-102300000D03*
X252280000Y-102300000D03*
D37*
X252940000Y-105270000D03*
X256240000Y-105270000D03*
D27*
X246990000Y-75800000D03*
X248010000Y-75800000D03*
D38*
X238220000Y-90310000D03*
X238220000Y-92850000D03*
X238220000Y-95390000D03*
X238220000Y-91580000D03*
X238220000Y-94120000D03*
X238220000Y-96660000D03*
D39*
X234120000Y-88060000D03*
X225320000Y-88060000D03*
X234130000Y-99780000D03*
X225330000Y-99780000D03*
D30*
X267420000Y-74060000D03*
X267420000Y-73040000D03*
D40*
X266250000Y-88400000D03*
D41*
X266250000Y-87100000D03*
D42*
X266250000Y-85800000D03*
D23*
X251230000Y-103400000D03*
X252250000Y-103400000D03*
D10*
X250280000Y-99300000D03*
X249320000Y-99300000D03*
D29*
X240885000Y-103620000D03*
X240885000Y-104580000D03*
X239900000Y-90320000D03*
X239900000Y-91280000D03*
D43*
X228950000Y-74300000D03*
D44*
X228950000Y-77800000D03*
D30*
X264410000Y-88110000D03*
X264410000Y-87090000D03*
D40*
X268900000Y-88400000D03*
D41*
X268900000Y-87100000D03*
D42*
X268900000Y-85800000D03*
D22*
X270590000Y-73260000D03*
X270590000Y-74280000D03*
D29*
X254970000Y-90730000D03*
X254970000Y-91690000D03*
D45*
X259350000Y-82190000D03*
X260310000Y-82190000D03*
X251260000Y-99750000D03*
X252220000Y-99750000D03*
D21*
X246700000Y-93230000D03*
X246700000Y-92270000D03*
D25*
X261830000Y-72642500D03*
X261830000Y-74217500D03*
D27*
X232310000Y-104950000D03*
X231290000Y-104950000D03*
X232367500Y-103125000D03*
X231347500Y-103125000D03*
D46*
X226700000Y-85000000D03*
X230700000Y-85000000D03*
D30*
X242700000Y-101910000D03*
X242700000Y-100890000D03*
D47*
X244400000Y-100650000D03*
X244400000Y-101920000D03*
X244400000Y-103190000D03*
X244400000Y-104460000D03*
X249650000Y-104460000D03*
X249650000Y-103190000D03*
X249650000Y-101920000D03*
X249650000Y-100650000D03*
D30*
X255560000Y-103380000D03*
X255560000Y-102360000D03*
D37*
X254550000Y-99900000D03*
X257850000Y-99900000D03*
D45*
X251240000Y-100770000D03*
X252200000Y-100770000D03*
D30*
X257750000Y-95120000D03*
X257750000Y-94100000D03*
D18*
X270430000Y-68960000D03*
D29*
X246700000Y-94370000D03*
X246700000Y-95330000D03*
D48*
X237400000Y-75000000D03*
D21*
X257740000Y-93140000D03*
X257740000Y-92180000D03*
D30*
X242740000Y-105500000D03*
X242740000Y-104480000D03*
D18*
X226350000Y-103940000D03*
D49*
X275560000Y-93760000D03*
X275560000Y-96260000D03*
D50*
X265880000Y-93760000D03*
D49*
X265880000Y-96260000D03*
X268380000Y-93760000D03*
X268380000Y-96260000D03*
X275665000Y-77500000D03*
X275665000Y-82500000D03*
D50*
X265985000Y-77500000D03*
D49*
X265985000Y-80000000D03*
X265985000Y-82500000D03*
X268485000Y-77500000D03*
X268485000Y-80000000D03*
X268485000Y-82500000D03*
D21*
X241590000Y-74210000D03*
X241590000Y-73250000D03*
M02*
