M48
; DRILL file {KiCad 7.0.10} date Sat Jan 20 01:08:49 2024
; FORMAT={-:-/ absolute / metric / decimal}
; #@! TF.CreationDate,2024-01-20T01:08:49+03:00
; #@! TF.GenerationSoftware,Kicad,Pcbnew,7.0.10
; #@! TF.FileFunction,Plated,1,4,PTH
FMAT,2
METRIC
; #@! TA.AperFunction,Plated,PTH,ViaDrill
T1C0.300
; #@! TA.AperFunction,Plated,PTH,ViaDrill
T2C0.400
; #@! TA.AperFunction,Plated,PTH,ComponentDrill
T3C1.100
; #@! TA.AperFunction,Plated,PTH,ComponentDrill
T4C1.200
; #@! TA.AperFunction,Plated,PTH,ComponentDrill
T5C3.250
%
G90
G05
T1
X224.2Y-101.0
X224.3Y-94.3
X224.3Y-97.1
X224.9Y-88.2
X225.1Y-99.9
X225.2Y-94.3
X225.2Y-97.1
X225.6Y-91.2
X225.9Y-94.3
X226.0Y-97.1
X226.0Y-99.1
X226.6Y-88.2
X226.7Y-94.3
X226.7Y-95.2
X226.7Y-96.9
X226.8Y-96.1
X227.3Y-100.7
X227.6Y-91.1
X228.1Y-88.3
X228.2Y-66.6
X228.2Y-67.4
X228.2Y-70.6
X228.2Y-71.3
X228.2Y-72.0
X228.5Y-97.3
X228.5Y-103.9
X228.6Y-102.4
X229.0Y-66.6
X229.0Y-67.4
X229.0Y-68.2
X229.0Y-69.0
X229.0Y-69.8
X229.0Y-70.6
X229.0Y-71.3
X229.0Y-72.0
X229.8Y-66.6
X229.8Y-67.4
X229.8Y-68.2
X229.8Y-69.0
X229.8Y-69.8
X229.8Y-70.6
X229.8Y-71.3
X229.8Y-72.0
X230.6Y-66.6
X230.6Y-67.4
X230.6Y-68.2
X230.6Y-69.0
X230.6Y-69.8
X230.6Y-70.6
X230.6Y-71.3
X230.6Y-72.0
X231.3Y-82.4
X231.4Y-66.6
X231.4Y-67.4
X231.5Y-72.1
X231.5Y-72.8
X231.7Y-103.2
X231.8Y-69.2
X231.8Y-70.0
X232.1Y-66.6
X232.1Y-67.4
X232.3Y-72.1
X232.3Y-72.8
X232.6Y-69.2
X232.6Y-70.0
X232.8Y-66.6
X232.8Y-67.4
X233.0Y-72.1
X233.0Y-72.8
X233.0Y-97.0
X233.1Y-91.65
X233.2Y-88.0
X233.2Y-102.7
X233.25Y-101.0
X233.4Y-82.8
X233.425Y-85.55
X233.5Y-75.8
X233.5Y-90.8
X233.6Y-66.6
X233.6Y-67.4
X233.6Y-68.1
X233.7Y-68.74
X233.7Y-70.8
X233.7Y-71.5
X233.7Y-72.2
X234.3Y-91.4
X234.3Y-101.0
X234.4Y-66.6
X234.4Y-67.4
X234.4Y-68.1
X234.4Y-71.5
X234.4Y-72.2
X234.4Y-75.7
X234.537Y-70.656
X234.548Y-68.832
X234.625Y-96.925
X234.85Y-94.2
X234.9Y-78.0
X235.093Y-82.146
X235.1Y-71.5
X235.1Y-72.2
X235.2Y-66.6
X235.2Y-67.4
X235.2Y-68.1
X235.2Y-69.1
X235.2Y-70.333
X235.25Y-91.008
X235.4Y-76.2
X235.462Y-88.162
X235.8Y-70.6
X235.8Y-71.3
X235.8Y-72.0
X235.9Y-66.6
X235.9Y-67.4
X235.9Y-68.1
X236.0Y-77.8
X236.5Y-70.6
X236.5Y-71.3
X236.5Y-72.0
X236.5Y-75.6
X236.5Y-81.5
X236.525Y-92.344
X236.7Y-66.6
X236.7Y-67.4
X236.7Y-68.1
X236.825Y-88.5
X236.85Y-84.475
X237.0Y-77.6
X237.1Y-81.6
X237.2Y-70.6
X237.2Y-71.3
X237.2Y-72.0
X237.235Y-104.45
X237.5Y-66.6
X237.5Y-67.4
X237.5Y-68.1
X237.775Y-92.125
X237.8Y-70.333
X237.9Y-69.1
X237.9Y-71.1
X238.035Y-104.45
X238.2Y-67.8
X238.296Y-95.371
X238.5Y-68.4
X238.6Y-69.1
X238.6Y-70.333
X238.6Y-71.1
X239.075Y-95.556
X239.164Y-104.57
X239.3Y-69.1
X239.3Y-70.333
X239.6Y-87.8
X239.6Y-92.17
X239.7Y-68.5
X239.7Y-71.0
X240.052Y-104.473
X240.1Y-72.0
X240.248Y-85.169
X240.4Y-66.8
X240.4Y-67.6
X240.4Y-68.3
X240.5Y-71.2
X240.798Y-71.876
X241.08Y-104.4
X241.1Y-67.6
X241.1Y-68.3
X241.2Y-71.2
X241.6Y-71.8
X241.625Y-92.35
X241.8Y-67.6
X241.8Y-68.3
X242.0Y-71.2
X242.078Y-83.426
X242.1Y-76.4
X242.1Y-77.3
X242.1Y-78.2
X242.1Y-79.3
X242.4Y-71.8
X242.4Y-82.2
X242.45Y-92.4
X242.5Y-67.6
X242.652Y-84.001
X242.8Y-71.2
X242.8Y-87.4
X242.925Y-84.8
X243.2Y-71.8
X243.4Y-86.8
X243.4Y-92.27
X243.6Y-71.2
X243.6Y-87.6
X243.7Y-79.7
X244.0Y-71.8
X244.2Y-86.8
X244.24Y-80.79
X244.4Y-71.2
X244.816Y-92.157
X244.9Y-87.1
X245.025Y-85.5
X245.688Y-87.236
X245.71Y-74.87
X245.775Y-92.1
X246.2Y-68.0
X246.246Y-99.103
X246.4Y-77.5
X246.7Y-95.481
X246.722Y-103.622
X246.879Y-85.162
X246.9Y-78.3
X246.919Y-102.576
X246.931Y-100.931
X247.0Y-96.3
X247.0Y-98.45
X247.005Y-87.153
X247.11Y-76.19
X247.225Y-104.375
X247.262Y-101.817
X247.399Y-99.899
X247.7Y-99.1
X247.705Y-101.136
X247.744Y-87.46
X247.829Y-103.851
X247.948Y-93.795
X248.0Y-86.702
X248.1Y-80.6
X248.112Y-81.405
X248.2Y-82.2
X248.25Y-72.65
X248.25Y-78.78
X248.3Y-85.9
X248.775Y-98.275
X248.8Y-71.5
X249.8Y-92.8
X250.404Y-92.01
X250.7Y-67.9
X250.7Y-105.8
X250.775Y-83.371
X250.904Y-87.296
X251.0Y-84.8
X251.0Y-85.6
X251.2Y-86.4
X251.36Y-99.46
X251.7Y-66.8
X251.9Y-79.5
X251.95Y-77.984
X252.0Y-85.374
X252.35Y-74.9
X252.4Y-71.2
X252.4Y-87.2
X252.702Y-95.641
X252.858Y-85.6
X253.1Y-100.7
X253.15Y-103.6
X253.159Y-71.453
X253.168Y-83.382
X253.2Y-87.2
X253.205Y-72.254
X253.216Y-99.292
X253.398Y-77.442
X253.4Y-100.1
X253.728Y-79.547
X254.1Y-74.8
X254.4Y-67.0
X254.53Y-91.8
X254.561Y-79.651
X254.697Y-78.098
X254.7Y-85.61
X254.922Y-72.0
X255.176Y-76.724
X255.224Y-82.106
X255.4Y-67.2
X255.533Y-105.626
X255.6Y-98.371
X255.7Y-84.5
X255.7Y-92.55
X255.8Y-87.0
X255.939Y-74.418
X256.0Y-82.4
X256.15Y-75.5
X256.15Y-79.655
X256.188Y-90.42
X256.3Y-98.9
X256.3Y-100.2
X256.321Y-105.77
X256.343Y-73.727
X256.392Y-72.856
X256.408Y-102.926
X256.7Y-92.6
X256.8Y-94.6
X257.1Y-101.81
X257.1Y-95.99
X257.962Y-99.9
X258.1Y-104.45
X258.3Y-95.627
X258.4Y-69.1
X258.575Y-100.6
X258.6Y-67.9
X258.8Y-66.7
X258.962Y-104.255
X259.093Y-92.503
X259.149Y-96.601
X259.2Y-69.2
X259.2Y-88.6
X259.45Y-76.15
X259.45Y-76.85
X259.45Y-77.6
X259.5Y-74.15
X259.5Y-74.9
X259.575Y-97.4
X259.6Y-89.4
X259.9Y-68.7
X260.035Y-86.691
X260.1Y-73.5
X260.15Y-74.15
X260.15Y-74.9
X260.2Y-76.35
X260.2Y-77.0
X260.2Y-77.75
X260.4Y-83.4
X260.4Y-84.2
X260.6Y-102.6
X260.7Y-73.1
X260.707Y-85.45
X260.75Y-73.8
X260.75Y-74.5
X260.8Y-80.3
X260.9Y-98.8
X260.95Y-76.55
X261.05Y-77.5
X261.2Y-82.7
X261.4Y-100.5
X261.6Y-73.15
X261.9Y-69.2
X262.0Y-78.0
X262.016Y-72.56
X262.3Y-75.1
X262.4Y-76.0
X262.45Y-73.1
X262.8Y-84.8
X262.8Y-98.7
X262.9Y-72.5
X262.9Y-78.1
X262.9Y-78.9
X263.1Y-75.15
X263.2Y-68.3
X263.2Y-76.05
X263.2Y-104.255
X263.25Y-73.15
X263.274Y-95.826
X263.425Y-99.758
X263.75Y-78.825
X263.95Y-71.1
X263.95Y-71.9
X263.95Y-72.65
X263.95Y-73.55
X263.95Y-74.5
X263.95Y-75.35
X263.95Y-76.25
X263.95Y-77.15
X263.95Y-78.1
X264.274Y-102.305
X264.7Y-71.15
X264.7Y-71.95
X264.7Y-72.7
X264.7Y-73.6
X264.7Y-74.55
X264.7Y-75.4
X264.7Y-76.3
X264.7Y-77.2
X264.7Y-78.15
X264.7Y-78.825
X265.0Y-69.4
X265.1Y-70.5
X265.5Y-71.15
X265.5Y-71.95
X265.5Y-72.7
X265.5Y-73.6
X265.5Y-74.55
X265.5Y-75.4
X265.5Y-76.3
X265.5Y-77.2
X265.5Y-78.15
X265.5Y-78.825
X265.8Y-70.0
X266.2Y-72.6
X266.5Y-71.5
X266.6Y-69.5
X266.7Y-70.5
X267.0Y-72.2
X267.2Y-70.0
X267.9Y-69.5
X267.9Y-70.9
X267.9Y-71.8
X270.0Y-72.3
X272.6Y-72.9
T2
X230.97Y-84.01
X231.1Y-85.95
X231.53Y-84.89
X232.22Y-85.59
X236.56Y-74.01
X236.95Y-76.63
X241.93Y-74.49
X242.11Y-73.25
X242.74Y-74.01
X245.14Y-73.153
X245.41Y-72.19
T3
X264.0Y-80.7
X264.0Y-83.2
X264.0Y-85.7
X264.0Y-88.2
X264.0Y-90.7
X264.0Y-93.2
X267.0Y-80.7
X267.0Y-83.2
X267.0Y-85.7
X267.0Y-88.2
X267.0Y-90.7
X267.0Y-93.2
T4
X228.9Y-74.2
X228.9Y-77.7
T5
X268.5Y-75.2
X268.5Y-98.7
M30
