G04 #@! TF.GenerationSoftware,KiCad,Pcbnew,7.0.2*
G04 #@! TF.CreationDate,2023-12-12T16:08:47+03:00*
G04 #@! TF.ProjectId,GPS_MODULE_V3.kicad_pro,4750535f-4d4f-4445-954c-455f56332e6b,rev?*
G04 #@! TF.SameCoordinates,Original*
G04 #@! TF.FileFunction,Profile,NP*
%FSLAX46Y46*%
G04 Gerber Fmt 4.6, Leading zero omitted, Abs format (unit mm)*
G04 Created by KiCad (PCBNEW 7.0.2) date 2023-12-12 16:08:47*
%MOMM*%
%LPD*%
G01*
G04 APERTURE LIST*
G04 #@! TA.AperFunction,Profile*
%ADD10C,0.100000*%
G04 #@! TD*
G04 APERTURE END LIST*
D10*
X273430000Y-90660000D02*
G75*
G03*
X274430000Y-91660000I1000000J0D01*
G01*
X274450000Y-98460000D02*
G75*
G03*
X273450000Y-99460000I0J-1000000D01*
G01*
X270550000Y-106950000D02*
G75*
G03*
X273450000Y-104050000I0J2900000D01*
G01*
X276042893Y-84649993D02*
G75*
G03*
X277042893Y-83650000I7J999993D01*
G01*
X223350000Y-104050000D02*
X223350000Y-68900000D01*
X274450000Y-75400000D02*
X276050000Y-75400000D01*
X223350000Y-104050000D02*
G75*
G03*
X226250000Y-106950000I2900000J0D01*
G01*
X277022893Y-92660000D02*
X277022893Y-97460000D01*
X226250000Y-66000000D02*
X270550000Y-66000000D01*
X277022900Y-92660000D02*
G75*
G03*
X276022893Y-91660000I-1000000J0D01*
G01*
X273450000Y-74400000D02*
G75*
G03*
X274450000Y-75400000I1000000J0D01*
G01*
X273430000Y-85650000D02*
X273430000Y-90660000D01*
X273450000Y-99460000D02*
X273450000Y-104050000D01*
X276022893Y-98460000D02*
X274450000Y-98460000D01*
X276022893Y-98459993D02*
G75*
G03*
X277022893Y-97460000I7J999993D01*
G01*
X277050000Y-76400000D02*
X277042893Y-83650000D01*
X276022893Y-91660000D02*
X274430000Y-91660000D01*
X270550000Y-106950000D02*
X226250000Y-106950000D01*
X226250000Y-66000000D02*
G75*
G03*
X223350000Y-68900000I0J-2900000D01*
G01*
X274430000Y-84650000D02*
G75*
G03*
X273430000Y-85650000I0J-1000000D01*
G01*
X276042893Y-84650000D02*
X274430000Y-84650000D01*
X273450000Y-68900000D02*
X273450000Y-74400000D01*
X277050000Y-76400000D02*
G75*
G03*
X276050000Y-75400000I-1000000J0D01*
G01*
X273450000Y-68900000D02*
G75*
G03*
X270550000Y-66000000I-2900000J0D01*
G01*
M02*
