G04 #@! TF.GenerationSoftware,KiCad,Pcbnew,7.0.2*
G04 #@! TF.CreationDate,2023-12-12T16:08:46+03:00*
G04 #@! TF.ProjectId,GPS_MODULE_V3.kicad_pro,4750535f-4d4f-4445-954c-455f56332e6b,rev?*
G04 #@! TF.SameCoordinates,Original*
G04 #@! TF.FileFunction,Copper,L2,Inr*
G04 #@! TF.FilePolarity,Positive*
%FSLAX46Y46*%
G04 Gerber Fmt 4.6, Leading zero omitted, Abs format (unit mm)*
G04 Created by KiCad (PCBNEW 7.0.2) date 2023-12-12 16:08:46*
%MOMM*%
%LPD*%
G01*
G04 APERTURE LIST*
G04 Aperture macros list*
%AMRoundRect*
0 Rectangle with rounded corners*
0 $1 Rounding radius*
0 $2 $3 $4 $5 $6 $7 $8 $9 X,Y pos of 4 corners*
0 Add a 4 corners polygon primitive as box body*
4,1,4,$2,$3,$4,$5,$6,$7,$8,$9,$2,$3,0*
0 Add four circle primitives for the rounded corners*
1,1,$1+$1,$2,$3*
1,1,$1+$1,$4,$5*
1,1,$1+$1,$6,$7*
1,1,$1+$1,$8,$9*
0 Add four rect primitives between the rounded corners*
20,1,$1+$1,$2,$3,$4,$5,0*
20,1,$1+$1,$4,$5,$6,$7,0*
20,1,$1+$1,$6,$7,$8,$9,0*
20,1,$1+$1,$8,$9,$2,$3,0*%
G04 Aperture macros list end*
G04 #@! TA.AperFunction,ComponentPad*
%ADD10R,2.400000X2.400000*%
G04 #@! TD*
G04 #@! TA.AperFunction,ComponentPad*
%ADD11C,2.400000*%
G04 #@! TD*
G04 #@! TA.AperFunction,ComponentPad*
%ADD12RoundRect,0.250000X-0.600000X-0.600000X0.600000X-0.600000X0.600000X0.600000X-0.600000X0.600000X0*%
G04 #@! TD*
G04 #@! TA.AperFunction,ComponentPad*
%ADD13C,1.700000*%
G04 #@! TD*
G04 #@! TA.AperFunction,ViaPad*
%ADD14C,0.600000*%
G04 #@! TD*
G04 #@! TA.AperFunction,ViaPad*
%ADD15C,0.800000*%
G04 #@! TD*
G04 #@! TA.AperFunction,Conductor*
%ADD16C,0.350000*%
G04 #@! TD*
G04 #@! TA.AperFunction,Conductor*
%ADD17C,0.525000*%
G04 #@! TD*
G04 #@! TA.AperFunction,Conductor*
%ADD18C,0.200000*%
G04 #@! TD*
G04 #@! TA.AperFunction,Conductor*
%ADD19C,0.250000*%
G04 #@! TD*
G04 APERTURE END LIST*
D10*
X228950000Y-74300000D03*
D11*
X228950000Y-77800000D03*
D12*
X265880000Y-93760000D03*
D13*
X265880000Y-96260000D03*
X268380000Y-93760000D03*
X268380000Y-96260000D03*
D12*
X265985000Y-77500000D03*
D13*
X265985000Y-80000000D03*
X265985000Y-82500000D03*
X268485000Y-77500000D03*
X268485000Y-80000000D03*
X268485000Y-82500000D03*
D14*
X255100000Y-82600000D03*
X236900000Y-89000000D03*
X247173056Y-90100500D03*
X242300000Y-84100000D03*
X243200000Y-84100000D03*
X244100000Y-84100000D03*
X260400000Y-76716089D03*
X247485061Y-80834859D03*
X245400000Y-82900000D03*
X244300000Y-82900000D03*
X243300000Y-82900000D03*
D15*
X242200000Y-82200000D03*
X242200000Y-81200000D03*
X242100000Y-80100000D03*
X241000000Y-80100000D03*
X239900000Y-80100000D03*
X238900000Y-80100000D03*
X237700000Y-80100000D03*
D14*
X251500000Y-78100000D03*
X245400000Y-77324500D03*
X247800000Y-80100000D03*
X245000000Y-84100000D03*
X249800000Y-77800000D03*
X245600000Y-78100000D03*
X237100000Y-77400000D03*
X237100000Y-76600000D03*
X243200000Y-77400000D03*
X243200000Y-76700000D03*
X242400000Y-77400000D03*
X242400000Y-76600000D03*
X247893246Y-88106754D03*
X230400000Y-100600000D03*
X225200000Y-101800000D03*
X228600000Y-103400000D03*
X272600000Y-99200000D03*
D15*
X268320000Y-98500000D03*
D14*
X272700000Y-96700000D03*
X250750000Y-72400000D03*
X263900000Y-66800000D03*
X246550000Y-99650000D03*
X247100000Y-71900000D03*
X254250000Y-67550000D03*
X255991107Y-69132836D03*
X257100000Y-70700000D03*
X257900000Y-70700000D03*
X272100000Y-105700000D03*
X255070371Y-67544998D03*
X256800000Y-67545500D03*
X251867357Y-67510446D03*
X264300000Y-70700000D03*
X253225000Y-71400000D03*
X255600000Y-69725000D03*
X272900000Y-92600000D03*
X235500000Y-66800000D03*
X265900000Y-70700000D03*
X234150000Y-69000000D03*
X237050000Y-70900000D03*
X248500000Y-69600000D03*
X249800000Y-70425000D03*
X231750000Y-71250000D03*
X252900000Y-96550000D03*
X236600000Y-67657689D03*
X254800000Y-71800000D03*
X253650000Y-66800000D03*
X256300000Y-71775000D03*
X251000000Y-71100000D03*
X256175000Y-70400000D03*
X272400000Y-76800000D03*
X259750000Y-94600000D03*
X233250000Y-70500000D03*
X264700000Y-69200000D03*
X230600000Y-71900000D03*
X228700000Y-95300000D03*
X229000000Y-71900000D03*
X232800000Y-98900000D03*
X247200000Y-72650000D03*
X231000000Y-71250000D03*
X237500000Y-68842311D03*
X258700000Y-71500000D03*
X259500000Y-71500000D03*
X252650000Y-67505500D03*
X260000000Y-83650000D03*
X262300000Y-67950000D03*
X241100000Y-69100000D03*
X242300000Y-66500000D03*
X266200000Y-68400000D03*
X237750000Y-70200000D03*
X262300000Y-68650000D03*
X259500000Y-70700000D03*
X240400000Y-70200000D03*
X235500000Y-72100000D03*
X251500000Y-75700000D03*
X263900000Y-67600000D03*
X243100000Y-67200000D03*
X254800000Y-71100000D03*
X251750000Y-72125000D03*
X224000000Y-71400000D03*
X237750000Y-71600000D03*
X248050000Y-67100000D03*
X261300000Y-68650000D03*
X262700000Y-71500000D03*
X244400000Y-67100000D03*
X265500000Y-69200000D03*
X234100000Y-67600000D03*
X265100000Y-71500000D03*
X243900000Y-66500000D03*
X264400000Y-103750000D03*
X240100000Y-68600000D03*
X240000000Y-92000000D03*
X247900000Y-71800000D03*
X255400000Y-66800000D03*
X233800000Y-72100000D03*
X240600000Y-71100000D03*
X230250000Y-71250000D03*
X269800000Y-75900000D03*
X237000000Y-69500000D03*
X246347674Y-68734851D03*
X239600000Y-67300000D03*
X241900000Y-69700000D03*
X268200000Y-100800000D03*
X252300000Y-70675000D03*
X228750000Y-69600000D03*
X260300000Y-71500000D03*
X237800000Y-72400000D03*
X245700000Y-92800000D03*
X263900000Y-70000000D03*
X234000000Y-71250000D03*
X233300000Y-67100000D03*
X244400000Y-71000000D03*
X233500000Y-69750000D03*
X238400000Y-69700000D03*
X245100000Y-72350000D03*
X254000000Y-78100000D03*
X259650000Y-69400000D03*
X250600000Y-78100000D03*
X238954371Y-67799928D03*
X241200000Y-72400000D03*
X229300000Y-92700000D03*
X264700000Y-70000000D03*
X245100000Y-67100000D03*
X234900000Y-66500000D03*
X250600000Y-95800000D03*
X266700000Y-71500000D03*
X243800000Y-93600000D03*
X237050000Y-70200000D03*
X232500000Y-71250000D03*
X261250000Y-82150000D03*
X243100000Y-66500000D03*
X228750000Y-67300000D03*
X252650000Y-72125000D03*
X241600000Y-67000000D03*
X245100000Y-67800000D03*
X245900000Y-67100000D03*
X229500000Y-69600000D03*
X228000000Y-71200000D03*
X245907689Y-70231621D03*
X270100000Y-79700000D03*
X238000000Y-66800000D03*
X252175000Y-69950000D03*
X234900000Y-67400000D03*
X263100000Y-66800000D03*
X245976345Y-69472448D03*
X238268940Y-68852760D03*
X254500000Y-70400000D03*
X265500000Y-67600000D03*
X230100000Y-68000000D03*
X228750000Y-71250000D03*
X247092311Y-71100000D03*
X255600000Y-71100000D03*
X257575000Y-70000000D03*
X252899400Y-69225000D03*
X252975000Y-69950000D03*
X245700000Y-94300000D03*
X261900000Y-70700000D03*
X263100000Y-106300000D03*
X247612229Y-67872293D03*
X238500000Y-72200000D03*
X248433411Y-67733535D03*
X260300000Y-70700000D03*
X254550000Y-66800000D03*
X263100000Y-70000000D03*
X255199400Y-69125000D03*
X241300000Y-71500000D03*
X231000000Y-70500000D03*
X240800000Y-94800000D03*
X248000000Y-70150000D03*
X264700000Y-67600000D03*
X245907689Y-71775000D03*
X250009041Y-67726654D03*
X254500000Y-87750000D03*
X229500000Y-70500000D03*
X252650000Y-66800000D03*
X263100000Y-68400000D03*
X246700000Y-66800000D03*
X239543129Y-68101378D03*
X249400000Y-66800000D03*
X237700000Y-69500000D03*
X232900000Y-66500000D03*
X265500000Y-70000000D03*
X236750000Y-68842311D03*
X260100000Y-70000000D03*
X237050000Y-71600000D03*
X243600000Y-70200000D03*
X257900000Y-71500000D03*
X238900000Y-66800000D03*
X248700000Y-71100000D03*
X240200000Y-67800000D03*
X242300000Y-67200000D03*
X249200000Y-69600000D03*
X241200000Y-70700000D03*
X254100000Y-71100000D03*
X248850000Y-67150000D03*
X266200000Y-66800000D03*
X255905196Y-67506476D03*
X256400000Y-71100000D03*
X245900000Y-67800000D03*
X244400000Y-70300000D03*
X228500000Y-98900000D03*
X261300000Y-67950000D03*
X245150000Y-70650000D03*
X229200000Y-68800000D03*
X245907689Y-71025000D03*
X240400000Y-69300000D03*
X237200000Y-66900000D03*
X238500000Y-71200000D03*
X240500000Y-67000000D03*
X253800000Y-70400000D03*
X241000000Y-67600000D03*
X244400000Y-71800000D03*
X236300000Y-70200000D03*
X264700000Y-68400000D03*
X250700000Y-69600000D03*
X249200000Y-67732689D03*
X229800000Y-71900000D03*
X231000000Y-104100000D03*
X246600000Y-96300000D03*
X265500000Y-66800000D03*
X231800000Y-68800000D03*
X228750000Y-70500000D03*
X253350000Y-72125000D03*
X251600000Y-70675000D03*
X225400000Y-98400000D03*
X257100000Y-71500000D03*
X267800000Y-71600000D03*
X267200000Y-66800000D03*
X267200000Y-67600000D03*
X243600000Y-69400000D03*
X242998934Y-103173434D03*
X237100000Y-72400000D03*
X264700000Y-66800000D03*
X254875000Y-69750000D03*
X264300000Y-71500000D03*
X268600000Y-75500000D03*
X237326609Y-98773391D03*
X252425000Y-71400000D03*
X266700000Y-70700000D03*
X243700000Y-67700000D03*
X228750000Y-66500000D03*
X245900000Y-72600000D03*
X249575000Y-68925000D03*
X230100000Y-68800000D03*
X256200000Y-66800000D03*
X231750000Y-70500000D03*
X229700000Y-67300000D03*
X265500000Y-68400000D03*
X250000000Y-69600000D03*
X231900000Y-68000000D03*
X255600000Y-71775000D03*
X231300000Y-71900000D03*
X248075000Y-69000000D03*
X263900000Y-68400000D03*
X244400000Y-69400000D03*
X233900000Y-66500000D03*
X259341311Y-67368721D03*
X270200000Y-81800000D03*
X234000000Y-70500000D03*
X232100000Y-71900000D03*
X250300000Y-71800000D03*
X231000000Y-68000000D03*
X238500000Y-70500000D03*
X265100000Y-70700000D03*
X243900000Y-95100000D03*
X251114274Y-67627567D03*
X229800000Y-98800000D03*
X244200000Y-68600000D03*
X251725000Y-71400000D03*
X250150000Y-66800000D03*
X250300000Y-71100000D03*
X266200000Y-70000000D03*
X272300000Y-100800000D03*
X247850000Y-96300000D03*
X258850000Y-68917311D03*
X272300000Y-89500000D03*
X245500000Y-66500000D03*
X240400000Y-72400000D03*
X240900000Y-68400000D03*
X266200000Y-67600000D03*
X235827167Y-68842311D03*
X256800000Y-70000000D03*
X249150000Y-72450000D03*
X241100000Y-69900000D03*
X257134775Y-90443484D03*
X238200000Y-67500000D03*
X247316316Y-69422423D03*
X251499400Y-69225000D03*
X229700000Y-66500000D03*
X255300000Y-70400000D03*
X227500000Y-100800000D03*
X242900000Y-69700000D03*
X268600000Y-105600000D03*
X249800000Y-91600000D03*
X272700000Y-79800000D03*
X261100000Y-70700000D03*
X247650000Y-99650000D03*
X231000000Y-68800000D03*
X263500000Y-70700000D03*
X252700000Y-78100000D03*
X247850000Y-70925000D03*
X267200000Y-68400000D03*
X230250000Y-70500000D03*
X228200000Y-71900000D03*
X245150000Y-69800000D03*
X250700000Y-70400000D03*
X236300000Y-72400000D03*
X248825000Y-70400000D03*
X260000000Y-88200000D03*
X248300000Y-72450000D03*
X263100000Y-67600000D03*
X233250000Y-71250000D03*
X246700000Y-67500000D03*
X259750000Y-66800000D03*
X252199400Y-69225000D03*
X228000000Y-70400000D03*
X262700000Y-70700000D03*
X229800000Y-97000000D03*
X243900000Y-96400000D03*
X257050000Y-66800000D03*
X245700000Y-95500000D03*
X261900000Y-106300000D03*
X267200000Y-69200000D03*
X237750000Y-70900000D03*
X265900000Y-71500000D03*
X258000000Y-66800000D03*
X249850000Y-96350000D03*
X245150000Y-71400000D03*
X257649699Y-67530506D03*
X228500000Y-88400000D03*
X258627932Y-67732689D03*
X229200000Y-68000000D03*
X249950000Y-72400000D03*
X235000000Y-98800000D03*
X232500000Y-70500000D03*
X263100000Y-69200000D03*
X263900000Y-69200000D03*
X258750000Y-66800000D03*
X247100000Y-70275000D03*
X235833053Y-67657689D03*
X236300000Y-71600000D03*
X248850000Y-68925000D03*
X247450000Y-66600000D03*
X253100000Y-70675000D03*
X237400000Y-67657689D03*
X251000000Y-71800000D03*
X248700000Y-71800000D03*
X239000000Y-69250000D03*
X245000000Y-68600000D03*
X266200000Y-69200000D03*
X258700000Y-70700000D03*
X234250000Y-69750000D03*
X236250000Y-69500000D03*
X261100000Y-71500000D03*
X251475000Y-69950000D03*
X246901322Y-68225389D03*
X250950000Y-66800000D03*
X272900000Y-82800000D03*
X267200000Y-70000000D03*
X239157689Y-70250000D03*
X259200000Y-70000000D03*
X240700000Y-71800000D03*
X250800000Y-90600000D03*
X263500000Y-71500000D03*
X249900000Y-94700000D03*
X229500000Y-71250000D03*
X236300000Y-70900000D03*
X249500000Y-71800000D03*
X240000000Y-66500000D03*
X241100000Y-66500000D03*
X254443470Y-69129637D03*
X249500000Y-71100000D03*
X255191589Y-92308411D03*
X254100000Y-71800000D03*
X244400000Y-67800000D03*
X258400000Y-70000000D03*
X261900000Y-71500000D03*
X253489602Y-67548852D03*
X251750000Y-66800000D03*
X272900000Y-86500000D03*
X236400000Y-66900000D03*
X245650000Y-68850000D03*
X237350000Y-104224500D03*
X232300000Y-83800000D03*
X232300000Y-84500000D03*
X230000000Y-83800000D03*
X229600000Y-86250000D03*
X230800000Y-83800000D03*
X231550000Y-83800000D03*
X232300000Y-85200000D03*
X230250000Y-86250000D03*
X231700000Y-86250000D03*
X230950000Y-86250000D03*
X232300000Y-85900000D03*
X264100000Y-98200000D03*
X260900000Y-100314500D03*
X256350000Y-97655120D03*
X252979500Y-100600000D03*
X232250000Y-100750000D03*
X235700444Y-102397378D03*
X250650000Y-100050000D03*
X246250000Y-100750000D03*
X250950000Y-82050000D03*
X264750000Y-83700500D03*
X251298911Y-85248911D03*
X267600000Y-85800000D03*
X255849500Y-90952678D03*
X256300000Y-82200000D03*
X250450000Y-89650000D03*
X264650000Y-92650000D03*
X253741525Y-87497175D03*
X257075830Y-93338791D03*
X242282153Y-102700500D03*
X242500000Y-99400000D03*
X241950000Y-92100000D03*
X243900000Y-75400000D03*
X242100000Y-75400000D03*
X241200000Y-75400000D03*
X243000000Y-75400000D03*
X237705265Y-102648145D03*
X240700000Y-102500000D03*
X241473951Y-102700500D03*
X263500000Y-96550000D03*
X265658815Y-99065500D03*
X264862000Y-99000000D03*
X256250000Y-106369500D03*
X263750000Y-94850000D03*
X229750000Y-106100000D03*
X253350000Y-84700000D03*
X257650000Y-96800000D03*
X247550000Y-84450000D03*
X259223911Y-96823911D03*
X256780150Y-95269851D03*
X252583572Y-84300500D03*
X230000000Y-95200000D03*
X252624199Y-86900500D03*
X237120498Y-92400000D03*
X230250000Y-88550000D03*
X237120499Y-91383389D03*
X252363684Y-86144632D03*
X256250000Y-85350000D03*
X262650000Y-85300000D03*
X261266589Y-76116589D03*
X248050000Y-83550000D03*
X255367323Y-100949500D03*
X266550000Y-105800000D03*
X264300000Y-75224500D03*
X269600000Y-73500000D03*
X246099500Y-102200000D03*
X251600000Y-87500000D03*
X246024058Y-103291143D03*
X255349490Y-83575569D03*
X237400975Y-105450500D03*
X250700000Y-101920000D03*
X246800000Y-103600000D03*
X232950000Y-103110000D03*
X257070000Y-106320000D03*
X262450000Y-86950000D03*
X260600000Y-106300000D03*
X261350000Y-79900000D03*
X254100000Y-105850000D03*
X261850000Y-86050000D03*
X232100000Y-80100000D03*
X224100000Y-91600000D03*
X224719500Y-85950000D03*
X230650000Y-80724500D03*
X260450500Y-92700000D03*
X256400500Y-92200000D03*
X264050000Y-85050000D03*
X260265500Y-96850000D03*
X255400500Y-84400000D03*
X247550000Y-102899500D03*
X247900000Y-104200000D03*
X256100000Y-83300000D03*
X233050000Y-105600000D03*
X235600319Y-95000819D03*
X254183922Y-84829774D03*
X253103939Y-79579044D03*
X236650000Y-105775500D03*
X252400000Y-79200000D03*
X237500000Y-99750000D03*
X251700000Y-82649500D03*
X262750500Y-82150000D03*
X248300000Y-82300000D03*
X252488995Y-82778698D03*
D16*
X263475000Y-105175000D02*
X264775000Y-106475000D01*
X264775000Y-106475000D02*
X266829595Y-106475000D01*
X238222870Y-104800000D02*
X247545405Y-104800000D01*
X266829595Y-106475000D02*
X267225000Y-106079595D01*
X267225000Y-99325000D02*
X265880000Y-97980000D01*
X237350000Y-104224500D02*
X237647370Y-104224500D01*
X247545405Y-104800000D02*
X247920405Y-105175000D01*
X267225000Y-106079595D02*
X267225000Y-99325000D01*
X265880000Y-97980000D02*
X265880000Y-96260000D01*
X247920405Y-105175000D02*
X263475000Y-105175000D01*
X237647370Y-104224500D02*
X238222870Y-104800000D01*
D17*
X254400000Y-100600000D02*
X254700000Y-100300000D01*
X263012500Y-100187500D02*
X263300000Y-99900000D01*
X254700000Y-100300000D02*
X254812500Y-100187500D01*
X260300000Y-100187500D02*
X263012500Y-100187500D01*
X260300000Y-100187500D02*
X260773000Y-100187500D01*
X263300000Y-99900000D02*
X264100000Y-99100000D01*
X260773000Y-100187500D02*
X260900000Y-100314500D01*
X256350000Y-97655120D02*
X256350000Y-100187500D01*
X254812500Y-100187500D02*
X256350000Y-100187500D01*
X256350000Y-100187500D02*
X260300000Y-100187500D01*
X252979500Y-100600000D02*
X254400000Y-100600000D01*
X264100000Y-99100000D02*
X264100000Y-98200000D01*
D18*
X263650000Y-93650000D02*
X264650000Y-92650000D01*
X257075830Y-93338791D02*
X258988791Y-93338791D01*
X258988791Y-93338791D02*
X259300000Y-93650000D01*
X259300000Y-93650000D02*
X263650000Y-93650000D01*
D19*
X256780150Y-95269851D02*
X257669851Y-95269851D01*
X257669851Y-95269851D02*
X259223911Y-96823911D01*
D18*
X265650000Y-104900000D02*
X266550000Y-105800000D01*
X265100000Y-100950000D02*
X265650000Y-101500000D01*
X255367323Y-100949500D02*
X255367823Y-100950000D01*
X265650000Y-101500000D02*
X265650000Y-104900000D01*
X255367823Y-100950000D02*
X265100000Y-100950000D01*
D19*
X238549500Y-103599500D02*
X237091116Y-103599500D01*
X246800000Y-103600000D02*
X246150000Y-104250000D01*
X239200000Y-104250000D02*
X238549500Y-103599500D01*
X237091116Y-103599500D02*
X236940616Y-103750000D01*
X233590000Y-103750000D02*
X232950000Y-103110000D01*
X236940616Y-103750000D02*
X233590000Y-103750000D01*
X246150000Y-104250000D02*
X239200000Y-104250000D01*
X260450500Y-92700000D02*
X260150000Y-92700000D01*
X256817192Y-92632808D02*
X256400500Y-92216116D01*
X260150000Y-92700000D02*
X260082808Y-92632808D01*
X260082808Y-92632808D02*
X256817192Y-92632808D01*
X256400500Y-92216116D02*
X256400500Y-92200000D01*
G04 #@! TA.AperFunction,Conductor*
G36*
X270553472Y-66200695D02*
G01*
X270845306Y-66217084D01*
X270859103Y-66218638D01*
X271143827Y-66267015D01*
X271157384Y-66270109D01*
X271434899Y-66350060D01*
X271448025Y-66354653D01*
X271714841Y-66465172D01*
X271727355Y-66471198D01*
X271756221Y-66487152D01*
X271980125Y-66610899D01*
X271991899Y-66618297D01*
X272227430Y-66785415D01*
X272238302Y-66794085D01*
X272453642Y-66986524D01*
X272463475Y-66996357D01*
X272655914Y-67211697D01*
X272664584Y-67222569D01*
X272831702Y-67458100D01*
X272839100Y-67469874D01*
X272978797Y-67722637D01*
X272984830Y-67735165D01*
X273095346Y-68001975D01*
X273099939Y-68015100D01*
X273179890Y-68292615D01*
X273182984Y-68306172D01*
X273231359Y-68590885D01*
X273232916Y-68604703D01*
X273249305Y-68896527D01*
X273249500Y-68903480D01*
X273249500Y-74494484D01*
X273279058Y-74681113D01*
X273332042Y-74844178D01*
X273337453Y-74860832D01*
X273423240Y-75029199D01*
X273449077Y-75064760D01*
X273534309Y-75182073D01*
X273667926Y-75315690D01*
X273720982Y-75354237D01*
X273820801Y-75426760D01*
X273989168Y-75512547D01*
X274168882Y-75570940D01*
X274168883Y-75570940D01*
X274168886Y-75570941D01*
X274355516Y-75600500D01*
X274876000Y-75600500D01*
X274943039Y-75620185D01*
X274988794Y-75672989D01*
X275000000Y-75724500D01*
X275000000Y-76498741D01*
X274980315Y-76565780D01*
X274950728Y-76597694D01*
X274886595Y-76646125D01*
X274742947Y-76803698D01*
X274630701Y-76984982D01*
X274554845Y-77180791D01*
X274553679Y-77183802D01*
X274514500Y-77393390D01*
X274514500Y-77606610D01*
X274549272Y-77792621D01*
X274553679Y-77816198D01*
X274630701Y-78015017D01*
X274742947Y-78196301D01*
X274820034Y-78280861D01*
X274886593Y-78353872D01*
X274950728Y-78402305D01*
X274992362Y-78458411D01*
X275000000Y-78501257D01*
X275000000Y-81498741D01*
X274980315Y-81565780D01*
X274950728Y-81597694D01*
X274886595Y-81646125D01*
X274742947Y-81803698D01*
X274630701Y-81984982D01*
X274559553Y-82168639D01*
X274553679Y-82183802D01*
X274514500Y-82393390D01*
X274514500Y-82606610D01*
X274532939Y-82705250D01*
X274553679Y-82816198D01*
X274601459Y-82939535D01*
X274630702Y-83015019D01*
X274662088Y-83065709D01*
X274742947Y-83196301D01*
X274787114Y-83244749D01*
X274886593Y-83353872D01*
X274950728Y-83402305D01*
X274992362Y-83458411D01*
X275000000Y-83501257D01*
X275000000Y-84325500D01*
X274980315Y-84392539D01*
X274927511Y-84438294D01*
X274876000Y-84449500D01*
X274335516Y-84449500D01*
X274148886Y-84479058D01*
X273969167Y-84537453D01*
X273889350Y-84578122D01*
X273800801Y-84623240D01*
X273800798Y-84623241D01*
X273800798Y-84623242D01*
X273647926Y-84734309D01*
X273514309Y-84867926D01*
X273403242Y-85020798D01*
X273403240Y-85020801D01*
X273376962Y-85072375D01*
X273317453Y-85189167D01*
X273259058Y-85368886D01*
X273229500Y-85555515D01*
X273229500Y-90754484D01*
X273259058Y-90941113D01*
X273262816Y-90952678D01*
X273317453Y-91120832D01*
X273403240Y-91289199D01*
X273429077Y-91324760D01*
X273514309Y-91442073D01*
X273647926Y-91575690D01*
X273700982Y-91614237D01*
X273800801Y-91686760D01*
X273969168Y-91772547D01*
X274148882Y-91830940D01*
X274148883Y-91830940D01*
X274148886Y-91830941D01*
X274335516Y-91860500D01*
X274876000Y-91860500D01*
X274943039Y-91880185D01*
X274988794Y-91932989D01*
X275000000Y-91984500D01*
X275000000Y-92679448D01*
X274980315Y-92746487D01*
X274950727Y-92778402D01*
X274781594Y-92906126D01*
X274637947Y-93063698D01*
X274525701Y-93244982D01*
X274489360Y-93338791D01*
X274448679Y-93443802D01*
X274409500Y-93653390D01*
X274409500Y-93866610D01*
X274448679Y-94076198D01*
X274525702Y-94275019D01*
X274537919Y-94294750D01*
X274637947Y-94456301D01*
X274709770Y-94535086D01*
X274781593Y-94613872D01*
X274940032Y-94733521D01*
X274950727Y-94741597D01*
X274992363Y-94797706D01*
X275000000Y-94840551D01*
X275000000Y-95179448D01*
X274980315Y-95246487D01*
X274950727Y-95278402D01*
X274781594Y-95406126D01*
X274637947Y-95563698D01*
X274525701Y-95744982D01*
X274480854Y-95860748D01*
X274448679Y-95943802D01*
X274409500Y-96153390D01*
X274409500Y-96366610D01*
X274443782Y-96550000D01*
X274448679Y-96576198D01*
X274522309Y-96766262D01*
X274525702Y-96775019D01*
X274558274Y-96827625D01*
X274637947Y-96956301D01*
X274694349Y-97018171D01*
X274770344Y-97101533D01*
X274781594Y-97113873D01*
X274950727Y-97241597D01*
X274992363Y-97297706D01*
X275000000Y-97340551D01*
X275000000Y-98135500D01*
X274980315Y-98202539D01*
X274927511Y-98248294D01*
X274876000Y-98259500D01*
X274355516Y-98259500D01*
X274168886Y-98289058D01*
X273989167Y-98347453D01*
X273901713Y-98392013D01*
X273820801Y-98433240D01*
X273820798Y-98433241D01*
X273820798Y-98433242D01*
X273667926Y-98544309D01*
X273534309Y-98677926D01*
X273423242Y-98830798D01*
X273423240Y-98830801D01*
X273398535Y-98879287D01*
X273337453Y-98999167D01*
X273279058Y-99178886D01*
X273249500Y-99365515D01*
X273249500Y-104046519D01*
X273249305Y-104053472D01*
X273232916Y-104345296D01*
X273231359Y-104359114D01*
X273182984Y-104643827D01*
X273179890Y-104657384D01*
X273099939Y-104934899D01*
X273095346Y-104948024D01*
X272984830Y-105214834D01*
X272978797Y-105227362D01*
X272839100Y-105480125D01*
X272831702Y-105491899D01*
X272664584Y-105727430D01*
X272655914Y-105738302D01*
X272463475Y-105953642D01*
X272453642Y-105963475D01*
X272238302Y-106155914D01*
X272227430Y-106164584D01*
X271991899Y-106331702D01*
X271980125Y-106339100D01*
X271727362Y-106478797D01*
X271714834Y-106484830D01*
X271448024Y-106595346D01*
X271434899Y-106599939D01*
X271157384Y-106679890D01*
X271143827Y-106682984D01*
X270859114Y-106731359D01*
X270845296Y-106732916D01*
X270553472Y-106749305D01*
X270546519Y-106749500D01*
X267456203Y-106749500D01*
X267389164Y-106729815D01*
X267343409Y-106677011D01*
X267333465Y-106607853D01*
X267362490Y-106544297D01*
X267368502Y-106537838D01*
X267478218Y-106428123D01*
X267478220Y-106428123D01*
X267573528Y-106332815D01*
X267584491Y-106311297D01*
X267594657Y-106294708D01*
X267608849Y-106275176D01*
X267616310Y-106252209D01*
X267623753Y-106234240D01*
X267634719Y-106212721D01*
X267638497Y-106188861D01*
X267643035Y-106169958D01*
X267650500Y-106146988D01*
X267650500Y-106012202D01*
X267650500Y-106012201D01*
X267650500Y-103940000D01*
X268774396Y-103940000D01*
X268781265Y-104027277D01*
X268794779Y-104198995D01*
X268855426Y-104451610D01*
X268896187Y-104550013D01*
X268954846Y-104691628D01*
X269062857Y-104867887D01*
X269090590Y-104913143D01*
X269124698Y-104953078D01*
X269259311Y-105110689D01*
X269385002Y-105218039D01*
X269438428Y-105263670D01*
X269456860Y-105279412D01*
X269678372Y-105415154D01*
X269858385Y-105489718D01*
X269918389Y-105514573D01*
X269955690Y-105523528D01*
X270171006Y-105575221D01*
X270365147Y-105590500D01*
X270367592Y-105590500D01*
X270492408Y-105590500D01*
X270494853Y-105590500D01*
X270688994Y-105575221D01*
X270941610Y-105514573D01*
X271181628Y-105415154D01*
X271403140Y-105279412D01*
X271600689Y-105110689D01*
X271769412Y-104913140D01*
X271905154Y-104691628D01*
X272004573Y-104451610D01*
X272065221Y-104198994D01*
X272085604Y-103940000D01*
X272065221Y-103681006D01*
X272013368Y-103465023D01*
X272004573Y-103428389D01*
X271974097Y-103354815D01*
X271905154Y-103188372D01*
X271769412Y-102966860D01*
X271768925Y-102966290D01*
X271664658Y-102844209D01*
X271600689Y-102769311D01*
X271436567Y-102629137D01*
X271403143Y-102600590D01*
X271403140Y-102600588D01*
X271181628Y-102464846D01*
X271070070Y-102418637D01*
X270941610Y-102365426D01*
X270688995Y-102304779D01*
X270497287Y-102289691D01*
X270497272Y-102289690D01*
X270494853Y-102289500D01*
X270365147Y-102289500D01*
X270362728Y-102289690D01*
X270362712Y-102289691D01*
X270171004Y-102304779D01*
X269918389Y-102365426D01*
X269713524Y-102450285D01*
X269678372Y-102464846D01*
X269534359Y-102553096D01*
X269456856Y-102600590D01*
X269259311Y-102769311D01*
X269090590Y-102966856D01*
X269067656Y-103004282D01*
X268954846Y-103188372D01*
X268954845Y-103188375D01*
X268855426Y-103428389D01*
X268794779Y-103681004D01*
X268785140Y-103803486D01*
X268774396Y-103940000D01*
X267650500Y-103940000D01*
X267650500Y-99291512D01*
X267650500Y-99291511D01*
X267650500Y-99257607D01*
X267643037Y-99234642D01*
X267638495Y-99215719D01*
X267634719Y-99191874D01*
X267623757Y-99170361D01*
X267616308Y-99152378D01*
X267608848Y-99129417D01*
X267594654Y-99109880D01*
X267584489Y-99093292D01*
X267573527Y-99071779D01*
X266341818Y-97840070D01*
X266308333Y-97778747D01*
X266305499Y-97752397D01*
X266305499Y-97359983D01*
X266325184Y-97292945D01*
X266364222Y-97254557D01*
X266372631Y-97249350D01*
X266372637Y-97249348D01*
X266546041Y-97141981D01*
X266696764Y-97004579D01*
X266819673Y-96841821D01*
X266819673Y-96841819D01*
X266819675Y-96841818D01*
X266865313Y-96750161D01*
X266910582Y-96659250D01*
X266966397Y-96463083D01*
X266985215Y-96260000D01*
X266967529Y-96069137D01*
X266966397Y-96056916D01*
X266944200Y-95978904D01*
X266910582Y-95860750D01*
X266858050Y-95755250D01*
X266819675Y-95678181D01*
X266696763Y-95515419D01*
X266546041Y-95378018D01*
X266372638Y-95270652D01*
X266182457Y-95196976D01*
X266088689Y-95179448D01*
X265981976Y-95159500D01*
X265778024Y-95159500D01*
X265677783Y-95178238D01*
X265577542Y-95196976D01*
X265387361Y-95270652D01*
X265213958Y-95378018D01*
X265063236Y-95515419D01*
X264940324Y-95678181D01*
X264849418Y-95860748D01*
X264793602Y-96056916D01*
X264774785Y-96260000D01*
X264793602Y-96463083D01*
X264849418Y-96659251D01*
X264940324Y-96841818D01*
X265063236Y-97004580D01*
X265213958Y-97141981D01*
X265395777Y-97254558D01*
X265442413Y-97306586D01*
X265454500Y-97359985D01*
X265454499Y-98047393D01*
X265461962Y-98070359D01*
X265466502Y-98089270D01*
X265470281Y-98113126D01*
X265470281Y-98113127D01*
X265470282Y-98113128D01*
X265481242Y-98134638D01*
X265488689Y-98152616D01*
X265496151Y-98175582D01*
X265510340Y-98195111D01*
X265520508Y-98211703D01*
X265531471Y-98233220D01*
X265555445Y-98257193D01*
X265613288Y-98315036D01*
X265646773Y-98376359D01*
X265641789Y-98446051D01*
X265599917Y-98501984D01*
X265541795Y-98525656D01*
X265515105Y-98529170D01*
X265381186Y-98584640D01*
X265378567Y-98586650D01*
X265313397Y-98611841D01*
X265244953Y-98597798D01*
X265227600Y-98586645D01*
X265139625Y-98519138D01*
X265005709Y-98463670D01*
X264861999Y-98444749D01*
X264779029Y-98455673D01*
X264709994Y-98444907D01*
X264657738Y-98398527D01*
X264638853Y-98331258D01*
X264639903Y-98316562D01*
X264655250Y-98200000D01*
X264636330Y-98056291D01*
X264580861Y-97922375D01*
X264492621Y-97807379D01*
X264377625Y-97719139D01*
X264377624Y-97719138D01*
X264377622Y-97719137D01*
X264243709Y-97663670D01*
X264099999Y-97644749D01*
X263956290Y-97663670D01*
X263822377Y-97719137D01*
X263707379Y-97807379D01*
X263619137Y-97922377D01*
X263563670Y-98056290D01*
X263544749Y-98199999D01*
X263563670Y-98343708D01*
X263577561Y-98377245D01*
X263586999Y-98424696D01*
X263587000Y-98836146D01*
X263567316Y-98903185D01*
X263550681Y-98923827D01*
X262836327Y-99638181D01*
X262775004Y-99671666D01*
X262748646Y-99674500D01*
X260795742Y-99674500D01*
X260786896Y-99674184D01*
X260736027Y-99670545D01*
X260731618Y-99671505D01*
X260730877Y-99671666D01*
X260704520Y-99674500D01*
X256987000Y-99674500D01*
X256919961Y-99654815D01*
X256874206Y-99602011D01*
X256863000Y-99550500D01*
X256863000Y-98721358D01*
X256863000Y-97879810D01*
X256872438Y-97832367D01*
X256886330Y-97798829D01*
X256905250Y-97655120D01*
X256886330Y-97511411D01*
X256830861Y-97377495D01*
X256742621Y-97262499D01*
X256627625Y-97174259D01*
X256627624Y-97174258D01*
X256627622Y-97174257D01*
X256493709Y-97118790D01*
X256350000Y-97099869D01*
X256206290Y-97118790D01*
X256072377Y-97174257D01*
X255957379Y-97262499D01*
X255869137Y-97377497D01*
X255813670Y-97511410D01*
X255794749Y-97655120D01*
X255813670Y-97798830D01*
X255827561Y-97832367D01*
X255836999Y-97879816D01*
X255836999Y-98721358D01*
X255837000Y-99550500D01*
X255817315Y-99617539D01*
X255764512Y-99663294D01*
X255713000Y-99674500D01*
X254880980Y-99674500D01*
X254854622Y-99671666D01*
X254853712Y-99671468D01*
X254849472Y-99670545D01*
X254798604Y-99674184D01*
X254789758Y-99674500D01*
X254775812Y-99674500D01*
X254762011Y-99676484D01*
X254753217Y-99677429D01*
X254702332Y-99681069D01*
X254702333Y-99681069D01*
X254697381Y-99682915D01*
X254671705Y-99689468D01*
X254666485Y-99690218D01*
X254620091Y-99711405D01*
X254611919Y-99714791D01*
X254564111Y-99732623D01*
X254559888Y-99735785D01*
X254537106Y-99749303D01*
X254532300Y-99751498D01*
X254493738Y-99784911D01*
X254486854Y-99790458D01*
X254475700Y-99798808D01*
X254465837Y-99808671D01*
X254459366Y-99814695D01*
X254420812Y-99848102D01*
X254417959Y-99852543D01*
X254401331Y-99873177D01*
X254363197Y-99911312D01*
X254246887Y-100027622D01*
X254223828Y-100050681D01*
X254162505Y-100084166D01*
X254136147Y-100087000D01*
X253204197Y-100087000D01*
X253156745Y-100077561D01*
X253123209Y-100063670D01*
X252979500Y-100044749D01*
X252835790Y-100063670D01*
X252701877Y-100119137D01*
X252586879Y-100207379D01*
X252498637Y-100322377D01*
X252443170Y-100456290D01*
X252424249Y-100600000D01*
X252443170Y-100743709D01*
X252498637Y-100877622D01*
X252498638Y-100877624D01*
X252498639Y-100877625D01*
X252586879Y-100992621D01*
X252701875Y-101080861D01*
X252835791Y-101136330D01*
X252979500Y-101155250D01*
X253123209Y-101136330D01*
X253156745Y-101122438D01*
X253204197Y-101113000D01*
X254331520Y-101113000D01*
X254357877Y-101115833D01*
X254363027Y-101116954D01*
X254413896Y-101113315D01*
X254422742Y-101113000D01*
X254436683Y-101113000D01*
X254436688Y-101113000D01*
X254450518Y-101111011D01*
X254459273Y-101110070D01*
X254510167Y-101106431D01*
X254515111Y-101104586D01*
X254540794Y-101098031D01*
X254546015Y-101097281D01*
X254592427Y-101076084D01*
X254600562Y-101072714D01*
X254648383Y-101054879D01*
X254648383Y-101054878D01*
X254665092Y-101048647D01*
X254665155Y-101048817D01*
X254713320Y-101030849D01*
X254781594Y-101045695D01*
X254831004Y-101095096D01*
X254836738Y-101107080D01*
X254886460Y-101227122D01*
X254886461Y-101227124D01*
X254886462Y-101227125D01*
X254974702Y-101342121D01*
X255089698Y-101430361D01*
X255223614Y-101485830D01*
X255367323Y-101504750D01*
X255511032Y-101485830D01*
X255644948Y-101430361D01*
X255759944Y-101342121D01*
X255759944Y-101342120D01*
X255772895Y-101332183D01*
X255774622Y-101334434D01*
X255811080Y-101307812D01*
X255853031Y-101300500D01*
X264903456Y-101300500D01*
X264970495Y-101320185D01*
X264991137Y-101336819D01*
X265263181Y-101608863D01*
X265296666Y-101670186D01*
X265299500Y-101696544D01*
X265299499Y-104850788D01*
X265296861Y-104876230D01*
X265294957Y-104885312D01*
X265298548Y-104914121D01*
X265299458Y-104928795D01*
X265302665Y-104948013D01*
X265303403Y-104953078D01*
X265310351Y-105008809D01*
X265337081Y-105058202D01*
X265339421Y-105062747D01*
X265360802Y-105106484D01*
X265360803Y-105106485D01*
X265364084Y-105113196D01*
X265369581Y-105118256D01*
X265369582Y-105118258D01*
X265402464Y-105148528D01*
X265405399Y-105151230D01*
X265409097Y-105154779D01*
X265958440Y-105704122D01*
X265991925Y-105765445D01*
X265992723Y-105784609D01*
X265999903Y-105839139D01*
X266008908Y-105907541D01*
X266009142Y-105909314D01*
X265998377Y-105978349D01*
X265951997Y-106030605D01*
X265886203Y-106049500D01*
X265002610Y-106049500D01*
X264935571Y-106029815D01*
X264914929Y-106013181D01*
X263769635Y-104867887D01*
X263769633Y-104867884D01*
X263752194Y-104850445D01*
X263728220Y-104826472D01*
X263706702Y-104815508D01*
X263690111Y-104805340D01*
X263670582Y-104791151D01*
X263647616Y-104783689D01*
X263629638Y-104776242D01*
X263608128Y-104765282D01*
X263608127Y-104765281D01*
X263608126Y-104765281D01*
X263584270Y-104761502D01*
X263565359Y-104756962D01*
X263542393Y-104749500D01*
X263508488Y-104749500D01*
X248423691Y-104749500D01*
X248356652Y-104729815D01*
X248310897Y-104677011D01*
X248300953Y-104607853D01*
X248325315Y-104550013D01*
X248336305Y-104535691D01*
X248380861Y-104477625D01*
X248436330Y-104343709D01*
X248455250Y-104200000D01*
X248453496Y-104186681D01*
X248449358Y-104155250D01*
X248436330Y-104056291D01*
X248380861Y-103922375D01*
X248292621Y-103807379D01*
X248177625Y-103719139D01*
X248177624Y-103719138D01*
X248177622Y-103719137D01*
X248043709Y-103663670D01*
X247899999Y-103644749D01*
X247792026Y-103658965D01*
X247752737Y-103652837D01*
X247724325Y-103676872D01*
X247721611Y-103678034D01*
X247622374Y-103719139D01*
X247545284Y-103778292D01*
X247480115Y-103803486D01*
X247411670Y-103789447D01*
X247361680Y-103740633D01*
X247346017Y-103672542D01*
X247346856Y-103663750D01*
X247355250Y-103600000D01*
X247353448Y-103586313D01*
X247364213Y-103517279D01*
X247410593Y-103465023D01*
X247477861Y-103446137D01*
X247492565Y-103447188D01*
X247550000Y-103454750D01*
X247657974Y-103440534D01*
X247697262Y-103446660D01*
X247725675Y-103422627D01*
X247728328Y-103421490D01*
X247827625Y-103380361D01*
X247942621Y-103292121D01*
X248030861Y-103177125D01*
X248086330Y-103043209D01*
X248105250Y-102899500D01*
X248086330Y-102755791D01*
X248030861Y-102621875D01*
X247942621Y-102506879D01*
X247827625Y-102418639D01*
X247827624Y-102418638D01*
X247827622Y-102418637D01*
X247693709Y-102363170D01*
X247549999Y-102344249D01*
X247406290Y-102363170D01*
X247272377Y-102418637D01*
X247157379Y-102506879D01*
X247069137Y-102621877D01*
X247013670Y-102755790D01*
X246994749Y-102899502D01*
X246996551Y-102913188D01*
X246985784Y-102982223D01*
X246939403Y-103034478D01*
X246872134Y-103053362D01*
X246857427Y-103052310D01*
X246800000Y-103044749D01*
X246676666Y-103060987D01*
X246656291Y-103063670D01*
X246656290Y-103063670D01*
X246640107Y-103065801D01*
X246639966Y-103064737D01*
X246589057Y-103070207D01*
X246526580Y-103038928D01*
X246512707Y-103023666D01*
X246416679Y-102898521D01*
X246383276Y-102872890D01*
X246342074Y-102816462D01*
X246337919Y-102746716D01*
X246372132Y-102685796D01*
X246383263Y-102676151D01*
X246492121Y-102592621D01*
X246580361Y-102477625D01*
X246635830Y-102343709D01*
X246654750Y-102200000D01*
X246635830Y-102056291D01*
X246589629Y-101944750D01*
X246580362Y-101922377D01*
X246580361Y-101922376D01*
X246580361Y-101922375D01*
X246578539Y-101920000D01*
X250144749Y-101920000D01*
X250163670Y-102063709D01*
X250219137Y-102197622D01*
X250219138Y-102197624D01*
X250219139Y-102197625D01*
X250307379Y-102312621D01*
X250422375Y-102400861D01*
X250556291Y-102456330D01*
X250700000Y-102475250D01*
X250843709Y-102456330D01*
X250977625Y-102400861D01*
X251092621Y-102312621D01*
X251180861Y-102197625D01*
X251236330Y-102063709D01*
X251255250Y-101920000D01*
X251236330Y-101776291D01*
X251180861Y-101642375D01*
X251092621Y-101527379D01*
X250977625Y-101439139D01*
X250977624Y-101439138D01*
X250977622Y-101439137D01*
X250843709Y-101383670D01*
X250699999Y-101364749D01*
X250556290Y-101383670D01*
X250422377Y-101439137D01*
X250307379Y-101527379D01*
X250219137Y-101642377D01*
X250163670Y-101776290D01*
X250144749Y-101920000D01*
X246578539Y-101920000D01*
X246492121Y-101807379D01*
X246377125Y-101719139D01*
X246377124Y-101719138D01*
X246377122Y-101719137D01*
X246243209Y-101663670D01*
X246099500Y-101644749D01*
X245955790Y-101663670D01*
X245821877Y-101719137D01*
X245706879Y-101807379D01*
X245618637Y-101922377D01*
X245563170Y-102056290D01*
X245544249Y-102199999D01*
X245563170Y-102343709D01*
X245618637Y-102477622D01*
X245618638Y-102477624D01*
X245618639Y-102477625D01*
X245706879Y-102592621D01*
X245740281Y-102618251D01*
X245781483Y-102674679D01*
X245785638Y-102744425D01*
X245751426Y-102805346D01*
X245740284Y-102814999D01*
X245702219Y-102844209D01*
X245631437Y-102898522D01*
X245543195Y-103013520D01*
X245487728Y-103147433D01*
X245468807Y-103291143D01*
X245487728Y-103434852D01*
X245543196Y-103568767D01*
X245624722Y-103675014D01*
X245649916Y-103740183D01*
X245635878Y-103808628D01*
X245587064Y-103858617D01*
X245526346Y-103874500D01*
X239406899Y-103874500D01*
X239339860Y-103854815D01*
X239319218Y-103838181D01*
X238851649Y-103370611D01*
X238835522Y-103350753D01*
X238829583Y-103341662D01*
X238804610Y-103322225D01*
X238793093Y-103312054D01*
X238793019Y-103311980D01*
X238776094Y-103299897D01*
X238771980Y-103296830D01*
X238730689Y-103264691D01*
X238730686Y-103264690D01*
X238724463Y-103259846D01*
X238724261Y-103259742D01*
X238716700Y-103257490D01*
X238716699Y-103257490D01*
X238666536Y-103242555D01*
X238661674Y-103240997D01*
X238643137Y-103234634D01*
X238604702Y-103221439D01*
X238604469Y-103221406D01*
X238564765Y-103223048D01*
X238544306Y-103223894D01*
X238539184Y-103224000D01*
X238208733Y-103224000D01*
X238141694Y-103204315D01*
X238095939Y-103151511D01*
X238085995Y-103082353D01*
X238110357Y-103024513D01*
X238111007Y-103023666D01*
X238186126Y-102925770D01*
X238241595Y-102791854D01*
X238260515Y-102648145D01*
X238241595Y-102504436D01*
X238239758Y-102500000D01*
X240144749Y-102500000D01*
X240163670Y-102643709D01*
X240219137Y-102777622D01*
X240219138Y-102777624D01*
X240219139Y-102777625D01*
X240307379Y-102892621D01*
X240422375Y-102980861D01*
X240556291Y-103036330D01*
X240700000Y-103055250D01*
X240843709Y-103036330D01*
X240903049Y-103011750D01*
X240972515Y-103004282D01*
X241034995Y-103035557D01*
X241048874Y-103050825D01*
X241081327Y-103093118D01*
X241081328Y-103093119D01*
X241081330Y-103093121D01*
X241196326Y-103181361D01*
X241196327Y-103181361D01*
X241196328Y-103181362D01*
X241226666Y-103193928D01*
X241330242Y-103236830D01*
X241473951Y-103255750D01*
X241617660Y-103236830D01*
X241751576Y-103181361D01*
X241802566Y-103142234D01*
X241867734Y-103117041D01*
X241936179Y-103131079D01*
X241953534Y-103142232D01*
X242004528Y-103181361D01*
X242004529Y-103181361D01*
X242004530Y-103181362D01*
X242034868Y-103193928D01*
X242138444Y-103236830D01*
X242282153Y-103255750D01*
X242425862Y-103236830D01*
X242559778Y-103181361D01*
X242674774Y-103093121D01*
X242763014Y-102978125D01*
X242818483Y-102844209D01*
X242837403Y-102700500D01*
X242818483Y-102556791D01*
X242763014Y-102422875D01*
X242674774Y-102307879D01*
X242559778Y-102219639D01*
X242559777Y-102219638D01*
X242559775Y-102219637D01*
X242425862Y-102164170D01*
X242282153Y-102145249D01*
X242138443Y-102164170D01*
X242004530Y-102219637D01*
X241981336Y-102237434D01*
X241953537Y-102258765D01*
X241888370Y-102283959D01*
X241819925Y-102269921D01*
X241802569Y-102258767D01*
X241751576Y-102219639D01*
X241751575Y-102219638D01*
X241751573Y-102219637D01*
X241617660Y-102164170D01*
X241473951Y-102145249D01*
X241330242Y-102164170D01*
X241270902Y-102188749D01*
X241201433Y-102196216D01*
X241138954Y-102164941D01*
X241125075Y-102149674D01*
X241092621Y-102107379D01*
X240977625Y-102019139D01*
X240977624Y-102019138D01*
X240977622Y-102019137D01*
X240843709Y-101963670D01*
X240699999Y-101944749D01*
X240556290Y-101963670D01*
X240422377Y-102019137D01*
X240307379Y-102107379D01*
X240219137Y-102222377D01*
X240163670Y-102356290D01*
X240144749Y-102500000D01*
X238239758Y-102500000D01*
X238186126Y-102370520D01*
X238097886Y-102255524D01*
X237982890Y-102167284D01*
X237982889Y-102167283D01*
X237982887Y-102167282D01*
X237848974Y-102111815D01*
X237705265Y-102092894D01*
X237561555Y-102111815D01*
X237427642Y-102167282D01*
X237312644Y-102255524D01*
X237224402Y-102370522D01*
X237168935Y-102504435D01*
X237150014Y-102648144D01*
X237168935Y-102791854D01*
X237224402Y-102925767D01*
X237224403Y-102925769D01*
X237224404Y-102925770D01*
X237291737Y-103013520D01*
X237300173Y-103024513D01*
X237325367Y-103089682D01*
X237311329Y-103158127D01*
X237262515Y-103208117D01*
X237201797Y-103224000D01*
X237142921Y-103224000D01*
X237117475Y-103221361D01*
X237106849Y-103219133D01*
X237106848Y-103219133D01*
X237088974Y-103221361D01*
X237075439Y-103223048D01*
X237060102Y-103224000D01*
X237060000Y-103224000D01*
X237039515Y-103227418D01*
X237034448Y-103228157D01*
X236974683Y-103235607D01*
X236974428Y-103235689D01*
X236921486Y-103264338D01*
X236916936Y-103266680D01*
X236862831Y-103293132D01*
X236862623Y-103293287D01*
X236845415Y-103311980D01*
X236824698Y-103334484D01*
X236764812Y-103370474D01*
X236733470Y-103374500D01*
X233796899Y-103374500D01*
X233729860Y-103354815D01*
X233709218Y-103338181D01*
X233538684Y-103167646D01*
X233505199Y-103106323D01*
X233503428Y-103096163D01*
X233486330Y-102966291D01*
X233430861Y-102832375D01*
X233342621Y-102717379D01*
X233227625Y-102629139D01*
X233227624Y-102629138D01*
X233227622Y-102629137D01*
X233093709Y-102573670D01*
X232950000Y-102554749D01*
X232806290Y-102573670D01*
X232672377Y-102629137D01*
X232557379Y-102717379D01*
X232469137Y-102832377D01*
X232413670Y-102966290D01*
X232394749Y-103110000D01*
X232413670Y-103253709D01*
X232469137Y-103387622D01*
X232469138Y-103387624D01*
X232469139Y-103387625D01*
X232557379Y-103502621D01*
X232672375Y-103590861D01*
X232806291Y-103646330D01*
X232936153Y-103663427D01*
X233000048Y-103691692D01*
X233007647Y-103698684D01*
X233287850Y-103978887D01*
X233303977Y-103998746D01*
X233309915Y-104007836D01*
X233334893Y-104027277D01*
X233346410Y-104037448D01*
X233346481Y-104037519D01*
X233363397Y-104049597D01*
X233367505Y-104052660D01*
X233415040Y-104089658D01*
X233415232Y-104089757D01*
X233449601Y-104099988D01*
X233472955Y-104106941D01*
X233477792Y-104108490D01*
X233527340Y-104125500D01*
X233534797Y-104128060D01*
X233535030Y-104128093D01*
X233542909Y-104127767D01*
X233542912Y-104127768D01*
X233595193Y-104125605D01*
X233600316Y-104125500D01*
X236672971Y-104125500D01*
X236740010Y-104145185D01*
X236785765Y-104197989D01*
X236795910Y-104233314D01*
X236813670Y-104368209D01*
X236869137Y-104502122D01*
X236869138Y-104502124D01*
X236869139Y-104502125D01*
X236957379Y-104617121D01*
X237072375Y-104705361D01*
X237072376Y-104705361D01*
X237072377Y-104705362D01*
X237140299Y-104733496D01*
X237194703Y-104777336D01*
X237216768Y-104843630D01*
X237199489Y-104911330D01*
X237148352Y-104958941D01*
X237140299Y-104962618D01*
X237123352Y-104969637D01*
X237073279Y-105008060D01*
X237008354Y-105057879D01*
X236926986Y-105163920D01*
X236910176Y-105185827D01*
X236907627Y-105183871D01*
X236880098Y-105218027D01*
X236813802Y-105240085D01*
X236793202Y-105239103D01*
X236650000Y-105220249D01*
X236506290Y-105239170D01*
X236372377Y-105294637D01*
X236257379Y-105382879D01*
X236169137Y-105497877D01*
X236113670Y-105631790D01*
X236094749Y-105775500D01*
X236113670Y-105919209D01*
X236169137Y-106053122D01*
X236169138Y-106053124D01*
X236169139Y-106053125D01*
X236257379Y-106168121D01*
X236372375Y-106256361D01*
X236506291Y-106311830D01*
X236650000Y-106330750D01*
X236793709Y-106311830D01*
X236927625Y-106256361D01*
X237042621Y-106168121D01*
X237130861Y-106053125D01*
X237130861Y-106053123D01*
X237140799Y-106040173D01*
X237143347Y-106042128D01*
X237170861Y-106007983D01*
X237237154Y-105985914D01*
X237257764Y-105986895D01*
X237400975Y-106005750D01*
X237544684Y-105986830D01*
X237678600Y-105931361D01*
X237793596Y-105843121D01*
X237881836Y-105728125D01*
X237937305Y-105594209D01*
X237956225Y-105450500D01*
X237942681Y-105347627D01*
X237953446Y-105278595D01*
X237999826Y-105226339D01*
X238067095Y-105207453D01*
X238085014Y-105208970D01*
X238089743Y-105209718D01*
X238089744Y-105209719D01*
X238113591Y-105213495D01*
X238132512Y-105218037D01*
X238155477Y-105225500D01*
X238189382Y-105225500D01*
X247317795Y-105225500D01*
X247384834Y-105245185D01*
X247405471Y-105261814D01*
X247557648Y-105413990D01*
X247557653Y-105413997D01*
X247667181Y-105523525D01*
X247667183Y-105523526D01*
X247667185Y-105523528D01*
X247688709Y-105534495D01*
X247705288Y-105544655D01*
X247724824Y-105558849D01*
X247747782Y-105566308D01*
X247765766Y-105573757D01*
X247787279Y-105584719D01*
X247811124Y-105588495D01*
X247830047Y-105593037D01*
X247853012Y-105600500D01*
X247886917Y-105600500D01*
X253436203Y-105600500D01*
X253503242Y-105620185D01*
X253548997Y-105672989D01*
X253559141Y-105740685D01*
X253558744Y-105743709D01*
X253544750Y-105850000D01*
X253563670Y-105993709D01*
X253619137Y-106127622D01*
X253619138Y-106127624D01*
X253619139Y-106127625D01*
X253707379Y-106242621D01*
X253822375Y-106330861D01*
X253956291Y-106386330D01*
X254100000Y-106405250D01*
X254243709Y-106386330D01*
X254377625Y-106330861D01*
X254492621Y-106242621D01*
X254580861Y-106127625D01*
X254636330Y-105993709D01*
X254655250Y-105850000D01*
X254640858Y-105740685D01*
X254651623Y-105671651D01*
X254698003Y-105619395D01*
X254763797Y-105600500D01*
X256044617Y-105600500D01*
X256111656Y-105620185D01*
X256157411Y-105672989D01*
X256167355Y-105742147D01*
X256138330Y-105805703D01*
X256092072Y-105839059D01*
X256004229Y-105875444D01*
X255972374Y-105888639D01*
X255857379Y-105976879D01*
X255769137Y-106091877D01*
X255713670Y-106225790D01*
X255694749Y-106369500D01*
X255713670Y-106513209D01*
X255740527Y-106578048D01*
X255747996Y-106647517D01*
X255716721Y-106709996D01*
X255656632Y-106745648D01*
X255625966Y-106749500D01*
X230173143Y-106749500D01*
X230106104Y-106729815D01*
X230060349Y-106677011D01*
X230050405Y-106607853D01*
X230079430Y-106544297D01*
X230097656Y-106527125D01*
X230142618Y-106492623D01*
X230142617Y-106492623D01*
X230142621Y-106492621D01*
X230230861Y-106377625D01*
X230286330Y-106243709D01*
X230305250Y-106100000D01*
X230286330Y-105956291D01*
X230237773Y-105839062D01*
X230230862Y-105822377D01*
X230230861Y-105822376D01*
X230230861Y-105822375D01*
X230142621Y-105707379D01*
X230027625Y-105619139D01*
X230027624Y-105619138D01*
X230027622Y-105619137D01*
X229981420Y-105600000D01*
X232494749Y-105600000D01*
X232513670Y-105743709D01*
X232569137Y-105877622D01*
X232569138Y-105877624D01*
X232569139Y-105877625D01*
X232657379Y-105992621D01*
X232772375Y-106080861D01*
X232772376Y-106080861D01*
X232772377Y-106080862D01*
X232798970Y-106091877D01*
X232906291Y-106136330D01*
X233050000Y-106155250D01*
X233193709Y-106136330D01*
X233327625Y-106080861D01*
X233442621Y-105992621D01*
X233530861Y-105877625D01*
X233586330Y-105743709D01*
X233605250Y-105600000D01*
X233586330Y-105456291D01*
X233530861Y-105322375D01*
X233442621Y-105207379D01*
X233327625Y-105119139D01*
X233327624Y-105119138D01*
X233327622Y-105119137D01*
X233193709Y-105063670D01*
X233050000Y-105044749D01*
X232906290Y-105063670D01*
X232772377Y-105119137D01*
X232657379Y-105207379D01*
X232569137Y-105322377D01*
X232513670Y-105456290D01*
X232494749Y-105600000D01*
X229981420Y-105600000D01*
X229893709Y-105563670D01*
X229750000Y-105544749D01*
X229606290Y-105563670D01*
X229472377Y-105619137D01*
X229357379Y-105707379D01*
X229269137Y-105822377D01*
X229213670Y-105956290D01*
X229194749Y-106099999D01*
X229213670Y-106243709D01*
X229269137Y-106377622D01*
X229269138Y-106377624D01*
X229269139Y-106377625D01*
X229346771Y-106478797D01*
X229357381Y-106492623D01*
X229402344Y-106527125D01*
X229443546Y-106583553D01*
X229447701Y-106653299D01*
X229413488Y-106714219D01*
X229351771Y-106746971D01*
X229326857Y-106749500D01*
X226253481Y-106749500D01*
X226246528Y-106749305D01*
X225954703Y-106732916D01*
X225940885Y-106731359D01*
X225656172Y-106682984D01*
X225642615Y-106679890D01*
X225365100Y-106599939D01*
X225351975Y-106595346D01*
X225085165Y-106484830D01*
X225072637Y-106478797D01*
X224819874Y-106339100D01*
X224808100Y-106331702D01*
X224572569Y-106164584D01*
X224561697Y-106155914D01*
X224380189Y-105993709D01*
X224346355Y-105963473D01*
X224336524Y-105953642D01*
X224327647Y-105943709D01*
X224144085Y-105738302D01*
X224135415Y-105727430D01*
X223968297Y-105491899D01*
X223960899Y-105480125D01*
X223849969Y-105279412D01*
X223821198Y-105227355D01*
X223815172Y-105214841D01*
X223704653Y-104948024D01*
X223700060Y-104934899D01*
X223626873Y-104680861D01*
X223620108Y-104657382D01*
X223617015Y-104643827D01*
X223568638Y-104359103D01*
X223567084Y-104345306D01*
X223550695Y-104053472D01*
X223550500Y-104046519D01*
X223550500Y-103940000D01*
X224694396Y-103940000D01*
X224714779Y-104198995D01*
X224775426Y-104451610D01*
X224816187Y-104550013D01*
X224874846Y-104691628D01*
X224982857Y-104867887D01*
X225010590Y-104913143D01*
X225044698Y-104953078D01*
X225179311Y-105110689D01*
X225305002Y-105218039D01*
X225358428Y-105263670D01*
X225376860Y-105279412D01*
X225598372Y-105415154D01*
X225778385Y-105489718D01*
X225838389Y-105514573D01*
X225875690Y-105523528D01*
X226091006Y-105575221D01*
X226285147Y-105590500D01*
X226287592Y-105590500D01*
X226412408Y-105590500D01*
X226414853Y-105590500D01*
X226608994Y-105575221D01*
X226861610Y-105514573D01*
X227101628Y-105415154D01*
X227323140Y-105279412D01*
X227520689Y-105110689D01*
X227689412Y-104913140D01*
X227825154Y-104691628D01*
X227924573Y-104451610D01*
X227985221Y-104198994D01*
X228005604Y-103940000D01*
X227985221Y-103681006D01*
X227933368Y-103465023D01*
X227924573Y-103428389D01*
X227894097Y-103354815D01*
X227825154Y-103188372D01*
X227689412Y-102966860D01*
X227688925Y-102966290D01*
X227584658Y-102844209D01*
X227520689Y-102769311D01*
X227356567Y-102629137D01*
X227323143Y-102600590D01*
X227323140Y-102600588D01*
X227101628Y-102464846D01*
X226990070Y-102418637D01*
X226938745Y-102397377D01*
X235145193Y-102397377D01*
X235164114Y-102541087D01*
X235219581Y-102675000D01*
X235219582Y-102675002D01*
X235219583Y-102675003D01*
X235307823Y-102789999D01*
X235422819Y-102878239D01*
X235556735Y-102933708D01*
X235700444Y-102952628D01*
X235844153Y-102933708D01*
X235978069Y-102878239D01*
X236093065Y-102789999D01*
X236181305Y-102675003D01*
X236236774Y-102541087D01*
X236255694Y-102397378D01*
X236236774Y-102253669D01*
X236181305Y-102119753D01*
X236093065Y-102004757D01*
X235978069Y-101916517D01*
X235978068Y-101916516D01*
X235978066Y-101916515D01*
X235844153Y-101861048D01*
X235700444Y-101842127D01*
X235556734Y-101861048D01*
X235422821Y-101916515D01*
X235307823Y-102004757D01*
X235219581Y-102119755D01*
X235164114Y-102253668D01*
X235145193Y-102397377D01*
X226938745Y-102397377D01*
X226861610Y-102365426D01*
X226608995Y-102304779D01*
X226417287Y-102289691D01*
X226417272Y-102289690D01*
X226414853Y-102289500D01*
X226285147Y-102289500D01*
X226282728Y-102289690D01*
X226282712Y-102289691D01*
X226091004Y-102304779D01*
X225838389Y-102365426D01*
X225633524Y-102450285D01*
X225598372Y-102464846D01*
X225454359Y-102553096D01*
X225376856Y-102600590D01*
X225179311Y-102769311D01*
X225010590Y-102966856D01*
X224987656Y-103004282D01*
X224874846Y-103188372D01*
X224874845Y-103188375D01*
X224775426Y-103428389D01*
X224714779Y-103681004D01*
X224694396Y-103940000D01*
X223550500Y-103940000D01*
X223550500Y-100750000D01*
X231694749Y-100750000D01*
X231713670Y-100893709D01*
X231769137Y-101027622D01*
X231769138Y-101027624D01*
X231769139Y-101027625D01*
X231857379Y-101142621D01*
X231972375Y-101230861D01*
X232106291Y-101286330D01*
X232250000Y-101305250D01*
X232393709Y-101286330D01*
X232527625Y-101230861D01*
X232642621Y-101142621D01*
X232730861Y-101027625D01*
X232786330Y-100893709D01*
X232805250Y-100750000D01*
X232805250Y-100749999D01*
X245694749Y-100749999D01*
X245713670Y-100893709D01*
X245769137Y-101027622D01*
X245769138Y-101027624D01*
X245769139Y-101027625D01*
X245857379Y-101142621D01*
X245972375Y-101230861D01*
X246106291Y-101286330D01*
X246250000Y-101305250D01*
X246393709Y-101286330D01*
X246527625Y-101230861D01*
X246642621Y-101142621D01*
X246730861Y-101027625D01*
X246786330Y-100893709D01*
X246805250Y-100750000D01*
X246786330Y-100606291D01*
X246730861Y-100472375D01*
X246642621Y-100357379D01*
X246527625Y-100269139D01*
X246527624Y-100269138D01*
X246527622Y-100269137D01*
X246393709Y-100213670D01*
X246250000Y-100194749D01*
X246106290Y-100213670D01*
X245972377Y-100269137D01*
X245857379Y-100357379D01*
X245769137Y-100472377D01*
X245713670Y-100606290D01*
X245694749Y-100749999D01*
X232805250Y-100749999D01*
X232786330Y-100606291D01*
X232730861Y-100472375D01*
X232642621Y-100357379D01*
X232527625Y-100269139D01*
X232527624Y-100269138D01*
X232527622Y-100269137D01*
X232393709Y-100213670D01*
X232250000Y-100194749D01*
X232106290Y-100213670D01*
X231972377Y-100269137D01*
X231857379Y-100357379D01*
X231769137Y-100472377D01*
X231713670Y-100606290D01*
X231694749Y-100750000D01*
X223550500Y-100750000D01*
X223550500Y-99750000D01*
X236944749Y-99750000D01*
X236963670Y-99893709D01*
X237019137Y-100027622D01*
X237019138Y-100027624D01*
X237019139Y-100027625D01*
X237107379Y-100142621D01*
X237222375Y-100230861D01*
X237356291Y-100286330D01*
X237500000Y-100305250D01*
X237643709Y-100286330D01*
X237777625Y-100230861D01*
X237892621Y-100142621D01*
X237963692Y-100050000D01*
X250094749Y-100050000D01*
X250113670Y-100193709D01*
X250169137Y-100327622D01*
X250169138Y-100327624D01*
X250169139Y-100327625D01*
X250257379Y-100442621D01*
X250372375Y-100530861D01*
X250506291Y-100586330D01*
X250650000Y-100605250D01*
X250793709Y-100586330D01*
X250927625Y-100530861D01*
X251042621Y-100442621D01*
X251130861Y-100327625D01*
X251186330Y-100193709D01*
X251205250Y-100050000D01*
X251186330Y-99906291D01*
X251138351Y-99790458D01*
X251130862Y-99772377D01*
X251130861Y-99772376D01*
X251130861Y-99772375D01*
X251042621Y-99657379D01*
X250927625Y-99569139D01*
X250927624Y-99569138D01*
X250927622Y-99569137D01*
X250793709Y-99513670D01*
X250650000Y-99494749D01*
X250506290Y-99513670D01*
X250372377Y-99569137D01*
X250257379Y-99657379D01*
X250169137Y-99772377D01*
X250113670Y-99906290D01*
X250094749Y-100050000D01*
X237963692Y-100050000D01*
X237980861Y-100027625D01*
X238036330Y-99893709D01*
X238055250Y-99750000D01*
X238036330Y-99606291D01*
X237990129Y-99494750D01*
X237980862Y-99472377D01*
X237980861Y-99472376D01*
X237980861Y-99472375D01*
X237925325Y-99399999D01*
X241944749Y-99399999D01*
X241963670Y-99543709D01*
X242019137Y-99677622D01*
X242019138Y-99677624D01*
X242019139Y-99677625D01*
X242107379Y-99792621D01*
X242222375Y-99880861D01*
X242356291Y-99936330D01*
X242500000Y-99955250D01*
X242643709Y-99936330D01*
X242777625Y-99880861D01*
X242892621Y-99792621D01*
X242980861Y-99677625D01*
X243036330Y-99543709D01*
X243055250Y-99400000D01*
X243036330Y-99256291D01*
X242980861Y-99122375D01*
X242892621Y-99007379D01*
X242777625Y-98919139D01*
X242777624Y-98919138D01*
X242777622Y-98919137D01*
X242643709Y-98863670D01*
X242500000Y-98844749D01*
X242356290Y-98863670D01*
X242222377Y-98919137D01*
X242107379Y-99007379D01*
X242019137Y-99122377D01*
X241963670Y-99256290D01*
X241944749Y-99399999D01*
X237925325Y-99399999D01*
X237892621Y-99357379D01*
X237777625Y-99269139D01*
X237777624Y-99269138D01*
X237777622Y-99269137D01*
X237643709Y-99213670D01*
X237499999Y-99194749D01*
X237356290Y-99213670D01*
X237222377Y-99269137D01*
X237107379Y-99357379D01*
X237019137Y-99472377D01*
X236963670Y-99606290D01*
X236944749Y-99750000D01*
X223550500Y-99750000D01*
X223550500Y-95200000D01*
X229444749Y-95200000D01*
X229463670Y-95343709D01*
X229519137Y-95477622D01*
X229519138Y-95477624D01*
X229519139Y-95477625D01*
X229607379Y-95592621D01*
X229722375Y-95680861D01*
X229856291Y-95736330D01*
X229981079Y-95752758D01*
X229999999Y-95755250D01*
X229999999Y-95755249D01*
X230000000Y-95755250D01*
X230143709Y-95736330D01*
X230277625Y-95680861D01*
X230392621Y-95592621D01*
X230480861Y-95477625D01*
X230536330Y-95343709D01*
X230555250Y-95200000D01*
X230536330Y-95056291D01*
X230513353Y-95000819D01*
X235045068Y-95000819D01*
X235063989Y-95144528D01*
X235119456Y-95278441D01*
X235119457Y-95278443D01*
X235119458Y-95278444D01*
X235207698Y-95393440D01*
X235322694Y-95481680D01*
X235456610Y-95537149D01*
X235600319Y-95556069D01*
X235744028Y-95537149D01*
X235877944Y-95481680D01*
X235992940Y-95393440D01*
X236081180Y-95278444D01*
X236084739Y-95269851D01*
X256224899Y-95269851D01*
X256243820Y-95413560D01*
X256299287Y-95547473D01*
X256299288Y-95547475D01*
X256299289Y-95547476D01*
X256387529Y-95662472D01*
X256502525Y-95750712D01*
X256636441Y-95806181D01*
X256761228Y-95822609D01*
X256780149Y-95825101D01*
X256780149Y-95825100D01*
X256780150Y-95825101D01*
X256923859Y-95806181D01*
X257057775Y-95750712D01*
X257161690Y-95670974D01*
X257226858Y-95645781D01*
X257237176Y-95645351D01*
X257462952Y-95645351D01*
X257529991Y-95665036D01*
X257550633Y-95681670D01*
X257931486Y-96062523D01*
X257964971Y-96123846D01*
X257959987Y-96193538D01*
X257918115Y-96249471D01*
X257852651Y-96273888D01*
X257796355Y-96264766D01*
X257793709Y-96263670D01*
X257776989Y-96261468D01*
X257650000Y-96244749D01*
X257506290Y-96263670D01*
X257372377Y-96319137D01*
X257257379Y-96407379D01*
X257169137Y-96522377D01*
X257113670Y-96656290D01*
X257094749Y-96800000D01*
X257113670Y-96943709D01*
X257169137Y-97077622D01*
X257169138Y-97077624D01*
X257169139Y-97077625D01*
X257257379Y-97192621D01*
X257372375Y-97280861D01*
X257506291Y-97336330D01*
X257650000Y-97355250D01*
X257793709Y-97336330D01*
X257927625Y-97280861D01*
X258042621Y-97192621D01*
X258130861Y-97077625D01*
X258186330Y-96943709D01*
X258205250Y-96800000D01*
X258186330Y-96656291D01*
X258185233Y-96653643D01*
X258177765Y-96584179D01*
X258209039Y-96521699D01*
X258269128Y-96486046D01*
X258338953Y-96488539D01*
X258387476Y-96518513D01*
X258635225Y-96766262D01*
X258668710Y-96827585D01*
X258670483Y-96837756D01*
X258687581Y-96967620D01*
X258743048Y-97101533D01*
X258743049Y-97101535D01*
X258743050Y-97101536D01*
X258831290Y-97216532D01*
X258946286Y-97304772D01*
X259080202Y-97360241D01*
X259223911Y-97379161D01*
X259367620Y-97360241D01*
X259501536Y-97304772D01*
X259616532Y-97216532D01*
X259636319Y-97190744D01*
X259692748Y-97149541D01*
X259762494Y-97145386D01*
X259823414Y-97179598D01*
X259833072Y-97190744D01*
X259852858Y-97216530D01*
X259872879Y-97242621D01*
X259987875Y-97330861D01*
X259987876Y-97330861D01*
X259987877Y-97330862D01*
X260003674Y-97337405D01*
X260121791Y-97386330D01*
X260265500Y-97405250D01*
X260409209Y-97386330D01*
X260543125Y-97330861D01*
X260658121Y-97242621D01*
X260746361Y-97127625D01*
X260801830Y-96993709D01*
X260820750Y-96850000D01*
X260801830Y-96706291D01*
X260746361Y-96572375D01*
X260729192Y-96550000D01*
X262944749Y-96550000D01*
X262963670Y-96693709D01*
X263019137Y-96827622D01*
X263019138Y-96827624D01*
X263019139Y-96827625D01*
X263107379Y-96942621D01*
X263222375Y-97030861D01*
X263356291Y-97086330D01*
X263471790Y-97101536D01*
X263499999Y-97105250D01*
X263499999Y-97105249D01*
X263500000Y-97105250D01*
X263643709Y-97086330D01*
X263777625Y-97030861D01*
X263892621Y-96942621D01*
X263980861Y-96827625D01*
X264036330Y-96693709D01*
X264055250Y-96550000D01*
X264036330Y-96406291D01*
X263990129Y-96294750D01*
X263980862Y-96272377D01*
X263980861Y-96272376D01*
X263980861Y-96272375D01*
X263892621Y-96157379D01*
X263777625Y-96069139D01*
X263777624Y-96069138D01*
X263777622Y-96069137D01*
X263643709Y-96013670D01*
X263500000Y-95994749D01*
X263356290Y-96013670D01*
X263222377Y-96069137D01*
X263107379Y-96157379D01*
X263019137Y-96272377D01*
X262963670Y-96406290D01*
X262944749Y-96550000D01*
X260729192Y-96550000D01*
X260658121Y-96457379D01*
X260543125Y-96369139D01*
X260543124Y-96369138D01*
X260543122Y-96369137D01*
X260409209Y-96313670D01*
X260265499Y-96294749D01*
X260121790Y-96313670D01*
X259987877Y-96369137D01*
X259872876Y-96457380D01*
X259853088Y-96483169D01*
X259796659Y-96524370D01*
X259726913Y-96528523D01*
X259665993Y-96494309D01*
X259656338Y-96483166D01*
X259616533Y-96431291D01*
X259616532Y-96431290D01*
X259501536Y-96343050D01*
X259501535Y-96343049D01*
X259501533Y-96343048D01*
X259367620Y-96287581D01*
X259237757Y-96270483D01*
X259173861Y-96242216D01*
X259166263Y-96235225D01*
X257972000Y-95040962D01*
X257955873Y-95021104D01*
X257949934Y-95012013D01*
X257924961Y-94992576D01*
X257913444Y-94982405D01*
X257913370Y-94982331D01*
X257896445Y-94970248D01*
X257892331Y-94967181D01*
X257851040Y-94935042D01*
X257851037Y-94935041D01*
X257844814Y-94930197D01*
X257844612Y-94930093D01*
X257837051Y-94927841D01*
X257837050Y-94927841D01*
X257786887Y-94912906D01*
X257782025Y-94911348D01*
X257770631Y-94907437D01*
X257725053Y-94891790D01*
X257724820Y-94891757D01*
X257679761Y-94893620D01*
X257664657Y-94894245D01*
X257659535Y-94894351D01*
X257237176Y-94894351D01*
X257170137Y-94874666D01*
X257161697Y-94868733D01*
X257137283Y-94849999D01*
X263194749Y-94849999D01*
X263213670Y-94993709D01*
X263269137Y-95127622D01*
X263269138Y-95127624D01*
X263269139Y-95127625D01*
X263357379Y-95242621D01*
X263472375Y-95330861D01*
X263606291Y-95386330D01*
X263731078Y-95402758D01*
X263749999Y-95405250D01*
X263749999Y-95405249D01*
X263750000Y-95405250D01*
X263893709Y-95386330D01*
X264027625Y-95330861D01*
X264142621Y-95242621D01*
X264230861Y-95127625D01*
X264286330Y-94993709D01*
X264305250Y-94850000D01*
X264286330Y-94706291D01*
X264230861Y-94572375D01*
X264142621Y-94457379D01*
X264027625Y-94369139D01*
X264027624Y-94369138D01*
X264027622Y-94369137D01*
X263893709Y-94313670D01*
X263750000Y-94294749D01*
X263606290Y-94313670D01*
X263472377Y-94369137D01*
X263357379Y-94457379D01*
X263269137Y-94572377D01*
X263213670Y-94706290D01*
X263194749Y-94849999D01*
X257137283Y-94849999D01*
X257057775Y-94788990D01*
X257057774Y-94788989D01*
X257057772Y-94788988D01*
X256923859Y-94733521D01*
X256780150Y-94714600D01*
X256636440Y-94733521D01*
X256502527Y-94788988D01*
X256387529Y-94877230D01*
X256299287Y-94992228D01*
X256243820Y-95126141D01*
X256224899Y-95269851D01*
X236084739Y-95269851D01*
X236136649Y-95144528D01*
X236155569Y-95000819D01*
X236136649Y-94857110D01*
X236081180Y-94723194D01*
X235992940Y-94608198D01*
X235877944Y-94519958D01*
X235877943Y-94519957D01*
X235877941Y-94519956D01*
X235744028Y-94464489D01*
X235600319Y-94445568D01*
X235456609Y-94464489D01*
X235322696Y-94519956D01*
X235207698Y-94608198D01*
X235119456Y-94723196D01*
X235063989Y-94857109D01*
X235045068Y-95000819D01*
X230513353Y-95000819D01*
X230480861Y-94922375D01*
X230392621Y-94807379D01*
X230277625Y-94719139D01*
X230277624Y-94719138D01*
X230277622Y-94719137D01*
X230143709Y-94663670D01*
X230000000Y-94644749D01*
X229856290Y-94663670D01*
X229722377Y-94719137D01*
X229607379Y-94807379D01*
X229519137Y-94922377D01*
X229463670Y-95056290D01*
X229444749Y-95200000D01*
X223550500Y-95200000D01*
X223550500Y-92399999D01*
X236565247Y-92399999D01*
X236584168Y-92543709D01*
X236639635Y-92677622D01*
X236639636Y-92677624D01*
X236639637Y-92677625D01*
X236727877Y-92792621D01*
X236842873Y-92880861D01*
X236976789Y-92936330D01*
X237101576Y-92952758D01*
X237120497Y-92955250D01*
X237120497Y-92955249D01*
X237120498Y-92955250D01*
X237264207Y-92936330D01*
X237398123Y-92880861D01*
X237513119Y-92792621D01*
X237601359Y-92677625D01*
X237656828Y-92543709D01*
X237675748Y-92400000D01*
X237656828Y-92256291D01*
X237610627Y-92144750D01*
X237601360Y-92122377D01*
X237601359Y-92122376D01*
X237601359Y-92122375D01*
X237584189Y-92099999D01*
X241394749Y-92099999D01*
X241413670Y-92243709D01*
X241469137Y-92377622D01*
X241469138Y-92377624D01*
X241469139Y-92377625D01*
X241557379Y-92492621D01*
X241672375Y-92580861D01*
X241672376Y-92580861D01*
X241672377Y-92580862D01*
X241700764Y-92592620D01*
X241806291Y-92636330D01*
X241950000Y-92655250D01*
X242093709Y-92636330D01*
X242227625Y-92580861D01*
X242342621Y-92492621D01*
X242430861Y-92377625D01*
X242486330Y-92243709D01*
X242492085Y-92199999D01*
X255845249Y-92199999D01*
X255864170Y-92343709D01*
X255919637Y-92477622D01*
X255919638Y-92477624D01*
X255919639Y-92477625D01*
X256007879Y-92592621D01*
X256122875Y-92680861D01*
X256256791Y-92736330D01*
X256368093Y-92750983D01*
X256431989Y-92779249D01*
X256439588Y-92786241D01*
X256515042Y-92861695D01*
X256531169Y-92881554D01*
X256537106Y-92890642D01*
X256537107Y-92890643D01*
X256537108Y-92890644D01*
X256559724Y-92908246D01*
X256600536Y-92964955D01*
X256604211Y-93034728D01*
X256598123Y-93053550D01*
X256539500Y-93195082D01*
X256520579Y-93338790D01*
X256539500Y-93482500D01*
X256594967Y-93616413D01*
X256594968Y-93616415D01*
X256594969Y-93616416D01*
X256683209Y-93731412D01*
X256798205Y-93819652D01*
X256932121Y-93875121D01*
X257075830Y-93894041D01*
X257219539Y-93875121D01*
X257353455Y-93819652D01*
X257468451Y-93731412D01*
X257468451Y-93731411D01*
X257481402Y-93721474D01*
X257483021Y-93723584D01*
X257519975Y-93696601D01*
X257561922Y-93689291D01*
X258792247Y-93689291D01*
X258859286Y-93708976D01*
X258879928Y-93725610D01*
X259017361Y-93863043D01*
X259033489Y-93882903D01*
X259038563Y-93890669D01*
X259061473Y-93908500D01*
X259072492Y-93918232D01*
X259081120Y-93924391D01*
X259088359Y-93929559D01*
X259092420Y-93932587D01*
X259130874Y-93962517D01*
X259130876Y-93962517D01*
X259136775Y-93967109D01*
X259190593Y-93983131D01*
X259195437Y-93984682D01*
X259241512Y-94000500D01*
X259241514Y-94000500D01*
X259248578Y-94002925D01*
X259256043Y-94002616D01*
X259256046Y-94002617D01*
X259304668Y-94000605D01*
X259309792Y-94000500D01*
X263600788Y-94000500D01*
X263626234Y-94003139D01*
X263627556Y-94003416D01*
X263635315Y-94005043D01*
X263661364Y-94001795D01*
X263664123Y-94001452D01*
X263678795Y-94000541D01*
X263698013Y-93997334D01*
X263703069Y-93996596D01*
X263751393Y-93990573D01*
X263751394Y-93990572D01*
X263758808Y-93989648D01*
X263765378Y-93986092D01*
X263765381Y-93986092D01*
X263808201Y-93962918D01*
X263812747Y-93960577D01*
X263856484Y-93939198D01*
X263856486Y-93939195D01*
X263863195Y-93935916D01*
X263868254Y-93930419D01*
X263868258Y-93930418D01*
X263901254Y-93894572D01*
X263904756Y-93890924D01*
X264554123Y-93241557D01*
X264615444Y-93208074D01*
X264634608Y-93207275D01*
X264639298Y-93206658D01*
X264641439Y-93206991D01*
X264658000Y-93206302D01*
X264666197Y-93207382D01*
X264665749Y-93210779D01*
X264708334Y-93217414D01*
X264760597Y-93263787D01*
X264779500Y-93329595D01*
X264779500Y-94404560D01*
X264779500Y-94404578D01*
X264779501Y-94407872D01*
X264785909Y-94467483D01*
X264836204Y-94602331D01*
X264922454Y-94717546D01*
X265037669Y-94803796D01*
X265172517Y-94854091D01*
X265232127Y-94860500D01*
X266527872Y-94860499D01*
X266587483Y-94854091D01*
X266722331Y-94803796D01*
X266837546Y-94717546D01*
X266923796Y-94602331D01*
X266974091Y-94467483D01*
X266980500Y-94407873D01*
X266980499Y-93760000D01*
X267274785Y-93760000D01*
X267293602Y-93963083D01*
X267349418Y-94159251D01*
X267440324Y-94341818D01*
X267563236Y-94504580D01*
X267713958Y-94641981D01*
X267887361Y-94749347D01*
X267887363Y-94749348D01*
X268077544Y-94823024D01*
X268278024Y-94860500D01*
X268278026Y-94860500D01*
X268481974Y-94860500D01*
X268481976Y-94860500D01*
X268682456Y-94823024D01*
X268872637Y-94749348D01*
X269046041Y-94641981D01*
X269196764Y-94504579D01*
X269319673Y-94341821D01*
X269319673Y-94341819D01*
X269319675Y-94341818D01*
X269365313Y-94250161D01*
X269410582Y-94159250D01*
X269466397Y-93963083D01*
X269485215Y-93760000D01*
X269466397Y-93556917D01*
X269410582Y-93360750D01*
X269395069Y-93329595D01*
X269319675Y-93178181D01*
X269196763Y-93015419D01*
X269046041Y-92878018D01*
X268872638Y-92770652D01*
X268682457Y-92696976D01*
X268588689Y-92679448D01*
X268481976Y-92659500D01*
X268278024Y-92659500D01*
X268181079Y-92677622D01*
X268077542Y-92696976D01*
X267887361Y-92770652D01*
X267713958Y-92878018D01*
X267563236Y-93015419D01*
X267440324Y-93178181D01*
X267349418Y-93360748D01*
X267293602Y-93556916D01*
X267274785Y-93760000D01*
X266980499Y-93760000D01*
X266980499Y-93112128D01*
X266974091Y-93052517D01*
X266923796Y-92917669D01*
X266837546Y-92802454D01*
X266722331Y-92716204D01*
X266587483Y-92665909D01*
X266586823Y-92665838D01*
X266531166Y-92659854D01*
X266531165Y-92659853D01*
X266527873Y-92659500D01*
X266524551Y-92659500D01*
X265315245Y-92659500D01*
X265248206Y-92639815D01*
X265202451Y-92587011D01*
X265192306Y-92551685D01*
X265191256Y-92543709D01*
X265186330Y-92506291D01*
X265130861Y-92372375D01*
X265042621Y-92257379D01*
X264927625Y-92169139D01*
X264927624Y-92169138D01*
X264927622Y-92169137D01*
X264793709Y-92113670D01*
X264650000Y-92094749D01*
X264506290Y-92113670D01*
X264372377Y-92169137D01*
X264257379Y-92257379D01*
X264169137Y-92372377D01*
X264113670Y-92506290D01*
X264092619Y-92666186D01*
X264089982Y-92665838D01*
X264082932Y-92711046D01*
X264058440Y-92745877D01*
X263541137Y-93263181D01*
X263479814Y-93296666D01*
X263453456Y-93299500D01*
X260935825Y-93299500D01*
X260868786Y-93279815D01*
X260823031Y-93227011D01*
X260813087Y-93157853D01*
X260837449Y-93100014D01*
X260902360Y-93015419D01*
X260931361Y-92977625D01*
X260986830Y-92843709D01*
X261005750Y-92700000D01*
X260986830Y-92556291D01*
X260931361Y-92422375D01*
X260843121Y-92307379D01*
X260728125Y-92219139D01*
X260728124Y-92219138D01*
X260728122Y-92219137D01*
X260594209Y-92163670D01*
X260450500Y-92144749D01*
X260306790Y-92163670D01*
X260172876Y-92219138D01*
X260157012Y-92231311D01*
X260091842Y-92256504D01*
X260086654Y-92256828D01*
X260081749Y-92257030D01*
X260077612Y-92257202D01*
X260072490Y-92257308D01*
X257072039Y-92257308D01*
X257005000Y-92237623D01*
X256959245Y-92184819D01*
X256949100Y-92149496D01*
X256936830Y-92056291D01*
X256886027Y-91933640D01*
X256881362Y-91922377D01*
X256881361Y-91922376D01*
X256881361Y-91922375D01*
X256793121Y-91807379D01*
X256678125Y-91719139D01*
X256678124Y-91719138D01*
X256678122Y-91719137D01*
X256544209Y-91663670D01*
X256400499Y-91644749D01*
X256256790Y-91663670D01*
X256122877Y-91719137D01*
X256007879Y-91807379D01*
X255919637Y-91922377D01*
X255864170Y-92056290D01*
X255845249Y-92199999D01*
X242492085Y-92199999D01*
X242505250Y-92100000D01*
X242486330Y-91956291D01*
X242430861Y-91822375D01*
X242342621Y-91707379D01*
X242227625Y-91619139D01*
X242227624Y-91619138D01*
X242227622Y-91619137D01*
X242093709Y-91563670D01*
X241949999Y-91544749D01*
X241806290Y-91563670D01*
X241672377Y-91619137D01*
X241557379Y-91707379D01*
X241469137Y-91822377D01*
X241413670Y-91956290D01*
X241394749Y-92099999D01*
X237584189Y-92099999D01*
X237513119Y-92007379D01*
X237501962Y-91998817D01*
X237490561Y-91990069D01*
X237449359Y-91933640D01*
X237445205Y-91863894D01*
X237479419Y-91802974D01*
X237490554Y-91793325D01*
X237513120Y-91776010D01*
X237601360Y-91661014D01*
X237656829Y-91527098D01*
X237675749Y-91383389D01*
X237656829Y-91239680D01*
X237601360Y-91105764D01*
X237513120Y-90990768D01*
X237463480Y-90952678D01*
X255294249Y-90952678D01*
X255313170Y-91096387D01*
X255368637Y-91230300D01*
X255368638Y-91230302D01*
X255368639Y-91230303D01*
X255456879Y-91345299D01*
X255571875Y-91433539D01*
X255705791Y-91489008D01*
X255849500Y-91507928D01*
X255993209Y-91489008D01*
X256127125Y-91433539D01*
X256242121Y-91345299D01*
X256330361Y-91230303D01*
X256385830Y-91096387D01*
X256404750Y-90952678D01*
X256385830Y-90808969D01*
X256330361Y-90675053D01*
X256242121Y-90560057D01*
X256127125Y-90471817D01*
X256127124Y-90471816D01*
X256127122Y-90471815D01*
X255993209Y-90416348D01*
X255849499Y-90397427D01*
X255705790Y-90416348D01*
X255571877Y-90471815D01*
X255456879Y-90560057D01*
X255368637Y-90675055D01*
X255313170Y-90808968D01*
X255294249Y-90952678D01*
X237463480Y-90952678D01*
X237398124Y-90902528D01*
X237398123Y-90902527D01*
X237398121Y-90902526D01*
X237264208Y-90847059D01*
X237120499Y-90828138D01*
X236976789Y-90847059D01*
X236842876Y-90902526D01*
X236727878Y-90990768D01*
X236639636Y-91105766D01*
X236584169Y-91239679D01*
X236565248Y-91383388D01*
X236584169Y-91527098D01*
X236639636Y-91661011D01*
X236639637Y-91661013D01*
X236639638Y-91661014D01*
X236703092Y-91743709D01*
X236727880Y-91776012D01*
X236750434Y-91793319D01*
X236791637Y-91849747D01*
X236795791Y-91919493D01*
X236761578Y-91980413D01*
X236750435Y-91990069D01*
X236727878Y-92007378D01*
X236639635Y-92122377D01*
X236584168Y-92256290D01*
X236565247Y-92399999D01*
X223550500Y-92399999D01*
X223550500Y-92123691D01*
X223570185Y-92056652D01*
X223622989Y-92010897D01*
X223692147Y-92000953D01*
X223749985Y-92025314D01*
X223822375Y-92080861D01*
X223956291Y-92136330D01*
X224081079Y-92152758D01*
X224099999Y-92155250D01*
X224099999Y-92155249D01*
X224100000Y-92155250D01*
X224243709Y-92136330D01*
X224377625Y-92080861D01*
X224492621Y-91992621D01*
X224580861Y-91877625D01*
X224636330Y-91743709D01*
X224655250Y-91600000D01*
X224636330Y-91456291D01*
X224580861Y-91322375D01*
X224492621Y-91207379D01*
X224377625Y-91119139D01*
X224377624Y-91119138D01*
X224377622Y-91119137D01*
X224243709Y-91063670D01*
X224100000Y-91044749D01*
X223956290Y-91063670D01*
X223822374Y-91119138D01*
X223749986Y-91174684D01*
X223684817Y-91199878D01*
X223616372Y-91185839D01*
X223566382Y-91137025D01*
X223550500Y-91076308D01*
X223550500Y-88550000D01*
X229694749Y-88550000D01*
X229713670Y-88693709D01*
X229769137Y-88827622D01*
X229769138Y-88827624D01*
X229769139Y-88827625D01*
X229857379Y-88942621D01*
X229972375Y-89030861D01*
X230106291Y-89086330D01*
X230250000Y-89105250D01*
X230393709Y-89086330D01*
X230527625Y-89030861D01*
X230567845Y-88999999D01*
X236344749Y-88999999D01*
X236363670Y-89143709D01*
X236419137Y-89277622D01*
X236419138Y-89277624D01*
X236419139Y-89277625D01*
X236507379Y-89392621D01*
X236622375Y-89480861D01*
X236756291Y-89536330D01*
X236881078Y-89552758D01*
X236899999Y-89555250D01*
X236899999Y-89555249D01*
X236900000Y-89555250D01*
X237043709Y-89536330D01*
X237177625Y-89480861D01*
X237292621Y-89392621D01*
X237380861Y-89277625D01*
X237436330Y-89143709D01*
X237455250Y-89000000D01*
X237436330Y-88856291D01*
X237380861Y-88722375D01*
X237292621Y-88607379D01*
X237177625Y-88519139D01*
X237177624Y-88519138D01*
X237177622Y-88519137D01*
X237043709Y-88463670D01*
X236899999Y-88444749D01*
X236756290Y-88463670D01*
X236622377Y-88519137D01*
X236507379Y-88607379D01*
X236419137Y-88722377D01*
X236363670Y-88856290D01*
X236344749Y-88999999D01*
X230567845Y-88999999D01*
X230642621Y-88942621D01*
X230730861Y-88827625D01*
X230786330Y-88693709D01*
X230805250Y-88550000D01*
X230786330Y-88406291D01*
X230730861Y-88272375D01*
X230642621Y-88157379D01*
X230527625Y-88069139D01*
X230527624Y-88069138D01*
X230527622Y-88069137D01*
X230393709Y-88013670D01*
X230249999Y-87994749D01*
X230106290Y-88013670D01*
X229972377Y-88069137D01*
X229857379Y-88157379D01*
X229769137Y-88272377D01*
X229713670Y-88406290D01*
X229694749Y-88550000D01*
X223550500Y-88550000D01*
X223550500Y-87900000D01*
X242800000Y-87900000D01*
X242800000Y-90300000D01*
X245200000Y-90300000D01*
X245200000Y-90100499D01*
X246617805Y-90100499D01*
X246636726Y-90244209D01*
X246692193Y-90378122D01*
X246692194Y-90378124D01*
X246692195Y-90378125D01*
X246780435Y-90493121D01*
X246895431Y-90581361D01*
X247029347Y-90636830D01*
X247154134Y-90653258D01*
X247173055Y-90655750D01*
X247173055Y-90655749D01*
X247173056Y-90655750D01*
X247316765Y-90636830D01*
X247450681Y-90581361D01*
X247565677Y-90493121D01*
X247653917Y-90378125D01*
X247709386Y-90244209D01*
X247728306Y-90100500D01*
X247709386Y-89956791D01*
X247653917Y-89822875D01*
X247565677Y-89707879D01*
X247490248Y-89650000D01*
X249894749Y-89650000D01*
X249913670Y-89793709D01*
X249969137Y-89927622D01*
X249969138Y-89927624D01*
X249969139Y-89927625D01*
X250057379Y-90042621D01*
X250172375Y-90130861D01*
X250306291Y-90186330D01*
X250450000Y-90205250D01*
X250593709Y-90186330D01*
X250727625Y-90130861D01*
X250842621Y-90042621D01*
X250930861Y-89927625D01*
X250986330Y-89793709D01*
X251005250Y-89650000D01*
X250986330Y-89506291D01*
X250930861Y-89372375D01*
X250842621Y-89257379D01*
X250727625Y-89169139D01*
X250727624Y-89169138D01*
X250727622Y-89169137D01*
X250593709Y-89113670D01*
X250450000Y-89094749D01*
X250306290Y-89113670D01*
X250172377Y-89169137D01*
X250057379Y-89257379D01*
X249969137Y-89372377D01*
X249913670Y-89506290D01*
X249894749Y-89650000D01*
X247490248Y-89650000D01*
X247450681Y-89619639D01*
X247450680Y-89619638D01*
X247450678Y-89619637D01*
X247316765Y-89564170D01*
X247173056Y-89545249D01*
X247029346Y-89564170D01*
X246895433Y-89619637D01*
X246780435Y-89707879D01*
X246692193Y-89822877D01*
X246636726Y-89956790D01*
X246617805Y-90100499D01*
X245200000Y-90100499D01*
X245200000Y-87900000D01*
X242800000Y-87900000D01*
X223550500Y-87900000D01*
X223550500Y-87499999D01*
X251044749Y-87499999D01*
X251063670Y-87643709D01*
X251119137Y-87777622D01*
X251119138Y-87777624D01*
X251119139Y-87777625D01*
X251207379Y-87892621D01*
X251322375Y-87980861D01*
X251456291Y-88036330D01*
X251600000Y-88055250D01*
X251743709Y-88036330D01*
X251877625Y-87980861D01*
X251992621Y-87892621D01*
X252080861Y-87777625D01*
X252136330Y-87643709D01*
X252155250Y-87500000D01*
X252155249Y-87499999D01*
X252157381Y-87483814D01*
X252158196Y-87483921D01*
X252166212Y-87432497D01*
X252212589Y-87380238D01*
X252279856Y-87361349D01*
X252330733Y-87376943D01*
X252331491Y-87375114D01*
X252399387Y-87403236D01*
X252480490Y-87436830D01*
X252624199Y-87455750D01*
X252767908Y-87436830D01*
X252901824Y-87381361D01*
X252997699Y-87307792D01*
X253062868Y-87282598D01*
X253131313Y-87296636D01*
X253181303Y-87345450D01*
X253196967Y-87413541D01*
X253196125Y-87422353D01*
X253186274Y-87497174D01*
X253205195Y-87640884D01*
X253260662Y-87774797D01*
X253260663Y-87774799D01*
X253260664Y-87774800D01*
X253348904Y-87889796D01*
X253463900Y-87978036D01*
X253463901Y-87978036D01*
X253463902Y-87978037D01*
X253494240Y-87990603D01*
X253597816Y-88033505D01*
X253741525Y-88052425D01*
X253885234Y-88033505D01*
X254019150Y-87978036D01*
X254134146Y-87889796D01*
X254222386Y-87774800D01*
X254277855Y-87640884D01*
X254296775Y-87497175D01*
X254277855Y-87353466D01*
X254225731Y-87227625D01*
X254222387Y-87219552D01*
X254222386Y-87219551D01*
X254222386Y-87219550D01*
X254134146Y-87104554D01*
X254019150Y-87016314D01*
X254019149Y-87016313D01*
X254019147Y-87016312D01*
X253885234Y-86960845D01*
X253741525Y-86941924D01*
X253597815Y-86960845D01*
X253463900Y-87016313D01*
X253368023Y-87089882D01*
X253302854Y-87115076D01*
X253234409Y-87101037D01*
X253184419Y-87052223D01*
X253168756Y-86984132D01*
X253169596Y-86975335D01*
X253179449Y-86900500D01*
X253160529Y-86756791D01*
X253108330Y-86630769D01*
X253105061Y-86622877D01*
X253105060Y-86622876D01*
X253105060Y-86622875D01*
X253016820Y-86507879D01*
X252934666Y-86444839D01*
X252893465Y-86388413D01*
X252889310Y-86318667D01*
X252895590Y-86299021D01*
X252900014Y-86288341D01*
X252918934Y-86144632D01*
X252906475Y-86049999D01*
X261294749Y-86049999D01*
X261313670Y-86193709D01*
X261369137Y-86327622D01*
X261369138Y-86327624D01*
X261369139Y-86327625D01*
X261457379Y-86442621D01*
X261572375Y-86530861D01*
X261706291Y-86586330D01*
X261829128Y-86602502D01*
X261893024Y-86630769D01*
X261931495Y-86689093D01*
X261932326Y-86758958D01*
X261927504Y-86772892D01*
X261913670Y-86806291D01*
X261894749Y-86950000D01*
X261913670Y-87093709D01*
X261969137Y-87227622D01*
X261969138Y-87227624D01*
X261969139Y-87227625D01*
X262057379Y-87342621D01*
X262172375Y-87430861D01*
X262172376Y-87430861D01*
X262172377Y-87430862D01*
X262202715Y-87443428D01*
X262306291Y-87486330D01*
X262450000Y-87505250D01*
X262593709Y-87486330D01*
X262727625Y-87430861D01*
X262842621Y-87342621D01*
X262930861Y-87227625D01*
X262986330Y-87093709D01*
X263005250Y-86950000D01*
X262986330Y-86806291D01*
X262930861Y-86672375D01*
X262842621Y-86557379D01*
X262727625Y-86469139D01*
X262727624Y-86469138D01*
X262727622Y-86469137D01*
X262593709Y-86413670D01*
X262470871Y-86397497D01*
X262406974Y-86369230D01*
X262368504Y-86310905D01*
X262367673Y-86241040D01*
X262372490Y-86227121D01*
X262386330Y-86193709D01*
X262405250Y-86050000D01*
X262395934Y-85979240D01*
X262406699Y-85910207D01*
X262453079Y-85857951D01*
X262520348Y-85839065D01*
X262535051Y-85840116D01*
X262650000Y-85855250D01*
X262793709Y-85836330D01*
X262881419Y-85800000D01*
X267044749Y-85800000D01*
X267063670Y-85943709D01*
X267119137Y-86077622D01*
X267119138Y-86077624D01*
X267119139Y-86077625D01*
X267207379Y-86192621D01*
X267322375Y-86280861D01*
X267322376Y-86280861D01*
X267322377Y-86280862D01*
X267350764Y-86292620D01*
X267456291Y-86336330D01*
X267600000Y-86355250D01*
X267743709Y-86336330D01*
X267877625Y-86280861D01*
X267992621Y-86192621D01*
X268080861Y-86077625D01*
X268136330Y-85943709D01*
X268155250Y-85800000D01*
X268136330Y-85656291D01*
X268088032Y-85539687D01*
X268080862Y-85522377D01*
X268080861Y-85522376D01*
X268080861Y-85522375D01*
X267992621Y-85407379D01*
X267877625Y-85319139D01*
X267877624Y-85319138D01*
X267877622Y-85319137D01*
X267743709Y-85263670D01*
X267599999Y-85244749D01*
X267456290Y-85263670D01*
X267322377Y-85319137D01*
X267207379Y-85407379D01*
X267119137Y-85522377D01*
X267063670Y-85656290D01*
X267044749Y-85800000D01*
X262881419Y-85800000D01*
X262927625Y-85780861D01*
X263042621Y-85692621D01*
X263130861Y-85577625D01*
X263186330Y-85443709D01*
X263205250Y-85300000D01*
X263186330Y-85156291D01*
X263142303Y-85049999D01*
X263494749Y-85049999D01*
X263513670Y-85193709D01*
X263569137Y-85327622D01*
X263569138Y-85327624D01*
X263569139Y-85327625D01*
X263657379Y-85442621D01*
X263772375Y-85530861D01*
X263906291Y-85586330D01*
X264031079Y-85602758D01*
X264049999Y-85605250D01*
X264049999Y-85605249D01*
X264050000Y-85605250D01*
X264193709Y-85586330D01*
X264327625Y-85530861D01*
X264442621Y-85442621D01*
X264530861Y-85327625D01*
X264586330Y-85193709D01*
X264605250Y-85050000D01*
X264586330Y-84906291D01*
X264540129Y-84794750D01*
X264530862Y-84772377D01*
X264530861Y-84772376D01*
X264530861Y-84772375D01*
X264442621Y-84657379D01*
X264327625Y-84569139D01*
X264327624Y-84569138D01*
X264327622Y-84569137D01*
X264193709Y-84513670D01*
X264050000Y-84494749D01*
X263906290Y-84513670D01*
X263772377Y-84569137D01*
X263657379Y-84657379D01*
X263569137Y-84772377D01*
X263513670Y-84906290D01*
X263494749Y-85049999D01*
X263142303Y-85049999D01*
X263130861Y-85022375D01*
X263042621Y-84907379D01*
X262927625Y-84819139D01*
X262927624Y-84819138D01*
X262927622Y-84819137D01*
X262793709Y-84763670D01*
X262650000Y-84744749D01*
X262506290Y-84763670D01*
X262372377Y-84819137D01*
X262257379Y-84907379D01*
X262169137Y-85022377D01*
X262113670Y-85156290D01*
X262094749Y-85300000D01*
X262104065Y-85370758D01*
X262093299Y-85439793D01*
X262046919Y-85492049D01*
X261979650Y-85510934D01*
X261964941Y-85509882D01*
X261850000Y-85494749D01*
X261706290Y-85513670D01*
X261572377Y-85569137D01*
X261457379Y-85657379D01*
X261369137Y-85772377D01*
X261313670Y-85906290D01*
X261294749Y-86049999D01*
X252906475Y-86049999D01*
X252900014Y-86000923D01*
X252844545Y-85867007D01*
X252756305Y-85752011D01*
X252641309Y-85663771D01*
X252641308Y-85663770D01*
X252641306Y-85663769D01*
X252507393Y-85608302D01*
X252363684Y-85589381D01*
X252219974Y-85608302D01*
X252086061Y-85663769D01*
X251971063Y-85752011D01*
X251882821Y-85867009D01*
X251827354Y-86000922D01*
X251808433Y-86144631D01*
X251827354Y-86288341D01*
X251882821Y-86422254D01*
X251882822Y-86422256D01*
X251882823Y-86422257D01*
X251953737Y-86514673D01*
X251971064Y-86537254D01*
X252053214Y-86600290D01*
X252094417Y-86656718D01*
X252098572Y-86726464D01*
X252092291Y-86746115D01*
X252087869Y-86756791D01*
X252066818Y-86916686D01*
X252066002Y-86916578D01*
X252057983Y-86968008D01*
X252011603Y-87020264D01*
X251944334Y-87039150D01*
X251893466Y-87023554D01*
X251892708Y-87025386D01*
X251743709Y-86963670D01*
X251600000Y-86944749D01*
X251456290Y-86963670D01*
X251322377Y-87019137D01*
X251207379Y-87107379D01*
X251119137Y-87222377D01*
X251063670Y-87356290D01*
X251044749Y-87499999D01*
X223550500Y-87499999D01*
X223550500Y-85950000D01*
X224164249Y-85950000D01*
X224183170Y-86093709D01*
X224238637Y-86227622D01*
X224238638Y-86227624D01*
X224238639Y-86227625D01*
X224326879Y-86342621D01*
X224441875Y-86430861D01*
X224441876Y-86430861D01*
X224441877Y-86430862D01*
X224461141Y-86438841D01*
X224575791Y-86486330D01*
X224719500Y-86505250D01*
X224863209Y-86486330D01*
X224997125Y-86430861D01*
X225112121Y-86342621D01*
X225183193Y-86249999D01*
X229044749Y-86249999D01*
X229063670Y-86393709D01*
X229119137Y-86527622D01*
X229119138Y-86527624D01*
X229119139Y-86527625D01*
X229207379Y-86642621D01*
X229322375Y-86730861D01*
X229456291Y-86786330D01*
X229581079Y-86802758D01*
X229599999Y-86805250D01*
X229599999Y-86805249D01*
X229600000Y-86805250D01*
X229743709Y-86786330D01*
X229877547Y-86730893D01*
X229947017Y-86723424D01*
X229972452Y-86730893D01*
X230106291Y-86786330D01*
X230250000Y-86805250D01*
X230393709Y-86786330D01*
X230493680Y-86744921D01*
X230542708Y-86724614D01*
X230543279Y-86725993D01*
X230589679Y-86708054D01*
X230658124Y-86722090D01*
X230670678Y-86730158D01*
X230672374Y-86730860D01*
X230672375Y-86730861D01*
X230806291Y-86786330D01*
X230931078Y-86802758D01*
X230949999Y-86805250D01*
X230949999Y-86805249D01*
X230950000Y-86805250D01*
X231093709Y-86786330D01*
X231227625Y-86730861D01*
X231249512Y-86714066D01*
X231314682Y-86688871D01*
X231383127Y-86702909D01*
X231400487Y-86714066D01*
X231422374Y-86730861D01*
X231459202Y-86746115D01*
X231556291Y-86786330D01*
X231681079Y-86802758D01*
X231699999Y-86805250D01*
X231699999Y-86805249D01*
X231700000Y-86805250D01*
X231843709Y-86786330D01*
X231977625Y-86730861D01*
X232092621Y-86642621D01*
X232180861Y-86527625D01*
X232180861Y-86527623D01*
X232190799Y-86514673D01*
X232192172Y-86515726D01*
X232222874Y-86477624D01*
X232289167Y-86455556D01*
X232295414Y-86455853D01*
X232299997Y-86455249D01*
X232300000Y-86455250D01*
X232443709Y-86436330D01*
X232577625Y-86380861D01*
X232692621Y-86292621D01*
X232780861Y-86177625D01*
X232836330Y-86043709D01*
X232855250Y-85900000D01*
X232836330Y-85756291D01*
X232783036Y-85627625D01*
X232774614Y-85607292D01*
X232775993Y-85606720D01*
X232758054Y-85560321D01*
X232772090Y-85491876D01*
X232780158Y-85479321D01*
X232780859Y-85477626D01*
X232780861Y-85477625D01*
X232836330Y-85343709D01*
X232848811Y-85248910D01*
X250743660Y-85248910D01*
X250756186Y-85344045D01*
X250762581Y-85392620D01*
X250771300Y-85413670D01*
X250818048Y-85526533D01*
X250818049Y-85526535D01*
X250818050Y-85526536D01*
X250906290Y-85641532D01*
X251021286Y-85729772D01*
X251155202Y-85785241D01*
X251267306Y-85800000D01*
X251298910Y-85804161D01*
X251298910Y-85804160D01*
X251298911Y-85804161D01*
X251442620Y-85785241D01*
X251576536Y-85729772D01*
X251691532Y-85641532D01*
X251779772Y-85526536D01*
X251835241Y-85392620D01*
X251854161Y-85248911D01*
X251835241Y-85105202D01*
X251779772Y-84971286D01*
X251691532Y-84856290D01*
X251576536Y-84768050D01*
X251576535Y-84768049D01*
X251576533Y-84768048D01*
X251442620Y-84712581D01*
X251298911Y-84693660D01*
X251155201Y-84712581D01*
X251021288Y-84768048D01*
X250906290Y-84856290D01*
X250818048Y-84971288D01*
X250762581Y-85105201D01*
X250743660Y-85248910D01*
X232848811Y-85248910D01*
X232855250Y-85200000D01*
X232836330Y-85056291D01*
X232794478Y-84955250D01*
X232774614Y-84907292D01*
X232775993Y-84906720D01*
X232758054Y-84860321D01*
X232772090Y-84791876D01*
X232780158Y-84779321D01*
X232780859Y-84777626D01*
X232780861Y-84777625D01*
X232836330Y-84643709D01*
X232855250Y-84500000D01*
X232836330Y-84356291D01*
X232794685Y-84255750D01*
X232774614Y-84207292D01*
X232775993Y-84206720D01*
X232758054Y-84160314D01*
X232770425Y-84100000D01*
X241744749Y-84100000D01*
X241763670Y-84243709D01*
X241819137Y-84377622D01*
X241819138Y-84377624D01*
X241819139Y-84377625D01*
X241907379Y-84492621D01*
X242022375Y-84580861D01*
X242156291Y-84636330D01*
X242281078Y-84652758D01*
X242299999Y-84655250D01*
X242299999Y-84655249D01*
X242300000Y-84655250D01*
X242443709Y-84636330D01*
X242577625Y-84580861D01*
X242674513Y-84506515D01*
X242739681Y-84481321D01*
X242808126Y-84495359D01*
X242825485Y-84506515D01*
X242884957Y-84552149D01*
X242922375Y-84580861D01*
X243056291Y-84636330D01*
X243200000Y-84655250D01*
X243343709Y-84636330D01*
X243477625Y-84580861D01*
X243515043Y-84552149D01*
X243574513Y-84506516D01*
X243639682Y-84481321D01*
X243708127Y-84495359D01*
X243725487Y-84506516D01*
X243822374Y-84580861D01*
X243853393Y-84593709D01*
X243956291Y-84636330D01*
X244100000Y-84655250D01*
X244243709Y-84636330D01*
X244377625Y-84580861D01*
X244415043Y-84552149D01*
X244474513Y-84506516D01*
X244539682Y-84481321D01*
X244608127Y-84495359D01*
X244625487Y-84506516D01*
X244722374Y-84580861D01*
X244753393Y-84593709D01*
X244856291Y-84636330D01*
X244981078Y-84652758D01*
X244999999Y-84655250D01*
X244999999Y-84655249D01*
X245000000Y-84655250D01*
X245143709Y-84636330D01*
X245277625Y-84580861D01*
X245392621Y-84492621D01*
X245425325Y-84450000D01*
X246994749Y-84450000D01*
X247013670Y-84593709D01*
X247069137Y-84727622D01*
X247069138Y-84727624D01*
X247069139Y-84727625D01*
X247157379Y-84842621D01*
X247272375Y-84930861D01*
X247272376Y-84930861D01*
X247272377Y-84930862D01*
X247302715Y-84943428D01*
X247406291Y-84986330D01*
X247531079Y-85002758D01*
X247549999Y-85005250D01*
X247549999Y-85005249D01*
X247550000Y-85005250D01*
X247693709Y-84986330D01*
X247827625Y-84930861D01*
X247942621Y-84842621D01*
X248030861Y-84727625D01*
X248086330Y-84593709D01*
X248105250Y-84450000D01*
X248086330Y-84306291D01*
X248083931Y-84300500D01*
X252028321Y-84300500D01*
X252047242Y-84444209D01*
X252102709Y-84578122D01*
X252102710Y-84578124D01*
X252102711Y-84578125D01*
X252190951Y-84693121D01*
X252305947Y-84781361D01*
X252439863Y-84836830D01*
X252583572Y-84855750D01*
X252712167Y-84838819D01*
X252781199Y-84849584D01*
X252833455Y-84895963D01*
X252842911Y-84914305D01*
X252869139Y-84977625D01*
X252957379Y-85092621D01*
X253072375Y-85180861D01*
X253206291Y-85236330D01*
X253350000Y-85255250D01*
X253493709Y-85236330D01*
X253627625Y-85180861D01*
X253627626Y-85180859D01*
X253639736Y-85175844D01*
X253709205Y-85168375D01*
X253771684Y-85199650D01*
X253785561Y-85214915D01*
X253791301Y-85222395D01*
X253906297Y-85310635D01*
X254040213Y-85366104D01*
X254165000Y-85382532D01*
X254183921Y-85385024D01*
X254183921Y-85385023D01*
X254183922Y-85385024D01*
X254327631Y-85366104D01*
X254461547Y-85310635D01*
X254576543Y-85222395D01*
X254664783Y-85107399D01*
X254720252Y-84973483D01*
X254739172Y-84829774D01*
X254738020Y-84821029D01*
X254748783Y-84752000D01*
X254795161Y-84699742D01*
X254862430Y-84680854D01*
X254929231Y-84701332D01*
X254959334Y-84729358D01*
X255007876Y-84792618D01*
X255007877Y-84792619D01*
X255007879Y-84792621D01*
X255122875Y-84880861D01*
X255256791Y-84936330D01*
X255400500Y-84955250D01*
X255544209Y-84936330D01*
X255607173Y-84910249D01*
X255676639Y-84902781D01*
X255739119Y-84934056D01*
X255774771Y-84994145D01*
X255772277Y-85063970D01*
X255769185Y-85072262D01*
X255713670Y-85206291D01*
X255694749Y-85350000D01*
X255713670Y-85493709D01*
X255769137Y-85627622D01*
X255769138Y-85627624D01*
X255769139Y-85627625D01*
X255857379Y-85742621D01*
X255972375Y-85830861D01*
X255972376Y-85830861D01*
X255972377Y-85830862D01*
X255994721Y-85840117D01*
X256106291Y-85886330D01*
X256250000Y-85905250D01*
X256393709Y-85886330D01*
X256527625Y-85830861D01*
X256642621Y-85742621D01*
X256730861Y-85627625D01*
X256786330Y-85493709D01*
X256805250Y-85350000D01*
X256786330Y-85206291D01*
X256730861Y-85072375D01*
X256642621Y-84957379D01*
X256527625Y-84869139D01*
X256527624Y-84869138D01*
X256527622Y-84869137D01*
X256393709Y-84813670D01*
X256250000Y-84794749D01*
X256106291Y-84813670D01*
X256043327Y-84839750D01*
X255973858Y-84847217D01*
X255911379Y-84815942D01*
X255875727Y-84755852D01*
X255878222Y-84686027D01*
X255881315Y-84677736D01*
X255895409Y-84643709D01*
X255936830Y-84543709D01*
X255955750Y-84400000D01*
X255936830Y-84256291D01*
X255898466Y-84163670D01*
X255881361Y-84122374D01*
X255810504Y-84030033D01*
X255785309Y-83964864D01*
X255799347Y-83896419D01*
X255810493Y-83879073D01*
X255812612Y-83876310D01*
X255869033Y-83835101D01*
X255938779Y-83830937D01*
X255955206Y-83836187D01*
X255956290Y-83836329D01*
X255956291Y-83836330D01*
X256016137Y-83844209D01*
X256099999Y-83855250D01*
X256099999Y-83855249D01*
X256100000Y-83855250D01*
X256243709Y-83836330D01*
X256377625Y-83780861D01*
X256482354Y-83700499D01*
X264194749Y-83700499D01*
X264213670Y-83844209D01*
X264269137Y-83978122D01*
X264269138Y-83978124D01*
X264269139Y-83978125D01*
X264357379Y-84093121D01*
X264472375Y-84181361D01*
X264472376Y-84181361D01*
X264472377Y-84181362D01*
X264495496Y-84190938D01*
X264606291Y-84236830D01*
X264750000Y-84255750D01*
X264893709Y-84236830D01*
X265027625Y-84181361D01*
X265142621Y-84093121D01*
X265230861Y-83978125D01*
X265286330Y-83844209D01*
X265305250Y-83700500D01*
X265292513Y-83603756D01*
X265303278Y-83534723D01*
X265349658Y-83482467D01*
X265416927Y-83463581D01*
X265480729Y-83482145D01*
X265492361Y-83489347D01*
X265492363Y-83489348D01*
X265682544Y-83563024D01*
X265883024Y-83600500D01*
X265883026Y-83600500D01*
X266086974Y-83600500D01*
X266086976Y-83600500D01*
X266287456Y-83563024D01*
X266477637Y-83489348D01*
X266651041Y-83381981D01*
X266703731Y-83333948D01*
X266801763Y-83244580D01*
X266846130Y-83185829D01*
X266924673Y-83081821D01*
X266924673Y-83081819D01*
X266924675Y-83081818D01*
X266979664Y-82971384D01*
X267015582Y-82899250D01*
X267071397Y-82703083D01*
X267090215Y-82500000D01*
X267071397Y-82296917D01*
X267070484Y-82293709D01*
X267042031Y-82193709D01*
X267015582Y-82100750D01*
X266988005Y-82045367D01*
X266924675Y-81918181D01*
X266801763Y-81755419D01*
X266651041Y-81618018D01*
X266477638Y-81510652D01*
X266287457Y-81436976D01*
X266210524Y-81422595D01*
X266086976Y-81399500D01*
X265883024Y-81399500D01*
X265782784Y-81418238D01*
X265682542Y-81436976D01*
X265492361Y-81510652D01*
X265318958Y-81618018D01*
X265168236Y-81755419D01*
X265045324Y-81918181D01*
X264954418Y-82100748D01*
X264898602Y-82296916D01*
X264879785Y-82500000D01*
X264898602Y-82703083D01*
X264954416Y-82899247D01*
X264995959Y-82982677D01*
X265008219Y-83051463D01*
X264981345Y-83115958D01*
X264923869Y-83155685D01*
X264868772Y-83160886D01*
X264860047Y-83159738D01*
X264750000Y-83145249D01*
X264606290Y-83164170D01*
X264472377Y-83219637D01*
X264357379Y-83307879D01*
X264269137Y-83422877D01*
X264213670Y-83556790D01*
X264194749Y-83700499D01*
X256482354Y-83700499D01*
X256492621Y-83692621D01*
X256580861Y-83577625D01*
X256636330Y-83443709D01*
X256655250Y-83300000D01*
X256636330Y-83156291D01*
X256588357Y-83040472D01*
X256580862Y-83022377D01*
X256580861Y-83022376D01*
X256580861Y-83022375D01*
X256492621Y-82907379D01*
X256492620Y-82907378D01*
X256482683Y-82894428D01*
X256485380Y-82892358D01*
X256459890Y-82857439D01*
X256455745Y-82787692D01*
X256489966Y-82726777D01*
X256529131Y-82700947D01*
X256577625Y-82680861D01*
X256692621Y-82592621D01*
X256780861Y-82477625D01*
X256836330Y-82343709D01*
X256855250Y-82200000D01*
X256848667Y-82150000D01*
X262195249Y-82150000D01*
X262214170Y-82293709D01*
X262269637Y-82427622D01*
X262269638Y-82427624D01*
X262269639Y-82427625D01*
X262357879Y-82542621D01*
X262472875Y-82630861D01*
X262472876Y-82630861D01*
X262472877Y-82630862D01*
X262482841Y-82634989D01*
X262606791Y-82686330D01*
X262750500Y-82705250D01*
X262894209Y-82686330D01*
X263028125Y-82630861D01*
X263143121Y-82542621D01*
X263231361Y-82427625D01*
X263286830Y-82293709D01*
X263305750Y-82150000D01*
X263286830Y-82006291D01*
X263231361Y-81872375D01*
X263143121Y-81757379D01*
X263028125Y-81669139D01*
X263028124Y-81669138D01*
X263028122Y-81669137D01*
X262894209Y-81613670D01*
X262750500Y-81594749D01*
X262606790Y-81613670D01*
X262472877Y-81669137D01*
X262357879Y-81757379D01*
X262269637Y-81872377D01*
X262214170Y-82006290D01*
X262195249Y-82150000D01*
X256848667Y-82150000D01*
X256836330Y-82056291D01*
X256780861Y-81922375D01*
X256692621Y-81807379D01*
X256577625Y-81719139D01*
X256577624Y-81719138D01*
X256577622Y-81719137D01*
X256443709Y-81663670D01*
X256299999Y-81644749D01*
X256156290Y-81663670D01*
X256022377Y-81719137D01*
X255907379Y-81807379D01*
X255819137Y-81922377D01*
X255763670Y-82056290D01*
X255744749Y-82200000D01*
X255763670Y-82343709D01*
X255819137Y-82477622D01*
X255819138Y-82477624D01*
X255819139Y-82477625D01*
X255907379Y-82592621D01*
X255917317Y-82605572D01*
X255914619Y-82607641D01*
X255940108Y-82642556D01*
X255944255Y-82712303D01*
X255910036Y-82773220D01*
X255870866Y-82799053D01*
X255822377Y-82819137D01*
X255707376Y-82907381D01*
X255636867Y-82999270D01*
X255580439Y-83040472D01*
X255510693Y-83044627D01*
X255494284Y-83039382D01*
X255493199Y-83039239D01*
X255474919Y-83036832D01*
X255349490Y-83020318D01*
X255205780Y-83039239D01*
X255071867Y-83094706D01*
X254956869Y-83182948D01*
X254868627Y-83297946D01*
X254813160Y-83431859D01*
X254794239Y-83575569D01*
X254813160Y-83719278D01*
X254868628Y-83853193D01*
X254939486Y-83945537D01*
X254964680Y-84010706D01*
X254950642Y-84079151D01*
X254939486Y-84096509D01*
X254919638Y-84122374D01*
X254864170Y-84256290D01*
X254845250Y-84399999D01*
X254846401Y-84408742D01*
X254835636Y-84477777D01*
X254789256Y-84530033D01*
X254721987Y-84548919D01*
X254655187Y-84528439D01*
X254625087Y-84500415D01*
X254576545Y-84437155D01*
X254576543Y-84437154D01*
X254576543Y-84437153D01*
X254461547Y-84348913D01*
X254461546Y-84348912D01*
X254461544Y-84348911D01*
X254327631Y-84293444D01*
X254183922Y-84274523D01*
X254040215Y-84293443D01*
X254009197Y-84306291D01*
X253909231Y-84347698D01*
X253894185Y-84353930D01*
X253824715Y-84361398D01*
X253762236Y-84330122D01*
X253748357Y-84314854D01*
X253742622Y-84307380D01*
X253741203Y-84306291D01*
X253627625Y-84219139D01*
X253627624Y-84219138D01*
X253627622Y-84219137D01*
X253493709Y-84163670D01*
X253349999Y-84144749D01*
X253231782Y-84160314D01*
X253221406Y-84161679D01*
X253152371Y-84150915D01*
X253100115Y-84104535D01*
X253090660Y-84086193D01*
X253064434Y-84022877D01*
X253064433Y-84022876D01*
X253064433Y-84022875D01*
X252976193Y-83907879D01*
X252861197Y-83819639D01*
X252861196Y-83819638D01*
X252861194Y-83819637D01*
X252727281Y-83764170D01*
X252583572Y-83745249D01*
X252439862Y-83764170D01*
X252305949Y-83819637D01*
X252190951Y-83907879D01*
X252102709Y-84022877D01*
X252047242Y-84156790D01*
X252028321Y-84300500D01*
X248083931Y-84300500D01*
X248067325Y-84260408D01*
X248059856Y-84190938D01*
X248091132Y-84128460D01*
X248151221Y-84092808D01*
X248165694Y-84090018D01*
X248193709Y-84086330D01*
X248327625Y-84030861D01*
X248442621Y-83942621D01*
X248530861Y-83827625D01*
X248586330Y-83693709D01*
X248605250Y-83550000D01*
X248586330Y-83406291D01*
X248530861Y-83272375D01*
X248442621Y-83157379D01*
X248442619Y-83157378D01*
X248442619Y-83157377D01*
X248323155Y-83065709D01*
X248281952Y-83009281D01*
X248277797Y-82939535D01*
X248312009Y-82878615D01*
X248373727Y-82845862D01*
X248382448Y-82844395D01*
X248443709Y-82836330D01*
X248577625Y-82780861D01*
X248692621Y-82692621D01*
X248780861Y-82577625D01*
X248836330Y-82443709D01*
X248855250Y-82300000D01*
X248836330Y-82156291D01*
X248792303Y-82049999D01*
X250394749Y-82049999D01*
X250413670Y-82193709D01*
X250469137Y-82327622D01*
X250469138Y-82327624D01*
X250469139Y-82327625D01*
X250557379Y-82442621D01*
X250672375Y-82530861D01*
X250806291Y-82586330D01*
X250950000Y-82605250D01*
X251012766Y-82596986D01*
X251081800Y-82607751D01*
X251134056Y-82654130D01*
X251151890Y-82703738D01*
X251163670Y-82793209D01*
X251219137Y-82927122D01*
X251219138Y-82927124D01*
X251219139Y-82927125D01*
X251307379Y-83042121D01*
X251422375Y-83130361D01*
X251422376Y-83130361D01*
X251422377Y-83130362D01*
X251444019Y-83139326D01*
X251556291Y-83185830D01*
X251681079Y-83202258D01*
X251699999Y-83204750D01*
X251699999Y-83204749D01*
X251700000Y-83204750D01*
X251843709Y-83185830D01*
X251955981Y-83139325D01*
X252025449Y-83131857D01*
X252087928Y-83163132D01*
X252093054Y-83168771D01*
X252096373Y-83171317D01*
X252096374Y-83171319D01*
X252211370Y-83259559D01*
X252345286Y-83315028D01*
X252488995Y-83333948D01*
X252632704Y-83315028D01*
X252766620Y-83259559D01*
X252881616Y-83171319D01*
X252969856Y-83056323D01*
X253025325Y-82922407D01*
X253044245Y-82778698D01*
X253042266Y-82763670D01*
X253041158Y-82755250D01*
X253025325Y-82634989D01*
X252969856Y-82501073D01*
X252881616Y-82386077D01*
X252766620Y-82297837D01*
X252766619Y-82297836D01*
X252766617Y-82297835D01*
X252632704Y-82242368D01*
X252488995Y-82223447D01*
X252345286Y-82242368D01*
X252233013Y-82288872D01*
X252163544Y-82296340D01*
X252101065Y-82265064D01*
X252095940Y-82259426D01*
X252049053Y-82223448D01*
X251977625Y-82168639D01*
X251977624Y-82168638D01*
X251977622Y-82168637D01*
X251843709Y-82113170D01*
X251699998Y-82094249D01*
X251637232Y-82102513D01*
X251568196Y-82091747D01*
X251515941Y-82045367D01*
X251498109Y-81995762D01*
X251486330Y-81906291D01*
X251430861Y-81772375D01*
X251342621Y-81657379D01*
X251227625Y-81569139D01*
X251227624Y-81569138D01*
X251227622Y-81569137D01*
X251093709Y-81513670D01*
X250950000Y-81494749D01*
X250806290Y-81513670D01*
X250672377Y-81569137D01*
X250557379Y-81657379D01*
X250469137Y-81772377D01*
X250413670Y-81906290D01*
X250394749Y-82049999D01*
X248792303Y-82049999D01*
X248780861Y-82022375D01*
X248692621Y-81907379D01*
X248577625Y-81819139D01*
X248577624Y-81819138D01*
X248577622Y-81819137D01*
X248443709Y-81763670D01*
X248300000Y-81744749D01*
X248156290Y-81763670D01*
X248022377Y-81819137D01*
X247907379Y-81907379D01*
X247819137Y-82022377D01*
X247763670Y-82156290D01*
X247744749Y-82300000D01*
X247763670Y-82443709D01*
X247819137Y-82577622D01*
X247819138Y-82577624D01*
X247819139Y-82577625D01*
X247907379Y-82692621D01*
X247999971Y-82763670D01*
X248026844Y-82784290D01*
X248068047Y-82840718D01*
X248072202Y-82910464D01*
X248037990Y-82971384D01*
X247976272Y-83004137D01*
X247967545Y-83005605D01*
X247906290Y-83013670D01*
X247772377Y-83069137D01*
X247657379Y-83157379D01*
X247569137Y-83272377D01*
X247513670Y-83406290D01*
X247494749Y-83550000D01*
X247508744Y-83656291D01*
X247513670Y-83693709D01*
X247516483Y-83700500D01*
X247532675Y-83739592D01*
X247540142Y-83809062D01*
X247508867Y-83871540D01*
X247448777Y-83907192D01*
X247434301Y-83909982D01*
X247406290Y-83913670D01*
X247272377Y-83969137D01*
X247157379Y-84057379D01*
X247069137Y-84172377D01*
X247013670Y-84306290D01*
X246994749Y-84450000D01*
X245425325Y-84450000D01*
X245480861Y-84377625D01*
X245536330Y-84243709D01*
X245555250Y-84100000D01*
X245536330Y-83956291D01*
X245486132Y-83835101D01*
X245480862Y-83822377D01*
X245480861Y-83822376D01*
X245480861Y-83822375D01*
X245392621Y-83707379D01*
X245277625Y-83619139D01*
X245277624Y-83619138D01*
X245277622Y-83619137D01*
X245143709Y-83563670D01*
X245000000Y-83544749D01*
X244856290Y-83563670D01*
X244722375Y-83619138D01*
X244625486Y-83693484D01*
X244560317Y-83718678D01*
X244491872Y-83704640D01*
X244474514Y-83693484D01*
X244377624Y-83619138D01*
X244243709Y-83563670D01*
X244099999Y-83544749D01*
X243956290Y-83563670D01*
X243822375Y-83619138D01*
X243725486Y-83693484D01*
X243660317Y-83718678D01*
X243591872Y-83704640D01*
X243574514Y-83693484D01*
X243477624Y-83619138D01*
X243343709Y-83563670D01*
X243200000Y-83544749D01*
X243056290Y-83563670D01*
X242922375Y-83619138D01*
X242825486Y-83693484D01*
X242760317Y-83718678D01*
X242691872Y-83704640D01*
X242674514Y-83693484D01*
X242577624Y-83619138D01*
X242443709Y-83563670D01*
X242300000Y-83544749D01*
X242156290Y-83563670D01*
X242022377Y-83619137D01*
X241907379Y-83707379D01*
X241819137Y-83822377D01*
X241763670Y-83956290D01*
X241744749Y-84100000D01*
X232770425Y-84100000D01*
X232772093Y-84091870D01*
X232780159Y-84079319D01*
X232789247Y-84057379D01*
X232836330Y-83943709D01*
X232855250Y-83800000D01*
X232836330Y-83656291D01*
X232790129Y-83544750D01*
X232780862Y-83522377D01*
X232780861Y-83522376D01*
X232780861Y-83522375D01*
X232692621Y-83407379D01*
X232577625Y-83319139D01*
X232577624Y-83319138D01*
X232577622Y-83319137D01*
X232443709Y-83263670D01*
X232299999Y-83244749D01*
X232156290Y-83263670D01*
X232022375Y-83319138D01*
X232000483Y-83335936D01*
X231935313Y-83361128D01*
X231866869Y-83347088D01*
X231849514Y-83335935D01*
X231827625Y-83319139D01*
X231827624Y-83319138D01*
X231827622Y-83319137D01*
X231693709Y-83263670D01*
X231549999Y-83244749D01*
X231406290Y-83263670D01*
X231272375Y-83319138D01*
X231250485Y-83335935D01*
X231185316Y-83361128D01*
X231116871Y-83347089D01*
X231099515Y-83335935D01*
X231077624Y-83319138D01*
X230943709Y-83263670D01*
X230800000Y-83244749D01*
X230656290Y-83263670D01*
X230522374Y-83319138D01*
X230475486Y-83355117D01*
X230410316Y-83380311D01*
X230341871Y-83366272D01*
X230324514Y-83355117D01*
X230277625Y-83319138D01*
X230143709Y-83263670D01*
X230000000Y-83244749D01*
X229856290Y-83263670D01*
X229722377Y-83319137D01*
X229607379Y-83407379D01*
X229519137Y-83522377D01*
X229463670Y-83656290D01*
X229444749Y-83800000D01*
X229463670Y-83943709D01*
X229519137Y-84077622D01*
X229519138Y-84077624D01*
X229519139Y-84077625D01*
X229607379Y-84192621D01*
X229722375Y-84280861D01*
X229856291Y-84336330D01*
X230000000Y-84355250D01*
X230143709Y-84336330D01*
X230277625Y-84280861D01*
X230324515Y-84244880D01*
X230389681Y-84219687D01*
X230458126Y-84233725D01*
X230475478Y-84244876D01*
X230522375Y-84280861D01*
X230656291Y-84336330D01*
X230800000Y-84355250D01*
X230943709Y-84336330D01*
X231077625Y-84280861D01*
X231077625Y-84280860D01*
X231099513Y-84264066D01*
X231164682Y-84238871D01*
X231233127Y-84252909D01*
X231250487Y-84264066D01*
X231272374Y-84280861D01*
X231311860Y-84297216D01*
X231406291Y-84336330D01*
X231550000Y-84355250D01*
X231607360Y-84347698D01*
X231676394Y-84358463D01*
X231728650Y-84404843D01*
X231747536Y-84472112D01*
X231746485Y-84486819D01*
X231744750Y-84500000D01*
X231763670Y-84643709D01*
X231825386Y-84792708D01*
X231824005Y-84793279D01*
X231841945Y-84839687D01*
X231827905Y-84908131D01*
X231819842Y-84920676D01*
X231763670Y-85056290D01*
X231744749Y-85199999D01*
X231763670Y-85343709D01*
X231825386Y-85492708D01*
X231824005Y-85493279D01*
X231841945Y-85539687D01*
X231827905Y-85608131D01*
X231816753Y-85625483D01*
X231809203Y-85635323D01*
X231807830Y-85634269D01*
X231777117Y-85672380D01*
X231710822Y-85694443D01*
X231704585Y-85694146D01*
X231556290Y-85713670D01*
X231422375Y-85769138D01*
X231400485Y-85785935D01*
X231335316Y-85811128D01*
X231266871Y-85797089D01*
X231249515Y-85785935D01*
X231227624Y-85769138D01*
X231093709Y-85713670D01*
X230950000Y-85694749D01*
X230806290Y-85713670D01*
X230657292Y-85775386D01*
X230656720Y-85774005D01*
X230610313Y-85791945D01*
X230541869Y-85777905D01*
X230529323Y-85769842D01*
X230393709Y-85713670D01*
X230250000Y-85694749D01*
X230106291Y-85713670D01*
X229972451Y-85769107D01*
X229902982Y-85776575D01*
X229877549Y-85769107D01*
X229803035Y-85738243D01*
X229743709Y-85713670D01*
X229726989Y-85711468D01*
X229600000Y-85694749D01*
X229456290Y-85713670D01*
X229322377Y-85769137D01*
X229207379Y-85857379D01*
X229119137Y-85972377D01*
X229063670Y-86106290D01*
X229044749Y-86249999D01*
X225183193Y-86249999D01*
X225200361Y-86227625D01*
X225255830Y-86093709D01*
X225274750Y-85950000D01*
X225255830Y-85806291D01*
X225209629Y-85694750D01*
X225200362Y-85672377D01*
X225200361Y-85672376D01*
X225200361Y-85672375D01*
X225112121Y-85557379D01*
X224997125Y-85469139D01*
X224997124Y-85469138D01*
X224997122Y-85469137D01*
X224863209Y-85413670D01*
X224719499Y-85394749D01*
X224575790Y-85413670D01*
X224441877Y-85469137D01*
X224326879Y-85557379D01*
X224238637Y-85672377D01*
X224183170Y-85806290D01*
X224164249Y-85950000D01*
X223550500Y-85950000D01*
X223550500Y-80724499D01*
X230094749Y-80724499D01*
X230113670Y-80868209D01*
X230169137Y-81002122D01*
X230169138Y-81002124D01*
X230169139Y-81002125D01*
X230257379Y-81117121D01*
X230372375Y-81205361D01*
X230506291Y-81260830D01*
X230650000Y-81279750D01*
X230793709Y-81260830D01*
X230927625Y-81205361D01*
X231042621Y-81117121D01*
X231130861Y-81002125D01*
X231186330Y-80868209D01*
X231190721Y-80834859D01*
X246929810Y-80834859D01*
X246948731Y-80978568D01*
X247004198Y-81112481D01*
X247004199Y-81112483D01*
X247004200Y-81112484D01*
X247092440Y-81227480D01*
X247207436Y-81315720D01*
X247341352Y-81371189D01*
X247485061Y-81390109D01*
X247628770Y-81371189D01*
X247762686Y-81315720D01*
X247877682Y-81227480D01*
X247965922Y-81112484D01*
X248021391Y-80978568D01*
X248040311Y-80834859D01*
X248022707Y-80701148D01*
X248033472Y-80632116D01*
X248070160Y-80586589D01*
X248077716Y-80580791D01*
X248192621Y-80492621D01*
X248280861Y-80377625D01*
X248336330Y-80243709D01*
X248355250Y-80100000D01*
X248336330Y-79956291D01*
X248280861Y-79822375D01*
X248192621Y-79707379D01*
X248077625Y-79619139D01*
X248077624Y-79619138D01*
X248077622Y-79619137D01*
X247943709Y-79563670D01*
X247800000Y-79544749D01*
X247656290Y-79563670D01*
X247522377Y-79619137D01*
X247407379Y-79707379D01*
X247319137Y-79822377D01*
X247263670Y-79956290D01*
X247244749Y-80100000D01*
X247262353Y-80233708D01*
X247251587Y-80302743D01*
X247214901Y-80348268D01*
X247092442Y-80442235D01*
X247004198Y-80557236D01*
X246948731Y-80691149D01*
X246929810Y-80834859D01*
X231190721Y-80834859D01*
X231205250Y-80724500D01*
X231186330Y-80580791D01*
X231130861Y-80446875D01*
X231042621Y-80331879D01*
X230927625Y-80243639D01*
X230927624Y-80243638D01*
X230927622Y-80243637D01*
X230793709Y-80188170D01*
X230650000Y-80169249D01*
X230506290Y-80188170D01*
X230372377Y-80243637D01*
X230257379Y-80331879D01*
X230169137Y-80446877D01*
X230113670Y-80580790D01*
X230094749Y-80724499D01*
X223550500Y-80724499D01*
X223550500Y-80099999D01*
X231544749Y-80099999D01*
X231563670Y-80243709D01*
X231619137Y-80377622D01*
X231619138Y-80377624D01*
X231619139Y-80377625D01*
X231707379Y-80492621D01*
X231822375Y-80580861D01*
X231822376Y-80580861D01*
X231822377Y-80580862D01*
X231836204Y-80586589D01*
X231956291Y-80636330D01*
X232081079Y-80652758D01*
X232099999Y-80655250D01*
X232099999Y-80655249D01*
X232100000Y-80655250D01*
X232243709Y-80636330D01*
X232377625Y-80580861D01*
X232492621Y-80492621D01*
X232580861Y-80377625D01*
X232636330Y-80243709D01*
X232655250Y-80100000D01*
X232636330Y-79956291D01*
X232580861Y-79822375D01*
X232492621Y-79707379D01*
X232377625Y-79619139D01*
X232377624Y-79619138D01*
X232377622Y-79619137D01*
X232243709Y-79563670D01*
X232100000Y-79544749D01*
X231956290Y-79563670D01*
X231822377Y-79619137D01*
X231707379Y-79707379D01*
X231619137Y-79822377D01*
X231563670Y-79956290D01*
X231544749Y-80099999D01*
X223550500Y-80099999D01*
X223550500Y-79200000D01*
X251844749Y-79200000D01*
X251863670Y-79343709D01*
X251919137Y-79477622D01*
X251919138Y-79477624D01*
X251919139Y-79477625D01*
X252007379Y-79592621D01*
X252122375Y-79680861D01*
X252256291Y-79736330D01*
X252400000Y-79755250D01*
X252477372Y-79745063D01*
X252546405Y-79755828D01*
X252598661Y-79802207D01*
X252608114Y-79820543D01*
X252623078Y-79856669D01*
X252711318Y-79971665D01*
X252826314Y-80059905D01*
X252960230Y-80115374D01*
X253085018Y-80131802D01*
X253103938Y-80134294D01*
X253103938Y-80134293D01*
X253103939Y-80134294D01*
X253247648Y-80115374D01*
X253381564Y-80059905D01*
X253496560Y-79971665D01*
X253551551Y-79900000D01*
X260794749Y-79900000D01*
X260813670Y-80043709D01*
X260869137Y-80177622D01*
X260869138Y-80177624D01*
X260869139Y-80177625D01*
X260957379Y-80292621D01*
X261072375Y-80380861D01*
X261206291Y-80436330D01*
X261350000Y-80455250D01*
X261493709Y-80436330D01*
X261627625Y-80380861D01*
X261742621Y-80292621D01*
X261830861Y-80177625D01*
X261886330Y-80043709D01*
X261892085Y-80000000D01*
X264879785Y-80000000D01*
X264898602Y-80203083D01*
X264954418Y-80399251D01*
X265045324Y-80581818D01*
X265168236Y-80744580D01*
X265318958Y-80881981D01*
X265492361Y-80989347D01*
X265492363Y-80989348D01*
X265682544Y-81063024D01*
X265883024Y-81100500D01*
X265883026Y-81100500D01*
X266086974Y-81100500D01*
X266086976Y-81100500D01*
X266287456Y-81063024D01*
X266477637Y-80989348D01*
X266651041Y-80881981D01*
X266801764Y-80744579D01*
X266924673Y-80581821D01*
X266924673Y-80581819D01*
X266924675Y-80581818D01*
X266987697Y-80455250D01*
X267015582Y-80399250D01*
X267071397Y-80203083D01*
X267090215Y-80000000D01*
X267071397Y-79796917D01*
X267059837Y-79756290D01*
X267020814Y-79619139D01*
X267015582Y-79600750D01*
X267004774Y-79579044D01*
X266924675Y-79418181D01*
X266801763Y-79255419D01*
X266651041Y-79118018D01*
X266477638Y-79010652D01*
X266287457Y-78936976D01*
X266209347Y-78922375D01*
X266086976Y-78899500D01*
X265883024Y-78899500D01*
X265782784Y-78918238D01*
X265682542Y-78936976D01*
X265492361Y-79010652D01*
X265318958Y-79118018D01*
X265168236Y-79255419D01*
X265045324Y-79418181D01*
X264954418Y-79600748D01*
X264898602Y-79796916D01*
X264879785Y-80000000D01*
X261892085Y-80000000D01*
X261905250Y-79900000D01*
X261886330Y-79756291D01*
X261830861Y-79622375D01*
X261742621Y-79507379D01*
X261627625Y-79419139D01*
X261627624Y-79419138D01*
X261627622Y-79419137D01*
X261493709Y-79363670D01*
X261349999Y-79344749D01*
X261206290Y-79363670D01*
X261072377Y-79419137D01*
X260957379Y-79507379D01*
X260869137Y-79622377D01*
X260813670Y-79756290D01*
X260794749Y-79900000D01*
X253551551Y-79900000D01*
X253584800Y-79856669D01*
X253640269Y-79722753D01*
X253659189Y-79579044D01*
X253640269Y-79435335D01*
X253584800Y-79301419D01*
X253496560Y-79186423D01*
X253381564Y-79098183D01*
X253381563Y-79098182D01*
X253381561Y-79098181D01*
X253247648Y-79042714D01*
X253103938Y-79023793D01*
X253026567Y-79033980D01*
X252957532Y-79023214D01*
X252905276Y-78976834D01*
X252895823Y-78958498D01*
X252880861Y-78922375D01*
X252792621Y-78807379D01*
X252677625Y-78719139D01*
X252677624Y-78719138D01*
X252677622Y-78719137D01*
X252543709Y-78663670D01*
X252400000Y-78644749D01*
X252256290Y-78663670D01*
X252122377Y-78719137D01*
X252007379Y-78807379D01*
X251919137Y-78922377D01*
X251863670Y-79056290D01*
X251844749Y-79200000D01*
X223550500Y-79200000D01*
X223550500Y-77400000D01*
X236544749Y-77400000D01*
X236563670Y-77543709D01*
X236619137Y-77677622D01*
X236619138Y-77677624D01*
X236619139Y-77677625D01*
X236707379Y-77792621D01*
X236822375Y-77880861D01*
X236956291Y-77936330D01*
X237081079Y-77952758D01*
X237099999Y-77955250D01*
X237099999Y-77955249D01*
X237100000Y-77955250D01*
X237243709Y-77936330D01*
X237377625Y-77880861D01*
X237492621Y-77792621D01*
X237580861Y-77677625D01*
X237636330Y-77543709D01*
X237655250Y-77400000D01*
X237636330Y-77256291D01*
X237580861Y-77122375D01*
X237544880Y-77075484D01*
X237519687Y-77010319D01*
X237533725Y-76941874D01*
X237544876Y-76924521D01*
X237580861Y-76877625D01*
X237636330Y-76743709D01*
X237655250Y-76600000D01*
X237636330Y-76456291D01*
X237580861Y-76322375D01*
X237492621Y-76207379D01*
X237377625Y-76119139D01*
X237377624Y-76119138D01*
X237377622Y-76119137D01*
X237243709Y-76063670D01*
X237100000Y-76044749D01*
X236956290Y-76063670D01*
X236822377Y-76119137D01*
X236707379Y-76207379D01*
X236619137Y-76322377D01*
X236563670Y-76456290D01*
X236544749Y-76600000D01*
X236563670Y-76743709D01*
X236619138Y-76877624D01*
X236655117Y-76924513D01*
X236680311Y-76989682D01*
X236666273Y-77058127D01*
X236655118Y-77075484D01*
X236619138Y-77122374D01*
X236563670Y-77256290D01*
X236544749Y-77400000D01*
X223550500Y-77400000D01*
X223550500Y-75524674D01*
X227499500Y-75524674D01*
X227514033Y-75597738D01*
X227514033Y-75597739D01*
X227514034Y-75597740D01*
X227569399Y-75680601D01*
X227652260Y-75735966D01*
X227688792Y-75743233D01*
X227725325Y-75750500D01*
X227725326Y-75750500D01*
X230174675Y-75750500D01*
X230199029Y-75745655D01*
X230247740Y-75735966D01*
X230330601Y-75680601D01*
X230385966Y-75597740D01*
X230400500Y-75524674D01*
X230400500Y-75399999D01*
X240644749Y-75399999D01*
X240663670Y-75543709D01*
X240719137Y-75677622D01*
X240719138Y-75677624D01*
X240719139Y-75677625D01*
X240807379Y-75792621D01*
X240922375Y-75880861D01*
X241056291Y-75936330D01*
X241181079Y-75952758D01*
X241199999Y-75955250D01*
X241199999Y-75955249D01*
X241200000Y-75955250D01*
X241343709Y-75936330D01*
X241477625Y-75880861D01*
X241574512Y-75806516D01*
X241639682Y-75781321D01*
X241708127Y-75795359D01*
X241725487Y-75806516D01*
X241822374Y-75880861D01*
X241877843Y-75903836D01*
X241956291Y-75936330D01*
X242004603Y-75942690D01*
X242068499Y-75970956D01*
X242106970Y-76029281D01*
X242107801Y-76099145D01*
X242070729Y-76158369D01*
X242063904Y-76164004D01*
X242007381Y-76207376D01*
X241919137Y-76322377D01*
X241863670Y-76456290D01*
X241844749Y-76599999D01*
X241863670Y-76743709D01*
X241919138Y-76877624D01*
X241955117Y-76924513D01*
X241980311Y-76989682D01*
X241966273Y-77058127D01*
X241955118Y-77075484D01*
X241919138Y-77122374D01*
X241863670Y-77256290D01*
X241844749Y-77400000D01*
X241863670Y-77543709D01*
X241919137Y-77677622D01*
X241919138Y-77677624D01*
X241919139Y-77677625D01*
X242007379Y-77792621D01*
X242122375Y-77880861D01*
X242256291Y-77936330D01*
X242400000Y-77955250D01*
X242543709Y-77936330D01*
X242677625Y-77880861D01*
X242724515Y-77844880D01*
X242789681Y-77819687D01*
X242858126Y-77833725D01*
X242875478Y-77844876D01*
X242922375Y-77880861D01*
X243056291Y-77936330D01*
X243200000Y-77955250D01*
X243343709Y-77936330D01*
X243477625Y-77880861D01*
X243592621Y-77792621D01*
X243680861Y-77677625D01*
X243736330Y-77543709D01*
X243755250Y-77400000D01*
X243745310Y-77324500D01*
X244844749Y-77324500D01*
X244863670Y-77468209D01*
X244919137Y-77602122D01*
X244919138Y-77602124D01*
X244919139Y-77602125D01*
X245007379Y-77717121D01*
X245122375Y-77805361D01*
X245256291Y-77860830D01*
X245400000Y-77879750D01*
X245543709Y-77860830D01*
X245677625Y-77805361D01*
X245684613Y-77799999D01*
X249244749Y-77799999D01*
X249263670Y-77943709D01*
X249319137Y-78077622D01*
X249319138Y-78077624D01*
X249319139Y-78077625D01*
X249407379Y-78192621D01*
X249522375Y-78280861D01*
X249656291Y-78336330D01*
X249800000Y-78355250D01*
X249943709Y-78336330D01*
X250077625Y-78280861D01*
X250192621Y-78192621D01*
X250280861Y-78077625D01*
X250336330Y-77943709D01*
X250355250Y-77800000D01*
X250336330Y-77656291D01*
X250280861Y-77522375D01*
X250192621Y-77407379D01*
X250077625Y-77319139D01*
X250077624Y-77319138D01*
X250077622Y-77319137D01*
X249943709Y-77263670D01*
X249800000Y-77244749D01*
X249656290Y-77263670D01*
X249522377Y-77319137D01*
X249407379Y-77407379D01*
X249319137Y-77522377D01*
X249263670Y-77656290D01*
X249244749Y-77799999D01*
X245684613Y-77799999D01*
X245792621Y-77717121D01*
X245880861Y-77602125D01*
X245936330Y-77468209D01*
X245955250Y-77324500D01*
X245936330Y-77180791D01*
X245892711Y-77075484D01*
X245880862Y-77046877D01*
X245880861Y-77046876D01*
X245880861Y-77046875D01*
X245792621Y-76931879D01*
X245677625Y-76843639D01*
X245677624Y-76843638D01*
X245677622Y-76843637D01*
X245572270Y-76800000D01*
X255000000Y-76800000D01*
X255000000Y-79200000D01*
X257400000Y-79200000D01*
X257400000Y-78144578D01*
X264884500Y-78144578D01*
X264884501Y-78147872D01*
X264890909Y-78207483D01*
X264941204Y-78342331D01*
X265027454Y-78457546D01*
X265142669Y-78543796D01*
X265277517Y-78594091D01*
X265337127Y-78600500D01*
X266632872Y-78600499D01*
X266692483Y-78594091D01*
X266827331Y-78543796D01*
X266942546Y-78457546D01*
X267028796Y-78342331D01*
X267079091Y-78207483D01*
X267085500Y-78147873D01*
X267085499Y-77499999D01*
X267379785Y-77499999D01*
X267398602Y-77703083D01*
X267454418Y-77899251D01*
X267545324Y-78081818D01*
X267668236Y-78244580D01*
X267818958Y-78381981D01*
X267992361Y-78489347D01*
X267992363Y-78489348D01*
X268182544Y-78563024D01*
X268383024Y-78600500D01*
X268383026Y-78600500D01*
X268586974Y-78600500D01*
X268586976Y-78600500D01*
X268787456Y-78563024D01*
X268977637Y-78489348D01*
X269151041Y-78381981D01*
X269261963Y-78280862D01*
X269301763Y-78244580D01*
X269329777Y-78207484D01*
X269424673Y-78081821D01*
X269424673Y-78081819D01*
X269424675Y-78081818D01*
X269497119Y-77936329D01*
X269515582Y-77899250D01*
X269571397Y-77703083D01*
X269590215Y-77500000D01*
X269571397Y-77296917D01*
X269564119Y-77271339D01*
X269542954Y-77196950D01*
X269515582Y-77100750D01*
X269495451Y-77060321D01*
X269424675Y-76918181D01*
X269301763Y-76755419D01*
X269151041Y-76618018D01*
X268977638Y-76510652D01*
X268787457Y-76436976D01*
X268709347Y-76422375D01*
X268586976Y-76399500D01*
X268383024Y-76399500D01*
X268282783Y-76418238D01*
X268182542Y-76436976D01*
X267992361Y-76510652D01*
X267818958Y-76618018D01*
X267668236Y-76755419D01*
X267545324Y-76918181D01*
X267454418Y-77100748D01*
X267398602Y-77296916D01*
X267379785Y-77499999D01*
X267085499Y-77499999D01*
X267085499Y-76852128D01*
X267079091Y-76792517D01*
X267028796Y-76657669D01*
X266942546Y-76542454D01*
X266827331Y-76456204D01*
X266692483Y-76405909D01*
X266632873Y-76399500D01*
X266629550Y-76399500D01*
X265340439Y-76399500D01*
X265340420Y-76399500D01*
X265337128Y-76399501D01*
X265333848Y-76399853D01*
X265333840Y-76399854D01*
X265277515Y-76405909D01*
X265142669Y-76456204D01*
X265027454Y-76542454D01*
X264941204Y-76657668D01*
X264890909Y-76792516D01*
X264885413Y-76843639D01*
X264884500Y-76852127D01*
X264884500Y-76855448D01*
X264884500Y-76855449D01*
X264884500Y-78144560D01*
X264884500Y-78144578D01*
X257400000Y-78144578D01*
X257400000Y-76800000D01*
X255000000Y-76800000D01*
X245572270Y-76800000D01*
X245543709Y-76788170D01*
X245400000Y-76769249D01*
X245256290Y-76788170D01*
X245122377Y-76843637D01*
X245007379Y-76931879D01*
X244919137Y-77046877D01*
X244863670Y-77180790D01*
X244844749Y-77324500D01*
X243745310Y-77324500D01*
X243736330Y-77256291D01*
X243680861Y-77122375D01*
X243674614Y-77107292D01*
X243675993Y-77106720D01*
X243658054Y-77060321D01*
X243672090Y-76991876D01*
X243680158Y-76979321D01*
X243680859Y-76977626D01*
X243680861Y-76977625D01*
X243736330Y-76843709D01*
X243753132Y-76716088D01*
X259844749Y-76716088D01*
X259863670Y-76859798D01*
X259919137Y-76993711D01*
X259919138Y-76993713D01*
X259919139Y-76993714D01*
X260007379Y-77108710D01*
X260122375Y-77196950D01*
X260256291Y-77252419D01*
X260400000Y-77271339D01*
X260543709Y-77252419D01*
X260677625Y-77196950D01*
X260792621Y-77108710D01*
X260880861Y-76993714D01*
X260936330Y-76859798D01*
X260950712Y-76750554D01*
X260978977Y-76686662D01*
X261037301Y-76648190D01*
X261107166Y-76647358D01*
X261121093Y-76652179D01*
X261122880Y-76652919D01*
X261266589Y-76671839D01*
X261410298Y-76652919D01*
X261544214Y-76597450D01*
X261659210Y-76509210D01*
X261747450Y-76394214D01*
X261802919Y-76260298D01*
X261821839Y-76116589D01*
X261802919Y-75972880D01*
X261747450Y-75838964D01*
X261659210Y-75723968D01*
X261544214Y-75635728D01*
X261544213Y-75635727D01*
X261544211Y-75635726D01*
X261410298Y-75580259D01*
X261266588Y-75561338D01*
X261122879Y-75580259D01*
X260988966Y-75635726D01*
X260873968Y-75723968D01*
X260785726Y-75838966D01*
X260730259Y-75972879D01*
X260715877Y-76082120D01*
X260687610Y-76146016D01*
X260629286Y-76184487D01*
X260559421Y-76185318D01*
X260545494Y-76180498D01*
X260543709Y-76179759D01*
X260513754Y-76175815D01*
X260400000Y-76160838D01*
X260256290Y-76179759D01*
X260122377Y-76235226D01*
X260007379Y-76323468D01*
X259919137Y-76438466D01*
X259863670Y-76572379D01*
X259844749Y-76716088D01*
X243753132Y-76716088D01*
X243755250Y-76700000D01*
X243736330Y-76556291D01*
X243680861Y-76422375D01*
X243592621Y-76307379D01*
X243477625Y-76219139D01*
X243477624Y-76219138D01*
X243477622Y-76219137D01*
X243343709Y-76163670D01*
X243234284Y-76149263D01*
X243170387Y-76120996D01*
X243131917Y-76062671D01*
X243131086Y-75992806D01*
X243168159Y-75933583D01*
X243203012Y-75911766D01*
X243277625Y-75880861D01*
X243374512Y-75806516D01*
X243439682Y-75781321D01*
X243508127Y-75795359D01*
X243525487Y-75806516D01*
X243622374Y-75880861D01*
X243677843Y-75903836D01*
X243756291Y-75936330D01*
X243881079Y-75952758D01*
X243899999Y-75955250D01*
X243899999Y-75955249D01*
X243900000Y-75955250D01*
X244043709Y-75936330D01*
X244177625Y-75880861D01*
X244292621Y-75792621D01*
X244380861Y-75677625D01*
X244436330Y-75543709D01*
X244455250Y-75400000D01*
X244436330Y-75256291D01*
X244423162Y-75224500D01*
X263744749Y-75224500D01*
X263763670Y-75368209D01*
X263819137Y-75502122D01*
X263819138Y-75502124D01*
X263819139Y-75502125D01*
X263907379Y-75617121D01*
X264022375Y-75705361D01*
X264156291Y-75760830D01*
X264300000Y-75779750D01*
X264443709Y-75760830D01*
X264577625Y-75705361D01*
X264692621Y-75617121D01*
X264780861Y-75502125D01*
X264836330Y-75368209D01*
X264855250Y-75224500D01*
X264836330Y-75080791D01*
X264780861Y-74946875D01*
X264692621Y-74831879D01*
X264577625Y-74743639D01*
X264577624Y-74743638D01*
X264577622Y-74743637D01*
X264443709Y-74688170D01*
X264299999Y-74669249D01*
X264156290Y-74688170D01*
X264022377Y-74743637D01*
X263907379Y-74831879D01*
X263819137Y-74946877D01*
X263763670Y-75080790D01*
X263744749Y-75224500D01*
X244423162Y-75224500D01*
X244380861Y-75122375D01*
X244292621Y-75007379D01*
X244177625Y-74919139D01*
X244177624Y-74919138D01*
X244177622Y-74919137D01*
X244043709Y-74863670D01*
X243900000Y-74844749D01*
X243756290Y-74863670D01*
X243622374Y-74919138D01*
X243525485Y-74993484D01*
X243460316Y-75018678D01*
X243391871Y-75004639D01*
X243374516Y-74993487D01*
X243277625Y-74919139D01*
X243277624Y-74919138D01*
X243277622Y-74919137D01*
X243143709Y-74863670D01*
X243000000Y-74844749D01*
X242856290Y-74863670D01*
X242722375Y-74919138D01*
X242625486Y-74993484D01*
X242560317Y-75018678D01*
X242491872Y-75004640D01*
X242474514Y-74993484D01*
X242377624Y-74919138D01*
X242243709Y-74863670D01*
X242099999Y-74844749D01*
X241956290Y-74863670D01*
X241822375Y-74919138D01*
X241725486Y-74993484D01*
X241660317Y-75018678D01*
X241591872Y-75004640D01*
X241574514Y-74993484D01*
X241477624Y-74919138D01*
X241343709Y-74863670D01*
X241200000Y-74844749D01*
X241056290Y-74863670D01*
X240922377Y-74919137D01*
X240807379Y-75007379D01*
X240719137Y-75122377D01*
X240663670Y-75256290D01*
X240644749Y-75399999D01*
X230400500Y-75399999D01*
X230400500Y-73500000D01*
X269044749Y-73500000D01*
X269063670Y-73643709D01*
X269119137Y-73777622D01*
X269119138Y-73777624D01*
X269119139Y-73777625D01*
X269207379Y-73892621D01*
X269322375Y-73980861D01*
X269456291Y-74036330D01*
X269600000Y-74055250D01*
X269743709Y-74036330D01*
X269877625Y-73980861D01*
X269992621Y-73892621D01*
X270080861Y-73777625D01*
X270136330Y-73643709D01*
X270155250Y-73500000D01*
X270136330Y-73356291D01*
X270080861Y-73222375D01*
X269992621Y-73107379D01*
X269877625Y-73019139D01*
X269877624Y-73019138D01*
X269877622Y-73019137D01*
X269743709Y-72963670D01*
X269599999Y-72944749D01*
X269456290Y-72963670D01*
X269322377Y-73019137D01*
X269207379Y-73107379D01*
X269119137Y-73222377D01*
X269063670Y-73356290D01*
X269044749Y-73500000D01*
X230400500Y-73500000D01*
X230400500Y-73075326D01*
X230385966Y-73002260D01*
X230330601Y-72919399D01*
X230247740Y-72864034D01*
X230247739Y-72864033D01*
X230247738Y-72864033D01*
X230174675Y-72849500D01*
X230174674Y-72849500D01*
X227725326Y-72849500D01*
X227725325Y-72849500D01*
X227652261Y-72864033D01*
X227569399Y-72919399D01*
X227514033Y-73002261D01*
X227499500Y-73075325D01*
X227499500Y-75524674D01*
X223550500Y-75524674D01*
X223550500Y-68960000D01*
X224694396Y-68960000D01*
X224714779Y-69218995D01*
X224775426Y-69471610D01*
X224835430Y-69616470D01*
X224874846Y-69711628D01*
X225010588Y-69933140D01*
X225010590Y-69933143D01*
X225077567Y-70011563D01*
X225179311Y-70130689D01*
X225376860Y-70299412D01*
X225598372Y-70435154D01*
X225778385Y-70509718D01*
X225838389Y-70534573D01*
X225918197Y-70553733D01*
X226091006Y-70595221D01*
X226285147Y-70610500D01*
X226287592Y-70610500D01*
X226412408Y-70610500D01*
X226414853Y-70610500D01*
X226608994Y-70595221D01*
X226861610Y-70534573D01*
X227101628Y-70435154D01*
X227323140Y-70299412D01*
X227520689Y-70130689D01*
X227689412Y-69933140D01*
X227825154Y-69711628D01*
X227924573Y-69471610D01*
X227985221Y-69218994D01*
X228005604Y-68960000D01*
X268774396Y-68960000D01*
X268794779Y-69218995D01*
X268855426Y-69471610D01*
X268915430Y-69616470D01*
X268954846Y-69711628D01*
X269090588Y-69933140D01*
X269090590Y-69933143D01*
X269157567Y-70011563D01*
X269259311Y-70130689D01*
X269456860Y-70299412D01*
X269678372Y-70435154D01*
X269858385Y-70509718D01*
X269918389Y-70534573D01*
X269998197Y-70553733D01*
X270171006Y-70595221D01*
X270365147Y-70610500D01*
X270367592Y-70610500D01*
X270492408Y-70610500D01*
X270494853Y-70610500D01*
X270688994Y-70595221D01*
X270941610Y-70534573D01*
X271181628Y-70435154D01*
X271403140Y-70299412D01*
X271600689Y-70130689D01*
X271769412Y-69933140D01*
X271905154Y-69711628D01*
X272004573Y-69471610D01*
X272065221Y-69218994D01*
X272085604Y-68960000D01*
X272065221Y-68701006D01*
X272004573Y-68448390D01*
X271905154Y-68208372D01*
X271769412Y-67986860D01*
X271600689Y-67789311D01*
X271481563Y-67687567D01*
X271403143Y-67620590D01*
X271403140Y-67620588D01*
X271181628Y-67484846D01*
X271086470Y-67445430D01*
X270941610Y-67385426D01*
X270688995Y-67324779D01*
X270497287Y-67309691D01*
X270497272Y-67309690D01*
X270494853Y-67309500D01*
X270365147Y-67309500D01*
X270362728Y-67309690D01*
X270362712Y-67309691D01*
X270171004Y-67324779D01*
X269918389Y-67385426D01*
X269713524Y-67470285D01*
X269678372Y-67484846D01*
X269534359Y-67573096D01*
X269456856Y-67620590D01*
X269259311Y-67789311D01*
X269090590Y-67986856D01*
X269043096Y-68064359D01*
X268954846Y-68208372D01*
X268954845Y-68208375D01*
X268855426Y-68448389D01*
X268794779Y-68701004D01*
X268774396Y-68960000D01*
X228005604Y-68960000D01*
X227985221Y-68701006D01*
X227924573Y-68448390D01*
X227825154Y-68208372D01*
X227689412Y-67986860D01*
X227520689Y-67789311D01*
X227401563Y-67687567D01*
X227323143Y-67620590D01*
X227323140Y-67620588D01*
X227101628Y-67484846D01*
X227006470Y-67445430D01*
X226861610Y-67385426D01*
X226608995Y-67324779D01*
X226417287Y-67309691D01*
X226417272Y-67309690D01*
X226414853Y-67309500D01*
X226285147Y-67309500D01*
X226282728Y-67309690D01*
X226282712Y-67309691D01*
X226091004Y-67324779D01*
X225838389Y-67385426D01*
X225633524Y-67470285D01*
X225598372Y-67484846D01*
X225454359Y-67573096D01*
X225376856Y-67620590D01*
X225179311Y-67789311D01*
X225010590Y-67986856D01*
X224963096Y-68064359D01*
X224874846Y-68208372D01*
X224874845Y-68208375D01*
X224775426Y-68448389D01*
X224714779Y-68701004D01*
X224694396Y-68960000D01*
X223550500Y-68960000D01*
X223550500Y-68903479D01*
X223550695Y-68896526D01*
X223561675Y-68701004D01*
X223567084Y-68604691D01*
X223568638Y-68590898D01*
X223617015Y-68306167D01*
X223620109Y-68292615D01*
X223644379Y-68208375D01*
X223700061Y-68015096D01*
X223704653Y-68001975D01*
X223710914Y-67986860D01*
X223815175Y-67735151D01*
X223821195Y-67722651D01*
X223960902Y-67469868D01*
X223968297Y-67458100D01*
X224135422Y-67222559D01*
X224144077Y-67211705D01*
X224336534Y-66996346D01*
X224346346Y-66986534D01*
X224561705Y-66794077D01*
X224572559Y-66785422D01*
X224808105Y-66618293D01*
X224819868Y-66610902D01*
X225072651Y-66471195D01*
X225085151Y-66465175D01*
X225351979Y-66354651D01*
X225365096Y-66350061D01*
X225642621Y-66270107D01*
X225656167Y-66267015D01*
X225940898Y-66218638D01*
X225954691Y-66217084D01*
X226246527Y-66200695D01*
X226253481Y-66200500D01*
X226289882Y-66200500D01*
X270510118Y-66200500D01*
X270546519Y-66200500D01*
X270553472Y-66200695D01*
G37*
G04 #@! TD.AperFunction*
G04 #@! TA.AperFunction,Conductor*
G36*
X263314429Y-105620185D02*
G01*
X263335071Y-105636819D01*
X264236071Y-106537819D01*
X264269556Y-106599142D01*
X264264572Y-106668834D01*
X264222700Y-106724767D01*
X264157236Y-106749184D01*
X264148390Y-106749500D01*
X261195247Y-106749500D01*
X261128208Y-106729815D01*
X261082453Y-106677011D01*
X261072509Y-106607853D01*
X261080686Y-106578048D01*
X261101778Y-106527125D01*
X261136330Y-106443709D01*
X261155250Y-106300000D01*
X261136330Y-106156291D01*
X261080861Y-106022375D01*
X260992621Y-105907379D01*
X260882494Y-105822875D01*
X260841293Y-105766448D01*
X260837138Y-105696701D01*
X260871351Y-105635781D01*
X260933068Y-105603029D01*
X260957982Y-105600500D01*
X263247390Y-105600500D01*
X263314429Y-105620185D01*
G37*
G04 #@! TD.AperFunction*
M02*
