G04 #@! TF.GenerationSoftware,KiCad,Pcbnew,7.0.10*
G04 #@! TF.CreationDate,2024-02-08T00:17:27+03:00*
G04 #@! TF.ProjectId,GPS_MODULE_V3.kicad_pro,4750535f-4d4f-4445-954c-455f56332e6b,rev?*
G04 #@! TF.SameCoordinates,Original*
G04 #@! TF.FileFunction,Paste,Bot*
G04 #@! TF.FilePolarity,Positive*
%FSLAX46Y46*%
G04 Gerber Fmt 4.6, Leading zero omitted, Abs format (unit mm)*
G04 Created by KiCad (PCBNEW 7.0.10) date 2024-02-08 00:17:27*
%MOMM*%
%LPD*%
G01*
G04 APERTURE LIST*
G04 Aperture macros list*
%AMRoundRect*
0 Rectangle with rounded corners*
0 $1 Rounding radius*
0 $2 $3 $4 $5 $6 $7 $8 $9 X,Y pos of 4 corners*
0 Add a 4 corners polygon primitive as box body*
4,1,4,$2,$3,$4,$5,$6,$7,$8,$9,$2,$3,0*
0 Add four circle primitives for the rounded corners*
1,1,$1+$1,$2,$3*
1,1,$1+$1,$4,$5*
1,1,$1+$1,$6,$7*
1,1,$1+$1,$8,$9*
0 Add four rect primitives between the rounded corners*
20,1,$1+$1,$2,$3,$4,$5,0*
20,1,$1+$1,$4,$5,$6,$7,0*
20,1,$1+$1,$6,$7,$8,$9,0*
20,1,$1+$1,$8,$9,$2,$3,0*%
G04 Aperture macros list end*
%ADD10RoundRect,0.140000X-0.170000X0.140000X-0.170000X-0.140000X0.170000X-0.140000X0.170000X0.140000X0*%
%ADD11RoundRect,0.135000X-0.185000X0.135000X-0.185000X-0.135000X0.185000X-0.135000X0.185000X0.135000X0*%
%ADD12RoundRect,0.135000X0.185000X-0.135000X0.185000X0.135000X-0.185000X0.135000X-0.185000X-0.135000X0*%
%ADD13R,0.250000X0.325000*%
%ADD14RoundRect,0.150000X-0.587500X-0.150000X0.587500X-0.150000X0.587500X0.150000X-0.587500X0.150000X0*%
%ADD15RoundRect,0.150000X-0.150000X0.587500X-0.150000X-0.587500X0.150000X-0.587500X0.150000X0.587500X0*%
%ADD16RoundRect,0.135000X-0.135000X-0.185000X0.135000X-0.185000X0.135000X0.185000X-0.135000X0.185000X0*%
%ADD17RoundRect,0.140000X0.170000X-0.140000X0.170000X0.140000X-0.170000X0.140000X-0.170000X-0.140000X0*%
%ADD18RoundRect,0.147500X-0.147500X-0.172500X0.147500X-0.172500X0.147500X0.172500X-0.147500X0.172500X0*%
%ADD19R,1.000000X1.050000*%
%ADD20R,1.050000X2.200000*%
%ADD21RoundRect,0.140000X0.140000X0.170000X-0.140000X0.170000X-0.140000X-0.170000X0.140000X-0.170000X0*%
%ADD22RoundRect,0.150000X0.150000X-0.512500X0.150000X0.512500X-0.150000X0.512500X-0.150000X-0.512500X0*%
%ADD23RoundRect,0.225000X-0.375000X0.225000X-0.375000X-0.225000X0.375000X-0.225000X0.375000X0.225000X0*%
%ADD24RoundRect,0.140000X-0.140000X-0.170000X0.140000X-0.170000X0.140000X0.170000X-0.140000X0.170000X0*%
%ADD25RoundRect,0.150000X-0.150000X0.512500X-0.150000X-0.512500X0.150000X-0.512500X0.150000X0.512500X0*%
%ADD26RoundRect,0.135000X0.135000X0.185000X-0.135000X0.185000X-0.135000X-0.185000X0.135000X-0.185000X0*%
%ADD27RoundRect,0.147500X-0.172500X0.147500X-0.172500X-0.147500X0.172500X-0.147500X0.172500X0.147500X0*%
%ADD28R,0.800000X1.800000*%
%ADD29R,1.800000X0.800000*%
%ADD30R,3.048000X3.048000*%
%ADD31R,1.524000X1.500000*%
%ADD32R,0.700000X1.100000*%
%ADD33R,0.700000X3.330000*%
%ADD34R,1.140000X1.830000*%
%ADD35R,0.900000X0.930000*%
%ADD36R,0.860000X2.800000*%
%ADD37R,1.050000X0.780000*%
%ADD38RoundRect,0.250000X-0.375000X-0.625000X0.375000X-0.625000X0.375000X0.625000X-0.375000X0.625000X0*%
G04 APERTURE END LIST*
D10*
X128174750Y-99145250D03*
X128174750Y-100105250D03*
D11*
X152014750Y-112165250D03*
X152014750Y-113185250D03*
D12*
X167424750Y-81295250D03*
X167424750Y-80275250D03*
D11*
X144524750Y-98265250D03*
X144524750Y-99285250D03*
D13*
X141874750Y-75637750D03*
X142374750Y-75350250D03*
X142874750Y-75350250D03*
X142874750Y-75925250D03*
X142374750Y-75925250D03*
D11*
X141074750Y-98315250D03*
X141074750Y-99335250D03*
D14*
X135887250Y-89025250D03*
X135887250Y-87125250D03*
X137762250Y-88075250D03*
D15*
X162974750Y-105225250D03*
X164874750Y-105225250D03*
X163924750Y-107100250D03*
D16*
X159890000Y-99375250D03*
X160910000Y-99375250D03*
D12*
X156864750Y-75845250D03*
X156864750Y-74825250D03*
D17*
X142424750Y-99285250D03*
X142424750Y-98325250D03*
D18*
X166439750Y-78375250D03*
X167409750Y-78375250D03*
D16*
X133367250Y-89315250D03*
X134387250Y-89315250D03*
X129672250Y-95005250D03*
X130692250Y-95005250D03*
D10*
X129274750Y-99145250D03*
X129274750Y-100105250D03*
D14*
X130387250Y-93575250D03*
X130387250Y-91675250D03*
X132262250Y-92625250D03*
D17*
X143474750Y-99285250D03*
X143474750Y-98325250D03*
X163124750Y-75805250D03*
X163124750Y-74845250D03*
D11*
X145624750Y-98265250D03*
X145624750Y-99285250D03*
D19*
X167424750Y-77025250D03*
D20*
X168899750Y-75500250D03*
X165949750Y-75500250D03*
D21*
X157034750Y-108575250D03*
X156074750Y-108575250D03*
D22*
X132524750Y-101962750D03*
X130624750Y-101962750D03*
X131574750Y-99687750D03*
D12*
X159594750Y-75865250D03*
X159594750Y-74845250D03*
D23*
X127982250Y-91555250D03*
X127982250Y-94855250D03*
D24*
X130694750Y-104625250D03*
X131654750Y-104625250D03*
D16*
X159890000Y-98275250D03*
X160910000Y-98275250D03*
D11*
X138924750Y-98315250D03*
X138924750Y-99335250D03*
D17*
X155764750Y-75845250D03*
X155764750Y-74885250D03*
D12*
X158314750Y-112685250D03*
X158314750Y-111665250D03*
D16*
X133314750Y-87925250D03*
X134334750Y-87925250D03*
D24*
X166464750Y-79375250D03*
X167424750Y-79375250D03*
D21*
X157004750Y-107475250D03*
X156044750Y-107475250D03*
D25*
X136464750Y-93327750D03*
X137414750Y-93327750D03*
X138364750Y-93327750D03*
X138364750Y-95602750D03*
X136464750Y-95602750D03*
D24*
X130694750Y-103460250D03*
X131654750Y-103460250D03*
D11*
X148874750Y-98215250D03*
X148874750Y-99235250D03*
D24*
X166464750Y-82225250D03*
X167424750Y-82225250D03*
X136214750Y-90625250D03*
X137174750Y-90625250D03*
D26*
X164384750Y-103525250D03*
X163364750Y-103525250D03*
D12*
X147774750Y-99235250D03*
X147774750Y-98215250D03*
D11*
X146724750Y-98225250D03*
X146724750Y-99245250D03*
X140024750Y-98315250D03*
X140024750Y-99335250D03*
D12*
X139824750Y-75495250D03*
X139824750Y-74475250D03*
D27*
X139824750Y-77025250D03*
X139824750Y-77995250D03*
D28*
X159274750Y-96375250D03*
X158074750Y-96375250D03*
X156874750Y-96375250D03*
X155674750Y-96375250D03*
X154474750Y-96375250D03*
X153274750Y-96375250D03*
X152074750Y-96375250D03*
X150874750Y-96375250D03*
X149674750Y-96375250D03*
X148474750Y-96375250D03*
X147274750Y-96375250D03*
X146074750Y-96375250D03*
X144874750Y-96375250D03*
X143674750Y-96375250D03*
D29*
X141874750Y-94175250D03*
X141874750Y-92975250D03*
X141874750Y-91775250D03*
X141874750Y-90575250D03*
X141874750Y-89375250D03*
X141874750Y-88175250D03*
X141874750Y-86975250D03*
X141874750Y-85775250D03*
X141874750Y-84575250D03*
X141874750Y-83375250D03*
X141874750Y-82175250D03*
X141874750Y-80975250D03*
X141874750Y-79775250D03*
D28*
X143674750Y-77575250D03*
X144874750Y-77575250D03*
X146074750Y-77575250D03*
X147274750Y-77575250D03*
X148474750Y-77575250D03*
X149674750Y-77575250D03*
X150874750Y-77575250D03*
X152074750Y-77575250D03*
X153274750Y-77575250D03*
X154474750Y-77575250D03*
X155674750Y-77575250D03*
X156874750Y-77575250D03*
X158074750Y-77575250D03*
X159274750Y-77575250D03*
D29*
X161074750Y-79775250D03*
X161074750Y-80975250D03*
X161074750Y-82175250D03*
X161074750Y-83375250D03*
X161074750Y-84575250D03*
X161074750Y-85775250D03*
X161074750Y-86975250D03*
X161074750Y-88175250D03*
X161074750Y-89375250D03*
X161074750Y-90575250D03*
X161074750Y-91775250D03*
X161074750Y-92975250D03*
X161074750Y-94175250D03*
D30*
X156324750Y-91175256D03*
D31*
X149974750Y-88875250D03*
D17*
X139824750Y-90105250D03*
X139824750Y-89145250D03*
D32*
X138769750Y-113425250D03*
X139869750Y-113425250D03*
X140969750Y-113425250D03*
X142069750Y-113425250D03*
X143169750Y-113425250D03*
X144269750Y-113425250D03*
X145369750Y-113425250D03*
X146469750Y-113425250D03*
D33*
X134669750Y-102160250D03*
D34*
X134889750Y-113410250D03*
D35*
X136979750Y-100960250D03*
D36*
X147549750Y-112925250D03*
D33*
X147629750Y-102160250D03*
D37*
X141244750Y-100885250D03*
D38*
X126974750Y-89625250D03*
X129774750Y-89625250D03*
D17*
X160794750Y-75865250D03*
X160794750Y-74905250D03*
M02*
