G04 #@! TF.GenerationSoftware,KiCad,Pcbnew,7.0.10*
G04 #@! TF.CreationDate,2024-01-20T01:08:43+03:00*
G04 #@! TF.ProjectId,GPS_MODULE_V3.kicad_pro,4750535f-4d4f-4445-954c-455f56332e6b,rev?*
G04 #@! TF.SameCoordinates,Original*
G04 #@! TF.FileFunction,Copper,L2,Inr*
G04 #@! TF.FilePolarity,Positive*
%FSLAX46Y46*%
G04 Gerber Fmt 4.6, Leading zero omitted, Abs format (unit mm)*
G04 Created by KiCad (PCBNEW 7.0.10) date 2024-01-20 01:08:43*
%MOMM*%
%LPD*%
G01*
G04 APERTURE LIST*
G04 #@! TA.AperFunction,ComponentPad*
%ADD10C,1.650000*%
G04 #@! TD*
G04 #@! TA.AperFunction,ComponentPad*
%ADD11C,4.875000*%
G04 #@! TD*
G04 #@! TA.AperFunction,ComponentPad*
%ADD12R,2.400000X2.400000*%
G04 #@! TD*
G04 #@! TA.AperFunction,ComponentPad*
%ADD13C,2.400000*%
G04 #@! TD*
G04 #@! TA.AperFunction,ViaPad*
%ADD14C,0.600000*%
G04 #@! TD*
G04 #@! TA.AperFunction,ViaPad*
%ADD15C,0.800000*%
G04 #@! TD*
G04 #@! TA.AperFunction,Conductor*
%ADD16C,0.200000*%
G04 #@! TD*
G04 #@! TA.AperFunction,Conductor*
%ADD17C,0.350000*%
G04 #@! TD*
G04 #@! TA.AperFunction,Conductor*
%ADD18C,0.250000*%
G04 #@! TD*
G04 APERTURE END LIST*
D10*
X264000000Y-80700000D03*
X264000000Y-83200000D03*
X264000000Y-85700000D03*
X264000000Y-88200000D03*
X264000000Y-90700000D03*
X264000000Y-93200000D03*
X267000000Y-80700000D03*
X267000000Y-83200000D03*
X267000000Y-85700000D03*
X267000000Y-88200000D03*
X267000000Y-90700000D03*
X267000000Y-93200000D03*
D11*
X268500000Y-98700000D03*
X268500000Y-75200000D03*
D12*
X228900000Y-74200000D03*
D13*
X228900000Y-77700000D03*
D14*
X248775000Y-98275000D03*
X247948454Y-93795103D03*
X241080000Y-104400000D03*
X239600000Y-92169998D03*
X241625000Y-92350000D03*
X239074821Y-95555883D03*
X247829493Y-103850984D03*
X234850000Y-94200000D03*
X233100000Y-91650000D03*
X233000000Y-97000000D03*
X234625000Y-96925000D03*
X238296384Y-95371384D03*
X247225000Y-104375000D03*
X237775000Y-92125000D03*
X242450000Y-92400000D03*
X244815533Y-92156894D03*
X239164265Y-104569998D03*
X238035001Y-104449968D03*
X237234999Y-104450098D03*
X233250000Y-101000000D03*
X240051765Y-104473235D03*
X267200000Y-70000000D03*
X265800000Y-70000000D03*
X267900000Y-69500000D03*
X267000000Y-72200000D03*
X266200000Y-72600000D03*
X263950000Y-71100000D03*
X265500000Y-71150000D03*
X264700000Y-71150000D03*
X264700000Y-71950000D03*
X265500000Y-71950000D03*
X263950000Y-71900000D03*
X260100000Y-73500000D03*
X260700000Y-73100000D03*
X252702054Y-95641102D03*
X254530000Y-91800000D03*
X245688357Y-87236002D03*
X272600000Y-72900000D03*
X270000000Y-72300000D03*
X267900000Y-71800000D03*
X266500000Y-71500000D03*
X267900000Y-70900000D03*
X266700000Y-70500000D03*
X265100000Y-70500000D03*
X266600000Y-69500000D03*
X265000000Y-69400000D03*
X263200000Y-68300000D03*
X261900000Y-69200000D03*
X259900000Y-68700000D03*
X258400000Y-69100000D03*
X258600000Y-67900000D03*
X258800000Y-66700000D03*
X251700000Y-66800000D03*
X250700000Y-67900000D03*
X248800000Y-71500000D03*
X228500000Y-103900000D03*
X231700000Y-103200000D03*
X227300000Y-100700000D03*
X224200000Y-101000000D03*
X225100000Y-99900000D03*
X228100000Y-88300000D03*
X226600000Y-88200000D03*
X224900000Y-88200000D03*
X225600000Y-91200000D03*
X227600000Y-91100000D03*
X234300000Y-91400000D03*
X233500000Y-90800000D03*
X233200000Y-88000000D03*
X233400000Y-82800000D03*
X236500000Y-81500000D03*
X237100000Y-81600000D03*
X237000000Y-77600000D03*
X234900000Y-78000000D03*
X233500000Y-75800000D03*
X234400000Y-75700000D03*
X235400000Y-76200000D03*
X236000000Y-77800000D03*
X246400000Y-77500000D03*
X243700000Y-79700000D03*
X242100000Y-79300000D03*
X242100000Y-78200000D03*
X242100000Y-77300000D03*
X242100000Y-76400000D03*
X253167895Y-83382111D03*
X248100000Y-80600000D03*
X258575000Y-100600000D03*
X261400000Y-100500000D03*
X247000000Y-96300000D03*
X248000000Y-86702274D03*
X240100000Y-72000000D03*
X244000000Y-71800000D03*
X244400000Y-71200000D03*
X243600000Y-71200000D03*
X243200000Y-71800000D03*
X242400000Y-71800000D03*
X241600000Y-71800000D03*
X240798426Y-71876383D03*
X238600000Y-71100000D03*
X237900000Y-71100000D03*
X237200000Y-72000000D03*
X236500000Y-72000000D03*
X235800000Y-72000000D03*
X237200000Y-71300000D03*
X236500000Y-71300000D03*
X235800000Y-71300000D03*
X231400000Y-66600000D03*
X232100000Y-66600000D03*
X232800000Y-66600000D03*
X235200000Y-66600000D03*
X237500000Y-66600000D03*
X236700000Y-66600000D03*
X235900000Y-66600000D03*
X234400000Y-66600000D03*
X233600000Y-66600000D03*
X238200000Y-67800000D03*
X238500000Y-68400000D03*
X242500000Y-67600000D03*
X240400000Y-67600000D03*
X241100000Y-67600000D03*
X241800000Y-67600000D03*
X241800000Y-68300000D03*
X241100000Y-68300000D03*
X240400000Y-68300000D03*
X239700000Y-68500000D03*
X239300000Y-69100000D03*
X238600000Y-69100000D03*
X237900000Y-69100000D03*
X242800000Y-71200000D03*
X242000000Y-71200000D03*
X241200000Y-71200000D03*
X240500000Y-71200000D03*
X239700000Y-71000000D03*
X239300000Y-70332811D03*
X238600000Y-70332811D03*
X237800000Y-70332811D03*
X237200000Y-70600000D03*
X236500000Y-70600000D03*
X235800000Y-70600000D03*
X233700000Y-71500000D03*
X234400000Y-71500000D03*
X235100000Y-71500000D03*
X235200000Y-70332811D03*
X233700000Y-70800000D03*
X234537351Y-70656026D03*
X235100000Y-72200000D03*
X234400000Y-72200000D03*
X233700000Y-72200000D03*
X233000000Y-72800000D03*
X232300000Y-72800000D03*
X231500000Y-72800000D03*
X233000000Y-72100000D03*
X232300000Y-72100000D03*
X231500000Y-72100000D03*
X232600000Y-70000000D03*
X231800000Y-70000000D03*
X231800000Y-69200000D03*
X232600000Y-69200000D03*
X235200000Y-69100000D03*
X234548342Y-68831515D03*
X233700000Y-68739998D03*
X235200000Y-68100000D03*
X237500000Y-68100000D03*
X236700000Y-68100000D03*
X235900000Y-68100000D03*
X234400000Y-68100000D03*
X233600000Y-68100000D03*
X237500000Y-67400000D03*
X236700000Y-67400000D03*
X235900000Y-67400000D03*
X235200000Y-67400000D03*
X234400000Y-67400000D03*
X233600000Y-67400000D03*
X232800000Y-67400000D03*
X232100000Y-67400000D03*
X231400000Y-67400000D03*
X228200000Y-66600000D03*
X229000000Y-66600000D03*
X229800000Y-66600000D03*
X228200000Y-67400000D03*
X228200000Y-71300000D03*
X228200000Y-70600000D03*
X228200000Y-72000000D03*
X229000000Y-67400000D03*
X229000000Y-69800000D03*
X229000000Y-69000000D03*
X229000000Y-71300000D03*
X229000000Y-68200000D03*
X229000000Y-70600000D03*
X229000000Y-72000000D03*
X229800000Y-68200000D03*
X229800000Y-72000000D03*
X229800000Y-67400000D03*
X229800000Y-69800000D03*
X229800000Y-69000000D03*
X229800000Y-71300000D03*
X229800000Y-70600000D03*
X230600000Y-72000000D03*
X230600000Y-71300000D03*
X230600000Y-70600000D03*
X230600000Y-69800000D03*
X230600000Y-69000000D03*
X230600000Y-68200000D03*
X230600000Y-67400000D03*
X230600000Y-66600000D03*
X265500000Y-78825000D03*
X264700000Y-78825000D03*
X263750000Y-78825000D03*
X262900000Y-78900000D03*
X262400000Y-76000000D03*
X263200000Y-76050000D03*
X262300000Y-75100000D03*
X263100000Y-75150000D03*
X262016014Y-72560000D03*
X262900000Y-72500000D03*
X262450000Y-73100000D03*
X263250000Y-73150000D03*
X261600000Y-73150000D03*
X265500000Y-72700000D03*
X264700000Y-72700000D03*
X263950000Y-72650000D03*
X265500000Y-73600000D03*
X264700000Y-73600000D03*
X263950000Y-73550000D03*
X265500000Y-74550000D03*
X264700000Y-74550000D03*
X263950000Y-74500000D03*
X264700000Y-75400000D03*
X265500000Y-75400000D03*
X263950000Y-75350000D03*
X265500000Y-76300000D03*
X264700000Y-76300000D03*
X263950000Y-76250000D03*
X265500000Y-77200000D03*
X264700000Y-77200000D03*
X263950000Y-77150000D03*
X265500000Y-78150000D03*
X264700000Y-78150000D03*
X263950000Y-78100000D03*
X262900000Y-78100000D03*
X262000000Y-78000000D03*
X261050000Y-77500000D03*
X260950000Y-76550000D03*
X260200000Y-77750000D03*
X260200000Y-77000000D03*
X260200000Y-76350000D03*
X259450000Y-77600000D03*
X259450000Y-76850000D03*
X259450000Y-76150000D03*
X259500000Y-74150000D03*
X260150000Y-74150000D03*
X260750000Y-73800000D03*
X260750000Y-74500000D03*
X260150000Y-74900000D03*
X259500000Y-74900000D03*
X256392500Y-72856442D03*
X260800000Y-80300000D03*
X255700000Y-84500000D03*
X226000000Y-99100000D03*
X228500000Y-97300000D03*
X234300000Y-101000000D03*
X235250000Y-91007871D03*
X263274265Y-95825735D03*
X256150000Y-75500000D03*
X254696986Y-78097990D03*
X259200000Y-69200000D03*
X255175735Y-76724265D03*
X254922500Y-72000000D03*
X254560859Y-79650811D03*
X255938597Y-74417795D03*
X256342548Y-73727268D03*
X254100000Y-74800000D03*
X257100325Y-95989727D03*
X256300000Y-98900000D03*
X256320540Y-105770308D03*
X263425000Y-99758058D03*
X246700000Y-95481372D03*
X247700000Y-99100000D03*
X246900000Y-78300000D03*
X245025416Y-85500000D03*
X261200000Y-82700000D03*
X236500000Y-75600000D03*
X255700000Y-92550000D03*
X262800000Y-84800000D03*
X258100000Y-104450000D03*
X250700000Y-105800000D03*
X253149998Y-103600000D03*
X256800000Y-94600000D03*
X252349999Y-74900000D03*
X250404163Y-92010000D03*
X255600000Y-98371320D03*
X258962125Y-104255000D03*
X263200000Y-104255000D03*
X260600000Y-102600000D03*
X264273858Y-102305000D03*
X262800000Y-98700000D03*
X260900000Y-98800000D03*
X257100000Y-101810000D03*
X256407766Y-102925616D03*
X251360033Y-99460033D03*
X253216226Y-99292050D03*
X257962500Y-99900000D03*
X259575000Y-97400000D03*
X259149480Y-96600995D03*
X253100000Y-100700000D03*
X253400000Y-100100000D03*
X258300000Y-95626708D03*
X256300000Y-100200000D03*
X255533041Y-105625564D03*
X248300000Y-85900000D03*
X231300000Y-82400000D03*
X248200000Y-82200000D03*
X248111850Y-81404868D03*
X245710000Y-74870000D03*
D15*
X236950000Y-76630000D03*
X245140369Y-73152966D03*
D14*
X239600000Y-87800000D03*
X251900000Y-79500000D03*
X259093412Y-92503021D03*
X224300000Y-97100000D03*
D15*
X242110000Y-73250000D03*
D14*
X226800000Y-96100000D03*
X224300000Y-94300000D03*
X247110000Y-76190000D03*
X226000000Y-97100000D03*
D15*
X242740000Y-74010000D03*
X232220000Y-85590000D03*
X230970000Y-84010000D03*
X231530000Y-84890000D03*
X231100000Y-85950000D03*
D14*
X226700000Y-96900000D03*
X225900000Y-94300000D03*
X225200000Y-97100000D03*
D15*
X236560000Y-74010000D03*
X241930000Y-74490000D03*
D14*
X225200000Y-94300000D03*
X226700000Y-95200000D03*
X226700000Y-94300000D03*
X248250000Y-72650000D03*
X248250000Y-78780000D03*
X244240000Y-80790000D03*
X247005216Y-87153057D03*
X242400000Y-82200000D03*
X251950000Y-77984099D03*
X253398499Y-77442422D03*
X256000000Y-82400000D03*
X250775000Y-83370535D03*
X246879307Y-85162368D03*
X255800000Y-87000000D03*
X256700000Y-92600000D03*
X243400000Y-86800000D03*
X243600000Y-87600000D03*
X242800000Y-87400000D03*
X244200000Y-86800000D03*
X244900000Y-87100000D03*
X236849998Y-84475000D03*
X255400000Y-67200000D03*
X253204530Y-72253727D03*
X236825000Y-88500000D03*
X242652435Y-84000964D03*
X235462500Y-88162500D03*
X254400000Y-67000000D03*
X242077637Y-83426167D03*
X253158949Y-71452983D03*
X253728310Y-79547370D03*
X259600000Y-89400000D03*
X259200000Y-88600000D03*
X249800000Y-92800000D03*
X247704660Y-101136381D03*
X256150000Y-79654981D03*
X246931372Y-100931372D03*
X233200000Y-102700000D03*
X228600000Y-102400000D03*
X247398530Y-99898528D03*
X246919385Y-102576387D03*
X256187648Y-90419998D03*
X246722151Y-103622151D03*
X260035234Y-86691036D03*
X260706815Y-85450003D03*
X260400000Y-84200003D03*
X260400000Y-83400000D03*
X254700000Y-85610049D03*
X247262368Y-101816513D03*
X252858210Y-85600000D03*
X246245966Y-99102563D03*
X252000000Y-85374008D03*
X247000000Y-98450000D03*
X251000000Y-84800000D03*
X233425000Y-85550000D03*
X242925000Y-84800000D03*
X240400000Y-66800000D03*
X252400000Y-87200000D03*
X243400000Y-92270000D03*
X253200003Y-87200000D03*
X251000000Y-85600000D03*
X247744069Y-87459815D03*
X251200000Y-86400000D03*
X236525000Y-92344369D03*
X250903554Y-87296446D03*
X245775000Y-92100000D03*
X255224002Y-82105536D03*
X240248290Y-85169413D03*
D15*
X245410000Y-72190000D03*
D14*
X246200000Y-68000000D03*
X235093333Y-82145962D03*
X252400000Y-71200000D03*
D16*
X248600000Y-86200000D02*
X248300000Y-85900000D01*
X248600000Y-94100000D02*
X248600000Y-86200000D01*
X247600000Y-97725000D02*
X247600000Y-95100000D01*
X247575000Y-97750000D02*
X247600000Y-97725000D01*
X247575000Y-98126471D02*
X247575000Y-97750000D01*
X248300000Y-98851471D02*
X247575000Y-98126471D01*
X248300000Y-100883192D02*
X248300000Y-98851471D01*
X251616808Y-104200000D02*
X248300000Y-100883192D01*
X254107477Y-104200000D02*
X251616808Y-104200000D01*
X255533041Y-105625564D02*
X254107477Y-104200000D01*
X247600000Y-95100000D02*
X248600000Y-94100000D01*
D17*
X239164265Y-105039265D02*
X240050000Y-105925000D01*
X240050000Y-105925000D02*
X240050000Y-106100000D01*
X239164265Y-104569998D02*
X239164265Y-105039265D01*
X247005216Y-93169784D02*
X246700000Y-93475000D01*
X246700000Y-93475000D02*
X246700000Y-95481372D01*
X247005216Y-87153057D02*
X247005216Y-93169784D01*
D16*
X238659320Y-95971384D02*
X239074821Y-95555883D01*
X236975000Y-103075000D02*
X236975000Y-96500000D01*
X237700000Y-103800000D02*
X236975000Y-103075000D01*
X239378530Y-103800000D02*
X237700000Y-103800000D01*
X240051765Y-104473235D02*
X239378530Y-103800000D01*
X236975000Y-96500000D02*
X237503616Y-95971384D01*
X237503616Y-95971384D02*
X238659320Y-95971384D01*
X242790685Y-94300000D02*
X244815533Y-92275153D01*
X244815533Y-92275153D02*
X244815533Y-92156894D01*
X238296384Y-95228616D02*
X239225000Y-94300000D01*
X238296384Y-95371384D02*
X238296384Y-95228616D01*
X239225000Y-94300000D02*
X242790685Y-94300000D01*
X242625000Y-93900000D02*
X243400000Y-93125000D01*
X236800000Y-94250000D02*
X237150000Y-93900000D01*
X243400000Y-93125000D02*
X243400000Y-92270000D01*
X236575000Y-103790099D02*
X236575000Y-95576368D01*
X236575000Y-95576368D02*
X236800000Y-95351367D01*
X237150000Y-93900000D02*
X242625000Y-93900000D01*
X237234999Y-104450098D02*
X236575000Y-103790099D01*
X236800000Y-95351367D02*
X236800000Y-94250000D01*
X242450000Y-92750000D02*
X242450000Y-92400000D01*
X241700000Y-93500000D02*
X242450000Y-92750000D01*
X236740686Y-93500000D02*
X241700000Y-93500000D01*
X236400000Y-93840686D02*
X236740686Y-93500000D01*
X236540686Y-105100000D02*
X236175000Y-104734314D01*
X237834999Y-104698627D02*
X237433626Y-105100000D01*
X237433626Y-105100000D02*
X236540686Y-105100000D01*
X236175000Y-95410682D02*
X236400000Y-95185682D01*
X237834999Y-104649970D02*
X237834999Y-104698627D01*
X236175000Y-104734314D02*
X236175000Y-95410682D01*
X238035001Y-104449968D02*
X237834999Y-104649970D01*
X236400000Y-95185682D02*
X236400000Y-93840686D01*
D17*
X235800000Y-106100000D02*
X240050000Y-106100000D01*
X235300000Y-95048246D02*
X235300000Y-105600000D01*
X235475000Y-93870405D02*
X235525000Y-93920405D01*
X235300000Y-105600000D02*
X235800000Y-106100000D01*
X235475000Y-92248964D02*
X235475000Y-93870405D01*
X235525000Y-93920405D02*
X235525000Y-94823246D01*
X235250000Y-92023964D02*
X235475000Y-92248964D01*
X235250000Y-91007871D02*
X235250000Y-92023964D01*
X235525000Y-94823246D02*
X235300000Y-95048246D01*
X240050000Y-106100000D02*
X246000000Y-106100000D01*
D16*
X255373960Y-103600000D02*
X253149998Y-103600000D01*
X256823960Y-105050000D02*
X255373960Y-103600000D01*
X259706471Y-104359183D02*
X259015654Y-105050000D01*
X259706471Y-104006471D02*
X259706471Y-104359183D01*
X257800000Y-102100000D02*
X259706471Y-104006471D01*
X257800000Y-100851471D02*
X257800000Y-102100000D01*
X257000000Y-100051471D02*
X257800000Y-100851471D01*
X257000000Y-98100000D02*
X257000000Y-100051471D01*
X256000000Y-97100000D02*
X257000000Y-98100000D01*
X259900000Y-93900000D02*
X256600000Y-93900000D01*
X256000000Y-94500000D02*
X256000000Y-97100000D01*
X261800000Y-92000000D02*
X259900000Y-93900000D01*
X261800000Y-79400000D02*
X261800000Y-92000000D01*
X256600000Y-93900000D02*
X256000000Y-94500000D01*
X257004981Y-78800000D02*
X261200000Y-78800000D01*
X261200000Y-78800000D02*
X261800000Y-79400000D01*
X256150000Y-79654981D02*
X257004981Y-78800000D01*
X259015654Y-105050000D02*
X256823960Y-105050000D01*
X256839295Y-78400000D02*
X261400000Y-78400000D01*
X256188484Y-79050811D02*
X256839295Y-78400000D01*
X261400000Y-78400000D02*
X262200000Y-79200000D01*
X260300000Y-94600000D02*
X256800000Y-94600000D01*
X254224869Y-79050811D02*
X256188484Y-79050811D01*
X262200000Y-79200000D02*
X262200000Y-92700000D01*
X262200000Y-92700000D02*
X260300000Y-94600000D01*
X253728310Y-79547370D02*
X254224869Y-79050811D01*
X258000000Y-88500000D02*
X258900000Y-89400000D01*
X254500000Y-88500000D02*
X258000000Y-88500000D01*
X254100000Y-88100000D02*
X254500000Y-88500000D01*
X254100000Y-80111670D02*
X254100000Y-88100000D01*
X258900000Y-89400000D02*
X259600000Y-89400000D01*
X254560859Y-79650811D02*
X254100000Y-80111670D01*
D17*
X236729593Y-85550000D02*
X233425000Y-85550000D01*
X238079593Y-84200000D02*
X236729593Y-85550000D01*
X240233473Y-84200000D02*
X238079593Y-84200000D01*
X240833473Y-84800000D02*
X240233473Y-84200000D01*
X242925000Y-84800000D02*
X240833473Y-84800000D01*
D16*
X256150000Y-75500000D02*
X256150000Y-77350000D01*
X256150000Y-77350000D02*
X255402010Y-78097990D01*
X255402010Y-78097990D02*
X254696986Y-78097990D01*
X260800000Y-80800000D02*
X260800000Y-80300000D01*
X260800000Y-81800000D02*
X260800000Y-80800000D01*
X259800000Y-82800000D02*
X260800000Y-81800000D01*
X258100000Y-84500000D02*
X259800000Y-82800000D01*
X255700000Y-84500000D02*
X258100000Y-84500000D01*
D17*
X263500000Y-101700000D02*
X263500000Y-103700000D01*
X264100000Y-101100000D02*
X263500000Y-101700000D01*
X263274265Y-95825735D02*
X264100000Y-96651470D01*
X264100000Y-96651470D02*
X264100000Y-101100000D01*
X257152875Y-106445308D02*
X257900000Y-105698183D01*
X254800000Y-105847118D02*
X255398190Y-106445308D01*
X255398190Y-106445308D02*
X257152875Y-106445308D01*
X254800000Y-105700000D02*
X254800000Y-105847118D01*
X254225000Y-105125000D02*
X254800000Y-105700000D01*
X249475000Y-105125000D02*
X254225000Y-105125000D01*
X246000000Y-106100000D02*
X246300000Y-106400000D01*
X246300000Y-106400000D02*
X248200000Y-106400000D01*
X248200000Y-106400000D02*
X249475000Y-105125000D01*
X259310405Y-105698183D02*
X257900000Y-105698183D01*
X259510405Y-105898183D02*
X259310405Y-105698183D01*
X263500000Y-103700000D02*
X263500000Y-104100000D01*
X263500000Y-104100000D02*
X261701817Y-105898183D01*
X261701817Y-105898183D02*
X259510405Y-105898183D01*
D18*
X255675000Y-98446320D02*
X255600000Y-98371320D01*
X256175000Y-103800000D02*
X255675000Y-103300000D01*
X258507125Y-103800000D02*
X256175000Y-103800000D01*
X255675000Y-103300000D02*
X255675000Y-98446320D01*
X258962125Y-104255000D02*
X258507125Y-103800000D01*
D17*
X263500000Y-103700000D02*
X263500000Y-103955000D01*
X263500000Y-103955000D02*
X263200000Y-104255000D01*
D16*
X253500000Y-73422500D02*
X254922500Y-72000000D01*
X253398499Y-77442422D02*
X253500000Y-77340921D01*
X253500000Y-77340921D02*
X253500000Y-73422500D01*
G04 #@! TA.AperFunction,Conductor*
G36*
X239981935Y-66220185D02*
G01*
X240027690Y-66272989D01*
X240037634Y-66342147D01*
X240011187Y-66400057D01*
X240012327Y-66400932D01*
X240007381Y-66407377D01*
X240007379Y-66407379D01*
X239963035Y-66465169D01*
X239919137Y-66522377D01*
X239863671Y-66656287D01*
X239863670Y-66656291D01*
X239846373Y-66787676D01*
X239844750Y-66800000D01*
X239857069Y-66893574D01*
X239863670Y-66943708D01*
X239863671Y-66943712D01*
X239919137Y-67077622D01*
X239919138Y-67077624D01*
X239919139Y-67077625D01*
X240007379Y-67192621D01*
X240122375Y-67280861D01*
X240256291Y-67336330D01*
X240383280Y-67353048D01*
X240399999Y-67355250D01*
X240400000Y-67355250D01*
X240400001Y-67355250D01*
X240414977Y-67353278D01*
X240543709Y-67336330D01*
X240677625Y-67280861D01*
X240792621Y-67192621D01*
X240880861Y-67077625D01*
X240913014Y-67000000D01*
X253844750Y-67000000D01*
X253852160Y-67056287D01*
X253863670Y-67143708D01*
X253863671Y-67143712D01*
X253919137Y-67277622D01*
X253919138Y-67277624D01*
X253919139Y-67277625D01*
X254007379Y-67392621D01*
X254122375Y-67480861D01*
X254122376Y-67480861D01*
X254122377Y-67480862D01*
X254145576Y-67490471D01*
X254256291Y-67536330D01*
X254383280Y-67553048D01*
X254399999Y-67555250D01*
X254400000Y-67555250D01*
X254400001Y-67555250D01*
X254414977Y-67553278D01*
X254543709Y-67536330D01*
X254677625Y-67480861D01*
X254734110Y-67437517D01*
X254799279Y-67412323D01*
X254867724Y-67426361D01*
X254914180Y-67471185D01*
X254914192Y-67471177D01*
X254914251Y-67471254D01*
X254916983Y-67473890D01*
X254919138Y-67477623D01*
X254919139Y-67477625D01*
X255007379Y-67592621D01*
X255122375Y-67680861D01*
X255256291Y-67736330D01*
X255383280Y-67753048D01*
X255399999Y-67755250D01*
X255400000Y-67755250D01*
X255400001Y-67755250D01*
X255414977Y-67753278D01*
X255543709Y-67736330D01*
X255677625Y-67680861D01*
X255792621Y-67592621D01*
X255880861Y-67477625D01*
X255936330Y-67343709D01*
X255955250Y-67200000D01*
X255936330Y-67056291D01*
X255880861Y-66922375D01*
X255792621Y-66807379D01*
X255677625Y-66719139D01*
X255677624Y-66719138D01*
X255677622Y-66719137D01*
X255543712Y-66663671D01*
X255543710Y-66663670D01*
X255543709Y-66663670D01*
X255471854Y-66654210D01*
X255400001Y-66644750D01*
X255399999Y-66644750D01*
X255256291Y-66663670D01*
X255256287Y-66663671D01*
X255122376Y-66719138D01*
X255122375Y-66719138D01*
X255065887Y-66762483D01*
X255000718Y-66787676D01*
X254932273Y-66773637D01*
X254885820Y-66728813D01*
X254885808Y-66728823D01*
X254885743Y-66728738D01*
X254883015Y-66726106D01*
X254880863Y-66722378D01*
X254867227Y-66704607D01*
X254792621Y-66607379D01*
X254677625Y-66519139D01*
X254677624Y-66519138D01*
X254677622Y-66519137D01*
X254543712Y-66463671D01*
X254543710Y-66463670D01*
X254543709Y-66463670D01*
X254420425Y-66447439D01*
X254403683Y-66440032D01*
X254398324Y-66443477D01*
X254379575Y-66447439D01*
X254256291Y-66463670D01*
X254256287Y-66463671D01*
X254122377Y-66519137D01*
X254007379Y-66607379D01*
X253919137Y-66722377D01*
X253863671Y-66856287D01*
X253863670Y-66856291D01*
X253845230Y-66996357D01*
X253844750Y-67000000D01*
X240913014Y-67000000D01*
X240936330Y-66943709D01*
X240955250Y-66800000D01*
X240953627Y-66787676D01*
X240945879Y-66728823D01*
X240936330Y-66656291D01*
X240880861Y-66522375D01*
X240792621Y-66407379D01*
X240792618Y-66407377D01*
X240787673Y-66400932D01*
X240790215Y-66398981D01*
X240763938Y-66350858D01*
X240768922Y-66281166D01*
X240810794Y-66225233D01*
X240876258Y-66200816D01*
X240885104Y-66200500D01*
X254363389Y-66200500D01*
X254398663Y-66210857D01*
X254417505Y-66201981D01*
X254436611Y-66200500D01*
X270510118Y-66200500D01*
X270546519Y-66200500D01*
X270553472Y-66200695D01*
X270845306Y-66217084D01*
X270859103Y-66218638D01*
X271143827Y-66267015D01*
X271157382Y-66270108D01*
X271247715Y-66296133D01*
X271434899Y-66350060D01*
X271448025Y-66354653D01*
X271714841Y-66465172D01*
X271727355Y-66471198D01*
X271819956Y-66522377D01*
X271980125Y-66610899D01*
X271991899Y-66618297D01*
X272227430Y-66785415D01*
X272238302Y-66794085D01*
X272349630Y-66893574D01*
X272453642Y-66986524D01*
X272463473Y-66996355D01*
X272517035Y-67056291D01*
X272655914Y-67211697D01*
X272664584Y-67222569D01*
X272831702Y-67458100D01*
X272839100Y-67469874D01*
X272978797Y-67722637D01*
X272984830Y-67735165D01*
X273095346Y-68001975D01*
X273099939Y-68015100D01*
X273179890Y-68292615D01*
X273182984Y-68306172D01*
X273231359Y-68590885D01*
X273232916Y-68604703D01*
X273249305Y-68896527D01*
X273249500Y-68903480D01*
X273249500Y-104046519D01*
X273249305Y-104053472D01*
X273232916Y-104345296D01*
X273231359Y-104359114D01*
X273182984Y-104643827D01*
X273179890Y-104657384D01*
X273099939Y-104934899D01*
X273095346Y-104948024D01*
X272984830Y-105214834D01*
X272978797Y-105227362D01*
X272839100Y-105480125D01*
X272831702Y-105491899D01*
X272664584Y-105727430D01*
X272655914Y-105738302D01*
X272463475Y-105953642D01*
X272453642Y-105963475D01*
X272238302Y-106155914D01*
X272227430Y-106164584D01*
X271991899Y-106331702D01*
X271980125Y-106339100D01*
X271727362Y-106478797D01*
X271714834Y-106484830D01*
X271448024Y-106595346D01*
X271434899Y-106599939D01*
X271157384Y-106679890D01*
X271143827Y-106682984D01*
X270859114Y-106731359D01*
X270845296Y-106732916D01*
X270553472Y-106749305D01*
X270546519Y-106749500D01*
X257749793Y-106749500D01*
X257682754Y-106729815D01*
X257636999Y-106677011D01*
X257627055Y-106607853D01*
X257656080Y-106544297D01*
X257662112Y-106537819D01*
X258039929Y-106160002D01*
X258101252Y-106126517D01*
X258127610Y-106123683D01*
X259082795Y-106123683D01*
X259149834Y-106143368D01*
X259170471Y-106159997D01*
X259257185Y-106246711D01*
X259278701Y-106257674D01*
X259295283Y-106267836D01*
X259308487Y-106277429D01*
X259314824Y-106282033D01*
X259337788Y-106289494D01*
X259355767Y-106296940D01*
X259377279Y-106307902D01*
X259401126Y-106311678D01*
X259420048Y-106316222D01*
X259443006Y-106323682D01*
X259443012Y-106323683D01*
X261769209Y-106323683D01*
X261769210Y-106323683D01*
X261792177Y-106316219D01*
X261811093Y-106311678D01*
X261834943Y-106307902D01*
X261856453Y-106296940D01*
X261874431Y-106289493D01*
X261897398Y-106282032D01*
X261916935Y-106267836D01*
X261933523Y-106257671D01*
X261955037Y-106246711D01*
X262050345Y-106151403D01*
X263440146Y-104761600D01*
X263471142Y-104740894D01*
X263470584Y-104739927D01*
X263477622Y-104735863D01*
X263477625Y-104735861D01*
X263592621Y-104647621D01*
X263680861Y-104532625D01*
X263680861Y-104532624D01*
X263680863Y-104532622D01*
X263684927Y-104525584D01*
X263685893Y-104526142D01*
X263706600Y-104495146D01*
X263824554Y-104377194D01*
X263848528Y-104353220D01*
X263859490Y-104331705D01*
X263869652Y-104315121D01*
X263883850Y-104295581D01*
X263891311Y-104272614D01*
X263898760Y-104254633D01*
X263909718Y-104233129D01*
X263909718Y-104233128D01*
X263909718Y-104233127D01*
X263909719Y-104233126D01*
X263913496Y-104209273D01*
X263918035Y-104190366D01*
X263925500Y-104167393D01*
X263925500Y-104032607D01*
X263925500Y-103940000D01*
X268774396Y-103940000D01*
X268794778Y-104198990D01*
X268855427Y-104451610D01*
X268954843Y-104691623D01*
X268954845Y-104691627D01*
X268954846Y-104691628D01*
X269090588Y-104913140D01*
X269259311Y-105110689D01*
X269456860Y-105279412D01*
X269678372Y-105415154D01*
X269678374Y-105415154D01*
X269678376Y-105415156D01*
X269728921Y-105436092D01*
X269918390Y-105514573D01*
X270171006Y-105575221D01*
X270365147Y-105590500D01*
X270365155Y-105590500D01*
X270494845Y-105590500D01*
X270494853Y-105590500D01*
X270688994Y-105575221D01*
X270941610Y-105514573D01*
X271181628Y-105415154D01*
X271403140Y-105279412D01*
X271600689Y-105110689D01*
X271769412Y-104913140D01*
X271905154Y-104691628D01*
X272004573Y-104451610D01*
X272065221Y-104198994D01*
X272085604Y-103940000D01*
X272065221Y-103681006D01*
X272004573Y-103428390D01*
X271930474Y-103249500D01*
X271905156Y-103188376D01*
X271900551Y-103180862D01*
X271769412Y-102966860D01*
X271600689Y-102769311D01*
X271403140Y-102600588D01*
X271181628Y-102464846D01*
X271181627Y-102464845D01*
X271181623Y-102464843D01*
X270999213Y-102389287D01*
X270941610Y-102365427D01*
X270941611Y-102365427D01*
X270764181Y-102322830D01*
X270688994Y-102304779D01*
X270688992Y-102304778D01*
X270688991Y-102304778D01*
X270494858Y-102289500D01*
X270494853Y-102289500D01*
X270365147Y-102289500D01*
X270365141Y-102289500D01*
X270171009Y-102304778D01*
X269918389Y-102365427D01*
X269678376Y-102464843D01*
X269456859Y-102600588D01*
X269259311Y-102769311D01*
X269090588Y-102966859D01*
X268954843Y-103188376D01*
X268855427Y-103428389D01*
X268794778Y-103681009D01*
X268774396Y-103940000D01*
X263925500Y-103940000D01*
X263925500Y-103666512D01*
X263925500Y-102942140D01*
X263945185Y-102875101D01*
X263997989Y-102829346D01*
X264067147Y-102819402D01*
X264096944Y-102827576D01*
X264130149Y-102841330D01*
X264225955Y-102853943D01*
X264273857Y-102860250D01*
X264273858Y-102860250D01*
X264273859Y-102860250D01*
X264288835Y-102858278D01*
X264417567Y-102841330D01*
X264551483Y-102785861D01*
X264666479Y-102697621D01*
X264754719Y-102582625D01*
X264810188Y-102448709D01*
X264829108Y-102305000D01*
X264810188Y-102161291D01*
X264769753Y-102063670D01*
X264754720Y-102027377D01*
X264754719Y-102027376D01*
X264754719Y-102027375D01*
X264666479Y-101912379D01*
X264551483Y-101824139D01*
X264551482Y-101824138D01*
X264551480Y-101824137D01*
X264417570Y-101768671D01*
X264417568Y-101768670D01*
X264417567Y-101768670D01*
X264400649Y-101766442D01*
X264327100Y-101756759D01*
X264263204Y-101728492D01*
X264224734Y-101670167D01*
X264223903Y-101600302D01*
X264255604Y-101546141D01*
X264335778Y-101465967D01*
X264335781Y-101465966D01*
X264353219Y-101448528D01*
X264353220Y-101448528D01*
X264448528Y-101353220D01*
X264459493Y-101331698D01*
X264469658Y-101315112D01*
X264483849Y-101295581D01*
X264491310Y-101272614D01*
X264498759Y-101254634D01*
X264509718Y-101233128D01*
X264509718Y-101233127D01*
X264509719Y-101233126D01*
X264513495Y-101209276D01*
X264518036Y-101190360D01*
X264525500Y-101167393D01*
X264525500Y-101032607D01*
X264525500Y-98700000D01*
X265807087Y-98700000D01*
X265826720Y-99024589D01*
X265826720Y-99024594D01*
X265826721Y-99024595D01*
X265885338Y-99344456D01*
X265885339Y-99344460D01*
X265885340Y-99344464D01*
X265982076Y-99654901D01*
X265982080Y-99654912D01*
X265982081Y-99654915D01*
X265982083Y-99654920D01*
X266115544Y-99951459D01*
X266283776Y-100229749D01*
X266283781Y-100229757D01*
X266484328Y-100485735D01*
X266714264Y-100715671D01*
X266970242Y-100916218D01*
X266970247Y-100916221D01*
X266970251Y-100916224D01*
X267248541Y-101084456D01*
X267545080Y-101217917D01*
X267545090Y-101217920D01*
X267545098Y-101217923D01*
X267690834Y-101263336D01*
X267855544Y-101314662D01*
X268175405Y-101373279D01*
X268500000Y-101392913D01*
X268824595Y-101373279D01*
X269144456Y-101314662D01*
X269454920Y-101217917D01*
X269751459Y-101084456D01*
X270029749Y-100916224D01*
X270285732Y-100715674D01*
X270515674Y-100485732D01*
X270668120Y-100291149D01*
X270716218Y-100229757D01*
X270716218Y-100229755D01*
X270716224Y-100229749D01*
X270884456Y-99951459D01*
X271017917Y-99654920D01*
X271028059Y-99622375D01*
X271040196Y-99583424D01*
X271114662Y-99344456D01*
X271173279Y-99024595D01*
X271192913Y-98700000D01*
X271173279Y-98375405D01*
X271114662Y-98055544D01*
X271062537Y-97888269D01*
X271017923Y-97745098D01*
X271017919Y-97745087D01*
X271017917Y-97745080D01*
X270884456Y-97448541D01*
X270716224Y-97170251D01*
X270716221Y-97170247D01*
X270716218Y-97170242D01*
X270515671Y-96914264D01*
X270285735Y-96684328D01*
X270029757Y-96483781D01*
X270029749Y-96483776D01*
X269751459Y-96315544D01*
X269454920Y-96182083D01*
X269454915Y-96182081D01*
X269454912Y-96182080D01*
X269454901Y-96182076D01*
X269144464Y-96085340D01*
X269144460Y-96085339D01*
X269144456Y-96085338D01*
X268824595Y-96026721D01*
X268824594Y-96026720D01*
X268824589Y-96026720D01*
X268500000Y-96007087D01*
X268175410Y-96026720D01*
X268120706Y-96036745D01*
X267855544Y-96085338D01*
X267855541Y-96085338D01*
X267855535Y-96085340D01*
X267545098Y-96182076D01*
X267545087Y-96182080D01*
X267545081Y-96182082D01*
X267545080Y-96182083D01*
X267417696Y-96239413D01*
X267268423Y-96306596D01*
X267248541Y-96315544D01*
X267227538Y-96328241D01*
X266970242Y-96483781D01*
X266714264Y-96684328D01*
X266484328Y-96914264D01*
X266283781Y-97170242D01*
X266239369Y-97243709D01*
X266122927Y-97436329D01*
X266115543Y-97448543D01*
X266115542Y-97448545D01*
X265982080Y-97745087D01*
X265982076Y-97745098D01*
X265885340Y-98055535D01*
X265885338Y-98055541D01*
X265885338Y-98055544D01*
X265839187Y-98307379D01*
X265826720Y-98375410D01*
X265807087Y-98700000D01*
X264525500Y-98700000D01*
X264525500Y-96617982D01*
X264525500Y-96584077D01*
X264525500Y-96584076D01*
X264525499Y-96584071D01*
X264518039Y-96561113D01*
X264513495Y-96542189D01*
X264509719Y-96518344D01*
X264498757Y-96496832D01*
X264491309Y-96478849D01*
X264488625Y-96470589D01*
X264483850Y-96455889D01*
X264469653Y-96436348D01*
X264459491Y-96419766D01*
X264448528Y-96398250D01*
X264353220Y-96302942D01*
X263852228Y-95801950D01*
X263818743Y-95740627D01*
X263816972Y-95730466D01*
X263810595Y-95682026D01*
X263755126Y-95548110D01*
X263666886Y-95433114D01*
X263551890Y-95344874D01*
X263551889Y-95344873D01*
X263551887Y-95344872D01*
X263417977Y-95289406D01*
X263417975Y-95289405D01*
X263417974Y-95289405D01*
X263333306Y-95278258D01*
X263274266Y-95270485D01*
X263274264Y-95270485D01*
X263130556Y-95289405D01*
X263130552Y-95289406D01*
X262996642Y-95344872D01*
X262881644Y-95433114D01*
X262793402Y-95548112D01*
X262737936Y-95682022D01*
X262737935Y-95682026D01*
X262731796Y-95728659D01*
X262719015Y-95825735D01*
X262729949Y-95908789D01*
X262737935Y-95969443D01*
X262737936Y-95969447D01*
X262793402Y-96103357D01*
X262793403Y-96103359D01*
X262793404Y-96103360D01*
X262881644Y-96218356D01*
X262996640Y-96306596D01*
X262996641Y-96306596D01*
X262996642Y-96306597D01*
X263035847Y-96322836D01*
X263130556Y-96362065D01*
X263178984Y-96368440D01*
X263242880Y-96396706D01*
X263250480Y-96403698D01*
X263638181Y-96791399D01*
X263671666Y-96852722D01*
X263674500Y-96879080D01*
X263674500Y-99094260D01*
X263654815Y-99161299D01*
X263602011Y-99207054D01*
X263534315Y-99217199D01*
X263425002Y-99202808D01*
X263424998Y-99202808D01*
X263369258Y-99210146D01*
X263300222Y-99199380D01*
X263247967Y-99153000D01*
X263229082Y-99085731D01*
X263249563Y-99018930D01*
X263254691Y-99011730D01*
X263280861Y-98977625D01*
X263336330Y-98843709D01*
X263355250Y-98700000D01*
X263336330Y-98556291D01*
X263299350Y-98467013D01*
X263280862Y-98422377D01*
X263280861Y-98422376D01*
X263280861Y-98422375D01*
X263192621Y-98307379D01*
X263077625Y-98219139D01*
X263077624Y-98219138D01*
X263077622Y-98219137D01*
X262943712Y-98163671D01*
X262943710Y-98163670D01*
X262943709Y-98163670D01*
X262833892Y-98149212D01*
X262800001Y-98144750D01*
X262799999Y-98144750D01*
X262656291Y-98163670D01*
X262656287Y-98163671D01*
X262522377Y-98219137D01*
X262407379Y-98307379D01*
X262319137Y-98422377D01*
X262263671Y-98556287D01*
X262263670Y-98556291D01*
X262250505Y-98656291D01*
X262244750Y-98700000D01*
X262262474Y-98834628D01*
X262263670Y-98843708D01*
X262263671Y-98843712D01*
X262319137Y-98977622D01*
X262319138Y-98977623D01*
X262319139Y-98977625D01*
X262407379Y-99092621D01*
X262522375Y-99180861D01*
X262522376Y-99180861D01*
X262522377Y-99180862D01*
X262567013Y-99199350D01*
X262656291Y-99236330D01*
X262783280Y-99253048D01*
X262799999Y-99255250D01*
X262799999Y-99255249D01*
X262800000Y-99255250D01*
X262855741Y-99247911D01*
X262924775Y-99258676D01*
X262977031Y-99305055D01*
X262995917Y-99372324D01*
X262975437Y-99439125D01*
X262970302Y-99446336D01*
X262944139Y-99480432D01*
X262944138Y-99480434D01*
X262888671Y-99614345D01*
X262888670Y-99614349D01*
X262869750Y-99758058D01*
X262888243Y-99898527D01*
X262888670Y-99901766D01*
X262888671Y-99901770D01*
X262944137Y-100035680D01*
X262944138Y-100035682D01*
X262944139Y-100035683D01*
X263032379Y-100150679D01*
X263147375Y-100238919D01*
X263147376Y-100238919D01*
X263147377Y-100238920D01*
X263184241Y-100254189D01*
X263281291Y-100294388D01*
X263397451Y-100309681D01*
X263424999Y-100313308D01*
X263425000Y-100313308D01*
X263425001Y-100313308D01*
X263460679Y-100308610D01*
X263534314Y-100298916D01*
X263603349Y-100309681D01*
X263655605Y-100356061D01*
X263674500Y-100421855D01*
X263674500Y-100872389D01*
X263654815Y-100939428D01*
X263638181Y-100960070D01*
X263151472Y-101446778D01*
X263140510Y-101468293D01*
X263130346Y-101484878D01*
X263116152Y-101504414D01*
X263116151Y-101504417D01*
X263108688Y-101527385D01*
X263101243Y-101545358D01*
X263090280Y-101566873D01*
X263086503Y-101590722D01*
X263081962Y-101609639D01*
X263074500Y-101632604D01*
X263074500Y-103628273D01*
X263054815Y-103695312D01*
X263002011Y-103741067D01*
X262997952Y-103742834D01*
X262922378Y-103774137D01*
X262922375Y-103774138D01*
X262922375Y-103774139D01*
X262844482Y-103833909D01*
X262807379Y-103862379D01*
X262719137Y-103977377D01*
X262663671Y-104111287D01*
X262663670Y-104111291D01*
X262644750Y-104254999D01*
X262644750Y-104255002D01*
X262648227Y-104281416D01*
X262637461Y-104350451D01*
X262612969Y-104385281D01*
X261561888Y-105436364D01*
X261500565Y-105469849D01*
X261474207Y-105472683D01*
X259738015Y-105472683D01*
X259670976Y-105452998D01*
X259650334Y-105436364D01*
X259563623Y-105349653D01*
X259542108Y-105338691D01*
X259525515Y-105328523D01*
X259505985Y-105314333D01*
X259505983Y-105314332D01*
X259502954Y-105313348D01*
X259499746Y-105311154D01*
X259497292Y-105309904D01*
X259497453Y-105309586D01*
X259445280Y-105273909D01*
X259418085Y-105209549D01*
X259430002Y-105140703D01*
X259453592Y-105107743D01*
X259919510Y-104641823D01*
X259939373Y-104625694D01*
X259947140Y-104620620D01*
X259964971Y-104597708D01*
X259973999Y-104587487D01*
X259974837Y-104586497D01*
X259974846Y-104586489D01*
X259986041Y-104570807D01*
X259989052Y-104566769D01*
X260018988Y-104528309D01*
X260018989Y-104528305D01*
X260022484Y-104521846D01*
X260025707Y-104515253D01*
X260025711Y-104515249D01*
X260039609Y-104468565D01*
X260041145Y-104463766D01*
X260056971Y-104417671D01*
X260056971Y-104417664D01*
X260058177Y-104410437D01*
X260059088Y-104403134D01*
X260057077Y-104354504D01*
X260056971Y-104349380D01*
X260056971Y-104055677D01*
X260059610Y-104030231D01*
X260061513Y-104021156D01*
X260057922Y-103992354D01*
X260057074Y-103978679D01*
X260056971Y-103977441D01*
X260056971Y-103977431D01*
X260053799Y-103958430D01*
X260053065Y-103953386D01*
X260052705Y-103950500D01*
X260047044Y-103905078D01*
X260047043Y-103905075D01*
X260044948Y-103898037D01*
X260042563Y-103891089D01*
X260019399Y-103848288D01*
X260017050Y-103843725D01*
X260014579Y-103838671D01*
X259995669Y-103799987D01*
X259995667Y-103799985D01*
X259991397Y-103794005D01*
X259986891Y-103788216D01*
X259986890Y-103788215D01*
X259986889Y-103788213D01*
X259951058Y-103755228D01*
X259947385Y-103751703D01*
X258795682Y-102600000D01*
X260044750Y-102600000D01*
X260057915Y-102700000D01*
X260063670Y-102743708D01*
X260063671Y-102743712D01*
X260119137Y-102877622D01*
X260119138Y-102877624D01*
X260119139Y-102877625D01*
X260207379Y-102992621D01*
X260322375Y-103080861D01*
X260322376Y-103080861D01*
X260322377Y-103080862D01*
X260367013Y-103099350D01*
X260456291Y-103136330D01*
X260583280Y-103153048D01*
X260599999Y-103155250D01*
X260600000Y-103155250D01*
X260600001Y-103155250D01*
X260614977Y-103153278D01*
X260743709Y-103136330D01*
X260877625Y-103080861D01*
X260992621Y-102992621D01*
X261080861Y-102877625D01*
X261136330Y-102743709D01*
X261155250Y-102600000D01*
X261136330Y-102456291D01*
X261085083Y-102332567D01*
X261080862Y-102322377D01*
X261080861Y-102322376D01*
X261080861Y-102322375D01*
X260992621Y-102207379D01*
X260877625Y-102119139D01*
X260877624Y-102119138D01*
X260877622Y-102119137D01*
X260743712Y-102063671D01*
X260743710Y-102063670D01*
X260743709Y-102063670D01*
X260671854Y-102054210D01*
X260600001Y-102044750D01*
X260599999Y-102044750D01*
X260456291Y-102063670D01*
X260456287Y-102063671D01*
X260322377Y-102119137D01*
X260207379Y-102207379D01*
X260119137Y-102322377D01*
X260063671Y-102456287D01*
X260063670Y-102456291D01*
X260047038Y-102582625D01*
X260044750Y-102600000D01*
X258795682Y-102600000D01*
X258186819Y-101991137D01*
X258153334Y-101929814D01*
X258150500Y-101903456D01*
X258150500Y-100900682D01*
X258153139Y-100875235D01*
X258155043Y-100866156D01*
X258151452Y-100837348D01*
X258150602Y-100823663D01*
X258150501Y-100822441D01*
X258150500Y-100822435D01*
X258150500Y-100822431D01*
X258147330Y-100803437D01*
X258146595Y-100798389D01*
X258145257Y-100787659D01*
X258140573Y-100750078D01*
X258138476Y-100743038D01*
X258136092Y-100736093D01*
X258136092Y-100736090D01*
X258112924Y-100693281D01*
X258110579Y-100688725D01*
X258089199Y-100644989D01*
X258084926Y-100639005D01*
X258074107Y-100625104D01*
X258075483Y-100624032D01*
X258075227Y-100623618D01*
X258075171Y-100623513D01*
X258075859Y-100623145D01*
X258047767Y-100576397D01*
X258049869Y-100506559D01*
X258089395Y-100448944D01*
X258120281Y-100430501D01*
X258240125Y-100380861D01*
X258355121Y-100292621D01*
X258443361Y-100177625D01*
X258498830Y-100043709D01*
X258517750Y-99900000D01*
X258498830Y-99756291D01*
X258450203Y-99638893D01*
X258443362Y-99622377D01*
X258443361Y-99622376D01*
X258443361Y-99622375D01*
X258355121Y-99507379D01*
X258240125Y-99419139D01*
X258240124Y-99419138D01*
X258240122Y-99419137D01*
X258106212Y-99363671D01*
X258106210Y-99363670D01*
X258106209Y-99363670D01*
X258034354Y-99354210D01*
X257962501Y-99344750D01*
X257962499Y-99344750D01*
X257818791Y-99363670D01*
X257818787Y-99363671D01*
X257684877Y-99419137D01*
X257604994Y-99480434D01*
X257571798Y-99505907D01*
X257569874Y-99507383D01*
X257564132Y-99513126D01*
X257562244Y-99511238D01*
X257516435Y-99544681D01*
X257446688Y-99548828D01*
X257385772Y-99514609D01*
X257353026Y-99452888D01*
X257350500Y-99427987D01*
X257350500Y-98800000D01*
X260344750Y-98800000D01*
X260363670Y-98943708D01*
X260363671Y-98943712D01*
X260419137Y-99077622D01*
X260419138Y-99077624D01*
X260419139Y-99077625D01*
X260507379Y-99192621D01*
X260622375Y-99280861D01*
X260622376Y-99280861D01*
X260622377Y-99280862D01*
X260649388Y-99292050D01*
X260756291Y-99336330D01*
X260883280Y-99353048D01*
X260899999Y-99355250D01*
X260900000Y-99355250D01*
X260900001Y-99355250D01*
X260914977Y-99353278D01*
X261043709Y-99336330D01*
X261177625Y-99280861D01*
X261292621Y-99192621D01*
X261380861Y-99077625D01*
X261436330Y-98943709D01*
X261455250Y-98800000D01*
X261436330Y-98656291D01*
X261380861Y-98522375D01*
X261292621Y-98407379D01*
X261177625Y-98319139D01*
X261177624Y-98319138D01*
X261177622Y-98319137D01*
X261043712Y-98263671D01*
X261043710Y-98263670D01*
X261043709Y-98263670D01*
X260971854Y-98254210D01*
X260900001Y-98244750D01*
X260899999Y-98244750D01*
X260756291Y-98263670D01*
X260756287Y-98263671D01*
X260622377Y-98319137D01*
X260507379Y-98407379D01*
X260419137Y-98522377D01*
X260363671Y-98656287D01*
X260363670Y-98656291D01*
X260344750Y-98799999D01*
X260344750Y-98800000D01*
X257350500Y-98800000D01*
X257350500Y-98149212D01*
X257353139Y-98123765D01*
X257355043Y-98114686D01*
X257351452Y-98085878D01*
X257350604Y-98072222D01*
X257350499Y-98070953D01*
X257347927Y-98055544D01*
X257347330Y-98051971D01*
X257346597Y-98046941D01*
X257340573Y-97998608D01*
X257340570Y-97998603D01*
X257338475Y-97991566D01*
X257336092Y-97984622D01*
X257336092Y-97984619D01*
X257312920Y-97941802D01*
X257310576Y-97937247D01*
X257289198Y-97893516D01*
X257284935Y-97887546D01*
X257280417Y-97881741D01*
X257244587Y-97848757D01*
X257240890Y-97845209D01*
X256386819Y-96991137D01*
X256353334Y-96929814D01*
X256350500Y-96903456D01*
X256350500Y-96241404D01*
X256370185Y-96174365D01*
X256422989Y-96128610D01*
X256492147Y-96118666D01*
X256555703Y-96147691D01*
X256589061Y-96193952D01*
X256619462Y-96267349D01*
X256619463Y-96267351D01*
X256619464Y-96267352D01*
X256707704Y-96382348D01*
X256822700Y-96470588D01*
X256956616Y-96526057D01*
X257083605Y-96542775D01*
X257100324Y-96544977D01*
X257100325Y-96544977D01*
X257100326Y-96544977D01*
X257115302Y-96543005D01*
X257244034Y-96526057D01*
X257377950Y-96470588D01*
X257492946Y-96382348D01*
X257581186Y-96267352D01*
X257636655Y-96133436D01*
X257650050Y-96031692D01*
X257678315Y-95967798D01*
X257736640Y-95929327D01*
X257806504Y-95928495D01*
X257865728Y-95965568D01*
X257871363Y-95972393D01*
X257884664Y-95989727D01*
X257907379Y-96019329D01*
X258022375Y-96107569D01*
X258156291Y-96163038D01*
X258283280Y-96179756D01*
X258299999Y-96181958D01*
X258300000Y-96181958D01*
X258300001Y-96181958D01*
X258314977Y-96179986D01*
X258443709Y-96163038D01*
X258526214Y-96128863D01*
X258595679Y-96121395D01*
X258658158Y-96152670D01*
X258693811Y-96212758D01*
X258691318Y-96282583D01*
X258672045Y-96318903D01*
X258668622Y-96323364D01*
X258668618Y-96323371D01*
X258613151Y-96457282D01*
X258613150Y-96457286D01*
X258598126Y-96571406D01*
X258594230Y-96600995D01*
X258604672Y-96680312D01*
X258613150Y-96744703D01*
X258613151Y-96744707D01*
X258668617Y-96878617D01*
X258668618Y-96878619D01*
X258668619Y-96878620D01*
X258756859Y-96993616D01*
X258871855Y-97081856D01*
X258963915Y-97119988D01*
X259018317Y-97163827D01*
X259040383Y-97230121D01*
X259039401Y-97250733D01*
X259020721Y-97392621D01*
X259019750Y-97400000D01*
X259037698Y-97536329D01*
X259038670Y-97543708D01*
X259038671Y-97543712D01*
X259094137Y-97677622D01*
X259094138Y-97677624D01*
X259094139Y-97677625D01*
X259182379Y-97792621D01*
X259297375Y-97880861D01*
X259297376Y-97880861D01*
X259297377Y-97880862D01*
X259333212Y-97895705D01*
X259431291Y-97936330D01*
X259558280Y-97953048D01*
X259574999Y-97955250D01*
X259575000Y-97955250D01*
X259575001Y-97955250D01*
X259589977Y-97953278D01*
X259718709Y-97936330D01*
X259852625Y-97880861D01*
X259967621Y-97792621D01*
X260055861Y-97677625D01*
X260111330Y-97543709D01*
X260130250Y-97400000D01*
X260111330Y-97256291D01*
X260064697Y-97143708D01*
X260055862Y-97122377D01*
X260055861Y-97122376D01*
X260055861Y-97122375D01*
X259967621Y-97007379D01*
X259852625Y-96919139D01*
X259852623Y-96919138D01*
X259760564Y-96881006D01*
X259706161Y-96837165D01*
X259684096Y-96770871D01*
X259685078Y-96750259D01*
X259685809Y-96744706D01*
X259685810Y-96744704D01*
X259704730Y-96600995D01*
X259685810Y-96457286D01*
X259631607Y-96326426D01*
X259630342Y-96323372D01*
X259630341Y-96323371D01*
X259630341Y-96323370D01*
X259542101Y-96208374D01*
X259427105Y-96120134D01*
X259427104Y-96120133D01*
X259427102Y-96120132D01*
X259293192Y-96064666D01*
X259293190Y-96064665D01*
X259293189Y-96064665D01*
X259221334Y-96055205D01*
X259149481Y-96045745D01*
X259149479Y-96045745D01*
X259005771Y-96064665D01*
X259005767Y-96064666D01*
X258923268Y-96098838D01*
X258853799Y-96106307D01*
X258791320Y-96075031D01*
X258755668Y-96014942D01*
X258758162Y-95945117D01*
X258777439Y-95908792D01*
X258780861Y-95904333D01*
X258836330Y-95770417D01*
X258855250Y-95626708D01*
X258854955Y-95624471D01*
X258848926Y-95578673D01*
X258836330Y-95482999D01*
X258780861Y-95349083D01*
X258692621Y-95234087D01*
X258642004Y-95195247D01*
X258612849Y-95172875D01*
X258571647Y-95116447D01*
X258567492Y-95046701D01*
X258601705Y-94985781D01*
X258663422Y-94953029D01*
X258688336Y-94950500D01*
X260250789Y-94950500D01*
X260276234Y-94953138D01*
X260285315Y-94955043D01*
X260310673Y-94951881D01*
X260314123Y-94951452D01*
X260327764Y-94950605D01*
X260329026Y-94950500D01*
X260329040Y-94950500D01*
X260337071Y-94949159D01*
X260348014Y-94947334D01*
X260353063Y-94946597D01*
X260401393Y-94940573D01*
X260401399Y-94940569D01*
X260408456Y-94938468D01*
X260415377Y-94936092D01*
X260415381Y-94936092D01*
X260458216Y-94912909D01*
X260462729Y-94910586D01*
X260506484Y-94889198D01*
X260506486Y-94889195D01*
X260512461Y-94884929D01*
X260518256Y-94880419D01*
X260518255Y-94880419D01*
X260518258Y-94880418D01*
X260551254Y-94844572D01*
X260554756Y-94840924D01*
X262195679Y-93200000D01*
X265919892Y-93200000D01*
X265938282Y-93398464D01*
X265938282Y-93398466D01*
X265938283Y-93398469D01*
X265985354Y-93563908D01*
X265992830Y-93590183D01*
X266081670Y-93768598D01*
X266081675Y-93768606D01*
X266201792Y-93927666D01*
X266271416Y-93991136D01*
X266349090Y-94061945D01*
X266478160Y-94141862D01*
X266501463Y-94156291D01*
X266518554Y-94166873D01*
X266704414Y-94238876D01*
X266900340Y-94275500D01*
X266900342Y-94275500D01*
X267099658Y-94275500D01*
X267099660Y-94275500D01*
X267295586Y-94238876D01*
X267481446Y-94166873D01*
X267650910Y-94061945D01*
X267777627Y-93946426D01*
X267798207Y-93927666D01*
X267806266Y-93916995D01*
X267918326Y-93768604D01*
X268007171Y-93590180D01*
X268061717Y-93398469D01*
X268080108Y-93200000D01*
X268061717Y-93001531D01*
X268007171Y-92809820D01*
X267981610Y-92758487D01*
X267918329Y-92631401D01*
X267918324Y-92631393D01*
X267798207Y-92472333D01*
X267650911Y-92338056D01*
X267650910Y-92338055D01*
X267569458Y-92287622D01*
X267481447Y-92233127D01*
X267481445Y-92233126D01*
X267383055Y-92195010D01*
X267295586Y-92161124D01*
X267295582Y-92161123D01*
X267216639Y-92146366D01*
X267099660Y-92124500D01*
X266900340Y-92124500D01*
X266810254Y-92141339D01*
X266704417Y-92161123D01*
X266704415Y-92161123D01*
X266704414Y-92161124D01*
X266681508Y-92169998D01*
X266518554Y-92233126D01*
X266518552Y-92233127D01*
X266349088Y-92338056D01*
X266201792Y-92472333D01*
X266081675Y-92631393D01*
X266081670Y-92631401D01*
X265992830Y-92809816D01*
X265988444Y-92825231D01*
X265940819Y-92992620D01*
X265938282Y-93001535D01*
X265919892Y-93199999D01*
X265919892Y-93200000D01*
X262195679Y-93200000D01*
X262413043Y-92982636D01*
X262432894Y-92966516D01*
X262440669Y-92961437D01*
X262458500Y-92938525D01*
X262467528Y-92928304D01*
X262468366Y-92927314D01*
X262468375Y-92927306D01*
X262479570Y-92911624D01*
X262482581Y-92907586D01*
X262512517Y-92869126D01*
X262512518Y-92869122D01*
X262516013Y-92862663D01*
X262519236Y-92856070D01*
X262519240Y-92856066D01*
X262533138Y-92809382D01*
X262534674Y-92804583D01*
X262550500Y-92758488D01*
X262550500Y-92758481D01*
X262551706Y-92751254D01*
X262552617Y-92743951D01*
X262550606Y-92695321D01*
X262550500Y-92690197D01*
X262550500Y-90700000D01*
X265919892Y-90700000D01*
X265938282Y-90898464D01*
X265938282Y-90898466D01*
X265938283Y-90898469D01*
X265992829Y-91090180D01*
X265992830Y-91090183D01*
X266081670Y-91268598D01*
X266081675Y-91268606D01*
X266201792Y-91427666D01*
X266328508Y-91543182D01*
X266349090Y-91561945D01*
X266518554Y-91666873D01*
X266704414Y-91738876D01*
X266900340Y-91775500D01*
X266900342Y-91775500D01*
X267099658Y-91775500D01*
X267099660Y-91775500D01*
X267295586Y-91738876D01*
X267481446Y-91666873D01*
X267650910Y-91561945D01*
X267798209Y-91427664D01*
X267918326Y-91268604D01*
X268007171Y-91090180D01*
X268061717Y-90898469D01*
X268080108Y-90700000D01*
X268079887Y-90697620D01*
X268064078Y-90527010D01*
X268061717Y-90501531D01*
X268007171Y-90309820D01*
X268005759Y-90306984D01*
X267918329Y-90131401D01*
X267918324Y-90131393D01*
X267798207Y-89972333D01*
X267650911Y-89838056D01*
X267650910Y-89838055D01*
X267541297Y-89770185D01*
X267481447Y-89733127D01*
X267481445Y-89733126D01*
X267399379Y-89701334D01*
X267295586Y-89661124D01*
X267295582Y-89661123D01*
X267216639Y-89646366D01*
X267099660Y-89624500D01*
X266900340Y-89624500D01*
X266813841Y-89640669D01*
X266704417Y-89661123D01*
X266704415Y-89661123D01*
X266704414Y-89661124D01*
X266661828Y-89677622D01*
X266518554Y-89733126D01*
X266518552Y-89733127D01*
X266349088Y-89838056D01*
X266201792Y-89972333D01*
X266081675Y-90131393D01*
X266081670Y-90131401D01*
X265992830Y-90309816D01*
X265938282Y-90501535D01*
X265919892Y-90699999D01*
X265919892Y-90700000D01*
X262550500Y-90700000D01*
X262550500Y-88200000D01*
X265919892Y-88200000D01*
X265938282Y-88398464D01*
X265938282Y-88398466D01*
X265938283Y-88398469D01*
X265982854Y-88555120D01*
X265992830Y-88590183D01*
X266081670Y-88768598D01*
X266081675Y-88768606D01*
X266201792Y-88927666D01*
X266320991Y-89036329D01*
X266349090Y-89061945D01*
X266518554Y-89166873D01*
X266704414Y-89238876D01*
X266900340Y-89275500D01*
X266900342Y-89275500D01*
X267099658Y-89275500D01*
X267099660Y-89275500D01*
X267295586Y-89238876D01*
X267481446Y-89166873D01*
X267650910Y-89061945D01*
X267798209Y-88927664D01*
X267918326Y-88768604D01*
X268007171Y-88590180D01*
X268061717Y-88398469D01*
X268080108Y-88200000D01*
X268061717Y-88001531D01*
X268007171Y-87809820D01*
X267974253Y-87743712D01*
X267918329Y-87631401D01*
X267918324Y-87631393D01*
X267798207Y-87472333D01*
X267650911Y-87338056D01*
X267650910Y-87338055D01*
X267553308Y-87277622D01*
X267481447Y-87233127D01*
X267481445Y-87233126D01*
X267395933Y-87199999D01*
X267295586Y-87161124D01*
X267295582Y-87161123D01*
X267216639Y-87146366D01*
X267099660Y-87124500D01*
X266900340Y-87124500D01*
X266810254Y-87141339D01*
X266704417Y-87161123D01*
X266704415Y-87161123D01*
X266704414Y-87161124D01*
X266652517Y-87181229D01*
X266518554Y-87233126D01*
X266518552Y-87233127D01*
X266349088Y-87338056D01*
X266201792Y-87472333D01*
X266081675Y-87631393D01*
X266081670Y-87631401D01*
X265992830Y-87809816D01*
X265980914Y-87851696D01*
X265939816Y-87996145D01*
X265938282Y-88001535D01*
X265919892Y-88199999D01*
X265919892Y-88200000D01*
X262550500Y-88200000D01*
X262550500Y-85463797D01*
X262570185Y-85396758D01*
X262622989Y-85351003D01*
X262690685Y-85340858D01*
X262800000Y-85355250D01*
X262800308Y-85355209D01*
X262800569Y-85355250D01*
X262808128Y-85355250D01*
X262808128Y-85356427D01*
X262869343Y-85365966D01*
X262921604Y-85412340D01*
X262940497Y-85479607D01*
X262938397Y-85500921D01*
X262938282Y-85501531D01*
X262919892Y-85699999D01*
X262919892Y-85700000D01*
X262938282Y-85898464D01*
X262938282Y-85898466D01*
X262938283Y-85898469D01*
X262978425Y-86039555D01*
X262992830Y-86090183D01*
X263081670Y-86268598D01*
X263081675Y-86268606D01*
X263201792Y-86427666D01*
X263294416Y-86512103D01*
X263349090Y-86561945D01*
X263478160Y-86641862D01*
X263513382Y-86663671D01*
X263518554Y-86666873D01*
X263704414Y-86738876D01*
X263900340Y-86775500D01*
X263900342Y-86775500D01*
X264099658Y-86775500D01*
X264099660Y-86775500D01*
X264295586Y-86738876D01*
X264481446Y-86666873D01*
X264650910Y-86561945D01*
X264798209Y-86427664D01*
X264918326Y-86268604D01*
X265007171Y-86090180D01*
X265061717Y-85898469D01*
X265080108Y-85700000D01*
X265919892Y-85700000D01*
X265938282Y-85898464D01*
X265938282Y-85898466D01*
X265938283Y-85898469D01*
X265978425Y-86039555D01*
X265992830Y-86090183D01*
X266081670Y-86268598D01*
X266081675Y-86268606D01*
X266201792Y-86427666D01*
X266294416Y-86512103D01*
X266349090Y-86561945D01*
X266478160Y-86641862D01*
X266513382Y-86663671D01*
X266518554Y-86666873D01*
X266704414Y-86738876D01*
X266900340Y-86775500D01*
X266900342Y-86775500D01*
X267099658Y-86775500D01*
X267099660Y-86775500D01*
X267295586Y-86738876D01*
X267481446Y-86666873D01*
X267650910Y-86561945D01*
X267798209Y-86427664D01*
X267918326Y-86268604D01*
X268007171Y-86090180D01*
X268061717Y-85898469D01*
X268080108Y-85700000D01*
X268061717Y-85501531D01*
X268007171Y-85309820D01*
X267977944Y-85251125D01*
X267918329Y-85131401D01*
X267918324Y-85131393D01*
X267798207Y-84972333D01*
X267650911Y-84838056D01*
X267650910Y-84838055D01*
X267579368Y-84793758D01*
X267481447Y-84733127D01*
X267481445Y-84733126D01*
X267366385Y-84688552D01*
X267295586Y-84661124D01*
X267295582Y-84661123D01*
X267207894Y-84644732D01*
X267099660Y-84624500D01*
X266900340Y-84624500D01*
X266810254Y-84641339D01*
X266704417Y-84661123D01*
X266704415Y-84661123D01*
X266704414Y-84661124D01*
X266675989Y-84672136D01*
X266518554Y-84733126D01*
X266518552Y-84733127D01*
X266349088Y-84838056D01*
X266201792Y-84972333D01*
X266081675Y-85131393D01*
X266081670Y-85131401D01*
X265992830Y-85309816D01*
X265979915Y-85355209D01*
X265953788Y-85447038D01*
X265938282Y-85501535D01*
X265919892Y-85699999D01*
X265919892Y-85700000D01*
X265080108Y-85700000D01*
X265061717Y-85501531D01*
X265007171Y-85309820D01*
X264977944Y-85251125D01*
X264918329Y-85131401D01*
X264918324Y-85131393D01*
X264798207Y-84972333D01*
X264650911Y-84838056D01*
X264650910Y-84838055D01*
X264579368Y-84793758D01*
X264481447Y-84733127D01*
X264481445Y-84733126D01*
X264366385Y-84688552D01*
X264295586Y-84661124D01*
X264295582Y-84661123D01*
X264207894Y-84644732D01*
X264099660Y-84624500D01*
X263900340Y-84624500D01*
X263810254Y-84641339D01*
X263704417Y-84661123D01*
X263704415Y-84661123D01*
X263704414Y-84661124D01*
X263633615Y-84688552D01*
X263518556Y-84733126D01*
X263513428Y-84735680D01*
X263512446Y-84733708D01*
X263454374Y-84749681D01*
X263387683Y-84728846D01*
X263342843Y-84675262D01*
X263336733Y-84657794D01*
X263336330Y-84656291D01*
X263280862Y-84522377D01*
X263280861Y-84522376D01*
X263280861Y-84522375D01*
X263192621Y-84407379D01*
X263077625Y-84319139D01*
X263077624Y-84319138D01*
X263077622Y-84319137D01*
X262943712Y-84263671D01*
X262943710Y-84263670D01*
X262943709Y-84263670D01*
X262871854Y-84254210D01*
X262800001Y-84244750D01*
X262799998Y-84244750D01*
X262690685Y-84259141D01*
X262621650Y-84248375D01*
X262569394Y-84201995D01*
X262550500Y-84136202D01*
X262550500Y-83200000D01*
X262919892Y-83200000D01*
X262938282Y-83398464D01*
X262938282Y-83398466D01*
X262938283Y-83398469D01*
X262972169Y-83517566D01*
X262992830Y-83590183D01*
X263081670Y-83768598D01*
X263081675Y-83768606D01*
X263201792Y-83927666D01*
X263282196Y-84000963D01*
X263349090Y-84061945D01*
X263518554Y-84166873D01*
X263704414Y-84238876D01*
X263900340Y-84275500D01*
X263900342Y-84275500D01*
X264099658Y-84275500D01*
X264099660Y-84275500D01*
X264295586Y-84238876D01*
X264481446Y-84166873D01*
X264650910Y-84061945D01*
X264798209Y-83927664D01*
X264918326Y-83768604D01*
X265007171Y-83590180D01*
X265061717Y-83398469D01*
X265080108Y-83200000D01*
X265078334Y-83180861D01*
X265070185Y-83092912D01*
X265061717Y-83001531D01*
X265007171Y-82809820D01*
X264958584Y-82712244D01*
X264918329Y-82631401D01*
X264918324Y-82631393D01*
X264798207Y-82472333D01*
X264650911Y-82338056D01*
X264650910Y-82338055D01*
X264572772Y-82289674D01*
X264481447Y-82233127D01*
X264481445Y-82233126D01*
X264395933Y-82199999D01*
X264295586Y-82161124D01*
X264295582Y-82161123D01*
X264213779Y-82145832D01*
X264099660Y-82124500D01*
X263900340Y-82124500D01*
X263810254Y-82141339D01*
X263704417Y-82161123D01*
X263704415Y-82161123D01*
X263704414Y-82161124D01*
X263662628Y-82177312D01*
X263518554Y-82233126D01*
X263518552Y-82233127D01*
X263349088Y-82338056D01*
X263201792Y-82472333D01*
X263081675Y-82631393D01*
X263081670Y-82631401D01*
X262992830Y-82809816D01*
X262938282Y-83001535D01*
X262919892Y-83199999D01*
X262919892Y-83200000D01*
X262550500Y-83200000D01*
X262550500Y-79249211D01*
X262553139Y-79223764D01*
X262555043Y-79214685D01*
X262551452Y-79185877D01*
X262550602Y-79172192D01*
X262550501Y-79170970D01*
X262550500Y-79170964D01*
X262550500Y-79170960D01*
X262547330Y-79151966D01*
X262546595Y-79146918D01*
X262540573Y-79098607D01*
X262538476Y-79091567D01*
X262536092Y-79084622D01*
X262536092Y-79084619D01*
X262512924Y-79041810D01*
X262510579Y-79037254D01*
X262497764Y-79011040D01*
X262489198Y-78993516D01*
X262489196Y-78993514D01*
X262484926Y-78987534D01*
X262480420Y-78981745D01*
X262480419Y-78981744D01*
X262480418Y-78981742D01*
X262444587Y-78948757D01*
X262440914Y-78945232D01*
X261682637Y-78186955D01*
X261666511Y-78167098D01*
X261661437Y-78159331D01*
X261638524Y-78141497D01*
X261628248Y-78132422D01*
X261627309Y-78131627D01*
X261627307Y-78131625D01*
X261611651Y-78120447D01*
X261607544Y-78117385D01*
X261582624Y-78097989D01*
X261569126Y-78087483D01*
X261569124Y-78087482D01*
X261562640Y-78083973D01*
X261556067Y-78080759D01*
X261509409Y-78066868D01*
X261504532Y-78065306D01*
X261458484Y-78049498D01*
X261451287Y-78048297D01*
X261443951Y-78047382D01*
X261395332Y-78049394D01*
X261390207Y-78049500D01*
X256888506Y-78049500D01*
X256863060Y-78046861D01*
X256853980Y-78044957D01*
X256853979Y-78044957D01*
X256853978Y-78044957D01*
X256825172Y-78048548D01*
X256811506Y-78049396D01*
X256810260Y-78049499D01*
X256791255Y-78052669D01*
X256786198Y-78053405D01*
X256737902Y-78059426D01*
X256730865Y-78061520D01*
X256723914Y-78063907D01*
X256681104Y-78087074D01*
X256676553Y-78089417D01*
X256632808Y-78110804D01*
X256626815Y-78115081D01*
X256621037Y-78119580D01*
X256588052Y-78155410D01*
X256584506Y-78159106D01*
X256079621Y-78663992D01*
X256018298Y-78697477D01*
X255991940Y-78700311D01*
X255400818Y-78700311D01*
X255388933Y-78696821D01*
X255380799Y-78699925D01*
X255371023Y-78700311D01*
X255179270Y-78700311D01*
X255112231Y-78680626D01*
X255066476Y-78627822D01*
X255056532Y-78558664D01*
X255085557Y-78495108D01*
X255091589Y-78488630D01*
X255095354Y-78484865D01*
X255097869Y-78487380D01*
X255141169Y-78455787D01*
X255183078Y-78448490D01*
X255352799Y-78448490D01*
X255378244Y-78451128D01*
X255387325Y-78453033D01*
X255413067Y-78449824D01*
X255416133Y-78449442D01*
X255429774Y-78448595D01*
X255431036Y-78448490D01*
X255431050Y-78448490D01*
X255439081Y-78447149D01*
X255450024Y-78445324D01*
X255455073Y-78444587D01*
X255503403Y-78438563D01*
X255503409Y-78438559D01*
X255510466Y-78436458D01*
X255517387Y-78434082D01*
X255517391Y-78434082D01*
X255560226Y-78410899D01*
X255564739Y-78408576D01*
X255608494Y-78387188D01*
X255608496Y-78387185D01*
X255614471Y-78382919D01*
X255620266Y-78378409D01*
X255620265Y-78378409D01*
X255620268Y-78378408D01*
X255653264Y-78342562D01*
X255656766Y-78338914D01*
X256363046Y-77632634D01*
X256382902Y-77616511D01*
X256390669Y-77611437D01*
X256408496Y-77588531D01*
X256417550Y-77578281D01*
X256418362Y-77577319D01*
X256418376Y-77577306D01*
X256429570Y-77561626D01*
X256432615Y-77557543D01*
X256462514Y-77519130D01*
X256462514Y-77519129D01*
X256462517Y-77519126D01*
X256462518Y-77519121D01*
X256466016Y-77512657D01*
X256469236Y-77506070D01*
X256469240Y-77506066D01*
X256483131Y-77459404D01*
X256484686Y-77454550D01*
X256488850Y-77442421D01*
X256500500Y-77408488D01*
X256500500Y-77408483D01*
X256501705Y-77401258D01*
X256502617Y-77393950D01*
X256500606Y-77345320D01*
X256500500Y-77340196D01*
X256500500Y-75986092D01*
X256520185Y-75919053D01*
X256538114Y-75899609D01*
X256536874Y-75898369D01*
X256542619Y-75892623D01*
X256542621Y-75892621D01*
X256630861Y-75777625D01*
X256686330Y-75643709D01*
X256705250Y-75500000D01*
X256704952Y-75497740D01*
X256699358Y-75455250D01*
X256686330Y-75356291D01*
X256630861Y-75222375D01*
X256613692Y-75200000D01*
X265807087Y-75200000D01*
X265826720Y-75524589D01*
X265826720Y-75524594D01*
X265826721Y-75524595D01*
X265885338Y-75844456D01*
X265885339Y-75844460D01*
X265885340Y-75844464D01*
X265982076Y-76154901D01*
X265982080Y-76154912D01*
X265982081Y-76154915D01*
X265982083Y-76154920D01*
X266115544Y-76451459D01*
X266248177Y-76670861D01*
X266283781Y-76729757D01*
X266484328Y-76985735D01*
X266714264Y-77215671D01*
X266970242Y-77416218D01*
X266970247Y-77416221D01*
X266970251Y-77416224D01*
X267248541Y-77584456D01*
X267545080Y-77717917D01*
X267545090Y-77717920D01*
X267545098Y-77717923D01*
X267691909Y-77763671D01*
X267855544Y-77814662D01*
X268175405Y-77873279D01*
X268500000Y-77892913D01*
X268824595Y-77873279D01*
X269144456Y-77814662D01*
X269412905Y-77731009D01*
X269454901Y-77717923D01*
X269454902Y-77717922D01*
X269454920Y-77717917D01*
X269751459Y-77584456D01*
X270029749Y-77416224D01*
X270039624Y-77408488D01*
X270123523Y-77342757D01*
X270285732Y-77215674D01*
X270515674Y-76985732D01*
X270716224Y-76729749D01*
X270884456Y-76451459D01*
X271017917Y-76154920D01*
X271114662Y-75844456D01*
X271173279Y-75524595D01*
X271192913Y-75200000D01*
X271173279Y-74875405D01*
X271114662Y-74555544D01*
X271072156Y-74419137D01*
X271017923Y-74245098D01*
X271017919Y-74245087D01*
X271017917Y-74245080D01*
X270884456Y-73948541D01*
X270716224Y-73670251D01*
X270716221Y-73670247D01*
X270716218Y-73670242D01*
X270515671Y-73414264D01*
X270285735Y-73184328D01*
X270029757Y-72983781D01*
X270015766Y-72975323D01*
X269751459Y-72815544D01*
X269454920Y-72682083D01*
X269454915Y-72682081D01*
X269454912Y-72682080D01*
X269454901Y-72682076D01*
X269144464Y-72585340D01*
X269144460Y-72585339D01*
X269144456Y-72585338D01*
X268824595Y-72526721D01*
X268824594Y-72526720D01*
X268824589Y-72526720D01*
X268500000Y-72507087D01*
X268175410Y-72526720D01*
X268122976Y-72536329D01*
X267855544Y-72585338D01*
X267855541Y-72585338D01*
X267855535Y-72585340D01*
X267545098Y-72682076D01*
X267545087Y-72682080D01*
X267248545Y-72815542D01*
X267248543Y-72815543D01*
X266970242Y-72983781D01*
X266714264Y-73184328D01*
X266484328Y-73414264D01*
X266283781Y-73670242D01*
X266115543Y-73948543D01*
X266115542Y-73948545D01*
X266081054Y-74025174D01*
X265983634Y-74241635D01*
X265982080Y-74245087D01*
X265982076Y-74245098D01*
X265885340Y-74555535D01*
X265885338Y-74555541D01*
X265885338Y-74555544D01*
X265851584Y-74739732D01*
X265826720Y-74875410D01*
X265807087Y-75200000D01*
X256613692Y-75200000D01*
X256542621Y-75107379D01*
X256427625Y-75019139D01*
X256413546Y-75013307D01*
X256382236Y-75000338D01*
X256327832Y-74956496D01*
X256305768Y-74890202D01*
X256323048Y-74822503D01*
X256331308Y-74810297D01*
X256419458Y-74695420D01*
X256474927Y-74561504D01*
X256493847Y-74417795D01*
X256486623Y-74362925D01*
X256497388Y-74293891D01*
X256543768Y-74241635D01*
X256562098Y-74232183D01*
X256620173Y-74208129D01*
X256735169Y-74119889D01*
X256823409Y-74004893D01*
X256878878Y-73870977D01*
X256897798Y-73727268D01*
X256878878Y-73583559D01*
X256823409Y-73449643D01*
X256785231Y-73399889D01*
X256760038Y-73334722D01*
X256774076Y-73266277D01*
X256785226Y-73248925D01*
X256873361Y-73134067D01*
X256928830Y-73000151D01*
X256947750Y-72856442D01*
X256928830Y-72712733D01*
X256873361Y-72578817D01*
X256785121Y-72463821D01*
X256670125Y-72375581D01*
X256670124Y-72375580D01*
X256670122Y-72375579D01*
X256536212Y-72320113D01*
X256536210Y-72320112D01*
X256536209Y-72320112D01*
X256464354Y-72310652D01*
X256392501Y-72301192D01*
X256392499Y-72301192D01*
X256248791Y-72320112D01*
X256248787Y-72320113D01*
X256114877Y-72375579D01*
X255999879Y-72463821D01*
X255911637Y-72578819D01*
X255856171Y-72712729D01*
X255856170Y-72712733D01*
X255837250Y-72856441D01*
X255837250Y-72856442D01*
X255856170Y-73000150D01*
X255856171Y-73000154D01*
X255911637Y-73134064D01*
X255911638Y-73134066D01*
X255911639Y-73134067D01*
X255949816Y-73183820D01*
X255975010Y-73248986D01*
X255960972Y-73317431D01*
X255949816Y-73334791D01*
X255861687Y-73449642D01*
X255861686Y-73449644D01*
X255806219Y-73583555D01*
X255806218Y-73583559D01*
X255787298Y-73727267D01*
X255787298Y-73727270D01*
X255794521Y-73782137D01*
X255783755Y-73851173D01*
X255737375Y-73903428D01*
X255719036Y-73912883D01*
X255660972Y-73936934D01*
X255545976Y-74025174D01*
X255457734Y-74140172D01*
X255402268Y-74274082D01*
X255402267Y-74274086D01*
X255383347Y-74417795D01*
X255397115Y-74522375D01*
X255402267Y-74561503D01*
X255402268Y-74561507D01*
X255457734Y-74695417D01*
X255457735Y-74695418D01*
X255457736Y-74695420D01*
X255545976Y-74810416D01*
X255660972Y-74898656D01*
X255664217Y-74900000D01*
X255706359Y-74917456D01*
X255760763Y-74961297D01*
X255782828Y-75027591D01*
X255765549Y-75095290D01*
X255757283Y-75107503D01*
X255669139Y-75222374D01*
X255669138Y-75222376D01*
X255613671Y-75356287D01*
X255613670Y-75356291D01*
X255595048Y-75497740D01*
X255594750Y-75500000D01*
X255607915Y-75600000D01*
X255613670Y-75643708D01*
X255613671Y-75643712D01*
X255669138Y-75777623D01*
X255669139Y-75777625D01*
X255757380Y-75892623D01*
X255763126Y-75898369D01*
X255760574Y-75900920D01*
X255792091Y-75943873D01*
X255799500Y-75986092D01*
X255799500Y-76267584D01*
X255779815Y-76334623D01*
X255727011Y-76380378D01*
X255657853Y-76390322D01*
X255594297Y-76361297D01*
X255577126Y-76343073D01*
X255568357Y-76331645D01*
X255568356Y-76331644D01*
X255453360Y-76243404D01*
X255453359Y-76243403D01*
X255453357Y-76243402D01*
X255319447Y-76187936D01*
X255319445Y-76187935D01*
X255319444Y-76187935D01*
X255247589Y-76178475D01*
X255175736Y-76169015D01*
X255175734Y-76169015D01*
X255032026Y-76187935D01*
X255032022Y-76187936D01*
X254898112Y-76243402D01*
X254783114Y-76331644D01*
X254694872Y-76446642D01*
X254639406Y-76580552D01*
X254639405Y-76580556D01*
X254620485Y-76724264D01*
X254620485Y-76724265D01*
X254639405Y-76867973D01*
X254639406Y-76867977D01*
X254694872Y-77001887D01*
X254694873Y-77001889D01*
X254694874Y-77001890D01*
X254783114Y-77116886D01*
X254898110Y-77205126D01*
X254898111Y-77205126D01*
X254898112Y-77205127D01*
X254942748Y-77223615D01*
X255032026Y-77260595D01*
X255159015Y-77277313D01*
X255175734Y-77279515D01*
X255175735Y-77279515D01*
X255175736Y-77279515D01*
X255190712Y-77277543D01*
X255319444Y-77260595D01*
X255453360Y-77205126D01*
X255453367Y-77205120D01*
X255455915Y-77203650D01*
X255458351Y-77203058D01*
X255460869Y-77202016D01*
X255461031Y-77202408D01*
X255523814Y-77187173D01*
X255589842Y-77210021D01*
X255633037Y-77264939D01*
X255639683Y-77334492D01*
X255607671Y-77396597D01*
X255605603Y-77398714D01*
X255293147Y-77711171D01*
X255231824Y-77744656D01*
X255205466Y-77747490D01*
X255183078Y-77747490D01*
X255116039Y-77727805D01*
X255096573Y-77709903D01*
X255095358Y-77711119D01*
X255089613Y-77705374D01*
X255089607Y-77705369D01*
X254974611Y-77617129D01*
X254974610Y-77617128D01*
X254974608Y-77617127D01*
X254840698Y-77561661D01*
X254840696Y-77561660D01*
X254840695Y-77561660D01*
X254768840Y-77552200D01*
X254696987Y-77542740D01*
X254696985Y-77542740D01*
X254553277Y-77561660D01*
X254553273Y-77561661D01*
X254419363Y-77617127D01*
X254304365Y-77705369D01*
X254216123Y-77820367D01*
X254160657Y-77954277D01*
X254160656Y-77954281D01*
X254143437Y-78085073D01*
X254141736Y-78097990D01*
X254146164Y-78131627D01*
X254160656Y-78241698D01*
X254160657Y-78241702D01*
X254216123Y-78375612D01*
X254216124Y-78375614D01*
X254216125Y-78375615D01*
X254304365Y-78490611D01*
X254304367Y-78490612D01*
X254309313Y-78497058D01*
X254306989Y-78498841D01*
X254333731Y-78547815D01*
X254328747Y-78617507D01*
X254286875Y-78673440D01*
X254227905Y-78697221D01*
X254224562Y-78697637D01*
X254210751Y-78699359D01*
X254197049Y-78700209D01*
X254195831Y-78700310D01*
X254176859Y-78703476D01*
X254171792Y-78704214D01*
X254123474Y-78710237D01*
X254116453Y-78712327D01*
X254109486Y-78714719D01*
X254066681Y-78737883D01*
X254062130Y-78740226D01*
X254018382Y-78761614D01*
X254012435Y-78765858D01*
X254006607Y-78770395D01*
X253973649Y-78806197D01*
X253970102Y-78809894D01*
X253824187Y-78955809D01*
X253762864Y-78989294D01*
X253736438Y-78990578D01*
X253736438Y-78992120D01*
X253728310Y-78992120D01*
X253584601Y-79011040D01*
X253584597Y-79011041D01*
X253450687Y-79066507D01*
X253335689Y-79154749D01*
X253247447Y-79269747D01*
X253191981Y-79403657D01*
X253191980Y-79403661D01*
X253173060Y-79547370D01*
X253180297Y-79602343D01*
X253191980Y-79691078D01*
X253191981Y-79691082D01*
X253247447Y-79824992D01*
X253247448Y-79824994D01*
X253247449Y-79824995D01*
X253335689Y-79939991D01*
X253450685Y-80028231D01*
X253584601Y-80083700D01*
X253641686Y-80091215D01*
X253705582Y-80119481D01*
X253744053Y-80177806D01*
X253749500Y-80214154D01*
X253749500Y-86676307D01*
X253729815Y-86743346D01*
X253677011Y-86789101D01*
X253607853Y-86799045D01*
X253550015Y-86774683D01*
X253477628Y-86719139D01*
X253477627Y-86719138D01*
X253477625Y-86719137D01*
X253343715Y-86663671D01*
X253343713Y-86663670D01*
X253343712Y-86663670D01*
X253271857Y-86654210D01*
X253200004Y-86644750D01*
X253200002Y-86644750D01*
X253056294Y-86663670D01*
X253056290Y-86663671D01*
X252922379Y-86719138D01*
X252922377Y-86719139D01*
X252875487Y-86755119D01*
X252810317Y-86780313D01*
X252741873Y-86766274D01*
X252724518Y-86755122D01*
X252677625Y-86719139D01*
X252677624Y-86719138D01*
X252677622Y-86719137D01*
X252543712Y-86663671D01*
X252543710Y-86663670D01*
X252543709Y-86663670D01*
X252471854Y-86654210D01*
X252400001Y-86644750D01*
X252399999Y-86644750D01*
X252256291Y-86663670D01*
X252256287Y-86663671D01*
X252122377Y-86719137D01*
X252007379Y-86807379D01*
X251919137Y-86922377D01*
X251863671Y-87056287D01*
X251863670Y-87056291D01*
X251844750Y-87200000D01*
X251857447Y-87296445D01*
X251863670Y-87343708D01*
X251863671Y-87343712D01*
X251919137Y-87477622D01*
X251919138Y-87477624D01*
X251919139Y-87477625D01*
X252007379Y-87592621D01*
X252122375Y-87680861D01*
X252256291Y-87736330D01*
X252383280Y-87753048D01*
X252399999Y-87755250D01*
X252400000Y-87755250D01*
X252400001Y-87755250D01*
X252414977Y-87753278D01*
X252543709Y-87736330D01*
X252677625Y-87680861D01*
X252724516Y-87644879D01*
X252789682Y-87619686D01*
X252858127Y-87633724D01*
X252875481Y-87644875D01*
X252922378Y-87680861D01*
X253056294Y-87736330D01*
X253183283Y-87753048D01*
X253200002Y-87755250D01*
X253200003Y-87755250D01*
X253200004Y-87755250D01*
X253214980Y-87753278D01*
X253343712Y-87736330D01*
X253477628Y-87680861D01*
X253550014Y-87625316D01*
X253615181Y-87600122D01*
X253683626Y-87614160D01*
X253733617Y-87662973D01*
X253749500Y-87723692D01*
X253749500Y-88050788D01*
X253746861Y-88076232D01*
X253744957Y-88085311D01*
X253744957Y-88085316D01*
X253748548Y-88114121D01*
X253749396Y-88127795D01*
X253749499Y-88129032D01*
X253749500Y-88129037D01*
X253749500Y-88129040D01*
X253752666Y-88148015D01*
X253753403Y-88153077D01*
X253759426Y-88201390D01*
X253761524Y-88208435D01*
X253763907Y-88215379D01*
X253763908Y-88215381D01*
X253766650Y-88220447D01*
X253787082Y-88258203D01*
X253789421Y-88262747D01*
X253810802Y-88306484D01*
X253810804Y-88306486D01*
X253810805Y-88306488D01*
X253815062Y-88312451D01*
X253819583Y-88318259D01*
X253855398Y-88351230D01*
X253859096Y-88354778D01*
X254217362Y-88713044D01*
X254233489Y-88732902D01*
X254238563Y-88740669D01*
X254238565Y-88740671D01*
X254261466Y-88758495D01*
X254271728Y-88767559D01*
X254272691Y-88768374D01*
X254288347Y-88779552D01*
X254292457Y-88782616D01*
X254330874Y-88812517D01*
X254337340Y-88816015D01*
X254343930Y-88819237D01*
X254343933Y-88819239D01*
X254390588Y-88833129D01*
X254395439Y-88834682D01*
X254441512Y-88850500D01*
X254441516Y-88850500D01*
X254448732Y-88851705D01*
X254456044Y-88852616D01*
X254456046Y-88852617D01*
X254456047Y-88852616D01*
X254456048Y-88852617D01*
X254504668Y-88850606D01*
X254509793Y-88850500D01*
X257803456Y-88850500D01*
X257870495Y-88870185D01*
X257891137Y-88886819D01*
X258617362Y-89613044D01*
X258633489Y-89632902D01*
X258638563Y-89640669D01*
X258661469Y-89658497D01*
X258671750Y-89667577D01*
X258672684Y-89668368D01*
X258672690Y-89668372D01*
X258672693Y-89668375D01*
X258688388Y-89679580D01*
X258692422Y-89682588D01*
X258730874Y-89712517D01*
X258730877Y-89712519D01*
X258737308Y-89715999D01*
X258743931Y-89719237D01*
X258743934Y-89719239D01*
X258790626Y-89733139D01*
X258795438Y-89734681D01*
X258841512Y-89750500D01*
X258841515Y-89750500D01*
X258848751Y-89751707D01*
X258856044Y-89752616D01*
X258856046Y-89752617D01*
X258856047Y-89752616D01*
X258856048Y-89752617D01*
X258904668Y-89750606D01*
X258909793Y-89750500D01*
X259113908Y-89750500D01*
X259180947Y-89770185D01*
X259200412Y-89788086D01*
X259201628Y-89786871D01*
X259207372Y-89792615D01*
X259207377Y-89792619D01*
X259207379Y-89792621D01*
X259322375Y-89880861D01*
X259322376Y-89880861D01*
X259322377Y-89880862D01*
X259329154Y-89883669D01*
X259456291Y-89936330D01*
X259583280Y-89953048D01*
X259599999Y-89955250D01*
X259600000Y-89955250D01*
X259600001Y-89955250D01*
X259614977Y-89953278D01*
X259743709Y-89936330D01*
X259877625Y-89880861D01*
X259992621Y-89792621D01*
X260080861Y-89677625D01*
X260136330Y-89543709D01*
X260155250Y-89400000D01*
X260136330Y-89256291D01*
X260080861Y-89122375D01*
X259992621Y-89007379D01*
X259877625Y-88919139D01*
X259877624Y-88919138D01*
X259877622Y-88919137D01*
X259808602Y-88890549D01*
X259754198Y-88846709D01*
X259732133Y-88780415D01*
X259735385Y-88751781D01*
X259735269Y-88751766D01*
X259736126Y-88745251D01*
X259736282Y-88743884D01*
X259736324Y-88743721D01*
X259736330Y-88743709D01*
X259755250Y-88600000D01*
X259736330Y-88456291D01*
X259680861Y-88322375D01*
X259592621Y-88207379D01*
X259477625Y-88119139D01*
X259477624Y-88119138D01*
X259477622Y-88119137D01*
X259343712Y-88063671D01*
X259343710Y-88063670D01*
X259343709Y-88063670D01*
X259271854Y-88054210D01*
X259200001Y-88044750D01*
X259199999Y-88044750D01*
X259056291Y-88063670D01*
X259056287Y-88063671D01*
X258922377Y-88119137D01*
X258833309Y-88187482D01*
X258807379Y-88207379D01*
X258722298Y-88318259D01*
X258719137Y-88322378D01*
X258672683Y-88434530D01*
X258628842Y-88488934D01*
X258562548Y-88510999D01*
X258494849Y-88493720D01*
X258470441Y-88474759D01*
X258282637Y-88286955D01*
X258266511Y-88267098D01*
X258261437Y-88259331D01*
X258238524Y-88241497D01*
X258228248Y-88232422D01*
X258227309Y-88231627D01*
X258227307Y-88231625D01*
X258211651Y-88220447D01*
X258207544Y-88217385D01*
X258186997Y-88201393D01*
X258169126Y-88187483D01*
X258169124Y-88187482D01*
X258162640Y-88183973D01*
X258156067Y-88180759D01*
X258109409Y-88166868D01*
X258104532Y-88165306D01*
X258058484Y-88149498D01*
X258051287Y-88148297D01*
X258043951Y-88147382D01*
X257995332Y-88149394D01*
X257990207Y-88149500D01*
X254696544Y-88149500D01*
X254629505Y-88129815D01*
X254608863Y-88113181D01*
X254486819Y-87991137D01*
X254453334Y-87929814D01*
X254450500Y-87903456D01*
X254450500Y-87000000D01*
X255244750Y-87000000D01*
X255257915Y-87100000D01*
X255263670Y-87143708D01*
X255263671Y-87143712D01*
X255319137Y-87277622D01*
X255319138Y-87277624D01*
X255319139Y-87277625D01*
X255407379Y-87392621D01*
X255522375Y-87480861D01*
X255522376Y-87480861D01*
X255522377Y-87480862D01*
X255567013Y-87499350D01*
X255656291Y-87536330D01*
X255783280Y-87553048D01*
X255799999Y-87555250D01*
X255800000Y-87555250D01*
X255800001Y-87555250D01*
X255814977Y-87553278D01*
X255943709Y-87536330D01*
X256077625Y-87480861D01*
X256192621Y-87392621D01*
X256280861Y-87277625D01*
X256336330Y-87143709D01*
X256355250Y-87000000D01*
X256336330Y-86856291D01*
X256294424Y-86755119D01*
X256280862Y-86722377D01*
X256280861Y-86722376D01*
X256280861Y-86722375D01*
X256256814Y-86691036D01*
X259479984Y-86691036D01*
X259497275Y-86822375D01*
X259498904Y-86834744D01*
X259498905Y-86834748D01*
X259554371Y-86968658D01*
X259554372Y-86968660D01*
X259554373Y-86968661D01*
X259642613Y-87083657D01*
X259757609Y-87171897D01*
X259891525Y-87227366D01*
X260015569Y-87243697D01*
X260035233Y-87246286D01*
X260035234Y-87246286D01*
X260035235Y-87246286D01*
X260054899Y-87243697D01*
X260178943Y-87227366D01*
X260312859Y-87171897D01*
X260427855Y-87083657D01*
X260516095Y-86968661D01*
X260571564Y-86834745D01*
X260590484Y-86691036D01*
X260571564Y-86547327D01*
X260516095Y-86413411D01*
X260427855Y-86298415D01*
X260312859Y-86210175D01*
X260312858Y-86210174D01*
X260312856Y-86210173D01*
X260178946Y-86154707D01*
X260178944Y-86154706D01*
X260178943Y-86154706D01*
X260080800Y-86141785D01*
X260035235Y-86135786D01*
X260035233Y-86135786D01*
X259891525Y-86154706D01*
X259891521Y-86154707D01*
X259757611Y-86210173D01*
X259642613Y-86298415D01*
X259554371Y-86413413D01*
X259498905Y-86547323D01*
X259498904Y-86547327D01*
X259485668Y-86647866D01*
X259479984Y-86691036D01*
X256256814Y-86691036D01*
X256192621Y-86607379D01*
X256077625Y-86519139D01*
X256077624Y-86519138D01*
X256077622Y-86519137D01*
X255943712Y-86463671D01*
X255943710Y-86463670D01*
X255943709Y-86463670D01*
X255829251Y-86448601D01*
X255800001Y-86444750D01*
X255799999Y-86444750D01*
X255656291Y-86463670D01*
X255656287Y-86463671D01*
X255522377Y-86519137D01*
X255407379Y-86607379D01*
X255319137Y-86722377D01*
X255263671Y-86856287D01*
X255263670Y-86856291D01*
X255250505Y-86956291D01*
X255244750Y-87000000D01*
X254450500Y-87000000D01*
X254450500Y-86273846D01*
X254470185Y-86206807D01*
X254522989Y-86161052D01*
X254590685Y-86150907D01*
X254638795Y-86157241D01*
X254699999Y-86165299D01*
X254700000Y-86165299D01*
X254700001Y-86165299D01*
X254714977Y-86163327D01*
X254843709Y-86146379D01*
X254977625Y-86090910D01*
X255092621Y-86002670D01*
X255180861Y-85887674D01*
X255236330Y-85753758D01*
X255255250Y-85610049D01*
X255236330Y-85466340D01*
X255185967Y-85344750D01*
X255180862Y-85332426D01*
X255180861Y-85332425D01*
X255180861Y-85332424D01*
X255092621Y-85217428D01*
X254977625Y-85129188D01*
X254977624Y-85129187D01*
X254977622Y-85129186D01*
X254843712Y-85073720D01*
X254843710Y-85073719D01*
X254843709Y-85073719D01*
X254767381Y-85063670D01*
X254700001Y-85054799D01*
X254699998Y-85054799D01*
X254590685Y-85069190D01*
X254521650Y-85058424D01*
X254469394Y-85012044D01*
X254450500Y-84946251D01*
X254450500Y-82300050D01*
X254470185Y-82233011D01*
X254522989Y-82187256D01*
X254592147Y-82177312D01*
X254655703Y-82206337D01*
X254689061Y-82252598D01*
X254743139Y-82383158D01*
X254743140Y-82383160D01*
X254743141Y-82383161D01*
X254831381Y-82498157D01*
X254946377Y-82586397D01*
X255080293Y-82641866D01*
X255207282Y-82658584D01*
X255224001Y-82660786D01*
X255224002Y-82660786D01*
X255224003Y-82660786D01*
X255238979Y-82658814D01*
X255367711Y-82641866D01*
X255373889Y-82639307D01*
X255443358Y-82631837D01*
X255505837Y-82663111D01*
X255519718Y-82678380D01*
X255522719Y-82682291D01*
X255607379Y-82792621D01*
X255722375Y-82880861D01*
X255856291Y-82936330D01*
X255983280Y-82953048D01*
X255999999Y-82955250D01*
X256000000Y-82955250D01*
X256000001Y-82955250D01*
X256014977Y-82953278D01*
X256143709Y-82936330D01*
X256277625Y-82880861D01*
X256392621Y-82792621D01*
X256480861Y-82677625D01*
X256536330Y-82543709D01*
X256555250Y-82400000D01*
X256536330Y-82256291D01*
X256490631Y-82145962D01*
X256480862Y-82122377D01*
X256480861Y-82122376D01*
X256480861Y-82122375D01*
X256392621Y-82007379D01*
X256277625Y-81919139D01*
X256277624Y-81919138D01*
X256277622Y-81919137D01*
X256143712Y-81863671D01*
X256143710Y-81863670D01*
X256143709Y-81863670D01*
X256071854Y-81854210D01*
X256000001Y-81844750D01*
X255999999Y-81844750D01*
X255856289Y-81863670D01*
X255850107Y-81866231D01*
X255780637Y-81873697D01*
X255718159Y-81842420D01*
X255704287Y-81827161D01*
X255616623Y-81712915D01*
X255501627Y-81624675D01*
X255501626Y-81624674D01*
X255501624Y-81624673D01*
X255367714Y-81569207D01*
X255367712Y-81569206D01*
X255367711Y-81569206D01*
X255295856Y-81559746D01*
X255224003Y-81550286D01*
X255224001Y-81550286D01*
X255080293Y-81569206D01*
X255080289Y-81569207D01*
X254946379Y-81624673D01*
X254831381Y-81712915D01*
X254743139Y-81827913D01*
X254689061Y-81958473D01*
X254645221Y-82012877D01*
X254578927Y-82034942D01*
X254511227Y-82017663D01*
X254463616Y-81966526D01*
X254450500Y-81911021D01*
X254450500Y-80329335D01*
X254470185Y-80262296D01*
X254522989Y-80216541D01*
X254558314Y-80206396D01*
X254560858Y-80206060D01*
X254560859Y-80206061D01*
X254704568Y-80187141D01*
X254838484Y-80131672D01*
X254953480Y-80043432D01*
X255041720Y-79928436D01*
X255097189Y-79794520D01*
X255116109Y-79650811D01*
X255101717Y-79541496D01*
X255112482Y-79472462D01*
X255158862Y-79420206D01*
X255224656Y-79401311D01*
X255486752Y-79401311D01*
X255553791Y-79420996D01*
X255599546Y-79473800D01*
X255609690Y-79541496D01*
X255594750Y-79654981D01*
X255613121Y-79794523D01*
X255613670Y-79798689D01*
X255613671Y-79798693D01*
X255669137Y-79932603D01*
X255669138Y-79932605D01*
X255669139Y-79932606D01*
X255757379Y-80047602D01*
X255872375Y-80135842D01*
X256006291Y-80191311D01*
X256133280Y-80208029D01*
X256149999Y-80210231D01*
X256150000Y-80210231D01*
X256150001Y-80210231D01*
X256164977Y-80208259D01*
X256293709Y-80191311D01*
X256427625Y-80135842D01*
X256542621Y-80047602D01*
X256630861Y-79932606D01*
X256686330Y-79798690D01*
X256705250Y-79654981D01*
X256705250Y-79654980D01*
X256705250Y-79646852D01*
X256709049Y-79646852D01*
X256716388Y-79595399D01*
X256741556Y-79559105D01*
X257113844Y-79186819D01*
X257175167Y-79153334D01*
X257201525Y-79150500D01*
X261003456Y-79150500D01*
X261070495Y-79170185D01*
X261091137Y-79186819D01*
X261413181Y-79508863D01*
X261446666Y-79570186D01*
X261449500Y-79596544D01*
X261449500Y-79876858D01*
X261429815Y-79943897D01*
X261377011Y-79989652D01*
X261307853Y-79999596D01*
X261244297Y-79970571D01*
X261227125Y-79952345D01*
X261211976Y-79932603D01*
X261192621Y-79907379D01*
X261077625Y-79819139D01*
X261077624Y-79819138D01*
X261077622Y-79819137D01*
X260943712Y-79763671D01*
X260943710Y-79763670D01*
X260943709Y-79763670D01*
X260871854Y-79754210D01*
X260800001Y-79744750D01*
X260799999Y-79744750D01*
X260656291Y-79763670D01*
X260656287Y-79763671D01*
X260522377Y-79819137D01*
X260407379Y-79907379D01*
X260319137Y-80022377D01*
X260263671Y-80156287D01*
X260263670Y-80156291D01*
X260250850Y-80253670D01*
X260244750Y-80300000D01*
X260257570Y-80397379D01*
X260263670Y-80443708D01*
X260263671Y-80443712D01*
X260319138Y-80577623D01*
X260319139Y-80577625D01*
X260407380Y-80692623D01*
X260413126Y-80698369D01*
X260410574Y-80700920D01*
X260442091Y-80743873D01*
X260449500Y-80786092D01*
X260449500Y-81603455D01*
X260429815Y-81670494D01*
X260413181Y-81691136D01*
X259576074Y-82528243D01*
X257991137Y-84113181D01*
X257929814Y-84146666D01*
X257903456Y-84149500D01*
X256186092Y-84149500D01*
X256119053Y-84129815D01*
X256099587Y-84111913D01*
X256098372Y-84113129D01*
X256092627Y-84107384D01*
X256092621Y-84107379D01*
X255977625Y-84019139D01*
X255977624Y-84019138D01*
X255977622Y-84019137D01*
X255843712Y-83963671D01*
X255843710Y-83963670D01*
X255843709Y-83963670D01*
X255771854Y-83954210D01*
X255700001Y-83944750D01*
X255699999Y-83944750D01*
X255556291Y-83963670D01*
X255556287Y-83963671D01*
X255422377Y-84019137D01*
X255307379Y-84107379D01*
X255219137Y-84222377D01*
X255163671Y-84356287D01*
X255163670Y-84356291D01*
X255148042Y-84474999D01*
X255144750Y-84500000D01*
X255160378Y-84618708D01*
X255163670Y-84643708D01*
X255163671Y-84643712D01*
X255219137Y-84777622D01*
X255219138Y-84777624D01*
X255219139Y-84777625D01*
X255307379Y-84892621D01*
X255422375Y-84980861D01*
X255422376Y-84980861D01*
X255422377Y-84980862D01*
X255467013Y-84999350D01*
X255556291Y-85036330D01*
X255683280Y-85053048D01*
X255699999Y-85055250D01*
X255700000Y-85055250D01*
X255700001Y-85055250D01*
X255714977Y-85053278D01*
X255843709Y-85036330D01*
X255977625Y-84980861D01*
X256092621Y-84892621D01*
X256092623Y-84892617D01*
X256092627Y-84892615D01*
X256098372Y-84886871D01*
X256100888Y-84889387D01*
X256144183Y-84857797D01*
X256186092Y-84850500D01*
X258050789Y-84850500D01*
X258076234Y-84853138D01*
X258085315Y-84855043D01*
X258110673Y-84851881D01*
X258114123Y-84851452D01*
X258127764Y-84850605D01*
X258129026Y-84850500D01*
X258129040Y-84850500D01*
X258137071Y-84849159D01*
X258148014Y-84847334D01*
X258153063Y-84846597D01*
X258201393Y-84840573D01*
X258201399Y-84840569D01*
X258208456Y-84838468D01*
X258215377Y-84836092D01*
X258215381Y-84836092D01*
X258258216Y-84812909D01*
X258262729Y-84810586D01*
X258306484Y-84789198D01*
X258306486Y-84789195D01*
X258312461Y-84784929D01*
X258318256Y-84780419D01*
X258318255Y-84780419D01*
X258318258Y-84780418D01*
X258351254Y-84744572D01*
X258354756Y-84740924D01*
X259649610Y-83446070D01*
X259710931Y-83412587D01*
X259780623Y-83417571D01*
X259836556Y-83459443D01*
X259860228Y-83517566D01*
X259863670Y-83543708D01*
X259863671Y-83543712D01*
X259919137Y-83677622D01*
X259919138Y-83677624D01*
X259919139Y-83677625D01*
X259955119Y-83724515D01*
X259980313Y-83789684D01*
X259966275Y-83858128D01*
X259955119Y-83875487D01*
X259919139Y-83922377D01*
X259919138Y-83922379D01*
X259863671Y-84056290D01*
X259863670Y-84056294D01*
X259848720Y-84169852D01*
X259844750Y-84200003D01*
X259861458Y-84326914D01*
X259863670Y-84343711D01*
X259863671Y-84343715D01*
X259919137Y-84477625D01*
X259919138Y-84477627D01*
X259919139Y-84477628D01*
X260007379Y-84592624D01*
X260122375Y-84680864D01*
X260122376Y-84680864D01*
X260122377Y-84680865D01*
X260140936Y-84688552D01*
X260256291Y-84736333D01*
X260366040Y-84750782D01*
X260429935Y-84779047D01*
X260468406Y-84837372D01*
X260469238Y-84907236D01*
X260432165Y-84966460D01*
X260425340Y-84972095D01*
X260314196Y-85057380D01*
X260314195Y-85057381D01*
X260314194Y-85057382D01*
X260284267Y-85096383D01*
X260225952Y-85172380D01*
X260170486Y-85306290D01*
X260170485Y-85306294D01*
X260153780Y-85433182D01*
X260151565Y-85450003D01*
X260170132Y-85591034D01*
X260170485Y-85593711D01*
X260170486Y-85593715D01*
X260225952Y-85727625D01*
X260225953Y-85727627D01*
X260225954Y-85727628D01*
X260314194Y-85842624D01*
X260429190Y-85930864D01*
X260429191Y-85930864D01*
X260429192Y-85930865D01*
X260447751Y-85938552D01*
X260563106Y-85986333D01*
X260687188Y-86002669D01*
X260706814Y-86005253D01*
X260706815Y-86005253D01*
X260706816Y-86005253D01*
X260726442Y-86002669D01*
X260850524Y-85986333D01*
X260984440Y-85930864D01*
X261099436Y-85842624D01*
X261187676Y-85727628D01*
X261210940Y-85671462D01*
X261254779Y-85617062D01*
X261321073Y-85594996D01*
X261388772Y-85612275D01*
X261436383Y-85663411D01*
X261449500Y-85718917D01*
X261449500Y-91803456D01*
X261429815Y-91870495D01*
X261413181Y-91891137D01*
X259791137Y-93513181D01*
X259729814Y-93546666D01*
X259703456Y-93549500D01*
X256649206Y-93549500D01*
X256623761Y-93546861D01*
X256622831Y-93546666D01*
X256614685Y-93544958D01*
X256614684Y-93544958D01*
X256585884Y-93548548D01*
X256572181Y-93549398D01*
X256570962Y-93549499D01*
X256551990Y-93552665D01*
X256546923Y-93553403D01*
X256498605Y-93559426D01*
X256491584Y-93561516D01*
X256484617Y-93563908D01*
X256441812Y-93587072D01*
X256437261Y-93589415D01*
X256393513Y-93610803D01*
X256387566Y-93615047D01*
X256381738Y-93619584D01*
X256348780Y-93655386D01*
X256345233Y-93659083D01*
X255786955Y-94217361D01*
X255767106Y-94233482D01*
X255759331Y-94238562D01*
X255741499Y-94261472D01*
X255732394Y-94271784D01*
X255731624Y-94272694D01*
X255720439Y-94288359D01*
X255717378Y-94292463D01*
X255687482Y-94330873D01*
X255683980Y-94337344D01*
X255680760Y-94343932D01*
X255666871Y-94390582D01*
X255665309Y-94395457D01*
X255649499Y-94441513D01*
X255648296Y-94448717D01*
X255647382Y-94456048D01*
X255649394Y-94504667D01*
X255649500Y-94509792D01*
X255649500Y-97050788D01*
X255646861Y-97076232D01*
X255644957Y-97085311D01*
X255644957Y-97085316D01*
X255648548Y-97114121D01*
X255649396Y-97127795D01*
X255649499Y-97129032D01*
X255649500Y-97129037D01*
X255649500Y-97129040D01*
X255651948Y-97143712D01*
X255652666Y-97148015D01*
X255653403Y-97153077D01*
X255659426Y-97201390D01*
X255661524Y-97208435D01*
X255663907Y-97215379D01*
X255663908Y-97215381D01*
X255671670Y-97229723D01*
X255687082Y-97258203D01*
X255689421Y-97262747D01*
X255710802Y-97306484D01*
X255710804Y-97306486D01*
X255710805Y-97306488D01*
X255715062Y-97312451D01*
X255719583Y-97318259D01*
X255755398Y-97351230D01*
X255759096Y-97354778D01*
X256613181Y-98208863D01*
X256646666Y-98270186D01*
X256649500Y-98296544D01*
X256649500Y-99563332D01*
X256629815Y-99630371D01*
X256577011Y-99676126D01*
X256507853Y-99686070D01*
X256478049Y-99677894D01*
X256473781Y-99676126D01*
X256443709Y-99663670D01*
X256371854Y-99654210D01*
X256300001Y-99644750D01*
X256299998Y-99644750D01*
X256190685Y-99659141D01*
X256121650Y-99648375D01*
X256069394Y-99601995D01*
X256050500Y-99536202D01*
X256050500Y-98730604D01*
X256070185Y-98663565D01*
X256076116Y-98655128D01*
X256080861Y-98648945D01*
X256136330Y-98515029D01*
X256155250Y-98371320D01*
X256136330Y-98227611D01*
X256080861Y-98093695D01*
X255992621Y-97978699D01*
X255877625Y-97890459D01*
X255877624Y-97890458D01*
X255877622Y-97890457D01*
X255743712Y-97834991D01*
X255743710Y-97834990D01*
X255743709Y-97834990D01*
X255671854Y-97825530D01*
X255600001Y-97816070D01*
X255599999Y-97816070D01*
X255456291Y-97834990D01*
X255456287Y-97834991D01*
X255322377Y-97890457D01*
X255207379Y-97978699D01*
X255119137Y-98093697D01*
X255063671Y-98227607D01*
X255063670Y-98227611D01*
X255044750Y-98371319D01*
X255044750Y-98371320D01*
X255063670Y-98515028D01*
X255063671Y-98515032D01*
X255119137Y-98648942D01*
X255119138Y-98648944D01*
X255119139Y-98648945D01*
X255207379Y-98763941D01*
X255250987Y-98797402D01*
X255292189Y-98853828D01*
X255299500Y-98895777D01*
X255299500Y-103125500D01*
X255279815Y-103192539D01*
X255227011Y-103238294D01*
X255175500Y-103249500D01*
X253636090Y-103249500D01*
X253569051Y-103229815D01*
X253549585Y-103211913D01*
X253548370Y-103213129D01*
X253542625Y-103207384D01*
X253542619Y-103207379D01*
X253427623Y-103119139D01*
X253427622Y-103119138D01*
X253427620Y-103119137D01*
X253293710Y-103063671D01*
X253293708Y-103063670D01*
X253293707Y-103063670D01*
X253221852Y-103054210D01*
X253149999Y-103044750D01*
X253149997Y-103044750D01*
X253006289Y-103063670D01*
X253006285Y-103063671D01*
X252872375Y-103119137D01*
X252757377Y-103207379D01*
X252669135Y-103322377D01*
X252613669Y-103456287D01*
X252613668Y-103456291D01*
X252605222Y-103520447D01*
X252594748Y-103600000D01*
X252607296Y-103695312D01*
X252609140Y-103709314D01*
X252598375Y-103778349D01*
X252551995Y-103830605D01*
X252486201Y-103849500D01*
X251813352Y-103849500D01*
X251746313Y-103829815D01*
X251725671Y-103813181D01*
X248686819Y-100774329D01*
X248653334Y-100713006D01*
X248650500Y-100686648D01*
X248650500Y-99460033D01*
X250804783Y-99460033D01*
X250823703Y-99603741D01*
X250823704Y-99603745D01*
X250879170Y-99737655D01*
X250879171Y-99737657D01*
X250879172Y-99737658D01*
X250967412Y-99852654D01*
X251082408Y-99940894D01*
X251082409Y-99940894D01*
X251082410Y-99940895D01*
X251127046Y-99959383D01*
X251216324Y-99996363D01*
X251343313Y-100013081D01*
X251360032Y-100015283D01*
X251360033Y-100015283D01*
X251360034Y-100015283D01*
X251375010Y-100013311D01*
X251503742Y-99996363D01*
X251637658Y-99940894D01*
X251752654Y-99852654D01*
X251840894Y-99737658D01*
X251896363Y-99603742D01*
X251915283Y-99460033D01*
X251896363Y-99316324D01*
X251886309Y-99292050D01*
X252660976Y-99292050D01*
X252671544Y-99372324D01*
X252679896Y-99435758D01*
X252679897Y-99435762D01*
X252735363Y-99569672D01*
X252735364Y-99569674D01*
X252735365Y-99569675D01*
X252823605Y-99684671D01*
X252938601Y-99772911D01*
X253072517Y-99828380D01*
X253199506Y-99845098D01*
X253216225Y-99847300D01*
X253216226Y-99847300D01*
X253216227Y-99847300D01*
X253231203Y-99845328D01*
X253359935Y-99828380D01*
X253493851Y-99772911D01*
X253608847Y-99684671D01*
X253697087Y-99569675D01*
X253752556Y-99435759D01*
X253771476Y-99292050D01*
X253752556Y-99148341D01*
X253707774Y-99040225D01*
X253697088Y-99014427D01*
X253697087Y-99014426D01*
X253697087Y-99014425D01*
X253608847Y-98899429D01*
X253493851Y-98811189D01*
X253493850Y-98811188D01*
X253493848Y-98811187D01*
X253359938Y-98755721D01*
X253359936Y-98755720D01*
X253359935Y-98755720D01*
X253266433Y-98743410D01*
X253216227Y-98736800D01*
X253216225Y-98736800D01*
X253072517Y-98755720D01*
X253072513Y-98755721D01*
X252938603Y-98811187D01*
X252823605Y-98899429D01*
X252735363Y-99014427D01*
X252679897Y-99148337D01*
X252679896Y-99148341D01*
X252667003Y-99246275D01*
X252660976Y-99292050D01*
X251886309Y-99292050D01*
X251840894Y-99182408D01*
X251752654Y-99067412D01*
X251637658Y-98979172D01*
X251637657Y-98979171D01*
X251637655Y-98979170D01*
X251503745Y-98923704D01*
X251503743Y-98923703D01*
X251503742Y-98923703D01*
X251431887Y-98914243D01*
X251360034Y-98904783D01*
X251360032Y-98904783D01*
X251216324Y-98923703D01*
X251216320Y-98923704D01*
X251082410Y-98979170D01*
X250967412Y-99067412D01*
X250879170Y-99182410D01*
X250823704Y-99316320D01*
X250823703Y-99316324D01*
X250804783Y-99460032D01*
X250804783Y-99460033D01*
X248650500Y-99460033D01*
X248650500Y-98900682D01*
X248653139Y-98875235D01*
X248655043Y-98866156D01*
X248651452Y-98837348D01*
X248650602Y-98823663D01*
X248650501Y-98822441D01*
X248650500Y-98822435D01*
X248650500Y-98822431D01*
X248647330Y-98803437D01*
X248646595Y-98798389D01*
X248640573Y-98750078D01*
X248638476Y-98743038D01*
X248636092Y-98736093D01*
X248636092Y-98736090D01*
X248612924Y-98693281D01*
X248610579Y-98688725D01*
X248589199Y-98644989D01*
X248584926Y-98639005D01*
X248580420Y-98633216D01*
X248580419Y-98633215D01*
X248580418Y-98633213D01*
X248544587Y-98600228D01*
X248540914Y-98596703D01*
X247961819Y-98017608D01*
X247928334Y-97956285D01*
X247925500Y-97929927D01*
X247925500Y-97878101D01*
X247930652Y-97842730D01*
X247931850Y-97838704D01*
X247933128Y-97834411D01*
X247934672Y-97829586D01*
X247950500Y-97783488D01*
X247950500Y-97783480D01*
X247951706Y-97776256D01*
X247952617Y-97768952D01*
X247950606Y-97720332D01*
X247950500Y-97715207D01*
X247950500Y-95296543D01*
X247970185Y-95229504D01*
X247986815Y-95208866D01*
X248813046Y-94382634D01*
X248832902Y-94366511D01*
X248840669Y-94361437D01*
X248858496Y-94338531D01*
X248867545Y-94328285D01*
X248868362Y-94327319D01*
X248868376Y-94327306D01*
X248879570Y-94311626D01*
X248882615Y-94307543D01*
X248912514Y-94269130D01*
X248912514Y-94269129D01*
X248912517Y-94269126D01*
X248912518Y-94269121D01*
X248916016Y-94262657D01*
X248919236Y-94256070D01*
X248919240Y-94256066D01*
X248933131Y-94209404D01*
X248934686Y-94204550D01*
X248950500Y-94158488D01*
X248950500Y-94158483D01*
X248951705Y-94151258D01*
X248952617Y-94143950D01*
X248950606Y-94095320D01*
X248950500Y-94090196D01*
X248950500Y-92800000D01*
X249244750Y-92800000D01*
X249262989Y-92938540D01*
X249263670Y-92943708D01*
X249263671Y-92943712D01*
X249319137Y-93077622D01*
X249319138Y-93077624D01*
X249319139Y-93077625D01*
X249407379Y-93192621D01*
X249522375Y-93280861D01*
X249656291Y-93336330D01*
X249783280Y-93353048D01*
X249799999Y-93355250D01*
X249800000Y-93355250D01*
X249800001Y-93355250D01*
X249814977Y-93353278D01*
X249943709Y-93336330D01*
X250077625Y-93280861D01*
X250192621Y-93192621D01*
X250280861Y-93077625D01*
X250336330Y-92943709D01*
X250355250Y-92800000D01*
X250341889Y-92698516D01*
X250352654Y-92629483D01*
X250399034Y-92577227D01*
X250448638Y-92559394D01*
X250519995Y-92550000D01*
X255144750Y-92550000D01*
X255161552Y-92677625D01*
X255163670Y-92693708D01*
X255163671Y-92693712D01*
X255219137Y-92827622D01*
X255219138Y-92827624D01*
X255219139Y-92827625D01*
X255307379Y-92942621D01*
X255422375Y-93030861D01*
X255556291Y-93086330D01*
X255678284Y-93102391D01*
X255699999Y-93105250D01*
X255700000Y-93105250D01*
X255700001Y-93105250D01*
X255714977Y-93103278D01*
X255843709Y-93086330D01*
X255977625Y-93030861D01*
X256092621Y-92942621D01*
X256092622Y-92942618D01*
X256099068Y-92937673D01*
X256099883Y-92938736D01*
X256153758Y-92909312D01*
X256223450Y-92914290D01*
X256278502Y-92954988D01*
X256307379Y-92992621D01*
X256422375Y-93080861D01*
X256422376Y-93080861D01*
X256422377Y-93080862D01*
X256467013Y-93099350D01*
X256556291Y-93136330D01*
X256680396Y-93152669D01*
X256699999Y-93155250D01*
X256700000Y-93155250D01*
X256700001Y-93155250D01*
X256719604Y-93152669D01*
X256843709Y-93136330D01*
X256977625Y-93080861D01*
X257092621Y-92992621D01*
X257180861Y-92877625D01*
X257236330Y-92743709D01*
X257255250Y-92600000D01*
X257236330Y-92456291D01*
X257195316Y-92357272D01*
X257180862Y-92322377D01*
X257180861Y-92322376D01*
X257180861Y-92322375D01*
X257092621Y-92207379D01*
X256977625Y-92119139D01*
X256977624Y-92119138D01*
X256977622Y-92119137D01*
X256843712Y-92063671D01*
X256843710Y-92063670D01*
X256843709Y-92063670D01*
X256759162Y-92052539D01*
X256700001Y-92044750D01*
X256699999Y-92044750D01*
X256556291Y-92063670D01*
X256556287Y-92063671D01*
X256422377Y-92119137D01*
X256384247Y-92148395D01*
X256307379Y-92207379D01*
X256307377Y-92207381D01*
X256300932Y-92212327D01*
X256300118Y-92211266D01*
X256246219Y-92240692D01*
X256176528Y-92235701D01*
X256121497Y-92195010D01*
X256092623Y-92157381D01*
X256092621Y-92157380D01*
X256092621Y-92157379D01*
X255977625Y-92069139D01*
X255977624Y-92069138D01*
X255977622Y-92069137D01*
X255843712Y-92013671D01*
X255843710Y-92013670D01*
X255843709Y-92013670D01*
X255771854Y-92004210D01*
X255700001Y-91994750D01*
X255699999Y-91994750D01*
X255556291Y-92013670D01*
X255556287Y-92013671D01*
X255422377Y-92069137D01*
X255307379Y-92157379D01*
X255219137Y-92272377D01*
X255163671Y-92406287D01*
X255163670Y-92406291D01*
X255144750Y-92550000D01*
X250519995Y-92550000D01*
X250547872Y-92546330D01*
X250681788Y-92490861D01*
X250796784Y-92402621D01*
X250885024Y-92287625D01*
X250940493Y-92153709D01*
X250959413Y-92010000D01*
X250940493Y-91866291D01*
X250885561Y-91733671D01*
X250885025Y-91732377D01*
X250885024Y-91732376D01*
X250885024Y-91732375D01*
X250796784Y-91617379D01*
X250681788Y-91529139D01*
X250681787Y-91529138D01*
X250681785Y-91529137D01*
X250547875Y-91473671D01*
X250547873Y-91473670D01*
X250547872Y-91473670D01*
X250476017Y-91464210D01*
X250404164Y-91454750D01*
X250404162Y-91454750D01*
X250260454Y-91473670D01*
X250260450Y-91473671D01*
X250126540Y-91529137D01*
X250011542Y-91617379D01*
X249923300Y-91732377D01*
X249867834Y-91866287D01*
X249867833Y-91866291D01*
X249848913Y-92009999D01*
X249848913Y-92010002D01*
X249862273Y-92111481D01*
X249851507Y-92180516D01*
X249805127Y-92232772D01*
X249755521Y-92250605D01*
X249656291Y-92263670D01*
X249656287Y-92263671D01*
X249522377Y-92319137D01*
X249407379Y-92407379D01*
X249319137Y-92522377D01*
X249263671Y-92656287D01*
X249263670Y-92656291D01*
X249257083Y-92706327D01*
X249244750Y-92800000D01*
X248950500Y-92800000D01*
X248950500Y-90419998D01*
X255632398Y-90419998D01*
X255651318Y-90563706D01*
X255651319Y-90563710D01*
X255706785Y-90697620D01*
X255706786Y-90697622D01*
X255706787Y-90697623D01*
X255795027Y-90812619D01*
X255910023Y-90900859D01*
X256043939Y-90956328D01*
X256170928Y-90973046D01*
X256187647Y-90975248D01*
X256187648Y-90975248D01*
X256187649Y-90975248D01*
X256202625Y-90973276D01*
X256331357Y-90956328D01*
X256465273Y-90900859D01*
X256580269Y-90812619D01*
X256668509Y-90697623D01*
X256723978Y-90563707D01*
X256742898Y-90419998D01*
X256723978Y-90276289D01*
X256668509Y-90142373D01*
X256580269Y-90027377D01*
X256465273Y-89939137D01*
X256465272Y-89939136D01*
X256465270Y-89939135D01*
X256331360Y-89883669D01*
X256331358Y-89883668D01*
X256331357Y-89883668D01*
X256259502Y-89874208D01*
X256187649Y-89864748D01*
X256187647Y-89864748D01*
X256043939Y-89883668D01*
X256043935Y-89883669D01*
X255910025Y-89939135D01*
X255795027Y-90027377D01*
X255706785Y-90142375D01*
X255651319Y-90276285D01*
X255651318Y-90276289D01*
X255632398Y-90419997D01*
X255632398Y-90419998D01*
X248950500Y-90419998D01*
X248950500Y-87296446D01*
X250348304Y-87296446D01*
X250365976Y-87430679D01*
X250367224Y-87440154D01*
X250367225Y-87440158D01*
X250422691Y-87574068D01*
X250422692Y-87574070D01*
X250422693Y-87574071D01*
X250510933Y-87689067D01*
X250625929Y-87777307D01*
X250759845Y-87832776D01*
X250886834Y-87849494D01*
X250903553Y-87851696D01*
X250903554Y-87851696D01*
X250903555Y-87851696D01*
X250918531Y-87849724D01*
X251047263Y-87832776D01*
X251181179Y-87777307D01*
X251296175Y-87689067D01*
X251384415Y-87574071D01*
X251439884Y-87440155D01*
X251458804Y-87296446D01*
X251439884Y-87152737D01*
X251396741Y-87048579D01*
X251389272Y-86979110D01*
X251420547Y-86916631D01*
X251463850Y-86886566D01*
X251477625Y-86880861D01*
X251592621Y-86792621D01*
X251680861Y-86677625D01*
X251736330Y-86543709D01*
X251755250Y-86400000D01*
X251736330Y-86256291D01*
X251680861Y-86122375D01*
X251680860Y-86122374D01*
X251680860Y-86122373D01*
X251642334Y-86072166D01*
X251617139Y-86006997D01*
X251631177Y-85938552D01*
X251679991Y-85888562D01*
X251748082Y-85872898D01*
X251788160Y-85882117D01*
X251856291Y-85910338D01*
X251983280Y-85927056D01*
X251999999Y-85929258D01*
X252000000Y-85929258D01*
X252000001Y-85929258D01*
X252014977Y-85927286D01*
X252143709Y-85910338D01*
X252252142Y-85865423D01*
X252321611Y-85857955D01*
X252384090Y-85889230D01*
X252397969Y-85904498D01*
X252420491Y-85933849D01*
X252465589Y-85992621D01*
X252580585Y-86080861D01*
X252580586Y-86080861D01*
X252580587Y-86080862D01*
X252604846Y-86090910D01*
X252714501Y-86136330D01*
X252833456Y-86151991D01*
X252858209Y-86155250D01*
X252858210Y-86155250D01*
X252858211Y-86155250D01*
X252873187Y-86153278D01*
X253001919Y-86136330D01*
X253135835Y-86080861D01*
X253250831Y-85992621D01*
X253339071Y-85877625D01*
X253394540Y-85743709D01*
X253413460Y-85600000D01*
X253394540Y-85456291D01*
X253345255Y-85337304D01*
X253339072Y-85322377D01*
X253339071Y-85322376D01*
X253339071Y-85322375D01*
X253250831Y-85207379D01*
X253135835Y-85119139D01*
X253135834Y-85119138D01*
X253135832Y-85119137D01*
X253001922Y-85063671D01*
X253001920Y-85063670D01*
X253001919Y-85063670D01*
X252903518Y-85050715D01*
X252858211Y-85044750D01*
X252858209Y-85044750D01*
X252714501Y-85063670D01*
X252606066Y-85108584D01*
X252536597Y-85116052D01*
X252474118Y-85084776D01*
X252460240Y-85069509D01*
X252421218Y-85018655D01*
X252392621Y-84981387D01*
X252277625Y-84893147D01*
X252277624Y-84893146D01*
X252277622Y-84893145D01*
X252143712Y-84837679D01*
X252143710Y-84837678D01*
X252143709Y-84837678D01*
X252071854Y-84828218D01*
X252000001Y-84818758D01*
X251999999Y-84818758D01*
X251856291Y-84837678D01*
X251856287Y-84837679D01*
X251724819Y-84892134D01*
X251655349Y-84899603D01*
X251592870Y-84868327D01*
X251557219Y-84808238D01*
X251554428Y-84793758D01*
X251552194Y-84776792D01*
X251536330Y-84656291D01*
X251492007Y-84549284D01*
X251480862Y-84522377D01*
X251480861Y-84522376D01*
X251480861Y-84522375D01*
X251392621Y-84407379D01*
X251277625Y-84319139D01*
X251277624Y-84319138D01*
X251277622Y-84319137D01*
X251143712Y-84263671D01*
X251143710Y-84263670D01*
X251143709Y-84263670D01*
X251071854Y-84254210D01*
X251000001Y-84244750D01*
X250999999Y-84244750D01*
X250856291Y-84263670D01*
X250856287Y-84263671D01*
X250722377Y-84319137D01*
X250607379Y-84407379D01*
X250519137Y-84522377D01*
X250463671Y-84656287D01*
X250463670Y-84656291D01*
X250447509Y-84779047D01*
X250444750Y-84800000D01*
X250456834Y-84891789D01*
X250463670Y-84943708D01*
X250463671Y-84943712D01*
X250519138Y-85077623D01*
X250519139Y-85077625D01*
X250555118Y-85124514D01*
X250580312Y-85189683D01*
X250566274Y-85258128D01*
X250555118Y-85275486D01*
X250519139Y-85322374D01*
X250519138Y-85322376D01*
X250463671Y-85456287D01*
X250463670Y-85456291D01*
X250449749Y-85562033D01*
X250444750Y-85600000D01*
X250461552Y-85727625D01*
X250463670Y-85743708D01*
X250463671Y-85743712D01*
X250519137Y-85877622D01*
X250519138Y-85877624D01*
X250519139Y-85877625D01*
X250607379Y-85992621D01*
X250626114Y-86006997D01*
X250657482Y-86031067D01*
X250698685Y-86087495D01*
X250702839Y-86157241D01*
X250696557Y-86176893D01*
X250663670Y-86256291D01*
X250647270Y-86380862D01*
X250644750Y-86400000D01*
X250653132Y-86463670D01*
X250663670Y-86543708D01*
X250663671Y-86543712D01*
X250706812Y-86647866D01*
X250714281Y-86717336D01*
X250683005Y-86779815D01*
X250639705Y-86809879D01*
X250625930Y-86815584D01*
X250510933Y-86903825D01*
X250422691Y-87018823D01*
X250367225Y-87152733D01*
X250367224Y-87152737D01*
X250348304Y-87296446D01*
X248950500Y-87296446D01*
X248950500Y-86249211D01*
X248953139Y-86223764D01*
X248955043Y-86214685D01*
X248951452Y-86185877D01*
X248950602Y-86172192D01*
X248950501Y-86170970D01*
X248950500Y-86170964D01*
X248950500Y-86170960D01*
X248947330Y-86151966D01*
X248946595Y-86146918D01*
X248945207Y-86135786D01*
X248940573Y-86098607D01*
X248938476Y-86091567D01*
X248936092Y-86084622D01*
X248936092Y-86084619D01*
X248912924Y-86041810D01*
X248910579Y-86037254D01*
X248889200Y-85993519D01*
X248884925Y-85987532D01*
X248881391Y-85982991D01*
X248880432Y-85980560D01*
X248875430Y-85972523D01*
X248875373Y-85972417D01*
X248876896Y-85971597D01*
X248855753Y-85917995D01*
X248855250Y-85906836D01*
X248855250Y-85900000D01*
X248855048Y-85898464D01*
X248836330Y-85756291D01*
X248780861Y-85622375D01*
X248692621Y-85507379D01*
X248577625Y-85419139D01*
X248577624Y-85419138D01*
X248577622Y-85419137D01*
X248443712Y-85363671D01*
X248443710Y-85363670D01*
X248443709Y-85363670D01*
X248371854Y-85354210D01*
X248300001Y-85344750D01*
X248299999Y-85344750D01*
X248156291Y-85363670D01*
X248156287Y-85363671D01*
X248022377Y-85419137D01*
X247907379Y-85507379D01*
X247819137Y-85622377D01*
X247763671Y-85756287D01*
X247763670Y-85756291D01*
X247744952Y-85898469D01*
X247744750Y-85900000D01*
X247762698Y-86036329D01*
X247763670Y-86043708D01*
X247763671Y-86043712D01*
X247819137Y-86177622D01*
X247819138Y-86177624D01*
X247819139Y-86177625D01*
X247907379Y-86292621D01*
X248022375Y-86380861D01*
X248156291Y-86436330D01*
X248156301Y-86436331D01*
X248157590Y-86436677D01*
X248158566Y-86437272D01*
X248163800Y-86439440D01*
X248163462Y-86440255D01*
X248217252Y-86473041D01*
X248247783Y-86535887D01*
X248249500Y-86556453D01*
X248249500Y-86902308D01*
X248229815Y-86969347D01*
X248177011Y-87015102D01*
X248107853Y-87025046D01*
X248050015Y-87000685D01*
X248021693Y-86978953D01*
X247887781Y-86923486D01*
X247887779Y-86923485D01*
X247887778Y-86923485D01*
X247805328Y-86912630D01*
X247744070Y-86904565D01*
X247744067Y-86904565D01*
X247601030Y-86923396D01*
X247531995Y-86912630D01*
X247486469Y-86875944D01*
X247486078Y-86875434D01*
X247486077Y-86875432D01*
X247397837Y-86760436D01*
X247282841Y-86672196D01*
X247282840Y-86672195D01*
X247282838Y-86672194D01*
X247148928Y-86616728D01*
X247148926Y-86616727D01*
X247148925Y-86616727D01*
X247077070Y-86607267D01*
X247005217Y-86597807D01*
X247005215Y-86597807D01*
X246861507Y-86616727D01*
X246861503Y-86616728D01*
X246727593Y-86672194D01*
X246612595Y-86760436D01*
X246524353Y-86875434D01*
X246468887Y-87009344D01*
X246468886Y-87009348D01*
X246449966Y-87153057D01*
X246460507Y-87233126D01*
X246468886Y-87296765D01*
X246468887Y-87296769D01*
X246524353Y-87430679D01*
X246524354Y-87430681D01*
X246524355Y-87430682D01*
X246554091Y-87469435D01*
X246579286Y-87534602D01*
X246579716Y-87544921D01*
X246579716Y-92942174D01*
X246560031Y-93009213D01*
X246543397Y-93029855D01*
X246446780Y-93126472D01*
X246420583Y-93152669D01*
X246351471Y-93221780D01*
X246340510Y-93243293D01*
X246330346Y-93259878D01*
X246316152Y-93279414D01*
X246316151Y-93279417D01*
X246308688Y-93302385D01*
X246301243Y-93320358D01*
X246290280Y-93341873D01*
X246286503Y-93365722D01*
X246281962Y-93384639D01*
X246274500Y-93407604D01*
X246274500Y-95089506D01*
X246254815Y-95156545D01*
X246248876Y-95164992D01*
X246219138Y-95203746D01*
X246163671Y-95337659D01*
X246163670Y-95337663D01*
X246162167Y-95349083D01*
X246144750Y-95481372D01*
X246163647Y-95624910D01*
X246163670Y-95625080D01*
X246163671Y-95625084D01*
X246219137Y-95758994D01*
X246219138Y-95758996D01*
X246219139Y-95758997D01*
X246307379Y-95873993D01*
X246422375Y-95962233D01*
X246422376Y-95962233D01*
X246422377Y-95962234D01*
X246439784Y-95969444D01*
X246556291Y-96017702D01*
X246683280Y-96034420D01*
X246699999Y-96036622D01*
X246700000Y-96036622D01*
X246700001Y-96036622D01*
X246714977Y-96034650D01*
X246843709Y-96017702D01*
X246977625Y-95962233D01*
X247050014Y-95906686D01*
X247115182Y-95881492D01*
X247183627Y-95895530D01*
X247233617Y-95944343D01*
X247249500Y-96005062D01*
X247249500Y-97596891D01*
X247244344Y-97632277D01*
X247241867Y-97640596D01*
X247240305Y-97645471D01*
X247224498Y-97691515D01*
X247223296Y-97698717D01*
X247222382Y-97706048D01*
X247224394Y-97754667D01*
X247224500Y-97759792D01*
X247224500Y-97782911D01*
X247204815Y-97849950D01*
X247152011Y-97895705D01*
X247084315Y-97905850D01*
X247000002Y-97894750D01*
X246999999Y-97894750D01*
X246856291Y-97913670D01*
X246856287Y-97913671D01*
X246722377Y-97969137D01*
X246607379Y-98057379D01*
X246519137Y-98172377D01*
X246463671Y-98306287D01*
X246463670Y-98306290D01*
X246463670Y-98306291D01*
X246457215Y-98355320D01*
X246444955Y-98448441D01*
X246416688Y-98512337D01*
X246358363Y-98550808D01*
X246305831Y-98555194D01*
X246245968Y-98547313D01*
X246245965Y-98547313D01*
X246102257Y-98566233D01*
X246102253Y-98566234D01*
X245968343Y-98621700D01*
X245853345Y-98709942D01*
X245765103Y-98824940D01*
X245709637Y-98958850D01*
X245709636Y-98958854D01*
X245694000Y-99077622D01*
X245690716Y-99102563D01*
X245705808Y-99217199D01*
X245709636Y-99246271D01*
X245709637Y-99246275D01*
X245765103Y-99380185D01*
X245765104Y-99380187D01*
X245765105Y-99380188D01*
X245853345Y-99495184D01*
X245968341Y-99583424D01*
X246102257Y-99638893D01*
X246223848Y-99654901D01*
X246245965Y-99657813D01*
X246245966Y-99657813D01*
X246245967Y-99657813D01*
X246267940Y-99654920D01*
X246389675Y-99638893D01*
X246523591Y-99583424D01*
X246638587Y-99495184D01*
X246726827Y-99380188D01*
X246782296Y-99246272D01*
X246801011Y-99104119D01*
X246829276Y-99040225D01*
X246887601Y-99001754D01*
X246940133Y-98997368D01*
X247000000Y-99005250D01*
X247007077Y-99004318D01*
X247076112Y-99015080D01*
X247128370Y-99061457D01*
X247146207Y-99111070D01*
X247162698Y-99236329D01*
X247163670Y-99243707D01*
X247163671Y-99243712D01*
X247171951Y-99263702D01*
X247179420Y-99333172D01*
X247148144Y-99395651D01*
X247127106Y-99412399D01*
X247127353Y-99412720D01*
X247120907Y-99417666D01*
X247120905Y-99417667D01*
X247005909Y-99505907D01*
X246917667Y-99620905D01*
X246862201Y-99754815D01*
X246862200Y-99754819D01*
X246849320Y-99852654D01*
X246843280Y-99898528D01*
X246856160Y-99996363D01*
X246862200Y-100042236D01*
X246862201Y-100042240D01*
X246917667Y-100176150D01*
X246917668Y-100176152D01*
X246917669Y-100176153D01*
X246927543Y-100189021D01*
X246952737Y-100254189D01*
X246938699Y-100322634D01*
X246889885Y-100372624D01*
X246845355Y-100387446D01*
X246787662Y-100395042D01*
X246787659Y-100395043D01*
X246653749Y-100450509D01*
X246538751Y-100538751D01*
X246450509Y-100653749D01*
X246395043Y-100787659D01*
X246395042Y-100787663D01*
X246376122Y-100931372D01*
X246391478Y-101048014D01*
X246395042Y-101075080D01*
X246395043Y-101075084D01*
X246450509Y-101208994D01*
X246450510Y-101208996D01*
X246450511Y-101208997D01*
X246538751Y-101323993D01*
X246653747Y-101412233D01*
X246653748Y-101412233D01*
X246653749Y-101412234D01*
X246693014Y-101428498D01*
X246747418Y-101472339D01*
X246769483Y-101538633D01*
X246760124Y-101590510D01*
X246726038Y-101672803D01*
X246726038Y-101672804D01*
X246707118Y-101816512D01*
X246707118Y-101816513D01*
X246726152Y-101961089D01*
X246715387Y-102030125D01*
X246669007Y-102082381D01*
X246650672Y-102091833D01*
X246641765Y-102095522D01*
X246641764Y-102095523D01*
X246526764Y-102183766D01*
X246438522Y-102298764D01*
X246383056Y-102432674D01*
X246383055Y-102432678D01*
X246364135Y-102576387D01*
X246377463Y-102677625D01*
X246383055Y-102720095D01*
X246383056Y-102720099D01*
X246438523Y-102854010D01*
X246438524Y-102854012D01*
X246508867Y-102945685D01*
X246534061Y-103010854D01*
X246520023Y-103079299D01*
X246471209Y-103129288D01*
X246457948Y-103135730D01*
X246456501Y-103136330D01*
X246444526Y-103141290D01*
X246329530Y-103229530D01*
X246241288Y-103344528D01*
X246185822Y-103478438D01*
X246185821Y-103478442D01*
X246174150Y-103567094D01*
X246166901Y-103622151D01*
X246184424Y-103755252D01*
X246185821Y-103765859D01*
X246185822Y-103765863D01*
X246241288Y-103899773D01*
X246241289Y-103899775D01*
X246241290Y-103899776D01*
X246329530Y-104014772D01*
X246444526Y-104103012D01*
X246444527Y-104103012D01*
X246444528Y-104103013D01*
X246483753Y-104119260D01*
X246578442Y-104158481D01*
X246578443Y-104158481D01*
X246586294Y-104160585D01*
X246585580Y-104163247D01*
X246637156Y-104186053D01*
X246675636Y-104244372D01*
X246680028Y-104296923D01*
X246669750Y-104374996D01*
X246669750Y-104374999D01*
X246669750Y-104375000D01*
X246688214Y-104515249D01*
X246688670Y-104518708D01*
X246688671Y-104518712D01*
X246744137Y-104652622D01*
X246744138Y-104652624D01*
X246744139Y-104652625D01*
X246832379Y-104767621D01*
X246947375Y-104855861D01*
X247081291Y-104911330D01*
X247208280Y-104928048D01*
X247224999Y-104930250D01*
X247225000Y-104930250D01*
X247225001Y-104930250D01*
X247239977Y-104928278D01*
X247368709Y-104911330D01*
X247502625Y-104855861D01*
X247617621Y-104767621D01*
X247705861Y-104652625D01*
X247761330Y-104518709D01*
X247780250Y-104375000D01*
X247780249Y-104374996D01*
X247774263Y-104329526D01*
X247761330Y-104231291D01*
X247711625Y-104111291D01*
X247705862Y-104097377D01*
X247705861Y-104097376D01*
X247705861Y-104097375D01*
X247617621Y-103982379D01*
X247502625Y-103894139D01*
X247502624Y-103894138D01*
X247502622Y-103894137D01*
X247368712Y-103838671D01*
X247368710Y-103838670D01*
X247368709Y-103838670D01*
X247368707Y-103838669D01*
X247360859Y-103836567D01*
X247361570Y-103833909D01*
X247309967Y-103811073D01*
X247271503Y-103752743D01*
X247267122Y-103700225D01*
X247277401Y-103622151D01*
X247277401Y-103622150D01*
X247269130Y-103559331D01*
X247258481Y-103478442D01*
X247203012Y-103344526D01*
X247203011Y-103344525D01*
X247203011Y-103344524D01*
X247132669Y-103252854D01*
X247107474Y-103187685D01*
X247121512Y-103119240D01*
X247170326Y-103069250D01*
X247183580Y-103062810D01*
X247197010Y-103057248D01*
X247312006Y-102969008D01*
X247400246Y-102854012D01*
X247455715Y-102720096D01*
X247474635Y-102576387D01*
X247455715Y-102432678D01*
X247455714Y-102432675D01*
X247455600Y-102431809D01*
X247466365Y-102362774D01*
X247512745Y-102310518D01*
X247531084Y-102301063D01*
X247539993Y-102297374D01*
X247654989Y-102209134D01*
X247743229Y-102094138D01*
X247798698Y-101960222D01*
X247817618Y-101816513D01*
X247813674Y-101786559D01*
X247824438Y-101717528D01*
X247870817Y-101665271D01*
X247889149Y-101655819D01*
X247982285Y-101617242D01*
X248097281Y-101529002D01*
X248164403Y-101441527D01*
X248220830Y-101400325D01*
X248290576Y-101396170D01*
X248350459Y-101429333D01*
X251334168Y-104413041D01*
X251350292Y-104432896D01*
X251355371Y-104440669D01*
X251378286Y-104458504D01*
X251388536Y-104467558D01*
X251389497Y-104468372D01*
X251398194Y-104474581D01*
X251441317Y-104529555D01*
X251447873Y-104599116D01*
X251415781Y-104661179D01*
X251355230Y-104696040D01*
X251326143Y-104699500D01*
X249407604Y-104699500D01*
X249384639Y-104706962D01*
X249365722Y-104711503D01*
X249341873Y-104715280D01*
X249320358Y-104726243D01*
X249302386Y-104733688D01*
X249279418Y-104741151D01*
X249279416Y-104741152D01*
X249259884Y-104755343D01*
X249243299Y-104765506D01*
X249221782Y-104776469D01*
X249221780Y-104776471D01*
X248060071Y-105938181D01*
X247998748Y-105971666D01*
X247972390Y-105974500D01*
X246527609Y-105974500D01*
X246460570Y-105954815D01*
X246439933Y-105938185D01*
X246277194Y-105775446D01*
X246253220Y-105751472D01*
X246253218Y-105751470D01*
X246231703Y-105740508D01*
X246215110Y-105730340D01*
X246195580Y-105716150D01*
X246172615Y-105708688D01*
X246154641Y-105701243D01*
X246133127Y-105690281D01*
X246128010Y-105689470D01*
X246109273Y-105686503D01*
X246090358Y-105681962D01*
X246067394Y-105674500D01*
X246067393Y-105674500D01*
X246033488Y-105674500D01*
X240452610Y-105674500D01*
X240385571Y-105654815D01*
X240364929Y-105638181D01*
X239966914Y-105240166D01*
X239933429Y-105178843D01*
X239938413Y-105109151D01*
X239980285Y-105053218D01*
X240043709Y-105029561D01*
X240043707Y-105029546D01*
X240043775Y-105029536D01*
X240045749Y-105028801D01*
X240050712Y-105028623D01*
X240051762Y-105028484D01*
X240051765Y-105028485D01*
X240195474Y-105009565D01*
X240329390Y-104954096D01*
X240444386Y-104865856D01*
X240532626Y-104750860D01*
X240588095Y-104616944D01*
X240607015Y-104473235D01*
X240588095Y-104329526D01*
X240532626Y-104195610D01*
X240444386Y-104080614D01*
X240329390Y-103992374D01*
X240329389Y-103992373D01*
X240329387Y-103992372D01*
X240195477Y-103936906D01*
X240195475Y-103936905D01*
X240195474Y-103936905D01*
X240104403Y-103924915D01*
X240051766Y-103917985D01*
X240043638Y-103917985D01*
X240043638Y-103914478D01*
X239990378Y-103906007D01*
X239955887Y-103881675D01*
X239661167Y-103586955D01*
X239645041Y-103567098D01*
X239639967Y-103559331D01*
X239617054Y-103541497D01*
X239606778Y-103532422D01*
X239605839Y-103531627D01*
X239605837Y-103531625D01*
X239590181Y-103520447D01*
X239586074Y-103517385D01*
X239580368Y-103512943D01*
X239547656Y-103487483D01*
X239547654Y-103487482D01*
X239541170Y-103483973D01*
X239534597Y-103480759D01*
X239487939Y-103466868D01*
X239483062Y-103465306D01*
X239437014Y-103449498D01*
X239429817Y-103448297D01*
X239422481Y-103447382D01*
X239373862Y-103449394D01*
X239368737Y-103449500D01*
X237896544Y-103449500D01*
X237829505Y-103429815D01*
X237808863Y-103413181D01*
X237361819Y-102966137D01*
X237328334Y-102904814D01*
X237325500Y-102878456D01*
X237325500Y-96696543D01*
X237345185Y-96629504D01*
X237361819Y-96608862D01*
X237612478Y-96358203D01*
X237673801Y-96324718D01*
X237700159Y-96321884D01*
X238610109Y-96321884D01*
X238635554Y-96324522D01*
X238644635Y-96326427D01*
X238669993Y-96323265D01*
X238673443Y-96322836D01*
X238687084Y-96321989D01*
X238688346Y-96321884D01*
X238688360Y-96321884D01*
X238696391Y-96320543D01*
X238707334Y-96318718D01*
X238712383Y-96317981D01*
X238760713Y-96311957D01*
X238760719Y-96311953D01*
X238767776Y-96309852D01*
X238774697Y-96307476D01*
X238774701Y-96307476D01*
X238817536Y-96284293D01*
X238822049Y-96281970D01*
X238865804Y-96260582D01*
X238865806Y-96260579D01*
X238871781Y-96256313D01*
X238877576Y-96251803D01*
X238877575Y-96251803D01*
X238877578Y-96251802D01*
X238910574Y-96215956D01*
X238914076Y-96212308D01*
X238978944Y-96147440D01*
X239040265Y-96113957D01*
X239066692Y-96113027D01*
X239066692Y-96111133D01*
X239074821Y-96111133D01*
X239218530Y-96092213D01*
X239352446Y-96036744D01*
X239467442Y-95948504D01*
X239555682Y-95833508D01*
X239611151Y-95699592D01*
X239630071Y-95555883D01*
X239611151Y-95412174D01*
X239574171Y-95322896D01*
X239555683Y-95278260D01*
X239555682Y-95278259D01*
X239555682Y-95278258D01*
X239467442Y-95163262D01*
X239352446Y-95075022D01*
X239352442Y-95075020D01*
X239236257Y-95026895D01*
X239181853Y-94983054D01*
X239159788Y-94916760D01*
X239177067Y-94849061D01*
X239196022Y-94824658D01*
X239333864Y-94686816D01*
X239395186Y-94653334D01*
X239421544Y-94650500D01*
X242741474Y-94650500D01*
X242766919Y-94653138D01*
X242776000Y-94655043D01*
X242801358Y-94651881D01*
X242804808Y-94651452D01*
X242818449Y-94650605D01*
X242819711Y-94650500D01*
X242819725Y-94650500D01*
X242827756Y-94649159D01*
X242838699Y-94647334D01*
X242843748Y-94646597D01*
X242892078Y-94640573D01*
X242892084Y-94640569D01*
X242899141Y-94638468D01*
X242906062Y-94636092D01*
X242906066Y-94636092D01*
X242948901Y-94612909D01*
X242953414Y-94610586D01*
X242997169Y-94589198D01*
X242997171Y-94589195D01*
X243003146Y-94584929D01*
X243008941Y-94580419D01*
X243008940Y-94580419D01*
X243008943Y-94580418D01*
X243041939Y-94544572D01*
X243045441Y-94540924D01*
X244853359Y-92733006D01*
X244914680Y-92699523D01*
X244924814Y-92697756D01*
X244959242Y-92693224D01*
X244959246Y-92693222D01*
X244959248Y-92693222D01*
X244959248Y-92693221D01*
X245093158Y-92637755D01*
X245208154Y-92549515D01*
X245224712Y-92527936D01*
X245281139Y-92486734D01*
X245350885Y-92482579D01*
X245398570Y-92505045D01*
X245497375Y-92580861D01*
X245631291Y-92636330D01*
X245758280Y-92653048D01*
X245774999Y-92655250D01*
X245775000Y-92655250D01*
X245775001Y-92655250D01*
X245789977Y-92653278D01*
X245918709Y-92636330D01*
X246052625Y-92580861D01*
X246167621Y-92492621D01*
X246255861Y-92377625D01*
X246311330Y-92243709D01*
X246330250Y-92100000D01*
X246311330Y-91956291D01*
X246269299Y-91854818D01*
X246255862Y-91822377D01*
X246255861Y-91822376D01*
X246255861Y-91822375D01*
X246167621Y-91707379D01*
X246052625Y-91619139D01*
X246052624Y-91619138D01*
X246052622Y-91619137D01*
X245918712Y-91563671D01*
X245918710Y-91563670D01*
X245918709Y-91563670D01*
X245846854Y-91554210D01*
X245775001Y-91544750D01*
X245774999Y-91544750D01*
X245631291Y-91563670D01*
X245631287Y-91563671D01*
X245497377Y-91619137D01*
X245439877Y-91663259D01*
X245382379Y-91707379D01*
X245382378Y-91707380D01*
X245382377Y-91707381D01*
X245365818Y-91728960D01*
X245309389Y-91770161D01*
X245239642Y-91774313D01*
X245191960Y-91751847D01*
X245093158Y-91676033D01*
X245093157Y-91676032D01*
X245093155Y-91676031D01*
X244959245Y-91620565D01*
X244959243Y-91620564D01*
X244959242Y-91620564D01*
X244887387Y-91611104D01*
X244815534Y-91601644D01*
X244815532Y-91601644D01*
X244671824Y-91620564D01*
X244671820Y-91620565D01*
X244537910Y-91676031D01*
X244422912Y-91764273D01*
X244334670Y-91879271D01*
X244279204Y-92013181D01*
X244279203Y-92013185D01*
X244260283Y-92156893D01*
X244260283Y-92156894D01*
X244272989Y-92253405D01*
X244262224Y-92322441D01*
X244237731Y-92357272D01*
X244157490Y-92437513D01*
X244096167Y-92470998D01*
X244026475Y-92466014D01*
X243970542Y-92424142D01*
X243946125Y-92358678D01*
X243946869Y-92333653D01*
X243955250Y-92270000D01*
X243955080Y-92268712D01*
X243951789Y-92243709D01*
X243936330Y-92126291D01*
X243888162Y-92010002D01*
X243880862Y-91992377D01*
X243880861Y-91992376D01*
X243880861Y-91992375D01*
X243792621Y-91877379D01*
X243677625Y-91789139D01*
X243677624Y-91789138D01*
X243677622Y-91789137D01*
X243543712Y-91733671D01*
X243543710Y-91733670D01*
X243543709Y-91733670D01*
X243471854Y-91724210D01*
X243400001Y-91714750D01*
X243399999Y-91714750D01*
X243256291Y-91733670D01*
X243256287Y-91733671D01*
X243122377Y-91789137D01*
X243007376Y-91877381D01*
X242959021Y-91940399D01*
X242902593Y-91981602D01*
X242832847Y-91985756D01*
X242785159Y-91963287D01*
X242770121Y-91951748D01*
X242727625Y-91919139D01*
X242727623Y-91919138D01*
X242593712Y-91863671D01*
X242593710Y-91863670D01*
X242593709Y-91863670D01*
X242469954Y-91847377D01*
X242450001Y-91844750D01*
X242449999Y-91844750D01*
X242306291Y-91863670D01*
X242306287Y-91863671D01*
X242172376Y-91919138D01*
X242172374Y-91919139D01*
X242145566Y-91939710D01*
X242080397Y-91964904D01*
X242011952Y-91950865D01*
X241994593Y-91939709D01*
X241902626Y-91869139D01*
X241902623Y-91869138D01*
X241768712Y-91813671D01*
X241768710Y-91813670D01*
X241768709Y-91813670D01*
X241691127Y-91803456D01*
X241625001Y-91794750D01*
X241624999Y-91794750D01*
X241481291Y-91813670D01*
X241481287Y-91813671D01*
X241347377Y-91869137D01*
X241232379Y-91957379D01*
X241144137Y-92072377D01*
X241088671Y-92206287D01*
X241088670Y-92206291D01*
X241071323Y-92338055D01*
X241069750Y-92350000D01*
X241077160Y-92406287D01*
X241088670Y-92493708D01*
X241088671Y-92493712D01*
X241144137Y-92627622D01*
X241144138Y-92627624D01*
X241144139Y-92627625D01*
X241232379Y-92742621D01*
X241347375Y-92830861D01*
X241347376Y-92830861D01*
X241347377Y-92830862D01*
X241392013Y-92849350D01*
X241481291Y-92886330D01*
X241529521Y-92892679D01*
X241593417Y-92920945D01*
X241631889Y-92979269D01*
X241632721Y-93049134D01*
X241601026Y-93103290D01*
X241591146Y-93113172D01*
X241529826Y-93146664D01*
X241503456Y-93149500D01*
X236789897Y-93149500D01*
X236764451Y-93146861D01*
X236755371Y-93144957D01*
X236755370Y-93144957D01*
X236755369Y-93144957D01*
X236726563Y-93148548D01*
X236712897Y-93149396D01*
X236711651Y-93149499D01*
X236692646Y-93152669D01*
X236687589Y-93153405D01*
X236639293Y-93159426D01*
X236632256Y-93161520D01*
X236625305Y-93163907D01*
X236582495Y-93187074D01*
X236577944Y-93189417D01*
X236534199Y-93210804D01*
X236528206Y-93215081D01*
X236522428Y-93219580D01*
X236489443Y-93255410D01*
X236485897Y-93259106D01*
X236186955Y-93558047D01*
X236167106Y-93574168D01*
X236159331Y-93579248D01*
X236141499Y-93602158D01*
X236132394Y-93612470D01*
X236131622Y-93613382D01*
X236125414Y-93622077D01*
X236070437Y-93665196D01*
X236000875Y-93671748D01*
X235938814Y-93639651D01*
X235903958Y-93579097D01*
X235900500Y-93550019D01*
X235900500Y-92800091D01*
X235920185Y-92733052D01*
X235972989Y-92687297D01*
X236042147Y-92677353D01*
X236105703Y-92706378D01*
X236122873Y-92724602D01*
X236132379Y-92736990D01*
X236247375Y-92825230D01*
X236247376Y-92825230D01*
X236247377Y-92825231D01*
X236260972Y-92830862D01*
X236381291Y-92880699D01*
X236508280Y-92897417D01*
X236524999Y-92899619D01*
X236525000Y-92899619D01*
X236525001Y-92899619D01*
X236539977Y-92897647D01*
X236668709Y-92880699D01*
X236802625Y-92825230D01*
X236917621Y-92736990D01*
X237005861Y-92621994D01*
X237061330Y-92488078D01*
X237066040Y-92452297D01*
X237094306Y-92388402D01*
X237152630Y-92349930D01*
X237222495Y-92349098D01*
X237281718Y-92386170D01*
X237289026Y-92396303D01*
X237289192Y-92396177D01*
X237294138Y-92402622D01*
X237294139Y-92402625D01*
X237382379Y-92517621D01*
X237497375Y-92605861D01*
X237631291Y-92661330D01*
X237752996Y-92677353D01*
X237774999Y-92680250D01*
X237775000Y-92680250D01*
X237775001Y-92680250D01*
X237797004Y-92677353D01*
X237918709Y-92661330D01*
X238052625Y-92605861D01*
X238167621Y-92517621D01*
X238255861Y-92402625D01*
X238311330Y-92268709D01*
X238324326Y-92169998D01*
X239044750Y-92169998D01*
X239058228Y-92272375D01*
X239063670Y-92313706D01*
X239063671Y-92313710D01*
X239119137Y-92447620D01*
X239119138Y-92447622D01*
X239119139Y-92447623D01*
X239207379Y-92562619D01*
X239322375Y-92650859D01*
X239322376Y-92650859D01*
X239322377Y-92650860D01*
X239350771Y-92662621D01*
X239456291Y-92706328D01*
X239583280Y-92723046D01*
X239599999Y-92725248D01*
X239600000Y-92725248D01*
X239600001Y-92725248D01*
X239614977Y-92723276D01*
X239743709Y-92706328D01*
X239877625Y-92650859D01*
X239992621Y-92562619D01*
X240080861Y-92447623D01*
X240136330Y-92313707D01*
X240155250Y-92169998D01*
X240136330Y-92026289D01*
X240080861Y-91892373D01*
X239992621Y-91777377D01*
X239877625Y-91689137D01*
X239877624Y-91689136D01*
X239877622Y-91689135D01*
X239743712Y-91633669D01*
X239743710Y-91633668D01*
X239743709Y-91633668D01*
X239644176Y-91620564D01*
X239600001Y-91614748D01*
X239599999Y-91614748D01*
X239456291Y-91633668D01*
X239456287Y-91633669D01*
X239322377Y-91689135D01*
X239207379Y-91777377D01*
X239119137Y-91892375D01*
X239063671Y-92026285D01*
X239063670Y-92026289D01*
X239046895Y-92153709D01*
X239044750Y-92169998D01*
X238324326Y-92169998D01*
X238330250Y-92125000D01*
X238311330Y-91981291D01*
X238268289Y-91877379D01*
X238255862Y-91847377D01*
X238255861Y-91847376D01*
X238255861Y-91847375D01*
X238167621Y-91732379D01*
X238052625Y-91644139D01*
X238052624Y-91644138D01*
X238052622Y-91644137D01*
X237918712Y-91588671D01*
X237918710Y-91588670D01*
X237918709Y-91588670D01*
X237846854Y-91579210D01*
X237775001Y-91569750D01*
X237774999Y-91569750D01*
X237631291Y-91588670D01*
X237631287Y-91588671D01*
X237497377Y-91644137D01*
X237382379Y-91732379D01*
X237294137Y-91847377D01*
X237238671Y-91981287D01*
X237238670Y-91981291D01*
X237233959Y-92017072D01*
X237205691Y-92080968D01*
X237147366Y-92119439D01*
X237077501Y-92120269D01*
X237018279Y-92083196D01*
X237010973Y-92073065D01*
X237010808Y-92073192D01*
X237005861Y-92066746D01*
X237005861Y-92066744D01*
X236917621Y-91951748D01*
X236802625Y-91863508D01*
X236802624Y-91863507D01*
X236802622Y-91863506D01*
X236668712Y-91808040D01*
X236668710Y-91808039D01*
X236668709Y-91808039D01*
X236567771Y-91794750D01*
X236525001Y-91789119D01*
X236524999Y-91789119D01*
X236381291Y-91808039D01*
X236381287Y-91808040D01*
X236247377Y-91863506D01*
X236209755Y-91892375D01*
X236132379Y-91951748D01*
X236132378Y-91951749D01*
X236132377Y-91951750D01*
X236055038Y-92052539D01*
X235998610Y-92093742D01*
X235928864Y-92097896D01*
X235867944Y-92063683D01*
X235856347Y-92049940D01*
X235844655Y-92033847D01*
X235834493Y-92017265D01*
X235823528Y-91995744D01*
X235728220Y-91900436D01*
X235721158Y-91893374D01*
X235721151Y-91893368D01*
X235711813Y-91884030D01*
X235678332Y-91822706D01*
X235675500Y-91796354D01*
X235675500Y-91399735D01*
X235695185Y-91332696D01*
X235701114Y-91324261D01*
X235730861Y-91285496D01*
X235786330Y-91151580D01*
X235805250Y-91007871D01*
X235786330Y-90864162D01*
X235730861Y-90730246D01*
X235642621Y-90615250D01*
X235527625Y-90527010D01*
X235527624Y-90527009D01*
X235527622Y-90527008D01*
X235393712Y-90471542D01*
X235393710Y-90471541D01*
X235393709Y-90471541D01*
X235321854Y-90462081D01*
X235250001Y-90452621D01*
X235249999Y-90452621D01*
X235106291Y-90471541D01*
X235106287Y-90471542D01*
X234972377Y-90527008D01*
X234857379Y-90615250D01*
X234769137Y-90730248D01*
X234713671Y-90864158D01*
X234713670Y-90864162D01*
X234694750Y-91007870D01*
X234694750Y-91007871D01*
X234713670Y-91151579D01*
X234713671Y-91151583D01*
X234769137Y-91285493D01*
X234769138Y-91285495D01*
X234769139Y-91285496D01*
X234798875Y-91324249D01*
X234824070Y-91389416D01*
X234824500Y-91399735D01*
X234824500Y-92091358D01*
X234831962Y-92114322D01*
X234836503Y-92133237D01*
X234839051Y-92149326D01*
X234840281Y-92157091D01*
X234851243Y-92178605D01*
X234858688Y-92196579D01*
X234866150Y-92219544D01*
X234880340Y-92239074D01*
X234890508Y-92255667D01*
X234901470Y-92277182D01*
X235013181Y-92388893D01*
X235046666Y-92450216D01*
X235049500Y-92476574D01*
X235049500Y-93937799D01*
X235056962Y-93960763D01*
X235061503Y-93979678D01*
X235061896Y-93982156D01*
X235065281Y-94003532D01*
X235076243Y-94025046D01*
X235083688Y-94043019D01*
X235093430Y-94072999D01*
X235099500Y-94111320D01*
X235099500Y-94595634D01*
X235079815Y-94662673D01*
X235063181Y-94683315D01*
X235029339Y-94717157D01*
X235029337Y-94717160D01*
X234951472Y-94795024D01*
X234940510Y-94816539D01*
X234930346Y-94833124D01*
X234916152Y-94852660D01*
X234916151Y-94852663D01*
X234908688Y-94875631D01*
X234901243Y-94893604D01*
X234890280Y-94915119D01*
X234886503Y-94938968D01*
X234881962Y-94957885D01*
X234874500Y-94980850D01*
X234874500Y-96261202D01*
X234854815Y-96328241D01*
X234802011Y-96373996D01*
X234734315Y-96384141D01*
X234625002Y-96369750D01*
X234624999Y-96369750D01*
X234481291Y-96388670D01*
X234481287Y-96388671D01*
X234347377Y-96444137D01*
X234232379Y-96532379D01*
X234144137Y-96647377D01*
X234088671Y-96781287D01*
X234088670Y-96781291D01*
X234073042Y-96899999D01*
X234069750Y-96925000D01*
X234085378Y-97043708D01*
X234088670Y-97068708D01*
X234088671Y-97068712D01*
X234144137Y-97202622D01*
X234144138Y-97202624D01*
X234144139Y-97202625D01*
X234232379Y-97317621D01*
X234347375Y-97405861D01*
X234347376Y-97405861D01*
X234347377Y-97405862D01*
X234392013Y-97424350D01*
X234481291Y-97461330D01*
X234597451Y-97476623D01*
X234624999Y-97480250D01*
X234625000Y-97480250D01*
X234625001Y-97480250D01*
X234672860Y-97473949D01*
X234734314Y-97465858D01*
X234803349Y-97476623D01*
X234855605Y-97523003D01*
X234874500Y-97588797D01*
X234874500Y-105667394D01*
X234881962Y-105690358D01*
X234886503Y-105709273D01*
X234889379Y-105727430D01*
X234890281Y-105733127D01*
X234901243Y-105754641D01*
X234908688Y-105772615D01*
X234916150Y-105795580D01*
X234930340Y-105815110D01*
X234940508Y-105831703D01*
X234951470Y-105853218D01*
X234951472Y-105853220D01*
X234975446Y-105877194D01*
X235451472Y-106353220D01*
X235546780Y-106448528D01*
X235568296Y-106459491D01*
X235584878Y-106469653D01*
X235604419Y-106483850D01*
X235627383Y-106491311D01*
X235645363Y-106498758D01*
X235675571Y-106514151D01*
X235674101Y-106517035D01*
X235717934Y-106547009D01*
X235745130Y-106611369D01*
X235733214Y-106680215D01*
X235685968Y-106731689D01*
X235621938Y-106749500D01*
X226253481Y-106749500D01*
X226246528Y-106749305D01*
X225954703Y-106732916D01*
X225940885Y-106731359D01*
X225656172Y-106682984D01*
X225642615Y-106679890D01*
X225365100Y-106599939D01*
X225351975Y-106595346D01*
X225085165Y-106484830D01*
X225072637Y-106478797D01*
X224819874Y-106339100D01*
X224808100Y-106331702D01*
X224572569Y-106164584D01*
X224561697Y-106155914D01*
X224346357Y-105963475D01*
X224336524Y-105953642D01*
X224330873Y-105947319D01*
X224144085Y-105738302D01*
X224135415Y-105727430D01*
X224127411Y-105716150D01*
X224080310Y-105649767D01*
X223968297Y-105491899D01*
X223960899Y-105480125D01*
X223917560Y-105401708D01*
X223821198Y-105227355D01*
X223815172Y-105214841D01*
X223708421Y-104957120D01*
X223704653Y-104948024D01*
X223700060Y-104934899D01*
X223643889Y-104739927D01*
X223620108Y-104657382D01*
X223617015Y-104643827D01*
X223608494Y-104593677D01*
X223568638Y-104359103D01*
X223567084Y-104345306D01*
X223550695Y-104053472D01*
X223550500Y-104046519D01*
X223550500Y-103940000D01*
X224694396Y-103940000D01*
X224714778Y-104198990D01*
X224775427Y-104451610D01*
X224874843Y-104691623D01*
X224874845Y-104691627D01*
X224874846Y-104691628D01*
X225010588Y-104913140D01*
X225179311Y-105110689D01*
X225376860Y-105279412D01*
X225598372Y-105415154D01*
X225598374Y-105415154D01*
X225598376Y-105415156D01*
X225648921Y-105436092D01*
X225838390Y-105514573D01*
X226091006Y-105575221D01*
X226285147Y-105590500D01*
X226285155Y-105590500D01*
X226414845Y-105590500D01*
X226414853Y-105590500D01*
X226608994Y-105575221D01*
X226861610Y-105514573D01*
X227101628Y-105415154D01*
X227323140Y-105279412D01*
X227520689Y-105110689D01*
X227689412Y-104913140D01*
X227825154Y-104691628D01*
X227924573Y-104451610D01*
X227985221Y-104198994D01*
X228005604Y-103940000D01*
X227985221Y-103681006D01*
X227924573Y-103428390D01*
X227850474Y-103249500D01*
X227825156Y-103188376D01*
X227820551Y-103180862D01*
X227689412Y-102966860D01*
X227520689Y-102769311D01*
X227323140Y-102600588D01*
X227101628Y-102464846D01*
X227101627Y-102464845D01*
X227101623Y-102464843D01*
X226945077Y-102400000D01*
X228044750Y-102400000D01*
X228062259Y-102532995D01*
X228063670Y-102543708D01*
X228063671Y-102543712D01*
X228119137Y-102677622D01*
X228119138Y-102677624D01*
X228119139Y-102677625D01*
X228207379Y-102792621D01*
X228322375Y-102880861D01*
X228456291Y-102936330D01*
X228583280Y-102953048D01*
X228599999Y-102955250D01*
X228600000Y-102955250D01*
X228600001Y-102955250D01*
X228614977Y-102953278D01*
X228743709Y-102936330D01*
X228877625Y-102880861D01*
X228992621Y-102792621D01*
X229063692Y-102700000D01*
X232644750Y-102700000D01*
X232661546Y-102827579D01*
X232663670Y-102843708D01*
X232663671Y-102843712D01*
X232719137Y-102977622D01*
X232719138Y-102977624D01*
X232719139Y-102977625D01*
X232807379Y-103092621D01*
X232922375Y-103180861D01*
X232922376Y-103180861D01*
X232922377Y-103180862D01*
X232967013Y-103199350D01*
X233056291Y-103236330D01*
X233181801Y-103252854D01*
X233199999Y-103255250D01*
X233200000Y-103255250D01*
X233200001Y-103255250D01*
X233218199Y-103252854D01*
X233343709Y-103236330D01*
X233477625Y-103180861D01*
X233592621Y-103092621D01*
X233680861Y-102977625D01*
X233736330Y-102843709D01*
X233755250Y-102700000D01*
X233736330Y-102556291D01*
X233680861Y-102422375D01*
X233592621Y-102307379D01*
X233477625Y-102219139D01*
X233477624Y-102219138D01*
X233477622Y-102219137D01*
X233343712Y-102163671D01*
X233343710Y-102163670D01*
X233343709Y-102163670D01*
X233271854Y-102154210D01*
X233200001Y-102144750D01*
X233199999Y-102144750D01*
X233056291Y-102163670D01*
X233056287Y-102163671D01*
X232922377Y-102219137D01*
X232807379Y-102307379D01*
X232719137Y-102422377D01*
X232663671Y-102556287D01*
X232663670Y-102556291D01*
X232644750Y-102700000D01*
X229063692Y-102700000D01*
X229080861Y-102677625D01*
X229136330Y-102543709D01*
X229155250Y-102400000D01*
X229154437Y-102393828D01*
X229153001Y-102382919D01*
X229136330Y-102256291D01*
X229080861Y-102122375D01*
X228992621Y-102007379D01*
X228877625Y-101919139D01*
X228877624Y-101919138D01*
X228877622Y-101919137D01*
X228743712Y-101863671D01*
X228743710Y-101863670D01*
X228743709Y-101863670D01*
X228671854Y-101854210D01*
X228600001Y-101844750D01*
X228599999Y-101844750D01*
X228456291Y-101863670D01*
X228456287Y-101863671D01*
X228322377Y-101919137D01*
X228207379Y-102007379D01*
X228119137Y-102122377D01*
X228063671Y-102256287D01*
X228063670Y-102256291D01*
X228045563Y-102393828D01*
X228044750Y-102400000D01*
X226945077Y-102400000D01*
X226919213Y-102389287D01*
X226861610Y-102365427D01*
X226861611Y-102365427D01*
X226684181Y-102322830D01*
X226608994Y-102304779D01*
X226608992Y-102304778D01*
X226608991Y-102304778D01*
X226414858Y-102289500D01*
X226414853Y-102289500D01*
X226285147Y-102289500D01*
X226285141Y-102289500D01*
X226091009Y-102304778D01*
X225838389Y-102365427D01*
X225598376Y-102464843D01*
X225376859Y-102600588D01*
X225179311Y-102769311D01*
X225010588Y-102966859D01*
X224874843Y-103188376D01*
X224775427Y-103428389D01*
X224714778Y-103681009D01*
X224694396Y-103940000D01*
X223550500Y-103940000D01*
X223550500Y-97352461D01*
X223570185Y-97285422D01*
X223622989Y-97239667D01*
X223692147Y-97229723D01*
X223755703Y-97258748D01*
X223789061Y-97305009D01*
X223819137Y-97377622D01*
X223819138Y-97377624D01*
X223819139Y-97377625D01*
X223907379Y-97492621D01*
X224022375Y-97580861D01*
X224156291Y-97636330D01*
X224283280Y-97653048D01*
X224299999Y-97655250D01*
X224300000Y-97655250D01*
X224300001Y-97655250D01*
X224314977Y-97653278D01*
X224443709Y-97636330D01*
X224577625Y-97580861D01*
X224674515Y-97506514D01*
X224739682Y-97481321D01*
X224808127Y-97495359D01*
X224825480Y-97506510D01*
X224922375Y-97580861D01*
X225056291Y-97636330D01*
X225183280Y-97653048D01*
X225199999Y-97655250D01*
X225200000Y-97655250D01*
X225200001Y-97655250D01*
X225214977Y-97653278D01*
X225343709Y-97636330D01*
X225477625Y-97580861D01*
X225524514Y-97544881D01*
X225589682Y-97519687D01*
X225658127Y-97533725D01*
X225675483Y-97544880D01*
X225722375Y-97580861D01*
X225856291Y-97636330D01*
X225983280Y-97653048D01*
X225999999Y-97655250D01*
X226000000Y-97655250D01*
X226000001Y-97655250D01*
X226014977Y-97653278D01*
X226143709Y-97636330D01*
X226277625Y-97580861D01*
X226392621Y-97492621D01*
X226406949Y-97473948D01*
X226463375Y-97432746D01*
X226533121Y-97428591D01*
X226552768Y-97434871D01*
X226556291Y-97436330D01*
X226649041Y-97448541D01*
X226699999Y-97455250D01*
X226700000Y-97455250D01*
X226700001Y-97455250D01*
X226714977Y-97453278D01*
X226843709Y-97436330D01*
X226977625Y-97380861D01*
X227092621Y-97292621D01*
X227180861Y-97177625D01*
X227236330Y-97043709D01*
X227242085Y-97000000D01*
X232444750Y-97000000D01*
X232457915Y-97100000D01*
X232463670Y-97143708D01*
X232463671Y-97143712D01*
X232519137Y-97277622D01*
X232519138Y-97277624D01*
X232519139Y-97277625D01*
X232607379Y-97392621D01*
X232722375Y-97480861D01*
X232722376Y-97480861D01*
X232722377Y-97480862D01*
X232757377Y-97495359D01*
X232856291Y-97536330D01*
X232983280Y-97553048D01*
X232999999Y-97555250D01*
X233000000Y-97555250D01*
X233000001Y-97555250D01*
X233014977Y-97553278D01*
X233143709Y-97536330D01*
X233277625Y-97480861D01*
X233392621Y-97392621D01*
X233480861Y-97277625D01*
X233536330Y-97143709D01*
X233555250Y-97000000D01*
X233536330Y-96856291D01*
X233490110Y-96744704D01*
X233480862Y-96722377D01*
X233480861Y-96722376D01*
X233480861Y-96722375D01*
X233392621Y-96607379D01*
X233277625Y-96519139D01*
X233277624Y-96519138D01*
X233277622Y-96519137D01*
X233143712Y-96463671D01*
X233143710Y-96463670D01*
X233143709Y-96463670D01*
X233067320Y-96453613D01*
X233000001Y-96444750D01*
X232999999Y-96444750D01*
X232856291Y-96463670D01*
X232856287Y-96463671D01*
X232722377Y-96519137D01*
X232607379Y-96607379D01*
X232519137Y-96722377D01*
X232463671Y-96856287D01*
X232463670Y-96856291D01*
X232445591Y-96993615D01*
X232444750Y-97000000D01*
X227242085Y-97000000D01*
X227255250Y-96900000D01*
X227254590Y-96894990D01*
X227249116Y-96853410D01*
X227236330Y-96756291D01*
X227191216Y-96647375D01*
X227177751Y-96614866D01*
X227180894Y-96613564D01*
X227168112Y-96560995D01*
X227190930Y-96494957D01*
X227193577Y-96491375D01*
X227280861Y-96377625D01*
X227336330Y-96243709D01*
X227355250Y-96100000D01*
X227336330Y-95956291D01*
X227290654Y-95846018D01*
X227280862Y-95822377D01*
X227280861Y-95822376D01*
X227280861Y-95822375D01*
X227192621Y-95707379D01*
X227172631Y-95692040D01*
X227131429Y-95635612D01*
X227127274Y-95565866D01*
X227149741Y-95518181D01*
X227180861Y-95477625D01*
X227236330Y-95343709D01*
X227255250Y-95200000D01*
X227236330Y-95056291D01*
X227187288Y-94937892D01*
X227180862Y-94922377D01*
X227180861Y-94922376D01*
X227180861Y-94922375D01*
X227106514Y-94825484D01*
X227081321Y-94760318D01*
X227095359Y-94691873D01*
X227106510Y-94674519D01*
X227180861Y-94577625D01*
X227236330Y-94443709D01*
X227255250Y-94300000D01*
X227236330Y-94156291D01*
X227185569Y-94033741D01*
X227180862Y-94022377D01*
X227180861Y-94022376D01*
X227180861Y-94022375D01*
X227092621Y-93907379D01*
X226977625Y-93819139D01*
X226977624Y-93819138D01*
X226977622Y-93819137D01*
X226843712Y-93763671D01*
X226843710Y-93763670D01*
X226843709Y-93763670D01*
X226771854Y-93754210D01*
X226700001Y-93744750D01*
X226699999Y-93744750D01*
X226556291Y-93763670D01*
X226556287Y-93763671D01*
X226422376Y-93819138D01*
X226422374Y-93819139D01*
X226375486Y-93855118D01*
X226310317Y-93880312D01*
X226241872Y-93866274D01*
X226224514Y-93855118D01*
X226177625Y-93819139D01*
X226177623Y-93819138D01*
X226043712Y-93763671D01*
X226043710Y-93763670D01*
X226043709Y-93763670D01*
X225971854Y-93754210D01*
X225900001Y-93744750D01*
X225899999Y-93744750D01*
X225756291Y-93763670D01*
X225756287Y-93763671D01*
X225622374Y-93819138D01*
X225615335Y-93823203D01*
X225614143Y-93821138D01*
X225560304Y-93841946D01*
X225491861Y-93827900D01*
X225483550Y-93822559D01*
X225477625Y-93819138D01*
X225343712Y-93763671D01*
X225343710Y-93763670D01*
X225343709Y-93763670D01*
X225271854Y-93754210D01*
X225200001Y-93744750D01*
X225199999Y-93744750D01*
X225056291Y-93763670D01*
X225056287Y-93763671D01*
X224922377Y-93819137D01*
X224892652Y-93841946D01*
X224825484Y-93893485D01*
X224760318Y-93918679D01*
X224691873Y-93904641D01*
X224674519Y-93893489D01*
X224577625Y-93819139D01*
X224577624Y-93819138D01*
X224577622Y-93819137D01*
X224443712Y-93763671D01*
X224443710Y-93763670D01*
X224443709Y-93763670D01*
X224371854Y-93754210D01*
X224300001Y-93744750D01*
X224299999Y-93744750D01*
X224156291Y-93763670D01*
X224156287Y-93763671D01*
X224022377Y-93819137D01*
X223907379Y-93907379D01*
X223819137Y-94022377D01*
X223789061Y-94094990D01*
X223745220Y-94149394D01*
X223678926Y-94171459D01*
X223611227Y-94154180D01*
X223563616Y-94103043D01*
X223550500Y-94047538D01*
X223550500Y-88162500D01*
X234907250Y-88162500D01*
X234926170Y-88306208D01*
X234926171Y-88306212D01*
X234981637Y-88440122D01*
X234981638Y-88440124D01*
X234981639Y-88440125D01*
X235069879Y-88555121D01*
X235184875Y-88643361D01*
X235184876Y-88643361D01*
X235184877Y-88643362D01*
X235185715Y-88643709D01*
X235318791Y-88698830D01*
X235445780Y-88715548D01*
X235462499Y-88717750D01*
X235462500Y-88717750D01*
X235462501Y-88717750D01*
X235477477Y-88715778D01*
X235606209Y-88698830D01*
X235740125Y-88643361D01*
X235855121Y-88555121D01*
X235897417Y-88500000D01*
X236269750Y-88500000D01*
X236282915Y-88600000D01*
X236288670Y-88643708D01*
X236288671Y-88643712D01*
X236344137Y-88777622D01*
X236344138Y-88777624D01*
X236344139Y-88777625D01*
X236432379Y-88892621D01*
X236547375Y-88980861D01*
X236681291Y-89036330D01*
X236808280Y-89053048D01*
X236824999Y-89055250D01*
X236825000Y-89055250D01*
X236825001Y-89055250D01*
X236839977Y-89053278D01*
X236968709Y-89036330D01*
X237102625Y-88980861D01*
X237217621Y-88892621D01*
X237305861Y-88777625D01*
X237361330Y-88643709D01*
X237380250Y-88500000D01*
X237361330Y-88356291D01*
X237309693Y-88231627D01*
X237305862Y-88222377D01*
X237305861Y-88222376D01*
X237305861Y-88222375D01*
X237217621Y-88107379D01*
X237102625Y-88019139D01*
X237102624Y-88019138D01*
X237102622Y-88019137D01*
X236968712Y-87963671D01*
X236968710Y-87963670D01*
X236968709Y-87963670D01*
X236896854Y-87954210D01*
X236825001Y-87944750D01*
X236824999Y-87944750D01*
X236681291Y-87963670D01*
X236681287Y-87963671D01*
X236547377Y-88019137D01*
X236432379Y-88107379D01*
X236344137Y-88222377D01*
X236288671Y-88356287D01*
X236288670Y-88356291D01*
X236275505Y-88456291D01*
X236269750Y-88500000D01*
X235897417Y-88500000D01*
X235943361Y-88440125D01*
X235998830Y-88306209D01*
X236017750Y-88162500D01*
X236016038Y-88149500D01*
X236012041Y-88119137D01*
X235998830Y-88018791D01*
X235960913Y-87927249D01*
X235943362Y-87884877D01*
X235943361Y-87884876D01*
X235943361Y-87884875D01*
X235855121Y-87769879D01*
X235740125Y-87681639D01*
X235740124Y-87681638D01*
X235740122Y-87681637D01*
X235606212Y-87626171D01*
X235606210Y-87626170D01*
X235606209Y-87626170D01*
X235514986Y-87614160D01*
X235462501Y-87607250D01*
X235462499Y-87607250D01*
X235318791Y-87626170D01*
X235318787Y-87626171D01*
X235184877Y-87681637D01*
X235069879Y-87769879D01*
X234981637Y-87884877D01*
X234926171Y-88018787D01*
X234926170Y-88018791D01*
X234907250Y-88162499D01*
X234907250Y-88162500D01*
X223550500Y-88162500D01*
X223550500Y-87400000D01*
X242244750Y-87400000D01*
X242262698Y-87536329D01*
X242263670Y-87543708D01*
X242263671Y-87543712D01*
X242319137Y-87677622D01*
X242319138Y-87677624D01*
X242319139Y-87677625D01*
X242407379Y-87792621D01*
X242522375Y-87880861D01*
X242522376Y-87880861D01*
X242522377Y-87880862D01*
X242567013Y-87899350D01*
X242656291Y-87936330D01*
X242783280Y-87953048D01*
X242799999Y-87955250D01*
X242800000Y-87955250D01*
X242800001Y-87955250D01*
X242814977Y-87953278D01*
X242943709Y-87936330D01*
X243023106Y-87903442D01*
X243092575Y-87895974D01*
X243155054Y-87927249D01*
X243168930Y-87942513D01*
X243207379Y-87992621D01*
X243322375Y-88080861D01*
X243456291Y-88136330D01*
X243583280Y-88153048D01*
X243599999Y-88155250D01*
X243600000Y-88155250D01*
X243600001Y-88155250D01*
X243616505Y-88153077D01*
X243743709Y-88136330D01*
X243877625Y-88080861D01*
X243992621Y-87992621D01*
X244080861Y-87877625D01*
X244136330Y-87743709D01*
X244155250Y-87600000D01*
X244140524Y-87488148D01*
X244151289Y-87419115D01*
X244197669Y-87366859D01*
X244247275Y-87349025D01*
X244312460Y-87340444D01*
X244381496Y-87351210D01*
X244427019Y-87387894D01*
X244507379Y-87492621D01*
X244622375Y-87580861D01*
X244622376Y-87580861D01*
X244622377Y-87580862D01*
X244667013Y-87599350D01*
X244756291Y-87636330D01*
X244883280Y-87653048D01*
X244899999Y-87655250D01*
X244900000Y-87655250D01*
X244900001Y-87655250D01*
X244914977Y-87653278D01*
X245043709Y-87636330D01*
X245177625Y-87580861D01*
X245292621Y-87492621D01*
X245380861Y-87377625D01*
X245436330Y-87243709D01*
X245455250Y-87100000D01*
X245436330Y-86956291D01*
X245380861Y-86822375D01*
X245292621Y-86707379D01*
X245177625Y-86619139D01*
X245177624Y-86619138D01*
X245177622Y-86619137D01*
X245043712Y-86563671D01*
X245043710Y-86563670D01*
X245043709Y-86563670D01*
X244930679Y-86548789D01*
X244900001Y-86544750D01*
X244899998Y-86544750D01*
X244787539Y-86559555D01*
X244718504Y-86548789D01*
X244672980Y-86512105D01*
X244592621Y-86407379D01*
X244477625Y-86319139D01*
X244477624Y-86319138D01*
X244477622Y-86319137D01*
X244343712Y-86263671D01*
X244343710Y-86263670D01*
X244343709Y-86263670D01*
X244271854Y-86254210D01*
X244200001Y-86244750D01*
X244199999Y-86244750D01*
X244056291Y-86263670D01*
X244056287Y-86263671D01*
X243922376Y-86319138D01*
X243922374Y-86319139D01*
X243875486Y-86355118D01*
X243810317Y-86380312D01*
X243741872Y-86366274D01*
X243724514Y-86355118D01*
X243677625Y-86319139D01*
X243677623Y-86319138D01*
X243543712Y-86263671D01*
X243543710Y-86263670D01*
X243543709Y-86263670D01*
X243471854Y-86254210D01*
X243400001Y-86244750D01*
X243399999Y-86244750D01*
X243256291Y-86263670D01*
X243256287Y-86263671D01*
X243122377Y-86319137D01*
X243007379Y-86407379D01*
X242919137Y-86522377D01*
X242863671Y-86656287D01*
X242863670Y-86656292D01*
X242851963Y-86745210D01*
X242823696Y-86809107D01*
X242765371Y-86847577D01*
X242745210Y-86851963D01*
X242679431Y-86860623D01*
X242656291Y-86863670D01*
X242656290Y-86863670D01*
X242656287Y-86863671D01*
X242522377Y-86919137D01*
X242407379Y-87007379D01*
X242319137Y-87122377D01*
X242263671Y-87256287D01*
X242263670Y-87256291D01*
X242245722Y-87392620D01*
X242244750Y-87400000D01*
X223550500Y-87400000D01*
X223550500Y-84010000D01*
X230314722Y-84010000D01*
X230333762Y-84166818D01*
X230376152Y-84278589D01*
X230389780Y-84314523D01*
X230479517Y-84444530D01*
X230597760Y-84549283D01*
X230597762Y-84549284D01*
X230737634Y-84622696D01*
X230737633Y-84622696D01*
X230795588Y-84636980D01*
X230855969Y-84672136D01*
X230887758Y-84734355D01*
X230889010Y-84772323D01*
X230874722Y-84889999D01*
X230874722Y-84890000D01*
X230893763Y-85046818D01*
X230942820Y-85176171D01*
X230948187Y-85245834D01*
X230915040Y-85307340D01*
X230870859Y-85336080D01*
X230867638Y-85337301D01*
X230727762Y-85410715D01*
X230609516Y-85515471D01*
X230519781Y-85645475D01*
X230519780Y-85645476D01*
X230463762Y-85793181D01*
X230444722Y-85949999D01*
X230444722Y-85950000D01*
X230463762Y-86106818D01*
X230512888Y-86236350D01*
X230519780Y-86254523D01*
X230609517Y-86384530D01*
X230727760Y-86489283D01*
X230727762Y-86489284D01*
X230867634Y-86562696D01*
X231021014Y-86600500D01*
X231021015Y-86600500D01*
X231178985Y-86600500D01*
X231332365Y-86562696D01*
X231366558Y-86544750D01*
X231472240Y-86489283D01*
X231590483Y-86384530D01*
X231680220Y-86254523D01*
X231698011Y-86207610D01*
X231740188Y-86151908D01*
X231805786Y-86127850D01*
X231871579Y-86141785D01*
X231987634Y-86202696D01*
X232141014Y-86240500D01*
X232141015Y-86240500D01*
X232298985Y-86240500D01*
X232452365Y-86202696D01*
X232592240Y-86129283D01*
X232710483Y-86024530D01*
X232795936Y-85900728D01*
X232850218Y-85856739D01*
X232919667Y-85849079D01*
X232982232Y-85880182D01*
X232996361Y-85895682D01*
X233000234Y-85900729D01*
X233032379Y-85942621D01*
X233147375Y-86030861D01*
X233147376Y-86030861D01*
X233147377Y-86030862D01*
X233192013Y-86049350D01*
X233281291Y-86086330D01*
X233404560Y-86102559D01*
X233424999Y-86105250D01*
X233425000Y-86105250D01*
X233425001Y-86105250D01*
X233439977Y-86103278D01*
X233568709Y-86086330D01*
X233702625Y-86030861D01*
X233741378Y-86001124D01*
X233806545Y-85975930D01*
X233816864Y-85975500D01*
X236796985Y-85975500D01*
X236796986Y-85975500D01*
X236819953Y-85968036D01*
X236838869Y-85963495D01*
X236862719Y-85959719D01*
X236884229Y-85948757D01*
X236902207Y-85941310D01*
X236925174Y-85933849D01*
X236944711Y-85919653D01*
X236961299Y-85909488D01*
X236982813Y-85898528D01*
X237078121Y-85803220D01*
X238219522Y-84661819D01*
X238280845Y-84628334D01*
X238307203Y-84625500D01*
X239720312Y-84625500D01*
X239787351Y-84645185D01*
X239833106Y-84697989D01*
X239843050Y-84767147D01*
X239818688Y-84824986D01*
X239767429Y-84891787D01*
X239767428Y-84891789D01*
X239711961Y-85025700D01*
X239711960Y-85025704D01*
X239693968Y-85162368D01*
X239693040Y-85169413D01*
X239711032Y-85306077D01*
X239711960Y-85313121D01*
X239711961Y-85313125D01*
X239767426Y-85447032D01*
X239767426Y-85447033D01*
X239767428Y-85447035D01*
X239767429Y-85447038D01*
X239855669Y-85562034D01*
X239970665Y-85650274D01*
X240104581Y-85705743D01*
X240231570Y-85722461D01*
X240248289Y-85724663D01*
X240248290Y-85724663D01*
X240248291Y-85724663D01*
X240263267Y-85722691D01*
X240391999Y-85705743D01*
X240525915Y-85650274D01*
X240640911Y-85562034D01*
X240688512Y-85500000D01*
X244470166Y-85500000D01*
X244484654Y-85610049D01*
X244489086Y-85643708D01*
X244489087Y-85643712D01*
X244544553Y-85777622D01*
X244544554Y-85777624D01*
X244544555Y-85777625D01*
X244632795Y-85892621D01*
X244747791Y-85980861D01*
X244747792Y-85980861D01*
X244747793Y-85980862D01*
X244792429Y-85999350D01*
X244881707Y-86036330D01*
X245008696Y-86053048D01*
X245025415Y-86055250D01*
X245025416Y-86055250D01*
X245025417Y-86055250D01*
X245040393Y-86053278D01*
X245169125Y-86036330D01*
X245303041Y-85980861D01*
X245418037Y-85892621D01*
X245506277Y-85777625D01*
X245561746Y-85643709D01*
X245580666Y-85500000D01*
X245561746Y-85356291D01*
X245521086Y-85258128D01*
X245506278Y-85222377D01*
X245506277Y-85222376D01*
X245506277Y-85222375D01*
X245460232Y-85162368D01*
X246324057Y-85162368D01*
X246341371Y-85293882D01*
X246342977Y-85306076D01*
X246342978Y-85306080D01*
X246398444Y-85439990D01*
X246398445Y-85439992D01*
X246398446Y-85439993D01*
X246486686Y-85554989D01*
X246601682Y-85643229D01*
X246601683Y-85643229D01*
X246601684Y-85643230D01*
X246607109Y-85645477D01*
X246735598Y-85698698D01*
X246862587Y-85715416D01*
X246879306Y-85717618D01*
X246879307Y-85717618D01*
X246879308Y-85717618D01*
X246894284Y-85715646D01*
X247023016Y-85698698D01*
X247156932Y-85643229D01*
X247271928Y-85554989D01*
X247360168Y-85439993D01*
X247415637Y-85306077D01*
X247434557Y-85162368D01*
X247433900Y-85157381D01*
X247429571Y-85124500D01*
X247415637Y-85018659D01*
X247363429Y-84892615D01*
X247360169Y-84884745D01*
X247360168Y-84884744D01*
X247360168Y-84884743D01*
X247271928Y-84769747D01*
X247156932Y-84681507D01*
X247156931Y-84681506D01*
X247156929Y-84681505D01*
X247023019Y-84626039D01*
X247023017Y-84626038D01*
X247023016Y-84626038D01*
X246951161Y-84616578D01*
X246879308Y-84607118D01*
X246879306Y-84607118D01*
X246735598Y-84626038D01*
X246735594Y-84626039D01*
X246601684Y-84681505D01*
X246486686Y-84769747D01*
X246398444Y-84884745D01*
X246342978Y-85018655D01*
X246342977Y-85018659D01*
X246324714Y-85157381D01*
X246324057Y-85162368D01*
X245460232Y-85162368D01*
X245418037Y-85107379D01*
X245303041Y-85019139D01*
X245303040Y-85019138D01*
X245303038Y-85019137D01*
X245169128Y-84963671D01*
X245169126Y-84963670D01*
X245169125Y-84963670D01*
X245097270Y-84954210D01*
X245025417Y-84944750D01*
X245025415Y-84944750D01*
X244881707Y-84963670D01*
X244881703Y-84963671D01*
X244747793Y-85019137D01*
X244632795Y-85107379D01*
X244544553Y-85222377D01*
X244489087Y-85356287D01*
X244489086Y-85356291D01*
X244474598Y-85466340D01*
X244470166Y-85500000D01*
X240688512Y-85500000D01*
X240729151Y-85447038D01*
X240729153Y-85447032D01*
X240729154Y-85447032D01*
X240787730Y-85305614D01*
X240790071Y-85306583D01*
X240819824Y-85257757D01*
X240882667Y-85227220D01*
X240903246Y-85225500D01*
X242533136Y-85225500D01*
X242600175Y-85245185D01*
X242608609Y-85251114D01*
X242647375Y-85280861D01*
X242647376Y-85280861D01*
X242647377Y-85280862D01*
X242678811Y-85293882D01*
X242781291Y-85336330D01*
X242908280Y-85353048D01*
X242924999Y-85355250D01*
X242925000Y-85355250D01*
X242925001Y-85355250D01*
X242939977Y-85353278D01*
X243068709Y-85336330D01*
X243202625Y-85280861D01*
X243317621Y-85192621D01*
X243405861Y-85077625D01*
X243461330Y-84943709D01*
X243480250Y-84800000D01*
X243461330Y-84656291D01*
X243417007Y-84549284D01*
X243405862Y-84522377D01*
X243405861Y-84522376D01*
X243405861Y-84522375D01*
X243317621Y-84407379D01*
X243212754Y-84326911D01*
X243171554Y-84270486D01*
X243167399Y-84200740D01*
X243173679Y-84181094D01*
X243188765Y-84144673D01*
X243207685Y-84000964D01*
X243206786Y-83994139D01*
X243202775Y-83963670D01*
X243188765Y-83857255D01*
X243151785Y-83767977D01*
X243133297Y-83723341D01*
X243133296Y-83723340D01*
X243133296Y-83723339D01*
X243045056Y-83608343D01*
X242930060Y-83520103D01*
X242930059Y-83520102D01*
X242930057Y-83520101D01*
X242796147Y-83464635D01*
X242796145Y-83464634D01*
X242796144Y-83464634D01*
X242756715Y-83459443D01*
X242729494Y-83455859D01*
X242665597Y-83427592D01*
X242627963Y-83370535D01*
X250219750Y-83370535D01*
X250232939Y-83470717D01*
X250238670Y-83514243D01*
X250238671Y-83514247D01*
X250294137Y-83648157D01*
X250294138Y-83648159D01*
X250294139Y-83648160D01*
X250382379Y-83763156D01*
X250497375Y-83851396D01*
X250497376Y-83851396D01*
X250497377Y-83851397D01*
X250542013Y-83869885D01*
X250631291Y-83906865D01*
X250749137Y-83922380D01*
X250774999Y-83925785D01*
X250775000Y-83925785D01*
X250775001Y-83925785D01*
X250789977Y-83923813D01*
X250918709Y-83906865D01*
X251052625Y-83851396D01*
X251167621Y-83763156D01*
X251255861Y-83648160D01*
X251311330Y-83514244D01*
X251330250Y-83370535D01*
X251311330Y-83226826D01*
X251255861Y-83092910D01*
X251167621Y-82977914D01*
X251052625Y-82889674D01*
X251052624Y-82889673D01*
X251052622Y-82889672D01*
X250918712Y-82834206D01*
X250918710Y-82834205D01*
X250918709Y-82834205D01*
X250846854Y-82824745D01*
X250775001Y-82815285D01*
X250774999Y-82815285D01*
X250631291Y-82834205D01*
X250631287Y-82834206D01*
X250497377Y-82889672D01*
X250382379Y-82977914D01*
X250294137Y-83092912D01*
X250238671Y-83226822D01*
X250238670Y-83226826D01*
X250219750Y-83370535D01*
X242627963Y-83370535D01*
X242627127Y-83369267D01*
X242622741Y-83349105D01*
X242617736Y-83311090D01*
X242613967Y-83282458D01*
X242558498Y-83148542D01*
X242470258Y-83033546D01*
X242428541Y-83001535D01*
X242387899Y-82970349D01*
X242346697Y-82913921D01*
X242342542Y-82844175D01*
X242376755Y-82783255D01*
X242438472Y-82750503D01*
X242447180Y-82749038D01*
X242543709Y-82736330D01*
X242677625Y-82680861D01*
X242792621Y-82592621D01*
X242880861Y-82477625D01*
X242936330Y-82343709D01*
X242955250Y-82200000D01*
X242936330Y-82056291D01*
X242880861Y-81922375D01*
X242792621Y-81807379D01*
X242677625Y-81719139D01*
X242677624Y-81719138D01*
X242677622Y-81719137D01*
X242543712Y-81663671D01*
X242543710Y-81663670D01*
X242543709Y-81663670D01*
X242471854Y-81654210D01*
X242400001Y-81644750D01*
X242399999Y-81644750D01*
X242256291Y-81663670D01*
X242256287Y-81663671D01*
X242122377Y-81719137D01*
X242007379Y-81807379D01*
X241919137Y-81922377D01*
X241863671Y-82056287D01*
X241863670Y-82056291D01*
X241851865Y-82145961D01*
X241844750Y-82200000D01*
X241856555Y-82289670D01*
X241863670Y-82343708D01*
X241863671Y-82343712D01*
X241919137Y-82477622D01*
X241919138Y-82477624D01*
X241919139Y-82477625D01*
X242007379Y-82592621D01*
X242089738Y-82655817D01*
X242130939Y-82712244D01*
X242135094Y-82781991D01*
X242100881Y-82842911D01*
X242039164Y-82875663D01*
X242030436Y-82877131D01*
X241967670Y-82885394D01*
X241933928Y-82889837D01*
X241933927Y-82889837D01*
X241933924Y-82889838D01*
X241800014Y-82945304D01*
X241685016Y-83033546D01*
X241596774Y-83148544D01*
X241541308Y-83282454D01*
X241541307Y-83282458D01*
X241522387Y-83426166D01*
X241522387Y-83426167D01*
X241541307Y-83569875D01*
X241541308Y-83569879D01*
X241596774Y-83703789D01*
X241596775Y-83703791D01*
X241596776Y-83703792D01*
X241685016Y-83818788D01*
X241800012Y-83907028D01*
X241800013Y-83907028D01*
X241800014Y-83907029D01*
X241844650Y-83925517D01*
X241933928Y-83962497D01*
X242000577Y-83971271D01*
X242064473Y-83999537D01*
X242102944Y-84057861D01*
X242107330Y-84078024D01*
X242116105Y-84144671D01*
X242116106Y-84144676D01*
X242140284Y-84203048D01*
X242147753Y-84272518D01*
X242116477Y-84334997D01*
X242056388Y-84370648D01*
X242025723Y-84374500D01*
X241061082Y-84374500D01*
X240994043Y-84354815D01*
X240973401Y-84338181D01*
X240748401Y-84113181D01*
X240510667Y-83875446D01*
X240486693Y-83851472D01*
X240486691Y-83851470D01*
X240465176Y-83840508D01*
X240448583Y-83830340D01*
X240429053Y-83816150D01*
X240406088Y-83808688D01*
X240388114Y-83801243D01*
X240366600Y-83790281D01*
X240361483Y-83789470D01*
X240342746Y-83786503D01*
X240323831Y-83781962D01*
X240300867Y-83774500D01*
X240300866Y-83774500D01*
X240266961Y-83774500D01*
X238146986Y-83774500D01*
X238012200Y-83774500D01*
X238012197Y-83774500D01*
X237989232Y-83781962D01*
X237970315Y-83786503D01*
X237946466Y-83790280D01*
X237924951Y-83801243D01*
X237906979Y-83808688D01*
X237884011Y-83816151D01*
X237884009Y-83816152D01*
X237864477Y-83830343D01*
X237847892Y-83840506D01*
X237826375Y-83851469D01*
X237826373Y-83851471D01*
X237802399Y-83875446D01*
X237802398Y-83875447D01*
X237715350Y-83962495D01*
X237495796Y-84182048D01*
X237434473Y-84215532D01*
X237364781Y-84210548D01*
X237309740Y-84169853D01*
X237242619Y-84082379D01*
X237127623Y-83994139D01*
X237127622Y-83994138D01*
X237127620Y-83994137D01*
X236993710Y-83938671D01*
X236993708Y-83938670D01*
X236993707Y-83938670D01*
X236895838Y-83925785D01*
X236849999Y-83919750D01*
X236849997Y-83919750D01*
X236706289Y-83938670D01*
X236706285Y-83938671D01*
X236572375Y-83994137D01*
X236457377Y-84082379D01*
X236369135Y-84197377D01*
X236313669Y-84331287D01*
X236313668Y-84331291D01*
X236294748Y-84474999D01*
X236294748Y-84475000D01*
X236313668Y-84618708D01*
X236313669Y-84618712D01*
X236369135Y-84752622D01*
X236369136Y-84752624D01*
X236369137Y-84752625D01*
X236457377Y-84867621D01*
X236486542Y-84890000D01*
X236502343Y-84902125D01*
X236543545Y-84958553D01*
X236547700Y-85028299D01*
X236513487Y-85089219D01*
X236451770Y-85121971D01*
X236426856Y-85124500D01*
X233816864Y-85124500D01*
X233749825Y-85104815D01*
X233741390Y-85098885D01*
X233702625Y-85069139D01*
X233702624Y-85069138D01*
X233702622Y-85069137D01*
X233568712Y-85013671D01*
X233568710Y-85013670D01*
X233568709Y-85013670D01*
X233496854Y-85004210D01*
X233425001Y-84994750D01*
X233424999Y-84994750D01*
X233281291Y-85013670D01*
X233281287Y-85013671D01*
X233147377Y-85069137D01*
X233089877Y-85113259D01*
X233032379Y-85157379D01*
X233032378Y-85157380D01*
X233032377Y-85157381D01*
X232967291Y-85242202D01*
X232910863Y-85283405D01*
X232841117Y-85287559D01*
X232780197Y-85253346D01*
X232766866Y-85237155D01*
X232746313Y-85207379D01*
X232710483Y-85155470D01*
X232592240Y-85050717D01*
X232592238Y-85050716D01*
X232592237Y-85050715D01*
X232452365Y-84977303D01*
X232298985Y-84939499D01*
X232291540Y-84938596D01*
X232291764Y-84936746D01*
X232234104Y-84919815D01*
X232188349Y-84867011D01*
X232178047Y-84830446D01*
X232166237Y-84733181D01*
X232137646Y-84657794D01*
X232110220Y-84585477D01*
X232020483Y-84455470D01*
X231902240Y-84350717D01*
X231902238Y-84350716D01*
X231902237Y-84350715D01*
X231762367Y-84277304D01*
X231704409Y-84263019D01*
X231644029Y-84227862D01*
X231612241Y-84165643D01*
X231610989Y-84127680D01*
X231625278Y-84010000D01*
X231606237Y-83853182D01*
X231605588Y-83851472D01*
X231576397Y-83774500D01*
X231550220Y-83705477D01*
X231460483Y-83575470D01*
X231342240Y-83470717D01*
X231342238Y-83470716D01*
X231342237Y-83470715D01*
X231202365Y-83397303D01*
X231048986Y-83359500D01*
X231048985Y-83359500D01*
X230891015Y-83359500D01*
X230891014Y-83359500D01*
X230737634Y-83397303D01*
X230597762Y-83470715D01*
X230479516Y-83575471D01*
X230389781Y-83705475D01*
X230389780Y-83705476D01*
X230333762Y-83853181D01*
X230314722Y-84009999D01*
X230314722Y-84010000D01*
X223550500Y-84010000D01*
X223550500Y-82400000D01*
X230744750Y-82400000D01*
X230759337Y-82510801D01*
X230763670Y-82543708D01*
X230763671Y-82543712D01*
X230819137Y-82677622D01*
X230819138Y-82677624D01*
X230819139Y-82677625D01*
X230907379Y-82792621D01*
X231022375Y-82880861D01*
X231156291Y-82936330D01*
X231283280Y-82953048D01*
X231299999Y-82955250D01*
X231300000Y-82955250D01*
X231300001Y-82955250D01*
X231314977Y-82953278D01*
X231443709Y-82936330D01*
X231577625Y-82880861D01*
X231692621Y-82792621D01*
X231780861Y-82677625D01*
X231836330Y-82543709D01*
X231855250Y-82400000D01*
X231836330Y-82256291D01*
X231790631Y-82145962D01*
X234538083Y-82145962D01*
X234549543Y-82233011D01*
X234557003Y-82289670D01*
X234557004Y-82289674D01*
X234612470Y-82423584D01*
X234612471Y-82423586D01*
X234612472Y-82423587D01*
X234700712Y-82538583D01*
X234815708Y-82626823D01*
X234815709Y-82626823D01*
X234815710Y-82626824D01*
X234860346Y-82645312D01*
X234949624Y-82682292D01*
X235076613Y-82699010D01*
X235093332Y-82701212D01*
X235093333Y-82701212D01*
X235093334Y-82701212D01*
X235108310Y-82699240D01*
X235237042Y-82682292D01*
X235370958Y-82626823D01*
X235485954Y-82538583D01*
X235574194Y-82423587D01*
X235629663Y-82289671D01*
X235648583Y-82145962D01*
X235648423Y-82144750D01*
X235643261Y-82105536D01*
X235629663Y-82002253D01*
X235574194Y-81868337D01*
X235485954Y-81753341D01*
X235370958Y-81665101D01*
X235370957Y-81665100D01*
X235370955Y-81665099D01*
X235237045Y-81609633D01*
X235237043Y-81609632D01*
X235237042Y-81609632D01*
X235165187Y-81600172D01*
X235093334Y-81590712D01*
X235093332Y-81590712D01*
X234949624Y-81609632D01*
X234949620Y-81609633D01*
X234815710Y-81665099D01*
X234700712Y-81753341D01*
X234612470Y-81868339D01*
X234557004Y-82002249D01*
X234557003Y-82002253D01*
X234538243Y-82144750D01*
X234538083Y-82145962D01*
X231790631Y-82145962D01*
X231780862Y-82122377D01*
X231780861Y-82122376D01*
X231780861Y-82122375D01*
X231692621Y-82007379D01*
X231577625Y-81919139D01*
X231577624Y-81919138D01*
X231577622Y-81919137D01*
X231443712Y-81863671D01*
X231443710Y-81863670D01*
X231443709Y-81863670D01*
X231371854Y-81854210D01*
X231300001Y-81844750D01*
X231299999Y-81844750D01*
X231156291Y-81863670D01*
X231156287Y-81863671D01*
X231022377Y-81919137D01*
X230907379Y-82007379D01*
X230819137Y-82122377D01*
X230763671Y-82256287D01*
X230763670Y-82256291D01*
X230744750Y-82400000D01*
X223550500Y-82400000D01*
X223550500Y-81404868D01*
X247556600Y-81404868D01*
X247575520Y-81548576D01*
X247575521Y-81548580D01*
X247630988Y-81682491D01*
X247630989Y-81682494D01*
X247709883Y-81785309D01*
X247735078Y-81850478D01*
X247721901Y-81914722D01*
X247722249Y-81914866D01*
X247721502Y-81916668D01*
X247721040Y-81918923D01*
X247719167Y-81922305D01*
X247663671Y-82056287D01*
X247663670Y-82056291D01*
X247651865Y-82145961D01*
X247644750Y-82200000D01*
X247656555Y-82289670D01*
X247663670Y-82343708D01*
X247663671Y-82343712D01*
X247719137Y-82477622D01*
X247719138Y-82477624D01*
X247719139Y-82477625D01*
X247807379Y-82592621D01*
X247922375Y-82680861D01*
X247922376Y-82680861D01*
X247922377Y-82680862D01*
X247967013Y-82699350D01*
X248056291Y-82736330D01*
X248183280Y-82753048D01*
X248199999Y-82755250D01*
X248200000Y-82755250D01*
X248200001Y-82755250D01*
X248214977Y-82753278D01*
X248343709Y-82736330D01*
X248477625Y-82680861D01*
X248592621Y-82592621D01*
X248680861Y-82477625D01*
X248736330Y-82343709D01*
X248755250Y-82200000D01*
X248736330Y-82056291D01*
X248680861Y-81922375D01*
X248680860Y-81922374D01*
X248680860Y-81922373D01*
X248608376Y-81827911D01*
X248601965Y-81819557D01*
X248576771Y-81754389D01*
X248589947Y-81690145D01*
X248589601Y-81690002D01*
X248590345Y-81688205D01*
X248590809Y-81685944D01*
X248592683Y-81682561D01*
X248608344Y-81644750D01*
X248648180Y-81548577D01*
X248667100Y-81404868D01*
X248648180Y-81261159D01*
X248592711Y-81127243D01*
X248504471Y-81012247D01*
X248389475Y-80924007D01*
X248389474Y-80924006D01*
X248389472Y-80924005D01*
X248255562Y-80868539D01*
X248255560Y-80868538D01*
X248255559Y-80868538D01*
X248183704Y-80859078D01*
X248111851Y-80849618D01*
X248111849Y-80849618D01*
X247968141Y-80868538D01*
X247968137Y-80868539D01*
X247834227Y-80924005D01*
X247719229Y-81012247D01*
X247630987Y-81127245D01*
X247575521Y-81261155D01*
X247575520Y-81261159D01*
X247556600Y-81404867D01*
X247556600Y-81404868D01*
X223550500Y-81404868D01*
X223550500Y-80790000D01*
X243684750Y-80790000D01*
X243702392Y-80924005D01*
X243703670Y-80933708D01*
X243703671Y-80933712D01*
X243759137Y-81067622D01*
X243759138Y-81067624D01*
X243759139Y-81067625D01*
X243847379Y-81182621D01*
X243962375Y-81270861D01*
X244096291Y-81326330D01*
X244223280Y-81343048D01*
X244239999Y-81345250D01*
X244240000Y-81345250D01*
X244240001Y-81345250D01*
X244254977Y-81343278D01*
X244383709Y-81326330D01*
X244517625Y-81270861D01*
X244632621Y-81182621D01*
X244720861Y-81067625D01*
X244776330Y-80933709D01*
X244795250Y-80790000D01*
X244794735Y-80786092D01*
X244788866Y-80741512D01*
X244776330Y-80646291D01*
X244720861Y-80512375D01*
X244632621Y-80397379D01*
X244517625Y-80309139D01*
X244517624Y-80309138D01*
X244517622Y-80309137D01*
X244383712Y-80253671D01*
X244383710Y-80253670D01*
X244383709Y-80253670D01*
X244311854Y-80244210D01*
X244240001Y-80234750D01*
X244239999Y-80234750D01*
X244096291Y-80253670D01*
X244096287Y-80253671D01*
X243962377Y-80309137D01*
X243847379Y-80397379D01*
X243759137Y-80512377D01*
X243703671Y-80646287D01*
X243703670Y-80646291D01*
X243685265Y-80786092D01*
X243684750Y-80790000D01*
X223550500Y-80790000D01*
X223550500Y-78300000D01*
X246344750Y-78300000D01*
X246354850Y-78376719D01*
X246363670Y-78443708D01*
X246363671Y-78443712D01*
X246419137Y-78577622D01*
X246419138Y-78577624D01*
X246419139Y-78577625D01*
X246507379Y-78692621D01*
X246622375Y-78780861D01*
X246756291Y-78836330D01*
X246883280Y-78853048D01*
X246899999Y-78855250D01*
X246900000Y-78855250D01*
X246900001Y-78855250D01*
X246914977Y-78853278D01*
X247043709Y-78836330D01*
X247177625Y-78780861D01*
X247178747Y-78780000D01*
X247694750Y-78780000D01*
X247713670Y-78923708D01*
X247713671Y-78923712D01*
X247769137Y-79057622D01*
X247769138Y-79057624D01*
X247769139Y-79057625D01*
X247857379Y-79172621D01*
X247972375Y-79260861D01*
X248106291Y-79316330D01*
X248233280Y-79333048D01*
X248249999Y-79335250D01*
X248250000Y-79335250D01*
X248250001Y-79335250D01*
X248264977Y-79333278D01*
X248393709Y-79316330D01*
X248527625Y-79260861D01*
X248642621Y-79172621D01*
X248730861Y-79057625D01*
X248786330Y-78923709D01*
X248805250Y-78780000D01*
X248803985Y-78770395D01*
X248802829Y-78761613D01*
X248786330Y-78636291D01*
X248730861Y-78502375D01*
X248642621Y-78387379D01*
X248527625Y-78299139D01*
X248527624Y-78299138D01*
X248527622Y-78299137D01*
X248393712Y-78243671D01*
X248393710Y-78243670D01*
X248393709Y-78243670D01*
X248321854Y-78234210D01*
X248250001Y-78224750D01*
X248249999Y-78224750D01*
X248106291Y-78243670D01*
X248106287Y-78243671D01*
X247972377Y-78299137D01*
X247857379Y-78387379D01*
X247769137Y-78502377D01*
X247713671Y-78636287D01*
X247713670Y-78636291D01*
X247694750Y-78779999D01*
X247694750Y-78780000D01*
X247178747Y-78780000D01*
X247292621Y-78692621D01*
X247380861Y-78577625D01*
X247436330Y-78443709D01*
X247455250Y-78300000D01*
X247455136Y-78299137D01*
X247447834Y-78243670D01*
X247436330Y-78156291D01*
X247392053Y-78049396D01*
X247380862Y-78022377D01*
X247380861Y-78022376D01*
X247380861Y-78022375D01*
X247351491Y-77984099D01*
X251394750Y-77984099D01*
X251412504Y-78118955D01*
X251413670Y-78127807D01*
X251413671Y-78127811D01*
X251469137Y-78261721D01*
X251469138Y-78261723D01*
X251469139Y-78261724D01*
X251557379Y-78376720D01*
X251672375Y-78464960D01*
X251806291Y-78520429D01*
X251933280Y-78537147D01*
X251949999Y-78539349D01*
X251950000Y-78539349D01*
X251950001Y-78539349D01*
X251964977Y-78537377D01*
X252093709Y-78520429D01*
X252227625Y-78464960D01*
X252342621Y-78376720D01*
X252430861Y-78261724D01*
X252486330Y-78127808D01*
X252505250Y-77984099D01*
X252486330Y-77840390D01*
X252446676Y-77744656D01*
X252430862Y-77706476D01*
X252430861Y-77706475D01*
X252430861Y-77706474D01*
X252342621Y-77591478D01*
X252227625Y-77503238D01*
X252227624Y-77503237D01*
X252227622Y-77503236D01*
X252093712Y-77447770D01*
X252093710Y-77447769D01*
X252093709Y-77447769D01*
X252021854Y-77438309D01*
X251950001Y-77428849D01*
X251949999Y-77428849D01*
X251806291Y-77447769D01*
X251806287Y-77447770D01*
X251672377Y-77503236D01*
X251557379Y-77591478D01*
X251469137Y-77706476D01*
X251413671Y-77840386D01*
X251413670Y-77840390D01*
X251394750Y-77984099D01*
X247351491Y-77984099D01*
X247292621Y-77907379D01*
X247177625Y-77819139D01*
X247177624Y-77819138D01*
X247177622Y-77819137D01*
X247043712Y-77763671D01*
X247043710Y-77763670D01*
X247043709Y-77763670D01*
X246971854Y-77754210D01*
X246900001Y-77744750D01*
X246899999Y-77744750D01*
X246756291Y-77763670D01*
X246756287Y-77763671D01*
X246622377Y-77819137D01*
X246507379Y-77907379D01*
X246419137Y-78022377D01*
X246363671Y-78156287D01*
X246363670Y-78156291D01*
X246344864Y-78299137D01*
X246344750Y-78300000D01*
X223550500Y-78300000D01*
X223550500Y-76190000D01*
X246554750Y-76190000D01*
X246573670Y-76333708D01*
X246573671Y-76333712D01*
X246629137Y-76467622D01*
X246629138Y-76467624D01*
X246629139Y-76467625D01*
X246717379Y-76582621D01*
X246832375Y-76670861D01*
X246966291Y-76726330D01*
X247093280Y-76743048D01*
X247109999Y-76745250D01*
X247110000Y-76745250D01*
X247110001Y-76745250D01*
X247124977Y-76743278D01*
X247253709Y-76726330D01*
X247387625Y-76670861D01*
X247502621Y-76582621D01*
X247590861Y-76467625D01*
X247646330Y-76333709D01*
X247665250Y-76190000D01*
X247646330Y-76046291D01*
X247590861Y-75912375D01*
X247502621Y-75797379D01*
X247387625Y-75709139D01*
X247387624Y-75709138D01*
X247387622Y-75709137D01*
X247253712Y-75653671D01*
X247253710Y-75653670D01*
X247253709Y-75653670D01*
X247178042Y-75643708D01*
X247110001Y-75634750D01*
X247109999Y-75634750D01*
X246966291Y-75653670D01*
X246966287Y-75653671D01*
X246832377Y-75709137D01*
X246717379Y-75797379D01*
X246629137Y-75912377D01*
X246573671Y-76046287D01*
X246573670Y-76046291D01*
X246554750Y-76189999D01*
X246554750Y-76190000D01*
X223550500Y-76190000D01*
X223550500Y-75424678D01*
X227449500Y-75424678D01*
X227464032Y-75497735D01*
X227464033Y-75497739D01*
X227464034Y-75497740D01*
X227519399Y-75580601D01*
X227600440Y-75634750D01*
X227602260Y-75635966D01*
X227602264Y-75635967D01*
X227675321Y-75650499D01*
X227675324Y-75650500D01*
X227675326Y-75650500D01*
X230124676Y-75650500D01*
X230124677Y-75650499D01*
X230197740Y-75635966D01*
X230251568Y-75600000D01*
X235944750Y-75600000D01*
X235959118Y-75709137D01*
X235963670Y-75743708D01*
X235963671Y-75743712D01*
X236019137Y-75877622D01*
X236019138Y-75877624D01*
X236019139Y-75877625D01*
X236107379Y-75992621D01*
X236222375Y-76080861D01*
X236356291Y-76136330D01*
X236483280Y-76153048D01*
X236499999Y-76155250D01*
X236500000Y-76155250D01*
X236500001Y-76155250D01*
X236514977Y-76153278D01*
X236643709Y-76136330D01*
X236777625Y-76080861D01*
X236892621Y-75992621D01*
X236980861Y-75877625D01*
X237036330Y-75743709D01*
X237055250Y-75600000D01*
X237036330Y-75456291D01*
X236986641Y-75336329D01*
X236980862Y-75322377D01*
X236980861Y-75322376D01*
X236980861Y-75322375D01*
X236892621Y-75207379D01*
X236777625Y-75119139D01*
X236777624Y-75119138D01*
X236777622Y-75119137D01*
X236643712Y-75063671D01*
X236643710Y-75063670D01*
X236643709Y-75063670D01*
X236571854Y-75054210D01*
X236500001Y-75044750D01*
X236499999Y-75044750D01*
X236356291Y-75063670D01*
X236356287Y-75063671D01*
X236222377Y-75119137D01*
X236107379Y-75207379D01*
X236019137Y-75322377D01*
X235963671Y-75456287D01*
X235963670Y-75456291D01*
X235944750Y-75600000D01*
X230251568Y-75600000D01*
X230280601Y-75580601D01*
X230335966Y-75497740D01*
X230350500Y-75424674D01*
X230350500Y-74010000D01*
X235904722Y-74010000D01*
X235923762Y-74166818D01*
X235964443Y-74274082D01*
X235979780Y-74314523D01*
X236069517Y-74444530D01*
X236187760Y-74549283D01*
X236187762Y-74549284D01*
X236327634Y-74622696D01*
X236481014Y-74660500D01*
X236481015Y-74660500D01*
X236638985Y-74660500D01*
X236792365Y-74622696D01*
X236792977Y-74622375D01*
X236932240Y-74549283D01*
X236999157Y-74490000D01*
X241274722Y-74490000D01*
X241293762Y-74646818D01*
X241349780Y-74794523D01*
X241439517Y-74924530D01*
X241557760Y-75029283D01*
X241557762Y-75029284D01*
X241697634Y-75102696D01*
X241851014Y-75140500D01*
X241851015Y-75140500D01*
X242008985Y-75140500D01*
X242162365Y-75102696D01*
X242210139Y-75077622D01*
X242302240Y-75029283D01*
X242420483Y-74924530D01*
X242437415Y-74900000D01*
X251794749Y-74900000D01*
X251803131Y-74963670D01*
X251813669Y-75043708D01*
X251813670Y-75043712D01*
X251869136Y-75177622D01*
X251869137Y-75177624D01*
X251869138Y-75177625D01*
X251957378Y-75292621D01*
X252072374Y-75380861D01*
X252206290Y-75436330D01*
X252333279Y-75453048D01*
X252349998Y-75455250D01*
X252349999Y-75455250D01*
X252350000Y-75455250D01*
X252364976Y-75453278D01*
X252493708Y-75436330D01*
X252627624Y-75380861D01*
X252742620Y-75292621D01*
X252830860Y-75177625D01*
X252886329Y-75043709D01*
X252902561Y-74920416D01*
X252909963Y-74903684D01*
X252906523Y-74898331D01*
X252902561Y-74879582D01*
X252895046Y-74822503D01*
X252886329Y-74756291D01*
X252844907Y-74656287D01*
X252830861Y-74622377D01*
X252830860Y-74622376D01*
X252830860Y-74622375D01*
X252742620Y-74507379D01*
X252627624Y-74419139D01*
X252627623Y-74419138D01*
X252627621Y-74419137D01*
X252493711Y-74363671D01*
X252493709Y-74363670D01*
X252493708Y-74363670D01*
X252421853Y-74354210D01*
X252350000Y-74344750D01*
X252349998Y-74344750D01*
X252206290Y-74363670D01*
X252206286Y-74363671D01*
X252072376Y-74419137D01*
X251957378Y-74507379D01*
X251869136Y-74622377D01*
X251813670Y-74756287D01*
X251813669Y-74756291D01*
X251794749Y-74900000D01*
X242437415Y-74900000D01*
X242510220Y-74794523D01*
X242531000Y-74739728D01*
X242573176Y-74684028D01*
X242638773Y-74659970D01*
X242658017Y-74660500D01*
X242661015Y-74660500D01*
X242818985Y-74660500D01*
X242972365Y-74622696D01*
X242972977Y-74622375D01*
X243112240Y-74549283D01*
X243230483Y-74444530D01*
X243320220Y-74314523D01*
X243376237Y-74166818D01*
X243395278Y-74010000D01*
X243376237Y-73853182D01*
X243320220Y-73705477D01*
X243230483Y-73575470D01*
X243112240Y-73470717D01*
X243112238Y-73470716D01*
X243112237Y-73470715D01*
X242972366Y-73397304D01*
X242859603Y-73369511D01*
X242799223Y-73334355D01*
X242767434Y-73272136D01*
X242765641Y-73252991D01*
X242765155Y-73248986D01*
X242746237Y-73093182D01*
X242690220Y-72945477D01*
X242600483Y-72815470D01*
X242482240Y-72710717D01*
X242482238Y-72710716D01*
X242482237Y-72710715D01*
X242342365Y-72637303D01*
X242188986Y-72599500D01*
X242188985Y-72599500D01*
X242031015Y-72599500D01*
X242031014Y-72599500D01*
X241877634Y-72637303D01*
X241737762Y-72710715D01*
X241677579Y-72764032D01*
X241631609Y-72804758D01*
X241619516Y-72815471D01*
X241529781Y-72945475D01*
X241529780Y-72945476D01*
X241473762Y-73093181D01*
X241454722Y-73249999D01*
X241454722Y-73250000D01*
X241473762Y-73406818D01*
X241529780Y-73554523D01*
X241529781Y-73554524D01*
X241619517Y-73684531D01*
X241650757Y-73712206D01*
X241687884Y-73771395D01*
X241687118Y-73841260D01*
X241648700Y-73899620D01*
X241626158Y-73914818D01*
X241557761Y-73950716D01*
X241557760Y-73950717D01*
X241473715Y-74025174D01*
X241439516Y-74055471D01*
X241349781Y-74185475D01*
X241349780Y-74185476D01*
X241293762Y-74333181D01*
X241274722Y-74489999D01*
X241274722Y-74490000D01*
X236999157Y-74490000D01*
X237050483Y-74444530D01*
X237140220Y-74314523D01*
X237196237Y-74166818D01*
X237215278Y-74010000D01*
X237196237Y-73853182D01*
X237140220Y-73705477D01*
X237050483Y-73575470D01*
X236932240Y-73470717D01*
X236932238Y-73470716D01*
X236932237Y-73470715D01*
X236792365Y-73397303D01*
X236638986Y-73359500D01*
X236638985Y-73359500D01*
X236481015Y-73359500D01*
X236481014Y-73359500D01*
X236327634Y-73397303D01*
X236187762Y-73470715D01*
X236069516Y-73575471D01*
X235979781Y-73705475D01*
X235979780Y-73705476D01*
X235923762Y-73853181D01*
X235904722Y-74009999D01*
X235904722Y-74010000D01*
X230350500Y-74010000D01*
X230350500Y-72975326D01*
X230350500Y-72975323D01*
X230350499Y-72975321D01*
X230335967Y-72902264D01*
X230335966Y-72902260D01*
X230280601Y-72819399D01*
X230197740Y-72764034D01*
X230197739Y-72764033D01*
X230197735Y-72764032D01*
X230124677Y-72749500D01*
X230124674Y-72749500D01*
X227675326Y-72749500D01*
X227675323Y-72749500D01*
X227602264Y-72764032D01*
X227602260Y-72764033D01*
X227519399Y-72819399D01*
X227464033Y-72902260D01*
X227464032Y-72902264D01*
X227449500Y-72975321D01*
X227449500Y-75424678D01*
X223550500Y-75424678D01*
X223550500Y-72190000D01*
X244754722Y-72190000D01*
X244773762Y-72346818D01*
X244824599Y-72480861D01*
X244829780Y-72494523D01*
X244919517Y-72624530D01*
X245037760Y-72729283D01*
X245037762Y-72729284D01*
X245177634Y-72802696D01*
X245331014Y-72840500D01*
X245331015Y-72840500D01*
X245488985Y-72840500D01*
X245642365Y-72802696D01*
X245716032Y-72764032D01*
X245782240Y-72729283D01*
X245871733Y-72650000D01*
X247694750Y-72650000D01*
X247705886Y-72734588D01*
X247713670Y-72793708D01*
X247713671Y-72793712D01*
X247769137Y-72927622D01*
X247769138Y-72927624D01*
X247769139Y-72927625D01*
X247857379Y-73042621D01*
X247972375Y-73130861D01*
X247972376Y-73130861D01*
X247972377Y-73130862D01*
X247980115Y-73134067D01*
X248106291Y-73186330D01*
X248233280Y-73203048D01*
X248249999Y-73205250D01*
X248250000Y-73205250D01*
X248250001Y-73205250D01*
X248264977Y-73203278D01*
X248393709Y-73186330D01*
X248527625Y-73130861D01*
X248642621Y-73042621D01*
X248730861Y-72927625D01*
X248786330Y-72793709D01*
X248805250Y-72650000D01*
X248786330Y-72506291D01*
X248741243Y-72397439D01*
X248730862Y-72372377D01*
X248730861Y-72372376D01*
X248730861Y-72372375D01*
X248642621Y-72257379D01*
X248527625Y-72169139D01*
X248527624Y-72169138D01*
X248527622Y-72169137D01*
X248393712Y-72113671D01*
X248393710Y-72113670D01*
X248393709Y-72113670D01*
X248321854Y-72104210D01*
X248250001Y-72094750D01*
X248249999Y-72094750D01*
X248106291Y-72113670D01*
X248106287Y-72113671D01*
X247972377Y-72169137D01*
X247857379Y-72257379D01*
X247769137Y-72372377D01*
X247713671Y-72506287D01*
X247713670Y-72506291D01*
X247698104Y-72624528D01*
X247694750Y-72650000D01*
X245871733Y-72650000D01*
X245900483Y-72624530D01*
X245990220Y-72494523D01*
X246046237Y-72346818D01*
X246065278Y-72190000D01*
X246053850Y-72095877D01*
X246046237Y-72033181D01*
X245995402Y-71899141D01*
X245990220Y-71885477D01*
X245900483Y-71755470D01*
X245782240Y-71650717D01*
X245782238Y-71650716D01*
X245782237Y-71650715D01*
X245642365Y-71577303D01*
X245488986Y-71539500D01*
X245488985Y-71539500D01*
X245331015Y-71539500D01*
X245331014Y-71539500D01*
X245177634Y-71577303D01*
X245037762Y-71650715D01*
X244919516Y-71755471D01*
X244829781Y-71885475D01*
X244829780Y-71885476D01*
X244773762Y-72033181D01*
X244754722Y-72189999D01*
X244754722Y-72190000D01*
X223550500Y-72190000D01*
X223550500Y-71200000D01*
X251844750Y-71200000D01*
X251859136Y-71309274D01*
X251863670Y-71343708D01*
X251863671Y-71343712D01*
X251919137Y-71477622D01*
X251919138Y-71477624D01*
X251919139Y-71477625D01*
X252007379Y-71592621D01*
X252122375Y-71680861D01*
X252256291Y-71736330D01*
X252382363Y-71752928D01*
X252399999Y-71755250D01*
X252400000Y-71755250D01*
X252400001Y-71755250D01*
X252453807Y-71748166D01*
X252543709Y-71736330D01*
X252561104Y-71729124D01*
X252630569Y-71721655D01*
X252693049Y-71752928D01*
X252706931Y-71768198D01*
X252737141Y-71807568D01*
X252762336Y-71872737D01*
X252748298Y-71941182D01*
X252737145Y-71958537D01*
X252723670Y-71976099D01*
X252723668Y-71976101D01*
X252668201Y-72110014D01*
X252668200Y-72110018D01*
X252649280Y-72253727D01*
X252665322Y-72375579D01*
X252668200Y-72397435D01*
X252668201Y-72397439D01*
X252723667Y-72531349D01*
X252723668Y-72531351D01*
X252723669Y-72531352D01*
X252811909Y-72646348D01*
X252926905Y-72734588D01*
X253060821Y-72790057D01*
X253187810Y-72806775D01*
X253204529Y-72808977D01*
X253204529Y-72808976D01*
X253204530Y-72808977D01*
X253318338Y-72793993D01*
X253387371Y-72804758D01*
X253439627Y-72851138D01*
X253458513Y-72918406D01*
X253438033Y-72985207D01*
X253422203Y-73004613D01*
X253286955Y-73139861D01*
X253267106Y-73155982D01*
X253259331Y-73161062D01*
X253241499Y-73183972D01*
X253232394Y-73194284D01*
X253231624Y-73195194D01*
X253220439Y-73210859D01*
X253217378Y-73214963D01*
X253187482Y-73253373D01*
X253183980Y-73259844D01*
X253180760Y-73266432D01*
X253166871Y-73313082D01*
X253165309Y-73317957D01*
X253149499Y-73364013D01*
X253148296Y-73371217D01*
X253147382Y-73378548D01*
X253149394Y-73427167D01*
X253149500Y-73432292D01*
X253149500Y-74863396D01*
X253139144Y-74898661D01*
X253148019Y-74917497D01*
X253149500Y-74936603D01*
X253149500Y-76878445D01*
X253129815Y-76945484D01*
X253100987Y-76976820D01*
X253005880Y-77049799D01*
X253005879Y-77049800D01*
X253005878Y-77049801D01*
X252970882Y-77095408D01*
X252917636Y-77164799D01*
X252862170Y-77298709D01*
X252862169Y-77298713D01*
X252847717Y-77408488D01*
X252843249Y-77442422D01*
X252861948Y-77584456D01*
X252862169Y-77586130D01*
X252862170Y-77586134D01*
X252917636Y-77720044D01*
X252917637Y-77720046D01*
X252917638Y-77720047D01*
X253005878Y-77835043D01*
X253120874Y-77923283D01*
X253254790Y-77978752D01*
X253381779Y-77995470D01*
X253398498Y-77997672D01*
X253398499Y-77997672D01*
X253398500Y-77997672D01*
X253413476Y-77995700D01*
X253542208Y-77978752D01*
X253676124Y-77923283D01*
X253791120Y-77835043D01*
X253879360Y-77720047D01*
X253934829Y-77586131D01*
X253953749Y-77442422D01*
X253934829Y-77298713D01*
X253879360Y-77164797D01*
X253876123Y-77160578D01*
X253850930Y-77095408D01*
X253850500Y-77085093D01*
X253850500Y-75463797D01*
X253870185Y-75396758D01*
X253922989Y-75351003D01*
X253990685Y-75340858D01*
X254064320Y-75350552D01*
X254099999Y-75355250D01*
X254100000Y-75355250D01*
X254100001Y-75355250D01*
X254114977Y-75353278D01*
X254243709Y-75336330D01*
X254377625Y-75280861D01*
X254492621Y-75192621D01*
X254580861Y-75077625D01*
X254636330Y-74943709D01*
X254655250Y-74800000D01*
X254636330Y-74656291D01*
X254592007Y-74549284D01*
X254580862Y-74522377D01*
X254580861Y-74522376D01*
X254580861Y-74522375D01*
X254492621Y-74407379D01*
X254377625Y-74319139D01*
X254377624Y-74319138D01*
X254377622Y-74319137D01*
X254243712Y-74263671D01*
X254243710Y-74263670D01*
X254243709Y-74263670D01*
X254171854Y-74254210D01*
X254100001Y-74244750D01*
X254099998Y-74244750D01*
X253990685Y-74259141D01*
X253921650Y-74248375D01*
X253869394Y-74201995D01*
X253850500Y-74136202D01*
X253850500Y-73619042D01*
X253870185Y-73552003D01*
X253886814Y-73531365D01*
X254826622Y-72591557D01*
X254887943Y-72558074D01*
X254914371Y-72557117D01*
X254914371Y-72555250D01*
X254922500Y-72555250D01*
X255066209Y-72536330D01*
X255200125Y-72480861D01*
X255315121Y-72392621D01*
X255403361Y-72277625D01*
X255458830Y-72143709D01*
X255477750Y-72000000D01*
X255458830Y-71856291D01*
X255409141Y-71736329D01*
X255403362Y-71722377D01*
X255403361Y-71722376D01*
X255403361Y-71722375D01*
X255315121Y-71607379D01*
X255200125Y-71519139D01*
X255200124Y-71519138D01*
X255200122Y-71519137D01*
X255066212Y-71463671D01*
X255066210Y-71463670D01*
X255066209Y-71463670D01*
X254985027Y-71452982D01*
X254922501Y-71444750D01*
X254922499Y-71444750D01*
X254778791Y-71463670D01*
X254778787Y-71463671D01*
X254644877Y-71519137D01*
X254529879Y-71607379D01*
X254441637Y-71722377D01*
X254386171Y-71856287D01*
X254386170Y-71856291D01*
X254367250Y-72000000D01*
X254367250Y-72008128D01*
X254363956Y-72008128D01*
X254354692Y-72062588D01*
X254330939Y-72095877D01*
X253955416Y-72471400D01*
X253894093Y-72504885D01*
X253824401Y-72499901D01*
X253768468Y-72458029D01*
X253744051Y-72392565D01*
X253744795Y-72367541D01*
X253759780Y-72253727D01*
X253740860Y-72110018D01*
X253685391Y-71976102D01*
X253685390Y-71976101D01*
X253685390Y-71976100D01*
X253626336Y-71899141D01*
X253601141Y-71833972D01*
X253615179Y-71765527D01*
X253626337Y-71748166D01*
X253639809Y-71730609D01*
X253639808Y-71730609D01*
X253639810Y-71730608D01*
X253695279Y-71596692D01*
X253714199Y-71452983D01*
X253695279Y-71309274D01*
X253650017Y-71200000D01*
X253639811Y-71175360D01*
X253639810Y-71175359D01*
X253639810Y-71175358D01*
X253551570Y-71060362D01*
X253436574Y-70972122D01*
X253436573Y-70972121D01*
X253436571Y-70972120D01*
X253302661Y-70916654D01*
X253302659Y-70916653D01*
X253302658Y-70916653D01*
X253230803Y-70907193D01*
X253158950Y-70897733D01*
X253158948Y-70897733D01*
X253015235Y-70916653D01*
X253015234Y-70916654D01*
X252997838Y-70923859D01*
X252928369Y-70931325D01*
X252865891Y-70900047D01*
X252852016Y-70884783D01*
X252823067Y-70847057D01*
X252792621Y-70807379D01*
X252677625Y-70719139D01*
X252677624Y-70719138D01*
X252677622Y-70719137D01*
X252543712Y-70663671D01*
X252543710Y-70663670D01*
X252543709Y-70663670D01*
X252471854Y-70654210D01*
X252400001Y-70644750D01*
X252399999Y-70644750D01*
X252256291Y-70663670D01*
X252256287Y-70663671D01*
X252122377Y-70719137D01*
X252007379Y-70807379D01*
X251919137Y-70922377D01*
X251863671Y-71056287D01*
X251863670Y-71056291D01*
X251844750Y-71200000D01*
X223550500Y-71200000D01*
X223550500Y-68960000D01*
X224694396Y-68960000D01*
X224714778Y-69218990D01*
X224775427Y-69471610D01*
X224874843Y-69711623D01*
X224874845Y-69711627D01*
X224874846Y-69711628D01*
X225010588Y-69933140D01*
X225179311Y-70130689D01*
X225376860Y-70299412D01*
X225598372Y-70435154D01*
X225598374Y-70435154D01*
X225598376Y-70435156D01*
X225659693Y-70460554D01*
X225838390Y-70534573D01*
X226091006Y-70595221D01*
X226285147Y-70610500D01*
X226285155Y-70610500D01*
X226414845Y-70610500D01*
X226414853Y-70610500D01*
X226608994Y-70595221D01*
X226861610Y-70534573D01*
X227101628Y-70435154D01*
X227323140Y-70299412D01*
X227520689Y-70130689D01*
X227689412Y-69933140D01*
X227825154Y-69711628D01*
X227924573Y-69471610D01*
X227985221Y-69218994D01*
X227986716Y-69200000D01*
X258644750Y-69200000D01*
X258663670Y-69343708D01*
X258663671Y-69343712D01*
X258719137Y-69477622D01*
X258719138Y-69477624D01*
X258719139Y-69477625D01*
X258807379Y-69592621D01*
X258922375Y-69680861D01*
X259056291Y-69736330D01*
X259183280Y-69753048D01*
X259199999Y-69755250D01*
X259200000Y-69755250D01*
X259200001Y-69755250D01*
X259214977Y-69753278D01*
X259343709Y-69736330D01*
X259477625Y-69680861D01*
X259592621Y-69592621D01*
X259680861Y-69477625D01*
X259736330Y-69343709D01*
X259755250Y-69200000D01*
X259736330Y-69056291D01*
X259696446Y-68960000D01*
X268774396Y-68960000D01*
X268794778Y-69218990D01*
X268855427Y-69471610D01*
X268954843Y-69711623D01*
X268954845Y-69711627D01*
X268954846Y-69711628D01*
X269090588Y-69933140D01*
X269259311Y-70130689D01*
X269456860Y-70299412D01*
X269678372Y-70435154D01*
X269678374Y-70435154D01*
X269678376Y-70435156D01*
X269739693Y-70460554D01*
X269918390Y-70534573D01*
X270171006Y-70595221D01*
X270365147Y-70610500D01*
X270365155Y-70610500D01*
X270494845Y-70610500D01*
X270494853Y-70610500D01*
X270688994Y-70595221D01*
X270941610Y-70534573D01*
X271181628Y-70435154D01*
X271403140Y-70299412D01*
X271600689Y-70130689D01*
X271769412Y-69933140D01*
X271905154Y-69711628D01*
X272004573Y-69471610D01*
X272065221Y-69218994D01*
X272085604Y-68960000D01*
X272065221Y-68701006D01*
X272004573Y-68448390D01*
X271905154Y-68208372D01*
X271769412Y-67986860D01*
X271600689Y-67789311D01*
X271403140Y-67620588D01*
X271181628Y-67484846D01*
X271181627Y-67484845D01*
X271181623Y-67484843D01*
X271006542Y-67412323D01*
X270941610Y-67385427D01*
X270941611Y-67385427D01*
X270767843Y-67343709D01*
X270688994Y-67324779D01*
X270688992Y-67324778D01*
X270688991Y-67324778D01*
X270494858Y-67309500D01*
X270494853Y-67309500D01*
X270365147Y-67309500D01*
X270365141Y-67309500D01*
X270171009Y-67324778D01*
X269918389Y-67385427D01*
X269678376Y-67484843D01*
X269456859Y-67620588D01*
X269259311Y-67789311D01*
X269090588Y-67986859D01*
X268954843Y-68208376D01*
X268855427Y-68448389D01*
X268794778Y-68701009D01*
X268774396Y-68960000D01*
X259696446Y-68960000D01*
X259680861Y-68922375D01*
X259592621Y-68807379D01*
X259477625Y-68719139D01*
X259477624Y-68719138D01*
X259477622Y-68719137D01*
X259343712Y-68663671D01*
X259343710Y-68663670D01*
X259343709Y-68663670D01*
X259271854Y-68654210D01*
X259200001Y-68644750D01*
X259199999Y-68644750D01*
X259056291Y-68663670D01*
X259056287Y-68663671D01*
X258922377Y-68719137D01*
X258807379Y-68807379D01*
X258719137Y-68922377D01*
X258663671Y-69056287D01*
X258663670Y-69056291D01*
X258644750Y-69199999D01*
X258644750Y-69200000D01*
X227986716Y-69200000D01*
X228005604Y-68960000D01*
X227985221Y-68701006D01*
X227924573Y-68448390D01*
X227825154Y-68208372D01*
X227697464Y-68000000D01*
X245644750Y-68000000D01*
X245657445Y-68096430D01*
X245663670Y-68143708D01*
X245663671Y-68143712D01*
X245719137Y-68277622D01*
X245719138Y-68277624D01*
X245719139Y-68277625D01*
X245807379Y-68392621D01*
X245922375Y-68480861D01*
X246056291Y-68536330D01*
X246183280Y-68553048D01*
X246199999Y-68555250D01*
X246200000Y-68555250D01*
X246200001Y-68555250D01*
X246214977Y-68553278D01*
X246343709Y-68536330D01*
X246477625Y-68480861D01*
X246592621Y-68392621D01*
X246680861Y-68277625D01*
X246736330Y-68143709D01*
X246755250Y-68000000D01*
X246736330Y-67856291D01*
X246686641Y-67736329D01*
X246680862Y-67722377D01*
X246680861Y-67722376D01*
X246680861Y-67722375D01*
X246592621Y-67607379D01*
X246477625Y-67519139D01*
X246477624Y-67519138D01*
X246477622Y-67519137D01*
X246343712Y-67463671D01*
X246343710Y-67463670D01*
X246343709Y-67463670D01*
X246271854Y-67454210D01*
X246200001Y-67444750D01*
X246199999Y-67444750D01*
X246056291Y-67463670D01*
X246056287Y-67463671D01*
X245922377Y-67519137D01*
X245807379Y-67607379D01*
X245719137Y-67722377D01*
X245663671Y-67856287D01*
X245663670Y-67856291D01*
X245644750Y-68000000D01*
X227697464Y-68000000D01*
X227689412Y-67986860D01*
X227520689Y-67789311D01*
X227323140Y-67620588D01*
X227101628Y-67484846D01*
X227101627Y-67484845D01*
X227101623Y-67484843D01*
X226926542Y-67412323D01*
X226861610Y-67385427D01*
X226861611Y-67385427D01*
X226687843Y-67343709D01*
X226608994Y-67324779D01*
X226608992Y-67324778D01*
X226608991Y-67324778D01*
X226414858Y-67309500D01*
X226414853Y-67309500D01*
X226285147Y-67309500D01*
X226285141Y-67309500D01*
X226091009Y-67324778D01*
X225838389Y-67385427D01*
X225598376Y-67484843D01*
X225376859Y-67620588D01*
X225179311Y-67789311D01*
X225010588Y-67986859D01*
X224874843Y-68208376D01*
X224775427Y-68448389D01*
X224714778Y-68701009D01*
X224694396Y-68960000D01*
X223550500Y-68960000D01*
X223550500Y-68903480D01*
X223550695Y-68896527D01*
X223551769Y-68877410D01*
X223567084Y-68604691D01*
X223568638Y-68590898D01*
X223617015Y-68306167D01*
X223620109Y-68292615D01*
X223624429Y-68277622D01*
X223700061Y-68015096D01*
X223704653Y-68001975D01*
X223705471Y-68000000D01*
X223815175Y-67735151D01*
X223821195Y-67722651D01*
X223960902Y-67469868D01*
X223968297Y-67458100D01*
X224135422Y-67222559D01*
X224144077Y-67211705D01*
X224336534Y-66996346D01*
X224346346Y-66986534D01*
X224561705Y-66794077D01*
X224572559Y-66785422D01*
X224808105Y-66618293D01*
X224819868Y-66610902D01*
X225072651Y-66471195D01*
X225085151Y-66465175D01*
X225351979Y-66354651D01*
X225365096Y-66350061D01*
X225642621Y-66270107D01*
X225656167Y-66267015D01*
X225940898Y-66218638D01*
X225954691Y-66217084D01*
X226246528Y-66200695D01*
X226253481Y-66200500D01*
X226289882Y-66200500D01*
X239914896Y-66200500D01*
X239981935Y-66220185D01*
G37*
G04 #@! TD.AperFunction*
G04 #@! TA.AperFunction,Conductor*
G36*
X255244455Y-103970185D02*
G01*
X255265097Y-103986819D01*
X256541322Y-105263044D01*
X256557446Y-105282899D01*
X256562523Y-105290669D01*
X256562525Y-105290671D01*
X256585426Y-105308495D01*
X256595686Y-105317557D01*
X256596646Y-105318370D01*
X256612316Y-105329558D01*
X256616407Y-105332608D01*
X256654834Y-105362517D01*
X256654837Y-105362518D01*
X256661282Y-105366007D01*
X256667891Y-105369238D01*
X256667894Y-105369240D01*
X256705440Y-105380418D01*
X256714553Y-105383131D01*
X256719397Y-105384682D01*
X256765472Y-105400500D01*
X256765477Y-105400500D01*
X256772715Y-105401708D01*
X256780004Y-105402616D01*
X256780006Y-105402617D01*
X256780007Y-105402616D01*
X256780008Y-105402617D01*
X256817815Y-105401053D01*
X256828639Y-105400605D01*
X256833762Y-105400500D01*
X257296573Y-105400500D01*
X257363612Y-105420185D01*
X257409367Y-105472989D01*
X257419311Y-105542147D01*
X257390286Y-105605703D01*
X257384254Y-105612181D01*
X257012946Y-105983489D01*
X256951623Y-106016974D01*
X256925265Y-106019808D01*
X256151175Y-106019808D01*
X256084136Y-106000123D01*
X256038381Y-105947319D01*
X256028437Y-105878161D01*
X256036612Y-105848359D01*
X256069371Y-105769273D01*
X256088291Y-105625564D01*
X256069371Y-105481855D01*
X256027614Y-105381044D01*
X256013903Y-105347941D01*
X256013902Y-105347940D01*
X256013902Y-105347939D01*
X255925662Y-105232943D01*
X255810666Y-105144703D01*
X255810665Y-105144702D01*
X255810663Y-105144701D01*
X255676753Y-105089235D01*
X255676751Y-105089234D01*
X255676750Y-105089234D01*
X255585679Y-105077244D01*
X255533042Y-105070314D01*
X255524914Y-105070314D01*
X255524914Y-105066807D01*
X255471654Y-105058336D01*
X255437163Y-105034004D01*
X254565340Y-104162181D01*
X254531855Y-104100858D01*
X254536839Y-104031166D01*
X254578711Y-103975233D01*
X254644175Y-103950816D01*
X254653021Y-103950500D01*
X255177416Y-103950500D01*
X255244455Y-103970185D01*
G37*
G04 #@! TD.AperFunction*
G04 #@! TA.AperFunction,Conductor*
G36*
X248183627Y-87907789D02*
G01*
X248233617Y-87956603D01*
X248249500Y-88017321D01*
X248249500Y-93903455D01*
X248229815Y-93970494D01*
X248213181Y-93991136D01*
X247386955Y-94817361D01*
X247367106Y-94833482D01*
X247359331Y-94838562D01*
X247347352Y-94853953D01*
X247290641Y-94894765D01*
X247220868Y-94898438D01*
X247160186Y-94863806D01*
X247127860Y-94801864D01*
X247125500Y-94777789D01*
X247125500Y-93702610D01*
X247145185Y-93635571D01*
X247161819Y-93614929D01*
X247231790Y-93544958D01*
X247329770Y-93446978D01*
X247353744Y-93423004D01*
X247364706Y-93401489D01*
X247374868Y-93384905D01*
X247389066Y-93365365D01*
X247396527Y-93342398D01*
X247403976Y-93324417D01*
X247414934Y-93302913D01*
X247414934Y-93302912D01*
X247414934Y-93302911D01*
X247414935Y-93302910D01*
X247418712Y-93279057D01*
X247423251Y-93260150D01*
X247430716Y-93237177D01*
X247430716Y-93102391D01*
X247430716Y-88111455D01*
X247450401Y-88044416D01*
X247503205Y-87998661D01*
X247572363Y-87988717D01*
X247592458Y-87994230D01*
X247592509Y-87994041D01*
X247600353Y-87996142D01*
X247600360Y-87996145D01*
X247727349Y-88012863D01*
X247744068Y-88015065D01*
X247744069Y-88015065D01*
X247744070Y-88015065D01*
X247759046Y-88013093D01*
X247887778Y-87996145D01*
X248021694Y-87940676D01*
X248050013Y-87918946D01*
X248115182Y-87893751D01*
X248183627Y-87907789D01*
G37*
G04 #@! TD.AperFunction*
M02*
