G04 #@! TF.GenerationSoftware,KiCad,Pcbnew,7.0.10*
G04 #@! TF.CreationDate,2024-01-23T21:04:48+03:00*
G04 #@! TF.ProjectId,GPS_MODULE_V3.kicad_pro,4750535f-4d4f-4445-954c-455f56332e6b,rev?*
G04 #@! TF.SameCoordinates,Original*
G04 #@! TF.FileFunction,Soldermask,Bot*
G04 #@! TF.FilePolarity,Negative*
%FSLAX46Y46*%
G04 Gerber Fmt 4.6, Leading zero omitted, Abs format (unit mm)*
G04 Created by KiCad (PCBNEW 7.0.10) date 2024-01-23 21:04:48*
%MOMM*%
%LPD*%
G01*
G04 APERTURE LIST*
G04 Aperture macros list*
%AMRoundRect*
0 Rectangle with rounded corners*
0 $1 Rounding radius*
0 $2 $3 $4 $5 $6 $7 $8 $9 X,Y pos of 4 corners*
0 Add a 4 corners polygon primitive as box body*
4,1,4,$2,$3,$4,$5,$6,$7,$8,$9,$2,$3,0*
0 Add four circle primitives for the rounded corners*
1,1,$1+$1,$2,$3*
1,1,$1+$1,$4,$5*
1,1,$1+$1,$6,$7*
1,1,$1+$1,$8,$9*
0 Add four rect primitives between the rounded corners*
20,1,$1+$1,$2,$3,$4,$5,0*
20,1,$1+$1,$4,$5,$6,$7,0*
20,1,$1+$1,$6,$7,$8,$9,0*
20,1,$1+$1,$8,$9,$2,$3,0*%
%AMFreePoly0*
4,1,19,0.550000,-0.750000,0.000000,-0.750000,0.000000,-0.744911,-0.071157,-0.744911,-0.207708,-0.704816,-0.327430,-0.627875,-0.420627,-0.520320,-0.479746,-0.390866,-0.500000,-0.250000,-0.500000,0.250000,-0.479746,0.390866,-0.420627,0.520320,-0.327430,0.627875,-0.207708,0.704816,-0.071157,0.744911,0.000000,0.744911,0.000000,0.750000,0.550000,0.750000,0.550000,-0.750000,0.550000,-0.750000,
$1*%
%AMFreePoly1*
4,1,19,0.000000,0.744911,0.071157,0.744911,0.207708,0.704816,0.327430,0.627875,0.420627,0.520320,0.479746,0.390866,0.500000,0.250000,0.500000,-0.250000,0.479746,-0.390866,0.420627,-0.520320,0.327430,-0.627875,0.207708,-0.704816,0.071157,-0.744911,0.000000,-0.744911,0.000000,-0.750000,-0.550000,-0.750000,-0.550000,0.750000,0.000000,0.750000,0.000000,0.744911,0.000000,0.744911,
$1*%
G04 Aperture macros list end*
%ADD10C,2.700000*%
%ADD11C,4.875000*%
%ADD12C,1.650000*%
%ADD13R,3.600000X1.270000*%
%ADD14R,4.200000X1.350000*%
%ADD15RoundRect,0.140000X-0.170000X0.140000X-0.170000X-0.140000X0.170000X-0.140000X0.170000X0.140000X0*%
%ADD16RoundRect,0.135000X-0.185000X0.135000X-0.185000X-0.135000X0.185000X-0.135000X0.185000X0.135000X0*%
%ADD17RoundRect,0.135000X0.185000X-0.135000X0.185000X0.135000X-0.185000X0.135000X-0.185000X-0.135000X0*%
%ADD18R,0.250000X0.325000*%
%ADD19R,1.000000X1.050000*%
%ADD20R,1.050000X2.200000*%
%ADD21RoundRect,0.150000X-0.587500X-0.150000X0.587500X-0.150000X0.587500X0.150000X-0.587500X0.150000X0*%
%ADD22RoundRect,0.150000X-0.150000X0.587500X-0.150000X-0.587500X0.150000X-0.587500X0.150000X0.587500X0*%
%ADD23RoundRect,0.135000X-0.135000X-0.185000X0.135000X-0.185000X0.135000X0.185000X-0.135000X0.185000X0*%
%ADD24RoundRect,0.140000X0.170000X-0.140000X0.170000X0.140000X-0.170000X0.140000X-0.170000X-0.140000X0*%
%ADD25RoundRect,0.147500X-0.147500X-0.172500X0.147500X-0.172500X0.147500X0.172500X-0.147500X0.172500X0*%
%ADD26C,1.000000*%
%ADD27FreePoly0,90.000000*%
%ADD28R,1.500000X1.000000*%
%ADD29FreePoly1,90.000000*%
%ADD30RoundRect,0.140000X0.140000X0.170000X-0.140000X0.170000X-0.140000X-0.170000X0.140000X-0.170000X0*%
%ADD31RoundRect,0.150000X0.150000X-0.512500X0.150000X0.512500X-0.150000X0.512500X-0.150000X-0.512500X0*%
%ADD32RoundRect,0.225000X-0.375000X0.225000X-0.375000X-0.225000X0.375000X-0.225000X0.375000X0.225000X0*%
%ADD33RoundRect,0.140000X-0.140000X-0.170000X0.140000X-0.170000X0.140000X0.170000X-0.140000X0.170000X0*%
%ADD34RoundRect,0.150000X-0.150000X0.512500X-0.150000X-0.512500X0.150000X-0.512500X0.150000X0.512500X0*%
%ADD35C,0.900000*%
%ADD36RoundRect,0.135000X0.135000X0.185000X-0.135000X0.185000X-0.135000X-0.185000X0.135000X-0.185000X0*%
%ADD37RoundRect,0.147500X0.172500X-0.147500X0.172500X0.147500X-0.172500X0.147500X-0.172500X-0.147500X0*%
%ADD38R,1.524000X1.500000*%
%ADD39R,3.048000X3.048000*%
%ADD40R,1.800000X0.800000*%
%ADD41R,0.800000X1.800000*%
%ADD42R,1.050000X0.780000*%
%ADD43R,0.700000X3.330000*%
%ADD44R,0.860000X2.800000*%
%ADD45R,0.900000X0.930000*%
%ADD46R,1.140000X1.830000*%
%ADD47R,0.700000X1.100000*%
%ADD48RoundRect,0.237500X-0.287500X-0.237500X0.287500X-0.237500X0.287500X0.237500X-0.287500X0.237500X0*%
G04 APERTURE END LIST*
D10*
X226350000Y-103940000D03*
D11*
X269200000Y-75200000D03*
X269200000Y-98700000D03*
D12*
X267700000Y-93200000D03*
X267700000Y-90700000D03*
X267700000Y-88200000D03*
X267700000Y-85700000D03*
X267700000Y-83200000D03*
X267700000Y-80700000D03*
X264700000Y-93200000D03*
X264700000Y-90700000D03*
X264700000Y-88200000D03*
X264700000Y-85700000D03*
X264700000Y-83200000D03*
X264700000Y-80700000D03*
D13*
X225262500Y-73900000D03*
D14*
X225462500Y-76725000D03*
X225462500Y-71075000D03*
D15*
X226100000Y-91320000D03*
X226100000Y-92280000D03*
D16*
X249940000Y-104340000D03*
X249940000Y-105360000D03*
D17*
X264300000Y-73310000D03*
X264300000Y-72290000D03*
D16*
X242450000Y-90440000D03*
X242450000Y-91460000D03*
D18*
X234975000Y-69462500D03*
X235475000Y-69175000D03*
X235975000Y-69175000D03*
X235975000Y-69750000D03*
X235475000Y-69750000D03*
D16*
X239000000Y-90490000D03*
X239000000Y-91510000D03*
D19*
X230875000Y-70875000D03*
D20*
X229400000Y-72400000D03*
X232350000Y-72400000D03*
D21*
X233812500Y-81200000D03*
X233812500Y-79300000D03*
X235687500Y-80250000D03*
D10*
X270430000Y-103940000D03*
D22*
X260900000Y-97400000D03*
X262800000Y-97400000D03*
X261850000Y-99275000D03*
D23*
X257530000Y-91550000D03*
X258550000Y-91550000D03*
D17*
X253740000Y-68020000D03*
X253740000Y-67000000D03*
D24*
X240350000Y-91460000D03*
X240350000Y-90500000D03*
D25*
X263330000Y-71300000D03*
X264300000Y-71300000D03*
D23*
X231292500Y-81490000D03*
X232312500Y-81490000D03*
X227597500Y-87180000D03*
X228617500Y-87180000D03*
D15*
X227200000Y-91320000D03*
X227200000Y-92280000D03*
D26*
X229147500Y-81940000D03*
D21*
X228312500Y-85750000D03*
X228312500Y-83850000D03*
X230187500Y-84800000D03*
D27*
X254400000Y-105150000D03*
D28*
X254400000Y-103850000D03*
D29*
X254400000Y-102550000D03*
D24*
X241400000Y-91460000D03*
X241400000Y-90500000D03*
X260000000Y-67980000D03*
X260000000Y-67020000D03*
D16*
X243550000Y-90440000D03*
X243550000Y-91460000D03*
D19*
X264300000Y-69200000D03*
D20*
X265775000Y-67675000D03*
X262825000Y-67675000D03*
D30*
X254960000Y-100750000D03*
X254000000Y-100750000D03*
D31*
X230450000Y-94137500D03*
X228550000Y-94137500D03*
X229500000Y-91862500D03*
D17*
X256470000Y-68040000D03*
X256470000Y-67020000D03*
D32*
X225907500Y-83730000D03*
X225907500Y-87030000D03*
D33*
X228620000Y-96800000D03*
X229580000Y-96800000D03*
D23*
X257530000Y-90450000D03*
X258550000Y-90450000D03*
D16*
X236850000Y-90490000D03*
X236850000Y-91510000D03*
D24*
X252640000Y-68020000D03*
X252640000Y-67060000D03*
D17*
X256240000Y-104860000D03*
X256240000Y-103840000D03*
D27*
X251750000Y-105150000D03*
D28*
X251750000Y-103850000D03*
D29*
X251750000Y-102550000D03*
D23*
X231240000Y-80100000D03*
X232260000Y-80100000D03*
D30*
X254930000Y-99650000D03*
X253970000Y-99650000D03*
D34*
X234390000Y-85502500D03*
X235340000Y-85502500D03*
X236290000Y-85502500D03*
X236290000Y-87777500D03*
X234390000Y-87777500D03*
D33*
X228620000Y-95635000D03*
X229580000Y-95635000D03*
D35*
X249400000Y-67400000D03*
D16*
X246800000Y-90390000D03*
X246800000Y-91410000D03*
D33*
X234140000Y-82800000D03*
X235100000Y-82800000D03*
D36*
X262310000Y-95700000D03*
X261290000Y-95700000D03*
D35*
X247000000Y-67200000D03*
D17*
X245700000Y-91410000D03*
X245700000Y-90390000D03*
D16*
X244650000Y-90400000D03*
X244650000Y-91420000D03*
D10*
X270430000Y-68960000D03*
D16*
X237950000Y-90490000D03*
X237950000Y-91510000D03*
D37*
X233925000Y-69450000D03*
X233925000Y-68480000D03*
D38*
X246850000Y-81050000D03*
D39*
X253200000Y-83350006D03*
D40*
X257950000Y-86350000D03*
X257950000Y-85150000D03*
X257950000Y-83950000D03*
X257950000Y-82750000D03*
X257950000Y-81550000D03*
X257950000Y-80350000D03*
X257950000Y-79150000D03*
X257950000Y-77950000D03*
X257950000Y-76750000D03*
X257950000Y-75550000D03*
X257950000Y-74350000D03*
X257950000Y-73150000D03*
X257950000Y-71950000D03*
D41*
X256150000Y-69750000D03*
X254950000Y-69750000D03*
X253750000Y-69750000D03*
X252550000Y-69750000D03*
X251350000Y-69750000D03*
X250150000Y-69750000D03*
X248950000Y-69750000D03*
X247750000Y-69750000D03*
X246550000Y-69750000D03*
X245350000Y-69750000D03*
X244150000Y-69750000D03*
X242950000Y-69750000D03*
X241750000Y-69750000D03*
X240550000Y-69750000D03*
D40*
X238750000Y-71950000D03*
X238750000Y-73150000D03*
X238750000Y-74350000D03*
X238750000Y-75550000D03*
X238750000Y-76750000D03*
X238750000Y-77950000D03*
X238750000Y-79150000D03*
X238750000Y-80350000D03*
X238750000Y-81550000D03*
X238750000Y-82750000D03*
X238750000Y-83950000D03*
X238750000Y-85150000D03*
X238750000Y-86350000D03*
D41*
X240550000Y-88550000D03*
X241750000Y-88550000D03*
X242950000Y-88550000D03*
X244150000Y-88550000D03*
X245350000Y-88550000D03*
X246550000Y-88550000D03*
X247750000Y-88550000D03*
X248950000Y-88550000D03*
X250150000Y-88550000D03*
X251350000Y-88550000D03*
X252550000Y-88550000D03*
X253750000Y-88550000D03*
X254950000Y-88550000D03*
X256150000Y-88550000D03*
D42*
X239170000Y-93060000D03*
D43*
X245555000Y-94335000D03*
D44*
X245475000Y-105100000D03*
D45*
X234905000Y-93135000D03*
D46*
X232815000Y-105585000D03*
D43*
X232595000Y-94335000D03*
D47*
X244395000Y-105600000D03*
X243295000Y-105600000D03*
X242195000Y-105600000D03*
X241095000Y-105600000D03*
X239995000Y-105600000D03*
X238895000Y-105600000D03*
X237795000Y-105600000D03*
X236695000Y-105600000D03*
D48*
X225422500Y-82060000D03*
X227172500Y-82060000D03*
D24*
X257670000Y-68040000D03*
X257670000Y-67080000D03*
M02*
