G04 #@! TF.GenerationSoftware,KiCad,Pcbnew,7.0.10*
G04 #@! TF.CreationDate,2024-01-20T01:08:44+03:00*
G04 #@! TF.ProjectId,GPS_MODULE_V3.kicad_pro,4750535f-4d4f-4445-954c-455f56332e6b,rev?*
G04 #@! TF.SameCoordinates,Original*
G04 #@! TF.FileFunction,Legend,Bot*
G04 #@! TF.FilePolarity,Positive*
%FSLAX46Y46*%
G04 Gerber Fmt 4.6, Leading zero omitted, Abs format (unit mm)*
G04 Created by KiCad (PCBNEW 7.0.10) date 2024-01-20 01:08:44*
%MOMM*%
%LPD*%
G01*
G04 APERTURE LIST*
%ADD10C,0.150000*%
%ADD11C,0.200000*%
%ADD12C,0.254000*%
%ADD13C,0.100000*%
%ADD14C,0.120000*%
%ADD15C,0.350000*%
%ADD16C,0.127000*%
G04 APERTURE END LIST*
D10*
X230810839Y-80135961D02*
X230810839Y-80935961D01*
X230810839Y-80174057D02*
X230734649Y-80135961D01*
X230734649Y-80135961D02*
X230582268Y-80135961D01*
X230582268Y-80135961D02*
X230506077Y-80174057D01*
X230506077Y-80174057D02*
X230467982Y-80212152D01*
X230467982Y-80212152D02*
X230429887Y-80288342D01*
X230429887Y-80288342D02*
X230429887Y-80516914D01*
X230429887Y-80516914D02*
X230467982Y-80593104D01*
X230467982Y-80593104D02*
X230506077Y-80631200D01*
X230506077Y-80631200D02*
X230582268Y-80669295D01*
X230582268Y-80669295D02*
X230734649Y-80669295D01*
X230734649Y-80669295D02*
X230810839Y-80631200D01*
X230163220Y-80135961D02*
X230010839Y-80669295D01*
X230010839Y-80669295D02*
X229858458Y-80288342D01*
X229858458Y-80288342D02*
X229706077Y-80669295D01*
X229706077Y-80669295D02*
X229553696Y-80135961D01*
X229248934Y-80669295D02*
X229248934Y-80135961D01*
X229248934Y-80288342D02*
X229210839Y-80212152D01*
X229210839Y-80212152D02*
X229172744Y-80174057D01*
X229172744Y-80174057D02*
X229096553Y-80135961D01*
X229096553Y-80135961D02*
X229020363Y-80135961D01*
X228144172Y-80669295D02*
X228144172Y-80135961D01*
X228144172Y-79869295D02*
X228182268Y-79907390D01*
X228182268Y-79907390D02*
X228144172Y-79945485D01*
X228144172Y-79945485D02*
X228106077Y-79907390D01*
X228106077Y-79907390D02*
X228144172Y-79869295D01*
X228144172Y-79869295D02*
X228144172Y-79945485D01*
X227763220Y-80135961D02*
X227763220Y-80669295D01*
X227763220Y-80212152D02*
X227725125Y-80174057D01*
X227725125Y-80174057D02*
X227648935Y-80135961D01*
X227648935Y-80135961D02*
X227534649Y-80135961D01*
X227534649Y-80135961D02*
X227458458Y-80174057D01*
X227458458Y-80174057D02*
X227420363Y-80250247D01*
X227420363Y-80250247D02*
X227420363Y-80669295D01*
D11*
G36*
X272596000Y-82707292D02*
G01*
X272596000Y-82521765D01*
X271952664Y-82521765D01*
X271939360Y-82521948D01*
X271924802Y-82522498D01*
X271913060Y-82523150D01*
X271900611Y-82524009D01*
X271887458Y-82525074D01*
X271873598Y-82526345D01*
X271859032Y-82527821D01*
X271843761Y-82529504D01*
X271827784Y-82531394D01*
X271811101Y-82533489D01*
X272464695Y-82366720D01*
X272464695Y-82268827D01*
X271811101Y-82101472D01*
X271828083Y-82103515D01*
X271844297Y-82105357D01*
X271859743Y-82106997D01*
X271874422Y-82108437D01*
X271888333Y-82109676D01*
X271901477Y-82110715D01*
X271913853Y-82111552D01*
X271929160Y-82112356D01*
X271943103Y-82112802D01*
X271952664Y-82112903D01*
X272596000Y-82112903D01*
X272596000Y-81927376D01*
X271301708Y-81927376D01*
X271301708Y-82109678D01*
X272009230Y-82312498D01*
X272021245Y-82314541D01*
X272033218Y-82315661D01*
X272046160Y-82316509D01*
X272058834Y-82317138D01*
X272067263Y-82317480D01*
X272054377Y-82317874D01*
X272042496Y-82318726D01*
X272028988Y-82320054D01*
X272016115Y-82321572D01*
X272009230Y-82322463D01*
X271301708Y-82524989D01*
X271301708Y-82707292D01*
X272596000Y-82707292D01*
G37*
G36*
X272596000Y-82999504D02*
G01*
X272370905Y-83038192D01*
X272370905Y-83279699D01*
X272596000Y-83318387D01*
X272596000Y-83509776D01*
X271301708Y-83261528D01*
X271301708Y-83158653D01*
X271600954Y-83158653D01*
X272183327Y-83252442D01*
X272183327Y-83063691D01*
X271600954Y-83158653D01*
X271301708Y-83158653D01*
X271301708Y-83058709D01*
X272592775Y-82808995D01*
X272596000Y-82808995D01*
X272596000Y-82999504D01*
G37*
G36*
X272596000Y-84006566D02*
G01*
X272595746Y-84020707D01*
X272594987Y-84034479D01*
X272593722Y-84047882D01*
X272591951Y-84060916D01*
X272589674Y-84073582D01*
X272586891Y-84085879D01*
X272583602Y-84097808D01*
X272579806Y-84109368D01*
X272575505Y-84120559D01*
X272570697Y-84131382D01*
X272562538Y-84146925D01*
X272553239Y-84161638D01*
X272542802Y-84175522D01*
X272531226Y-84188576D01*
X272518596Y-84200675D01*
X272505106Y-84211585D01*
X272490755Y-84221304D01*
X272475544Y-84229833D01*
X272464925Y-84234858D01*
X272453923Y-84239354D01*
X272442540Y-84243321D01*
X272430774Y-84246759D01*
X272418625Y-84249668D01*
X272406095Y-84252049D01*
X272393181Y-84253900D01*
X272379886Y-84255222D01*
X272366208Y-84256016D01*
X272352147Y-84256280D01*
X271545560Y-84256280D01*
X271538518Y-84256214D01*
X271524717Y-84255685D01*
X271511295Y-84254627D01*
X271498250Y-84253040D01*
X271485583Y-84250925D01*
X271473294Y-84248280D01*
X271461382Y-84245106D01*
X271449849Y-84241404D01*
X271438693Y-84237172D01*
X271422668Y-84229833D01*
X271407492Y-84221304D01*
X271393167Y-84211585D01*
X271379692Y-84200675D01*
X271367067Y-84188576D01*
X271363046Y-84184317D01*
X271351749Y-84170986D01*
X271341600Y-84156826D01*
X271332600Y-84141836D01*
X271327239Y-84131382D01*
X271322388Y-84120559D01*
X271318048Y-84109368D01*
X271314218Y-84097808D01*
X271310899Y-84085879D01*
X271308091Y-84073582D01*
X271305793Y-84060916D01*
X271304006Y-84047882D01*
X271302729Y-84034479D01*
X271301963Y-84020707D01*
X271301708Y-84006566D01*
X271301708Y-83806385D01*
X271489286Y-83806385D01*
X271489286Y-83949706D01*
X271489690Y-83963371D01*
X271490903Y-83976153D01*
X271494237Y-83993674D01*
X271499390Y-84009212D01*
X271506361Y-84022766D01*
X271515152Y-84034337D01*
X271525760Y-84043924D01*
X271538188Y-84051527D01*
X271552434Y-84057147D01*
X271568499Y-84060783D01*
X271580219Y-84062106D01*
X271592748Y-84062547D01*
X272303201Y-84062547D01*
X272309675Y-84062432D01*
X272322005Y-84061511D01*
X272338959Y-84058404D01*
X272354064Y-84053227D01*
X272367320Y-84045978D01*
X272378725Y-84036658D01*
X272388281Y-84025267D01*
X272395988Y-84011805D01*
X272401845Y-83996271D01*
X272404722Y-83984765D01*
X272406777Y-83972339D01*
X272408010Y-83958991D01*
X272408421Y-83944724D01*
X272408421Y-83806385D01*
X271489286Y-83806385D01*
X271301708Y-83806385D01*
X271301708Y-83613237D01*
X272596000Y-83613237D01*
X272596000Y-84006566D01*
G37*
G36*
X272596000Y-84936252D02*
G01*
X272596000Y-84401067D01*
X271301708Y-84401067D01*
X271301708Y-84931270D01*
X271489286Y-84931270D01*
X271489286Y-84594214D01*
X271845685Y-84594214D01*
X271845685Y-84884375D01*
X272033264Y-84884375D01*
X272033264Y-84594214D01*
X272408421Y-84594214D01*
X272408421Y-84936252D01*
X272596000Y-84936252D01*
G37*
G36*
X272596000Y-85606845D02*
G01*
X272596000Y-85413991D01*
X271301708Y-85413991D01*
X271301708Y-85606845D01*
X272596000Y-85606845D01*
G37*
G36*
X272596000Y-86416071D02*
G01*
X272596000Y-86246957D01*
X271781498Y-85937745D01*
X271795974Y-85940699D01*
X271809654Y-85943259D01*
X271822536Y-85945425D01*
X271834621Y-85947198D01*
X271848608Y-85948859D01*
X271861349Y-85949905D01*
X271874995Y-85950348D01*
X272596000Y-85950348D01*
X272596000Y-85762184D01*
X271301708Y-85762184D01*
X271301708Y-85931297D01*
X272099796Y-86240509D01*
X272085320Y-86237555D01*
X272071641Y-86234995D01*
X272058758Y-86232829D01*
X272046673Y-86231057D01*
X272032687Y-86229395D01*
X272019945Y-86228349D01*
X272006300Y-86227906D01*
X271301708Y-86227906D01*
X271301708Y-86416071D01*
X272596000Y-86416071D01*
G37*
G36*
X272596000Y-87562644D02*
G01*
X272596000Y-87350153D01*
X272023299Y-87105422D01*
X272596000Y-87105422D01*
X272596000Y-86912274D01*
X271301708Y-86912274D01*
X271301708Y-87105422D01*
X271854185Y-87105422D01*
X271301708Y-87319672D01*
X271301708Y-87530697D01*
X271310794Y-87530697D01*
X271930096Y-87268381D01*
X272596000Y-87562644D01*
G37*
G36*
X272596000Y-88170809D02*
G01*
X272596000Y-87635624D01*
X271301708Y-87635624D01*
X271301708Y-88165826D01*
X271489286Y-88165826D01*
X271489286Y-87828771D01*
X271845685Y-87828771D01*
X271845685Y-88118932D01*
X272033264Y-88118932D01*
X272033264Y-87828771D01*
X272408421Y-87828771D01*
X272408421Y-88170809D01*
X272596000Y-88170809D01*
G37*
G36*
X272596000Y-88953070D02*
G01*
X272596000Y-88783956D01*
X271781498Y-88474745D01*
X271795974Y-88477699D01*
X271809654Y-88480259D01*
X271822536Y-88482425D01*
X271834621Y-88484197D01*
X271848608Y-88485859D01*
X271861349Y-88486905D01*
X271874995Y-88487348D01*
X272596000Y-88487348D01*
X272596000Y-88299183D01*
X271301708Y-88299183D01*
X271301708Y-88468297D01*
X272099796Y-88777508D01*
X272085320Y-88774554D01*
X272071641Y-88771994D01*
X272058758Y-88769828D01*
X272046673Y-88768056D01*
X272032687Y-88766395D01*
X272019945Y-88765348D01*
X272006300Y-88764905D01*
X271301708Y-88764905D01*
X271301708Y-88953070D01*
X272596000Y-88953070D01*
G37*
G36*
X271309328Y-89752330D02*
G01*
X271850082Y-89581751D01*
X271866105Y-89575675D01*
X271877861Y-89571407D01*
X271890476Y-89566965D01*
X271903949Y-89562349D01*
X271918280Y-89557558D01*
X271933471Y-89552594D01*
X271949520Y-89547456D01*
X271966427Y-89542144D01*
X271984194Y-89536657D01*
X272002819Y-89530997D01*
X272022303Y-89525163D01*
X272042645Y-89519154D01*
X272063846Y-89512972D01*
X272085906Y-89506615D01*
X272097258Y-89503372D01*
X272108824Y-89500085D01*
X272120605Y-89496755D01*
X272596000Y-89496755D01*
X272596000Y-89303021D01*
X272120605Y-89303021D01*
X272108448Y-89300448D01*
X272096157Y-89297673D01*
X272083732Y-89294698D01*
X272071174Y-89291522D01*
X272058481Y-89288145D01*
X272045654Y-89284567D01*
X272032693Y-89280788D01*
X272019599Y-89276808D01*
X272006370Y-89272627D01*
X271993007Y-89268245D01*
X271984025Y-89265212D01*
X271969076Y-89259910D01*
X271955004Y-89254922D01*
X271941809Y-89250248D01*
X271929491Y-89245887D01*
X271918050Y-89241839D01*
X271902533Y-89236357D01*
X271888990Y-89231580D01*
X271877419Y-89227509D01*
X271865061Y-89223179D01*
X271853102Y-89219037D01*
X271850082Y-89218025D01*
X271309035Y-89048325D01*
X271301708Y-89048325D01*
X271301708Y-89247041D01*
X271865030Y-89401207D01*
X271301708Y-89554494D01*
X271301708Y-89752330D01*
X271309328Y-89752330D01*
G37*
G36*
X272596000Y-89990321D02*
G01*
X272370905Y-90029009D01*
X272370905Y-90270516D01*
X272596000Y-90309204D01*
X272596000Y-90500593D01*
X271301708Y-90252344D01*
X271301708Y-90149469D01*
X271600954Y-90149469D01*
X272183327Y-90243258D01*
X272183327Y-90054508D01*
X271600954Y-90149469D01*
X271301708Y-90149469D01*
X271301708Y-90049525D01*
X272592775Y-89799811D01*
X272596000Y-89799811D01*
X272596000Y-89990321D01*
G37*
D10*
X271569819Y-91377255D02*
X271569819Y-91472493D01*
X271569819Y-91472493D02*
X271617438Y-91567731D01*
X271617438Y-91567731D02*
X271665057Y-91615350D01*
X271665057Y-91615350D02*
X271760295Y-91662969D01*
X271760295Y-91662969D02*
X271950771Y-91710588D01*
X271950771Y-91710588D02*
X272188866Y-91710588D01*
X272188866Y-91710588D02*
X272379342Y-91662969D01*
X272379342Y-91662969D02*
X272474580Y-91615350D01*
X272474580Y-91615350D02*
X272522200Y-91567731D01*
X272522200Y-91567731D02*
X272569819Y-91472493D01*
X272569819Y-91472493D02*
X272569819Y-91377255D01*
X272569819Y-91377255D02*
X272522200Y-91282017D01*
X272522200Y-91282017D02*
X272474580Y-91234398D01*
X272474580Y-91234398D02*
X272379342Y-91186779D01*
X272379342Y-91186779D02*
X272188866Y-91139160D01*
X272188866Y-91139160D02*
X271950771Y-91139160D01*
X271950771Y-91139160D02*
X271760295Y-91186779D01*
X271760295Y-91186779D02*
X271665057Y-91234398D01*
X271665057Y-91234398D02*
X271617438Y-91282017D01*
X271617438Y-91282017D02*
X271569819Y-91377255D01*
X271569819Y-92329636D02*
X271569819Y-92424874D01*
X271569819Y-92424874D02*
X271617438Y-92520112D01*
X271617438Y-92520112D02*
X271665057Y-92567731D01*
X271665057Y-92567731D02*
X271760295Y-92615350D01*
X271760295Y-92615350D02*
X271950771Y-92662969D01*
X271950771Y-92662969D02*
X272188866Y-92662969D01*
X272188866Y-92662969D02*
X272379342Y-92615350D01*
X272379342Y-92615350D02*
X272474580Y-92567731D01*
X272474580Y-92567731D02*
X272522200Y-92520112D01*
X272522200Y-92520112D02*
X272569819Y-92424874D01*
X272569819Y-92424874D02*
X272569819Y-92329636D01*
X272569819Y-92329636D02*
X272522200Y-92234398D01*
X272522200Y-92234398D02*
X272474580Y-92186779D01*
X272474580Y-92186779D02*
X272379342Y-92139160D01*
X272379342Y-92139160D02*
X272188866Y-92091541D01*
X272188866Y-92091541D02*
X271950771Y-92091541D01*
X271950771Y-92091541D02*
X271760295Y-92139160D01*
X271760295Y-92139160D02*
X271665057Y-92186779D01*
X271665057Y-92186779D02*
X271617438Y-92234398D01*
X271617438Y-92234398D02*
X271569819Y-92329636D01*
X272569819Y-93615350D02*
X272569819Y-93043922D01*
X272569819Y-93329636D02*
X271569819Y-93329636D01*
X271569819Y-93329636D02*
X271712676Y-93234398D01*
X271712676Y-93234398D02*
X271807914Y-93139160D01*
X271807914Y-93139160D02*
X271855533Y-93043922D01*
X271665057Y-93996303D02*
X271617438Y-94043922D01*
X271617438Y-94043922D02*
X271569819Y-94139160D01*
X271569819Y-94139160D02*
X271569819Y-94377255D01*
X271569819Y-94377255D02*
X271617438Y-94472493D01*
X271617438Y-94472493D02*
X271665057Y-94520112D01*
X271665057Y-94520112D02*
X271760295Y-94567731D01*
X271760295Y-94567731D02*
X271855533Y-94567731D01*
X271855533Y-94567731D02*
X271998390Y-94520112D01*
X271998390Y-94520112D02*
X272569819Y-93948684D01*
X272569819Y-93948684D02*
X272569819Y-94567731D01*
X272569819Y-95520112D02*
X272569819Y-94948684D01*
X272569819Y-95234398D02*
X271569819Y-95234398D01*
X271569819Y-95234398D02*
X271712676Y-95139160D01*
X271712676Y-95139160D02*
X271807914Y-95043922D01*
X271807914Y-95043922D02*
X271855533Y-94948684D01*
X272569819Y-96472493D02*
X272569819Y-95901065D01*
X272569819Y-96186779D02*
X271569819Y-96186779D01*
X271569819Y-96186779D02*
X271712676Y-96091541D01*
X271712676Y-96091541D02*
X271807914Y-95996303D01*
X271807914Y-95996303D02*
X271855533Y-95901065D01*
X271665057Y-96853446D02*
X271617438Y-96901065D01*
X271617438Y-96901065D02*
X271569819Y-96996303D01*
X271569819Y-96996303D02*
X271569819Y-97234398D01*
X271569819Y-97234398D02*
X271617438Y-97329636D01*
X271617438Y-97329636D02*
X271665057Y-97377255D01*
X271665057Y-97377255D02*
X271760295Y-97424874D01*
X271760295Y-97424874D02*
X271855533Y-97424874D01*
X271855533Y-97424874D02*
X271998390Y-97377255D01*
X271998390Y-97377255D02*
X272569819Y-96805827D01*
X272569819Y-96805827D02*
X272569819Y-97424874D01*
X271665057Y-97805827D02*
X271617438Y-97853446D01*
X271617438Y-97853446D02*
X271569819Y-97948684D01*
X271569819Y-97948684D02*
X271569819Y-98186779D01*
X271569819Y-98186779D02*
X271617438Y-98282017D01*
X271617438Y-98282017D02*
X271665057Y-98329636D01*
X271665057Y-98329636D02*
X271760295Y-98377255D01*
X271760295Y-98377255D02*
X271855533Y-98377255D01*
X271855533Y-98377255D02*
X271998390Y-98329636D01*
X271998390Y-98329636D02*
X272569819Y-97758208D01*
X272569819Y-97758208D02*
X272569819Y-98377255D01*
X271569819Y-98710589D02*
X271569819Y-99329636D01*
X271569819Y-99329636D02*
X271950771Y-98996303D01*
X271950771Y-98996303D02*
X271950771Y-99139160D01*
X271950771Y-99139160D02*
X271998390Y-99234398D01*
X271998390Y-99234398D02*
X272046009Y-99282017D01*
X272046009Y-99282017D02*
X272141247Y-99329636D01*
X272141247Y-99329636D02*
X272379342Y-99329636D01*
X272379342Y-99329636D02*
X272474580Y-99282017D01*
X272474580Y-99282017D02*
X272522200Y-99234398D01*
X272522200Y-99234398D02*
X272569819Y-99139160D01*
X272569819Y-99139160D02*
X272569819Y-98853446D01*
X272569819Y-98853446D02*
X272522200Y-98758208D01*
X272522200Y-98758208D02*
X272474580Y-98710589D01*
X245348935Y-67156200D02*
X245234649Y-67194295D01*
X245234649Y-67194295D02*
X245044173Y-67194295D01*
X245044173Y-67194295D02*
X244967982Y-67156200D01*
X244967982Y-67156200D02*
X244929887Y-67118104D01*
X244929887Y-67118104D02*
X244891792Y-67041914D01*
X244891792Y-67041914D02*
X244891792Y-66965723D01*
X244891792Y-66965723D02*
X244929887Y-66889533D01*
X244929887Y-66889533D02*
X244967982Y-66851438D01*
X244967982Y-66851438D02*
X245044173Y-66813342D01*
X245044173Y-66813342D02*
X245196554Y-66775247D01*
X245196554Y-66775247D02*
X245272744Y-66737152D01*
X245272744Y-66737152D02*
X245310839Y-66699057D01*
X245310839Y-66699057D02*
X245348935Y-66622866D01*
X245348935Y-66622866D02*
X245348935Y-66546676D01*
X245348935Y-66546676D02*
X245310839Y-66470485D01*
X245310839Y-66470485D02*
X245272744Y-66432390D01*
X245272744Y-66432390D02*
X245196554Y-66394295D01*
X245196554Y-66394295D02*
X245006077Y-66394295D01*
X245006077Y-66394295D02*
X244891792Y-66432390D01*
X244663220Y-66394295D02*
X244206077Y-66394295D01*
X244434649Y-67194295D02*
X244434649Y-66394295D01*
X243977506Y-66965723D02*
X243596553Y-66965723D01*
X244053696Y-67194295D02*
X243787029Y-66394295D01*
X243787029Y-66394295D02*
X243520363Y-67194295D01*
X243367982Y-66394295D02*
X242910839Y-66394295D01*
X243139411Y-67194295D02*
X243139411Y-66394295D01*
X242644172Y-66394295D02*
X242644172Y-67041914D01*
X242644172Y-67041914D02*
X242606077Y-67118104D01*
X242606077Y-67118104D02*
X242567982Y-67156200D01*
X242567982Y-67156200D02*
X242491791Y-67194295D01*
X242491791Y-67194295D02*
X242339410Y-67194295D01*
X242339410Y-67194295D02*
X242263220Y-67156200D01*
X242263220Y-67156200D02*
X242225125Y-67118104D01*
X242225125Y-67118104D02*
X242187029Y-67041914D01*
X242187029Y-67041914D02*
X242187029Y-66394295D01*
X241844173Y-67156200D02*
X241729887Y-67194295D01*
X241729887Y-67194295D02*
X241539411Y-67194295D01*
X241539411Y-67194295D02*
X241463220Y-67156200D01*
X241463220Y-67156200D02*
X241425125Y-67118104D01*
X241425125Y-67118104D02*
X241387030Y-67041914D01*
X241387030Y-67041914D02*
X241387030Y-66965723D01*
X241387030Y-66965723D02*
X241425125Y-66889533D01*
X241425125Y-66889533D02*
X241463220Y-66851438D01*
X241463220Y-66851438D02*
X241539411Y-66813342D01*
X241539411Y-66813342D02*
X241691792Y-66775247D01*
X241691792Y-66775247D02*
X241767982Y-66737152D01*
X241767982Y-66737152D02*
X241806077Y-66699057D01*
X241806077Y-66699057D02*
X241844173Y-66622866D01*
X241844173Y-66622866D02*
X241844173Y-66546676D01*
X241844173Y-66546676D02*
X241806077Y-66470485D01*
X241806077Y-66470485D02*
X241767982Y-66432390D01*
X241767982Y-66432390D02*
X241691792Y-66394295D01*
X241691792Y-66394295D02*
X241501315Y-66394295D01*
X241501315Y-66394295D02*
X241387030Y-66432390D01*
D12*
X229046461Y-68258333D02*
X229046461Y-68863095D01*
X229409318Y-68137381D02*
X228139318Y-68560714D01*
X228139318Y-68560714D02*
X229409318Y-68984048D01*
X228744080Y-69407380D02*
X228744080Y-69830714D01*
X229409318Y-70012142D02*
X229409318Y-69407380D01*
X229409318Y-69407380D02*
X228139318Y-69407380D01*
X228139318Y-69407380D02*
X228139318Y-70012142D01*
X229409318Y-71221667D02*
X229409318Y-70495952D01*
X229409318Y-70858809D02*
X228139318Y-70858809D01*
X228139318Y-70858809D02*
X228320746Y-70737857D01*
X228320746Y-70737857D02*
X228441699Y-70616905D01*
X228441699Y-70616905D02*
X228502175Y-70495952D01*
D10*
X250108332Y-106637295D02*
X250374999Y-106256342D01*
X250565475Y-106637295D02*
X250565475Y-105837295D01*
X250565475Y-105837295D02*
X250260713Y-105837295D01*
X250260713Y-105837295D02*
X250184523Y-105875390D01*
X250184523Y-105875390D02*
X250146428Y-105913485D01*
X250146428Y-105913485D02*
X250108332Y-105989676D01*
X250108332Y-105989676D02*
X250108332Y-106103961D01*
X250108332Y-106103961D02*
X250146428Y-106180152D01*
X250146428Y-106180152D02*
X250184523Y-106218247D01*
X250184523Y-106218247D02*
X250260713Y-106256342D01*
X250260713Y-106256342D02*
X250565475Y-106256342D01*
X249422618Y-105837295D02*
X249574999Y-105837295D01*
X249574999Y-105837295D02*
X249651190Y-105875390D01*
X249651190Y-105875390D02*
X249689285Y-105913485D01*
X249689285Y-105913485D02*
X249765475Y-106027771D01*
X249765475Y-106027771D02*
X249803571Y-106180152D01*
X249803571Y-106180152D02*
X249803571Y-106484914D01*
X249803571Y-106484914D02*
X249765475Y-106561104D01*
X249765475Y-106561104D02*
X249727380Y-106599200D01*
X249727380Y-106599200D02*
X249651190Y-106637295D01*
X249651190Y-106637295D02*
X249498809Y-106637295D01*
X249498809Y-106637295D02*
X249422618Y-106599200D01*
X249422618Y-106599200D02*
X249384523Y-106561104D01*
X249384523Y-106561104D02*
X249346428Y-106484914D01*
X249346428Y-106484914D02*
X249346428Y-106294438D01*
X249346428Y-106294438D02*
X249384523Y-106218247D01*
X249384523Y-106218247D02*
X249422618Y-106180152D01*
X249422618Y-106180152D02*
X249498809Y-106142057D01*
X249498809Y-106142057D02*
X249651190Y-106142057D01*
X249651190Y-106142057D02*
X249727380Y-106180152D01*
X249727380Y-106180152D02*
X249765475Y-106218247D01*
X249765475Y-106218247D02*
X249803571Y-106294438D01*
X234708690Y-82978485D02*
X234784880Y-82940390D01*
X234784880Y-82940390D02*
X234861071Y-82864200D01*
X234861071Y-82864200D02*
X234975357Y-82749914D01*
X234975357Y-82749914D02*
X235051547Y-82711819D01*
X235051547Y-82711819D02*
X235127738Y-82711819D01*
X235089642Y-82902295D02*
X235165833Y-82864200D01*
X235165833Y-82864200D02*
X235242023Y-82788009D01*
X235242023Y-82788009D02*
X235280119Y-82635628D01*
X235280119Y-82635628D02*
X235280119Y-82368961D01*
X235280119Y-82368961D02*
X235242023Y-82216580D01*
X235242023Y-82216580D02*
X235165833Y-82140390D01*
X235165833Y-82140390D02*
X235089642Y-82102295D01*
X235089642Y-82102295D02*
X234937261Y-82102295D01*
X234937261Y-82102295D02*
X234861071Y-82140390D01*
X234861071Y-82140390D02*
X234784880Y-82216580D01*
X234784880Y-82216580D02*
X234746785Y-82368961D01*
X234746785Y-82368961D02*
X234746785Y-82635628D01*
X234746785Y-82635628D02*
X234784880Y-82788009D01*
X234784880Y-82788009D02*
X234861071Y-82864200D01*
X234861071Y-82864200D02*
X234937261Y-82902295D01*
X234937261Y-82902295D02*
X235089642Y-82902295D01*
X234442024Y-82178485D02*
X234403928Y-82140390D01*
X234403928Y-82140390D02*
X234327738Y-82102295D01*
X234327738Y-82102295D02*
X234137262Y-82102295D01*
X234137262Y-82102295D02*
X234061071Y-82140390D01*
X234061071Y-82140390D02*
X234022976Y-82178485D01*
X234022976Y-82178485D02*
X233984881Y-82254676D01*
X233984881Y-82254676D02*
X233984881Y-82330866D01*
X233984881Y-82330866D02*
X234022976Y-82445152D01*
X234022976Y-82445152D02*
X234480119Y-82902295D01*
X234480119Y-82902295D02*
X233984881Y-82902295D01*
X264412295Y-97878571D02*
X263612295Y-97878571D01*
X263612295Y-97878571D02*
X263612295Y-98069047D01*
X263612295Y-98069047D02*
X263650390Y-98183333D01*
X263650390Y-98183333D02*
X263726580Y-98259523D01*
X263726580Y-98259523D02*
X263802771Y-98297618D01*
X263802771Y-98297618D02*
X263955152Y-98335714D01*
X263955152Y-98335714D02*
X264069438Y-98335714D01*
X264069438Y-98335714D02*
X264221819Y-98297618D01*
X264221819Y-98297618D02*
X264298009Y-98259523D01*
X264298009Y-98259523D02*
X264374200Y-98183333D01*
X264374200Y-98183333D02*
X264412295Y-98069047D01*
X264412295Y-98069047D02*
X264412295Y-97878571D01*
X264412295Y-99097618D02*
X264412295Y-98640475D01*
X264412295Y-98869047D02*
X263612295Y-98869047D01*
X263612295Y-98869047D02*
X263726580Y-98792856D01*
X263726580Y-98792856D02*
X263802771Y-98716666D01*
X263802771Y-98716666D02*
X263840866Y-98640475D01*
X263612295Y-99592857D02*
X263612295Y-99669047D01*
X263612295Y-99669047D02*
X263650390Y-99745238D01*
X263650390Y-99745238D02*
X263688485Y-99783333D01*
X263688485Y-99783333D02*
X263764676Y-99821428D01*
X263764676Y-99821428D02*
X263917057Y-99859523D01*
X263917057Y-99859523D02*
X264107533Y-99859523D01*
X264107533Y-99859523D02*
X264259914Y-99821428D01*
X264259914Y-99821428D02*
X264336104Y-99783333D01*
X264336104Y-99783333D02*
X264374200Y-99745238D01*
X264374200Y-99745238D02*
X264412295Y-99669047D01*
X264412295Y-99669047D02*
X264412295Y-99592857D01*
X264412295Y-99592857D02*
X264374200Y-99516666D01*
X264374200Y-99516666D02*
X264336104Y-99478571D01*
X264336104Y-99478571D02*
X264259914Y-99440476D01*
X264259914Y-99440476D02*
X264107533Y-99402380D01*
X264107533Y-99402380D02*
X263917057Y-99402380D01*
X263917057Y-99402380D02*
X263764676Y-99440476D01*
X263764676Y-99440476D02*
X263688485Y-99478571D01*
X263688485Y-99478571D02*
X263650390Y-99516666D01*
X263650390Y-99516666D02*
X263612295Y-99592857D01*
X260544285Y-91912295D02*
X260810952Y-91531342D01*
X261001428Y-91912295D02*
X261001428Y-91112295D01*
X261001428Y-91112295D02*
X260696666Y-91112295D01*
X260696666Y-91112295D02*
X260620476Y-91150390D01*
X260620476Y-91150390D02*
X260582381Y-91188485D01*
X260582381Y-91188485D02*
X260544285Y-91264676D01*
X260544285Y-91264676D02*
X260544285Y-91378961D01*
X260544285Y-91378961D02*
X260582381Y-91455152D01*
X260582381Y-91455152D02*
X260620476Y-91493247D01*
X260620476Y-91493247D02*
X260696666Y-91531342D01*
X260696666Y-91531342D02*
X261001428Y-91531342D01*
X259782381Y-91912295D02*
X260239524Y-91912295D01*
X260010952Y-91912295D02*
X260010952Y-91112295D01*
X260010952Y-91112295D02*
X260087143Y-91226580D01*
X260087143Y-91226580D02*
X260163333Y-91302771D01*
X260163333Y-91302771D02*
X260239524Y-91340866D01*
X259096666Y-91112295D02*
X259249047Y-91112295D01*
X259249047Y-91112295D02*
X259325238Y-91150390D01*
X259325238Y-91150390D02*
X259363333Y-91188485D01*
X259363333Y-91188485D02*
X259439523Y-91302771D01*
X259439523Y-91302771D02*
X259477619Y-91455152D01*
X259477619Y-91455152D02*
X259477619Y-91759914D01*
X259477619Y-91759914D02*
X259439523Y-91836104D01*
X259439523Y-91836104D02*
X259401428Y-91874200D01*
X259401428Y-91874200D02*
X259325238Y-91912295D01*
X259325238Y-91912295D02*
X259172857Y-91912295D01*
X259172857Y-91912295D02*
X259096666Y-91874200D01*
X259096666Y-91874200D02*
X259058571Y-91836104D01*
X259058571Y-91836104D02*
X259020476Y-91759914D01*
X259020476Y-91759914D02*
X259020476Y-91569438D01*
X259020476Y-91569438D02*
X259058571Y-91493247D01*
X259058571Y-91493247D02*
X259096666Y-91455152D01*
X259096666Y-91455152D02*
X259172857Y-91417057D01*
X259172857Y-91417057D02*
X259325238Y-91417057D01*
X259325238Y-91417057D02*
X259401428Y-91455152D01*
X259401428Y-91455152D02*
X259439523Y-91493247D01*
X259439523Y-91493247D02*
X259477619Y-91569438D01*
X254987295Y-67282142D02*
X254606342Y-67065475D01*
X254987295Y-66910713D02*
X254187295Y-66910713D01*
X254187295Y-66910713D02*
X254187295Y-67158332D01*
X254187295Y-67158332D02*
X254225390Y-67220237D01*
X254225390Y-67220237D02*
X254263485Y-67251190D01*
X254263485Y-67251190D02*
X254339676Y-67282142D01*
X254339676Y-67282142D02*
X254453961Y-67282142D01*
X254453961Y-67282142D02*
X254530152Y-67251190D01*
X254530152Y-67251190D02*
X254568247Y-67220237D01*
X254568247Y-67220237D02*
X254606342Y-67158332D01*
X254606342Y-67158332D02*
X254606342Y-66910713D01*
X254987295Y-67901190D02*
X254987295Y-67529761D01*
X254987295Y-67715475D02*
X254187295Y-67715475D01*
X254187295Y-67715475D02*
X254301580Y-67653571D01*
X254301580Y-67653571D02*
X254377771Y-67591666D01*
X254377771Y-67591666D02*
X254415866Y-67529761D01*
X254987295Y-68210714D02*
X254987295Y-68334523D01*
X254987295Y-68334523D02*
X254949200Y-68396428D01*
X254949200Y-68396428D02*
X254911104Y-68427380D01*
X254911104Y-68427380D02*
X254796819Y-68489285D01*
X254796819Y-68489285D02*
X254644438Y-68520238D01*
X254644438Y-68520238D02*
X254339676Y-68520238D01*
X254339676Y-68520238D02*
X254263485Y-68489285D01*
X254263485Y-68489285D02*
X254225390Y-68458333D01*
X254225390Y-68458333D02*
X254187295Y-68396428D01*
X254187295Y-68396428D02*
X254187295Y-68272619D01*
X254187295Y-68272619D02*
X254225390Y-68210714D01*
X254225390Y-68210714D02*
X254263485Y-68179761D01*
X254263485Y-68179761D02*
X254339676Y-68148809D01*
X254339676Y-68148809D02*
X254530152Y-68148809D01*
X254530152Y-68148809D02*
X254606342Y-68179761D01*
X254606342Y-68179761D02*
X254644438Y-68210714D01*
X254644438Y-68210714D02*
X254682533Y-68272619D01*
X254682533Y-68272619D02*
X254682533Y-68396428D01*
X254682533Y-68396428D02*
X254644438Y-68458333D01*
X254644438Y-68458333D02*
X254606342Y-68489285D01*
X254606342Y-68489285D02*
X254530152Y-68520238D01*
X260814285Y-73086104D02*
X260852381Y-73124200D01*
X260852381Y-73124200D02*
X260966666Y-73162295D01*
X260966666Y-73162295D02*
X261042857Y-73162295D01*
X261042857Y-73162295D02*
X261157143Y-73124200D01*
X261157143Y-73124200D02*
X261233333Y-73048009D01*
X261233333Y-73048009D02*
X261271428Y-72971819D01*
X261271428Y-72971819D02*
X261309524Y-72819438D01*
X261309524Y-72819438D02*
X261309524Y-72705152D01*
X261309524Y-72705152D02*
X261271428Y-72552771D01*
X261271428Y-72552771D02*
X261233333Y-72476580D01*
X261233333Y-72476580D02*
X261157143Y-72400390D01*
X261157143Y-72400390D02*
X261042857Y-72362295D01*
X261042857Y-72362295D02*
X260966666Y-72362295D01*
X260966666Y-72362295D02*
X260852381Y-72400390D01*
X260852381Y-72400390D02*
X260814285Y-72438485D01*
X260509524Y-72438485D02*
X260471428Y-72400390D01*
X260471428Y-72400390D02*
X260395238Y-72362295D01*
X260395238Y-72362295D02*
X260204762Y-72362295D01*
X260204762Y-72362295D02*
X260128571Y-72400390D01*
X260128571Y-72400390D02*
X260090476Y-72438485D01*
X260090476Y-72438485D02*
X260052381Y-72514676D01*
X260052381Y-72514676D02*
X260052381Y-72590866D01*
X260052381Y-72590866D02*
X260090476Y-72705152D01*
X260090476Y-72705152D02*
X260547619Y-73162295D01*
X260547619Y-73162295D02*
X260052381Y-73162295D01*
X259785714Y-72362295D02*
X259290476Y-72362295D01*
X259290476Y-72362295D02*
X259557142Y-72667057D01*
X259557142Y-72667057D02*
X259442857Y-72667057D01*
X259442857Y-72667057D02*
X259366666Y-72705152D01*
X259366666Y-72705152D02*
X259328571Y-72743247D01*
X259328571Y-72743247D02*
X259290476Y-72819438D01*
X259290476Y-72819438D02*
X259290476Y-73009914D01*
X259290476Y-73009914D02*
X259328571Y-73086104D01*
X259328571Y-73086104D02*
X259366666Y-73124200D01*
X259366666Y-73124200D02*
X259442857Y-73162295D01*
X259442857Y-73162295D02*
X259671428Y-73162295D01*
X259671428Y-73162295D02*
X259747619Y-73124200D01*
X259747619Y-73124200D02*
X259785714Y-73086104D01*
X236364819Y-70401905D02*
X235364819Y-70401905D01*
X235364819Y-70401905D02*
X235364819Y-70640000D01*
X235364819Y-70640000D02*
X235412438Y-70782857D01*
X235412438Y-70782857D02*
X235507676Y-70878095D01*
X235507676Y-70878095D02*
X235602914Y-70925714D01*
X235602914Y-70925714D02*
X235793390Y-70973333D01*
X235793390Y-70973333D02*
X235936247Y-70973333D01*
X235936247Y-70973333D02*
X236126723Y-70925714D01*
X236126723Y-70925714D02*
X236221961Y-70878095D01*
X236221961Y-70878095D02*
X236317200Y-70782857D01*
X236317200Y-70782857D02*
X236364819Y-70640000D01*
X236364819Y-70640000D02*
X236364819Y-70401905D01*
X235364819Y-71830476D02*
X235364819Y-71640000D01*
X235364819Y-71640000D02*
X235412438Y-71544762D01*
X235412438Y-71544762D02*
X235460057Y-71497143D01*
X235460057Y-71497143D02*
X235602914Y-71401905D01*
X235602914Y-71401905D02*
X235793390Y-71354286D01*
X235793390Y-71354286D02*
X236174342Y-71354286D01*
X236174342Y-71354286D02*
X236269580Y-71401905D01*
X236269580Y-71401905D02*
X236317200Y-71449524D01*
X236317200Y-71449524D02*
X236364819Y-71544762D01*
X236364819Y-71544762D02*
X236364819Y-71735238D01*
X236364819Y-71735238D02*
X236317200Y-71830476D01*
X236317200Y-71830476D02*
X236269580Y-71878095D01*
X236269580Y-71878095D02*
X236174342Y-71925714D01*
X236174342Y-71925714D02*
X235936247Y-71925714D01*
X235936247Y-71925714D02*
X235841009Y-71878095D01*
X235841009Y-71878095D02*
X235793390Y-71830476D01*
X235793390Y-71830476D02*
X235745771Y-71735238D01*
X235745771Y-71735238D02*
X235745771Y-71544762D01*
X235745771Y-71544762D02*
X235793390Y-71449524D01*
X235793390Y-71449524D02*
X235841009Y-71401905D01*
X235841009Y-71401905D02*
X235936247Y-71354286D01*
X231895832Y-82842295D02*
X232162499Y-82461342D01*
X232352975Y-82842295D02*
X232352975Y-82042295D01*
X232352975Y-82042295D02*
X232048213Y-82042295D01*
X232048213Y-82042295D02*
X231972023Y-82080390D01*
X231972023Y-82080390D02*
X231933928Y-82118485D01*
X231933928Y-82118485D02*
X231895832Y-82194676D01*
X231895832Y-82194676D02*
X231895832Y-82308961D01*
X231895832Y-82308961D02*
X231933928Y-82385152D01*
X231933928Y-82385152D02*
X231972023Y-82423247D01*
X231972023Y-82423247D02*
X232048213Y-82461342D01*
X232048213Y-82461342D02*
X232352975Y-82461342D01*
X231514880Y-82842295D02*
X231362499Y-82842295D01*
X231362499Y-82842295D02*
X231286309Y-82804200D01*
X231286309Y-82804200D02*
X231248213Y-82766104D01*
X231248213Y-82766104D02*
X231172023Y-82651819D01*
X231172023Y-82651819D02*
X231133928Y-82499438D01*
X231133928Y-82499438D02*
X231133928Y-82194676D01*
X231133928Y-82194676D02*
X231172023Y-82118485D01*
X231172023Y-82118485D02*
X231210118Y-82080390D01*
X231210118Y-82080390D02*
X231286309Y-82042295D01*
X231286309Y-82042295D02*
X231438690Y-82042295D01*
X231438690Y-82042295D02*
X231514880Y-82080390D01*
X231514880Y-82080390D02*
X231552975Y-82118485D01*
X231552975Y-82118485D02*
X231591071Y-82194676D01*
X231591071Y-82194676D02*
X231591071Y-82385152D01*
X231591071Y-82385152D02*
X231552975Y-82461342D01*
X231552975Y-82461342D02*
X231514880Y-82499438D01*
X231514880Y-82499438D02*
X231438690Y-82537533D01*
X231438690Y-82537533D02*
X231286309Y-82537533D01*
X231286309Y-82537533D02*
X231210118Y-82499438D01*
X231210118Y-82499438D02*
X231172023Y-82461342D01*
X231172023Y-82461342D02*
X231133928Y-82385152D01*
X229960832Y-87482295D02*
X230227499Y-87101342D01*
X230417975Y-87482295D02*
X230417975Y-86682295D01*
X230417975Y-86682295D02*
X230113213Y-86682295D01*
X230113213Y-86682295D02*
X230037023Y-86720390D01*
X230037023Y-86720390D02*
X229998928Y-86758485D01*
X229998928Y-86758485D02*
X229960832Y-86834676D01*
X229960832Y-86834676D02*
X229960832Y-86948961D01*
X229960832Y-86948961D02*
X229998928Y-87025152D01*
X229998928Y-87025152D02*
X230037023Y-87063247D01*
X230037023Y-87063247D02*
X230113213Y-87101342D01*
X230113213Y-87101342D02*
X230417975Y-87101342D01*
X229198928Y-87482295D02*
X229656071Y-87482295D01*
X229427499Y-87482295D02*
X229427499Y-86682295D01*
X229427499Y-86682295D02*
X229503690Y-86796580D01*
X229503690Y-86796580D02*
X229579880Y-86872771D01*
X229579880Y-86872771D02*
X229656071Y-86910866D01*
X261974285Y-105999795D02*
X262240952Y-105618842D01*
X262431428Y-105999795D02*
X262431428Y-105199795D01*
X262431428Y-105199795D02*
X262126666Y-105199795D01*
X262126666Y-105199795D02*
X262050476Y-105237890D01*
X262050476Y-105237890D02*
X262012381Y-105275985D01*
X262012381Y-105275985D02*
X261974285Y-105352176D01*
X261974285Y-105352176D02*
X261974285Y-105466461D01*
X261974285Y-105466461D02*
X262012381Y-105542652D01*
X262012381Y-105542652D02*
X262050476Y-105580747D01*
X262050476Y-105580747D02*
X262126666Y-105618842D01*
X262126666Y-105618842D02*
X262431428Y-105618842D01*
X261707619Y-105199795D02*
X261212381Y-105199795D01*
X261212381Y-105199795D02*
X261479047Y-105504557D01*
X261479047Y-105504557D02*
X261364762Y-105504557D01*
X261364762Y-105504557D02*
X261288571Y-105542652D01*
X261288571Y-105542652D02*
X261250476Y-105580747D01*
X261250476Y-105580747D02*
X261212381Y-105656938D01*
X261212381Y-105656938D02*
X261212381Y-105847414D01*
X261212381Y-105847414D02*
X261250476Y-105923604D01*
X261250476Y-105923604D02*
X261288571Y-105961700D01*
X261288571Y-105961700D02*
X261364762Y-105999795D01*
X261364762Y-105999795D02*
X261593333Y-105999795D01*
X261593333Y-105999795D02*
X261669524Y-105961700D01*
X261669524Y-105961700D02*
X261707619Y-105923604D01*
X260526666Y-105466461D02*
X260526666Y-105999795D01*
X260717142Y-105161700D02*
X260907619Y-105733128D01*
X260907619Y-105733128D02*
X260412380Y-105733128D01*
X230938485Y-83273809D02*
X230900390Y-83197619D01*
X230900390Y-83197619D02*
X230824200Y-83121428D01*
X230824200Y-83121428D02*
X230709914Y-83007142D01*
X230709914Y-83007142D02*
X230671819Y-82930952D01*
X230671819Y-82930952D02*
X230671819Y-82854761D01*
X230862295Y-82892857D02*
X230824200Y-82816666D01*
X230824200Y-82816666D02*
X230748009Y-82740476D01*
X230748009Y-82740476D02*
X230595628Y-82702380D01*
X230595628Y-82702380D02*
X230328961Y-82702380D01*
X230328961Y-82702380D02*
X230176580Y-82740476D01*
X230176580Y-82740476D02*
X230100390Y-82816666D01*
X230100390Y-82816666D02*
X230062295Y-82892857D01*
X230062295Y-82892857D02*
X230062295Y-83045238D01*
X230062295Y-83045238D02*
X230100390Y-83121428D01*
X230100390Y-83121428D02*
X230176580Y-83197619D01*
X230176580Y-83197619D02*
X230328961Y-83235714D01*
X230328961Y-83235714D02*
X230595628Y-83235714D01*
X230595628Y-83235714D02*
X230748009Y-83197619D01*
X230748009Y-83197619D02*
X230824200Y-83121428D01*
X230824200Y-83121428D02*
X230862295Y-83045238D01*
X230862295Y-83045238D02*
X230862295Y-82892857D01*
X230862295Y-83997618D02*
X230862295Y-83540475D01*
X230862295Y-83769047D02*
X230062295Y-83769047D01*
X230062295Y-83769047D02*
X230176580Y-83692856D01*
X230176580Y-83692856D02*
X230252771Y-83616666D01*
X230252771Y-83616666D02*
X230290866Y-83540475D01*
X261285714Y-70062295D02*
X261485714Y-69681342D01*
X261628571Y-70062295D02*
X261628571Y-69262295D01*
X261628571Y-69262295D02*
X261400000Y-69262295D01*
X261400000Y-69262295D02*
X261342857Y-69300390D01*
X261342857Y-69300390D02*
X261314286Y-69338485D01*
X261314286Y-69338485D02*
X261285714Y-69414676D01*
X261285714Y-69414676D02*
X261285714Y-69528961D01*
X261285714Y-69528961D02*
X261314286Y-69605152D01*
X261314286Y-69605152D02*
X261342857Y-69643247D01*
X261342857Y-69643247D02*
X261400000Y-69681342D01*
X261400000Y-69681342D02*
X261628571Y-69681342D01*
X260714286Y-70062295D02*
X261057143Y-70062295D01*
X260885714Y-70062295D02*
X260885714Y-69262295D01*
X260885714Y-69262295D02*
X260942857Y-69376580D01*
X260942857Y-69376580D02*
X261000000Y-69452771D01*
X261000000Y-69452771D02*
X261057143Y-69490866D01*
X260514285Y-69262295D02*
X260114285Y-69262295D01*
X260114285Y-69262295D02*
X260371428Y-70062295D01*
X254874819Y-106635714D02*
X254874819Y-106064286D01*
X254874819Y-106350000D02*
X253874819Y-106350000D01*
X253874819Y-106350000D02*
X254017676Y-106254762D01*
X254017676Y-106254762D02*
X254112914Y-106159524D01*
X254112914Y-106159524D02*
X254160533Y-106064286D01*
X255529819Y-101341667D02*
X255529819Y-101960714D01*
X255529819Y-101960714D02*
X255910771Y-101627381D01*
X255910771Y-101627381D02*
X255910771Y-101770238D01*
X255910771Y-101770238D02*
X255958390Y-101865476D01*
X255958390Y-101865476D02*
X256006009Y-101913095D01*
X256006009Y-101913095D02*
X256101247Y-101960714D01*
X256101247Y-101960714D02*
X256339342Y-101960714D01*
X256339342Y-101960714D02*
X256434580Y-101913095D01*
X256434580Y-101913095D02*
X256482200Y-101865476D01*
X256482200Y-101865476D02*
X256529819Y-101770238D01*
X256529819Y-101770238D02*
X256529819Y-101484524D01*
X256529819Y-101484524D02*
X256482200Y-101389286D01*
X256482200Y-101389286D02*
X256434580Y-101341667D01*
X263536104Y-70675714D02*
X263574200Y-70637618D01*
X263574200Y-70637618D02*
X263612295Y-70523333D01*
X263612295Y-70523333D02*
X263612295Y-70447142D01*
X263612295Y-70447142D02*
X263574200Y-70332856D01*
X263574200Y-70332856D02*
X263498009Y-70256666D01*
X263498009Y-70256666D02*
X263421819Y-70218571D01*
X263421819Y-70218571D02*
X263269438Y-70180475D01*
X263269438Y-70180475D02*
X263155152Y-70180475D01*
X263155152Y-70180475D02*
X263002771Y-70218571D01*
X263002771Y-70218571D02*
X262926580Y-70256666D01*
X262926580Y-70256666D02*
X262850390Y-70332856D01*
X262850390Y-70332856D02*
X262812295Y-70447142D01*
X262812295Y-70447142D02*
X262812295Y-70523333D01*
X262812295Y-70523333D02*
X262850390Y-70637618D01*
X262850390Y-70637618D02*
X262888485Y-70675714D01*
X262888485Y-70980475D02*
X262850390Y-71018571D01*
X262850390Y-71018571D02*
X262812295Y-71094761D01*
X262812295Y-71094761D02*
X262812295Y-71285237D01*
X262812295Y-71285237D02*
X262850390Y-71361428D01*
X262850390Y-71361428D02*
X262888485Y-71399523D01*
X262888485Y-71399523D02*
X262964676Y-71437618D01*
X262964676Y-71437618D02*
X263040866Y-71437618D01*
X263040866Y-71437618D02*
X263155152Y-71399523D01*
X263155152Y-71399523D02*
X263612295Y-70942380D01*
X263612295Y-70942380D02*
X263612295Y-71437618D01*
X262812295Y-71932857D02*
X262812295Y-72009047D01*
X262812295Y-72009047D02*
X262850390Y-72085238D01*
X262850390Y-72085238D02*
X262888485Y-72123333D01*
X262888485Y-72123333D02*
X262964676Y-72161428D01*
X262964676Y-72161428D02*
X263117057Y-72199523D01*
X263117057Y-72199523D02*
X263307533Y-72199523D01*
X263307533Y-72199523D02*
X263459914Y-72161428D01*
X263459914Y-72161428D02*
X263536104Y-72123333D01*
X263536104Y-72123333D02*
X263574200Y-72085238D01*
X263574200Y-72085238D02*
X263612295Y-72009047D01*
X263612295Y-72009047D02*
X263612295Y-71932857D01*
X263612295Y-71932857D02*
X263574200Y-71856666D01*
X263574200Y-71856666D02*
X263536104Y-71818571D01*
X263536104Y-71818571D02*
X263459914Y-71780476D01*
X263459914Y-71780476D02*
X263307533Y-71742380D01*
X263307533Y-71742380D02*
X263117057Y-71742380D01*
X263117057Y-71742380D02*
X262964676Y-71780476D01*
X262964676Y-71780476D02*
X262888485Y-71818571D01*
X262888485Y-71818571D02*
X262850390Y-71856666D01*
X262850390Y-71856666D02*
X262812295Y-71932857D01*
D12*
X265211461Y-73868333D02*
X265211461Y-74473095D01*
X265574318Y-73747381D02*
X264304318Y-74170714D01*
X264304318Y-74170714D02*
X265574318Y-74594048D01*
X264909080Y-75017380D02*
X264909080Y-75440714D01*
X265574318Y-75622142D02*
X265574318Y-75017380D01*
X265574318Y-75017380D02*
X264304318Y-75017380D01*
X264304318Y-75017380D02*
X264304318Y-75622142D01*
X264425270Y-76105952D02*
X264364794Y-76166428D01*
X264364794Y-76166428D02*
X264304318Y-76287381D01*
X264304318Y-76287381D02*
X264304318Y-76589762D01*
X264304318Y-76589762D02*
X264364794Y-76710714D01*
X264364794Y-76710714D02*
X264425270Y-76771190D01*
X264425270Y-76771190D02*
X264546222Y-76831667D01*
X264546222Y-76831667D02*
X264667175Y-76831667D01*
X264667175Y-76831667D02*
X264848603Y-76771190D01*
X264848603Y-76771190D02*
X265574318Y-76045476D01*
X265574318Y-76045476D02*
X265574318Y-76831667D01*
D10*
X252934285Y-100966104D02*
X252972381Y-101004200D01*
X252972381Y-101004200D02*
X253086666Y-101042295D01*
X253086666Y-101042295D02*
X253162857Y-101042295D01*
X253162857Y-101042295D02*
X253277143Y-101004200D01*
X253277143Y-101004200D02*
X253353333Y-100928009D01*
X253353333Y-100928009D02*
X253391428Y-100851819D01*
X253391428Y-100851819D02*
X253429524Y-100699438D01*
X253429524Y-100699438D02*
X253429524Y-100585152D01*
X253429524Y-100585152D02*
X253391428Y-100432771D01*
X253391428Y-100432771D02*
X253353333Y-100356580D01*
X253353333Y-100356580D02*
X253277143Y-100280390D01*
X253277143Y-100280390D02*
X253162857Y-100242295D01*
X253162857Y-100242295D02*
X253086666Y-100242295D01*
X253086666Y-100242295D02*
X252972381Y-100280390D01*
X252972381Y-100280390D02*
X252934285Y-100318485D01*
X252667619Y-100242295D02*
X252172381Y-100242295D01*
X252172381Y-100242295D02*
X252439047Y-100547057D01*
X252439047Y-100547057D02*
X252324762Y-100547057D01*
X252324762Y-100547057D02*
X252248571Y-100585152D01*
X252248571Y-100585152D02*
X252210476Y-100623247D01*
X252210476Y-100623247D02*
X252172381Y-100699438D01*
X252172381Y-100699438D02*
X252172381Y-100889914D01*
X252172381Y-100889914D02*
X252210476Y-100966104D01*
X252210476Y-100966104D02*
X252248571Y-101004200D01*
X252248571Y-101004200D02*
X252324762Y-101042295D01*
X252324762Y-101042295D02*
X252553333Y-101042295D01*
X252553333Y-101042295D02*
X252629524Y-101004200D01*
X252629524Y-101004200D02*
X252667619Y-100966104D01*
X251410476Y-101042295D02*
X251867619Y-101042295D01*
X251639047Y-101042295D02*
X251639047Y-100242295D01*
X251639047Y-100242295D02*
X251715238Y-100356580D01*
X251715238Y-100356580D02*
X251791428Y-100432771D01*
X251791428Y-100432771D02*
X251867619Y-100470866D01*
X255937295Y-67182142D02*
X255556342Y-66965475D01*
X255937295Y-66810713D02*
X255137295Y-66810713D01*
X255137295Y-66810713D02*
X255137295Y-67058332D01*
X255137295Y-67058332D02*
X255175390Y-67120237D01*
X255175390Y-67120237D02*
X255213485Y-67151190D01*
X255213485Y-67151190D02*
X255289676Y-67182142D01*
X255289676Y-67182142D02*
X255403961Y-67182142D01*
X255403961Y-67182142D02*
X255480152Y-67151190D01*
X255480152Y-67151190D02*
X255518247Y-67120237D01*
X255518247Y-67120237D02*
X255556342Y-67058332D01*
X255556342Y-67058332D02*
X255556342Y-66810713D01*
X255937295Y-67801190D02*
X255937295Y-67429761D01*
X255937295Y-67615475D02*
X255137295Y-67615475D01*
X255137295Y-67615475D02*
X255251580Y-67553571D01*
X255251580Y-67553571D02*
X255327771Y-67491666D01*
X255327771Y-67491666D02*
X255365866Y-67429761D01*
X255480152Y-68172619D02*
X255442057Y-68110714D01*
X255442057Y-68110714D02*
X255403961Y-68079761D01*
X255403961Y-68079761D02*
X255327771Y-68048809D01*
X255327771Y-68048809D02*
X255289676Y-68048809D01*
X255289676Y-68048809D02*
X255213485Y-68079761D01*
X255213485Y-68079761D02*
X255175390Y-68110714D01*
X255175390Y-68110714D02*
X255137295Y-68172619D01*
X255137295Y-68172619D02*
X255137295Y-68296428D01*
X255137295Y-68296428D02*
X255175390Y-68358333D01*
X255175390Y-68358333D02*
X255213485Y-68389285D01*
X255213485Y-68389285D02*
X255289676Y-68420238D01*
X255289676Y-68420238D02*
X255327771Y-68420238D01*
X255327771Y-68420238D02*
X255403961Y-68389285D01*
X255403961Y-68389285D02*
X255442057Y-68358333D01*
X255442057Y-68358333D02*
X255480152Y-68296428D01*
X255480152Y-68296428D02*
X255480152Y-68172619D01*
X255480152Y-68172619D02*
X255518247Y-68110714D01*
X255518247Y-68110714D02*
X255556342Y-68079761D01*
X255556342Y-68079761D02*
X255632533Y-68048809D01*
X255632533Y-68048809D02*
X255784914Y-68048809D01*
X255784914Y-68048809D02*
X255861104Y-68079761D01*
X255861104Y-68079761D02*
X255899200Y-68110714D01*
X255899200Y-68110714D02*
X255937295Y-68172619D01*
X255937295Y-68172619D02*
X255937295Y-68296428D01*
X255937295Y-68296428D02*
X255899200Y-68358333D01*
X255899200Y-68358333D02*
X255861104Y-68389285D01*
X255861104Y-68389285D02*
X255784914Y-68420238D01*
X255784914Y-68420238D02*
X255632533Y-68420238D01*
X255632533Y-68420238D02*
X255556342Y-68389285D01*
X255556342Y-68389285D02*
X255518247Y-68358333D01*
X255518247Y-68358333D02*
X255480152Y-68296428D01*
X224609795Y-84789524D02*
X223809795Y-84789524D01*
X223809795Y-84789524D02*
X223809795Y-84980000D01*
X223809795Y-84980000D02*
X223847890Y-85094286D01*
X223847890Y-85094286D02*
X223924080Y-85170476D01*
X223924080Y-85170476D02*
X224000271Y-85208571D01*
X224000271Y-85208571D02*
X224152652Y-85246667D01*
X224152652Y-85246667D02*
X224266938Y-85246667D01*
X224266938Y-85246667D02*
X224419319Y-85208571D01*
X224419319Y-85208571D02*
X224495509Y-85170476D01*
X224495509Y-85170476D02*
X224571700Y-85094286D01*
X224571700Y-85094286D02*
X224609795Y-84980000D01*
X224609795Y-84980000D02*
X224609795Y-84789524D01*
X224609795Y-86008571D02*
X224609795Y-85551428D01*
X224609795Y-85780000D02*
X223809795Y-85780000D01*
X223809795Y-85780000D02*
X223924080Y-85703809D01*
X223924080Y-85703809D02*
X224000271Y-85627619D01*
X224000271Y-85627619D02*
X224038366Y-85551428D01*
X260644285Y-90762295D02*
X260910952Y-90381342D01*
X261101428Y-90762295D02*
X261101428Y-89962295D01*
X261101428Y-89962295D02*
X260796666Y-89962295D01*
X260796666Y-89962295D02*
X260720476Y-90000390D01*
X260720476Y-90000390D02*
X260682381Y-90038485D01*
X260682381Y-90038485D02*
X260644285Y-90114676D01*
X260644285Y-90114676D02*
X260644285Y-90228961D01*
X260644285Y-90228961D02*
X260682381Y-90305152D01*
X260682381Y-90305152D02*
X260720476Y-90343247D01*
X260720476Y-90343247D02*
X260796666Y-90381342D01*
X260796666Y-90381342D02*
X261101428Y-90381342D01*
X259882381Y-90762295D02*
X260339524Y-90762295D01*
X260110952Y-90762295D02*
X260110952Y-89962295D01*
X260110952Y-89962295D02*
X260187143Y-90076580D01*
X260187143Y-90076580D02*
X260263333Y-90152771D01*
X260263333Y-90152771D02*
X260339524Y-90190866D01*
X259158571Y-89962295D02*
X259539523Y-89962295D01*
X259539523Y-89962295D02*
X259577619Y-90343247D01*
X259577619Y-90343247D02*
X259539523Y-90305152D01*
X259539523Y-90305152D02*
X259463333Y-90267057D01*
X259463333Y-90267057D02*
X259272857Y-90267057D01*
X259272857Y-90267057D02*
X259196666Y-90305152D01*
X259196666Y-90305152D02*
X259158571Y-90343247D01*
X259158571Y-90343247D02*
X259120476Y-90419438D01*
X259120476Y-90419438D02*
X259120476Y-90609914D01*
X259120476Y-90609914D02*
X259158571Y-90686104D01*
X259158571Y-90686104D02*
X259196666Y-90724200D01*
X259196666Y-90724200D02*
X259272857Y-90762295D01*
X259272857Y-90762295D02*
X259463333Y-90762295D01*
X259463333Y-90762295D02*
X259539523Y-90724200D01*
X259539523Y-90724200D02*
X259577619Y-90686104D01*
X236152295Y-90255714D02*
X235771342Y-89989047D01*
X236152295Y-89798571D02*
X235352295Y-89798571D01*
X235352295Y-89798571D02*
X235352295Y-90103333D01*
X235352295Y-90103333D02*
X235390390Y-90179523D01*
X235390390Y-90179523D02*
X235428485Y-90217618D01*
X235428485Y-90217618D02*
X235504676Y-90255714D01*
X235504676Y-90255714D02*
X235618961Y-90255714D01*
X235618961Y-90255714D02*
X235695152Y-90217618D01*
X235695152Y-90217618D02*
X235733247Y-90179523D01*
X235733247Y-90179523D02*
X235771342Y-90103333D01*
X235771342Y-90103333D02*
X235771342Y-89798571D01*
X235618961Y-90941428D02*
X236152295Y-90941428D01*
X235314200Y-90750952D02*
X235885628Y-90560475D01*
X235885628Y-90560475D02*
X235885628Y-91055714D01*
X236152295Y-91779523D02*
X236152295Y-91322380D01*
X236152295Y-91550952D02*
X235352295Y-91550952D01*
X235352295Y-91550952D02*
X235466580Y-91474761D01*
X235466580Y-91474761D02*
X235542771Y-91398571D01*
X235542771Y-91398571D02*
X235580866Y-91322380D01*
X251926104Y-67025714D02*
X251964200Y-66987618D01*
X251964200Y-66987618D02*
X252002295Y-66873333D01*
X252002295Y-66873333D02*
X252002295Y-66797142D01*
X252002295Y-66797142D02*
X251964200Y-66682856D01*
X251964200Y-66682856D02*
X251888009Y-66606666D01*
X251888009Y-66606666D02*
X251811819Y-66568571D01*
X251811819Y-66568571D02*
X251659438Y-66530475D01*
X251659438Y-66530475D02*
X251545152Y-66530475D01*
X251545152Y-66530475D02*
X251392771Y-66568571D01*
X251392771Y-66568571D02*
X251316580Y-66606666D01*
X251316580Y-66606666D02*
X251240390Y-66682856D01*
X251240390Y-66682856D02*
X251202295Y-66797142D01*
X251202295Y-66797142D02*
X251202295Y-66873333D01*
X251202295Y-66873333D02*
X251240390Y-66987618D01*
X251240390Y-66987618D02*
X251278485Y-67025714D01*
X251278485Y-67330475D02*
X251240390Y-67368571D01*
X251240390Y-67368571D02*
X251202295Y-67444761D01*
X251202295Y-67444761D02*
X251202295Y-67635237D01*
X251202295Y-67635237D02*
X251240390Y-67711428D01*
X251240390Y-67711428D02*
X251278485Y-67749523D01*
X251278485Y-67749523D02*
X251354676Y-67787618D01*
X251354676Y-67787618D02*
X251430866Y-67787618D01*
X251430866Y-67787618D02*
X251545152Y-67749523D01*
X251545152Y-67749523D02*
X252002295Y-67292380D01*
X252002295Y-67292380D02*
X252002295Y-67787618D01*
X252002295Y-68549523D02*
X252002295Y-68092380D01*
X252002295Y-68320952D02*
X251202295Y-68320952D01*
X251202295Y-68320952D02*
X251316580Y-68244761D01*
X251316580Y-68244761D02*
X251392771Y-68168571D01*
X251392771Y-68168571D02*
X251430866Y-68092380D01*
X256064285Y-93932295D02*
X256330952Y-93551342D01*
X256521428Y-93932295D02*
X256521428Y-93132295D01*
X256521428Y-93132295D02*
X256216666Y-93132295D01*
X256216666Y-93132295D02*
X256140476Y-93170390D01*
X256140476Y-93170390D02*
X256102381Y-93208485D01*
X256102381Y-93208485D02*
X256064285Y-93284676D01*
X256064285Y-93284676D02*
X256064285Y-93398961D01*
X256064285Y-93398961D02*
X256102381Y-93475152D01*
X256102381Y-93475152D02*
X256140476Y-93513247D01*
X256140476Y-93513247D02*
X256216666Y-93551342D01*
X256216666Y-93551342D02*
X256521428Y-93551342D01*
X255378571Y-93398961D02*
X255378571Y-93932295D01*
X255569047Y-93094200D02*
X255759524Y-93665628D01*
X255759524Y-93665628D02*
X255264285Y-93665628D01*
X254921428Y-93932295D02*
X254769047Y-93932295D01*
X254769047Y-93932295D02*
X254692857Y-93894200D01*
X254692857Y-93894200D02*
X254654761Y-93856104D01*
X254654761Y-93856104D02*
X254578571Y-93741819D01*
X254578571Y-93741819D02*
X254540476Y-93589438D01*
X254540476Y-93589438D02*
X254540476Y-93284676D01*
X254540476Y-93284676D02*
X254578571Y-93208485D01*
X254578571Y-93208485D02*
X254616666Y-93170390D01*
X254616666Y-93170390D02*
X254692857Y-93132295D01*
X254692857Y-93132295D02*
X254845238Y-93132295D01*
X254845238Y-93132295D02*
X254921428Y-93170390D01*
X254921428Y-93170390D02*
X254959523Y-93208485D01*
X254959523Y-93208485D02*
X254997619Y-93284676D01*
X254997619Y-93284676D02*
X254997619Y-93475152D01*
X254997619Y-93475152D02*
X254959523Y-93551342D01*
X254959523Y-93551342D02*
X254921428Y-93589438D01*
X254921428Y-93589438D02*
X254845238Y-93627533D01*
X254845238Y-93627533D02*
X254692857Y-93627533D01*
X254692857Y-93627533D02*
X254616666Y-93589438D01*
X254616666Y-93589438D02*
X254578571Y-93551342D01*
X254578571Y-93551342D02*
X254540476Y-93475152D01*
X257662295Y-104266667D02*
X257281342Y-104000000D01*
X257662295Y-103809524D02*
X256862295Y-103809524D01*
X256862295Y-103809524D02*
X256862295Y-104114286D01*
X256862295Y-104114286D02*
X256900390Y-104190476D01*
X256900390Y-104190476D02*
X256938485Y-104228571D01*
X256938485Y-104228571D02*
X257014676Y-104266667D01*
X257014676Y-104266667D02*
X257128961Y-104266667D01*
X257128961Y-104266667D02*
X257205152Y-104228571D01*
X257205152Y-104228571D02*
X257243247Y-104190476D01*
X257243247Y-104190476D02*
X257281342Y-104114286D01*
X257281342Y-104114286D02*
X257281342Y-103809524D01*
X257128961Y-104952381D02*
X257662295Y-104952381D01*
X256824200Y-104761905D02*
X257395628Y-104571428D01*
X257395628Y-104571428D02*
X257395628Y-105066667D01*
X251912295Y-94425714D02*
X251531342Y-94159047D01*
X251912295Y-93968571D02*
X251112295Y-93968571D01*
X251112295Y-93968571D02*
X251112295Y-94273333D01*
X251112295Y-94273333D02*
X251150390Y-94349523D01*
X251150390Y-94349523D02*
X251188485Y-94387618D01*
X251188485Y-94387618D02*
X251264676Y-94425714D01*
X251264676Y-94425714D02*
X251378961Y-94425714D01*
X251378961Y-94425714D02*
X251455152Y-94387618D01*
X251455152Y-94387618D02*
X251493247Y-94349523D01*
X251493247Y-94349523D02*
X251531342Y-94273333D01*
X251531342Y-94273333D02*
X251531342Y-93968571D01*
X251112295Y-95149523D02*
X251112295Y-94768571D01*
X251112295Y-94768571D02*
X251493247Y-94730475D01*
X251493247Y-94730475D02*
X251455152Y-94768571D01*
X251455152Y-94768571D02*
X251417057Y-94844761D01*
X251417057Y-94844761D02*
X251417057Y-95035237D01*
X251417057Y-95035237D02*
X251455152Y-95111428D01*
X251455152Y-95111428D02*
X251493247Y-95149523D01*
X251493247Y-95149523D02*
X251569438Y-95187618D01*
X251569438Y-95187618D02*
X251759914Y-95187618D01*
X251759914Y-95187618D02*
X251836104Y-95149523D01*
X251836104Y-95149523D02*
X251874200Y-95111428D01*
X251874200Y-95111428D02*
X251912295Y-95035237D01*
X251912295Y-95035237D02*
X251912295Y-94844761D01*
X251912295Y-94844761D02*
X251874200Y-94768571D01*
X251874200Y-94768571D02*
X251836104Y-94730475D01*
X251112295Y-95682857D02*
X251112295Y-95759047D01*
X251112295Y-95759047D02*
X251150390Y-95835238D01*
X251150390Y-95835238D02*
X251188485Y-95873333D01*
X251188485Y-95873333D02*
X251264676Y-95911428D01*
X251264676Y-95911428D02*
X251417057Y-95949523D01*
X251417057Y-95949523D02*
X251607533Y-95949523D01*
X251607533Y-95949523D02*
X251759914Y-95911428D01*
X251759914Y-95911428D02*
X251836104Y-95873333D01*
X251836104Y-95873333D02*
X251874200Y-95835238D01*
X251874200Y-95835238D02*
X251912295Y-95759047D01*
X251912295Y-95759047D02*
X251912295Y-95682857D01*
X251912295Y-95682857D02*
X251874200Y-95606666D01*
X251874200Y-95606666D02*
X251836104Y-95568571D01*
X251836104Y-95568571D02*
X251759914Y-95530476D01*
X251759914Y-95530476D02*
X251607533Y-95492380D01*
X251607533Y-95492380D02*
X251417057Y-95492380D01*
X251417057Y-95492380D02*
X251264676Y-95530476D01*
X251264676Y-95530476D02*
X251188485Y-95568571D01*
X251188485Y-95568571D02*
X251150390Y-95606666D01*
X251150390Y-95606666D02*
X251112295Y-95682857D01*
X249562295Y-102183333D02*
X250133723Y-102183333D01*
X250133723Y-102183333D02*
X250248009Y-102145238D01*
X250248009Y-102145238D02*
X250324200Y-102069047D01*
X250324200Y-102069047D02*
X250362295Y-101954762D01*
X250362295Y-101954762D02*
X250362295Y-101878571D01*
X250362295Y-102564286D02*
X249562295Y-102564286D01*
X249562295Y-102564286D02*
X249562295Y-102869048D01*
X249562295Y-102869048D02*
X249600390Y-102945238D01*
X249600390Y-102945238D02*
X249638485Y-102983333D01*
X249638485Y-102983333D02*
X249714676Y-103021429D01*
X249714676Y-103021429D02*
X249828961Y-103021429D01*
X249828961Y-103021429D02*
X249905152Y-102983333D01*
X249905152Y-102983333D02*
X249943247Y-102945238D01*
X249943247Y-102945238D02*
X249981342Y-102869048D01*
X249981342Y-102869048D02*
X249981342Y-102564286D01*
X249638485Y-103326190D02*
X249600390Y-103364286D01*
X249600390Y-103364286D02*
X249562295Y-103440476D01*
X249562295Y-103440476D02*
X249562295Y-103630952D01*
X249562295Y-103630952D02*
X249600390Y-103707143D01*
X249600390Y-103707143D02*
X249638485Y-103745238D01*
X249638485Y-103745238D02*
X249714676Y-103783333D01*
X249714676Y-103783333D02*
X249790866Y-103783333D01*
X249790866Y-103783333D02*
X249905152Y-103745238D01*
X249905152Y-103745238D02*
X250362295Y-103288095D01*
X250362295Y-103288095D02*
X250362295Y-103783333D01*
X249954819Y-101091667D02*
X249954819Y-101710714D01*
X249954819Y-101710714D02*
X250335771Y-101377381D01*
X250335771Y-101377381D02*
X250335771Y-101520238D01*
X250335771Y-101520238D02*
X250383390Y-101615476D01*
X250383390Y-101615476D02*
X250431009Y-101663095D01*
X250431009Y-101663095D02*
X250526247Y-101710714D01*
X250526247Y-101710714D02*
X250764342Y-101710714D01*
X250764342Y-101710714D02*
X250859580Y-101663095D01*
X250859580Y-101663095D02*
X250907200Y-101615476D01*
X250907200Y-101615476D02*
X250954819Y-101520238D01*
X250954819Y-101520238D02*
X250954819Y-101234524D01*
X250954819Y-101234524D02*
X250907200Y-101139286D01*
X250907200Y-101139286D02*
X250859580Y-101091667D01*
X252224819Y-106635714D02*
X252224819Y-106064286D01*
X252224819Y-106350000D02*
X251224819Y-106350000D01*
X251224819Y-106350000D02*
X251367676Y-106254762D01*
X251367676Y-106254762D02*
X251462914Y-106159524D01*
X251462914Y-106159524D02*
X251510533Y-106064286D01*
X232264285Y-79462295D02*
X232530952Y-79081342D01*
X232721428Y-79462295D02*
X232721428Y-78662295D01*
X232721428Y-78662295D02*
X232416666Y-78662295D01*
X232416666Y-78662295D02*
X232340476Y-78700390D01*
X232340476Y-78700390D02*
X232302381Y-78738485D01*
X232302381Y-78738485D02*
X232264285Y-78814676D01*
X232264285Y-78814676D02*
X232264285Y-78928961D01*
X232264285Y-78928961D02*
X232302381Y-79005152D01*
X232302381Y-79005152D02*
X232340476Y-79043247D01*
X232340476Y-79043247D02*
X232416666Y-79081342D01*
X232416666Y-79081342D02*
X232721428Y-79081342D01*
X231502381Y-79462295D02*
X231959524Y-79462295D01*
X231730952Y-79462295D02*
X231730952Y-78662295D01*
X231730952Y-78662295D02*
X231807143Y-78776580D01*
X231807143Y-78776580D02*
X231883333Y-78852771D01*
X231883333Y-78852771D02*
X231959524Y-78890866D01*
X231007142Y-78662295D02*
X230930952Y-78662295D01*
X230930952Y-78662295D02*
X230854761Y-78700390D01*
X230854761Y-78700390D02*
X230816666Y-78738485D01*
X230816666Y-78738485D02*
X230778571Y-78814676D01*
X230778571Y-78814676D02*
X230740476Y-78967057D01*
X230740476Y-78967057D02*
X230740476Y-79157533D01*
X230740476Y-79157533D02*
X230778571Y-79309914D01*
X230778571Y-79309914D02*
X230816666Y-79386104D01*
X230816666Y-79386104D02*
X230854761Y-79424200D01*
X230854761Y-79424200D02*
X230930952Y-79462295D01*
X230930952Y-79462295D02*
X231007142Y-79462295D01*
X231007142Y-79462295D02*
X231083333Y-79424200D01*
X231083333Y-79424200D02*
X231121428Y-79386104D01*
X231121428Y-79386104D02*
X231159523Y-79309914D01*
X231159523Y-79309914D02*
X231197619Y-79157533D01*
X231197619Y-79157533D02*
X231197619Y-78967057D01*
X231197619Y-78967057D02*
X231159523Y-78814676D01*
X231159523Y-78814676D02*
X231121428Y-78738485D01*
X231121428Y-78738485D02*
X231083333Y-78700390D01*
X231083333Y-78700390D02*
X231007142Y-78662295D01*
X252914285Y-99886104D02*
X252952381Y-99924200D01*
X252952381Y-99924200D02*
X253066666Y-99962295D01*
X253066666Y-99962295D02*
X253142857Y-99962295D01*
X253142857Y-99962295D02*
X253257143Y-99924200D01*
X253257143Y-99924200D02*
X253333333Y-99848009D01*
X253333333Y-99848009D02*
X253371428Y-99771819D01*
X253371428Y-99771819D02*
X253409524Y-99619438D01*
X253409524Y-99619438D02*
X253409524Y-99505152D01*
X253409524Y-99505152D02*
X253371428Y-99352771D01*
X253371428Y-99352771D02*
X253333333Y-99276580D01*
X253333333Y-99276580D02*
X253257143Y-99200390D01*
X253257143Y-99200390D02*
X253142857Y-99162295D01*
X253142857Y-99162295D02*
X253066666Y-99162295D01*
X253066666Y-99162295D02*
X252952381Y-99200390D01*
X252952381Y-99200390D02*
X252914285Y-99238485D01*
X252647619Y-99162295D02*
X252152381Y-99162295D01*
X252152381Y-99162295D02*
X252419047Y-99467057D01*
X252419047Y-99467057D02*
X252304762Y-99467057D01*
X252304762Y-99467057D02*
X252228571Y-99505152D01*
X252228571Y-99505152D02*
X252190476Y-99543247D01*
X252190476Y-99543247D02*
X252152381Y-99619438D01*
X252152381Y-99619438D02*
X252152381Y-99809914D01*
X252152381Y-99809914D02*
X252190476Y-99886104D01*
X252190476Y-99886104D02*
X252228571Y-99924200D01*
X252228571Y-99924200D02*
X252304762Y-99962295D01*
X252304762Y-99962295D02*
X252533333Y-99962295D01*
X252533333Y-99962295D02*
X252609524Y-99924200D01*
X252609524Y-99924200D02*
X252647619Y-99886104D01*
X251657142Y-99162295D02*
X251580952Y-99162295D01*
X251580952Y-99162295D02*
X251504761Y-99200390D01*
X251504761Y-99200390D02*
X251466666Y-99238485D01*
X251466666Y-99238485D02*
X251428571Y-99314676D01*
X251428571Y-99314676D02*
X251390476Y-99467057D01*
X251390476Y-99467057D02*
X251390476Y-99657533D01*
X251390476Y-99657533D02*
X251428571Y-99809914D01*
X251428571Y-99809914D02*
X251466666Y-99886104D01*
X251466666Y-99886104D02*
X251504761Y-99924200D01*
X251504761Y-99924200D02*
X251580952Y-99962295D01*
X251580952Y-99962295D02*
X251657142Y-99962295D01*
X251657142Y-99962295D02*
X251733333Y-99924200D01*
X251733333Y-99924200D02*
X251771428Y-99886104D01*
X251771428Y-99886104D02*
X251809523Y-99809914D01*
X251809523Y-99809914D02*
X251847619Y-99657533D01*
X251847619Y-99657533D02*
X251847619Y-99467057D01*
X251847619Y-99467057D02*
X251809523Y-99314676D01*
X251809523Y-99314676D02*
X251771428Y-99238485D01*
X251771428Y-99238485D02*
X251733333Y-99200390D01*
X251733333Y-99200390D02*
X251657142Y-99162295D01*
X265274285Y-101062295D02*
X265540952Y-100681342D01*
X265731428Y-101062295D02*
X265731428Y-100262295D01*
X265731428Y-100262295D02*
X265426666Y-100262295D01*
X265426666Y-100262295D02*
X265350476Y-100300390D01*
X265350476Y-100300390D02*
X265312381Y-100338485D01*
X265312381Y-100338485D02*
X265274285Y-100414676D01*
X265274285Y-100414676D02*
X265274285Y-100528961D01*
X265274285Y-100528961D02*
X265312381Y-100605152D01*
X265312381Y-100605152D02*
X265350476Y-100643247D01*
X265350476Y-100643247D02*
X265426666Y-100681342D01*
X265426666Y-100681342D02*
X265731428Y-100681342D01*
X265007619Y-100262295D02*
X264512381Y-100262295D01*
X264512381Y-100262295D02*
X264779047Y-100567057D01*
X264779047Y-100567057D02*
X264664762Y-100567057D01*
X264664762Y-100567057D02*
X264588571Y-100605152D01*
X264588571Y-100605152D02*
X264550476Y-100643247D01*
X264550476Y-100643247D02*
X264512381Y-100719438D01*
X264512381Y-100719438D02*
X264512381Y-100909914D01*
X264512381Y-100909914D02*
X264550476Y-100986104D01*
X264550476Y-100986104D02*
X264588571Y-101024200D01*
X264588571Y-101024200D02*
X264664762Y-101062295D01*
X264664762Y-101062295D02*
X264893333Y-101062295D01*
X264893333Y-101062295D02*
X264969524Y-101024200D01*
X264969524Y-101024200D02*
X265007619Y-100986104D01*
X263788571Y-100262295D02*
X264169523Y-100262295D01*
X264169523Y-100262295D02*
X264207619Y-100643247D01*
X264207619Y-100643247D02*
X264169523Y-100605152D01*
X264169523Y-100605152D02*
X264093333Y-100567057D01*
X264093333Y-100567057D02*
X263902857Y-100567057D01*
X263902857Y-100567057D02*
X263826666Y-100605152D01*
X263826666Y-100605152D02*
X263788571Y-100643247D01*
X263788571Y-100643247D02*
X263750476Y-100719438D01*
X263750476Y-100719438D02*
X263750476Y-100909914D01*
X263750476Y-100909914D02*
X263788571Y-100986104D01*
X263788571Y-100986104D02*
X263826666Y-101024200D01*
X263826666Y-101024200D02*
X263902857Y-101062295D01*
X263902857Y-101062295D02*
X264093333Y-101062295D01*
X264093333Y-101062295D02*
X264169523Y-101024200D01*
X264169523Y-101024200D02*
X264207619Y-100986104D01*
X233394819Y-85901905D02*
X232394819Y-85901905D01*
X232394819Y-85901905D02*
X232394819Y-86140000D01*
X232394819Y-86140000D02*
X232442438Y-86282857D01*
X232442438Y-86282857D02*
X232537676Y-86378095D01*
X232537676Y-86378095D02*
X232632914Y-86425714D01*
X232632914Y-86425714D02*
X232823390Y-86473333D01*
X232823390Y-86473333D02*
X232966247Y-86473333D01*
X232966247Y-86473333D02*
X233156723Y-86425714D01*
X233156723Y-86425714D02*
X233251961Y-86378095D01*
X233251961Y-86378095D02*
X233347200Y-86282857D01*
X233347200Y-86282857D02*
X233394819Y-86140000D01*
X233394819Y-86140000D02*
X233394819Y-85901905D01*
X232394819Y-86806667D02*
X232394819Y-87473333D01*
X232394819Y-87473333D02*
X233394819Y-87044762D01*
X252839285Y-98837295D02*
X253105952Y-98456342D01*
X253296428Y-98837295D02*
X253296428Y-98037295D01*
X253296428Y-98037295D02*
X252991666Y-98037295D01*
X252991666Y-98037295D02*
X252915476Y-98075390D01*
X252915476Y-98075390D02*
X252877381Y-98113485D01*
X252877381Y-98113485D02*
X252839285Y-98189676D01*
X252839285Y-98189676D02*
X252839285Y-98303961D01*
X252839285Y-98303961D02*
X252877381Y-98380152D01*
X252877381Y-98380152D02*
X252915476Y-98418247D01*
X252915476Y-98418247D02*
X252991666Y-98456342D01*
X252991666Y-98456342D02*
X253296428Y-98456342D01*
X252153571Y-98303961D02*
X252153571Y-98837295D01*
X252344047Y-97999200D02*
X252534524Y-98570628D01*
X252534524Y-98570628D02*
X252039285Y-98570628D01*
X251620238Y-98380152D02*
X251696428Y-98342057D01*
X251696428Y-98342057D02*
X251734523Y-98303961D01*
X251734523Y-98303961D02*
X251772619Y-98227771D01*
X251772619Y-98227771D02*
X251772619Y-98189676D01*
X251772619Y-98189676D02*
X251734523Y-98113485D01*
X251734523Y-98113485D02*
X251696428Y-98075390D01*
X251696428Y-98075390D02*
X251620238Y-98037295D01*
X251620238Y-98037295D02*
X251467857Y-98037295D01*
X251467857Y-98037295D02*
X251391666Y-98075390D01*
X251391666Y-98075390D02*
X251353571Y-98113485D01*
X251353571Y-98113485D02*
X251315476Y-98189676D01*
X251315476Y-98189676D02*
X251315476Y-98227771D01*
X251315476Y-98227771D02*
X251353571Y-98303961D01*
X251353571Y-98303961D02*
X251391666Y-98342057D01*
X251391666Y-98342057D02*
X251467857Y-98380152D01*
X251467857Y-98380152D02*
X251620238Y-98380152D01*
X251620238Y-98380152D02*
X251696428Y-98418247D01*
X251696428Y-98418247D02*
X251734523Y-98456342D01*
X251734523Y-98456342D02*
X251772619Y-98532533D01*
X251772619Y-98532533D02*
X251772619Y-98684914D01*
X251772619Y-98684914D02*
X251734523Y-98761104D01*
X251734523Y-98761104D02*
X251696428Y-98799200D01*
X251696428Y-98799200D02*
X251620238Y-98837295D01*
X251620238Y-98837295D02*
X251467857Y-98837295D01*
X251467857Y-98837295D02*
X251391666Y-98799200D01*
X251391666Y-98799200D02*
X251353571Y-98761104D01*
X251353571Y-98761104D02*
X251315476Y-98684914D01*
X251315476Y-98684914D02*
X251315476Y-98532533D01*
X251315476Y-98532533D02*
X251353571Y-98456342D01*
X251353571Y-98456342D02*
X251391666Y-98418247D01*
X251391666Y-98418247D02*
X251467857Y-98380152D01*
X251012295Y-66585714D02*
X250212295Y-66585714D01*
X250212295Y-66585714D02*
X250212295Y-66728571D01*
X250212295Y-66728571D02*
X250250390Y-66814285D01*
X250250390Y-66814285D02*
X250326580Y-66871428D01*
X250326580Y-66871428D02*
X250402771Y-66899999D01*
X250402771Y-66899999D02*
X250555152Y-66928571D01*
X250555152Y-66928571D02*
X250669438Y-66928571D01*
X250669438Y-66928571D02*
X250821819Y-66899999D01*
X250821819Y-66899999D02*
X250898009Y-66871428D01*
X250898009Y-66871428D02*
X250974200Y-66814285D01*
X250974200Y-66814285D02*
X251012295Y-66728571D01*
X251012295Y-66728571D02*
X251012295Y-66585714D01*
X250707533Y-67185714D02*
X250707533Y-67642857D01*
X251012295Y-67414285D02*
X250402771Y-67414285D01*
X251012295Y-68242856D02*
X251012295Y-67899999D01*
X251012295Y-68071428D02*
X250212295Y-68071428D01*
X250212295Y-68071428D02*
X250326580Y-68014285D01*
X250326580Y-68014285D02*
X250402771Y-67957142D01*
X250402771Y-67957142D02*
X250440866Y-67899999D01*
X262348485Y-101223809D02*
X262310390Y-101147619D01*
X262310390Y-101147619D02*
X262234200Y-101071428D01*
X262234200Y-101071428D02*
X262119914Y-100957142D01*
X262119914Y-100957142D02*
X262081819Y-100880952D01*
X262081819Y-100880952D02*
X262081819Y-100804761D01*
X262272295Y-100842857D02*
X262234200Y-100766666D01*
X262234200Y-100766666D02*
X262158009Y-100690476D01*
X262158009Y-100690476D02*
X262005628Y-100652380D01*
X262005628Y-100652380D02*
X261738961Y-100652380D01*
X261738961Y-100652380D02*
X261586580Y-100690476D01*
X261586580Y-100690476D02*
X261510390Y-100766666D01*
X261510390Y-100766666D02*
X261472295Y-100842857D01*
X261472295Y-100842857D02*
X261472295Y-100995238D01*
X261472295Y-100995238D02*
X261510390Y-101071428D01*
X261510390Y-101071428D02*
X261586580Y-101147619D01*
X261586580Y-101147619D02*
X261738961Y-101185714D01*
X261738961Y-101185714D02*
X262005628Y-101185714D01*
X262005628Y-101185714D02*
X262158009Y-101147619D01*
X262158009Y-101147619D02*
X262234200Y-101071428D01*
X262234200Y-101071428D02*
X262272295Y-100995238D01*
X262272295Y-100995238D02*
X262272295Y-100842857D01*
X261472295Y-101909523D02*
X261472295Y-101528571D01*
X261472295Y-101528571D02*
X261853247Y-101490475D01*
X261853247Y-101490475D02*
X261815152Y-101528571D01*
X261815152Y-101528571D02*
X261777057Y-101604761D01*
X261777057Y-101604761D02*
X261777057Y-101795237D01*
X261777057Y-101795237D02*
X261815152Y-101871428D01*
X261815152Y-101871428D02*
X261853247Y-101909523D01*
X261853247Y-101909523D02*
X261929438Y-101947618D01*
X261929438Y-101947618D02*
X262119914Y-101947618D01*
X262119914Y-101947618D02*
X262196104Y-101909523D01*
X262196104Y-101909523D02*
X262234200Y-101871428D01*
X262234200Y-101871428D02*
X262272295Y-101795237D01*
X262272295Y-101795237D02*
X262272295Y-101604761D01*
X262272295Y-101604761D02*
X262234200Y-101528571D01*
X262234200Y-101528571D02*
X262196104Y-101490475D01*
X261072295Y-101585714D02*
X260691342Y-101319047D01*
X261072295Y-101128571D02*
X260272295Y-101128571D01*
X260272295Y-101128571D02*
X260272295Y-101433333D01*
X260272295Y-101433333D02*
X260310390Y-101509523D01*
X260310390Y-101509523D02*
X260348485Y-101547618D01*
X260348485Y-101547618D02*
X260424676Y-101585714D01*
X260424676Y-101585714D02*
X260538961Y-101585714D01*
X260538961Y-101585714D02*
X260615152Y-101547618D01*
X260615152Y-101547618D02*
X260653247Y-101509523D01*
X260653247Y-101509523D02*
X260691342Y-101433333D01*
X260691342Y-101433333D02*
X260691342Y-101128571D01*
X260272295Y-101852380D02*
X260272295Y-102347618D01*
X260272295Y-102347618D02*
X260577057Y-102080952D01*
X260577057Y-102080952D02*
X260577057Y-102195237D01*
X260577057Y-102195237D02*
X260615152Y-102271428D01*
X260615152Y-102271428D02*
X260653247Y-102309523D01*
X260653247Y-102309523D02*
X260729438Y-102347618D01*
X260729438Y-102347618D02*
X260919914Y-102347618D01*
X260919914Y-102347618D02*
X260996104Y-102309523D01*
X260996104Y-102309523D02*
X261034200Y-102271428D01*
X261034200Y-102271428D02*
X261072295Y-102195237D01*
X261072295Y-102195237D02*
X261072295Y-101966666D01*
X261072295Y-101966666D02*
X261034200Y-101890475D01*
X261034200Y-101890475D02*
X260996104Y-101852380D01*
X260272295Y-103033333D02*
X260272295Y-102880952D01*
X260272295Y-102880952D02*
X260310390Y-102804761D01*
X260310390Y-102804761D02*
X260348485Y-102766666D01*
X260348485Y-102766666D02*
X260462771Y-102690476D01*
X260462771Y-102690476D02*
X260615152Y-102652380D01*
X260615152Y-102652380D02*
X260919914Y-102652380D01*
X260919914Y-102652380D02*
X260996104Y-102690476D01*
X260996104Y-102690476D02*
X261034200Y-102728571D01*
X261034200Y-102728571D02*
X261072295Y-102804761D01*
X261072295Y-102804761D02*
X261072295Y-102957142D01*
X261072295Y-102957142D02*
X261034200Y-103033333D01*
X261034200Y-103033333D02*
X260996104Y-103071428D01*
X260996104Y-103071428D02*
X260919914Y-103109523D01*
X260919914Y-103109523D02*
X260729438Y-103109523D01*
X260729438Y-103109523D02*
X260653247Y-103071428D01*
X260653247Y-103071428D02*
X260615152Y-103033333D01*
X260615152Y-103033333D02*
X260577057Y-102957142D01*
X260577057Y-102957142D02*
X260577057Y-102804761D01*
X260577057Y-102804761D02*
X260615152Y-102728571D01*
X260615152Y-102728571D02*
X260653247Y-102690476D01*
X260653247Y-102690476D02*
X260729438Y-102652380D01*
X262314285Y-95062295D02*
X262580952Y-94681342D01*
X262771428Y-95062295D02*
X262771428Y-94262295D01*
X262771428Y-94262295D02*
X262466666Y-94262295D01*
X262466666Y-94262295D02*
X262390476Y-94300390D01*
X262390476Y-94300390D02*
X262352381Y-94338485D01*
X262352381Y-94338485D02*
X262314285Y-94414676D01*
X262314285Y-94414676D02*
X262314285Y-94528961D01*
X262314285Y-94528961D02*
X262352381Y-94605152D01*
X262352381Y-94605152D02*
X262390476Y-94643247D01*
X262390476Y-94643247D02*
X262466666Y-94681342D01*
X262466666Y-94681342D02*
X262771428Y-94681342D01*
X262009524Y-94338485D02*
X261971428Y-94300390D01*
X261971428Y-94300390D02*
X261895238Y-94262295D01*
X261895238Y-94262295D02*
X261704762Y-94262295D01*
X261704762Y-94262295D02*
X261628571Y-94300390D01*
X261628571Y-94300390D02*
X261590476Y-94338485D01*
X261590476Y-94338485D02*
X261552381Y-94414676D01*
X261552381Y-94414676D02*
X261552381Y-94490866D01*
X261552381Y-94490866D02*
X261590476Y-94605152D01*
X261590476Y-94605152D02*
X262047619Y-95062295D01*
X262047619Y-95062295D02*
X261552381Y-95062295D01*
X261285714Y-94262295D02*
X260752380Y-94262295D01*
X260752380Y-94262295D02*
X261095238Y-95062295D01*
X248612295Y-66385714D02*
X247812295Y-66385714D01*
X247812295Y-66385714D02*
X247812295Y-66528571D01*
X247812295Y-66528571D02*
X247850390Y-66614285D01*
X247850390Y-66614285D02*
X247926580Y-66671428D01*
X247926580Y-66671428D02*
X248002771Y-66699999D01*
X248002771Y-66699999D02*
X248155152Y-66728571D01*
X248155152Y-66728571D02*
X248269438Y-66728571D01*
X248269438Y-66728571D02*
X248421819Y-66699999D01*
X248421819Y-66699999D02*
X248498009Y-66671428D01*
X248498009Y-66671428D02*
X248574200Y-66614285D01*
X248574200Y-66614285D02*
X248612295Y-66528571D01*
X248612295Y-66528571D02*
X248612295Y-66385714D01*
X248307533Y-66985714D02*
X248307533Y-67442857D01*
X248612295Y-68042856D02*
X248612295Y-67699999D01*
X248612295Y-67871428D02*
X247812295Y-67871428D01*
X247812295Y-67871428D02*
X247926580Y-67814285D01*
X247926580Y-67814285D02*
X248002771Y-67757142D01*
X248002771Y-67757142D02*
X248040866Y-67699999D01*
X253188485Y-94063809D02*
X253150390Y-93987619D01*
X253150390Y-93987619D02*
X253074200Y-93911428D01*
X253074200Y-93911428D02*
X252959914Y-93797142D01*
X252959914Y-93797142D02*
X252921819Y-93720952D01*
X252921819Y-93720952D02*
X252921819Y-93644761D01*
X253112295Y-93682857D02*
X253074200Y-93606666D01*
X253074200Y-93606666D02*
X252998009Y-93530476D01*
X252998009Y-93530476D02*
X252845628Y-93492380D01*
X252845628Y-93492380D02*
X252578961Y-93492380D01*
X252578961Y-93492380D02*
X252426580Y-93530476D01*
X252426580Y-93530476D02*
X252350390Y-93606666D01*
X252350390Y-93606666D02*
X252312295Y-93682857D01*
X252312295Y-93682857D02*
X252312295Y-93835238D01*
X252312295Y-93835238D02*
X252350390Y-93911428D01*
X252350390Y-93911428D02*
X252426580Y-93987619D01*
X252426580Y-93987619D02*
X252578961Y-94025714D01*
X252578961Y-94025714D02*
X252845628Y-94025714D01*
X252845628Y-94025714D02*
X252998009Y-93987619D01*
X252998009Y-93987619D02*
X253074200Y-93911428D01*
X253074200Y-93911428D02*
X253112295Y-93835238D01*
X253112295Y-93835238D02*
X253112295Y-93682857D01*
X252312295Y-94292380D02*
X252312295Y-94825714D01*
X252312295Y-94825714D02*
X253112295Y-94482856D01*
X238339285Y-89987295D02*
X238605952Y-89606342D01*
X238796428Y-89987295D02*
X238796428Y-89187295D01*
X238796428Y-89187295D02*
X238491666Y-89187295D01*
X238491666Y-89187295D02*
X238415476Y-89225390D01*
X238415476Y-89225390D02*
X238377381Y-89263485D01*
X238377381Y-89263485D02*
X238339285Y-89339676D01*
X238339285Y-89339676D02*
X238339285Y-89453961D01*
X238339285Y-89453961D02*
X238377381Y-89530152D01*
X238377381Y-89530152D02*
X238415476Y-89568247D01*
X238415476Y-89568247D02*
X238491666Y-89606342D01*
X238491666Y-89606342D02*
X238796428Y-89606342D01*
X237653571Y-89453961D02*
X237653571Y-89987295D01*
X237844047Y-89149200D02*
X238034524Y-89720628D01*
X238034524Y-89720628D02*
X237539285Y-89720628D01*
X237082142Y-89187295D02*
X237005952Y-89187295D01*
X237005952Y-89187295D02*
X236929761Y-89225390D01*
X236929761Y-89225390D02*
X236891666Y-89263485D01*
X236891666Y-89263485D02*
X236853571Y-89339676D01*
X236853571Y-89339676D02*
X236815476Y-89492057D01*
X236815476Y-89492057D02*
X236815476Y-89682533D01*
X236815476Y-89682533D02*
X236853571Y-89834914D01*
X236853571Y-89834914D02*
X236891666Y-89911104D01*
X236891666Y-89911104D02*
X236929761Y-89949200D01*
X236929761Y-89949200D02*
X237005952Y-89987295D01*
X237005952Y-89987295D02*
X237082142Y-89987295D01*
X237082142Y-89987295D02*
X237158333Y-89949200D01*
X237158333Y-89949200D02*
X237196428Y-89911104D01*
X237196428Y-89911104D02*
X237234523Y-89834914D01*
X237234523Y-89834914D02*
X237272619Y-89682533D01*
X237272619Y-89682533D02*
X237272619Y-89492057D01*
X237272619Y-89492057D02*
X237234523Y-89339676D01*
X237234523Y-89339676D02*
X237196428Y-89263485D01*
X237196428Y-89263485D02*
X237158333Y-89225390D01*
X237158333Y-89225390D02*
X237082142Y-89187295D01*
X237402295Y-67471666D02*
X237402295Y-67090714D01*
X237402295Y-67090714D02*
X236602295Y-67090714D01*
X236602295Y-67662142D02*
X236602295Y-68157380D01*
X236602295Y-68157380D02*
X236907057Y-67890714D01*
X236907057Y-67890714D02*
X236907057Y-68004999D01*
X236907057Y-68004999D02*
X236945152Y-68081190D01*
X236945152Y-68081190D02*
X236983247Y-68119285D01*
X236983247Y-68119285D02*
X237059438Y-68157380D01*
X237059438Y-68157380D02*
X237249914Y-68157380D01*
X237249914Y-68157380D02*
X237326104Y-68119285D01*
X237326104Y-68119285D02*
X237364200Y-68081190D01*
X237364200Y-68081190D02*
X237402295Y-68004999D01*
X237402295Y-68004999D02*
X237402295Y-67776428D01*
X237402295Y-67776428D02*
X237364200Y-67700237D01*
X237364200Y-67700237D02*
X237326104Y-67662142D01*
X260795180Y-84911904D02*
X259985657Y-84911904D01*
X259985657Y-84911904D02*
X259890419Y-84864285D01*
X259890419Y-84864285D02*
X259842800Y-84816666D01*
X259842800Y-84816666D02*
X259795180Y-84721428D01*
X259795180Y-84721428D02*
X259795180Y-84530952D01*
X259795180Y-84530952D02*
X259842800Y-84435714D01*
X259842800Y-84435714D02*
X259890419Y-84388095D01*
X259890419Y-84388095D02*
X259985657Y-84340476D01*
X259985657Y-84340476D02*
X260795180Y-84340476D01*
X260795180Y-83959523D02*
X260795180Y-83340476D01*
X260795180Y-83340476D02*
X260414228Y-83673809D01*
X260414228Y-83673809D02*
X260414228Y-83530952D01*
X260414228Y-83530952D02*
X260366609Y-83435714D01*
X260366609Y-83435714D02*
X260318990Y-83388095D01*
X260318990Y-83388095D02*
X260223752Y-83340476D01*
X260223752Y-83340476D02*
X259985657Y-83340476D01*
X259985657Y-83340476D02*
X259890419Y-83388095D01*
X259890419Y-83388095D02*
X259842800Y-83435714D01*
X259842800Y-83435714D02*
X259795180Y-83530952D01*
X259795180Y-83530952D02*
X259795180Y-83816666D01*
X259795180Y-83816666D02*
X259842800Y-83911904D01*
X259842800Y-83911904D02*
X259890419Y-83959523D01*
X247458561Y-103179451D02*
X247458561Y-103894226D01*
X247458561Y-103894226D02*
X247506213Y-104037181D01*
X247506213Y-104037181D02*
X247601516Y-104132485D01*
X247601516Y-104132485D02*
X247744471Y-104180136D01*
X247744471Y-104180136D02*
X247839775Y-104180136D01*
X246553179Y-103513013D02*
X246553179Y-104180136D01*
X246791438Y-103131800D02*
X247029696Y-103846575D01*
X247029696Y-103846575D02*
X246410224Y-103846575D01*
X226653571Y-80387295D02*
X226196428Y-80387295D01*
X226425000Y-81187295D02*
X226425000Y-80387295D01*
X225929761Y-81187295D02*
X225929761Y-80387295D01*
X225929761Y-80768247D02*
X225472618Y-80768247D01*
X225472618Y-81187295D02*
X225472618Y-80387295D01*
X224672619Y-81187295D02*
X225129762Y-81187295D01*
X224901190Y-81187295D02*
X224901190Y-80387295D01*
X224901190Y-80387295D02*
X224977381Y-80501580D01*
X224977381Y-80501580D02*
X225053571Y-80577771D01*
X225053571Y-80577771D02*
X225129762Y-80615866D01*
X258956104Y-67015714D02*
X258994200Y-66977618D01*
X258994200Y-66977618D02*
X259032295Y-66863333D01*
X259032295Y-66863333D02*
X259032295Y-66787142D01*
X259032295Y-66787142D02*
X258994200Y-66672856D01*
X258994200Y-66672856D02*
X258918009Y-66596666D01*
X258918009Y-66596666D02*
X258841819Y-66558571D01*
X258841819Y-66558571D02*
X258689438Y-66520475D01*
X258689438Y-66520475D02*
X258575152Y-66520475D01*
X258575152Y-66520475D02*
X258422771Y-66558571D01*
X258422771Y-66558571D02*
X258346580Y-66596666D01*
X258346580Y-66596666D02*
X258270390Y-66672856D01*
X258270390Y-66672856D02*
X258232295Y-66787142D01*
X258232295Y-66787142D02*
X258232295Y-66863333D01*
X258232295Y-66863333D02*
X258270390Y-66977618D01*
X258270390Y-66977618D02*
X258308485Y-67015714D01*
X258308485Y-67320475D02*
X258270390Y-67358571D01*
X258270390Y-67358571D02*
X258232295Y-67434761D01*
X258232295Y-67434761D02*
X258232295Y-67625237D01*
X258232295Y-67625237D02*
X258270390Y-67701428D01*
X258270390Y-67701428D02*
X258308485Y-67739523D01*
X258308485Y-67739523D02*
X258384676Y-67777618D01*
X258384676Y-67777618D02*
X258460866Y-67777618D01*
X258460866Y-67777618D02*
X258575152Y-67739523D01*
X258575152Y-67739523D02*
X259032295Y-67282380D01*
X259032295Y-67282380D02*
X259032295Y-67777618D01*
X258308485Y-68082380D02*
X258270390Y-68120476D01*
X258270390Y-68120476D02*
X258232295Y-68196666D01*
X258232295Y-68196666D02*
X258232295Y-68387142D01*
X258232295Y-68387142D02*
X258270390Y-68463333D01*
X258270390Y-68463333D02*
X258308485Y-68501428D01*
X258308485Y-68501428D02*
X258384676Y-68539523D01*
X258384676Y-68539523D02*
X258460866Y-68539523D01*
X258460866Y-68539523D02*
X258575152Y-68501428D01*
X258575152Y-68501428D02*
X259032295Y-68044285D01*
X259032295Y-68044285D02*
X259032295Y-68539523D01*
D13*
X230910000Y-68440000D02*
X230910000Y-71040000D01*
D11*
X234710000Y-69640000D02*
X234710000Y-69640000D01*
X234710000Y-69840000D02*
X234710000Y-69840000D01*
X234710000Y-69840000D02*
G75*
G03*
X234710000Y-69640000I0J100000D01*
G01*
X234710000Y-69640000D02*
G75*
G03*
X234710000Y-69840000I0J-100000D01*
G01*
D14*
X250320000Y-104696359D02*
X250320000Y-105003641D01*
X249560000Y-104696359D02*
X249560000Y-105003641D01*
G36*
X229828850Y-91553300D02*
G01*
X229891412Y-91565933D01*
X229921503Y-91616240D01*
X229927132Y-91730222D01*
X229916312Y-91933879D01*
X229902539Y-92070533D01*
X229845702Y-92290737D01*
X229755628Y-92410901D01*
X229637441Y-92426174D01*
X229496266Y-92331703D01*
X229454270Y-92278803D01*
X229401362Y-92106841D01*
X229422397Y-91914775D01*
X229504353Y-91736106D01*
X229634209Y-91604336D01*
X229798942Y-91552968D01*
X229828850Y-91553300D01*
G37*
G36*
X229863805Y-89473035D02*
G01*
X229906408Y-89514685D01*
X229923759Y-89617592D01*
X229927055Y-89809100D01*
X229925599Y-89895551D01*
X229898660Y-90118087D01*
X229835927Y-90244031D01*
X229717331Y-90318738D01*
X229575373Y-90321375D01*
X229467773Y-90233676D01*
X229463789Y-90226670D01*
X229409610Y-90038056D01*
X229428058Y-89835556D01*
X229505845Y-89651226D01*
X229629684Y-89517122D01*
X229786287Y-89465297D01*
X229863805Y-89473035D01*
G37*
G36*
X230268879Y-93714976D02*
G01*
X230474473Y-93879024D01*
X230591734Y-94084027D01*
X230608293Y-94304489D01*
X230516625Y-94511147D01*
X230319939Y-94687221D01*
X230253681Y-94723848D01*
X230011495Y-94782722D01*
X229775814Y-94730371D01*
X229564612Y-94569592D01*
X229517910Y-94511909D01*
X229419551Y-94292276D01*
X229426668Y-94072009D01*
X229534368Y-93874971D01*
X229737760Y-93725024D01*
X229769681Y-93710744D01*
X230027906Y-93657619D01*
X230268879Y-93714976D01*
G37*
G36*
X230242370Y-100639307D02*
G01*
X230438570Y-100763605D01*
X230571756Y-100963540D01*
X230621656Y-101227406D01*
X230595129Y-101428214D01*
X230479567Y-101637404D01*
X230282267Y-101770615D01*
X230014041Y-101817352D01*
X229862577Y-101809188D01*
X229712944Y-101760506D01*
X229574649Y-101647840D01*
X229469840Y-101504040D01*
X229403095Y-101277432D01*
X229420085Y-101044510D01*
X229516924Y-100837670D01*
X229689720Y-100689307D01*
X229742018Y-100664438D01*
X230003429Y-100602349D01*
X230242370Y-100639307D01*
G37*
G36*
X230294444Y-98331149D02*
G01*
X230475342Y-98471995D01*
X230586810Y-98675318D01*
X230608704Y-98853747D01*
X230554156Y-99054789D01*
X230426707Y-99213778D01*
X230248849Y-99322355D01*
X230043075Y-99372164D01*
X229831877Y-99354845D01*
X229637749Y-99262043D01*
X229483182Y-99085398D01*
X229458615Y-99033694D01*
X229427612Y-98820628D01*
X229477561Y-98595910D01*
X229600405Y-98406226D01*
X229643781Y-98367654D01*
X229847803Y-98270559D01*
X230074978Y-98261197D01*
X230294444Y-98331149D01*
G37*
G36*
X230171314Y-95945469D02*
G01*
X230365212Y-96043459D01*
X230513868Y-96202818D01*
X230594639Y-96410689D01*
X230584884Y-96654214D01*
X230549241Y-96758093D01*
X230413501Y-96942607D01*
X230223322Y-97055154D01*
X230005657Y-97093607D01*
X229787457Y-97055842D01*
X229595674Y-96939731D01*
X229457259Y-96743151D01*
X229442593Y-96702077D01*
X229427500Y-96491987D01*
X229482177Y-96270213D01*
X229594926Y-96092071D01*
X229738357Y-95985023D01*
X229954815Y-95921704D01*
X230171314Y-95945469D01*
G37*
G36*
X230433129Y-105036895D02*
G01*
X230505593Y-105092596D01*
X230529146Y-105116540D01*
X230614350Y-105288482D01*
X230630327Y-105501952D01*
X230579295Y-105715170D01*
X230463471Y-105886357D01*
X230351517Y-105980143D01*
X230168298Y-106076823D01*
X230014041Y-106071656D01*
X229995290Y-106064363D01*
X229951468Y-106039199D01*
X229936986Y-105994961D01*
X229955619Y-105909637D01*
X230011142Y-105761211D01*
X230107330Y-105527669D01*
X230145641Y-105435945D01*
X230242518Y-105215201D01*
X230314271Y-105084346D01*
X230373581Y-105029528D01*
X230433129Y-105036895D01*
G37*
G36*
X232362671Y-97671005D02*
G01*
X232362671Y-106688584D01*
X231666781Y-106688584D01*
X230275000Y-106688584D01*
X230092264Y-106688584D01*
X228187329Y-106688584D01*
X228187329Y-105427757D01*
X229096028Y-105427757D01*
X229132753Y-105734684D01*
X229260310Y-106000866D01*
X229469129Y-106210638D01*
X229749638Y-106348339D01*
X230092264Y-106398307D01*
X230221895Y-106385353D01*
X230468358Y-106284996D01*
X230678171Y-106105139D01*
X230837415Y-105869546D01*
X230932172Y-105601982D01*
X230948524Y-105326210D01*
X230872554Y-105065996D01*
X230848776Y-105024626D01*
X230723081Y-104868854D01*
X230564815Y-104731412D01*
X230407141Y-104637767D01*
X230283220Y-104613388D01*
X230233419Y-104663995D01*
X230150498Y-104802346D01*
X230094855Y-104913610D01*
X230048579Y-105006144D01*
X229939517Y-105253311D01*
X229842066Y-105476198D01*
X229738892Y-105685706D01*
X229655630Y-105825711D01*
X229602811Y-105876712D01*
X229586936Y-105875403D01*
X229493857Y-105807071D01*
X229429297Y-105653817D01*
X229405137Y-105441781D01*
X229412610Y-105315429D01*
X229493198Y-105066687D01*
X229673785Y-104857919D01*
X229728581Y-104799464D01*
X229778814Y-104680902D01*
X229758294Y-104583408D01*
X229667712Y-104542922D01*
X229601610Y-104558530D01*
X229461941Y-104649291D01*
X229321603Y-104794095D01*
X229214328Y-104961779D01*
X229159710Y-105095745D01*
X229096028Y-105427757D01*
X228187329Y-105427757D01*
X228187329Y-103226863D01*
X229064882Y-103226863D01*
X229080011Y-103379319D01*
X229141210Y-103575414D01*
X229221772Y-103759427D01*
X229377850Y-103958052D01*
X229607644Y-104103885D01*
X229796124Y-104167714D01*
X230094855Y-104182762D01*
X230382651Y-104106954D01*
X230630760Y-103949480D01*
X230810431Y-103719526D01*
X230892370Y-103473892D01*
X230921089Y-103188608D01*
X230896258Y-102911072D01*
X230817552Y-102688677D01*
X230777951Y-102623543D01*
X230702822Y-102532719D01*
X230634272Y-102535447D01*
X230540397Y-102624320D01*
X230480372Y-102700572D01*
X230475242Y-102774591D01*
X230538881Y-102886503D01*
X230592573Y-103006183D01*
X230612140Y-103235365D01*
X230553487Y-103470092D01*
X230422991Y-103667410D01*
X230268915Y-103773131D01*
X230069725Y-103819309D01*
X230038541Y-103826538D01*
X229804129Y-103791298D01*
X229605092Y-103667410D01*
X229553632Y-103608301D01*
X229442142Y-103376861D01*
X229419356Y-103115186D01*
X229490971Y-102863416D01*
X229497076Y-102851578D01*
X229553588Y-102725861D01*
X229552285Y-102650423D01*
X229493600Y-102578521D01*
X229432584Y-102527125D01*
X229371092Y-102530419D01*
X229286859Y-102619367D01*
X229279676Y-102628411D01*
X229187666Y-102784700D01*
X229116951Y-102967312D01*
X229093360Y-103056347D01*
X229064882Y-103226863D01*
X228187329Y-103226863D01*
X228187329Y-101334185D01*
X229091179Y-101334185D01*
X229160871Y-101627302D01*
X229308379Y-101866355D01*
X229496036Y-102023288D01*
X229774419Y-102142750D01*
X230069725Y-102169505D01*
X230357477Y-102105972D01*
X230613202Y-101954570D01*
X230812423Y-101717718D01*
X230892150Y-101507693D01*
X230923506Y-101220488D01*
X230891937Y-100930721D01*
X230798137Y-100688502D01*
X230683487Y-100539973D01*
X230449323Y-100363774D01*
X230178113Y-100269918D01*
X229893939Y-100258065D01*
X229620884Y-100327872D01*
X229383030Y-100478998D01*
X229204457Y-100711101D01*
X229197716Y-100724390D01*
X229102421Y-101021661D01*
X229091179Y-101334185D01*
X228187329Y-101334185D01*
X228187329Y-99546043D01*
X229057192Y-99546043D01*
X229067525Y-99667899D01*
X229095853Y-99749011D01*
X229110276Y-99753780D01*
X229219794Y-99764614D01*
X229420888Y-99773933D01*
X229696260Y-99781224D01*
X230028613Y-99785974D01*
X230400647Y-99787671D01*
X231666781Y-99787671D01*
X231666781Y-99584703D01*
X231666781Y-99381735D01*
X231175606Y-99381735D01*
X230684432Y-99381735D01*
X230832977Y-99164269D01*
X230914524Y-99027928D01*
X230959415Y-98870380D01*
X230955308Y-98667027D01*
X230937176Y-98547248D01*
X230822361Y-98257647D01*
X230622137Y-98037723D01*
X230348649Y-97898029D01*
X230014041Y-97849119D01*
X229839292Y-97863287D01*
X229551285Y-97956678D01*
X229318243Y-98121873D01*
X229152049Y-98340671D01*
X229064587Y-98594871D01*
X229067740Y-98866273D01*
X229173391Y-99136676D01*
X229239893Y-99248395D01*
X229280062Y-99339234D01*
X229257830Y-99375300D01*
X229173174Y-99381735D01*
X229153272Y-99382484D01*
X229077882Y-99423086D01*
X229057192Y-99546043D01*
X228187329Y-99546043D01*
X228187329Y-97671005D01*
X228187329Y-96520491D01*
X229059020Y-96520491D01*
X229099807Y-96823944D01*
X229225760Y-97090390D01*
X229426822Y-97302348D01*
X229692935Y-97442341D01*
X230014041Y-97492890D01*
X230096437Y-97490072D01*
X230411638Y-97416440D01*
X230665447Y-97246186D01*
X230850794Y-96983614D01*
X230944579Y-96722724D01*
X230965150Y-96395142D01*
X230871665Y-96085774D01*
X230664918Y-95799679D01*
X230449638Y-95633349D01*
X230169595Y-95533148D01*
X230095773Y-95531700D01*
X229878411Y-95527435D01*
X229600012Y-95612363D01*
X229358329Y-95784087D01*
X229177288Y-96038761D01*
X229113458Y-96197508D01*
X229059020Y-96520491D01*
X228187329Y-96520491D01*
X228187329Y-93542220D01*
X229063212Y-93542220D01*
X229088138Y-93621490D01*
X229169500Y-93640639D01*
X229265087Y-93655325D01*
X229276366Y-93712615D01*
X229192368Y-93825442D01*
X229161664Y-93871789D01*
X229104644Y-94032306D01*
X229071221Y-94235944D01*
X229068938Y-94271136D01*
X229102163Y-94567303D01*
X229237641Y-94824620D01*
X229481878Y-95056083D01*
X229591613Y-95115179D01*
X229828079Y-95173049D01*
X230095773Y-95182832D01*
X230349139Y-95144451D01*
X230542621Y-95057832D01*
X230639014Y-94978011D01*
X230841780Y-94729655D01*
X230950296Y-94453814D01*
X230958958Y-94170784D01*
X230862160Y-93900864D01*
X230832708Y-93850201D01*
X230765688Y-93727608D01*
X230738927Y-93666320D01*
X230743578Y-93662691D01*
X230825154Y-93651453D01*
X230987395Y-93643596D01*
X231202854Y-93640639D01*
X231666781Y-93640639D01*
X231666781Y-93436562D01*
X231666781Y-93232484D01*
X230376484Y-93248091D01*
X229615903Y-93257291D01*
X229086187Y-93263699D01*
X229068016Y-93452169D01*
X229063212Y-93542220D01*
X228187329Y-93542220D01*
X228187329Y-92075986D01*
X229065071Y-92075986D01*
X229079099Y-92333860D01*
X229156479Y-92548904D01*
X229216469Y-92629345D01*
X229400936Y-92769081D01*
X229615903Y-92827938D01*
X229829467Y-92800904D01*
X230009726Y-92682966D01*
X230073114Y-92603695D01*
X230157523Y-92426457D01*
X230203255Y-92188933D01*
X230217009Y-91864669D01*
X230217623Y-91787919D01*
X230228798Y-91639427D01*
X230261175Y-91570092D01*
X230324003Y-91552968D01*
X230431054Y-91576615D01*
X230547247Y-91686210D01*
X230608712Y-91864089D01*
X230608951Y-92086981D01*
X230541464Y-92331614D01*
X230528652Y-92363349D01*
X230492512Y-92506332D01*
X230524067Y-92590710D01*
X230541397Y-92606932D01*
X230649263Y-92651103D01*
X230752319Y-92585983D01*
X230856471Y-92408333D01*
X230869225Y-92379196D01*
X230951079Y-92085783D01*
X230958063Y-91796536D01*
X230895748Y-91536257D01*
X230769703Y-91329747D01*
X230585499Y-91201810D01*
X230489674Y-91182516D01*
X230295819Y-91166263D01*
X230042244Y-91158166D01*
X229759156Y-91159762D01*
X229615903Y-91163224D01*
X229086187Y-91176027D01*
X229067838Y-91335502D01*
X229074593Y-91457418D01*
X229140326Y-91494977D01*
X229153706Y-91495275D01*
X229219167Y-91522014D01*
X229216013Y-91605291D01*
X229144536Y-91763805D01*
X229115230Y-91830139D01*
X229065071Y-92075986D01*
X228187329Y-92075986D01*
X228187329Y-89988314D01*
X229065071Y-89988314D01*
X229079099Y-90246189D01*
X229156479Y-90461232D01*
X229216469Y-90541674D01*
X229400936Y-90681410D01*
X229615903Y-90740267D01*
X229829467Y-90713233D01*
X230009726Y-90595295D01*
X230073114Y-90516024D01*
X230157523Y-90338786D01*
X230203255Y-90101262D01*
X230217009Y-89776998D01*
X230217623Y-89700248D01*
X230228798Y-89551756D01*
X230261175Y-89482421D01*
X230324003Y-89465297D01*
X230431054Y-89488944D01*
X230547247Y-89598539D01*
X230608712Y-89776418D01*
X230608951Y-89999310D01*
X230541464Y-90243943D01*
X230528652Y-90275678D01*
X230492512Y-90418660D01*
X230524067Y-90503039D01*
X230541397Y-90519261D01*
X230649263Y-90563432D01*
X230752319Y-90498312D01*
X230856471Y-90320662D01*
X230898657Y-90216604D01*
X230966840Y-89910183D01*
X230952839Y-89626125D01*
X230862722Y-89383961D01*
X230702554Y-89203220D01*
X230478401Y-89103434D01*
X230408380Y-89092699D01*
X230204625Y-89077075D01*
X229944475Y-89069661D01*
X229667181Y-89071978D01*
X229086187Y-89088356D01*
X229067838Y-89247831D01*
X229074593Y-89369747D01*
X229140326Y-89407306D01*
X229153706Y-89407604D01*
X229219167Y-89434342D01*
X229216013Y-89517620D01*
X229144536Y-89676134D01*
X229115230Y-89742467D01*
X229065071Y-89988314D01*
X228187329Y-89988314D01*
X228187329Y-88653425D01*
X230275000Y-88653425D01*
X232362671Y-88653425D01*
X232362671Y-97671005D01*
G37*
X242830000Y-90796359D02*
X242830000Y-91103641D01*
X242070000Y-90796359D02*
X242070000Y-91103641D01*
X239380000Y-90846359D02*
X239380000Y-91153641D01*
X238620000Y-90846359D02*
X238620000Y-91153641D01*
X234750000Y-78690000D02*
X234100000Y-78690000D01*
X234750000Y-78690000D02*
X235400000Y-78690000D01*
X234750000Y-81810000D02*
X233075000Y-81810000D01*
X234750000Y-81810000D02*
X235400000Y-81810000D01*
X263410000Y-98337500D02*
X263410000Y-97687500D01*
X263410000Y-98337500D02*
X263410000Y-98987500D01*
X260290000Y-98337500D02*
X260290000Y-96662500D01*
X260290000Y-98337500D02*
X260290000Y-98987500D01*
X257886359Y-91170000D02*
X258193641Y-91170000D01*
X257886359Y-91930000D02*
X258193641Y-91930000D01*
X253360000Y-67663641D02*
X253360000Y-67356359D01*
X254120000Y-67663641D02*
X254120000Y-67356359D01*
X239990000Y-91087836D02*
X239990000Y-90872164D01*
X240710000Y-91087836D02*
X240710000Y-90872164D01*
G36*
X272593933Y-76956289D02*
G01*
X272593933Y-77131332D01*
X271946899Y-77131332D01*
X271299865Y-77131332D01*
X271299865Y-76956289D01*
X271299865Y-76781246D01*
X271946899Y-76781246D01*
X272593933Y-76781246D01*
X272593933Y-76956289D01*
G37*
G36*
X273143191Y-72799685D02*
G01*
X273152508Y-72801017D01*
X273161553Y-72802796D01*
X273192285Y-72816380D01*
X273224804Y-72841564D01*
X273258458Y-72877873D01*
X273266887Y-72888489D01*
X273304569Y-72944371D01*
X273332935Y-73001896D01*
X273350651Y-73058454D01*
X273352166Y-73069050D01*
X273353681Y-73092202D01*
X273354301Y-73121227D01*
X273353892Y-73152228D01*
X273352181Y-73187095D01*
X273348951Y-73215698D01*
X273343525Y-73240573D01*
X273335168Y-73266199D01*
X273317836Y-73307650D01*
X273292600Y-73355363D01*
X273263862Y-73399217D01*
X273233168Y-73437124D01*
X273202061Y-73466994D01*
X273172086Y-73486740D01*
X273154940Y-73493787D01*
X273135365Y-73496361D01*
X273122546Y-73489079D01*
X273115649Y-73471721D01*
X273115496Y-73470665D01*
X273114721Y-73458185D01*
X273113960Y-73434736D01*
X273113233Y-73401600D01*
X273112556Y-73360060D01*
X273111951Y-73311398D01*
X273111434Y-73256894D01*
X273111025Y-73197832D01*
X273110743Y-73135493D01*
X273110661Y-73111670D01*
X273110421Y-73041411D01*
X273110317Y-72982402D01*
X273110470Y-72933682D01*
X273111000Y-72894290D01*
X273112027Y-72863265D01*
X273113670Y-72839647D01*
X273116049Y-72822475D01*
X273119285Y-72810788D01*
X273123497Y-72803627D01*
X273128805Y-72800029D01*
X273135330Y-72799036D01*
X273143191Y-72799685D01*
G37*
G36*
X271568681Y-77452966D02*
G01*
X271568681Y-77537042D01*
X271939084Y-77539459D01*
X271985295Y-77539771D01*
X272057375Y-77540317D01*
X272118573Y-77540890D01*
X272169921Y-77541522D01*
X272212454Y-77542248D01*
X272247203Y-77543100D01*
X272275203Y-77544112D01*
X272297487Y-77545318D01*
X272315087Y-77546750D01*
X272329038Y-77548442D01*
X272340372Y-77550428D01*
X272350123Y-77552741D01*
X272408417Y-77572914D01*
X272464740Y-77603018D01*
X272512650Y-77640871D01*
X272550894Y-77685641D01*
X272553837Y-77690107D01*
X272569686Y-77719891D01*
X272584754Y-77756695D01*
X272597346Y-77795957D01*
X272605764Y-77833117D01*
X272608127Y-77852412D01*
X272610338Y-77886118D01*
X272611536Y-77926137D01*
X272611716Y-77968979D01*
X272610873Y-78011155D01*
X272609002Y-78049175D01*
X272606099Y-78079550D01*
X272603711Y-78095581D01*
X272595923Y-78136758D01*
X272586087Y-78178358D01*
X272575276Y-78216092D01*
X272564564Y-78245668D01*
X272554525Y-78269112D01*
X272424192Y-78269112D01*
X272411956Y-78269090D01*
X272374329Y-78268742D01*
X272341873Y-78268019D01*
X272316421Y-78266989D01*
X272299805Y-78265720D01*
X272293859Y-78264280D01*
X272294449Y-78260628D01*
X272297522Y-78246708D01*
X272302630Y-78225330D01*
X272309104Y-78199350D01*
X272316482Y-78167960D01*
X272327456Y-78101615D01*
X272329850Y-78044320D01*
X272323666Y-77996085D01*
X272308906Y-77956921D01*
X272285572Y-77926840D01*
X272253666Y-77905852D01*
X272249629Y-77904135D01*
X272242742Y-77901846D01*
X272234062Y-77899938D01*
X272222518Y-77898378D01*
X272207039Y-77897129D01*
X272186554Y-77896157D01*
X272159993Y-77895426D01*
X272126283Y-77894902D01*
X272084355Y-77894547D01*
X272033136Y-77894329D01*
X271971557Y-77894210D01*
X271898545Y-77894157D01*
X271568872Y-77894019D01*
X271567214Y-78073751D01*
X271565555Y-78253483D01*
X271432710Y-78255170D01*
X271299865Y-78256857D01*
X271299865Y-78075438D01*
X271299865Y-77894019D01*
X271162331Y-77894019D01*
X271024797Y-77894019D01*
X271024797Y-77779491D01*
X271024797Y-77664963D01*
X271104504Y-77635217D01*
X271137954Y-77622702D01*
X271176227Y-77608324D01*
X271212247Y-77594738D01*
X271241282Y-77583727D01*
X271298352Y-77561982D01*
X271356935Y-77465440D01*
X271415518Y-77368897D01*
X271492099Y-77368894D01*
X271568681Y-77368890D01*
X271568681Y-77452966D01*
G37*
G36*
X272593933Y-80166098D02*
G01*
X272593933Y-80343911D01*
X272217278Y-80346305D01*
X272158603Y-80346689D01*
X272084123Y-80347252D01*
X272020310Y-80347901D01*
X271966078Y-80348716D01*
X271920346Y-80349775D01*
X271882030Y-80351158D01*
X271850047Y-80352947D01*
X271823312Y-80355219D01*
X271800743Y-80358056D01*
X271781257Y-80361537D01*
X271763769Y-80365742D01*
X271747197Y-80370750D01*
X271730457Y-80376642D01*
X271712466Y-80383498D01*
X271679161Y-80398618D01*
X271636361Y-80427352D01*
X271603579Y-80463104D01*
X271580524Y-80506325D01*
X271566904Y-80557469D01*
X271562429Y-80616988D01*
X271562434Y-80618914D01*
X271566847Y-80670765D01*
X271579897Y-80714141D01*
X271602127Y-80749690D01*
X271634081Y-80778058D01*
X271676300Y-80799893D01*
X271729329Y-80815842D01*
X271738687Y-80817717D01*
X271750786Y-80819516D01*
X271765640Y-80821040D01*
X271784223Y-80822311D01*
X271807510Y-80823351D01*
X271836477Y-80824182D01*
X271872097Y-80824825D01*
X271915347Y-80825303D01*
X271967200Y-80825636D01*
X272028631Y-80825848D01*
X272100616Y-80825959D01*
X272184128Y-80825991D01*
X272593933Y-80825991D01*
X272593933Y-81004160D01*
X272593933Y-81182328D01*
X272139134Y-81182303D01*
X272060755Y-81182276D01*
X271977015Y-81182156D01*
X271904062Y-81181890D01*
X271840957Y-81181426D01*
X271786762Y-81180712D01*
X271740540Y-81179695D01*
X271701351Y-81178325D01*
X271668259Y-81176548D01*
X271640324Y-81174312D01*
X271616610Y-81171566D01*
X271596177Y-81168256D01*
X271578089Y-81164332D01*
X271561407Y-81159740D01*
X271545192Y-81154428D01*
X271528507Y-81148345D01*
X271497145Y-81134956D01*
X271440232Y-81100864D01*
X271391231Y-81057140D01*
X271350230Y-81003887D01*
X271317314Y-80941206D01*
X271292571Y-80869200D01*
X271285517Y-80835627D01*
X271279669Y-80784922D01*
X271277455Y-80729595D01*
X271278876Y-80673779D01*
X271283929Y-80621604D01*
X271292614Y-80577202D01*
X271303781Y-80539549D01*
X271327992Y-80478334D01*
X271357850Y-80426229D01*
X271394468Y-80381446D01*
X271438961Y-80342196D01*
X271446063Y-80336405D01*
X271457778Y-80324507D01*
X271462405Y-80316013D01*
X271460228Y-80312031D01*
X271452432Y-80307203D01*
X271437709Y-80301254D01*
X271414755Y-80293720D01*
X271382265Y-80284135D01*
X271338937Y-80272036D01*
X271299865Y-80261302D01*
X271299865Y-80124794D01*
X271299865Y-79988285D01*
X271946899Y-79988285D01*
X272593933Y-79988285D01*
X272593933Y-80166098D01*
G37*
G36*
X271302049Y-75249631D02*
G01*
X271308796Y-75252109D01*
X271326137Y-75258636D01*
X271353060Y-75268827D01*
X271388556Y-75282295D01*
X271431611Y-75298655D01*
X271481216Y-75317521D01*
X271536358Y-75338509D01*
X271596027Y-75361232D01*
X271659211Y-75385304D01*
X271724898Y-75410341D01*
X271792078Y-75435957D01*
X271859739Y-75461766D01*
X271926869Y-75487383D01*
X271992458Y-75512422D01*
X272055494Y-75536498D01*
X272114966Y-75559224D01*
X272169862Y-75580217D01*
X272219172Y-75599089D01*
X272261883Y-75615456D01*
X272296985Y-75628932D01*
X272310191Y-75633985D01*
X272335525Y-75643551D01*
X272356264Y-75651218D01*
X272368878Y-75655675D01*
X272378287Y-75659048D01*
X272397495Y-75666251D01*
X272423498Y-75676154D01*
X272453753Y-75687773D01*
X272485719Y-75700127D01*
X272516856Y-75712233D01*
X272544620Y-75723108D01*
X272566471Y-75731770D01*
X272579867Y-75737236D01*
X272593933Y-75743222D01*
X272593933Y-75923982D01*
X272593921Y-75953308D01*
X272593801Y-75999708D01*
X272593486Y-76035689D01*
X272592895Y-76062611D01*
X272591948Y-76081835D01*
X272590565Y-76094722D01*
X272588665Y-76102634D01*
X272586168Y-76106932D01*
X272582993Y-76108975D01*
X272581597Y-76109510D01*
X272570276Y-76113835D01*
X272548552Y-76122127D01*
X272517348Y-76134035D01*
X272477586Y-76149206D01*
X272430188Y-76167289D01*
X272376077Y-76187932D01*
X272316173Y-76210783D01*
X272251399Y-76235492D01*
X272182678Y-76261705D01*
X272110930Y-76289072D01*
X272037078Y-76317241D01*
X271962044Y-76345860D01*
X271886751Y-76374577D01*
X271812119Y-76403041D01*
X271739071Y-76430900D01*
X271668529Y-76457803D01*
X271601415Y-76483397D01*
X271538651Y-76507331D01*
X271481159Y-76529253D01*
X271469561Y-76533673D01*
X271418053Y-76553228D01*
X271377233Y-76568574D01*
X271346306Y-76580003D01*
X271324476Y-76587806D01*
X271310946Y-76592275D01*
X271304920Y-76593699D01*
X271304529Y-76593152D01*
X271303281Y-76583733D01*
X271302164Y-76563816D01*
X271301222Y-76534944D01*
X271300496Y-76498661D01*
X271300030Y-76456511D01*
X271299865Y-76410039D01*
X271299865Y-76226378D01*
X271363943Y-76204288D01*
X271370061Y-76202183D01*
X271396986Y-76192979D01*
X271433830Y-76180444D01*
X271479122Y-76165074D01*
X271531387Y-76147368D01*
X271589153Y-76127824D01*
X271650947Y-76106940D01*
X271715296Y-76085214D01*
X271780727Y-76063143D01*
X271845766Y-76041226D01*
X271908942Y-76019960D01*
X271968779Y-75999844D01*
X272002641Y-75988699D01*
X272066366Y-75969073D01*
X272124133Y-75953109D01*
X272174569Y-75941148D01*
X272216300Y-75933531D01*
X272247955Y-75930597D01*
X272268143Y-75929510D01*
X272282559Y-75926812D01*
X272285627Y-75923217D01*
X272276977Y-75919380D01*
X272256239Y-75915953D01*
X272230219Y-75912694D01*
X272151973Y-75898839D01*
X272067982Y-75878065D01*
X271976255Y-75849904D01*
X271964317Y-75845929D01*
X271920659Y-75831334D01*
X271871638Y-75814868D01*
X271818483Y-75796950D01*
X271762422Y-75778001D01*
X271704685Y-75758437D01*
X271646503Y-75738680D01*
X271589103Y-75719147D01*
X271533715Y-75700259D01*
X271481570Y-75682433D01*
X271433895Y-75666090D01*
X271391920Y-75651648D01*
X271356875Y-75639526D01*
X271329990Y-75630144D01*
X271312492Y-75623920D01*
X271305613Y-75621274D01*
X271305264Y-75620513D01*
X271304140Y-75610565D01*
X271303094Y-75590658D01*
X271302146Y-75562662D01*
X271301312Y-75528451D01*
X271300612Y-75489894D01*
X271300064Y-75448864D01*
X271299686Y-75407233D01*
X271299495Y-75366871D01*
X271299511Y-75329651D01*
X271299751Y-75297444D01*
X271300233Y-75272122D01*
X271300977Y-75255556D01*
X271301999Y-75249619D01*
X271302049Y-75249631D01*
G37*
G36*
X271968480Y-73961270D02*
G01*
X272058172Y-73965481D01*
X272138904Y-73976558D01*
X272212264Y-73994989D01*
X272279834Y-74021258D01*
X272343200Y-74055850D01*
X272403946Y-74099251D01*
X272413201Y-74106918D01*
X272459561Y-74153658D01*
X272501711Y-74210018D01*
X272538545Y-74273863D01*
X272568956Y-74343056D01*
X272591833Y-74415461D01*
X272606071Y-74488943D01*
X272607578Y-74503154D01*
X272609748Y-74537338D01*
X272611119Y-74579137D01*
X272611694Y-74625396D01*
X272611472Y-74672961D01*
X272610454Y-74718676D01*
X272608640Y-74759387D01*
X272606031Y-74791940D01*
X272601326Y-74827522D01*
X272584678Y-74910027D01*
X272560887Y-74990301D01*
X272531247Y-75063635D01*
X272523159Y-75080827D01*
X272386629Y-75080827D01*
X272348769Y-75080677D01*
X272305777Y-75079962D01*
X272274922Y-75078661D01*
X272256324Y-75076781D01*
X272250098Y-75074327D01*
X272250400Y-75072284D01*
X272254559Y-75060526D01*
X272262044Y-75044410D01*
X272269686Y-75027962D01*
X272282839Y-74994760D01*
X272296721Y-74954976D01*
X272310218Y-74912034D01*
X272322217Y-74869361D01*
X272331605Y-74830381D01*
X272336208Y-74807235D01*
X272340804Y-74777127D01*
X272343781Y-74745266D01*
X272345445Y-74708073D01*
X272346104Y-74661974D01*
X272346125Y-74657615D01*
X272346115Y-74619048D01*
X272345523Y-74590120D01*
X272344099Y-74568228D01*
X272341592Y-74550766D01*
X272337751Y-74535127D01*
X272332326Y-74518707D01*
X272315693Y-74480205D01*
X272283649Y-74431151D01*
X272242539Y-74390561D01*
X272192606Y-74358614D01*
X272134093Y-74335492D01*
X272067241Y-74321373D01*
X272037546Y-74317373D01*
X272037546Y-74734243D01*
X272037546Y-75151112D01*
X271882820Y-75147966D01*
X271877861Y-75147864D01*
X271828331Y-75146705D01*
X271789071Y-75145404D01*
X271758026Y-75143794D01*
X271733144Y-75141705D01*
X271712374Y-75138970D01*
X271693662Y-75135418D01*
X271674957Y-75130881D01*
X271669758Y-75129494D01*
X271592182Y-75102641D01*
X271521670Y-75066416D01*
X271458976Y-75021444D01*
X271404855Y-74968353D01*
X271360060Y-74907770D01*
X271325347Y-74840321D01*
X271314516Y-74813094D01*
X271300236Y-74770629D01*
X271290085Y-74728777D01*
X271283494Y-74684293D01*
X271279894Y-74633933D01*
X271278796Y-74578441D01*
X271534409Y-74578441D01*
X271534705Y-74609720D01*
X271535975Y-74632272D01*
X271538741Y-74649507D01*
X271543525Y-74664831D01*
X271550851Y-74681654D01*
X271551070Y-74682119D01*
X271578077Y-74725052D01*
X271614456Y-74760551D01*
X271658482Y-74786931D01*
X271669256Y-74791386D01*
X271699387Y-74801384D01*
X271732755Y-74809979D01*
X271764448Y-74815996D01*
X271789559Y-74818262D01*
X271791897Y-74817659D01*
X271794115Y-74814818D01*
X271795889Y-74808590D01*
X271797269Y-74797837D01*
X271798303Y-74781417D01*
X271799039Y-74758193D01*
X271799527Y-74727024D01*
X271799816Y-74686770D01*
X271799953Y-74636293D01*
X271799988Y-74574452D01*
X271799988Y-74330643D01*
X271779670Y-74330735D01*
X271772524Y-74331024D01*
X271744409Y-74334942D01*
X271711940Y-74342385D01*
X271680412Y-74352005D01*
X271655117Y-74362454D01*
X271635350Y-74374332D01*
X271602263Y-74401452D01*
X271572996Y-74433871D01*
X271551694Y-74467386D01*
X271550022Y-74470841D01*
X271542997Y-74486841D01*
X271538470Y-74501823D01*
X271535893Y-74519166D01*
X271534723Y-74542249D01*
X271534413Y-74574452D01*
X271534409Y-74578441D01*
X271278796Y-74578441D01*
X271278717Y-74574452D01*
X271278714Y-74573242D01*
X271279981Y-74509259D01*
X271284347Y-74454501D01*
X271292293Y-74406016D01*
X271304300Y-74360853D01*
X271320850Y-74316060D01*
X271354736Y-74246723D01*
X271399762Y-74179524D01*
X271453139Y-74121416D01*
X271514945Y-74072354D01*
X271585258Y-74032294D01*
X271664157Y-74001193D01*
X271751720Y-73979007D01*
X271799988Y-73972333D01*
X271848025Y-73965691D01*
X271953150Y-73961202D01*
X271968480Y-73961270D01*
G37*
G36*
X271809365Y-72426880D02*
G01*
X271874357Y-72440896D01*
X271957815Y-72469721D01*
X272036128Y-72509514D01*
X272108559Y-72559745D01*
X272174371Y-72619882D01*
X272232827Y-72689397D01*
X272283189Y-72767758D01*
X272298878Y-72795890D01*
X272586616Y-72799016D01*
X272611476Y-72799287D01*
X272674904Y-72800012D01*
X272727352Y-72800699D01*
X272769949Y-72801410D01*
X272803825Y-72802203D01*
X272830108Y-72803137D01*
X272849928Y-72804271D01*
X272864414Y-72805666D01*
X272874696Y-72807380D01*
X272881903Y-72809473D01*
X272887164Y-72812003D01*
X272891608Y-72815031D01*
X272899223Y-72821116D01*
X272923978Y-72849167D01*
X272937755Y-72881053D01*
X272938583Y-72886907D01*
X272939806Y-72905640D01*
X272940839Y-72934133D01*
X272941680Y-72970674D01*
X272942329Y-73013552D01*
X272942784Y-73061055D01*
X272943045Y-73111471D01*
X272943111Y-73163090D01*
X272942981Y-73214199D01*
X272942654Y-73263088D01*
X272942129Y-73308043D01*
X272941406Y-73347355D01*
X272940482Y-73379310D01*
X272939359Y-73402199D01*
X272938033Y-73414308D01*
X272930379Y-73437007D01*
X272911431Y-73465760D01*
X272885648Y-73485958D01*
X272855074Y-73496631D01*
X272821753Y-73496812D01*
X272787731Y-73485531D01*
X272785519Y-73484370D01*
X272762065Y-73467258D01*
X272745533Y-73443162D01*
X272744161Y-73440416D01*
X272740478Y-73432314D01*
X272737585Y-73423685D01*
X272735389Y-73413033D01*
X272733792Y-73398861D01*
X272732700Y-73379671D01*
X272732017Y-73353967D01*
X272731648Y-73320251D01*
X272731496Y-73277026D01*
X272731467Y-73222796D01*
X272731467Y-73030323D01*
X272544736Y-73030323D01*
X272358006Y-73030323D01*
X272354773Y-73113155D01*
X272354103Y-73127569D01*
X272348021Y-73190258D01*
X272336252Y-73247621D01*
X272317631Y-73304261D01*
X272290991Y-73364780D01*
X272283575Y-73379594D01*
X272238173Y-73454666D01*
X272184408Y-73521409D01*
X272123329Y-73579536D01*
X272055987Y-73628760D01*
X271983430Y-73668796D01*
X271906707Y-73699357D01*
X271826869Y-73720157D01*
X271744965Y-73730909D01*
X271662044Y-73731327D01*
X271579155Y-73721126D01*
X271497349Y-73700017D01*
X271417674Y-73667716D01*
X271341180Y-73623935D01*
X271322490Y-73611640D01*
X271302887Y-73599117D01*
X271289279Y-73590877D01*
X271283848Y-73588279D01*
X271281381Y-73594006D01*
X271275411Y-73609184D01*
X271266871Y-73631435D01*
X271256675Y-73658397D01*
X271253935Y-73665606D01*
X271237445Y-73704643D01*
X271221543Y-73733275D01*
X271204892Y-73753159D01*
X271186160Y-73765949D01*
X271164010Y-73773300D01*
X271129767Y-73775276D01*
X271096463Y-73766092D01*
X271067929Y-73746267D01*
X271046119Y-73716739D01*
X271045724Y-73715973D01*
X271040337Y-73702328D01*
X271037963Y-73686912D01*
X271038910Y-73668101D01*
X271043483Y-73644270D01*
X271051989Y-73613791D01*
X271064735Y-73575042D01*
X271082028Y-73526395D01*
X271086958Y-73512807D01*
X271100676Y-73474602D01*
X271110595Y-73445870D01*
X271117162Y-73424889D01*
X271120819Y-73409936D01*
X271122012Y-73399290D01*
X271121186Y-73391228D01*
X271118785Y-73384029D01*
X271113580Y-73371404D01*
X271092640Y-73318816D01*
X271076563Y-73274240D01*
X271064738Y-73235069D01*
X271056558Y-73198698D01*
X271051412Y-73162523D01*
X271048692Y-73123937D01*
X271047789Y-73080335D01*
X271047837Y-73065511D01*
X271047886Y-73064679D01*
X271351996Y-73064679D01*
X271355244Y-73126638D01*
X271370410Y-73189650D01*
X271395585Y-73246672D01*
X271429522Y-73296924D01*
X271471002Y-73339799D01*
X271518805Y-73374691D01*
X271571712Y-73400995D01*
X271628502Y-73418103D01*
X271687956Y-73425411D01*
X271748855Y-73422312D01*
X271809978Y-73408200D01*
X271870105Y-73382469D01*
X271908682Y-73356798D01*
X271948948Y-73319150D01*
X271984691Y-73274448D01*
X272013659Y-73225546D01*
X272033597Y-73175301D01*
X272044861Y-73122271D01*
X272047209Y-73058257D01*
X272037388Y-72995246D01*
X272015567Y-72934216D01*
X271981916Y-72876149D01*
X271972179Y-72862961D01*
X271928448Y-72816351D01*
X271877575Y-72779272D01*
X271820892Y-72752250D01*
X271759735Y-72735812D01*
X271695434Y-72730486D01*
X271629324Y-72736798D01*
X271592703Y-72745899D01*
X271536889Y-72769454D01*
X271486599Y-72802641D01*
X271442804Y-72844076D01*
X271406475Y-72892379D01*
X271378583Y-72946168D01*
X271360100Y-73004062D01*
X271351996Y-73064679D01*
X271047886Y-73064679D01*
X271052434Y-72986929D01*
X271064924Y-72914849D01*
X271086048Y-72846006D01*
X271116546Y-72777135D01*
X271139053Y-72736352D01*
X271189336Y-72664041D01*
X271248075Y-72599995D01*
X271314239Y-72544734D01*
X271386795Y-72498781D01*
X271464713Y-72462657D01*
X271546961Y-72436883D01*
X271632506Y-72421981D01*
X271695434Y-72419467D01*
X271720318Y-72418473D01*
X271809365Y-72426880D01*
G37*
G36*
X270682568Y-76676767D02*
G01*
X270731922Y-76688896D01*
X270778511Y-76710109D01*
X270820884Y-76740411D01*
X270857592Y-76779810D01*
X270887184Y-76828311D01*
X270903700Y-76871657D01*
X270913605Y-76926141D01*
X270912808Y-76980839D01*
X270901865Y-77034030D01*
X270881332Y-77083996D01*
X270851765Y-77129016D01*
X270813723Y-77167370D01*
X270767760Y-77197340D01*
X270736492Y-77213184D01*
X270739059Y-77911502D01*
X270739183Y-77945117D01*
X270739621Y-78056562D01*
X270740072Y-78156480D01*
X270740566Y-78245636D01*
X270741130Y-78324791D01*
X270741793Y-78394708D01*
X270742583Y-78456149D01*
X270743527Y-78509876D01*
X270744654Y-78556653D01*
X270745991Y-78597242D01*
X270747568Y-78632405D01*
X270749412Y-78662904D01*
X270751551Y-78689502D01*
X270754013Y-78712962D01*
X270756826Y-78734046D01*
X270760019Y-78753516D01*
X270763620Y-78772135D01*
X270767655Y-78790665D01*
X270772155Y-78809870D01*
X270776316Y-78826427D01*
X270789014Y-78867471D01*
X270804313Y-78901954D01*
X270823305Y-78930454D01*
X270847081Y-78953553D01*
X270876735Y-78971830D01*
X270913358Y-78985865D01*
X270958043Y-78996237D01*
X271011882Y-79003526D01*
X271075967Y-79008312D01*
X271151391Y-79011175D01*
X271158082Y-79011347D01*
X271202196Y-79012437D01*
X271235521Y-79013080D01*
X271259572Y-79013177D01*
X271275858Y-79012634D01*
X271285894Y-79011355D01*
X271291190Y-79009242D01*
X271293259Y-79006201D01*
X271293613Y-79002135D01*
X271293957Y-78998306D01*
X271296971Y-78982630D01*
X271302421Y-78960040D01*
X271309490Y-78934037D01*
X271325758Y-78884506D01*
X271361723Y-78804293D01*
X271406854Y-78731112D01*
X271460189Y-78665400D01*
X271520765Y-78607593D01*
X271587619Y-78558129D01*
X271659788Y-78517444D01*
X271736310Y-78485974D01*
X271816221Y-78464157D01*
X271898560Y-78452429D01*
X271947375Y-78451729D01*
X271982362Y-78451228D01*
X272066666Y-78460989D01*
X272150508Y-78482150D01*
X272232925Y-78515147D01*
X272263424Y-78530790D01*
X272337804Y-78578170D01*
X272405015Y-78634623D01*
X272464201Y-78698996D01*
X272514503Y-78770138D01*
X272555063Y-78846897D01*
X272585024Y-78928123D01*
X272603528Y-79012663D01*
X272610664Y-79093063D01*
X272607560Y-79183727D01*
X272592625Y-79271740D01*
X272566127Y-79356273D01*
X272528335Y-79436493D01*
X272479518Y-79511569D01*
X272419943Y-79580670D01*
X272362405Y-79632667D01*
X272290917Y-79682691D01*
X272214750Y-79722286D01*
X272135017Y-79751424D01*
X272052827Y-79770076D01*
X271969294Y-79778212D01*
X271885529Y-79775804D01*
X271802643Y-79762823D01*
X271721748Y-79739239D01*
X271643957Y-79705024D01*
X271570380Y-79660149D01*
X271502129Y-79604585D01*
X271469383Y-79572137D01*
X271411181Y-79502904D01*
X271363689Y-79429159D01*
X271327466Y-79351836D01*
X271303069Y-79271869D01*
X271293042Y-79227493D01*
X271163608Y-79223193D01*
X271136954Y-79222257D01*
X271069591Y-79219255D01*
X271012407Y-79215502D01*
X270963691Y-79210716D01*
X270921732Y-79204617D01*
X270884819Y-79196924D01*
X270851240Y-79187356D01*
X270819283Y-79175633D01*
X270787238Y-79161475D01*
X270765305Y-79150464D01*
X270738983Y-79134401D01*
X270714389Y-79114934D01*
X270705660Y-79106604D01*
X271620187Y-79106604D01*
X271624733Y-79168381D01*
X271634758Y-79209947D01*
X271658484Y-79266178D01*
X271691973Y-79316910D01*
X271733891Y-79360821D01*
X271782905Y-79396587D01*
X271837682Y-79422885D01*
X271896886Y-79438392D01*
X271910002Y-79440202D01*
X271972060Y-79441526D01*
X272032026Y-79431292D01*
X272088552Y-79410276D01*
X272140286Y-79379252D01*
X272185879Y-79338995D01*
X272223979Y-79290281D01*
X272253236Y-79233883D01*
X272262078Y-79206676D01*
X272270356Y-79163137D01*
X272273946Y-79116615D01*
X272272550Y-79071833D01*
X272265869Y-79033515D01*
X272244241Y-78975974D01*
X272212137Y-78922156D01*
X272171580Y-78876174D01*
X272123697Y-78838897D01*
X272069617Y-78811194D01*
X272010467Y-78793935D01*
X271947375Y-78787989D01*
X271914833Y-78789583D01*
X271854952Y-78801216D01*
X271799701Y-78823155D01*
X271750056Y-78854246D01*
X271706997Y-78893335D01*
X271671502Y-78939269D01*
X271644550Y-78990895D01*
X271627118Y-79047057D01*
X271620187Y-79106604D01*
X270705660Y-79106604D01*
X270686939Y-79088740D01*
X270679678Y-79081264D01*
X270649511Y-79046046D01*
X270623743Y-79007884D01*
X270601916Y-78965421D01*
X270583572Y-78917299D01*
X270568253Y-78862162D01*
X270555500Y-78798651D01*
X270544856Y-78725409D01*
X270535862Y-78641078D01*
X270535015Y-78630728D01*
X270533744Y-78609655D01*
X270532640Y-78583195D01*
X270531697Y-78550699D01*
X270530910Y-78511522D01*
X270530275Y-78465017D01*
X270529785Y-78410536D01*
X270529436Y-78347433D01*
X270529221Y-78275062D01*
X270529136Y-78192775D01*
X270529176Y-78099926D01*
X270529335Y-77995867D01*
X270529607Y-77879953D01*
X270529676Y-77852840D01*
X270529876Y-77748898D01*
X270529954Y-77652504D01*
X270529912Y-77564152D01*
X270529753Y-77484339D01*
X270529481Y-77413560D01*
X270529099Y-77352311D01*
X270528609Y-77301086D01*
X270528014Y-77260383D01*
X270527318Y-77230695D01*
X270526522Y-77212519D01*
X270525631Y-77206350D01*
X270525375Y-77206346D01*
X270513170Y-77201921D01*
X270495056Y-77190608D01*
X270473663Y-77174515D01*
X270451621Y-77155746D01*
X270431556Y-77136407D01*
X270416100Y-77118606D01*
X270392090Y-77081757D01*
X270373996Y-77039124D01*
X270364653Y-76992449D01*
X270363117Y-76938526D01*
X270364081Y-76916272D01*
X270366246Y-76892337D01*
X270370323Y-76873100D01*
X270377384Y-76853988D01*
X270388503Y-76830430D01*
X270409575Y-76794407D01*
X270445070Y-76752163D01*
X270486501Y-76718965D01*
X270532415Y-76694821D01*
X270581365Y-76679735D01*
X270631899Y-76673715D01*
X270682568Y-76676767D01*
G37*
X260242164Y-71370000D02*
X260457836Y-71370000D01*
X260242164Y-72090000D02*
X260457836Y-72090000D01*
D13*
X235960000Y-68165000D02*
G75*
G03*
X235860000Y-68165000I-50000J0D01*
G01*
X235860000Y-68165000D02*
G75*
G03*
X235960000Y-68165000I50000J0D01*
G01*
D14*
X231648859Y-81110000D02*
X231956141Y-81110000D01*
X231648859Y-81870000D02*
X231956141Y-81870000D01*
X227953859Y-86800000D02*
X228261141Y-86800000D01*
X227953859Y-87560000D02*
X228261141Y-87560000D01*
X263753641Y-106030000D02*
X263446359Y-106030000D01*
X263753641Y-105270000D02*
X263446359Y-105270000D01*
X229847500Y-81940000D02*
G75*
G03*
X228447500Y-81940000I-700000J0D01*
G01*
X228447500Y-81940000D02*
G75*
G03*
X229847500Y-81940000I700000J0D01*
G01*
X229250000Y-83240000D02*
X228600000Y-83240000D01*
X229250000Y-83240000D02*
X229900000Y-83240000D01*
X229250000Y-86360000D02*
X227575000Y-86360000D01*
X229250000Y-86360000D02*
X229900000Y-86360000D01*
X260216359Y-70310000D02*
X260523641Y-70310000D01*
X260216359Y-71070000D02*
X260523641Y-71070000D01*
X254100000Y-105900000D02*
X254700000Y-105900000D01*
X255400000Y-105250000D02*
X255400000Y-102450000D01*
X253400000Y-102450000D02*
X253400000Y-105250000D01*
X254700000Y-101800000D02*
X254100000Y-101800000D01*
X253400000Y-105200000D02*
G75*
G03*
X254100000Y-105900000I699999J-1D01*
G01*
X254700000Y-105900000D02*
G75*
G03*
X255400000Y-105200000I1J699999D01*
G01*
X254100000Y-101800000D02*
G75*
G03*
X253400000Y-102500000I0J-700000D01*
G01*
X255400000Y-102500000D02*
G75*
G03*
X254700000Y-101800000I-700000J0D01*
G01*
X241040000Y-91087836D02*
X241040000Y-90872164D01*
X241760000Y-91087836D02*
X241760000Y-90872164D01*
X261840000Y-71407836D02*
X261840000Y-71192164D01*
X262560000Y-71407836D02*
X262560000Y-71192164D01*
X243930000Y-90796359D02*
X243930000Y-91103641D01*
X243170000Y-90796359D02*
X243170000Y-91103641D01*
D11*
X260200000Y-75640000D02*
G75*
G03*
X260200000Y-75440000I0J100000D01*
G01*
X260200000Y-75440000D02*
G75*
G03*
X260200000Y-75640000I0J-100000D01*
G01*
X260200000Y-75440000D02*
X260200000Y-75440000D01*
X260200000Y-75640000D02*
X260200000Y-75640000D01*
D13*
X264000000Y-76840000D02*
X264000000Y-74240000D01*
D14*
X254587836Y-101110000D02*
X254372164Y-101110000D01*
X254587836Y-100390000D02*
X254372164Y-100390000D01*
X256090000Y-67683641D02*
X256090000Y-67376359D01*
X256850000Y-67683641D02*
X256850000Y-67376359D01*
X226907500Y-83020000D02*
X226907500Y-87030000D01*
X224907500Y-83020000D02*
X226907500Y-83020000D01*
X224907500Y-83020000D02*
X224907500Y-87030000D01*
X257886359Y-90070000D02*
X258193641Y-90070000D01*
X257886359Y-90830000D02*
X258193641Y-90830000D01*
X237230000Y-90846359D02*
X237230000Y-91153641D01*
X236470000Y-90846359D02*
X236470000Y-91153641D01*
X252280000Y-67647836D02*
X252280000Y-67432164D01*
X253000000Y-67647836D02*
X253000000Y-67432164D01*
X255720000Y-95213641D02*
X255720000Y-94906359D01*
X256480000Y-95213641D02*
X256480000Y-94906359D01*
X255860000Y-104503641D02*
X255860000Y-104196359D01*
X256620000Y-104503641D02*
X256620000Y-104196359D01*
X251930000Y-96846359D02*
X251930000Y-97153641D01*
X251170000Y-96846359D02*
X251170000Y-97153641D01*
X251450000Y-105900000D02*
X252050000Y-105900000D01*
X252750000Y-105250000D02*
X252750000Y-102450000D01*
X250750000Y-102450000D02*
X250750000Y-105250000D01*
X252050000Y-101800000D02*
X251450000Y-101800000D01*
X250750000Y-105200000D02*
G75*
G03*
X251450000Y-105900000I699999J-1D01*
G01*
X252050000Y-105900000D02*
G75*
G03*
X252750000Y-105200000I1J699999D01*
G01*
X251450000Y-101800000D02*
G75*
G03*
X250750000Y-102500000I0J-700000D01*
G01*
X252750000Y-102500000D02*
G75*
G03*
X252050000Y-101800000I-700000J0D01*
G01*
X231596359Y-79720000D02*
X231903641Y-79720000D01*
X231596359Y-80480000D02*
X231903641Y-80480000D01*
X254557836Y-100010000D02*
X254342164Y-100010000D01*
X254557836Y-99290000D02*
X254342164Y-99290000D01*
X264930000Y-102343641D02*
X264930000Y-102036359D01*
X265690000Y-102343641D02*
X265690000Y-102036359D01*
X236900000Y-86640000D02*
X236900000Y-85840000D01*
X236900000Y-86640000D02*
X236900000Y-87440000D01*
X233780000Y-86640000D02*
X233780000Y-84840000D01*
X233780000Y-86640000D02*
X233780000Y-87440000D01*
X254593641Y-98870000D02*
X254286359Y-98870000D01*
X254593641Y-98110000D02*
X254286359Y-98110000D01*
D13*
X250050000Y-67400000D02*
G75*
G03*
X248750000Y-67400000I-650000J0D01*
G01*
X248750000Y-67400000D02*
G75*
G03*
X250050000Y-67400000I650000J0D01*
G01*
D14*
X247180000Y-90746359D02*
X247180000Y-91053641D01*
X246420000Y-90746359D02*
X246420000Y-91053641D01*
X261450000Y-103100000D02*
X261450000Y-103750000D01*
X261450000Y-103100000D02*
X261450000Y-102450000D01*
X264570000Y-103100000D02*
X264570000Y-104775000D01*
X264570000Y-103100000D02*
X264570000Y-102450000D01*
X261090000Y-104006359D02*
X261090000Y-104313641D01*
X260330000Y-104006359D02*
X260330000Y-104313641D01*
X261953641Y-96080000D02*
X261646359Y-96080000D01*
X261953641Y-95320000D02*
X261646359Y-95320000D01*
D13*
X247650000Y-67200000D02*
G75*
G03*
X246350000Y-67200000I-650000J0D01*
G01*
X246350000Y-67200000D02*
G75*
G03*
X247650000Y-67200000I650000J0D01*
G01*
D14*
X245320000Y-91053641D02*
X245320000Y-90746359D01*
X246080000Y-91053641D02*
X246080000Y-90746359D01*
X245030000Y-90756359D02*
X245030000Y-91063641D01*
X244270000Y-90756359D02*
X244270000Y-91063641D01*
X252290000Y-95940000D02*
X252290000Y-96590000D01*
X252290000Y-95940000D02*
X252290000Y-95290000D01*
X255410000Y-95940000D02*
X255410000Y-97615000D01*
X255410000Y-95940000D02*
X255410000Y-95290000D01*
X238330000Y-90846359D02*
X238330000Y-91153641D01*
X237570000Y-90846359D02*
X237570000Y-91153641D01*
X238350000Y-88950000D02*
X239950000Y-88950000D01*
X256750000Y-88750000D02*
X257150000Y-88750000D01*
X238350000Y-86950000D02*
X238350000Y-88950000D01*
X258250000Y-86950000D02*
X258250000Y-88350000D01*
X258250000Y-71350000D02*
X258250000Y-69350000D01*
X238550000Y-69350000D02*
X238550000Y-70950000D01*
X239950000Y-69350000D02*
X238550000Y-69350000D01*
X258250000Y-69350000D02*
X256750000Y-69350000D01*
D15*
X256350000Y-89950000D02*
G75*
G03*
X255950000Y-89950000I-200000J0D01*
G01*
X255950000Y-89950000D02*
G75*
G03*
X256350000Y-89950000I200000J0D01*
G01*
D16*
X232525000Y-98400000D02*
X232525000Y-96300000D01*
X232525000Y-104300000D02*
X232525000Y-101400000D01*
X232525000Y-107000000D02*
X245625000Y-107000000D01*
X233199000Y-92950000D02*
X234201000Y-92950000D01*
X239949000Y-92950000D02*
X244951000Y-92950000D01*
D11*
X236795000Y-107450000D02*
G75*
G03*
X236595000Y-107450000I-100000J0D01*
G01*
X236595000Y-107450000D02*
G75*
G03*
X236795000Y-107450000I100000J0D01*
G01*
D14*
X226126233Y-81550000D02*
X226468767Y-81550000D01*
X226126233Y-82570000D02*
X226468767Y-82570000D01*
X257310000Y-67667836D02*
X257310000Y-67452164D01*
X258030000Y-67667836D02*
X258030000Y-67452164D01*
M02*
