G04 #@! TF.GenerationSoftware,KiCad,Pcbnew,7.0.10*
G04 #@! TF.CreationDate,2024-01-23T21:04:48+03:00*
G04 #@! TF.ProjectId,GPS_MODULE_V3.kicad_pro,4750535f-4d4f-4445-954c-455f56332e6b,rev?*
G04 #@! TF.SameCoordinates,Original*
G04 #@! TF.FileFunction,Legend,Bot*
G04 #@! TF.FilePolarity,Positive*
%FSLAX46Y46*%
G04 Gerber Fmt 4.6, Leading zero omitted, Abs format (unit mm)*
G04 Created by KiCad (PCBNEW 7.0.10) date 2024-01-23 21:04:48*
%MOMM*%
%LPD*%
G01*
G04 APERTURE LIST*
%ADD10C,0.200000*%
%ADD11C,0.150000*%
%ADD12C,0.254000*%
%ADD13C,0.120000*%
%ADD14C,0.100000*%
%ADD15C,0.350000*%
%ADD16C,0.127000*%
G04 APERTURE END LIST*
D10*
G36*
X273071000Y-79632292D02*
G01*
X273071000Y-79446765D01*
X272427664Y-79446765D01*
X272414360Y-79446948D01*
X272399802Y-79447498D01*
X272388060Y-79448150D01*
X272375611Y-79449009D01*
X272362458Y-79450074D01*
X272348598Y-79451345D01*
X272334032Y-79452821D01*
X272318761Y-79454504D01*
X272302784Y-79456394D01*
X272286101Y-79458489D01*
X272939695Y-79291720D01*
X272939695Y-79193827D01*
X272286101Y-79026472D01*
X272303083Y-79028515D01*
X272319297Y-79030357D01*
X272334743Y-79031997D01*
X272349422Y-79033437D01*
X272363333Y-79034676D01*
X272376477Y-79035715D01*
X272388853Y-79036552D01*
X272404160Y-79037356D01*
X272418103Y-79037802D01*
X272427664Y-79037903D01*
X273071000Y-79037903D01*
X273071000Y-78852376D01*
X271776708Y-78852376D01*
X271776708Y-79034678D01*
X272484230Y-79237498D01*
X272496245Y-79239541D01*
X272508218Y-79240661D01*
X272521160Y-79241509D01*
X272533834Y-79242138D01*
X272542263Y-79242480D01*
X272529377Y-79242874D01*
X272517496Y-79243726D01*
X272503988Y-79245054D01*
X272491115Y-79246572D01*
X272484230Y-79247463D01*
X271776708Y-79449989D01*
X271776708Y-79632292D01*
X273071000Y-79632292D01*
G37*
G36*
X273071000Y-79924504D02*
G01*
X272845905Y-79963192D01*
X272845905Y-80204699D01*
X273071000Y-80243387D01*
X273071000Y-80434776D01*
X271776708Y-80186528D01*
X271776708Y-80083653D01*
X272075954Y-80083653D01*
X272658327Y-80177442D01*
X272658327Y-79988691D01*
X272075954Y-80083653D01*
X271776708Y-80083653D01*
X271776708Y-79983709D01*
X273067775Y-79733995D01*
X273071000Y-79733995D01*
X273071000Y-79924504D01*
G37*
G36*
X273071000Y-80931566D02*
G01*
X273070746Y-80945707D01*
X273069987Y-80959479D01*
X273068722Y-80972882D01*
X273066951Y-80985916D01*
X273064674Y-80998582D01*
X273061891Y-81010879D01*
X273058602Y-81022808D01*
X273054806Y-81034368D01*
X273050505Y-81045559D01*
X273045697Y-81056382D01*
X273037538Y-81071925D01*
X273028239Y-81086638D01*
X273017802Y-81100522D01*
X273006226Y-81113576D01*
X272993596Y-81125675D01*
X272980106Y-81136585D01*
X272965755Y-81146304D01*
X272950544Y-81154833D01*
X272939925Y-81159858D01*
X272928923Y-81164354D01*
X272917540Y-81168321D01*
X272905774Y-81171759D01*
X272893625Y-81174668D01*
X272881095Y-81177049D01*
X272868181Y-81178900D01*
X272854886Y-81180222D01*
X272841208Y-81181016D01*
X272827147Y-81181280D01*
X272020560Y-81181280D01*
X272013518Y-81181214D01*
X271999717Y-81180685D01*
X271986295Y-81179627D01*
X271973250Y-81178040D01*
X271960583Y-81175925D01*
X271948294Y-81173280D01*
X271936382Y-81170106D01*
X271924849Y-81166404D01*
X271913693Y-81162172D01*
X271897668Y-81154833D01*
X271882492Y-81146304D01*
X271868167Y-81136585D01*
X271854692Y-81125675D01*
X271842067Y-81113576D01*
X271838046Y-81109317D01*
X271826749Y-81095986D01*
X271816600Y-81081826D01*
X271807600Y-81066836D01*
X271802239Y-81056382D01*
X271797388Y-81045559D01*
X271793048Y-81034368D01*
X271789218Y-81022808D01*
X271785899Y-81010879D01*
X271783091Y-80998582D01*
X271780793Y-80985916D01*
X271779006Y-80972882D01*
X271777729Y-80959479D01*
X271776963Y-80945707D01*
X271776708Y-80931566D01*
X271776708Y-80731385D01*
X271964286Y-80731385D01*
X271964286Y-80874706D01*
X271964690Y-80888371D01*
X271965903Y-80901153D01*
X271969237Y-80918674D01*
X271974390Y-80934212D01*
X271981361Y-80947766D01*
X271990152Y-80959337D01*
X272000760Y-80968924D01*
X272013188Y-80976527D01*
X272027434Y-80982147D01*
X272043499Y-80985783D01*
X272055219Y-80987106D01*
X272067748Y-80987547D01*
X272778201Y-80987547D01*
X272784675Y-80987432D01*
X272797005Y-80986511D01*
X272813959Y-80983404D01*
X272829064Y-80978227D01*
X272842320Y-80970978D01*
X272853725Y-80961658D01*
X272863281Y-80950267D01*
X272870988Y-80936805D01*
X272876845Y-80921271D01*
X272879722Y-80909765D01*
X272881777Y-80897339D01*
X272883010Y-80883991D01*
X272883421Y-80869724D01*
X272883421Y-80731385D01*
X271964286Y-80731385D01*
X271776708Y-80731385D01*
X271776708Y-80538237D01*
X273071000Y-80538237D01*
X273071000Y-80931566D01*
G37*
G36*
X273071000Y-81861252D02*
G01*
X273071000Y-81326067D01*
X271776708Y-81326067D01*
X271776708Y-81856270D01*
X271964286Y-81856270D01*
X271964286Y-81519214D01*
X272320685Y-81519214D01*
X272320685Y-81809375D01*
X272508264Y-81809375D01*
X272508264Y-81519214D01*
X272883421Y-81519214D01*
X272883421Y-81861252D01*
X273071000Y-81861252D01*
G37*
G36*
X273071000Y-82531845D02*
G01*
X273071000Y-82338991D01*
X271776708Y-82338991D01*
X271776708Y-82531845D01*
X273071000Y-82531845D01*
G37*
G36*
X273071000Y-83341071D02*
G01*
X273071000Y-83171957D01*
X272256498Y-82862745D01*
X272270974Y-82865699D01*
X272284654Y-82868259D01*
X272297536Y-82870425D01*
X272309621Y-82872198D01*
X272323608Y-82873859D01*
X272336349Y-82874905D01*
X272349995Y-82875348D01*
X273071000Y-82875348D01*
X273071000Y-82687184D01*
X271776708Y-82687184D01*
X271776708Y-82856297D01*
X272574796Y-83165509D01*
X272560320Y-83162555D01*
X272546641Y-83159995D01*
X272533758Y-83157829D01*
X272521673Y-83156057D01*
X272507687Y-83154395D01*
X272494945Y-83153349D01*
X272481300Y-83152906D01*
X271776708Y-83152906D01*
X271776708Y-83341071D01*
X273071000Y-83341071D01*
G37*
G36*
X273071000Y-84487644D02*
G01*
X273071000Y-84275153D01*
X272498299Y-84030422D01*
X273071000Y-84030422D01*
X273071000Y-83837274D01*
X271776708Y-83837274D01*
X271776708Y-84030422D01*
X272329185Y-84030422D01*
X271776708Y-84244672D01*
X271776708Y-84455697D01*
X271785794Y-84455697D01*
X272405096Y-84193381D01*
X273071000Y-84487644D01*
G37*
G36*
X273071000Y-85095809D02*
G01*
X273071000Y-84560624D01*
X271776708Y-84560624D01*
X271776708Y-85090826D01*
X271964286Y-85090826D01*
X271964286Y-84753771D01*
X272320685Y-84753771D01*
X272320685Y-85043932D01*
X272508264Y-85043932D01*
X272508264Y-84753771D01*
X272883421Y-84753771D01*
X272883421Y-85095809D01*
X273071000Y-85095809D01*
G37*
G36*
X273071000Y-85878070D02*
G01*
X273071000Y-85708956D01*
X272256498Y-85399745D01*
X272270974Y-85402699D01*
X272284654Y-85405259D01*
X272297536Y-85407425D01*
X272309621Y-85409197D01*
X272323608Y-85410859D01*
X272336349Y-85411905D01*
X272349995Y-85412348D01*
X273071000Y-85412348D01*
X273071000Y-85224183D01*
X271776708Y-85224183D01*
X271776708Y-85393297D01*
X272574796Y-85702508D01*
X272560320Y-85699554D01*
X272546641Y-85696994D01*
X272533758Y-85694828D01*
X272521673Y-85693056D01*
X272507687Y-85691395D01*
X272494945Y-85690348D01*
X272481300Y-85689905D01*
X271776708Y-85689905D01*
X271776708Y-85878070D01*
X273071000Y-85878070D01*
G37*
G36*
X271784328Y-86677330D02*
G01*
X272325082Y-86506751D01*
X272341105Y-86500675D01*
X272352861Y-86496407D01*
X272365476Y-86491965D01*
X272378949Y-86487349D01*
X272393280Y-86482558D01*
X272408471Y-86477594D01*
X272424520Y-86472456D01*
X272441427Y-86467144D01*
X272459194Y-86461657D01*
X272477819Y-86455997D01*
X272497303Y-86450163D01*
X272517645Y-86444154D01*
X272538846Y-86437972D01*
X272560906Y-86431615D01*
X272572258Y-86428372D01*
X272583824Y-86425085D01*
X272595605Y-86421755D01*
X273071000Y-86421755D01*
X273071000Y-86228021D01*
X272595605Y-86228021D01*
X272583448Y-86225448D01*
X272571157Y-86222673D01*
X272558732Y-86219698D01*
X272546174Y-86216522D01*
X272533481Y-86213145D01*
X272520654Y-86209567D01*
X272507693Y-86205788D01*
X272494599Y-86201808D01*
X272481370Y-86197627D01*
X272468007Y-86193245D01*
X272459025Y-86190212D01*
X272444076Y-86184910D01*
X272430004Y-86179922D01*
X272416809Y-86175248D01*
X272404491Y-86170887D01*
X272393050Y-86166839D01*
X272377533Y-86161357D01*
X272363990Y-86156580D01*
X272352419Y-86152509D01*
X272340061Y-86148179D01*
X272328102Y-86144037D01*
X272325082Y-86143025D01*
X271784035Y-85973325D01*
X271776708Y-85973325D01*
X271776708Y-86172041D01*
X272340030Y-86326207D01*
X271776708Y-86479494D01*
X271776708Y-86677330D01*
X271784328Y-86677330D01*
G37*
G36*
X273071000Y-86915321D02*
G01*
X272845905Y-86954009D01*
X272845905Y-87195516D01*
X273071000Y-87234204D01*
X273071000Y-87425593D01*
X271776708Y-87177344D01*
X271776708Y-87074469D01*
X272075954Y-87074469D01*
X272658327Y-87168258D01*
X272658327Y-86979508D01*
X272075954Y-87074469D01*
X271776708Y-87074469D01*
X271776708Y-86974525D01*
X273067775Y-86724811D01*
X273071000Y-86724811D01*
X273071000Y-86915321D01*
G37*
D11*
X272044819Y-88177255D02*
X272044819Y-88272493D01*
X272044819Y-88272493D02*
X272092438Y-88367731D01*
X272092438Y-88367731D02*
X272140057Y-88415350D01*
X272140057Y-88415350D02*
X272235295Y-88462969D01*
X272235295Y-88462969D02*
X272425771Y-88510588D01*
X272425771Y-88510588D02*
X272663866Y-88510588D01*
X272663866Y-88510588D02*
X272854342Y-88462969D01*
X272854342Y-88462969D02*
X272949580Y-88415350D01*
X272949580Y-88415350D02*
X272997200Y-88367731D01*
X272997200Y-88367731D02*
X273044819Y-88272493D01*
X273044819Y-88272493D02*
X273044819Y-88177255D01*
X273044819Y-88177255D02*
X272997200Y-88082017D01*
X272997200Y-88082017D02*
X272949580Y-88034398D01*
X272949580Y-88034398D02*
X272854342Y-87986779D01*
X272854342Y-87986779D02*
X272663866Y-87939160D01*
X272663866Y-87939160D02*
X272425771Y-87939160D01*
X272425771Y-87939160D02*
X272235295Y-87986779D01*
X272235295Y-87986779D02*
X272140057Y-88034398D01*
X272140057Y-88034398D02*
X272092438Y-88082017D01*
X272092438Y-88082017D02*
X272044819Y-88177255D01*
X272044819Y-89129636D02*
X272044819Y-89224874D01*
X272044819Y-89224874D02*
X272092438Y-89320112D01*
X272092438Y-89320112D02*
X272140057Y-89367731D01*
X272140057Y-89367731D02*
X272235295Y-89415350D01*
X272235295Y-89415350D02*
X272425771Y-89462969D01*
X272425771Y-89462969D02*
X272663866Y-89462969D01*
X272663866Y-89462969D02*
X272854342Y-89415350D01*
X272854342Y-89415350D02*
X272949580Y-89367731D01*
X272949580Y-89367731D02*
X272997200Y-89320112D01*
X272997200Y-89320112D02*
X273044819Y-89224874D01*
X273044819Y-89224874D02*
X273044819Y-89129636D01*
X273044819Y-89129636D02*
X272997200Y-89034398D01*
X272997200Y-89034398D02*
X272949580Y-88986779D01*
X272949580Y-88986779D02*
X272854342Y-88939160D01*
X272854342Y-88939160D02*
X272663866Y-88891541D01*
X272663866Y-88891541D02*
X272425771Y-88891541D01*
X272425771Y-88891541D02*
X272235295Y-88939160D01*
X272235295Y-88939160D02*
X272140057Y-88986779D01*
X272140057Y-88986779D02*
X272092438Y-89034398D01*
X272092438Y-89034398D02*
X272044819Y-89129636D01*
X273044819Y-90415350D02*
X273044819Y-89843922D01*
X273044819Y-90129636D02*
X272044819Y-90129636D01*
X272044819Y-90129636D02*
X272187676Y-90034398D01*
X272187676Y-90034398D02*
X272282914Y-89939160D01*
X272282914Y-89939160D02*
X272330533Y-89843922D01*
X272140057Y-90796303D02*
X272092438Y-90843922D01*
X272092438Y-90843922D02*
X272044819Y-90939160D01*
X272044819Y-90939160D02*
X272044819Y-91177255D01*
X272044819Y-91177255D02*
X272092438Y-91272493D01*
X272092438Y-91272493D02*
X272140057Y-91320112D01*
X272140057Y-91320112D02*
X272235295Y-91367731D01*
X272235295Y-91367731D02*
X272330533Y-91367731D01*
X272330533Y-91367731D02*
X272473390Y-91320112D01*
X272473390Y-91320112D02*
X273044819Y-90748684D01*
X273044819Y-90748684D02*
X273044819Y-91367731D01*
X273044819Y-92320112D02*
X273044819Y-91748684D01*
X273044819Y-92034398D02*
X272044819Y-92034398D01*
X272044819Y-92034398D02*
X272187676Y-91939160D01*
X272187676Y-91939160D02*
X272282914Y-91843922D01*
X272282914Y-91843922D02*
X272330533Y-91748684D01*
X273044819Y-93272493D02*
X273044819Y-92701065D01*
X273044819Y-92986779D02*
X272044819Y-92986779D01*
X272044819Y-92986779D02*
X272187676Y-92891541D01*
X272187676Y-92891541D02*
X272282914Y-92796303D01*
X272282914Y-92796303D02*
X272330533Y-92701065D01*
X272140057Y-93653446D02*
X272092438Y-93701065D01*
X272092438Y-93701065D02*
X272044819Y-93796303D01*
X272044819Y-93796303D02*
X272044819Y-94034398D01*
X272044819Y-94034398D02*
X272092438Y-94129636D01*
X272092438Y-94129636D02*
X272140057Y-94177255D01*
X272140057Y-94177255D02*
X272235295Y-94224874D01*
X272235295Y-94224874D02*
X272330533Y-94224874D01*
X272330533Y-94224874D02*
X272473390Y-94177255D01*
X272473390Y-94177255D02*
X273044819Y-93605827D01*
X273044819Y-93605827D02*
X273044819Y-94224874D01*
X272140057Y-94605827D02*
X272092438Y-94653446D01*
X272092438Y-94653446D02*
X272044819Y-94748684D01*
X272044819Y-94748684D02*
X272044819Y-94986779D01*
X272044819Y-94986779D02*
X272092438Y-95082017D01*
X272092438Y-95082017D02*
X272140057Y-95129636D01*
X272140057Y-95129636D02*
X272235295Y-95177255D01*
X272235295Y-95177255D02*
X272330533Y-95177255D01*
X272330533Y-95177255D02*
X272473390Y-95129636D01*
X272473390Y-95129636D02*
X273044819Y-94558208D01*
X273044819Y-94558208D02*
X273044819Y-95177255D01*
X272044819Y-95510589D02*
X272044819Y-96129636D01*
X272044819Y-96129636D02*
X272425771Y-95796303D01*
X272425771Y-95796303D02*
X272425771Y-95939160D01*
X272425771Y-95939160D02*
X272473390Y-96034398D01*
X272473390Y-96034398D02*
X272521009Y-96082017D01*
X272521009Y-96082017D02*
X272616247Y-96129636D01*
X272616247Y-96129636D02*
X272854342Y-96129636D01*
X272854342Y-96129636D02*
X272949580Y-96082017D01*
X272949580Y-96082017D02*
X272997200Y-96034398D01*
X272997200Y-96034398D02*
X273044819Y-95939160D01*
X273044819Y-95939160D02*
X273044819Y-95653446D01*
X273044819Y-95653446D02*
X272997200Y-95558208D01*
X272997200Y-95558208D02*
X272949580Y-95510589D01*
X246148935Y-67156200D02*
X246034649Y-67194295D01*
X246034649Y-67194295D02*
X245844173Y-67194295D01*
X245844173Y-67194295D02*
X245767982Y-67156200D01*
X245767982Y-67156200D02*
X245729887Y-67118104D01*
X245729887Y-67118104D02*
X245691792Y-67041914D01*
X245691792Y-67041914D02*
X245691792Y-66965723D01*
X245691792Y-66965723D02*
X245729887Y-66889533D01*
X245729887Y-66889533D02*
X245767982Y-66851438D01*
X245767982Y-66851438D02*
X245844173Y-66813342D01*
X245844173Y-66813342D02*
X245996554Y-66775247D01*
X245996554Y-66775247D02*
X246072744Y-66737152D01*
X246072744Y-66737152D02*
X246110839Y-66699057D01*
X246110839Y-66699057D02*
X246148935Y-66622866D01*
X246148935Y-66622866D02*
X246148935Y-66546676D01*
X246148935Y-66546676D02*
X246110839Y-66470485D01*
X246110839Y-66470485D02*
X246072744Y-66432390D01*
X246072744Y-66432390D02*
X245996554Y-66394295D01*
X245996554Y-66394295D02*
X245806077Y-66394295D01*
X245806077Y-66394295D02*
X245691792Y-66432390D01*
X245463220Y-66394295D02*
X245006077Y-66394295D01*
X245234649Y-67194295D02*
X245234649Y-66394295D01*
X244777506Y-66965723D02*
X244396553Y-66965723D01*
X244853696Y-67194295D02*
X244587029Y-66394295D01*
X244587029Y-66394295D02*
X244320363Y-67194295D01*
X244167982Y-66394295D02*
X243710839Y-66394295D01*
X243939411Y-67194295D02*
X243939411Y-66394295D01*
X243444172Y-66394295D02*
X243444172Y-67041914D01*
X243444172Y-67041914D02*
X243406077Y-67118104D01*
X243406077Y-67118104D02*
X243367982Y-67156200D01*
X243367982Y-67156200D02*
X243291791Y-67194295D01*
X243291791Y-67194295D02*
X243139410Y-67194295D01*
X243139410Y-67194295D02*
X243063220Y-67156200D01*
X243063220Y-67156200D02*
X243025125Y-67118104D01*
X243025125Y-67118104D02*
X242987029Y-67041914D01*
X242987029Y-67041914D02*
X242987029Y-66394295D01*
X242644173Y-67156200D02*
X242529887Y-67194295D01*
X242529887Y-67194295D02*
X242339411Y-67194295D01*
X242339411Y-67194295D02*
X242263220Y-67156200D01*
X242263220Y-67156200D02*
X242225125Y-67118104D01*
X242225125Y-67118104D02*
X242187030Y-67041914D01*
X242187030Y-67041914D02*
X242187030Y-66965723D01*
X242187030Y-66965723D02*
X242225125Y-66889533D01*
X242225125Y-66889533D02*
X242263220Y-66851438D01*
X242263220Y-66851438D02*
X242339411Y-66813342D01*
X242339411Y-66813342D02*
X242491792Y-66775247D01*
X242491792Y-66775247D02*
X242567982Y-66737152D01*
X242567982Y-66737152D02*
X242606077Y-66699057D01*
X242606077Y-66699057D02*
X242644173Y-66622866D01*
X242644173Y-66622866D02*
X242644173Y-66546676D01*
X242644173Y-66546676D02*
X242606077Y-66470485D01*
X242606077Y-66470485D02*
X242567982Y-66432390D01*
X242567982Y-66432390D02*
X242491792Y-66394295D01*
X242491792Y-66394295D02*
X242301315Y-66394295D01*
X242301315Y-66394295D02*
X242187030Y-66432390D01*
X230810839Y-80135961D02*
X230810839Y-80935961D01*
X230810839Y-80174057D02*
X230734649Y-80135961D01*
X230734649Y-80135961D02*
X230582268Y-80135961D01*
X230582268Y-80135961D02*
X230506077Y-80174057D01*
X230506077Y-80174057D02*
X230467982Y-80212152D01*
X230467982Y-80212152D02*
X230429887Y-80288342D01*
X230429887Y-80288342D02*
X230429887Y-80516914D01*
X230429887Y-80516914D02*
X230467982Y-80593104D01*
X230467982Y-80593104D02*
X230506077Y-80631200D01*
X230506077Y-80631200D02*
X230582268Y-80669295D01*
X230582268Y-80669295D02*
X230734649Y-80669295D01*
X230734649Y-80669295D02*
X230810839Y-80631200D01*
X230163220Y-80135961D02*
X230010839Y-80669295D01*
X230010839Y-80669295D02*
X229858458Y-80288342D01*
X229858458Y-80288342D02*
X229706077Y-80669295D01*
X229706077Y-80669295D02*
X229553696Y-80135961D01*
X229248934Y-80669295D02*
X229248934Y-80135961D01*
X229248934Y-80288342D02*
X229210839Y-80212152D01*
X229210839Y-80212152D02*
X229172744Y-80174057D01*
X229172744Y-80174057D02*
X229096553Y-80135961D01*
X229096553Y-80135961D02*
X229020363Y-80135961D01*
X228144172Y-80669295D02*
X228144172Y-80135961D01*
X228144172Y-79869295D02*
X228182268Y-79907390D01*
X228182268Y-79907390D02*
X228144172Y-79945485D01*
X228144172Y-79945485D02*
X228106077Y-79907390D01*
X228106077Y-79907390D02*
X228144172Y-79869295D01*
X228144172Y-79869295D02*
X228144172Y-79945485D01*
X227763220Y-80135961D02*
X227763220Y-80669295D01*
X227763220Y-80212152D02*
X227725125Y-80174057D01*
X227725125Y-80174057D02*
X227648935Y-80135961D01*
X227648935Y-80135961D02*
X227534649Y-80135961D01*
X227534649Y-80135961D02*
X227458458Y-80174057D01*
X227458458Y-80174057D02*
X227420363Y-80250247D01*
X227420363Y-80250247D02*
X227420363Y-80669295D01*
X226386104Y-93182142D02*
X226424200Y-93151190D01*
X226424200Y-93151190D02*
X226462295Y-93058332D01*
X226462295Y-93058332D02*
X226462295Y-92996428D01*
X226462295Y-92996428D02*
X226424200Y-92903571D01*
X226424200Y-92903571D02*
X226348009Y-92841666D01*
X226348009Y-92841666D02*
X226271819Y-92810713D01*
X226271819Y-92810713D02*
X226119438Y-92779761D01*
X226119438Y-92779761D02*
X226005152Y-92779761D01*
X226005152Y-92779761D02*
X225852771Y-92810713D01*
X225852771Y-92810713D02*
X225776580Y-92841666D01*
X225776580Y-92841666D02*
X225700390Y-92903571D01*
X225700390Y-92903571D02*
X225662295Y-92996428D01*
X225662295Y-92996428D02*
X225662295Y-93058332D01*
X225662295Y-93058332D02*
X225700390Y-93151190D01*
X225700390Y-93151190D02*
X225738485Y-93182142D01*
X225738485Y-93429761D02*
X225700390Y-93460713D01*
X225700390Y-93460713D02*
X225662295Y-93522618D01*
X225662295Y-93522618D02*
X225662295Y-93677380D01*
X225662295Y-93677380D02*
X225700390Y-93739285D01*
X225700390Y-93739285D02*
X225738485Y-93770237D01*
X225738485Y-93770237D02*
X225814676Y-93801190D01*
X225814676Y-93801190D02*
X225890866Y-93801190D01*
X225890866Y-93801190D02*
X226005152Y-93770237D01*
X226005152Y-93770237D02*
X226462295Y-93398809D01*
X226462295Y-93398809D02*
X226462295Y-93801190D01*
X225928961Y-94358333D02*
X226462295Y-94358333D01*
X225624200Y-94203571D02*
X226195628Y-94048809D01*
X226195628Y-94048809D02*
X226195628Y-94451190D01*
X250108332Y-106637295D02*
X250374999Y-106256342D01*
X250565475Y-106637295D02*
X250565475Y-105837295D01*
X250565475Y-105837295D02*
X250260713Y-105837295D01*
X250260713Y-105837295D02*
X250184523Y-105875390D01*
X250184523Y-105875390D02*
X250146428Y-105913485D01*
X250146428Y-105913485D02*
X250108332Y-105989676D01*
X250108332Y-105989676D02*
X250108332Y-106103961D01*
X250108332Y-106103961D02*
X250146428Y-106180152D01*
X250146428Y-106180152D02*
X250184523Y-106218247D01*
X250184523Y-106218247D02*
X250260713Y-106256342D01*
X250260713Y-106256342D02*
X250565475Y-106256342D01*
X249422618Y-105837295D02*
X249574999Y-105837295D01*
X249574999Y-105837295D02*
X249651190Y-105875390D01*
X249651190Y-105875390D02*
X249689285Y-105913485D01*
X249689285Y-105913485D02*
X249765475Y-106027771D01*
X249765475Y-106027771D02*
X249803571Y-106180152D01*
X249803571Y-106180152D02*
X249803571Y-106484914D01*
X249803571Y-106484914D02*
X249765475Y-106561104D01*
X249765475Y-106561104D02*
X249727380Y-106599200D01*
X249727380Y-106599200D02*
X249651190Y-106637295D01*
X249651190Y-106637295D02*
X249498809Y-106637295D01*
X249498809Y-106637295D02*
X249422618Y-106599200D01*
X249422618Y-106599200D02*
X249384523Y-106561104D01*
X249384523Y-106561104D02*
X249346428Y-106484914D01*
X249346428Y-106484914D02*
X249346428Y-106294438D01*
X249346428Y-106294438D02*
X249384523Y-106218247D01*
X249384523Y-106218247D02*
X249422618Y-106180152D01*
X249422618Y-106180152D02*
X249498809Y-106142057D01*
X249498809Y-106142057D02*
X249651190Y-106142057D01*
X249651190Y-106142057D02*
X249727380Y-106180152D01*
X249727380Y-106180152D02*
X249765475Y-106218247D01*
X249765475Y-106218247D02*
X249803571Y-106294438D01*
X264754819Y-74457142D02*
X264278628Y-74123809D01*
X264754819Y-73885714D02*
X263754819Y-73885714D01*
X263754819Y-73885714D02*
X263754819Y-74266666D01*
X263754819Y-74266666D02*
X263802438Y-74361904D01*
X263802438Y-74361904D02*
X263850057Y-74409523D01*
X263850057Y-74409523D02*
X263945295Y-74457142D01*
X263945295Y-74457142D02*
X264088152Y-74457142D01*
X264088152Y-74457142D02*
X264183390Y-74409523D01*
X264183390Y-74409523D02*
X264231009Y-74361904D01*
X264231009Y-74361904D02*
X264278628Y-74266666D01*
X264278628Y-74266666D02*
X264278628Y-73885714D01*
X263754819Y-75361904D02*
X263754819Y-74885714D01*
X263754819Y-74885714D02*
X264231009Y-74838095D01*
X264231009Y-74838095D02*
X264183390Y-74885714D01*
X264183390Y-74885714D02*
X264135771Y-74980952D01*
X264135771Y-74980952D02*
X264135771Y-75219047D01*
X264135771Y-75219047D02*
X264183390Y-75314285D01*
X264183390Y-75314285D02*
X264231009Y-75361904D01*
X264231009Y-75361904D02*
X264326247Y-75409523D01*
X264326247Y-75409523D02*
X264564342Y-75409523D01*
X264564342Y-75409523D02*
X264659580Y-75361904D01*
X264659580Y-75361904D02*
X264707200Y-75314285D01*
X264707200Y-75314285D02*
X264754819Y-75219047D01*
X264754819Y-75219047D02*
X264754819Y-74980952D01*
X264754819Y-74980952D02*
X264707200Y-74885714D01*
X264707200Y-74885714D02*
X264659580Y-74838095D01*
X264754819Y-76361904D02*
X264754819Y-75790476D01*
X264754819Y-76076190D02*
X263754819Y-76076190D01*
X263754819Y-76076190D02*
X263897676Y-75980952D01*
X263897676Y-75980952D02*
X263992914Y-75885714D01*
X263992914Y-75885714D02*
X264040533Y-75790476D01*
X236213095Y-67793509D02*
X236546428Y-67793509D01*
X236546428Y-68317319D02*
X236546428Y-67317319D01*
X236546428Y-67317319D02*
X236070238Y-67317319D01*
X235213095Y-68317319D02*
X235689285Y-68317319D01*
X235689285Y-68317319D02*
X235689285Y-67317319D01*
X234355952Y-68317319D02*
X234927380Y-68317319D01*
X234641666Y-68317319D02*
X234641666Y-67317319D01*
X234641666Y-67317319D02*
X234736904Y-67460176D01*
X234736904Y-67460176D02*
X234832142Y-67555414D01*
X234832142Y-67555414D02*
X234927380Y-67603033D01*
D12*
X234461461Y-71368333D02*
X234461461Y-71973095D01*
X234824318Y-71247381D02*
X233554318Y-71670714D01*
X233554318Y-71670714D02*
X234824318Y-72094048D01*
X234159080Y-72517380D02*
X234159080Y-72940714D01*
X234824318Y-73122142D02*
X234824318Y-72517380D01*
X234824318Y-72517380D02*
X233554318Y-72517380D01*
X233554318Y-72517380D02*
X233554318Y-73122142D01*
X233554318Y-73545476D02*
X233554318Y-74331667D01*
X233554318Y-74331667D02*
X234038127Y-73908333D01*
X234038127Y-73908333D02*
X234038127Y-74089762D01*
X234038127Y-74089762D02*
X234098603Y-74210714D01*
X234098603Y-74210714D02*
X234159080Y-74271190D01*
X234159080Y-74271190D02*
X234280032Y-74331667D01*
X234280032Y-74331667D02*
X234582413Y-74331667D01*
X234582413Y-74331667D02*
X234703365Y-74271190D01*
X234703365Y-74271190D02*
X234763842Y-74210714D01*
X234763842Y-74210714D02*
X234824318Y-74089762D01*
X234824318Y-74089762D02*
X234824318Y-73726905D01*
X234824318Y-73726905D02*
X234763842Y-73605952D01*
X234763842Y-73605952D02*
X234703365Y-73545476D01*
D11*
X235276190Y-78138485D02*
X235352380Y-78100390D01*
X235352380Y-78100390D02*
X235428571Y-78024200D01*
X235428571Y-78024200D02*
X235542857Y-77909914D01*
X235542857Y-77909914D02*
X235619047Y-77871819D01*
X235619047Y-77871819D02*
X235695238Y-77871819D01*
X235657142Y-78062295D02*
X235733333Y-78024200D01*
X235733333Y-78024200D02*
X235809523Y-77948009D01*
X235809523Y-77948009D02*
X235847619Y-77795628D01*
X235847619Y-77795628D02*
X235847619Y-77528961D01*
X235847619Y-77528961D02*
X235809523Y-77376580D01*
X235809523Y-77376580D02*
X235733333Y-77300390D01*
X235733333Y-77300390D02*
X235657142Y-77262295D01*
X235657142Y-77262295D02*
X235504761Y-77262295D01*
X235504761Y-77262295D02*
X235428571Y-77300390D01*
X235428571Y-77300390D02*
X235352380Y-77376580D01*
X235352380Y-77376580D02*
X235314285Y-77528961D01*
X235314285Y-77528961D02*
X235314285Y-77795628D01*
X235314285Y-77795628D02*
X235352380Y-77948009D01*
X235352380Y-77948009D02*
X235428571Y-78024200D01*
X235428571Y-78024200D02*
X235504761Y-78062295D01*
X235504761Y-78062295D02*
X235657142Y-78062295D01*
X235009524Y-77338485D02*
X234971428Y-77300390D01*
X234971428Y-77300390D02*
X234895238Y-77262295D01*
X234895238Y-77262295D02*
X234704762Y-77262295D01*
X234704762Y-77262295D02*
X234628571Y-77300390D01*
X234628571Y-77300390D02*
X234590476Y-77338485D01*
X234590476Y-77338485D02*
X234552381Y-77414676D01*
X234552381Y-77414676D02*
X234552381Y-77490866D01*
X234552381Y-77490866D02*
X234590476Y-77605152D01*
X234590476Y-77605152D02*
X235047619Y-78062295D01*
X235047619Y-78062295D02*
X234552381Y-78062295D01*
X264412295Y-97878571D02*
X263612295Y-97878571D01*
X263612295Y-97878571D02*
X263612295Y-98069047D01*
X263612295Y-98069047D02*
X263650390Y-98183333D01*
X263650390Y-98183333D02*
X263726580Y-98259523D01*
X263726580Y-98259523D02*
X263802771Y-98297618D01*
X263802771Y-98297618D02*
X263955152Y-98335714D01*
X263955152Y-98335714D02*
X264069438Y-98335714D01*
X264069438Y-98335714D02*
X264221819Y-98297618D01*
X264221819Y-98297618D02*
X264298009Y-98259523D01*
X264298009Y-98259523D02*
X264374200Y-98183333D01*
X264374200Y-98183333D02*
X264412295Y-98069047D01*
X264412295Y-98069047D02*
X264412295Y-97878571D01*
X264412295Y-99097618D02*
X264412295Y-98640475D01*
X264412295Y-98869047D02*
X263612295Y-98869047D01*
X263612295Y-98869047D02*
X263726580Y-98792856D01*
X263726580Y-98792856D02*
X263802771Y-98716666D01*
X263802771Y-98716666D02*
X263840866Y-98640475D01*
X263612295Y-99592857D02*
X263612295Y-99669047D01*
X263612295Y-99669047D02*
X263650390Y-99745238D01*
X263650390Y-99745238D02*
X263688485Y-99783333D01*
X263688485Y-99783333D02*
X263764676Y-99821428D01*
X263764676Y-99821428D02*
X263917057Y-99859523D01*
X263917057Y-99859523D02*
X264107533Y-99859523D01*
X264107533Y-99859523D02*
X264259914Y-99821428D01*
X264259914Y-99821428D02*
X264336104Y-99783333D01*
X264336104Y-99783333D02*
X264374200Y-99745238D01*
X264374200Y-99745238D02*
X264412295Y-99669047D01*
X264412295Y-99669047D02*
X264412295Y-99592857D01*
X264412295Y-99592857D02*
X264374200Y-99516666D01*
X264374200Y-99516666D02*
X264336104Y-99478571D01*
X264336104Y-99478571D02*
X264259914Y-99440476D01*
X264259914Y-99440476D02*
X264107533Y-99402380D01*
X264107533Y-99402380D02*
X263917057Y-99402380D01*
X263917057Y-99402380D02*
X263764676Y-99440476D01*
X263764676Y-99440476D02*
X263688485Y-99478571D01*
X263688485Y-99478571D02*
X263650390Y-99516666D01*
X263650390Y-99516666D02*
X263612295Y-99592857D01*
X260544285Y-91912295D02*
X260810952Y-91531342D01*
X261001428Y-91912295D02*
X261001428Y-91112295D01*
X261001428Y-91112295D02*
X260696666Y-91112295D01*
X260696666Y-91112295D02*
X260620476Y-91150390D01*
X260620476Y-91150390D02*
X260582381Y-91188485D01*
X260582381Y-91188485D02*
X260544285Y-91264676D01*
X260544285Y-91264676D02*
X260544285Y-91378961D01*
X260544285Y-91378961D02*
X260582381Y-91455152D01*
X260582381Y-91455152D02*
X260620476Y-91493247D01*
X260620476Y-91493247D02*
X260696666Y-91531342D01*
X260696666Y-91531342D02*
X261001428Y-91531342D01*
X259782381Y-91912295D02*
X260239524Y-91912295D01*
X260010952Y-91912295D02*
X260010952Y-91112295D01*
X260010952Y-91112295D02*
X260087143Y-91226580D01*
X260087143Y-91226580D02*
X260163333Y-91302771D01*
X260163333Y-91302771D02*
X260239524Y-91340866D01*
X259096666Y-91112295D02*
X259249047Y-91112295D01*
X259249047Y-91112295D02*
X259325238Y-91150390D01*
X259325238Y-91150390D02*
X259363333Y-91188485D01*
X259363333Y-91188485D02*
X259439523Y-91302771D01*
X259439523Y-91302771D02*
X259477619Y-91455152D01*
X259477619Y-91455152D02*
X259477619Y-91759914D01*
X259477619Y-91759914D02*
X259439523Y-91836104D01*
X259439523Y-91836104D02*
X259401428Y-91874200D01*
X259401428Y-91874200D02*
X259325238Y-91912295D01*
X259325238Y-91912295D02*
X259172857Y-91912295D01*
X259172857Y-91912295D02*
X259096666Y-91874200D01*
X259096666Y-91874200D02*
X259058571Y-91836104D01*
X259058571Y-91836104D02*
X259020476Y-91759914D01*
X259020476Y-91759914D02*
X259020476Y-91569438D01*
X259020476Y-91569438D02*
X259058571Y-91493247D01*
X259058571Y-91493247D02*
X259096666Y-91455152D01*
X259096666Y-91455152D02*
X259172857Y-91417057D01*
X259172857Y-91417057D02*
X259325238Y-91417057D01*
X259325238Y-91417057D02*
X259401428Y-91455152D01*
X259401428Y-91455152D02*
X259439523Y-91493247D01*
X259439523Y-91493247D02*
X259477619Y-91569438D01*
X254987295Y-67257142D02*
X254606342Y-67040475D01*
X254987295Y-66885713D02*
X254187295Y-66885713D01*
X254187295Y-66885713D02*
X254187295Y-67133332D01*
X254187295Y-67133332D02*
X254225390Y-67195237D01*
X254225390Y-67195237D02*
X254263485Y-67226190D01*
X254263485Y-67226190D02*
X254339676Y-67257142D01*
X254339676Y-67257142D02*
X254453961Y-67257142D01*
X254453961Y-67257142D02*
X254530152Y-67226190D01*
X254530152Y-67226190D02*
X254568247Y-67195237D01*
X254568247Y-67195237D02*
X254606342Y-67133332D01*
X254606342Y-67133332D02*
X254606342Y-66885713D01*
X254987295Y-67876190D02*
X254987295Y-67504761D01*
X254987295Y-67690475D02*
X254187295Y-67690475D01*
X254187295Y-67690475D02*
X254301580Y-67628571D01*
X254301580Y-67628571D02*
X254377771Y-67566666D01*
X254377771Y-67566666D02*
X254415866Y-67504761D01*
X254987295Y-68185714D02*
X254987295Y-68309523D01*
X254987295Y-68309523D02*
X254949200Y-68371428D01*
X254949200Y-68371428D02*
X254911104Y-68402380D01*
X254911104Y-68402380D02*
X254796819Y-68464285D01*
X254796819Y-68464285D02*
X254644438Y-68495238D01*
X254644438Y-68495238D02*
X254339676Y-68495238D01*
X254339676Y-68495238D02*
X254263485Y-68464285D01*
X254263485Y-68464285D02*
X254225390Y-68433333D01*
X254225390Y-68433333D02*
X254187295Y-68371428D01*
X254187295Y-68371428D02*
X254187295Y-68247619D01*
X254187295Y-68247619D02*
X254225390Y-68185714D01*
X254225390Y-68185714D02*
X254263485Y-68154761D01*
X254263485Y-68154761D02*
X254339676Y-68123809D01*
X254339676Y-68123809D02*
X254530152Y-68123809D01*
X254530152Y-68123809D02*
X254606342Y-68154761D01*
X254606342Y-68154761D02*
X254644438Y-68185714D01*
X254644438Y-68185714D02*
X254682533Y-68247619D01*
X254682533Y-68247619D02*
X254682533Y-68371428D01*
X254682533Y-68371428D02*
X254644438Y-68433333D01*
X254644438Y-68433333D02*
X254606342Y-68464285D01*
X254606342Y-68464285D02*
X254530152Y-68495238D01*
X231895832Y-82842295D02*
X232162499Y-82461342D01*
X232352975Y-82842295D02*
X232352975Y-82042295D01*
X232352975Y-82042295D02*
X232048213Y-82042295D01*
X232048213Y-82042295D02*
X231972023Y-82080390D01*
X231972023Y-82080390D02*
X231933928Y-82118485D01*
X231933928Y-82118485D02*
X231895832Y-82194676D01*
X231895832Y-82194676D02*
X231895832Y-82308961D01*
X231895832Y-82308961D02*
X231933928Y-82385152D01*
X231933928Y-82385152D02*
X231972023Y-82423247D01*
X231972023Y-82423247D02*
X232048213Y-82461342D01*
X232048213Y-82461342D02*
X232352975Y-82461342D01*
X231514880Y-82842295D02*
X231362499Y-82842295D01*
X231362499Y-82842295D02*
X231286309Y-82804200D01*
X231286309Y-82804200D02*
X231248213Y-82766104D01*
X231248213Y-82766104D02*
X231172023Y-82651819D01*
X231172023Y-82651819D02*
X231133928Y-82499438D01*
X231133928Y-82499438D02*
X231133928Y-82194676D01*
X231133928Y-82194676D02*
X231172023Y-82118485D01*
X231172023Y-82118485D02*
X231210118Y-82080390D01*
X231210118Y-82080390D02*
X231286309Y-82042295D01*
X231286309Y-82042295D02*
X231438690Y-82042295D01*
X231438690Y-82042295D02*
X231514880Y-82080390D01*
X231514880Y-82080390D02*
X231552975Y-82118485D01*
X231552975Y-82118485D02*
X231591071Y-82194676D01*
X231591071Y-82194676D02*
X231591071Y-82385152D01*
X231591071Y-82385152D02*
X231552975Y-82461342D01*
X231552975Y-82461342D02*
X231514880Y-82499438D01*
X231514880Y-82499438D02*
X231438690Y-82537533D01*
X231438690Y-82537533D02*
X231286309Y-82537533D01*
X231286309Y-82537533D02*
X231210118Y-82499438D01*
X231210118Y-82499438D02*
X231172023Y-82461342D01*
X231172023Y-82461342D02*
X231133928Y-82385152D01*
X229960832Y-87482295D02*
X230227499Y-87101342D01*
X230417975Y-87482295D02*
X230417975Y-86682295D01*
X230417975Y-86682295D02*
X230113213Y-86682295D01*
X230113213Y-86682295D02*
X230037023Y-86720390D01*
X230037023Y-86720390D02*
X229998928Y-86758485D01*
X229998928Y-86758485D02*
X229960832Y-86834676D01*
X229960832Y-86834676D02*
X229960832Y-86948961D01*
X229960832Y-86948961D02*
X229998928Y-87025152D01*
X229998928Y-87025152D02*
X230037023Y-87063247D01*
X230037023Y-87063247D02*
X230113213Y-87101342D01*
X230113213Y-87101342D02*
X230417975Y-87101342D01*
X229198928Y-87482295D02*
X229656071Y-87482295D01*
X229427499Y-87482295D02*
X229427499Y-86682295D01*
X229427499Y-86682295D02*
X229503690Y-86796580D01*
X229503690Y-86796580D02*
X229579880Y-86872771D01*
X229579880Y-86872771D02*
X229656071Y-86910866D01*
X227486104Y-93282142D02*
X227524200Y-93251190D01*
X227524200Y-93251190D02*
X227562295Y-93158332D01*
X227562295Y-93158332D02*
X227562295Y-93096428D01*
X227562295Y-93096428D02*
X227524200Y-93003571D01*
X227524200Y-93003571D02*
X227448009Y-92941666D01*
X227448009Y-92941666D02*
X227371819Y-92910713D01*
X227371819Y-92910713D02*
X227219438Y-92879761D01*
X227219438Y-92879761D02*
X227105152Y-92879761D01*
X227105152Y-92879761D02*
X226952771Y-92910713D01*
X226952771Y-92910713D02*
X226876580Y-92941666D01*
X226876580Y-92941666D02*
X226800390Y-93003571D01*
X226800390Y-93003571D02*
X226762295Y-93096428D01*
X226762295Y-93096428D02*
X226762295Y-93158332D01*
X226762295Y-93158332D02*
X226800390Y-93251190D01*
X226800390Y-93251190D02*
X226838485Y-93282142D01*
X226838485Y-93529761D02*
X226800390Y-93560713D01*
X226800390Y-93560713D02*
X226762295Y-93622618D01*
X226762295Y-93622618D02*
X226762295Y-93777380D01*
X226762295Y-93777380D02*
X226800390Y-93839285D01*
X226800390Y-93839285D02*
X226838485Y-93870237D01*
X226838485Y-93870237D02*
X226914676Y-93901190D01*
X226914676Y-93901190D02*
X226990866Y-93901190D01*
X226990866Y-93901190D02*
X227105152Y-93870237D01*
X227105152Y-93870237D02*
X227562295Y-93498809D01*
X227562295Y-93498809D02*
X227562295Y-93901190D01*
X226762295Y-94489285D02*
X226762295Y-94179761D01*
X226762295Y-94179761D02*
X227143247Y-94148809D01*
X227143247Y-94148809D02*
X227105152Y-94179761D01*
X227105152Y-94179761D02*
X227067057Y-94241666D01*
X227067057Y-94241666D02*
X227067057Y-94396428D01*
X227067057Y-94396428D02*
X227105152Y-94458333D01*
X227105152Y-94458333D02*
X227143247Y-94489285D01*
X227143247Y-94489285D02*
X227219438Y-94520238D01*
X227219438Y-94520238D02*
X227409914Y-94520238D01*
X227409914Y-94520238D02*
X227486104Y-94489285D01*
X227486104Y-94489285D02*
X227524200Y-94458333D01*
X227524200Y-94458333D02*
X227562295Y-94396428D01*
X227562295Y-94396428D02*
X227562295Y-94241666D01*
X227562295Y-94241666D02*
X227524200Y-94179761D01*
X227524200Y-94179761D02*
X227486104Y-94148809D01*
X230938485Y-83273809D02*
X230900390Y-83197619D01*
X230900390Y-83197619D02*
X230824200Y-83121428D01*
X230824200Y-83121428D02*
X230709914Y-83007142D01*
X230709914Y-83007142D02*
X230671819Y-82930952D01*
X230671819Y-82930952D02*
X230671819Y-82854761D01*
X230862295Y-82892857D02*
X230824200Y-82816666D01*
X230824200Y-82816666D02*
X230748009Y-82740476D01*
X230748009Y-82740476D02*
X230595628Y-82702380D01*
X230595628Y-82702380D02*
X230328961Y-82702380D01*
X230328961Y-82702380D02*
X230176580Y-82740476D01*
X230176580Y-82740476D02*
X230100390Y-82816666D01*
X230100390Y-82816666D02*
X230062295Y-82892857D01*
X230062295Y-82892857D02*
X230062295Y-83045238D01*
X230062295Y-83045238D02*
X230100390Y-83121428D01*
X230100390Y-83121428D02*
X230176580Y-83197619D01*
X230176580Y-83197619D02*
X230328961Y-83235714D01*
X230328961Y-83235714D02*
X230595628Y-83235714D01*
X230595628Y-83235714D02*
X230748009Y-83197619D01*
X230748009Y-83197619D02*
X230824200Y-83121428D01*
X230824200Y-83121428D02*
X230862295Y-83045238D01*
X230862295Y-83045238D02*
X230862295Y-82892857D01*
X230862295Y-83997618D02*
X230862295Y-83540475D01*
X230862295Y-83769047D02*
X230062295Y-83769047D01*
X230062295Y-83769047D02*
X230176580Y-83692856D01*
X230176580Y-83692856D02*
X230252771Y-83616666D01*
X230252771Y-83616666D02*
X230290866Y-83540475D01*
X254874819Y-106635714D02*
X254874819Y-106064286D01*
X254874819Y-106350000D02*
X253874819Y-106350000D01*
X253874819Y-106350000D02*
X254017676Y-106254762D01*
X254017676Y-106254762D02*
X254112914Y-106159524D01*
X254112914Y-106159524D02*
X254160533Y-106064286D01*
X255529819Y-101341667D02*
X255529819Y-101960714D01*
X255529819Y-101960714D02*
X255910771Y-101627381D01*
X255910771Y-101627381D02*
X255910771Y-101770238D01*
X255910771Y-101770238D02*
X255958390Y-101865476D01*
X255958390Y-101865476D02*
X256006009Y-101913095D01*
X256006009Y-101913095D02*
X256101247Y-101960714D01*
X256101247Y-101960714D02*
X256339342Y-101960714D01*
X256339342Y-101960714D02*
X256434580Y-101913095D01*
X256434580Y-101913095D02*
X256482200Y-101865476D01*
X256482200Y-101865476D02*
X256529819Y-101770238D01*
X256529819Y-101770238D02*
X256529819Y-101484524D01*
X256529819Y-101484524D02*
X256482200Y-101389286D01*
X256482200Y-101389286D02*
X256434580Y-101341667D01*
X261336104Y-66875714D02*
X261374200Y-66837618D01*
X261374200Y-66837618D02*
X261412295Y-66723333D01*
X261412295Y-66723333D02*
X261412295Y-66647142D01*
X261412295Y-66647142D02*
X261374200Y-66532856D01*
X261374200Y-66532856D02*
X261298009Y-66456666D01*
X261298009Y-66456666D02*
X261221819Y-66418571D01*
X261221819Y-66418571D02*
X261069438Y-66380475D01*
X261069438Y-66380475D02*
X260955152Y-66380475D01*
X260955152Y-66380475D02*
X260802771Y-66418571D01*
X260802771Y-66418571D02*
X260726580Y-66456666D01*
X260726580Y-66456666D02*
X260650390Y-66532856D01*
X260650390Y-66532856D02*
X260612295Y-66647142D01*
X260612295Y-66647142D02*
X260612295Y-66723333D01*
X260612295Y-66723333D02*
X260650390Y-66837618D01*
X260650390Y-66837618D02*
X260688485Y-66875714D01*
X260688485Y-67180475D02*
X260650390Y-67218571D01*
X260650390Y-67218571D02*
X260612295Y-67294761D01*
X260612295Y-67294761D02*
X260612295Y-67485237D01*
X260612295Y-67485237D02*
X260650390Y-67561428D01*
X260650390Y-67561428D02*
X260688485Y-67599523D01*
X260688485Y-67599523D02*
X260764676Y-67637618D01*
X260764676Y-67637618D02*
X260840866Y-67637618D01*
X260840866Y-67637618D02*
X260955152Y-67599523D01*
X260955152Y-67599523D02*
X261412295Y-67142380D01*
X261412295Y-67142380D02*
X261412295Y-67637618D01*
X260612295Y-68132857D02*
X260612295Y-68209047D01*
X260612295Y-68209047D02*
X260650390Y-68285238D01*
X260650390Y-68285238D02*
X260688485Y-68323333D01*
X260688485Y-68323333D02*
X260764676Y-68361428D01*
X260764676Y-68361428D02*
X260917057Y-68399523D01*
X260917057Y-68399523D02*
X261107533Y-68399523D01*
X261107533Y-68399523D02*
X261259914Y-68361428D01*
X261259914Y-68361428D02*
X261336104Y-68323333D01*
X261336104Y-68323333D02*
X261374200Y-68285238D01*
X261374200Y-68285238D02*
X261412295Y-68209047D01*
X261412295Y-68209047D02*
X261412295Y-68132857D01*
X261412295Y-68132857D02*
X261374200Y-68056666D01*
X261374200Y-68056666D02*
X261336104Y-68018571D01*
X261336104Y-68018571D02*
X261259914Y-67980476D01*
X261259914Y-67980476D02*
X261107533Y-67942380D01*
X261107533Y-67942380D02*
X260917057Y-67942380D01*
X260917057Y-67942380D02*
X260764676Y-67980476D01*
X260764676Y-67980476D02*
X260688485Y-68018571D01*
X260688485Y-68018571D02*
X260650390Y-68056666D01*
X260650390Y-68056666D02*
X260612295Y-68132857D01*
D12*
X265591666Y-65586461D02*
X264986904Y-65586461D01*
X265712618Y-65949318D02*
X265289285Y-64679318D01*
X265289285Y-64679318D02*
X264865951Y-65949318D01*
X264442619Y-65284080D02*
X264019285Y-65284080D01*
X263837857Y-65949318D02*
X264442619Y-65949318D01*
X264442619Y-65949318D02*
X264442619Y-64679318D01*
X264442619Y-64679318D02*
X263837857Y-64679318D01*
X263354047Y-64800270D02*
X263293571Y-64739794D01*
X263293571Y-64739794D02*
X263172618Y-64679318D01*
X263172618Y-64679318D02*
X262870237Y-64679318D01*
X262870237Y-64679318D02*
X262749285Y-64739794D01*
X262749285Y-64739794D02*
X262688809Y-64800270D01*
X262688809Y-64800270D02*
X262628332Y-64921222D01*
X262628332Y-64921222D02*
X262628332Y-65042175D01*
X262628332Y-65042175D02*
X262688809Y-65223603D01*
X262688809Y-65223603D02*
X263414523Y-65949318D01*
X263414523Y-65949318D02*
X262628332Y-65949318D01*
D11*
X252934285Y-100966104D02*
X252972381Y-101004200D01*
X252972381Y-101004200D02*
X253086666Y-101042295D01*
X253086666Y-101042295D02*
X253162857Y-101042295D01*
X253162857Y-101042295D02*
X253277143Y-101004200D01*
X253277143Y-101004200D02*
X253353333Y-100928009D01*
X253353333Y-100928009D02*
X253391428Y-100851819D01*
X253391428Y-100851819D02*
X253429524Y-100699438D01*
X253429524Y-100699438D02*
X253429524Y-100585152D01*
X253429524Y-100585152D02*
X253391428Y-100432771D01*
X253391428Y-100432771D02*
X253353333Y-100356580D01*
X253353333Y-100356580D02*
X253277143Y-100280390D01*
X253277143Y-100280390D02*
X253162857Y-100242295D01*
X253162857Y-100242295D02*
X253086666Y-100242295D01*
X253086666Y-100242295D02*
X252972381Y-100280390D01*
X252972381Y-100280390D02*
X252934285Y-100318485D01*
X252667619Y-100242295D02*
X252172381Y-100242295D01*
X252172381Y-100242295D02*
X252439047Y-100547057D01*
X252439047Y-100547057D02*
X252324762Y-100547057D01*
X252324762Y-100547057D02*
X252248571Y-100585152D01*
X252248571Y-100585152D02*
X252210476Y-100623247D01*
X252210476Y-100623247D02*
X252172381Y-100699438D01*
X252172381Y-100699438D02*
X252172381Y-100889914D01*
X252172381Y-100889914D02*
X252210476Y-100966104D01*
X252210476Y-100966104D02*
X252248571Y-101004200D01*
X252248571Y-101004200D02*
X252324762Y-101042295D01*
X252324762Y-101042295D02*
X252553333Y-101042295D01*
X252553333Y-101042295D02*
X252629524Y-101004200D01*
X252629524Y-101004200D02*
X252667619Y-100966104D01*
X251410476Y-101042295D02*
X251867619Y-101042295D01*
X251639047Y-101042295D02*
X251639047Y-100242295D01*
X251639047Y-100242295D02*
X251715238Y-100356580D01*
X251715238Y-100356580D02*
X251791428Y-100432771D01*
X251791428Y-100432771D02*
X251867619Y-100470866D01*
X230112295Y-89604761D02*
X230759914Y-89604761D01*
X230759914Y-89604761D02*
X230836104Y-89635714D01*
X230836104Y-89635714D02*
X230874200Y-89666666D01*
X230874200Y-89666666D02*
X230912295Y-89728571D01*
X230912295Y-89728571D02*
X230912295Y-89852380D01*
X230912295Y-89852380D02*
X230874200Y-89914285D01*
X230874200Y-89914285D02*
X230836104Y-89945238D01*
X230836104Y-89945238D02*
X230759914Y-89976190D01*
X230759914Y-89976190D02*
X230112295Y-89976190D01*
X230112295Y-90595237D02*
X230112295Y-90285713D01*
X230112295Y-90285713D02*
X230493247Y-90254761D01*
X230493247Y-90254761D02*
X230455152Y-90285713D01*
X230455152Y-90285713D02*
X230417057Y-90347618D01*
X230417057Y-90347618D02*
X230417057Y-90502380D01*
X230417057Y-90502380D02*
X230455152Y-90564285D01*
X230455152Y-90564285D02*
X230493247Y-90595237D01*
X230493247Y-90595237D02*
X230569438Y-90626190D01*
X230569438Y-90626190D02*
X230759914Y-90626190D01*
X230759914Y-90626190D02*
X230836104Y-90595237D01*
X230836104Y-90595237D02*
X230874200Y-90564285D01*
X230874200Y-90564285D02*
X230912295Y-90502380D01*
X230912295Y-90502380D02*
X230912295Y-90347618D01*
X230912295Y-90347618D02*
X230874200Y-90285713D01*
X230874200Y-90285713D02*
X230836104Y-90254761D01*
X255937295Y-67182142D02*
X255556342Y-66965475D01*
X255937295Y-66810713D02*
X255137295Y-66810713D01*
X255137295Y-66810713D02*
X255137295Y-67058332D01*
X255137295Y-67058332D02*
X255175390Y-67120237D01*
X255175390Y-67120237D02*
X255213485Y-67151190D01*
X255213485Y-67151190D02*
X255289676Y-67182142D01*
X255289676Y-67182142D02*
X255403961Y-67182142D01*
X255403961Y-67182142D02*
X255480152Y-67151190D01*
X255480152Y-67151190D02*
X255518247Y-67120237D01*
X255518247Y-67120237D02*
X255556342Y-67058332D01*
X255556342Y-67058332D02*
X255556342Y-66810713D01*
X255937295Y-67801190D02*
X255937295Y-67429761D01*
X255937295Y-67615475D02*
X255137295Y-67615475D01*
X255137295Y-67615475D02*
X255251580Y-67553571D01*
X255251580Y-67553571D02*
X255327771Y-67491666D01*
X255327771Y-67491666D02*
X255365866Y-67429761D01*
X255480152Y-68172619D02*
X255442057Y-68110714D01*
X255442057Y-68110714D02*
X255403961Y-68079761D01*
X255403961Y-68079761D02*
X255327771Y-68048809D01*
X255327771Y-68048809D02*
X255289676Y-68048809D01*
X255289676Y-68048809D02*
X255213485Y-68079761D01*
X255213485Y-68079761D02*
X255175390Y-68110714D01*
X255175390Y-68110714D02*
X255137295Y-68172619D01*
X255137295Y-68172619D02*
X255137295Y-68296428D01*
X255137295Y-68296428D02*
X255175390Y-68358333D01*
X255175390Y-68358333D02*
X255213485Y-68389285D01*
X255213485Y-68389285D02*
X255289676Y-68420238D01*
X255289676Y-68420238D02*
X255327771Y-68420238D01*
X255327771Y-68420238D02*
X255403961Y-68389285D01*
X255403961Y-68389285D02*
X255442057Y-68358333D01*
X255442057Y-68358333D02*
X255480152Y-68296428D01*
X255480152Y-68296428D02*
X255480152Y-68172619D01*
X255480152Y-68172619D02*
X255518247Y-68110714D01*
X255518247Y-68110714D02*
X255556342Y-68079761D01*
X255556342Y-68079761D02*
X255632533Y-68048809D01*
X255632533Y-68048809D02*
X255784914Y-68048809D01*
X255784914Y-68048809D02*
X255861104Y-68079761D01*
X255861104Y-68079761D02*
X255899200Y-68110714D01*
X255899200Y-68110714D02*
X255937295Y-68172619D01*
X255937295Y-68172619D02*
X255937295Y-68296428D01*
X255937295Y-68296428D02*
X255899200Y-68358333D01*
X255899200Y-68358333D02*
X255861104Y-68389285D01*
X255861104Y-68389285D02*
X255784914Y-68420238D01*
X255784914Y-68420238D02*
X255632533Y-68420238D01*
X255632533Y-68420238D02*
X255556342Y-68389285D01*
X255556342Y-68389285D02*
X255518247Y-68358333D01*
X255518247Y-68358333D02*
X255480152Y-68296428D01*
X224609795Y-84789524D02*
X223809795Y-84789524D01*
X223809795Y-84789524D02*
X223809795Y-84980000D01*
X223809795Y-84980000D02*
X223847890Y-85094286D01*
X223847890Y-85094286D02*
X223924080Y-85170476D01*
X223924080Y-85170476D02*
X224000271Y-85208571D01*
X224000271Y-85208571D02*
X224152652Y-85246667D01*
X224152652Y-85246667D02*
X224266938Y-85246667D01*
X224266938Y-85246667D02*
X224419319Y-85208571D01*
X224419319Y-85208571D02*
X224495509Y-85170476D01*
X224495509Y-85170476D02*
X224571700Y-85094286D01*
X224571700Y-85094286D02*
X224609795Y-84980000D01*
X224609795Y-84980000D02*
X224609795Y-84789524D01*
X224609795Y-86008571D02*
X224609795Y-85551428D01*
X224609795Y-85780000D02*
X223809795Y-85780000D01*
X223809795Y-85780000D02*
X223924080Y-85703809D01*
X223924080Y-85703809D02*
X224000271Y-85627619D01*
X224000271Y-85627619D02*
X224038366Y-85551428D01*
X231567857Y-97086104D02*
X231598809Y-97124200D01*
X231598809Y-97124200D02*
X231691667Y-97162295D01*
X231691667Y-97162295D02*
X231753571Y-97162295D01*
X231753571Y-97162295D02*
X231846428Y-97124200D01*
X231846428Y-97124200D02*
X231908333Y-97048009D01*
X231908333Y-97048009D02*
X231939286Y-96971819D01*
X231939286Y-96971819D02*
X231970238Y-96819438D01*
X231970238Y-96819438D02*
X231970238Y-96705152D01*
X231970238Y-96705152D02*
X231939286Y-96552771D01*
X231939286Y-96552771D02*
X231908333Y-96476580D01*
X231908333Y-96476580D02*
X231846428Y-96400390D01*
X231846428Y-96400390D02*
X231753571Y-96362295D01*
X231753571Y-96362295D02*
X231691667Y-96362295D01*
X231691667Y-96362295D02*
X231598809Y-96400390D01*
X231598809Y-96400390D02*
X231567857Y-96438485D01*
X231320238Y-96438485D02*
X231289286Y-96400390D01*
X231289286Y-96400390D02*
X231227381Y-96362295D01*
X231227381Y-96362295D02*
X231072619Y-96362295D01*
X231072619Y-96362295D02*
X231010714Y-96400390D01*
X231010714Y-96400390D02*
X230979762Y-96438485D01*
X230979762Y-96438485D02*
X230948809Y-96514676D01*
X230948809Y-96514676D02*
X230948809Y-96590866D01*
X230948809Y-96590866D02*
X230979762Y-96705152D01*
X230979762Y-96705152D02*
X231351190Y-97162295D01*
X231351190Y-97162295D02*
X230948809Y-97162295D01*
X230732142Y-96362295D02*
X230298809Y-96362295D01*
X230298809Y-96362295D02*
X230577380Y-97162295D01*
X256489285Y-91212295D02*
X256755952Y-90831342D01*
X256946428Y-91212295D02*
X256946428Y-90412295D01*
X256946428Y-90412295D02*
X256641666Y-90412295D01*
X256641666Y-90412295D02*
X256565476Y-90450390D01*
X256565476Y-90450390D02*
X256527381Y-90488485D01*
X256527381Y-90488485D02*
X256489285Y-90564676D01*
X256489285Y-90564676D02*
X256489285Y-90678961D01*
X256489285Y-90678961D02*
X256527381Y-90755152D01*
X256527381Y-90755152D02*
X256565476Y-90793247D01*
X256565476Y-90793247D02*
X256641666Y-90831342D01*
X256641666Y-90831342D02*
X256946428Y-90831342D01*
X255727381Y-91212295D02*
X256184524Y-91212295D01*
X255955952Y-91212295D02*
X255955952Y-90412295D01*
X255955952Y-90412295D02*
X256032143Y-90526580D01*
X256032143Y-90526580D02*
X256108333Y-90602771D01*
X256108333Y-90602771D02*
X256184524Y-90640866D01*
X255003571Y-90412295D02*
X255384523Y-90412295D01*
X255384523Y-90412295D02*
X255422619Y-90793247D01*
X255422619Y-90793247D02*
X255384523Y-90755152D01*
X255384523Y-90755152D02*
X255308333Y-90717057D01*
X255308333Y-90717057D02*
X255117857Y-90717057D01*
X255117857Y-90717057D02*
X255041666Y-90755152D01*
X255041666Y-90755152D02*
X255003571Y-90793247D01*
X255003571Y-90793247D02*
X254965476Y-90869438D01*
X254965476Y-90869438D02*
X254965476Y-91059914D01*
X254965476Y-91059914D02*
X255003571Y-91136104D01*
X255003571Y-91136104D02*
X255041666Y-91174200D01*
X255041666Y-91174200D02*
X255117857Y-91212295D01*
X255117857Y-91212295D02*
X255308333Y-91212295D01*
X255308333Y-91212295D02*
X255384523Y-91174200D01*
X255384523Y-91174200D02*
X255422619Y-91136104D01*
X236152295Y-90255714D02*
X235771342Y-89989047D01*
X236152295Y-89798571D02*
X235352295Y-89798571D01*
X235352295Y-89798571D02*
X235352295Y-90103333D01*
X235352295Y-90103333D02*
X235390390Y-90179523D01*
X235390390Y-90179523D02*
X235428485Y-90217618D01*
X235428485Y-90217618D02*
X235504676Y-90255714D01*
X235504676Y-90255714D02*
X235618961Y-90255714D01*
X235618961Y-90255714D02*
X235695152Y-90217618D01*
X235695152Y-90217618D02*
X235733247Y-90179523D01*
X235733247Y-90179523D02*
X235771342Y-90103333D01*
X235771342Y-90103333D02*
X235771342Y-89798571D01*
X235618961Y-90941428D02*
X236152295Y-90941428D01*
X235314200Y-90750952D02*
X235885628Y-90560475D01*
X235885628Y-90560475D02*
X235885628Y-91055714D01*
X236152295Y-91779523D02*
X236152295Y-91322380D01*
X236152295Y-91550952D02*
X235352295Y-91550952D01*
X235352295Y-91550952D02*
X235466580Y-91474761D01*
X235466580Y-91474761D02*
X235542771Y-91398571D01*
X235542771Y-91398571D02*
X235580866Y-91322380D01*
X251926104Y-67025714D02*
X251964200Y-66987618D01*
X251964200Y-66987618D02*
X252002295Y-66873333D01*
X252002295Y-66873333D02*
X252002295Y-66797142D01*
X252002295Y-66797142D02*
X251964200Y-66682856D01*
X251964200Y-66682856D02*
X251888009Y-66606666D01*
X251888009Y-66606666D02*
X251811819Y-66568571D01*
X251811819Y-66568571D02*
X251659438Y-66530475D01*
X251659438Y-66530475D02*
X251545152Y-66530475D01*
X251545152Y-66530475D02*
X251392771Y-66568571D01*
X251392771Y-66568571D02*
X251316580Y-66606666D01*
X251316580Y-66606666D02*
X251240390Y-66682856D01*
X251240390Y-66682856D02*
X251202295Y-66797142D01*
X251202295Y-66797142D02*
X251202295Y-66873333D01*
X251202295Y-66873333D02*
X251240390Y-66987618D01*
X251240390Y-66987618D02*
X251278485Y-67025714D01*
X251278485Y-67330475D02*
X251240390Y-67368571D01*
X251240390Y-67368571D02*
X251202295Y-67444761D01*
X251202295Y-67444761D02*
X251202295Y-67635237D01*
X251202295Y-67635237D02*
X251240390Y-67711428D01*
X251240390Y-67711428D02*
X251278485Y-67749523D01*
X251278485Y-67749523D02*
X251354676Y-67787618D01*
X251354676Y-67787618D02*
X251430866Y-67787618D01*
X251430866Y-67787618D02*
X251545152Y-67749523D01*
X251545152Y-67749523D02*
X252002295Y-67292380D01*
X252002295Y-67292380D02*
X252002295Y-67787618D01*
X252002295Y-68549523D02*
X252002295Y-68092380D01*
X252002295Y-68320952D02*
X251202295Y-68320952D01*
X251202295Y-68320952D02*
X251316580Y-68244761D01*
X251316580Y-68244761D02*
X251392771Y-68168571D01*
X251392771Y-68168571D02*
X251430866Y-68092380D01*
X257662295Y-104266667D02*
X257281342Y-104000000D01*
X257662295Y-103809524D02*
X256862295Y-103809524D01*
X256862295Y-103809524D02*
X256862295Y-104114286D01*
X256862295Y-104114286D02*
X256900390Y-104190476D01*
X256900390Y-104190476D02*
X256938485Y-104228571D01*
X256938485Y-104228571D02*
X257014676Y-104266667D01*
X257014676Y-104266667D02*
X257128961Y-104266667D01*
X257128961Y-104266667D02*
X257205152Y-104228571D01*
X257205152Y-104228571D02*
X257243247Y-104190476D01*
X257243247Y-104190476D02*
X257281342Y-104114286D01*
X257281342Y-104114286D02*
X257281342Y-103809524D01*
X257128961Y-104952381D02*
X257662295Y-104952381D01*
X256824200Y-104761905D02*
X257395628Y-104571428D01*
X257395628Y-104571428D02*
X257395628Y-105066667D01*
X249562295Y-102183333D02*
X250133723Y-102183333D01*
X250133723Y-102183333D02*
X250248009Y-102145238D01*
X250248009Y-102145238D02*
X250324200Y-102069047D01*
X250324200Y-102069047D02*
X250362295Y-101954762D01*
X250362295Y-101954762D02*
X250362295Y-101878571D01*
X250362295Y-102564286D02*
X249562295Y-102564286D01*
X249562295Y-102564286D02*
X249562295Y-102869048D01*
X249562295Y-102869048D02*
X249600390Y-102945238D01*
X249600390Y-102945238D02*
X249638485Y-102983333D01*
X249638485Y-102983333D02*
X249714676Y-103021429D01*
X249714676Y-103021429D02*
X249828961Y-103021429D01*
X249828961Y-103021429D02*
X249905152Y-102983333D01*
X249905152Y-102983333D02*
X249943247Y-102945238D01*
X249943247Y-102945238D02*
X249981342Y-102869048D01*
X249981342Y-102869048D02*
X249981342Y-102564286D01*
X249638485Y-103326190D02*
X249600390Y-103364286D01*
X249600390Y-103364286D02*
X249562295Y-103440476D01*
X249562295Y-103440476D02*
X249562295Y-103630952D01*
X249562295Y-103630952D02*
X249600390Y-103707143D01*
X249600390Y-103707143D02*
X249638485Y-103745238D01*
X249638485Y-103745238D02*
X249714676Y-103783333D01*
X249714676Y-103783333D02*
X249790866Y-103783333D01*
X249790866Y-103783333D02*
X249905152Y-103745238D01*
X249905152Y-103745238D02*
X250362295Y-103288095D01*
X250362295Y-103288095D02*
X250362295Y-103783333D01*
X249954819Y-101091667D02*
X249954819Y-101710714D01*
X249954819Y-101710714D02*
X250335771Y-101377381D01*
X250335771Y-101377381D02*
X250335771Y-101520238D01*
X250335771Y-101520238D02*
X250383390Y-101615476D01*
X250383390Y-101615476D02*
X250431009Y-101663095D01*
X250431009Y-101663095D02*
X250526247Y-101710714D01*
X250526247Y-101710714D02*
X250764342Y-101710714D01*
X250764342Y-101710714D02*
X250859580Y-101663095D01*
X250859580Y-101663095D02*
X250907200Y-101615476D01*
X250907200Y-101615476D02*
X250954819Y-101520238D01*
X250954819Y-101520238D02*
X250954819Y-101234524D01*
X250954819Y-101234524D02*
X250907200Y-101139286D01*
X250907200Y-101139286D02*
X250859580Y-101091667D01*
X252224819Y-106635714D02*
X252224819Y-106064286D01*
X252224819Y-106350000D02*
X251224819Y-106350000D01*
X251224819Y-106350000D02*
X251367676Y-106254762D01*
X251367676Y-106254762D02*
X251462914Y-106159524D01*
X251462914Y-106159524D02*
X251510533Y-106064286D01*
X232264285Y-79462295D02*
X232530952Y-79081342D01*
X232721428Y-79462295D02*
X232721428Y-78662295D01*
X232721428Y-78662295D02*
X232416666Y-78662295D01*
X232416666Y-78662295D02*
X232340476Y-78700390D01*
X232340476Y-78700390D02*
X232302381Y-78738485D01*
X232302381Y-78738485D02*
X232264285Y-78814676D01*
X232264285Y-78814676D02*
X232264285Y-78928961D01*
X232264285Y-78928961D02*
X232302381Y-79005152D01*
X232302381Y-79005152D02*
X232340476Y-79043247D01*
X232340476Y-79043247D02*
X232416666Y-79081342D01*
X232416666Y-79081342D02*
X232721428Y-79081342D01*
X231502381Y-79462295D02*
X231959524Y-79462295D01*
X231730952Y-79462295D02*
X231730952Y-78662295D01*
X231730952Y-78662295D02*
X231807143Y-78776580D01*
X231807143Y-78776580D02*
X231883333Y-78852771D01*
X231883333Y-78852771D02*
X231959524Y-78890866D01*
X231007142Y-78662295D02*
X230930952Y-78662295D01*
X230930952Y-78662295D02*
X230854761Y-78700390D01*
X230854761Y-78700390D02*
X230816666Y-78738485D01*
X230816666Y-78738485D02*
X230778571Y-78814676D01*
X230778571Y-78814676D02*
X230740476Y-78967057D01*
X230740476Y-78967057D02*
X230740476Y-79157533D01*
X230740476Y-79157533D02*
X230778571Y-79309914D01*
X230778571Y-79309914D02*
X230816666Y-79386104D01*
X230816666Y-79386104D02*
X230854761Y-79424200D01*
X230854761Y-79424200D02*
X230930952Y-79462295D01*
X230930952Y-79462295D02*
X231007142Y-79462295D01*
X231007142Y-79462295D02*
X231083333Y-79424200D01*
X231083333Y-79424200D02*
X231121428Y-79386104D01*
X231121428Y-79386104D02*
X231159523Y-79309914D01*
X231159523Y-79309914D02*
X231197619Y-79157533D01*
X231197619Y-79157533D02*
X231197619Y-78967057D01*
X231197619Y-78967057D02*
X231159523Y-78814676D01*
X231159523Y-78814676D02*
X231121428Y-78738485D01*
X231121428Y-78738485D02*
X231083333Y-78700390D01*
X231083333Y-78700390D02*
X231007142Y-78662295D01*
X252914285Y-99886104D02*
X252952381Y-99924200D01*
X252952381Y-99924200D02*
X253066666Y-99962295D01*
X253066666Y-99962295D02*
X253142857Y-99962295D01*
X253142857Y-99962295D02*
X253257143Y-99924200D01*
X253257143Y-99924200D02*
X253333333Y-99848009D01*
X253333333Y-99848009D02*
X253371428Y-99771819D01*
X253371428Y-99771819D02*
X253409524Y-99619438D01*
X253409524Y-99619438D02*
X253409524Y-99505152D01*
X253409524Y-99505152D02*
X253371428Y-99352771D01*
X253371428Y-99352771D02*
X253333333Y-99276580D01*
X253333333Y-99276580D02*
X253257143Y-99200390D01*
X253257143Y-99200390D02*
X253142857Y-99162295D01*
X253142857Y-99162295D02*
X253066666Y-99162295D01*
X253066666Y-99162295D02*
X252952381Y-99200390D01*
X252952381Y-99200390D02*
X252914285Y-99238485D01*
X252647619Y-99162295D02*
X252152381Y-99162295D01*
X252152381Y-99162295D02*
X252419047Y-99467057D01*
X252419047Y-99467057D02*
X252304762Y-99467057D01*
X252304762Y-99467057D02*
X252228571Y-99505152D01*
X252228571Y-99505152D02*
X252190476Y-99543247D01*
X252190476Y-99543247D02*
X252152381Y-99619438D01*
X252152381Y-99619438D02*
X252152381Y-99809914D01*
X252152381Y-99809914D02*
X252190476Y-99886104D01*
X252190476Y-99886104D02*
X252228571Y-99924200D01*
X252228571Y-99924200D02*
X252304762Y-99962295D01*
X252304762Y-99962295D02*
X252533333Y-99962295D01*
X252533333Y-99962295D02*
X252609524Y-99924200D01*
X252609524Y-99924200D02*
X252647619Y-99886104D01*
X251657142Y-99162295D02*
X251580952Y-99162295D01*
X251580952Y-99162295D02*
X251504761Y-99200390D01*
X251504761Y-99200390D02*
X251466666Y-99238485D01*
X251466666Y-99238485D02*
X251428571Y-99314676D01*
X251428571Y-99314676D02*
X251390476Y-99467057D01*
X251390476Y-99467057D02*
X251390476Y-99657533D01*
X251390476Y-99657533D02*
X251428571Y-99809914D01*
X251428571Y-99809914D02*
X251466666Y-99886104D01*
X251466666Y-99886104D02*
X251504761Y-99924200D01*
X251504761Y-99924200D02*
X251580952Y-99962295D01*
X251580952Y-99962295D02*
X251657142Y-99962295D01*
X251657142Y-99962295D02*
X251733333Y-99924200D01*
X251733333Y-99924200D02*
X251771428Y-99886104D01*
X251771428Y-99886104D02*
X251809523Y-99809914D01*
X251809523Y-99809914D02*
X251847619Y-99657533D01*
X251847619Y-99657533D02*
X251847619Y-99467057D01*
X251847619Y-99467057D02*
X251809523Y-99314676D01*
X251809523Y-99314676D02*
X251771428Y-99238485D01*
X251771428Y-99238485D02*
X251733333Y-99200390D01*
X251733333Y-99200390D02*
X251657142Y-99162295D01*
X233394819Y-85901905D02*
X232394819Y-85901905D01*
X232394819Y-85901905D02*
X232394819Y-86140000D01*
X232394819Y-86140000D02*
X232442438Y-86282857D01*
X232442438Y-86282857D02*
X232537676Y-86378095D01*
X232537676Y-86378095D02*
X232632914Y-86425714D01*
X232632914Y-86425714D02*
X232823390Y-86473333D01*
X232823390Y-86473333D02*
X232966247Y-86473333D01*
X232966247Y-86473333D02*
X233156723Y-86425714D01*
X233156723Y-86425714D02*
X233251961Y-86378095D01*
X233251961Y-86378095D02*
X233347200Y-86282857D01*
X233347200Y-86282857D02*
X233394819Y-86140000D01*
X233394819Y-86140000D02*
X233394819Y-85901905D01*
X232394819Y-86806667D02*
X232394819Y-87473333D01*
X232394819Y-87473333D02*
X233394819Y-87044762D01*
X231567857Y-95886104D02*
X231598809Y-95924200D01*
X231598809Y-95924200D02*
X231691667Y-95962295D01*
X231691667Y-95962295D02*
X231753571Y-95962295D01*
X231753571Y-95962295D02*
X231846428Y-95924200D01*
X231846428Y-95924200D02*
X231908333Y-95848009D01*
X231908333Y-95848009D02*
X231939286Y-95771819D01*
X231939286Y-95771819D02*
X231970238Y-95619438D01*
X231970238Y-95619438D02*
X231970238Y-95505152D01*
X231970238Y-95505152D02*
X231939286Y-95352771D01*
X231939286Y-95352771D02*
X231908333Y-95276580D01*
X231908333Y-95276580D02*
X231846428Y-95200390D01*
X231846428Y-95200390D02*
X231753571Y-95162295D01*
X231753571Y-95162295D02*
X231691667Y-95162295D01*
X231691667Y-95162295D02*
X231598809Y-95200390D01*
X231598809Y-95200390D02*
X231567857Y-95238485D01*
X231320238Y-95238485D02*
X231289286Y-95200390D01*
X231289286Y-95200390D02*
X231227381Y-95162295D01*
X231227381Y-95162295D02*
X231072619Y-95162295D01*
X231072619Y-95162295D02*
X231010714Y-95200390D01*
X231010714Y-95200390D02*
X230979762Y-95238485D01*
X230979762Y-95238485D02*
X230948809Y-95314676D01*
X230948809Y-95314676D02*
X230948809Y-95390866D01*
X230948809Y-95390866D02*
X230979762Y-95505152D01*
X230979762Y-95505152D02*
X231351190Y-95962295D01*
X231351190Y-95962295D02*
X230948809Y-95962295D01*
X230391666Y-95162295D02*
X230515476Y-95162295D01*
X230515476Y-95162295D02*
X230577380Y-95200390D01*
X230577380Y-95200390D02*
X230608333Y-95238485D01*
X230608333Y-95238485D02*
X230670238Y-95352771D01*
X230670238Y-95352771D02*
X230701190Y-95505152D01*
X230701190Y-95505152D02*
X230701190Y-95809914D01*
X230701190Y-95809914D02*
X230670238Y-95886104D01*
X230670238Y-95886104D02*
X230639285Y-95924200D01*
X230639285Y-95924200D02*
X230577380Y-95962295D01*
X230577380Y-95962295D02*
X230453571Y-95962295D01*
X230453571Y-95962295D02*
X230391666Y-95924200D01*
X230391666Y-95924200D02*
X230360714Y-95886104D01*
X230360714Y-95886104D02*
X230329761Y-95809914D01*
X230329761Y-95809914D02*
X230329761Y-95619438D01*
X230329761Y-95619438D02*
X230360714Y-95543247D01*
X230360714Y-95543247D02*
X230391666Y-95505152D01*
X230391666Y-95505152D02*
X230453571Y-95467057D01*
X230453571Y-95467057D02*
X230577380Y-95467057D01*
X230577380Y-95467057D02*
X230639285Y-95505152D01*
X230639285Y-95505152D02*
X230670238Y-95543247D01*
X230670238Y-95543247D02*
X230701190Y-95619438D01*
X251012295Y-66585714D02*
X250212295Y-66585714D01*
X250212295Y-66585714D02*
X250212295Y-66728571D01*
X250212295Y-66728571D02*
X250250390Y-66814285D01*
X250250390Y-66814285D02*
X250326580Y-66871428D01*
X250326580Y-66871428D02*
X250402771Y-66899999D01*
X250402771Y-66899999D02*
X250555152Y-66928571D01*
X250555152Y-66928571D02*
X250669438Y-66928571D01*
X250669438Y-66928571D02*
X250821819Y-66899999D01*
X250821819Y-66899999D02*
X250898009Y-66871428D01*
X250898009Y-66871428D02*
X250974200Y-66814285D01*
X250974200Y-66814285D02*
X251012295Y-66728571D01*
X251012295Y-66728571D02*
X251012295Y-66585714D01*
X250707533Y-67185714D02*
X250707533Y-67642857D01*
X251012295Y-67414285D02*
X250402771Y-67414285D01*
X251012295Y-68242856D02*
X251012295Y-67899999D01*
X251012295Y-68071428D02*
X250212295Y-68071428D01*
X250212295Y-68071428D02*
X250326580Y-68014285D01*
X250326580Y-68014285D02*
X250402771Y-67957142D01*
X250402771Y-67957142D02*
X250440866Y-67899999D01*
X235262857Y-84319580D02*
X235310476Y-84367200D01*
X235310476Y-84367200D02*
X235453333Y-84414819D01*
X235453333Y-84414819D02*
X235548571Y-84414819D01*
X235548571Y-84414819D02*
X235691428Y-84367200D01*
X235691428Y-84367200D02*
X235786666Y-84271961D01*
X235786666Y-84271961D02*
X235834285Y-84176723D01*
X235834285Y-84176723D02*
X235881904Y-83986247D01*
X235881904Y-83986247D02*
X235881904Y-83843390D01*
X235881904Y-83843390D02*
X235834285Y-83652914D01*
X235834285Y-83652914D02*
X235786666Y-83557676D01*
X235786666Y-83557676D02*
X235691428Y-83462438D01*
X235691428Y-83462438D02*
X235548571Y-83414819D01*
X235548571Y-83414819D02*
X235453333Y-83414819D01*
X235453333Y-83414819D02*
X235310476Y-83462438D01*
X235310476Y-83462438D02*
X235262857Y-83510057D01*
X234310476Y-84414819D02*
X234881904Y-84414819D01*
X234596190Y-84414819D02*
X234596190Y-83414819D01*
X234596190Y-83414819D02*
X234691428Y-83557676D01*
X234691428Y-83557676D02*
X234786666Y-83652914D01*
X234786666Y-83652914D02*
X234881904Y-83700533D01*
X233834285Y-84414819D02*
X233643809Y-84414819D01*
X233643809Y-84414819D02*
X233548571Y-84367200D01*
X233548571Y-84367200D02*
X233500952Y-84319580D01*
X233500952Y-84319580D02*
X233405714Y-84176723D01*
X233405714Y-84176723D02*
X233358095Y-83986247D01*
X233358095Y-83986247D02*
X233358095Y-83605295D01*
X233358095Y-83605295D02*
X233405714Y-83510057D01*
X233405714Y-83510057D02*
X233453333Y-83462438D01*
X233453333Y-83462438D02*
X233548571Y-83414819D01*
X233548571Y-83414819D02*
X233739047Y-83414819D01*
X233739047Y-83414819D02*
X233834285Y-83462438D01*
X233834285Y-83462438D02*
X233881904Y-83510057D01*
X233881904Y-83510057D02*
X233929523Y-83605295D01*
X233929523Y-83605295D02*
X233929523Y-83843390D01*
X233929523Y-83843390D02*
X233881904Y-83938628D01*
X233881904Y-83938628D02*
X233834285Y-83986247D01*
X233834285Y-83986247D02*
X233739047Y-84033866D01*
X233739047Y-84033866D02*
X233548571Y-84033866D01*
X233548571Y-84033866D02*
X233453333Y-83986247D01*
X233453333Y-83986247D02*
X233405714Y-83938628D01*
X233405714Y-83938628D02*
X233358095Y-83843390D01*
X262314285Y-95062295D02*
X262580952Y-94681342D01*
X262771428Y-95062295D02*
X262771428Y-94262295D01*
X262771428Y-94262295D02*
X262466666Y-94262295D01*
X262466666Y-94262295D02*
X262390476Y-94300390D01*
X262390476Y-94300390D02*
X262352381Y-94338485D01*
X262352381Y-94338485D02*
X262314285Y-94414676D01*
X262314285Y-94414676D02*
X262314285Y-94528961D01*
X262314285Y-94528961D02*
X262352381Y-94605152D01*
X262352381Y-94605152D02*
X262390476Y-94643247D01*
X262390476Y-94643247D02*
X262466666Y-94681342D01*
X262466666Y-94681342D02*
X262771428Y-94681342D01*
X262009524Y-94338485D02*
X261971428Y-94300390D01*
X261971428Y-94300390D02*
X261895238Y-94262295D01*
X261895238Y-94262295D02*
X261704762Y-94262295D01*
X261704762Y-94262295D02*
X261628571Y-94300390D01*
X261628571Y-94300390D02*
X261590476Y-94338485D01*
X261590476Y-94338485D02*
X261552381Y-94414676D01*
X261552381Y-94414676D02*
X261552381Y-94490866D01*
X261552381Y-94490866D02*
X261590476Y-94605152D01*
X261590476Y-94605152D02*
X262047619Y-95062295D01*
X262047619Y-95062295D02*
X261552381Y-95062295D01*
X261285714Y-94262295D02*
X260752380Y-94262295D01*
X260752380Y-94262295D02*
X261095238Y-95062295D01*
X248612295Y-66385714D02*
X247812295Y-66385714D01*
X247812295Y-66385714D02*
X247812295Y-66528571D01*
X247812295Y-66528571D02*
X247850390Y-66614285D01*
X247850390Y-66614285D02*
X247926580Y-66671428D01*
X247926580Y-66671428D02*
X248002771Y-66699999D01*
X248002771Y-66699999D02*
X248155152Y-66728571D01*
X248155152Y-66728571D02*
X248269438Y-66728571D01*
X248269438Y-66728571D02*
X248421819Y-66699999D01*
X248421819Y-66699999D02*
X248498009Y-66671428D01*
X248498009Y-66671428D02*
X248574200Y-66614285D01*
X248574200Y-66614285D02*
X248612295Y-66528571D01*
X248612295Y-66528571D02*
X248612295Y-66385714D01*
X248307533Y-66985714D02*
X248307533Y-67442857D01*
X248612295Y-68042856D02*
X248612295Y-67699999D01*
X248612295Y-67871428D02*
X247812295Y-67871428D01*
X247812295Y-67871428D02*
X247926580Y-67814285D01*
X247926580Y-67814285D02*
X248002771Y-67757142D01*
X248002771Y-67757142D02*
X248040866Y-67699999D01*
X238339285Y-89987295D02*
X238605952Y-89606342D01*
X238796428Y-89987295D02*
X238796428Y-89187295D01*
X238796428Y-89187295D02*
X238491666Y-89187295D01*
X238491666Y-89187295D02*
X238415476Y-89225390D01*
X238415476Y-89225390D02*
X238377381Y-89263485D01*
X238377381Y-89263485D02*
X238339285Y-89339676D01*
X238339285Y-89339676D02*
X238339285Y-89453961D01*
X238339285Y-89453961D02*
X238377381Y-89530152D01*
X238377381Y-89530152D02*
X238415476Y-89568247D01*
X238415476Y-89568247D02*
X238491666Y-89606342D01*
X238491666Y-89606342D02*
X238796428Y-89606342D01*
X237653571Y-89453961D02*
X237653571Y-89987295D01*
X237844047Y-89149200D02*
X238034524Y-89720628D01*
X238034524Y-89720628D02*
X237539285Y-89720628D01*
X237082142Y-89187295D02*
X237005952Y-89187295D01*
X237005952Y-89187295D02*
X236929761Y-89225390D01*
X236929761Y-89225390D02*
X236891666Y-89263485D01*
X236891666Y-89263485D02*
X236853571Y-89339676D01*
X236853571Y-89339676D02*
X236815476Y-89492057D01*
X236815476Y-89492057D02*
X236815476Y-89682533D01*
X236815476Y-89682533D02*
X236853571Y-89834914D01*
X236853571Y-89834914D02*
X236891666Y-89911104D01*
X236891666Y-89911104D02*
X236929761Y-89949200D01*
X236929761Y-89949200D02*
X237005952Y-89987295D01*
X237005952Y-89987295D02*
X237082142Y-89987295D01*
X237082142Y-89987295D02*
X237158333Y-89949200D01*
X237158333Y-89949200D02*
X237196428Y-89911104D01*
X237196428Y-89911104D02*
X237234523Y-89834914D01*
X237234523Y-89834914D02*
X237272619Y-89682533D01*
X237272619Y-89682533D02*
X237272619Y-89492057D01*
X237272619Y-89492057D02*
X237234523Y-89339676D01*
X237234523Y-89339676D02*
X237196428Y-89263485D01*
X237196428Y-89263485D02*
X237158333Y-89225390D01*
X237158333Y-89225390D02*
X237082142Y-89187295D01*
X253286904Y-90029819D02*
X253286904Y-90839342D01*
X253286904Y-90839342D02*
X253239285Y-90934580D01*
X253239285Y-90934580D02*
X253191666Y-90982200D01*
X253191666Y-90982200D02*
X253096428Y-91029819D01*
X253096428Y-91029819D02*
X252905952Y-91029819D01*
X252905952Y-91029819D02*
X252810714Y-90982200D01*
X252810714Y-90982200D02*
X252763095Y-90934580D01*
X252763095Y-90934580D02*
X252715476Y-90839342D01*
X252715476Y-90839342D02*
X252715476Y-90029819D01*
X252334523Y-90029819D02*
X251715476Y-90029819D01*
X251715476Y-90029819D02*
X252048809Y-90410771D01*
X252048809Y-90410771D02*
X251905952Y-90410771D01*
X251905952Y-90410771D02*
X251810714Y-90458390D01*
X251810714Y-90458390D02*
X251763095Y-90506009D01*
X251763095Y-90506009D02*
X251715476Y-90601247D01*
X251715476Y-90601247D02*
X251715476Y-90839342D01*
X251715476Y-90839342D02*
X251763095Y-90934580D01*
X251763095Y-90934580D02*
X251810714Y-90982200D01*
X251810714Y-90982200D02*
X251905952Y-91029819D01*
X251905952Y-91029819D02*
X252191666Y-91029819D01*
X252191666Y-91029819D02*
X252286904Y-90982200D01*
X252286904Y-90982200D02*
X252334523Y-90934580D01*
X247458561Y-103179451D02*
X247458561Y-103894226D01*
X247458561Y-103894226D02*
X247506213Y-104037181D01*
X247506213Y-104037181D02*
X247601516Y-104132485D01*
X247601516Y-104132485D02*
X247744471Y-104180136D01*
X247744471Y-104180136D02*
X247839775Y-104180136D01*
X246553179Y-103513013D02*
X246553179Y-104180136D01*
X246791438Y-103131800D02*
X247029696Y-103846575D01*
X247029696Y-103846575D02*
X246410224Y-103846575D01*
X226653571Y-80387295D02*
X226196428Y-80387295D01*
X226425000Y-81187295D02*
X226425000Y-80387295D01*
X225929761Y-81187295D02*
X225929761Y-80387295D01*
X225929761Y-80768247D02*
X225472618Y-80768247D01*
X225472618Y-81187295D02*
X225472618Y-80387295D01*
X224672619Y-81187295D02*
X225129762Y-81187295D01*
X224901190Y-81187295D02*
X224901190Y-80387295D01*
X224901190Y-80387295D02*
X224977381Y-80501580D01*
X224977381Y-80501580D02*
X225053571Y-80577771D01*
X225053571Y-80577771D02*
X225129762Y-80615866D01*
X258956104Y-67015714D02*
X258994200Y-66977618D01*
X258994200Y-66977618D02*
X259032295Y-66863333D01*
X259032295Y-66863333D02*
X259032295Y-66787142D01*
X259032295Y-66787142D02*
X258994200Y-66672856D01*
X258994200Y-66672856D02*
X258918009Y-66596666D01*
X258918009Y-66596666D02*
X258841819Y-66558571D01*
X258841819Y-66558571D02*
X258689438Y-66520475D01*
X258689438Y-66520475D02*
X258575152Y-66520475D01*
X258575152Y-66520475D02*
X258422771Y-66558571D01*
X258422771Y-66558571D02*
X258346580Y-66596666D01*
X258346580Y-66596666D02*
X258270390Y-66672856D01*
X258270390Y-66672856D02*
X258232295Y-66787142D01*
X258232295Y-66787142D02*
X258232295Y-66863333D01*
X258232295Y-66863333D02*
X258270390Y-66977618D01*
X258270390Y-66977618D02*
X258308485Y-67015714D01*
X258308485Y-67320475D02*
X258270390Y-67358571D01*
X258270390Y-67358571D02*
X258232295Y-67434761D01*
X258232295Y-67434761D02*
X258232295Y-67625237D01*
X258232295Y-67625237D02*
X258270390Y-67701428D01*
X258270390Y-67701428D02*
X258308485Y-67739523D01*
X258308485Y-67739523D02*
X258384676Y-67777618D01*
X258384676Y-67777618D02*
X258460866Y-67777618D01*
X258460866Y-67777618D02*
X258575152Y-67739523D01*
X258575152Y-67739523D02*
X259032295Y-67282380D01*
X259032295Y-67282380D02*
X259032295Y-67777618D01*
X258308485Y-68082380D02*
X258270390Y-68120476D01*
X258270390Y-68120476D02*
X258232295Y-68196666D01*
X258232295Y-68196666D02*
X258232295Y-68387142D01*
X258232295Y-68387142D02*
X258270390Y-68463333D01*
X258270390Y-68463333D02*
X258308485Y-68501428D01*
X258308485Y-68501428D02*
X258384676Y-68539523D01*
X258384676Y-68539523D02*
X258460866Y-68539523D01*
X258460866Y-68539523D02*
X258575152Y-68501428D01*
X258575152Y-68501428D02*
X259032295Y-68044285D01*
X259032295Y-68044285D02*
X259032295Y-68539523D01*
D13*
X223462500Y-75850000D02*
X223462500Y-74740000D01*
X227172500Y-75850000D02*
X227172500Y-74740000D01*
X228222500Y-74150000D02*
X227722500Y-73900000D01*
X227722500Y-73900000D02*
X228222500Y-73650000D01*
X228222500Y-73650000D02*
X228222500Y-74150000D01*
X223462500Y-73060000D02*
X223462500Y-71950000D01*
X227172500Y-73060000D02*
X227172500Y-71950000D01*
X226460000Y-91692164D02*
X226460000Y-91907836D01*
X225740000Y-91692164D02*
X225740000Y-91907836D01*
X250320000Y-104696359D02*
X250320000Y-105003641D01*
X249560000Y-104696359D02*
X249560000Y-105003641D01*
G36*
X260878850Y-75303300D02*
G01*
X260941412Y-75315933D01*
X260971503Y-75366240D01*
X260977132Y-75480222D01*
X260966312Y-75683879D01*
X260952539Y-75820533D01*
X260895702Y-76040737D01*
X260805628Y-76160901D01*
X260687441Y-76176174D01*
X260546266Y-76081703D01*
X260504270Y-76028803D01*
X260451362Y-75856841D01*
X260472397Y-75664775D01*
X260554353Y-75486106D01*
X260684209Y-75354336D01*
X260848942Y-75302968D01*
X260878850Y-75303300D01*
G37*
G36*
X260913805Y-73223035D02*
G01*
X260956408Y-73264685D01*
X260973759Y-73367592D01*
X260977055Y-73559100D01*
X260975599Y-73645551D01*
X260948660Y-73868087D01*
X260885927Y-73994031D01*
X260767331Y-74068738D01*
X260625373Y-74071375D01*
X260517773Y-73983676D01*
X260513789Y-73976670D01*
X260459610Y-73788056D01*
X260478058Y-73585556D01*
X260555845Y-73401226D01*
X260679684Y-73267122D01*
X260836287Y-73215297D01*
X260913805Y-73223035D01*
G37*
G36*
X261318879Y-77464976D02*
G01*
X261524473Y-77629024D01*
X261641734Y-77834027D01*
X261658293Y-78054489D01*
X261566625Y-78261147D01*
X261369939Y-78437221D01*
X261303681Y-78473848D01*
X261061495Y-78532722D01*
X260825814Y-78480371D01*
X260614612Y-78319592D01*
X260567910Y-78261909D01*
X260469551Y-78042276D01*
X260476668Y-77822009D01*
X260584368Y-77624971D01*
X260787760Y-77475024D01*
X260819681Y-77460744D01*
X261077906Y-77407619D01*
X261318879Y-77464976D01*
G37*
G36*
X261292370Y-84389307D02*
G01*
X261488570Y-84513605D01*
X261621756Y-84713540D01*
X261671656Y-84977406D01*
X261645129Y-85178214D01*
X261529567Y-85387404D01*
X261332267Y-85520615D01*
X261064041Y-85567352D01*
X260912577Y-85559188D01*
X260762944Y-85510506D01*
X260624649Y-85397840D01*
X260519840Y-85254040D01*
X260453095Y-85027432D01*
X260470085Y-84794510D01*
X260566924Y-84587670D01*
X260739720Y-84439307D01*
X260792018Y-84414438D01*
X261053429Y-84352349D01*
X261292370Y-84389307D01*
G37*
G36*
X261344444Y-82081149D02*
G01*
X261525342Y-82221995D01*
X261636810Y-82425318D01*
X261658704Y-82603747D01*
X261604156Y-82804789D01*
X261476707Y-82963778D01*
X261298849Y-83072355D01*
X261093075Y-83122164D01*
X260881877Y-83104845D01*
X260687749Y-83012043D01*
X260533182Y-82835398D01*
X260508615Y-82783694D01*
X260477612Y-82570628D01*
X260527561Y-82345910D01*
X260650405Y-82156226D01*
X260693781Y-82117654D01*
X260897803Y-82020559D01*
X261124978Y-82011197D01*
X261344444Y-82081149D01*
G37*
G36*
X261221314Y-79695469D02*
G01*
X261415212Y-79793459D01*
X261563868Y-79952818D01*
X261644639Y-80160689D01*
X261634884Y-80404214D01*
X261599241Y-80508093D01*
X261463501Y-80692607D01*
X261273322Y-80805154D01*
X261055657Y-80843607D01*
X260837457Y-80805842D01*
X260645674Y-80689731D01*
X260507259Y-80493151D01*
X260492593Y-80452077D01*
X260477500Y-80241987D01*
X260532177Y-80020213D01*
X260644926Y-79842071D01*
X260788357Y-79735023D01*
X261004815Y-79671704D01*
X261221314Y-79695469D01*
G37*
G36*
X261483129Y-88786895D02*
G01*
X261555593Y-88842596D01*
X261579146Y-88866540D01*
X261664350Y-89038482D01*
X261680327Y-89251952D01*
X261629295Y-89465170D01*
X261513471Y-89636357D01*
X261401517Y-89730143D01*
X261218298Y-89826823D01*
X261064041Y-89821656D01*
X261045290Y-89814363D01*
X261001468Y-89789199D01*
X260986986Y-89744961D01*
X261005619Y-89659637D01*
X261061142Y-89511211D01*
X261157330Y-89277669D01*
X261195641Y-89185945D01*
X261292518Y-88965201D01*
X261364271Y-88834346D01*
X261423581Y-88779528D01*
X261483129Y-88786895D01*
G37*
G36*
X263412671Y-81421005D02*
G01*
X263412671Y-90438584D01*
X262716781Y-90438584D01*
X261325000Y-90438584D01*
X261142264Y-90438584D01*
X259237329Y-90438584D01*
X259237329Y-89177757D01*
X260146028Y-89177757D01*
X260182753Y-89484684D01*
X260310310Y-89750866D01*
X260519129Y-89960638D01*
X260799638Y-90098339D01*
X261142264Y-90148307D01*
X261271895Y-90135353D01*
X261518358Y-90034996D01*
X261728171Y-89855139D01*
X261887415Y-89619546D01*
X261982172Y-89351982D01*
X261998524Y-89076210D01*
X261922554Y-88815996D01*
X261898776Y-88774626D01*
X261773081Y-88618854D01*
X261614815Y-88481412D01*
X261457141Y-88387767D01*
X261333220Y-88363388D01*
X261283419Y-88413995D01*
X261200498Y-88552346D01*
X261144855Y-88663610D01*
X261098579Y-88756144D01*
X260989517Y-89003311D01*
X260892066Y-89226198D01*
X260788892Y-89435706D01*
X260705630Y-89575711D01*
X260652811Y-89626712D01*
X260636936Y-89625403D01*
X260543857Y-89557071D01*
X260479297Y-89403817D01*
X260455137Y-89191781D01*
X260462610Y-89065429D01*
X260543198Y-88816687D01*
X260723785Y-88607919D01*
X260778581Y-88549464D01*
X260828814Y-88430902D01*
X260808294Y-88333408D01*
X260717712Y-88292922D01*
X260651610Y-88308530D01*
X260511941Y-88399291D01*
X260371603Y-88544095D01*
X260264328Y-88711779D01*
X260209710Y-88845745D01*
X260146028Y-89177757D01*
X259237329Y-89177757D01*
X259237329Y-86976863D01*
X260114882Y-86976863D01*
X260130011Y-87129319D01*
X260191210Y-87325414D01*
X260271772Y-87509427D01*
X260427850Y-87708052D01*
X260657644Y-87853885D01*
X260846124Y-87917714D01*
X261144855Y-87932762D01*
X261432651Y-87856954D01*
X261680760Y-87699480D01*
X261860431Y-87469526D01*
X261942370Y-87223892D01*
X261971089Y-86938608D01*
X261946258Y-86661072D01*
X261867552Y-86438677D01*
X261827951Y-86373543D01*
X261752822Y-86282719D01*
X261684272Y-86285447D01*
X261590397Y-86374320D01*
X261530372Y-86450572D01*
X261525242Y-86524591D01*
X261588881Y-86636503D01*
X261642573Y-86756183D01*
X261662140Y-86985365D01*
X261603487Y-87220092D01*
X261472991Y-87417410D01*
X261318915Y-87523131D01*
X261119725Y-87569309D01*
X261088541Y-87576538D01*
X260854129Y-87541298D01*
X260655092Y-87417410D01*
X260603632Y-87358301D01*
X260492142Y-87126861D01*
X260469356Y-86865186D01*
X260540971Y-86613416D01*
X260547076Y-86601578D01*
X260603588Y-86475861D01*
X260602285Y-86400423D01*
X260543600Y-86328521D01*
X260482584Y-86277125D01*
X260421092Y-86280419D01*
X260336859Y-86369367D01*
X260329676Y-86378411D01*
X260237666Y-86534700D01*
X260166951Y-86717312D01*
X260143360Y-86806347D01*
X260114882Y-86976863D01*
X259237329Y-86976863D01*
X259237329Y-85084185D01*
X260141179Y-85084185D01*
X260210871Y-85377302D01*
X260358379Y-85616355D01*
X260546036Y-85773288D01*
X260824419Y-85892750D01*
X261119725Y-85919505D01*
X261407477Y-85855972D01*
X261663202Y-85704570D01*
X261862423Y-85467718D01*
X261942150Y-85257693D01*
X261973506Y-84970488D01*
X261941937Y-84680721D01*
X261848137Y-84438502D01*
X261733487Y-84289973D01*
X261499323Y-84113774D01*
X261228113Y-84019918D01*
X260943939Y-84008065D01*
X260670884Y-84077872D01*
X260433030Y-84228998D01*
X260254457Y-84461101D01*
X260247716Y-84474390D01*
X260152421Y-84771661D01*
X260141179Y-85084185D01*
X259237329Y-85084185D01*
X259237329Y-83296043D01*
X260107192Y-83296043D01*
X260117525Y-83417899D01*
X260145853Y-83499011D01*
X260160276Y-83503780D01*
X260269794Y-83514614D01*
X260470888Y-83523933D01*
X260746260Y-83531224D01*
X261078613Y-83535974D01*
X261450647Y-83537671D01*
X262716781Y-83537671D01*
X262716781Y-83334703D01*
X262716781Y-83131735D01*
X262225606Y-83131735D01*
X261734432Y-83131735D01*
X261882977Y-82914269D01*
X261964524Y-82777928D01*
X262009415Y-82620380D01*
X262005308Y-82417027D01*
X261987176Y-82297248D01*
X261872361Y-82007647D01*
X261672137Y-81787723D01*
X261398649Y-81648029D01*
X261064041Y-81599119D01*
X260889292Y-81613287D01*
X260601285Y-81706678D01*
X260368243Y-81871873D01*
X260202049Y-82090671D01*
X260114587Y-82344871D01*
X260117740Y-82616273D01*
X260223391Y-82886676D01*
X260289893Y-82998395D01*
X260330062Y-83089234D01*
X260307830Y-83125300D01*
X260223174Y-83131735D01*
X260203272Y-83132484D01*
X260127882Y-83173086D01*
X260107192Y-83296043D01*
X259237329Y-83296043D01*
X259237329Y-81421005D01*
X259237329Y-80270491D01*
X260109020Y-80270491D01*
X260149807Y-80573944D01*
X260275760Y-80840390D01*
X260476822Y-81052348D01*
X260742935Y-81192341D01*
X261064041Y-81242890D01*
X261146437Y-81240072D01*
X261461638Y-81166440D01*
X261715447Y-80996186D01*
X261900794Y-80733614D01*
X261994579Y-80472724D01*
X262015150Y-80145142D01*
X261921665Y-79835774D01*
X261714918Y-79549679D01*
X261499638Y-79383349D01*
X261219595Y-79283148D01*
X261145773Y-79281700D01*
X260928411Y-79277435D01*
X260650012Y-79362363D01*
X260408329Y-79534087D01*
X260227288Y-79788761D01*
X260163458Y-79947508D01*
X260109020Y-80270491D01*
X259237329Y-80270491D01*
X259237329Y-77292220D01*
X260113212Y-77292220D01*
X260138138Y-77371490D01*
X260219500Y-77390639D01*
X260315087Y-77405325D01*
X260326366Y-77462615D01*
X260242368Y-77575442D01*
X260211664Y-77621789D01*
X260154644Y-77782306D01*
X260121221Y-77985944D01*
X260118938Y-78021136D01*
X260152163Y-78317303D01*
X260287641Y-78574620D01*
X260531878Y-78806083D01*
X260641613Y-78865179D01*
X260878079Y-78923049D01*
X261145773Y-78932832D01*
X261399139Y-78894451D01*
X261592621Y-78807832D01*
X261689014Y-78728011D01*
X261891780Y-78479655D01*
X262000296Y-78203814D01*
X262008958Y-77920784D01*
X261912160Y-77650864D01*
X261882708Y-77600201D01*
X261815688Y-77477608D01*
X261788927Y-77416320D01*
X261793578Y-77412691D01*
X261875154Y-77401453D01*
X262037395Y-77393596D01*
X262252854Y-77390639D01*
X262716781Y-77390639D01*
X262716781Y-77186562D01*
X262716781Y-76982484D01*
X261426484Y-76998091D01*
X260665903Y-77007291D01*
X260136187Y-77013699D01*
X260118016Y-77202169D01*
X260113212Y-77292220D01*
X259237329Y-77292220D01*
X259237329Y-75825986D01*
X260115071Y-75825986D01*
X260129099Y-76083860D01*
X260206479Y-76298904D01*
X260266469Y-76379345D01*
X260450936Y-76519081D01*
X260665903Y-76577938D01*
X260879467Y-76550904D01*
X261059726Y-76432966D01*
X261123114Y-76353695D01*
X261207523Y-76176457D01*
X261253255Y-75938933D01*
X261267009Y-75614669D01*
X261267623Y-75537919D01*
X261278798Y-75389427D01*
X261311175Y-75320092D01*
X261374003Y-75302968D01*
X261481054Y-75326615D01*
X261597247Y-75436210D01*
X261658712Y-75614089D01*
X261658951Y-75836981D01*
X261591464Y-76081614D01*
X261578652Y-76113349D01*
X261542512Y-76256332D01*
X261574067Y-76340710D01*
X261591397Y-76356932D01*
X261699263Y-76401103D01*
X261802319Y-76335983D01*
X261906471Y-76158333D01*
X261919225Y-76129196D01*
X262001079Y-75835783D01*
X262008063Y-75546536D01*
X261945748Y-75286257D01*
X261819703Y-75079747D01*
X261635499Y-74951810D01*
X261539674Y-74932516D01*
X261345819Y-74916263D01*
X261092244Y-74908166D01*
X260809156Y-74909762D01*
X260665903Y-74913224D01*
X260136187Y-74926027D01*
X260117838Y-75085502D01*
X260124593Y-75207418D01*
X260190326Y-75244977D01*
X260203706Y-75245275D01*
X260269167Y-75272014D01*
X260266013Y-75355291D01*
X260194536Y-75513805D01*
X260165230Y-75580139D01*
X260115071Y-75825986D01*
X259237329Y-75825986D01*
X259237329Y-73738314D01*
X260115071Y-73738314D01*
X260129099Y-73996189D01*
X260206479Y-74211232D01*
X260266469Y-74291674D01*
X260450936Y-74431410D01*
X260665903Y-74490267D01*
X260879467Y-74463233D01*
X261059726Y-74345295D01*
X261123114Y-74266024D01*
X261207523Y-74088786D01*
X261253255Y-73851262D01*
X261267009Y-73526998D01*
X261267623Y-73450248D01*
X261278798Y-73301756D01*
X261311175Y-73232421D01*
X261374003Y-73215297D01*
X261481054Y-73238944D01*
X261597247Y-73348539D01*
X261658712Y-73526418D01*
X261658951Y-73749310D01*
X261591464Y-73993943D01*
X261578652Y-74025678D01*
X261542512Y-74168660D01*
X261574067Y-74253039D01*
X261591397Y-74269261D01*
X261699263Y-74313432D01*
X261802319Y-74248312D01*
X261906471Y-74070662D01*
X261948657Y-73966604D01*
X262016840Y-73660183D01*
X262002839Y-73376125D01*
X261912722Y-73133961D01*
X261752554Y-72953220D01*
X261528401Y-72853434D01*
X261458380Y-72842699D01*
X261254625Y-72827075D01*
X260994475Y-72819661D01*
X260717181Y-72821978D01*
X260136187Y-72838356D01*
X260117838Y-72997831D01*
X260124593Y-73119747D01*
X260190326Y-73157306D01*
X260203706Y-73157604D01*
X260269167Y-73184342D01*
X260266013Y-73267620D01*
X260194536Y-73426134D01*
X260165230Y-73492467D01*
X260115071Y-73738314D01*
X259237329Y-73738314D01*
X259237329Y-72403425D01*
X261325000Y-72403425D01*
X263412671Y-72403425D01*
X263412671Y-81421005D01*
G37*
X263920000Y-72953641D02*
X263920000Y-72646359D01*
X264680000Y-72953641D02*
X264680000Y-72646359D01*
X242830000Y-90796359D02*
X242830000Y-91103641D01*
X242070000Y-90796359D02*
X242070000Y-91103641D01*
X234525000Y-70062500D02*
X234525000Y-68862500D01*
X234725000Y-68862500D02*
X236225000Y-68862500D01*
X234725000Y-70062500D02*
X234725000Y-68862500D01*
X236225000Y-68862500D02*
X236225000Y-70062500D01*
X236225000Y-70062500D02*
X234725000Y-70062500D01*
X239380000Y-90846359D02*
X239380000Y-91153641D01*
X238620000Y-90846359D02*
X238620000Y-91153641D01*
D14*
X229575000Y-73700000D02*
X232175000Y-73700000D01*
D10*
X230775000Y-69900000D02*
X230775000Y-69900000D01*
X230975000Y-69900000D02*
X230975000Y-69900000D01*
X230975000Y-69900000D02*
G75*
G03*
X230775000Y-69900000I-100000J0D01*
G01*
X230775000Y-69900000D02*
G75*
G03*
X230975000Y-69900000I100000J0D01*
G01*
D13*
X234750000Y-78690000D02*
X234100000Y-78690000D01*
X234750000Y-78690000D02*
X235400000Y-78690000D01*
X234750000Y-81810000D02*
X233075000Y-81810000D01*
X234750000Y-81810000D02*
X235400000Y-81810000D01*
X263410000Y-98337500D02*
X263410000Y-97687500D01*
X263410000Y-98337500D02*
X263410000Y-98987500D01*
X260290000Y-98337500D02*
X260290000Y-96662500D01*
X260290000Y-98337500D02*
X260290000Y-98987500D01*
X257886359Y-91170000D02*
X258193641Y-91170000D01*
X257886359Y-91930000D02*
X258193641Y-91930000D01*
X253360000Y-67663641D02*
X253360000Y-67356359D01*
X254120000Y-67663641D02*
X254120000Y-67356359D01*
X239990000Y-91087836D02*
X239990000Y-90872164D01*
X240710000Y-91087836D02*
X240710000Y-90872164D01*
G36*
X270993933Y-87431289D02*
G01*
X270993933Y-87606332D01*
X270346899Y-87606332D01*
X269699865Y-87606332D01*
X269699865Y-87431289D01*
X269699865Y-87256246D01*
X270346899Y-87256246D01*
X270993933Y-87256246D01*
X270993933Y-87431289D01*
G37*
G36*
X271543191Y-83274685D02*
G01*
X271552508Y-83276017D01*
X271561553Y-83277796D01*
X271592285Y-83291380D01*
X271624804Y-83316564D01*
X271658458Y-83352873D01*
X271666887Y-83363489D01*
X271704569Y-83419371D01*
X271732935Y-83476896D01*
X271750651Y-83533454D01*
X271752166Y-83544050D01*
X271753681Y-83567202D01*
X271754301Y-83596227D01*
X271753892Y-83627228D01*
X271752181Y-83662095D01*
X271748951Y-83690698D01*
X271743525Y-83715573D01*
X271735168Y-83741199D01*
X271717836Y-83782650D01*
X271692600Y-83830363D01*
X271663862Y-83874217D01*
X271633168Y-83912124D01*
X271602061Y-83941994D01*
X271572086Y-83961740D01*
X271554940Y-83968787D01*
X271535365Y-83971361D01*
X271522546Y-83964079D01*
X271515649Y-83946721D01*
X271515496Y-83945665D01*
X271514721Y-83933185D01*
X271513960Y-83909736D01*
X271513233Y-83876600D01*
X271512556Y-83835060D01*
X271511951Y-83786398D01*
X271511434Y-83731894D01*
X271511025Y-83672832D01*
X271510743Y-83610493D01*
X271510661Y-83586670D01*
X271510421Y-83516411D01*
X271510317Y-83457402D01*
X271510470Y-83408682D01*
X271511000Y-83369290D01*
X271512027Y-83338265D01*
X271513670Y-83314647D01*
X271516049Y-83297475D01*
X271519285Y-83285788D01*
X271523497Y-83278627D01*
X271528805Y-83275029D01*
X271535330Y-83274036D01*
X271543191Y-83274685D01*
G37*
G36*
X269968681Y-87927966D02*
G01*
X269968681Y-88012042D01*
X270339084Y-88014459D01*
X270385295Y-88014771D01*
X270457375Y-88015317D01*
X270518573Y-88015890D01*
X270569921Y-88016522D01*
X270612454Y-88017248D01*
X270647203Y-88018100D01*
X270675203Y-88019112D01*
X270697487Y-88020318D01*
X270715087Y-88021750D01*
X270729038Y-88023442D01*
X270740372Y-88025428D01*
X270750123Y-88027741D01*
X270808417Y-88047914D01*
X270864740Y-88078018D01*
X270912650Y-88115871D01*
X270950894Y-88160641D01*
X270953837Y-88165107D01*
X270969686Y-88194891D01*
X270984754Y-88231695D01*
X270997346Y-88270957D01*
X271005764Y-88308117D01*
X271008127Y-88327412D01*
X271010338Y-88361118D01*
X271011536Y-88401137D01*
X271011716Y-88443979D01*
X271010873Y-88486155D01*
X271009002Y-88524175D01*
X271006099Y-88554550D01*
X271003711Y-88570581D01*
X270995923Y-88611758D01*
X270986087Y-88653358D01*
X270975276Y-88691092D01*
X270964564Y-88720668D01*
X270954525Y-88744112D01*
X270824192Y-88744112D01*
X270811956Y-88744090D01*
X270774329Y-88743742D01*
X270741873Y-88743019D01*
X270716421Y-88741989D01*
X270699805Y-88740720D01*
X270693859Y-88739280D01*
X270694449Y-88735628D01*
X270697522Y-88721708D01*
X270702630Y-88700330D01*
X270709104Y-88674350D01*
X270716482Y-88642960D01*
X270727456Y-88576615D01*
X270729850Y-88519320D01*
X270723666Y-88471085D01*
X270708906Y-88431921D01*
X270685572Y-88401840D01*
X270653666Y-88380852D01*
X270649629Y-88379135D01*
X270642742Y-88376846D01*
X270634062Y-88374938D01*
X270622518Y-88373378D01*
X270607039Y-88372129D01*
X270586554Y-88371157D01*
X270559993Y-88370426D01*
X270526283Y-88369902D01*
X270484355Y-88369547D01*
X270433136Y-88369329D01*
X270371557Y-88369210D01*
X270298545Y-88369157D01*
X269968872Y-88369019D01*
X269967214Y-88548751D01*
X269965555Y-88728483D01*
X269832710Y-88730170D01*
X269699865Y-88731857D01*
X269699865Y-88550438D01*
X269699865Y-88369019D01*
X269562331Y-88369019D01*
X269424797Y-88369019D01*
X269424797Y-88254491D01*
X269424797Y-88139963D01*
X269504504Y-88110217D01*
X269537954Y-88097702D01*
X269576227Y-88083324D01*
X269612247Y-88069738D01*
X269641282Y-88058727D01*
X269698352Y-88036982D01*
X269756935Y-87940440D01*
X269815518Y-87843897D01*
X269892099Y-87843894D01*
X269968681Y-87843890D01*
X269968681Y-87927966D01*
G37*
G36*
X270993933Y-90641098D02*
G01*
X270993933Y-90818911D01*
X270617278Y-90821305D01*
X270558603Y-90821689D01*
X270484123Y-90822252D01*
X270420310Y-90822901D01*
X270366078Y-90823716D01*
X270320346Y-90824775D01*
X270282030Y-90826158D01*
X270250047Y-90827947D01*
X270223312Y-90830219D01*
X270200743Y-90833056D01*
X270181257Y-90836537D01*
X270163769Y-90840742D01*
X270147197Y-90845750D01*
X270130457Y-90851642D01*
X270112466Y-90858498D01*
X270079161Y-90873618D01*
X270036361Y-90902352D01*
X270003579Y-90938104D01*
X269980524Y-90981325D01*
X269966904Y-91032469D01*
X269962429Y-91091988D01*
X269962434Y-91093914D01*
X269966847Y-91145765D01*
X269979897Y-91189141D01*
X270002127Y-91224690D01*
X270034081Y-91253058D01*
X270076300Y-91274893D01*
X270129329Y-91290842D01*
X270138687Y-91292717D01*
X270150786Y-91294516D01*
X270165640Y-91296040D01*
X270184223Y-91297311D01*
X270207510Y-91298351D01*
X270236477Y-91299182D01*
X270272097Y-91299825D01*
X270315347Y-91300303D01*
X270367200Y-91300636D01*
X270428631Y-91300848D01*
X270500616Y-91300959D01*
X270584128Y-91300991D01*
X270993933Y-91300991D01*
X270993933Y-91479160D01*
X270993933Y-91657328D01*
X270539134Y-91657303D01*
X270460755Y-91657276D01*
X270377015Y-91657156D01*
X270304062Y-91656890D01*
X270240957Y-91656426D01*
X270186762Y-91655712D01*
X270140540Y-91654695D01*
X270101351Y-91653325D01*
X270068259Y-91651548D01*
X270040324Y-91649312D01*
X270016610Y-91646566D01*
X269996177Y-91643256D01*
X269978089Y-91639332D01*
X269961407Y-91634740D01*
X269945192Y-91629428D01*
X269928507Y-91623345D01*
X269897145Y-91609956D01*
X269840232Y-91575864D01*
X269791231Y-91532140D01*
X269750230Y-91478887D01*
X269717314Y-91416206D01*
X269692571Y-91344200D01*
X269685517Y-91310627D01*
X269679669Y-91259922D01*
X269677455Y-91204595D01*
X269678876Y-91148779D01*
X269683929Y-91096604D01*
X269692614Y-91052202D01*
X269703781Y-91014549D01*
X269727992Y-90953334D01*
X269757850Y-90901229D01*
X269794468Y-90856446D01*
X269838961Y-90817196D01*
X269846063Y-90811405D01*
X269857778Y-90799507D01*
X269862405Y-90791013D01*
X269860228Y-90787031D01*
X269852432Y-90782203D01*
X269837709Y-90776254D01*
X269814755Y-90768720D01*
X269782265Y-90759135D01*
X269738937Y-90747036D01*
X269699865Y-90736302D01*
X269699865Y-90599794D01*
X269699865Y-90463285D01*
X270346899Y-90463285D01*
X270993933Y-90463285D01*
X270993933Y-90641098D01*
G37*
G36*
X269702049Y-85724631D02*
G01*
X269708796Y-85727109D01*
X269726137Y-85733636D01*
X269753060Y-85743827D01*
X269788556Y-85757295D01*
X269831611Y-85773655D01*
X269881216Y-85792521D01*
X269936358Y-85813509D01*
X269996027Y-85836232D01*
X270059211Y-85860304D01*
X270124898Y-85885341D01*
X270192078Y-85910957D01*
X270259739Y-85936766D01*
X270326869Y-85962383D01*
X270392458Y-85987422D01*
X270455494Y-86011498D01*
X270514966Y-86034224D01*
X270569862Y-86055217D01*
X270619172Y-86074089D01*
X270661883Y-86090456D01*
X270696985Y-86103932D01*
X270710191Y-86108985D01*
X270735525Y-86118551D01*
X270756264Y-86126218D01*
X270768878Y-86130675D01*
X270778287Y-86134048D01*
X270797495Y-86141251D01*
X270823498Y-86151154D01*
X270853753Y-86162773D01*
X270885719Y-86175127D01*
X270916856Y-86187233D01*
X270944620Y-86198108D01*
X270966471Y-86206770D01*
X270979867Y-86212236D01*
X270993933Y-86218222D01*
X270993933Y-86398982D01*
X270993921Y-86428308D01*
X270993801Y-86474708D01*
X270993486Y-86510689D01*
X270992895Y-86537611D01*
X270991948Y-86556835D01*
X270990565Y-86569722D01*
X270988665Y-86577634D01*
X270986168Y-86581932D01*
X270982993Y-86583975D01*
X270981597Y-86584510D01*
X270970276Y-86588835D01*
X270948552Y-86597127D01*
X270917348Y-86609035D01*
X270877586Y-86624206D01*
X270830188Y-86642289D01*
X270776077Y-86662932D01*
X270716173Y-86685783D01*
X270651399Y-86710492D01*
X270582678Y-86736705D01*
X270510930Y-86764072D01*
X270437078Y-86792241D01*
X270362044Y-86820860D01*
X270286751Y-86849577D01*
X270212119Y-86878041D01*
X270139071Y-86905900D01*
X270068529Y-86932803D01*
X270001415Y-86958397D01*
X269938651Y-86982331D01*
X269881159Y-87004253D01*
X269869561Y-87008673D01*
X269818053Y-87028228D01*
X269777233Y-87043574D01*
X269746306Y-87055003D01*
X269724476Y-87062806D01*
X269710946Y-87067275D01*
X269704920Y-87068699D01*
X269704529Y-87068152D01*
X269703281Y-87058733D01*
X269702164Y-87038816D01*
X269701222Y-87009944D01*
X269700496Y-86973661D01*
X269700030Y-86931511D01*
X269699865Y-86885039D01*
X269699865Y-86701378D01*
X269763943Y-86679288D01*
X269770061Y-86677183D01*
X269796986Y-86667979D01*
X269833830Y-86655444D01*
X269879122Y-86640074D01*
X269931387Y-86622368D01*
X269989153Y-86602824D01*
X270050947Y-86581940D01*
X270115296Y-86560214D01*
X270180727Y-86538143D01*
X270245766Y-86516226D01*
X270308942Y-86494960D01*
X270368779Y-86474844D01*
X270402641Y-86463699D01*
X270466366Y-86444073D01*
X270524133Y-86428109D01*
X270574569Y-86416148D01*
X270616300Y-86408531D01*
X270647955Y-86405597D01*
X270668143Y-86404510D01*
X270682559Y-86401812D01*
X270685627Y-86398217D01*
X270676977Y-86394380D01*
X270656239Y-86390953D01*
X270630219Y-86387694D01*
X270551973Y-86373839D01*
X270467982Y-86353065D01*
X270376255Y-86324904D01*
X270364317Y-86320929D01*
X270320659Y-86306334D01*
X270271638Y-86289868D01*
X270218483Y-86271950D01*
X270162422Y-86253001D01*
X270104685Y-86233437D01*
X270046503Y-86213680D01*
X269989103Y-86194147D01*
X269933715Y-86175259D01*
X269881570Y-86157433D01*
X269833895Y-86141090D01*
X269791920Y-86126648D01*
X269756875Y-86114526D01*
X269729990Y-86105144D01*
X269712492Y-86098920D01*
X269705613Y-86096274D01*
X269705264Y-86095513D01*
X269704140Y-86085565D01*
X269703094Y-86065658D01*
X269702146Y-86037662D01*
X269701312Y-86003451D01*
X269700612Y-85964894D01*
X269700064Y-85923864D01*
X269699686Y-85882233D01*
X269699495Y-85841871D01*
X269699511Y-85804651D01*
X269699751Y-85772444D01*
X269700233Y-85747122D01*
X269700977Y-85730556D01*
X269701999Y-85724619D01*
X269702049Y-85724631D01*
G37*
G36*
X270368480Y-84436270D02*
G01*
X270458172Y-84440481D01*
X270538904Y-84451558D01*
X270612264Y-84469989D01*
X270679834Y-84496258D01*
X270743200Y-84530850D01*
X270803946Y-84574251D01*
X270813201Y-84581918D01*
X270859561Y-84628658D01*
X270901711Y-84685018D01*
X270938545Y-84748863D01*
X270968956Y-84818056D01*
X270991833Y-84890461D01*
X271006071Y-84963943D01*
X271007578Y-84978154D01*
X271009748Y-85012338D01*
X271011119Y-85054137D01*
X271011694Y-85100396D01*
X271011472Y-85147961D01*
X271010454Y-85193676D01*
X271008640Y-85234387D01*
X271006031Y-85266940D01*
X271001326Y-85302522D01*
X270984678Y-85385027D01*
X270960887Y-85465301D01*
X270931247Y-85538635D01*
X270923159Y-85555827D01*
X270786629Y-85555827D01*
X270748769Y-85555677D01*
X270705777Y-85554962D01*
X270674922Y-85553661D01*
X270656324Y-85551781D01*
X270650098Y-85549327D01*
X270650400Y-85547284D01*
X270654559Y-85535526D01*
X270662044Y-85519410D01*
X270669686Y-85502962D01*
X270682839Y-85469760D01*
X270696721Y-85429976D01*
X270710218Y-85387034D01*
X270722217Y-85344361D01*
X270731605Y-85305381D01*
X270736208Y-85282235D01*
X270740804Y-85252127D01*
X270743781Y-85220266D01*
X270745445Y-85183073D01*
X270746104Y-85136974D01*
X270746125Y-85132615D01*
X270746115Y-85094048D01*
X270745523Y-85065120D01*
X270744099Y-85043228D01*
X270741592Y-85025766D01*
X270737751Y-85010127D01*
X270732326Y-84993707D01*
X270715693Y-84955205D01*
X270683649Y-84906151D01*
X270642539Y-84865561D01*
X270592606Y-84833614D01*
X270534093Y-84810492D01*
X270467241Y-84796373D01*
X270437546Y-84792373D01*
X270437546Y-85209243D01*
X270437546Y-85626112D01*
X270282820Y-85622966D01*
X270277861Y-85622864D01*
X270228331Y-85621705D01*
X270189071Y-85620404D01*
X270158026Y-85618794D01*
X270133144Y-85616705D01*
X270112374Y-85613970D01*
X270093662Y-85610418D01*
X270074957Y-85605881D01*
X270069758Y-85604494D01*
X269992182Y-85577641D01*
X269921670Y-85541416D01*
X269858976Y-85496444D01*
X269804855Y-85443353D01*
X269760060Y-85382770D01*
X269725347Y-85315321D01*
X269714516Y-85288094D01*
X269700236Y-85245629D01*
X269690085Y-85203777D01*
X269683494Y-85159293D01*
X269679894Y-85108933D01*
X269678796Y-85053441D01*
X269934409Y-85053441D01*
X269934705Y-85084720D01*
X269935975Y-85107272D01*
X269938741Y-85124507D01*
X269943525Y-85139831D01*
X269950851Y-85156654D01*
X269951070Y-85157119D01*
X269978077Y-85200052D01*
X270014456Y-85235551D01*
X270058482Y-85261931D01*
X270069256Y-85266386D01*
X270099387Y-85276384D01*
X270132755Y-85284979D01*
X270164448Y-85290996D01*
X270189559Y-85293262D01*
X270191897Y-85292659D01*
X270194115Y-85289818D01*
X270195889Y-85283590D01*
X270197269Y-85272837D01*
X270198303Y-85256417D01*
X270199039Y-85233193D01*
X270199527Y-85202024D01*
X270199816Y-85161770D01*
X270199953Y-85111293D01*
X270199988Y-85049452D01*
X270199988Y-84805643D01*
X270179670Y-84805735D01*
X270172524Y-84806024D01*
X270144409Y-84809942D01*
X270111940Y-84817385D01*
X270080412Y-84827005D01*
X270055117Y-84837454D01*
X270035350Y-84849332D01*
X270002263Y-84876452D01*
X269972996Y-84908871D01*
X269951694Y-84942386D01*
X269950022Y-84945841D01*
X269942997Y-84961841D01*
X269938470Y-84976823D01*
X269935893Y-84994166D01*
X269934723Y-85017249D01*
X269934413Y-85049452D01*
X269934409Y-85053441D01*
X269678796Y-85053441D01*
X269678717Y-85049452D01*
X269678714Y-85048242D01*
X269679981Y-84984259D01*
X269684347Y-84929501D01*
X269692293Y-84881016D01*
X269704300Y-84835853D01*
X269720850Y-84791060D01*
X269754736Y-84721723D01*
X269799762Y-84654524D01*
X269853139Y-84596416D01*
X269914945Y-84547354D01*
X269985258Y-84507294D01*
X270064157Y-84476193D01*
X270151720Y-84454007D01*
X270199988Y-84447333D01*
X270248025Y-84440691D01*
X270353150Y-84436202D01*
X270368480Y-84436270D01*
G37*
G36*
X270209365Y-82901880D02*
G01*
X270274357Y-82915896D01*
X270357815Y-82944721D01*
X270436128Y-82984514D01*
X270508559Y-83034745D01*
X270574371Y-83094882D01*
X270632827Y-83164397D01*
X270683189Y-83242758D01*
X270698878Y-83270890D01*
X270986616Y-83274016D01*
X271011476Y-83274287D01*
X271074904Y-83275012D01*
X271127352Y-83275699D01*
X271169949Y-83276410D01*
X271203825Y-83277203D01*
X271230108Y-83278137D01*
X271249928Y-83279271D01*
X271264414Y-83280666D01*
X271274696Y-83282380D01*
X271281903Y-83284473D01*
X271287164Y-83287003D01*
X271291608Y-83290031D01*
X271299223Y-83296116D01*
X271323978Y-83324167D01*
X271337755Y-83356053D01*
X271338583Y-83361907D01*
X271339806Y-83380640D01*
X271340839Y-83409133D01*
X271341680Y-83445674D01*
X271342329Y-83488552D01*
X271342784Y-83536055D01*
X271343045Y-83586471D01*
X271343111Y-83638090D01*
X271342981Y-83689199D01*
X271342654Y-83738088D01*
X271342129Y-83783043D01*
X271341406Y-83822355D01*
X271340482Y-83854310D01*
X271339359Y-83877199D01*
X271338033Y-83889308D01*
X271330379Y-83912007D01*
X271311431Y-83940760D01*
X271285648Y-83960958D01*
X271255074Y-83971631D01*
X271221753Y-83971812D01*
X271187731Y-83960531D01*
X271185519Y-83959370D01*
X271162065Y-83942258D01*
X271145533Y-83918162D01*
X271144161Y-83915416D01*
X271140478Y-83907314D01*
X271137585Y-83898685D01*
X271135389Y-83888033D01*
X271133792Y-83873861D01*
X271132700Y-83854671D01*
X271132017Y-83828967D01*
X271131648Y-83795251D01*
X271131496Y-83752026D01*
X271131467Y-83697796D01*
X271131467Y-83505323D01*
X270944736Y-83505323D01*
X270758006Y-83505323D01*
X270754773Y-83588155D01*
X270754103Y-83602569D01*
X270748021Y-83665258D01*
X270736252Y-83722621D01*
X270717631Y-83779261D01*
X270690991Y-83839780D01*
X270683575Y-83854594D01*
X270638173Y-83929666D01*
X270584408Y-83996409D01*
X270523329Y-84054536D01*
X270455987Y-84103760D01*
X270383430Y-84143796D01*
X270306707Y-84174357D01*
X270226869Y-84195157D01*
X270144965Y-84205909D01*
X270062044Y-84206327D01*
X269979155Y-84196126D01*
X269897349Y-84175017D01*
X269817674Y-84142716D01*
X269741180Y-84098935D01*
X269722490Y-84086640D01*
X269702887Y-84074117D01*
X269689279Y-84065877D01*
X269683848Y-84063279D01*
X269681381Y-84069006D01*
X269675411Y-84084184D01*
X269666871Y-84106435D01*
X269656675Y-84133397D01*
X269653935Y-84140606D01*
X269637445Y-84179643D01*
X269621543Y-84208275D01*
X269604892Y-84228159D01*
X269586160Y-84240949D01*
X269564010Y-84248300D01*
X269529767Y-84250276D01*
X269496463Y-84241092D01*
X269467929Y-84221267D01*
X269446119Y-84191739D01*
X269445724Y-84190973D01*
X269440337Y-84177328D01*
X269437963Y-84161912D01*
X269438910Y-84143101D01*
X269443483Y-84119270D01*
X269451989Y-84088791D01*
X269464735Y-84050042D01*
X269482028Y-84001395D01*
X269486958Y-83987807D01*
X269500676Y-83949602D01*
X269510595Y-83920870D01*
X269517162Y-83899889D01*
X269520819Y-83884936D01*
X269522012Y-83874290D01*
X269521186Y-83866228D01*
X269518785Y-83859029D01*
X269513580Y-83846404D01*
X269492640Y-83793816D01*
X269476563Y-83749240D01*
X269464738Y-83710069D01*
X269456558Y-83673698D01*
X269451412Y-83637523D01*
X269448692Y-83598937D01*
X269447789Y-83555335D01*
X269447837Y-83540511D01*
X269447886Y-83539679D01*
X269751996Y-83539679D01*
X269755244Y-83601638D01*
X269770410Y-83664650D01*
X269795585Y-83721672D01*
X269829522Y-83771924D01*
X269871002Y-83814799D01*
X269918805Y-83849691D01*
X269971712Y-83875995D01*
X270028502Y-83893103D01*
X270087956Y-83900411D01*
X270148855Y-83897312D01*
X270209978Y-83883200D01*
X270270105Y-83857469D01*
X270308682Y-83831798D01*
X270348948Y-83794150D01*
X270384691Y-83749448D01*
X270413659Y-83700546D01*
X270433597Y-83650301D01*
X270444861Y-83597271D01*
X270447209Y-83533257D01*
X270437388Y-83470246D01*
X270415567Y-83409216D01*
X270381916Y-83351149D01*
X270372179Y-83337961D01*
X270328448Y-83291351D01*
X270277575Y-83254272D01*
X270220892Y-83227250D01*
X270159735Y-83210812D01*
X270095434Y-83205486D01*
X270029324Y-83211798D01*
X269992703Y-83220899D01*
X269936889Y-83244454D01*
X269886599Y-83277641D01*
X269842804Y-83319076D01*
X269806475Y-83367379D01*
X269778583Y-83421168D01*
X269760100Y-83479062D01*
X269751996Y-83539679D01*
X269447886Y-83539679D01*
X269452434Y-83461929D01*
X269464924Y-83389849D01*
X269486048Y-83321006D01*
X269516546Y-83252135D01*
X269539053Y-83211352D01*
X269589336Y-83139041D01*
X269648075Y-83074995D01*
X269714239Y-83019734D01*
X269786795Y-82973781D01*
X269864713Y-82937657D01*
X269946961Y-82911883D01*
X270032506Y-82896981D01*
X270095434Y-82894467D01*
X270120318Y-82893473D01*
X270209365Y-82901880D01*
G37*
G36*
X269082568Y-87151767D02*
G01*
X269131922Y-87163896D01*
X269178511Y-87185109D01*
X269220884Y-87215411D01*
X269257592Y-87254810D01*
X269287184Y-87303311D01*
X269303700Y-87346657D01*
X269313605Y-87401141D01*
X269312808Y-87455839D01*
X269301865Y-87509030D01*
X269281332Y-87558996D01*
X269251765Y-87604016D01*
X269213723Y-87642370D01*
X269167760Y-87672340D01*
X269136492Y-87688184D01*
X269139059Y-88386502D01*
X269139183Y-88420117D01*
X269139621Y-88531562D01*
X269140072Y-88631480D01*
X269140566Y-88720636D01*
X269141130Y-88799791D01*
X269141793Y-88869708D01*
X269142583Y-88931149D01*
X269143527Y-88984876D01*
X269144654Y-89031653D01*
X269145991Y-89072242D01*
X269147568Y-89107405D01*
X269149412Y-89137904D01*
X269151551Y-89164502D01*
X269154013Y-89187962D01*
X269156826Y-89209046D01*
X269160019Y-89228516D01*
X269163620Y-89247135D01*
X269167655Y-89265665D01*
X269172155Y-89284870D01*
X269176316Y-89301427D01*
X269189014Y-89342471D01*
X269204313Y-89376954D01*
X269223305Y-89405454D01*
X269247081Y-89428553D01*
X269276735Y-89446830D01*
X269313358Y-89460865D01*
X269358043Y-89471237D01*
X269411882Y-89478526D01*
X269475967Y-89483312D01*
X269551391Y-89486175D01*
X269558082Y-89486347D01*
X269602196Y-89487437D01*
X269635521Y-89488080D01*
X269659572Y-89488177D01*
X269675858Y-89487634D01*
X269685894Y-89486355D01*
X269691190Y-89484242D01*
X269693259Y-89481201D01*
X269693613Y-89477135D01*
X269693957Y-89473306D01*
X269696971Y-89457630D01*
X269702421Y-89435040D01*
X269709490Y-89409037D01*
X269725758Y-89359506D01*
X269761723Y-89279293D01*
X269806854Y-89206112D01*
X269860189Y-89140400D01*
X269920765Y-89082593D01*
X269987619Y-89033129D01*
X270059788Y-88992444D01*
X270136310Y-88960974D01*
X270216221Y-88939157D01*
X270298560Y-88927429D01*
X270347375Y-88926729D01*
X270382362Y-88926228D01*
X270466666Y-88935989D01*
X270550508Y-88957150D01*
X270632925Y-88990147D01*
X270663424Y-89005790D01*
X270737804Y-89053170D01*
X270805015Y-89109623D01*
X270864201Y-89173996D01*
X270914503Y-89245138D01*
X270955063Y-89321897D01*
X270985024Y-89403123D01*
X271003528Y-89487663D01*
X271010664Y-89568063D01*
X271007560Y-89658727D01*
X270992625Y-89746740D01*
X270966127Y-89831273D01*
X270928335Y-89911493D01*
X270879518Y-89986569D01*
X270819943Y-90055670D01*
X270762405Y-90107667D01*
X270690917Y-90157691D01*
X270614750Y-90197286D01*
X270535017Y-90226424D01*
X270452827Y-90245076D01*
X270369294Y-90253212D01*
X270285529Y-90250804D01*
X270202643Y-90237823D01*
X270121748Y-90214239D01*
X270043957Y-90180024D01*
X269970380Y-90135149D01*
X269902129Y-90079585D01*
X269869383Y-90047137D01*
X269811181Y-89977904D01*
X269763689Y-89904159D01*
X269727466Y-89826836D01*
X269703069Y-89746869D01*
X269693042Y-89702493D01*
X269563608Y-89698193D01*
X269536954Y-89697257D01*
X269469591Y-89694255D01*
X269412407Y-89690502D01*
X269363691Y-89685716D01*
X269321732Y-89679617D01*
X269284819Y-89671924D01*
X269251240Y-89662356D01*
X269219283Y-89650633D01*
X269187238Y-89636475D01*
X269165305Y-89625464D01*
X269138983Y-89609401D01*
X269114389Y-89589934D01*
X269105660Y-89581604D01*
X270020187Y-89581604D01*
X270024733Y-89643381D01*
X270034758Y-89684947D01*
X270058484Y-89741178D01*
X270091973Y-89791910D01*
X270133891Y-89835821D01*
X270182905Y-89871587D01*
X270237682Y-89897885D01*
X270296886Y-89913392D01*
X270310002Y-89915202D01*
X270372060Y-89916526D01*
X270432026Y-89906292D01*
X270488552Y-89885276D01*
X270540286Y-89854252D01*
X270585879Y-89813995D01*
X270623979Y-89765281D01*
X270653236Y-89708883D01*
X270662078Y-89681676D01*
X270670356Y-89638137D01*
X270673946Y-89591615D01*
X270672550Y-89546833D01*
X270665869Y-89508515D01*
X270644241Y-89450974D01*
X270612137Y-89397156D01*
X270571580Y-89351174D01*
X270523697Y-89313897D01*
X270469617Y-89286194D01*
X270410467Y-89268935D01*
X270347375Y-89262989D01*
X270314833Y-89264583D01*
X270254952Y-89276216D01*
X270199701Y-89298155D01*
X270150056Y-89329246D01*
X270106997Y-89368335D01*
X270071502Y-89414269D01*
X270044550Y-89465895D01*
X270027118Y-89522057D01*
X270020187Y-89581604D01*
X269105660Y-89581604D01*
X269086939Y-89563740D01*
X269079678Y-89556264D01*
X269049511Y-89521046D01*
X269023743Y-89482884D01*
X269001916Y-89440421D01*
X268983572Y-89392299D01*
X268968253Y-89337162D01*
X268955500Y-89273651D01*
X268944856Y-89200409D01*
X268935862Y-89116078D01*
X268935015Y-89105728D01*
X268933744Y-89084655D01*
X268932640Y-89058195D01*
X268931697Y-89025699D01*
X268930910Y-88986522D01*
X268930275Y-88940017D01*
X268929785Y-88885536D01*
X268929436Y-88822433D01*
X268929221Y-88750062D01*
X268929136Y-88667775D01*
X268929176Y-88574926D01*
X268929335Y-88470867D01*
X268929607Y-88354953D01*
X268929676Y-88327840D01*
X268929876Y-88223898D01*
X268929954Y-88127504D01*
X268929912Y-88039152D01*
X268929753Y-87959339D01*
X268929481Y-87888560D01*
X268929099Y-87827311D01*
X268928609Y-87776086D01*
X268928014Y-87735383D01*
X268927318Y-87705695D01*
X268926522Y-87687519D01*
X268925631Y-87681350D01*
X268925375Y-87681346D01*
X268913170Y-87676921D01*
X268895056Y-87665608D01*
X268873663Y-87649515D01*
X268851621Y-87630746D01*
X268831556Y-87611407D01*
X268816100Y-87593606D01*
X268792090Y-87556757D01*
X268773996Y-87514124D01*
X268764653Y-87467449D01*
X268763117Y-87413526D01*
X268764081Y-87391272D01*
X268766246Y-87367337D01*
X268770323Y-87348100D01*
X268777384Y-87328988D01*
X268788503Y-87305430D01*
X268809575Y-87269407D01*
X268845070Y-87227163D01*
X268886501Y-87193965D01*
X268932415Y-87169821D01*
X268981365Y-87154735D01*
X269031899Y-87148715D01*
X269082568Y-87151767D01*
G37*
D14*
X262775000Y-71300000D02*
G75*
G03*
X262675000Y-71300000I-50000J0D01*
G01*
X262675000Y-71300000D02*
G75*
G03*
X262775000Y-71300000I50000J0D01*
G01*
D13*
X231648859Y-81110000D02*
X231956141Y-81110000D01*
X231648859Y-81870000D02*
X231956141Y-81870000D01*
X227953859Y-86800000D02*
X228261141Y-86800000D01*
X227953859Y-87560000D02*
X228261141Y-87560000D01*
X227560000Y-91692164D02*
X227560000Y-91907836D01*
X226840000Y-91692164D02*
X226840000Y-91907836D01*
X229847500Y-81940000D02*
G75*
G03*
X228447500Y-81940000I-700000J0D01*
G01*
X228447500Y-81940000D02*
G75*
G03*
X229847500Y-81940000I700000J0D01*
G01*
X229250000Y-83240000D02*
X228600000Y-83240000D01*
X229250000Y-83240000D02*
X229900000Y-83240000D01*
X229250000Y-86360000D02*
X227575000Y-86360000D01*
X229250000Y-86360000D02*
X229900000Y-86360000D01*
X254100000Y-105900000D02*
X254700000Y-105900000D01*
X255400000Y-105250000D02*
X255400000Y-102450000D01*
X253400000Y-102450000D02*
X253400000Y-105250000D01*
X254700000Y-101800000D02*
X254100000Y-101800000D01*
X253400000Y-105200000D02*
G75*
G03*
X254100000Y-105900000I699999J-1D01*
G01*
X254700000Y-105900000D02*
G75*
G03*
X255400000Y-105200000I1J699999D01*
G01*
X254100000Y-101800000D02*
G75*
G03*
X253400000Y-102500000I0J-700000D01*
G01*
X255400000Y-102500000D02*
G75*
G03*
X254700000Y-101800000I-700000J0D01*
G01*
X241040000Y-91087836D02*
X241040000Y-90872164D01*
X241760000Y-91087836D02*
X241760000Y-90872164D01*
X259640000Y-67607836D02*
X259640000Y-67392164D01*
X260360000Y-67607836D02*
X260360000Y-67392164D01*
X243930000Y-90796359D02*
X243930000Y-91103641D01*
X243170000Y-90796359D02*
X243170000Y-91103641D01*
D14*
X265600000Y-66375000D02*
X263000000Y-66375000D01*
D10*
X264400000Y-70175000D02*
X264400000Y-70175000D01*
X264200000Y-70175000D02*
X264200000Y-70175000D01*
X264200000Y-70175000D02*
G75*
G03*
X264400000Y-70175000I100000J0D01*
G01*
X264400000Y-70175000D02*
G75*
G03*
X264200000Y-70175000I-100000J0D01*
G01*
D13*
X254587836Y-101110000D02*
X254372164Y-101110000D01*
X254587836Y-100390000D02*
X254372164Y-100390000D01*
X227940000Y-93000000D02*
X227940000Y-93800000D01*
X227940000Y-93000000D02*
X227940000Y-92200000D01*
X231060000Y-93000000D02*
X231060000Y-94800000D01*
X231060000Y-93000000D02*
X231060000Y-92200000D01*
X256090000Y-67683641D02*
X256090000Y-67376359D01*
X256850000Y-67683641D02*
X256850000Y-67376359D01*
X226907500Y-83020000D02*
X226907500Y-87030000D01*
X224907500Y-83020000D02*
X226907500Y-83020000D01*
X224907500Y-83020000D02*
X224907500Y-87030000D01*
X228992164Y-96440000D02*
X229207836Y-96440000D01*
X228992164Y-97160000D02*
X229207836Y-97160000D01*
X257886359Y-90070000D02*
X258193641Y-90070000D01*
X257886359Y-90830000D02*
X258193641Y-90830000D01*
X237230000Y-90846359D02*
X237230000Y-91153641D01*
X236470000Y-90846359D02*
X236470000Y-91153641D01*
X252280000Y-67647836D02*
X252280000Y-67432164D01*
X253000000Y-67647836D02*
X253000000Y-67432164D01*
X255860000Y-104503641D02*
X255860000Y-104196359D01*
X256620000Y-104503641D02*
X256620000Y-104196359D01*
X251450000Y-105900000D02*
X252050000Y-105900000D01*
X252750000Y-105250000D02*
X252750000Y-102450000D01*
X250750000Y-102450000D02*
X250750000Y-105250000D01*
X252050000Y-101800000D02*
X251450000Y-101800000D01*
X250750000Y-105200000D02*
G75*
G03*
X251450000Y-105900000I699999J-1D01*
G01*
X252050000Y-105900000D02*
G75*
G03*
X252750000Y-105200000I1J699999D01*
G01*
X251450000Y-101800000D02*
G75*
G03*
X250750000Y-102500000I0J-700000D01*
G01*
X252750000Y-102500000D02*
G75*
G03*
X252050000Y-101800000I-700000J0D01*
G01*
X231596359Y-79720000D02*
X231903641Y-79720000D01*
X231596359Y-80480000D02*
X231903641Y-80480000D01*
X254557836Y-100010000D02*
X254342164Y-100010000D01*
X254557836Y-99290000D02*
X254342164Y-99290000D01*
X236900000Y-86640000D02*
X236900000Y-85840000D01*
X236900000Y-86640000D02*
X236900000Y-87440000D01*
X233780000Y-86640000D02*
X233780000Y-84840000D01*
X233780000Y-86640000D02*
X233780000Y-87440000D01*
X228992164Y-95275000D02*
X229207836Y-95275000D01*
X228992164Y-95995000D02*
X229207836Y-95995000D01*
D14*
X250050000Y-67400000D02*
G75*
G03*
X248750000Y-67400000I-650000J0D01*
G01*
X248750000Y-67400000D02*
G75*
G03*
X250050000Y-67400000I650000J0D01*
G01*
D13*
X247180000Y-90746359D02*
X247180000Y-91053641D01*
X246420000Y-90746359D02*
X246420000Y-91053641D01*
X234512164Y-82440000D02*
X234727836Y-82440000D01*
X234512164Y-83160000D02*
X234727836Y-83160000D01*
X261953641Y-96080000D02*
X261646359Y-96080000D01*
X261953641Y-95320000D02*
X261646359Y-95320000D01*
D14*
X247650000Y-67200000D02*
G75*
G03*
X246350000Y-67200000I-650000J0D01*
G01*
X246350000Y-67200000D02*
G75*
G03*
X247650000Y-67200000I650000J0D01*
G01*
D13*
X245320000Y-91053641D02*
X245320000Y-90746359D01*
X246080000Y-91053641D02*
X246080000Y-90746359D01*
X245030000Y-90756359D02*
X245030000Y-91063641D01*
X244270000Y-90756359D02*
X244270000Y-91063641D01*
X238330000Y-90846359D02*
X238330000Y-91153641D01*
X237570000Y-90846359D02*
X237570000Y-91153641D01*
D15*
X256350000Y-89950000D02*
G75*
G03*
X255950000Y-89950000I-200000J0D01*
G01*
X255950000Y-89950000D02*
G75*
G03*
X256350000Y-89950000I200000J0D01*
G01*
D13*
X258250000Y-69350000D02*
X256750000Y-69350000D01*
X239950000Y-69350000D02*
X238550000Y-69350000D01*
X238550000Y-69350000D02*
X238550000Y-70950000D01*
X258250000Y-71350000D02*
X258250000Y-69350000D01*
X258250000Y-86950000D02*
X258250000Y-88350000D01*
X238350000Y-86950000D02*
X238350000Y-88950000D01*
X256750000Y-88750000D02*
X257150000Y-88750000D01*
X238350000Y-88950000D02*
X239950000Y-88950000D01*
D10*
X236795000Y-107450000D02*
G75*
G03*
X236595000Y-107450000I-100000J0D01*
G01*
X236595000Y-107450000D02*
G75*
G03*
X236795000Y-107450000I100000J0D01*
G01*
D16*
X239949000Y-92950000D02*
X244951000Y-92950000D01*
X233199000Y-92950000D02*
X234201000Y-92950000D01*
X232525000Y-107000000D02*
X245625000Y-107000000D01*
X232525000Y-104300000D02*
X232525000Y-101400000D01*
X232525000Y-98400000D02*
X232525000Y-96300000D01*
D13*
X226126233Y-81550000D02*
X226468767Y-81550000D01*
X226126233Y-82570000D02*
X226468767Y-82570000D01*
X257310000Y-67667836D02*
X257310000Y-67452164D01*
X258030000Y-67667836D02*
X258030000Y-67452164D01*
M02*
