M48
; DRILL file {KiCad 7.0.10} date Tue Jan 23 20:42:24 2024
; FORMAT={-:-/ absolute / metric / decimal}
; #@! TF.CreationDate,2024-01-23T20:42:24+03:00
; #@! TF.GenerationSoftware,Kicad,Pcbnew,7.0.10
; #@! TF.FileFunction,Plated,1,4,PTH
FMAT,2
METRIC
; #@! TA.AperFunction,Plated,PTH,ViaDrill
T1C0.300
; #@! TA.AperFunction,Plated,PTH,ViaDrill
T2C0.400
; #@! TA.AperFunction,Plated,PTH,ComponentDrill
T3C1.100
; #@! TA.AperFunction,Plated,PTH,ComponentDrill
T4C3.250
%
G90
G05
T1
X223.85Y-72.6
X223.85Y-75.4
X223.9Y-97.1
X223.975Y-79.4
X224.0Y-78.0
X224.0Y-78.675
X224.0Y-94.3
X224.2Y-68.0
X224.2Y-68.8
X224.2Y-69.6
X224.2Y-101.0
X224.6Y-72.6
X224.6Y-75.4
X224.7Y-90.8
X224.8Y-79.4
X224.8Y-94.3
X224.8Y-97.1
X224.825Y-78.0
X224.825Y-78.675
X225.0Y-67.2
X225.0Y-68.0
X225.0Y-68.8
X225.0Y-69.6
X225.1Y-99.9
X225.4Y-72.6
X225.4Y-75.4
X225.575Y-79.4
X225.6Y-78.0
X225.6Y-78.675
X225.6Y-94.3
X225.7Y-97.1
X225.8Y-67.2
X225.8Y-68.0
X225.8Y-68.8
X225.8Y-69.6
X226.0Y-99.1
X226.2Y-72.6
X226.2Y-75.4
X226.3Y-66.6
X226.3Y-79.425
X226.325Y-78.025
X226.325Y-78.7
X226.5Y-94.3
X226.6Y-67.2
X226.6Y-68.0
X226.6Y-68.8
X226.6Y-69.6
X226.6Y-88.2
X226.8Y-95.1
X226.8Y-95.9
X227.0Y-72.6
X227.0Y-75.4
X227.075Y-66.625
X227.1Y-79.425
X227.125Y-78.025
X227.125Y-78.7
X227.3Y-100.7
X227.4Y-67.2
X227.4Y-68.0
X227.4Y-68.8
X227.4Y-69.6
X227.563Y-73.307
X227.563Y-74.493
X227.675Y-79.95
X227.7Y-75.4
X227.775Y-78.425
X227.8Y-66.625
X227.8Y-72.6
X227.8Y-79.15
X227.925Y-76.85
X227.925Y-77.525
X227.95Y-76.125
X227.975Y-88.05
X228.0Y-71.9
X228.136Y-68.781
X228.136Y-69.531
X228.175Y-70.25
X228.2Y-67.2
X228.2Y-68.0
X228.2Y-71.2
X228.35Y-73.25
X228.425Y-74.493
X228.425Y-78.075
X228.45Y-75.35
X228.5Y-78.775
X228.5Y-79.55
X228.5Y-103.9
X228.575Y-72.575
X228.6Y-102.9
X228.75Y-69.225
X228.825Y-98.05
X228.85Y-76.85
X228.85Y-77.525
X228.875Y-76.125
X228.9Y-66.55
X228.9Y-67.925
X228.9Y-71.325
X228.925Y-67.225
X229.025Y-89.175
X229.025Y-89.9
X229.075Y-69.925
X229.075Y-75.1
X229.1Y-70.65
X229.125Y-78.45
X229.15Y-79.2
X229.3Y-101.7
X229.325Y-74.493
X229.425Y-68.775
X229.525Y-76.525
X229.525Y-77.225
X229.525Y-77.95
X229.625Y-66.55
X229.625Y-67.925
X229.625Y-83.875
X229.625Y-100.975
X229.65Y-67.225
X229.75Y-69.575
X229.75Y-85.9
X229.775Y-70.3
X229.825Y-75.85
X229.867Y-75.101
X229.925Y-78.6
X229.95Y-79.325
X230.098Y-74.474
X230.125Y-72.775
X230.144Y-68.886
X230.275Y-76.525
X230.275Y-77.225
X230.275Y-77.95
X230.282Y-71.975
X230.3Y-66.55
X230.3Y-67.925
X230.325Y-67.225
X230.375Y-83.875
X230.45Y-85.9
X230.5Y-97.1
X230.55Y-75.1
X230.575Y-75.85
X230.613Y-69.587
X230.7Y-78.575
X230.725Y-79.35
X230.8Y-74.275
X230.894Y-68.886
X231.0Y-66.55
X231.0Y-67.925
X231.025Y-67.225
X231.05Y-76.5
X231.05Y-77.2
X231.05Y-77.925
X231.1Y-88.0
X231.125Y-83.875
X231.15Y-85.9
X231.236Y-73.664
X231.275Y-75.1
X231.3Y-82.4
X231.35Y-75.825
X231.4Y-74.45
X231.45Y-78.575
X231.625Y-84.45
X231.631Y-68.909
X231.7Y-103.2
X231.75Y-66.55
X231.75Y-67.925
X231.775Y-67.225
X231.823Y-70.083
X231.825Y-76.475
X231.825Y-77.175
X231.825Y-77.85
X231.9Y-85.9
X231.975Y-74.975
X232.025Y-74.2
X232.1Y-75.75
X232.225Y-70.75
X232.25Y-78.575
X232.35Y-68.87
X232.425Y-66.55
X232.425Y-67.925
X232.45Y-67.225
X232.55Y-70.055
X232.575Y-76.45
X232.625Y-77.825
X232.65Y-75.0
X232.65Y-77.125
X232.8Y-74.2
X232.875Y-75.725
X232.9Y-70.725
X233.0Y-97.0
X233.1Y-68.87
X233.1Y-91.65
X233.15Y-66.55
X233.15Y-67.925
X233.175Y-67.225
X233.2Y-88.0
X233.2Y-102.7
X233.25Y-76.45
X233.25Y-101.0
X233.264Y-70.055
X233.3Y-83.0
X233.375Y-75.0
X233.425Y-85.55
X233.475Y-71.45
X233.475Y-72.125
X233.475Y-72.8
X233.475Y-73.5
X233.475Y-74.2
X233.625Y-70.75
X233.625Y-75.725
X233.925Y-66.55
X233.975Y-67.55
X234.025Y-91.375
X234.05Y-70.275
X234.075Y-74.975
X234.25Y-71.45
X234.25Y-72.125
X234.25Y-72.8
X234.25Y-73.5
X234.25Y-74.2
X234.3Y-101.0
X234.4Y-75.7
X234.45Y-70.75
X234.625Y-96.925
X234.725Y-76.4
X234.8Y-68.525
X234.8Y-74.975
X234.85Y-94.2
X234.9Y-78.0
X234.925Y-67.8
X234.975Y-72.125
X234.975Y-72.8
X234.975Y-73.5
X234.975Y-74.2
X235.0Y-70.225
X235.025Y-71.125
X235.05Y-66.525
X235.071Y-91.189
X235.4Y-75.4
X235.4Y-76.2
X235.4Y-77.1
X235.4Y-81.05
X235.462Y-88.162
X235.475Y-68.475
X235.675Y-70.475
X235.675Y-71.125
X235.675Y-72.125
X235.675Y-72.8
X235.675Y-73.5
X235.675Y-74.2
X235.7Y-67.8
X235.825Y-66.5
X235.9Y-74.95
X235.95Y-76.6
X236.0Y-77.8
X236.075Y-75.7
X236.25Y-68.425
X236.303Y-83.352
X236.375Y-70.5
X236.425Y-71.15
X236.425Y-72.125
X236.425Y-72.8
X236.425Y-73.5
X236.425Y-74.2
X236.525Y-92.344
X236.625Y-66.525
X236.625Y-67.8
X236.7Y-69.075
X236.812Y-84.687
X236.818Y-76.58
X236.825Y-88.5
X236.95Y-68.4
X237.075Y-71.825
X237.1Y-81.6
X237.2Y-70.375
X237.2Y-71.1
X237.235Y-104.45
X237.3Y-66.5
X237.35Y-67.8
X237.35Y-69.075
X237.35Y-72.4
X237.351Y-77.178
X237.75Y-68.4
X237.775Y-92.125
X238.025Y-70.375
X238.025Y-71.1
X238.035Y-104.45
X238.05Y-66.525
X238.05Y-69.05
X238.296Y-95.371
X238.475Y-68.35
X238.725Y-69.075
X238.725Y-70.35
X238.725Y-71.075
X238.825Y-66.55
X239.05Y-89.6
X239.075Y-95.556
X239.164Y-104.57
X239.45Y-69.05
X239.475Y-70.35
X239.475Y-71.075
X239.6Y-87.8
X239.6Y-92.17
X240.052Y-104.473
X240.1Y-72.0
X240.248Y-85.169
X240.35Y-68.193
X240.4Y-66.8
X240.5Y-71.2
X240.6Y-77.9
X240.7Y-76.8
X240.798Y-71.876
X241.08Y-104.4
X241.2Y-71.2
X241.28Y-68.193
X241.3Y-67.0
X241.5Y-81.6
X241.6Y-71.8
X241.625Y-92.35
X241.9Y-73.3
X241.9Y-74.4
X242.0Y-71.2
X242.078Y-83.426
X242.1Y-76.4
X242.1Y-77.3
X242.1Y-78.2
X242.1Y-79.3
X242.4Y-71.8
X242.4Y-82.2
X242.45Y-92.4
X242.652Y-84.001
X242.8Y-74.4
X242.8Y-87.4
X242.831Y-70.98
X242.9Y-73.3
X242.925Y-84.8
X243.2Y-71.8
X243.4Y-86.8
X243.4Y-92.27
X243.6Y-71.2
X243.6Y-87.6
X243.7Y-79.7
X244.0Y-71.8
X244.02Y-68.35
X244.03Y-67.164
X244.2Y-86.8
X244.24Y-80.79
X244.4Y-71.2
X244.816Y-92.157
X244.9Y-87.1
X245.025Y-85.5
X245.688Y-87.236
X245.71Y-74.87
X245.775Y-92.1
X246.246Y-99.103
X246.4Y-77.5
X246.433Y-85.399
X246.7Y-95.481
X246.722Y-103.622
X246.9Y-78.3
X246.919Y-102.576
X246.931Y-100.931
X247.0Y-96.3
X247.0Y-98.45
X247.005Y-87.153
X247.11Y-76.19
X247.2Y-77.4
X247.225Y-104.375
X247.262Y-101.817
X247.399Y-99.899
X247.7Y-99.1
X247.705Y-101.136
X247.744Y-87.46
X247.829Y-103.851
X247.948Y-93.795
X248.0Y-86.702
X248.1Y-80.6
X248.112Y-81.405
X248.2Y-82.2
X248.25Y-72.65
X248.25Y-78.78
X248.3Y-85.9
X248.775Y-98.275
X248.8Y-71.5
X249.8Y-92.8
X250.404Y-92.01
X250.7Y-105.8
X250.759Y-86.51
X250.775Y-83.371
X250.904Y-87.296
X250.916Y-68.045
X251.0Y-84.8
X251.0Y-85.6
X251.36Y-99.46
X251.4Y-76.5
X251.899Y-78.17
X251.9Y-79.5
X252.0Y-66.6
X252.044Y-85.851
X252.175Y-87.352
X252.35Y-74.9
X252.4Y-71.2
X252.702Y-95.641
X253.1Y-100.7
X253.15Y-103.6
X253.15Y-85.374
X253.159Y-71.453
X253.168Y-83.382
X253.191Y-87.209
X253.205Y-72.254
X253.216Y-99.292
X253.398Y-77.442
X253.4Y-100.1
X253.728Y-79.547
X254.4Y-67.0
X254.53Y-91.8
X254.561Y-79.651
X254.697Y-78.098
X254.7Y-85.61
X254.922Y-72.0
X255.176Y-76.724
X255.224Y-82.106
X255.4Y-67.2
X255.533Y-105.626
X255.6Y-98.371
X255.7Y-84.5
X255.7Y-92.55
X255.8Y-87.0
X256.0Y-82.4
X256.15Y-75.825
X256.15Y-79.655
X256.188Y-90.42
X256.3Y-98.9
X256.3Y-100.2
X256.321Y-105.77
X256.343Y-73.727
X256.392Y-72.056
X256.392Y-72.856
X256.408Y-102.926
X256.7Y-92.6
X256.8Y-94.6
X257.1Y-101.81
X257.1Y-95.99
X257.962Y-99.9
X258.1Y-104.45
X258.3Y-95.627
X258.4Y-69.1
X258.5Y-66.6
X258.575Y-100.6
X258.962Y-104.255
X259.093Y-92.503
X259.149Y-96.601
X259.2Y-88.6
X259.2Y-69.1
X259.5Y-69.9
X259.5Y-70.7
X259.5Y-71.4
X259.5Y-72.1
X259.5Y-72.8
X259.5Y-73.5
X259.5Y-74.2
X259.575Y-97.4
X259.6Y-89.4
X259.8Y-74.9
X259.8Y-76.2
X259.8Y-76.9
X259.8Y-77.6
X259.906Y-68.724
X260.035Y-86.691
X260.3Y-69.9
X260.3Y-70.7
X260.3Y-71.4
X260.3Y-72.1
X260.3Y-72.8
X260.3Y-73.5
X260.3Y-74.2
X260.4Y-83.4
X260.4Y-84.2
X260.7Y-69.2
X260.7Y-74.9
X260.7Y-76.2
X260.7Y-76.9
X260.7Y-77.6
X260.707Y-85.45
X260.8Y-80.3
X260.9Y-98.8
X261.0Y-67.1
X261.0Y-67.8
X261.0Y-68.4
X261.0Y-69.9
X261.0Y-70.7
X261.0Y-71.4
X261.0Y-72.1
X261.0Y-72.8
X261.0Y-73.5
X261.0Y-74.2
X261.2Y-82.7
X261.3Y-66.5
X261.4Y-69.2
X261.4Y-74.9
X261.4Y-76.2
X261.4Y-76.9
X261.4Y-77.7
X261.7Y-67.1
X261.7Y-67.8
X261.7Y-68.5
X261.7Y-69.9
X261.7Y-70.7
X261.7Y-71.4
X261.7Y-72.1
X261.7Y-72.8
X261.7Y-73.5
X261.7Y-74.2
X261.9Y-100.6
X262.0Y-78.0
X262.1Y-69.2
X262.2Y-74.9
X262.2Y-76.2
X262.2Y-76.9
X262.2Y-102.4
X262.4Y-69.8
X262.4Y-70.6
X262.4Y-71.4
X262.4Y-74.2
X262.6Y-72.1
X262.6Y-72.8
X262.6Y-73.5
X262.6Y-77.5
X262.6Y-78.3
X262.8Y-84.8
X262.8Y-98.7
X263.0Y-70.3
X263.0Y-74.7
X263.0Y-76.1
X263.0Y-76.8
X263.1Y-78.825
X263.2Y-77.9
X263.2Y-104.255
X263.274Y-95.826
X263.3Y-69.4
X263.4Y-72.1
X263.4Y-72.8
X263.4Y-73.5
X263.425Y-99.758
X263.6Y-74.2
X263.7Y-75.9
X263.7Y-76.6
X263.7Y-77.3
X263.7Y-78.4
X263.707Y-70.225
X263.8Y-66.8
X263.8Y-67.5
X263.8Y-68.175
X264.2Y-77.9
X264.274Y-102.305
X264.3Y-76.3
X264.3Y-77.0
X264.4Y-75.6
X264.4Y-78.6
X264.7Y-66.8
X264.7Y-67.5
X264.7Y-68.175
X264.7Y-75.0
X264.841Y-74.287
X265.0Y-70.7
X265.0Y-76.3
X265.0Y-77.2
X265.0Y-77.9
X265.049Y-72.88
X265.095Y-71.402
X265.096Y-73.624
X265.119Y-72.11
X265.169Y-70.063
X265.2Y-75.7
X265.2Y-78.6
X265.4Y-69.3
X265.4Y-75.0
X265.6Y-74.3
X265.7Y-76.3
X265.7Y-77.0
X265.8Y-77.875
X265.9Y-70.1
X265.9Y-70.8
X265.9Y-71.5
X265.9Y-72.2
X265.9Y-72.9
X265.9Y-73.6
X266.0Y-75.7
X266.0Y-78.575
X266.2Y-75.0
X266.3Y-69.3
X266.3Y-74.2
X266.4Y-76.5
X266.4Y-77.2
X266.5Y-77.875
X266.6Y-73.5
X266.7Y-70.5
X266.7Y-71.3
X266.7Y-72.0
X266.7Y-72.8
X266.7Y-78.575
X266.8Y-66.8
X266.8Y-67.5
X266.8Y-68.2
X266.9Y-68.9
X266.9Y-69.8
X267.2Y-77.875
X267.4Y-70.8
X267.4Y-71.6
X267.4Y-72.4
X267.4Y-78.575
X267.5Y-69.3
X267.5Y-70.1
X267.6Y-66.8
X267.6Y-67.5
X267.6Y-68.2
X268.1Y-69.7
X268.1Y-70.6
X268.1Y-71.6
X268.2Y-69.0
X268.2Y-78.575
X268.4Y-66.8
X268.4Y-67.5
X268.4Y-68.2
X269.2Y-66.8
X270.0Y-66.8
X271.0Y-66.8
X272.0Y-67.5
X272.5Y-68.4
X272.5Y-69.6
X272.6Y-72.9
T2
X245.14Y-73.153
X245.41Y-72.19
T3
X264.7Y-80.7
X264.7Y-83.2
X264.7Y-85.7
X264.7Y-88.2
X264.7Y-90.7
X264.7Y-93.2
X267.7Y-80.7
X267.7Y-83.2
X267.7Y-85.7
X267.7Y-88.2
X267.7Y-90.7
X267.7Y-93.2
T4
X269.2Y-75.2
X269.2Y-98.7
M30
