G04 #@! TF.GenerationSoftware,KiCad,Pcbnew,7.0.10*
G04 #@! TF.CreationDate,2024-02-08T00:17:27+03:00*
G04 #@! TF.ProjectId,GPS_MODULE_V3.kicad_pro,4750535f-4d4f-4445-954c-455f56332e6b,rev?*
G04 #@! TF.SameCoordinates,Original*
G04 #@! TF.FileFunction,Soldermask,Top*
G04 #@! TF.FilePolarity,Negative*
%FSLAX46Y46*%
G04 Gerber Fmt 4.6, Leading zero omitted, Abs format (unit mm)*
G04 Created by KiCad (PCBNEW 7.0.10) date 2024-02-08 00:17:27*
%MOMM*%
%LPD*%
G01*
G04 APERTURE LIST*
G04 Aperture macros list*
%AMRoundRect*
0 Rectangle with rounded corners*
0 $1 Rounding radius*
0 $2 $3 $4 $5 $6 $7 $8 $9 X,Y pos of 4 corners*
0 Add a 4 corners polygon primitive as box body*
4,1,4,$2,$3,$4,$5,$6,$7,$8,$9,$2,$3,0*
0 Add four circle primitives for the rounded corners*
1,1,$1+$1,$2,$3*
1,1,$1+$1,$4,$5*
1,1,$1+$1,$6,$7*
1,1,$1+$1,$8,$9*
0 Add four rect primitives between the rounded corners*
20,1,$1+$1,$2,$3,$4,$5,0*
20,1,$1+$1,$4,$5,$6,$7,0*
20,1,$1+$1,$6,$7,$8,$9,0*
20,1,$1+$1,$8,$9,$2,$3,0*%
%AMRotRect*
0 Rectangle, with rotation*
0 The origin of the aperture is its center*
0 $1 length*
0 $2 width*
0 $3 Rotation angle, in degrees counterclockwise*
0 Add horizontal line*
21,1,$1,$2,0,0,$3*%
G04 Aperture macros list end*
%ADD10R,1.800000X1.000000*%
%ADD11RoundRect,0.140000X0.021213X-0.219203X0.219203X-0.021213X-0.021213X0.219203X-0.219203X0.021213X0*%
%ADD12RoundRect,0.250000X1.000000X0.650000X-1.000000X0.650000X-1.000000X-0.650000X1.000000X-0.650000X0*%
%ADD13C,1.000000*%
%ADD14RoundRect,0.140000X-0.170000X0.140000X-0.170000X-0.140000X0.170000X-0.140000X0.170000X0.140000X0*%
%ADD15RoundRect,0.135000X-0.135000X-0.185000X0.135000X-0.185000X0.135000X0.185000X-0.135000X0.185000X0*%
%ADD16RoundRect,0.225000X0.250000X-0.225000X0.250000X0.225000X-0.250000X0.225000X-0.250000X-0.225000X0*%
%ADD17RoundRect,0.140000X0.219203X0.021213X0.021213X0.219203X-0.219203X-0.021213X-0.021213X-0.219203X0*%
%ADD18RoundRect,0.147500X0.172500X-0.147500X0.172500X0.147500X-0.172500X0.147500X-0.172500X-0.147500X0*%
%ADD19RoundRect,0.140000X0.170000X-0.140000X0.170000X0.140000X-0.170000X0.140000X-0.170000X-0.140000X0*%
%ADD20RoundRect,0.147500X-0.172500X0.147500X-0.172500X-0.147500X0.172500X-0.147500X0.172500X0.147500X0*%
%ADD21RoundRect,0.225000X0.225000X0.250000X-0.225000X0.250000X-0.225000X-0.250000X0.225000X-0.250000X0*%
%ADD22RoundRect,0.150000X-0.512500X-0.150000X0.512500X-0.150000X0.512500X0.150000X-0.512500X0.150000X0*%
%ADD23RoundRect,0.140000X0.140000X0.170000X-0.140000X0.170000X-0.140000X-0.170000X0.140000X-0.170000X0*%
%ADD24RoundRect,0.150000X0.150000X-0.650000X0.150000X0.650000X-0.150000X0.650000X-0.150000X-0.650000X0*%
%ADD25RotRect,1.400000X1.200000X135.000000*%
%ADD26RoundRect,0.250000X-0.650000X1.000000X-0.650000X-1.000000X0.650000X-1.000000X0.650000X1.000000X0*%
%ADD27RoundRect,0.150000X-0.150000X0.587500X-0.150000X-0.587500X0.150000X-0.587500X0.150000X0.587500X0*%
%ADD28RoundRect,0.135000X0.185000X-0.135000X0.185000X0.135000X-0.185000X0.135000X-0.185000X-0.135000X0*%
%ADD29RoundRect,0.075000X0.075000X-0.662500X0.075000X0.662500X-0.075000X0.662500X-0.075000X-0.662500X0*%
%ADD30RoundRect,0.075000X0.662500X-0.075000X0.662500X0.075000X-0.662500X0.075000X-0.662500X-0.075000X0*%
%ADD31RoundRect,0.150000X-0.150000X0.825000X-0.150000X-0.825000X0.150000X-0.825000X0.150000X0.825000X0*%
%ADD32RoundRect,0.140000X-0.140000X-0.170000X0.140000X-0.170000X0.140000X0.170000X-0.140000X0.170000X0*%
%ADD33RoundRect,0.147500X-0.147500X-0.172500X0.147500X-0.172500X0.147500X0.172500X-0.147500X0.172500X0*%
%ADD34RoundRect,0.225000X0.225000X0.375000X-0.225000X0.375000X-0.225000X-0.375000X0.225000X-0.375000X0*%
%ADD35RoundRect,0.135000X0.135000X0.185000X-0.135000X0.185000X-0.135000X-0.185000X0.135000X-0.185000X0*%
%ADD36R,1.200000X0.900000*%
%ADD37R,1.800000X1.300000*%
%ADD38RoundRect,0.135000X-0.185000X0.135000X-0.185000X-0.135000X0.185000X-0.135000X0.185000X0.135000X0*%
%ADD39RoundRect,0.250000X-0.425000X0.450000X-0.425000X-0.450000X0.425000X-0.450000X0.425000X0.450000X0*%
%ADD40C,0.900000*%
%ADD41R,2.500000X1.600000*%
%ADD42RoundRect,0.150000X-0.675000X-0.150000X0.675000X-0.150000X0.675000X0.150000X-0.675000X0.150000X0*%
%ADD43RoundRect,0.225000X-0.225000X-0.375000X0.225000X-0.375000X0.225000X0.375000X-0.225000X0.375000X0*%
%ADD44RoundRect,0.225000X-0.250000X0.225000X-0.250000X-0.225000X0.250000X-0.225000X0.250000X0.225000X0*%
%ADD45RoundRect,0.200000X-0.275000X0.200000X-0.275000X-0.200000X0.275000X-0.200000X0.275000X0.200000X0*%
%ADD46C,2.700000*%
%ADD47C,1.650000*%
%ADD48C,4.875000*%
%ADD49C,2.250000*%
G04 APERTURE END LIST*
D10*
X150474750Y-102775250D03*
X150474750Y-100275250D03*
D11*
X157535339Y-104064661D03*
X158214161Y-103385839D03*
D12*
X138374750Y-103425250D03*
X134374750Y-103425250D03*
D13*
X148474750Y-92125250D03*
X142374750Y-90425250D03*
D14*
X144200000Y-82120000D03*
X144200000Y-83080000D03*
D15*
X154984750Y-98935250D03*
X156004750Y-98935250D03*
D16*
X142714750Y-88360250D03*
X142714750Y-86810250D03*
X141114750Y-87200250D03*
X141114750Y-85650250D03*
D17*
X153944161Y-103594661D03*
X153265339Y-102915839D03*
D18*
X146924750Y-76160368D03*
X146924750Y-75190368D03*
D19*
X131984750Y-113305250D03*
X131984750Y-112345250D03*
D20*
X152174750Y-75125250D03*
X152174750Y-76095250D03*
D21*
X139559750Y-87125250D03*
X138009750Y-87125250D03*
D20*
X144174750Y-75140250D03*
X144174750Y-76110250D03*
D22*
X146077250Y-81735250D03*
X146077250Y-82685250D03*
X146077250Y-83635250D03*
X148352250Y-83635250D03*
X148352250Y-81735250D03*
D23*
X151954750Y-98025250D03*
X150994750Y-98025250D03*
D24*
X143954750Y-112875250D03*
X145224750Y-112875250D03*
X146494750Y-112875250D03*
X147764750Y-112875250D03*
X147764750Y-105675250D03*
X146494750Y-105675250D03*
X145224750Y-105675250D03*
X143954750Y-105675250D03*
D25*
X157074750Y-102375250D03*
X155519115Y-100819615D03*
X154317034Y-102021696D03*
X155872669Y-103577331D03*
D19*
X145924750Y-94535250D03*
X145924750Y-93575250D03*
D26*
X142674750Y-97875250D03*
X142674750Y-101875250D03*
D14*
X138499750Y-112420250D03*
X138499750Y-113380250D03*
D27*
X153624750Y-83067750D03*
X151724750Y-83067750D03*
X152674750Y-84942750D03*
D28*
X148074750Y-76135250D03*
X148074750Y-75115250D03*
D29*
X153024750Y-97037750D03*
X153524750Y-97037750D03*
X154024750Y-97037750D03*
X154524750Y-97037750D03*
X155024750Y-97037750D03*
X155524750Y-97037750D03*
X156024750Y-97037750D03*
X156524750Y-97037750D03*
X157024750Y-97037750D03*
X157524750Y-97037750D03*
X158024750Y-97037750D03*
X158524750Y-97037750D03*
D30*
X159937250Y-95625250D03*
X159937250Y-95125250D03*
X159937250Y-94625250D03*
X159937250Y-94125250D03*
X159937250Y-93625250D03*
X159937250Y-93125250D03*
X159937250Y-92625250D03*
X159937250Y-92125250D03*
X159937250Y-91625250D03*
X159937250Y-91125250D03*
X159937250Y-90625250D03*
X159937250Y-90125250D03*
D29*
X158524750Y-88712750D03*
X158024750Y-88712750D03*
X157524750Y-88712750D03*
X157024750Y-88712750D03*
X156524750Y-88712750D03*
X156024750Y-88712750D03*
X155524750Y-88712750D03*
X155024750Y-88712750D03*
X154524750Y-88712750D03*
X154024750Y-88712750D03*
X153524750Y-88712750D03*
X153024750Y-88712750D03*
D30*
X151612250Y-90125250D03*
X151612250Y-90625250D03*
X151612250Y-91125250D03*
X151612250Y-91625250D03*
X151612250Y-92125250D03*
X151612250Y-92625250D03*
X151612250Y-93125250D03*
X151612250Y-93625250D03*
X151612250Y-94125250D03*
X151612250Y-94625250D03*
X151612250Y-95125250D03*
X151612250Y-95625250D03*
D31*
X137154750Y-107660250D03*
X135884750Y-107660250D03*
X134614750Y-107660250D03*
X133344750Y-107660250D03*
X133344750Y-112610250D03*
X134614750Y-112610250D03*
X135884750Y-112610250D03*
X137154750Y-112610250D03*
D23*
X161274750Y-76065250D03*
X160314750Y-76065250D03*
D32*
X147944750Y-95750250D03*
X148904750Y-95750250D03*
D33*
X149902250Y-96825250D03*
X150872250Y-96825250D03*
D23*
X151984750Y-88425250D03*
X151024750Y-88425250D03*
D28*
X142574750Y-94535250D03*
X142574750Y-93515250D03*
D15*
X159234750Y-110355250D03*
X160254750Y-110355250D03*
D23*
X145774750Y-95825250D03*
X144814750Y-95825250D03*
D34*
X168624750Y-112675250D03*
X165324750Y-112675250D03*
D35*
X149724750Y-80385250D03*
X148704750Y-80385250D03*
X161284750Y-75025250D03*
X160264750Y-75025250D03*
D36*
X140024750Y-91075250D03*
X140024750Y-93615250D03*
X140024750Y-96155250D03*
X140024750Y-92345250D03*
X140024750Y-94885250D03*
X140024750Y-97425250D03*
D37*
X135924750Y-88825250D03*
X127124750Y-88825250D03*
X135934750Y-100545250D03*
X127134750Y-100545250D03*
D38*
X145274750Y-75105250D03*
X145274750Y-76125250D03*
D15*
X159204750Y-111455250D03*
X160224750Y-111455250D03*
D32*
X135124750Y-105875250D03*
X136084750Y-105875250D03*
D18*
X161274750Y-110270250D03*
X161274750Y-109300250D03*
D15*
X152914750Y-81455250D03*
X153934750Y-81455250D03*
D39*
X145634750Y-98595250D03*
X145634750Y-101295250D03*
D38*
X151074750Y-75125250D03*
X151074750Y-76145250D03*
D14*
X157474750Y-98555250D03*
X157474750Y-99515250D03*
D19*
X160474750Y-89225250D03*
X160474750Y-88265250D03*
D23*
X151174750Y-99025250D03*
X150214750Y-99025250D03*
D38*
X132074750Y-110315250D03*
X132074750Y-111335250D03*
D40*
X136074750Y-85125250D03*
D28*
X131874750Y-107935250D03*
X131874750Y-106915250D03*
D41*
X146314750Y-85685250D03*
X146314750Y-90085250D03*
D39*
X147804750Y-98595250D03*
X147804750Y-101295250D03*
D23*
X149694750Y-79285250D03*
X148734750Y-79285250D03*
D20*
X163024750Y-111790250D03*
X163024750Y-112760250D03*
D28*
X154984750Y-81935250D03*
X154984750Y-80915250D03*
D12*
X131224750Y-103425250D03*
X127224750Y-103425250D03*
D28*
X150674750Y-109965250D03*
X150674750Y-108945250D03*
D42*
X152374750Y-108705250D03*
X152374750Y-109975250D03*
X152374750Y-111245250D03*
X152374750Y-112515250D03*
X157624750Y-112515250D03*
X157624750Y-111245250D03*
X157624750Y-109975250D03*
X157624750Y-108705250D03*
D43*
X158024750Y-106575250D03*
X161324750Y-106575250D03*
D44*
X142500000Y-81685250D03*
X142500000Y-83235250D03*
D45*
X150214750Y-81685250D03*
X150214750Y-83335250D03*
D32*
X159214750Y-108825250D03*
X160174750Y-108825250D03*
D40*
X154074750Y-76475250D03*
D28*
X159824750Y-102945250D03*
X159824750Y-101925250D03*
D32*
X149794750Y-104125250D03*
X150754750Y-104125250D03*
D44*
X140900000Y-81710250D03*
X140900000Y-83260250D03*
D38*
X143724750Y-93515250D03*
X143724750Y-94535250D03*
D40*
X152934750Y-78175250D03*
D19*
X159814750Y-100965250D03*
X159814750Y-100005250D03*
D28*
X150714750Y-113555250D03*
X150714750Y-112535250D03*
D46*
X128424750Y-111765250D03*
D47*
X166774750Y-88525250D03*
X166774750Y-91025250D03*
X166774750Y-93525250D03*
X166774750Y-96025250D03*
X166774750Y-98525250D03*
X166774750Y-101025250D03*
X169774750Y-88525250D03*
X169774750Y-91025250D03*
X169774750Y-93525250D03*
X169774750Y-96025250D03*
X169774750Y-98525250D03*
X169774750Y-101025250D03*
D48*
X171274750Y-106525250D03*
X171274750Y-83025250D03*
D49*
X134974750Y-78775250D03*
X137514750Y-76235250D03*
X132434750Y-76235250D03*
X137514750Y-81315250D03*
X132434750Y-81315250D03*
D46*
X172504750Y-111765250D03*
X172504750Y-76785250D03*
M02*
