G04 #@! TF.GenerationSoftware,KiCad,Pcbnew,7.0.10*
G04 #@! TF.CreationDate,2024-02-08T00:17:27+03:00*
G04 #@! TF.ProjectId,GPS_MODULE_V3.kicad_pro,4750535f-4d4f-4445-954c-455f56332e6b,rev?*
G04 #@! TF.SameCoordinates,Original*
G04 #@! TF.FileFunction,Legend,Bot*
G04 #@! TF.FilePolarity,Positive*
%FSLAX46Y46*%
G04 Gerber Fmt 4.6, Leading zero omitted, Abs format (unit mm)*
G04 Created by KiCad (PCBNEW 7.0.10) date 2024-02-08 00:17:27*
%MOMM*%
%LPD*%
G01*
G04 APERTURE LIST*
%ADD10C,0.200000*%
%ADD11C,0.150000*%
%ADD12C,0.120000*%
%ADD13C,0.100000*%
%ADD14C,0.350000*%
%ADD15C,0.127000*%
G04 APERTURE END LIST*
D10*
G36*
X175145750Y-87457542D02*
G01*
X175145750Y-87272015D01*
X174502414Y-87272015D01*
X174489110Y-87272198D01*
X174474552Y-87272748D01*
X174462810Y-87273400D01*
X174450361Y-87274259D01*
X174437208Y-87275324D01*
X174423348Y-87276595D01*
X174408782Y-87278071D01*
X174393511Y-87279754D01*
X174377534Y-87281644D01*
X174360851Y-87283739D01*
X175014445Y-87116970D01*
X175014445Y-87019077D01*
X174360851Y-86851722D01*
X174377833Y-86853765D01*
X174394047Y-86855607D01*
X174409493Y-86857247D01*
X174424172Y-86858687D01*
X174438083Y-86859926D01*
X174451227Y-86860965D01*
X174463603Y-86861802D01*
X174478910Y-86862606D01*
X174492853Y-86863052D01*
X174502414Y-86863153D01*
X175145750Y-86863153D01*
X175145750Y-86677626D01*
X173851458Y-86677626D01*
X173851458Y-86859928D01*
X174558980Y-87062748D01*
X174570995Y-87064791D01*
X174582968Y-87065911D01*
X174595910Y-87066759D01*
X174608584Y-87067388D01*
X174617013Y-87067730D01*
X174604127Y-87068124D01*
X174592246Y-87068976D01*
X174578738Y-87070304D01*
X174565865Y-87071822D01*
X174558980Y-87072713D01*
X173851458Y-87275239D01*
X173851458Y-87457542D01*
X175145750Y-87457542D01*
G37*
G36*
X175145750Y-87749754D02*
G01*
X174920655Y-87788442D01*
X174920655Y-88029949D01*
X175145750Y-88068637D01*
X175145750Y-88260026D01*
X173851458Y-88011778D01*
X173851458Y-87908903D01*
X174150704Y-87908903D01*
X174733077Y-88002692D01*
X174733077Y-87813941D01*
X174150704Y-87908903D01*
X173851458Y-87908903D01*
X173851458Y-87808959D01*
X175142525Y-87559245D01*
X175145750Y-87559245D01*
X175145750Y-87749754D01*
G37*
G36*
X175145750Y-88756816D02*
G01*
X175145496Y-88770957D01*
X175144737Y-88784729D01*
X175143472Y-88798132D01*
X175141701Y-88811166D01*
X175139424Y-88823832D01*
X175136641Y-88836129D01*
X175133352Y-88848058D01*
X175129556Y-88859618D01*
X175125255Y-88870809D01*
X175120447Y-88881632D01*
X175112288Y-88897175D01*
X175102989Y-88911888D01*
X175092552Y-88925772D01*
X175080976Y-88938826D01*
X175068346Y-88950925D01*
X175054856Y-88961835D01*
X175040505Y-88971554D01*
X175025294Y-88980083D01*
X175014675Y-88985108D01*
X175003673Y-88989604D01*
X174992290Y-88993571D01*
X174980524Y-88997009D01*
X174968375Y-88999918D01*
X174955845Y-89002299D01*
X174942931Y-89004150D01*
X174929636Y-89005472D01*
X174915958Y-89006266D01*
X174901897Y-89006530D01*
X174095310Y-89006530D01*
X174088268Y-89006464D01*
X174074467Y-89005935D01*
X174061045Y-89004877D01*
X174048000Y-89003290D01*
X174035333Y-89001175D01*
X174023044Y-88998530D01*
X174011132Y-88995356D01*
X173999599Y-88991654D01*
X173988443Y-88987422D01*
X173972418Y-88980083D01*
X173957242Y-88971554D01*
X173942917Y-88961835D01*
X173929442Y-88950925D01*
X173916817Y-88938826D01*
X173912796Y-88934567D01*
X173901499Y-88921236D01*
X173891350Y-88907076D01*
X173882350Y-88892086D01*
X173876989Y-88881632D01*
X173872138Y-88870809D01*
X173867798Y-88859618D01*
X173863968Y-88848058D01*
X173860649Y-88836129D01*
X173857841Y-88823832D01*
X173855543Y-88811166D01*
X173853756Y-88798132D01*
X173852479Y-88784729D01*
X173851713Y-88770957D01*
X173851458Y-88756816D01*
X173851458Y-88556635D01*
X174039036Y-88556635D01*
X174039036Y-88699956D01*
X174039440Y-88713621D01*
X174040653Y-88726403D01*
X174043987Y-88743924D01*
X174049140Y-88759462D01*
X174056111Y-88773016D01*
X174064902Y-88784587D01*
X174075510Y-88794174D01*
X174087938Y-88801777D01*
X174102184Y-88807397D01*
X174118249Y-88811033D01*
X174129969Y-88812356D01*
X174142498Y-88812797D01*
X174852951Y-88812797D01*
X174859425Y-88812682D01*
X174871755Y-88811761D01*
X174888709Y-88808654D01*
X174903814Y-88803477D01*
X174917070Y-88796228D01*
X174928475Y-88786908D01*
X174938031Y-88775517D01*
X174945738Y-88762055D01*
X174951595Y-88746521D01*
X174954472Y-88735015D01*
X174956527Y-88722589D01*
X174957760Y-88709241D01*
X174958171Y-88694974D01*
X174958171Y-88556635D01*
X174039036Y-88556635D01*
X173851458Y-88556635D01*
X173851458Y-88363487D01*
X175145750Y-88363487D01*
X175145750Y-88756816D01*
G37*
G36*
X175145750Y-89686502D02*
G01*
X175145750Y-89151317D01*
X173851458Y-89151317D01*
X173851458Y-89681520D01*
X174039036Y-89681520D01*
X174039036Y-89344464D01*
X174395435Y-89344464D01*
X174395435Y-89634625D01*
X174583014Y-89634625D01*
X174583014Y-89344464D01*
X174958171Y-89344464D01*
X174958171Y-89686502D01*
X175145750Y-89686502D01*
G37*
G36*
X175145750Y-90357095D02*
G01*
X175145750Y-90164241D01*
X173851458Y-90164241D01*
X173851458Y-90357095D01*
X175145750Y-90357095D01*
G37*
G36*
X175145750Y-91166321D02*
G01*
X175145750Y-90997207D01*
X174331248Y-90687995D01*
X174345724Y-90690949D01*
X174359404Y-90693509D01*
X174372286Y-90695675D01*
X174384371Y-90697448D01*
X174398358Y-90699109D01*
X174411099Y-90700155D01*
X174424745Y-90700598D01*
X175145750Y-90700598D01*
X175145750Y-90512434D01*
X173851458Y-90512434D01*
X173851458Y-90681547D01*
X174649546Y-90990759D01*
X174635070Y-90987805D01*
X174621391Y-90985245D01*
X174608508Y-90983079D01*
X174596423Y-90981307D01*
X174582437Y-90979645D01*
X174569695Y-90978599D01*
X174556050Y-90978156D01*
X173851458Y-90978156D01*
X173851458Y-91166321D01*
X175145750Y-91166321D01*
G37*
G36*
X175145750Y-92312894D02*
G01*
X175145750Y-92100403D01*
X174573049Y-91855672D01*
X175145750Y-91855672D01*
X175145750Y-91662524D01*
X173851458Y-91662524D01*
X173851458Y-91855672D01*
X174403935Y-91855672D01*
X173851458Y-92069922D01*
X173851458Y-92280947D01*
X173860544Y-92280947D01*
X174479846Y-92018631D01*
X175145750Y-92312894D01*
G37*
G36*
X175145750Y-92921059D02*
G01*
X175145750Y-92385874D01*
X173851458Y-92385874D01*
X173851458Y-92916076D01*
X174039036Y-92916076D01*
X174039036Y-92579021D01*
X174395435Y-92579021D01*
X174395435Y-92869182D01*
X174583014Y-92869182D01*
X174583014Y-92579021D01*
X174958171Y-92579021D01*
X174958171Y-92921059D01*
X175145750Y-92921059D01*
G37*
G36*
X175145750Y-93703320D02*
G01*
X175145750Y-93534206D01*
X174331248Y-93224995D01*
X174345724Y-93227949D01*
X174359404Y-93230509D01*
X174372286Y-93232675D01*
X174384371Y-93234447D01*
X174398358Y-93236109D01*
X174411099Y-93237155D01*
X174424745Y-93237598D01*
X175145750Y-93237598D01*
X175145750Y-93049433D01*
X173851458Y-93049433D01*
X173851458Y-93218547D01*
X174649546Y-93527758D01*
X174635070Y-93524804D01*
X174621391Y-93522244D01*
X174608508Y-93520078D01*
X174596423Y-93518306D01*
X174582437Y-93516645D01*
X174569695Y-93515598D01*
X174556050Y-93515155D01*
X173851458Y-93515155D01*
X173851458Y-93703320D01*
X175145750Y-93703320D01*
G37*
G36*
X173859078Y-94502580D02*
G01*
X174399832Y-94332001D01*
X174415855Y-94325925D01*
X174427611Y-94321657D01*
X174440226Y-94317215D01*
X174453699Y-94312599D01*
X174468030Y-94307808D01*
X174483221Y-94302844D01*
X174499270Y-94297706D01*
X174516177Y-94292394D01*
X174533944Y-94286907D01*
X174552569Y-94281247D01*
X174572053Y-94275413D01*
X174592395Y-94269404D01*
X174613596Y-94263222D01*
X174635656Y-94256865D01*
X174647008Y-94253622D01*
X174658574Y-94250335D01*
X174670355Y-94247005D01*
X175145750Y-94247005D01*
X175145750Y-94053271D01*
X174670355Y-94053271D01*
X174658198Y-94050698D01*
X174645907Y-94047923D01*
X174633482Y-94044948D01*
X174620924Y-94041772D01*
X174608231Y-94038395D01*
X174595404Y-94034817D01*
X174582443Y-94031038D01*
X174569349Y-94027058D01*
X174556120Y-94022877D01*
X174542757Y-94018495D01*
X174533775Y-94015462D01*
X174518826Y-94010160D01*
X174504754Y-94005172D01*
X174491559Y-94000498D01*
X174479241Y-93996137D01*
X174467800Y-93992089D01*
X174452283Y-93986607D01*
X174438740Y-93981830D01*
X174427169Y-93977759D01*
X174414811Y-93973429D01*
X174402852Y-93969287D01*
X174399832Y-93968275D01*
X173858785Y-93798575D01*
X173851458Y-93798575D01*
X173851458Y-93997291D01*
X174414780Y-94151457D01*
X173851458Y-94304744D01*
X173851458Y-94502580D01*
X173859078Y-94502580D01*
G37*
G36*
X175145750Y-94740571D02*
G01*
X174920655Y-94779259D01*
X174920655Y-95020766D01*
X175145750Y-95059454D01*
X175145750Y-95250843D01*
X173851458Y-95002594D01*
X173851458Y-94899719D01*
X174150704Y-94899719D01*
X174733077Y-94993508D01*
X174733077Y-94804758D01*
X174150704Y-94899719D01*
X173851458Y-94899719D01*
X173851458Y-94799775D01*
X175142525Y-94550061D01*
X175145750Y-94550061D01*
X175145750Y-94740571D01*
G37*
D11*
X174119569Y-96002505D02*
X174119569Y-96097743D01*
X174119569Y-96097743D02*
X174167188Y-96192981D01*
X174167188Y-96192981D02*
X174214807Y-96240600D01*
X174214807Y-96240600D02*
X174310045Y-96288219D01*
X174310045Y-96288219D02*
X174500521Y-96335838D01*
X174500521Y-96335838D02*
X174738616Y-96335838D01*
X174738616Y-96335838D02*
X174929092Y-96288219D01*
X174929092Y-96288219D02*
X175024330Y-96240600D01*
X175024330Y-96240600D02*
X175071950Y-96192981D01*
X175071950Y-96192981D02*
X175119569Y-96097743D01*
X175119569Y-96097743D02*
X175119569Y-96002505D01*
X175119569Y-96002505D02*
X175071950Y-95907267D01*
X175071950Y-95907267D02*
X175024330Y-95859648D01*
X175024330Y-95859648D02*
X174929092Y-95812029D01*
X174929092Y-95812029D02*
X174738616Y-95764410D01*
X174738616Y-95764410D02*
X174500521Y-95764410D01*
X174500521Y-95764410D02*
X174310045Y-95812029D01*
X174310045Y-95812029D02*
X174214807Y-95859648D01*
X174214807Y-95859648D02*
X174167188Y-95907267D01*
X174167188Y-95907267D02*
X174119569Y-96002505D01*
X174119569Y-96954886D02*
X174119569Y-97050124D01*
X174119569Y-97050124D02*
X174167188Y-97145362D01*
X174167188Y-97145362D02*
X174214807Y-97192981D01*
X174214807Y-97192981D02*
X174310045Y-97240600D01*
X174310045Y-97240600D02*
X174500521Y-97288219D01*
X174500521Y-97288219D02*
X174738616Y-97288219D01*
X174738616Y-97288219D02*
X174929092Y-97240600D01*
X174929092Y-97240600D02*
X175024330Y-97192981D01*
X175024330Y-97192981D02*
X175071950Y-97145362D01*
X175071950Y-97145362D02*
X175119569Y-97050124D01*
X175119569Y-97050124D02*
X175119569Y-96954886D01*
X175119569Y-96954886D02*
X175071950Y-96859648D01*
X175071950Y-96859648D02*
X175024330Y-96812029D01*
X175024330Y-96812029D02*
X174929092Y-96764410D01*
X174929092Y-96764410D02*
X174738616Y-96716791D01*
X174738616Y-96716791D02*
X174500521Y-96716791D01*
X174500521Y-96716791D02*
X174310045Y-96764410D01*
X174310045Y-96764410D02*
X174214807Y-96812029D01*
X174214807Y-96812029D02*
X174167188Y-96859648D01*
X174167188Y-96859648D02*
X174119569Y-96954886D01*
X175119569Y-98240600D02*
X175119569Y-97669172D01*
X175119569Y-97954886D02*
X174119569Y-97954886D01*
X174119569Y-97954886D02*
X174262426Y-97859648D01*
X174262426Y-97859648D02*
X174357664Y-97764410D01*
X174357664Y-97764410D02*
X174405283Y-97669172D01*
X174214807Y-98621553D02*
X174167188Y-98669172D01*
X174167188Y-98669172D02*
X174119569Y-98764410D01*
X174119569Y-98764410D02*
X174119569Y-99002505D01*
X174119569Y-99002505D02*
X174167188Y-99097743D01*
X174167188Y-99097743D02*
X174214807Y-99145362D01*
X174214807Y-99145362D02*
X174310045Y-99192981D01*
X174310045Y-99192981D02*
X174405283Y-99192981D01*
X174405283Y-99192981D02*
X174548140Y-99145362D01*
X174548140Y-99145362D02*
X175119569Y-98573934D01*
X175119569Y-98573934D02*
X175119569Y-99192981D01*
X175119569Y-100145362D02*
X175119569Y-99573934D01*
X175119569Y-99859648D02*
X174119569Y-99859648D01*
X174119569Y-99859648D02*
X174262426Y-99764410D01*
X174262426Y-99764410D02*
X174357664Y-99669172D01*
X174357664Y-99669172D02*
X174405283Y-99573934D01*
X175119569Y-101097743D02*
X175119569Y-100526315D01*
X175119569Y-100812029D02*
X174119569Y-100812029D01*
X174119569Y-100812029D02*
X174262426Y-100716791D01*
X174262426Y-100716791D02*
X174357664Y-100621553D01*
X174357664Y-100621553D02*
X174405283Y-100526315D01*
X174214807Y-101478696D02*
X174167188Y-101526315D01*
X174167188Y-101526315D02*
X174119569Y-101621553D01*
X174119569Y-101621553D02*
X174119569Y-101859648D01*
X174119569Y-101859648D02*
X174167188Y-101954886D01*
X174167188Y-101954886D02*
X174214807Y-102002505D01*
X174214807Y-102002505D02*
X174310045Y-102050124D01*
X174310045Y-102050124D02*
X174405283Y-102050124D01*
X174405283Y-102050124D02*
X174548140Y-102002505D01*
X174548140Y-102002505D02*
X175119569Y-101431077D01*
X175119569Y-101431077D02*
X175119569Y-102050124D01*
X174214807Y-102431077D02*
X174167188Y-102478696D01*
X174167188Y-102478696D02*
X174119569Y-102573934D01*
X174119569Y-102573934D02*
X174119569Y-102812029D01*
X174119569Y-102812029D02*
X174167188Y-102907267D01*
X174167188Y-102907267D02*
X174214807Y-102954886D01*
X174214807Y-102954886D02*
X174310045Y-103002505D01*
X174310045Y-103002505D02*
X174405283Y-103002505D01*
X174405283Y-103002505D02*
X174548140Y-102954886D01*
X174548140Y-102954886D02*
X175119569Y-102383458D01*
X175119569Y-102383458D02*
X175119569Y-103002505D01*
X174119569Y-103335839D02*
X174119569Y-103954886D01*
X174119569Y-103954886D02*
X174500521Y-103621553D01*
X174500521Y-103621553D02*
X174500521Y-103764410D01*
X174500521Y-103764410D02*
X174548140Y-103859648D01*
X174548140Y-103859648D02*
X174595759Y-103907267D01*
X174595759Y-103907267D02*
X174690997Y-103954886D01*
X174690997Y-103954886D02*
X174929092Y-103954886D01*
X174929092Y-103954886D02*
X175024330Y-103907267D01*
X175024330Y-103907267D02*
X175071950Y-103859648D01*
X175071950Y-103859648D02*
X175119569Y-103764410D01*
X175119569Y-103764410D02*
X175119569Y-103478696D01*
X175119569Y-103478696D02*
X175071950Y-103383458D01*
X175071950Y-103383458D02*
X175024330Y-103335839D01*
X148223685Y-74981450D02*
X148109399Y-75019545D01*
X148109399Y-75019545D02*
X147918923Y-75019545D01*
X147918923Y-75019545D02*
X147842732Y-74981450D01*
X147842732Y-74981450D02*
X147804637Y-74943354D01*
X147804637Y-74943354D02*
X147766542Y-74867164D01*
X147766542Y-74867164D02*
X147766542Y-74790973D01*
X147766542Y-74790973D02*
X147804637Y-74714783D01*
X147804637Y-74714783D02*
X147842732Y-74676688D01*
X147842732Y-74676688D02*
X147918923Y-74638592D01*
X147918923Y-74638592D02*
X148071304Y-74600497D01*
X148071304Y-74600497D02*
X148147494Y-74562402D01*
X148147494Y-74562402D02*
X148185589Y-74524307D01*
X148185589Y-74524307D02*
X148223685Y-74448116D01*
X148223685Y-74448116D02*
X148223685Y-74371926D01*
X148223685Y-74371926D02*
X148185589Y-74295735D01*
X148185589Y-74295735D02*
X148147494Y-74257640D01*
X148147494Y-74257640D02*
X148071304Y-74219545D01*
X148071304Y-74219545D02*
X147880827Y-74219545D01*
X147880827Y-74219545D02*
X147766542Y-74257640D01*
X147537970Y-74219545D02*
X147080827Y-74219545D01*
X147309399Y-75019545D02*
X147309399Y-74219545D01*
X146852256Y-74790973D02*
X146471303Y-74790973D01*
X146928446Y-75019545D02*
X146661779Y-74219545D01*
X146661779Y-74219545D02*
X146395113Y-75019545D01*
X146242732Y-74219545D02*
X145785589Y-74219545D01*
X146014161Y-75019545D02*
X146014161Y-74219545D01*
X145518922Y-74219545D02*
X145518922Y-74867164D01*
X145518922Y-74867164D02*
X145480827Y-74943354D01*
X145480827Y-74943354D02*
X145442732Y-74981450D01*
X145442732Y-74981450D02*
X145366541Y-75019545D01*
X145366541Y-75019545D02*
X145214160Y-75019545D01*
X145214160Y-75019545D02*
X145137970Y-74981450D01*
X145137970Y-74981450D02*
X145099875Y-74943354D01*
X145099875Y-74943354D02*
X145061779Y-74867164D01*
X145061779Y-74867164D02*
X145061779Y-74219545D01*
X144718923Y-74981450D02*
X144604637Y-75019545D01*
X144604637Y-75019545D02*
X144414161Y-75019545D01*
X144414161Y-75019545D02*
X144337970Y-74981450D01*
X144337970Y-74981450D02*
X144299875Y-74943354D01*
X144299875Y-74943354D02*
X144261780Y-74867164D01*
X144261780Y-74867164D02*
X144261780Y-74790973D01*
X144261780Y-74790973D02*
X144299875Y-74714783D01*
X144299875Y-74714783D02*
X144337970Y-74676688D01*
X144337970Y-74676688D02*
X144414161Y-74638592D01*
X144414161Y-74638592D02*
X144566542Y-74600497D01*
X144566542Y-74600497D02*
X144642732Y-74562402D01*
X144642732Y-74562402D02*
X144680827Y-74524307D01*
X144680827Y-74524307D02*
X144718923Y-74448116D01*
X144718923Y-74448116D02*
X144718923Y-74371926D01*
X144718923Y-74371926D02*
X144680827Y-74295735D01*
X144680827Y-74295735D02*
X144642732Y-74257640D01*
X144642732Y-74257640D02*
X144566542Y-74219545D01*
X144566542Y-74219545D02*
X144376065Y-74219545D01*
X144376065Y-74219545D02*
X144261780Y-74257640D01*
X132885589Y-87961211D02*
X132885589Y-88761211D01*
X132885589Y-87999307D02*
X132809399Y-87961211D01*
X132809399Y-87961211D02*
X132657018Y-87961211D01*
X132657018Y-87961211D02*
X132580827Y-87999307D01*
X132580827Y-87999307D02*
X132542732Y-88037402D01*
X132542732Y-88037402D02*
X132504637Y-88113592D01*
X132504637Y-88113592D02*
X132504637Y-88342164D01*
X132504637Y-88342164D02*
X132542732Y-88418354D01*
X132542732Y-88418354D02*
X132580827Y-88456450D01*
X132580827Y-88456450D02*
X132657018Y-88494545D01*
X132657018Y-88494545D02*
X132809399Y-88494545D01*
X132809399Y-88494545D02*
X132885589Y-88456450D01*
X132237970Y-87961211D02*
X132085589Y-88494545D01*
X132085589Y-88494545D02*
X131933208Y-88113592D01*
X131933208Y-88113592D02*
X131780827Y-88494545D01*
X131780827Y-88494545D02*
X131628446Y-87961211D01*
X131323684Y-88494545D02*
X131323684Y-87961211D01*
X131323684Y-88113592D02*
X131285589Y-88037402D01*
X131285589Y-88037402D02*
X131247494Y-87999307D01*
X131247494Y-87999307D02*
X131171303Y-87961211D01*
X131171303Y-87961211D02*
X131095113Y-87961211D01*
X130218922Y-88494545D02*
X130218922Y-87961211D01*
X130218922Y-87694545D02*
X130257018Y-87732640D01*
X130257018Y-87732640D02*
X130218922Y-87770735D01*
X130218922Y-87770735D02*
X130180827Y-87732640D01*
X130180827Y-87732640D02*
X130218922Y-87694545D01*
X130218922Y-87694545D02*
X130218922Y-87770735D01*
X129837970Y-87961211D02*
X129837970Y-88494545D01*
X129837970Y-88037402D02*
X129799875Y-87999307D01*
X129799875Y-87999307D02*
X129723685Y-87961211D01*
X129723685Y-87961211D02*
X129609399Y-87961211D01*
X129609399Y-87961211D02*
X129533208Y-87999307D01*
X129533208Y-87999307D02*
X129495113Y-88075497D01*
X129495113Y-88075497D02*
X129495113Y-88494545D01*
X156949569Y-114460964D02*
X156949569Y-113889536D01*
X156949569Y-114175250D02*
X155949569Y-114175250D01*
X155949569Y-114175250D02*
X156092426Y-114080012D01*
X156092426Y-114080012D02*
X156187664Y-113984774D01*
X156187664Y-113984774D02*
X156235283Y-113889536D01*
X157604569Y-109166917D02*
X157604569Y-109785964D01*
X157604569Y-109785964D02*
X157985521Y-109452631D01*
X157985521Y-109452631D02*
X157985521Y-109595488D01*
X157985521Y-109595488D02*
X158033140Y-109690726D01*
X158033140Y-109690726D02*
X158080759Y-109738345D01*
X158080759Y-109738345D02*
X158175997Y-109785964D01*
X158175997Y-109785964D02*
X158414092Y-109785964D01*
X158414092Y-109785964D02*
X158509330Y-109738345D01*
X158509330Y-109738345D02*
X158556950Y-109690726D01*
X158556950Y-109690726D02*
X158604569Y-109595488D01*
X158604569Y-109595488D02*
X158604569Y-109309774D01*
X158604569Y-109309774D02*
X158556950Y-109214536D01*
X158556950Y-109214536D02*
X158509330Y-109166917D01*
X152029569Y-108916917D02*
X152029569Y-109535964D01*
X152029569Y-109535964D02*
X152410521Y-109202631D01*
X152410521Y-109202631D02*
X152410521Y-109345488D01*
X152410521Y-109345488D02*
X152458140Y-109440726D01*
X152458140Y-109440726D02*
X152505759Y-109488345D01*
X152505759Y-109488345D02*
X152600997Y-109535964D01*
X152600997Y-109535964D02*
X152839092Y-109535964D01*
X152839092Y-109535964D02*
X152934330Y-109488345D01*
X152934330Y-109488345D02*
X152981950Y-109440726D01*
X152981950Y-109440726D02*
X153029569Y-109345488D01*
X153029569Y-109345488D02*
X153029569Y-109059774D01*
X153029569Y-109059774D02*
X152981950Y-108964536D01*
X152981950Y-108964536D02*
X152934330Y-108916917D01*
X154299569Y-114460964D02*
X154299569Y-113889536D01*
X154299569Y-114175250D02*
X153299569Y-114175250D01*
X153299569Y-114175250D02*
X153442426Y-114080012D01*
X153442426Y-114080012D02*
X153537664Y-113984774D01*
X153537664Y-113984774D02*
X153585283Y-113889536D01*
D12*
X128534750Y-99517414D02*
X128534750Y-99733086D01*
X127814750Y-99517414D02*
X127814750Y-99733086D01*
X133374750Y-75175250D02*
X136574750Y-75175250D01*
X131294750Y-76975250D02*
X131294750Y-80575250D01*
X138174750Y-77475250D02*
X138174750Y-80075250D01*
X133374750Y-82375250D02*
X136574750Y-82375250D01*
X152394750Y-112521609D02*
X152394750Y-112828891D01*
X151634750Y-112521609D02*
X151634750Y-112828891D01*
X167044750Y-80938891D02*
X167044750Y-80631609D01*
X167804750Y-80938891D02*
X167804750Y-80631609D01*
X144904750Y-98621609D02*
X144904750Y-98928891D01*
X144144750Y-98621609D02*
X144144750Y-98928891D01*
X141424750Y-76237750D02*
X141424750Y-75037750D01*
X141624750Y-75037750D02*
X143124750Y-75037750D01*
X141624750Y-76237750D02*
X141624750Y-75037750D01*
X143124750Y-75037750D02*
X143124750Y-76237750D01*
X143124750Y-76237750D02*
X141624750Y-76237750D01*
X141454750Y-98671609D02*
X141454750Y-98978891D01*
X140694750Y-98671609D02*
X140694750Y-98978891D01*
X136824750Y-86515250D02*
X136174750Y-86515250D01*
X136824750Y-86515250D02*
X137474750Y-86515250D01*
X136824750Y-89635250D02*
X135149750Y-89635250D01*
X136824750Y-89635250D02*
X137474750Y-89635250D01*
X165484750Y-106162750D02*
X165484750Y-105512750D01*
X165484750Y-106162750D02*
X165484750Y-106812750D01*
X162364750Y-106162750D02*
X162364750Y-104487750D01*
X162364750Y-106162750D02*
X162364750Y-106812750D01*
X160246359Y-98995250D02*
X160553641Y-98995250D01*
X160246359Y-99755250D02*
X160553641Y-99755250D01*
X156484750Y-75488891D02*
X156484750Y-75181609D01*
X157244750Y-75488891D02*
X157244750Y-75181609D01*
X142064750Y-98913086D02*
X142064750Y-98697414D01*
X142784750Y-98913086D02*
X142784750Y-98697414D01*
G36*
X173068683Y-95256539D02*
G01*
X173068683Y-95431582D01*
X172421649Y-95431582D01*
X171774615Y-95431582D01*
X171774615Y-95256539D01*
X171774615Y-95081496D01*
X172421649Y-95081496D01*
X173068683Y-95081496D01*
X173068683Y-95256539D01*
G37*
G36*
X173617941Y-91099935D02*
G01*
X173627258Y-91101267D01*
X173636303Y-91103046D01*
X173667035Y-91116630D01*
X173699554Y-91141814D01*
X173733208Y-91178123D01*
X173741637Y-91188739D01*
X173779319Y-91244621D01*
X173807685Y-91302146D01*
X173825401Y-91358704D01*
X173826916Y-91369300D01*
X173828431Y-91392452D01*
X173829051Y-91421477D01*
X173828642Y-91452478D01*
X173826931Y-91487345D01*
X173823701Y-91515948D01*
X173818275Y-91540823D01*
X173809918Y-91566449D01*
X173792586Y-91607900D01*
X173767350Y-91655613D01*
X173738612Y-91699467D01*
X173707918Y-91737374D01*
X173676811Y-91767244D01*
X173646836Y-91786990D01*
X173629690Y-91794037D01*
X173610115Y-91796611D01*
X173597296Y-91789329D01*
X173590399Y-91771971D01*
X173590246Y-91770915D01*
X173589471Y-91758435D01*
X173588710Y-91734986D01*
X173587983Y-91701850D01*
X173587306Y-91660310D01*
X173586701Y-91611648D01*
X173586184Y-91557144D01*
X173585775Y-91498082D01*
X173585493Y-91435743D01*
X173585411Y-91411920D01*
X173585171Y-91341661D01*
X173585067Y-91282652D01*
X173585220Y-91233932D01*
X173585750Y-91194540D01*
X173586777Y-91163515D01*
X173588420Y-91139897D01*
X173590799Y-91122725D01*
X173594035Y-91111038D01*
X173598247Y-91103877D01*
X173603555Y-91100279D01*
X173610080Y-91099286D01*
X173617941Y-91099935D01*
G37*
G36*
X172043431Y-95753216D02*
G01*
X172043431Y-95837292D01*
X172413834Y-95839709D01*
X172460045Y-95840021D01*
X172532125Y-95840567D01*
X172593323Y-95841140D01*
X172644671Y-95841772D01*
X172687204Y-95842498D01*
X172721953Y-95843350D01*
X172749953Y-95844362D01*
X172772237Y-95845568D01*
X172789837Y-95847000D01*
X172803788Y-95848692D01*
X172815122Y-95850678D01*
X172824873Y-95852991D01*
X172883167Y-95873164D01*
X172939490Y-95903268D01*
X172987400Y-95941121D01*
X173025644Y-95985891D01*
X173028587Y-95990357D01*
X173044436Y-96020141D01*
X173059504Y-96056945D01*
X173072096Y-96096207D01*
X173080514Y-96133367D01*
X173082877Y-96152662D01*
X173085088Y-96186368D01*
X173086286Y-96226387D01*
X173086466Y-96269229D01*
X173085623Y-96311405D01*
X173083752Y-96349425D01*
X173080849Y-96379800D01*
X173078461Y-96395831D01*
X173070673Y-96437008D01*
X173060837Y-96478608D01*
X173050026Y-96516342D01*
X173039314Y-96545918D01*
X173029275Y-96569362D01*
X172898942Y-96569362D01*
X172886706Y-96569340D01*
X172849079Y-96568992D01*
X172816623Y-96568269D01*
X172791171Y-96567239D01*
X172774555Y-96565970D01*
X172768609Y-96564530D01*
X172769199Y-96560878D01*
X172772272Y-96546958D01*
X172777380Y-96525580D01*
X172783854Y-96499600D01*
X172791232Y-96468210D01*
X172802206Y-96401865D01*
X172804600Y-96344570D01*
X172798416Y-96296335D01*
X172783656Y-96257171D01*
X172760322Y-96227090D01*
X172728416Y-96206102D01*
X172724379Y-96204385D01*
X172717492Y-96202096D01*
X172708812Y-96200188D01*
X172697268Y-96198628D01*
X172681789Y-96197379D01*
X172661304Y-96196407D01*
X172634743Y-96195676D01*
X172601033Y-96195152D01*
X172559105Y-96194797D01*
X172507886Y-96194579D01*
X172446307Y-96194460D01*
X172373295Y-96194407D01*
X172043622Y-96194269D01*
X172041964Y-96374001D01*
X172040305Y-96553733D01*
X171907460Y-96555420D01*
X171774615Y-96557107D01*
X171774615Y-96375688D01*
X171774615Y-96194269D01*
X171637081Y-96194269D01*
X171499547Y-96194269D01*
X171499547Y-96079741D01*
X171499547Y-95965213D01*
X171579254Y-95935467D01*
X171612704Y-95922952D01*
X171650977Y-95908574D01*
X171686997Y-95894988D01*
X171716032Y-95883977D01*
X171773102Y-95862232D01*
X171831685Y-95765690D01*
X171890268Y-95669147D01*
X171966849Y-95669144D01*
X172043431Y-95669140D01*
X172043431Y-95753216D01*
G37*
G36*
X173068683Y-98466348D02*
G01*
X173068683Y-98644161D01*
X172692028Y-98646555D01*
X172633353Y-98646939D01*
X172558873Y-98647502D01*
X172495060Y-98648151D01*
X172440828Y-98648966D01*
X172395096Y-98650025D01*
X172356780Y-98651408D01*
X172324797Y-98653197D01*
X172298062Y-98655469D01*
X172275493Y-98658306D01*
X172256007Y-98661787D01*
X172238519Y-98665992D01*
X172221947Y-98671000D01*
X172205207Y-98676892D01*
X172187216Y-98683748D01*
X172153911Y-98698868D01*
X172111111Y-98727602D01*
X172078329Y-98763354D01*
X172055274Y-98806575D01*
X172041654Y-98857719D01*
X172037179Y-98917238D01*
X172037184Y-98919164D01*
X172041597Y-98971015D01*
X172054647Y-99014391D01*
X172076877Y-99049940D01*
X172108831Y-99078308D01*
X172151050Y-99100143D01*
X172204079Y-99116092D01*
X172213437Y-99117967D01*
X172225536Y-99119766D01*
X172240390Y-99121290D01*
X172258973Y-99122561D01*
X172282260Y-99123601D01*
X172311227Y-99124432D01*
X172346847Y-99125075D01*
X172390097Y-99125553D01*
X172441950Y-99125886D01*
X172503381Y-99126098D01*
X172575366Y-99126209D01*
X172658878Y-99126241D01*
X173068683Y-99126241D01*
X173068683Y-99304410D01*
X173068683Y-99482578D01*
X172613884Y-99482553D01*
X172535505Y-99482526D01*
X172451765Y-99482406D01*
X172378812Y-99482140D01*
X172315707Y-99481676D01*
X172261512Y-99480962D01*
X172215290Y-99479945D01*
X172176101Y-99478575D01*
X172143009Y-99476798D01*
X172115074Y-99474562D01*
X172091360Y-99471816D01*
X172070927Y-99468506D01*
X172052839Y-99464582D01*
X172036157Y-99459990D01*
X172019942Y-99454678D01*
X172003257Y-99448595D01*
X171971895Y-99435206D01*
X171914982Y-99401114D01*
X171865981Y-99357390D01*
X171824980Y-99304137D01*
X171792064Y-99241456D01*
X171767321Y-99169450D01*
X171760267Y-99135877D01*
X171754419Y-99085172D01*
X171752205Y-99029845D01*
X171753626Y-98974029D01*
X171758679Y-98921854D01*
X171767364Y-98877452D01*
X171778531Y-98839799D01*
X171802742Y-98778584D01*
X171832600Y-98726479D01*
X171869218Y-98681696D01*
X171913711Y-98642446D01*
X171920813Y-98636655D01*
X171932528Y-98624757D01*
X171937155Y-98616263D01*
X171934978Y-98612281D01*
X171927182Y-98607453D01*
X171912459Y-98601504D01*
X171889505Y-98593970D01*
X171857015Y-98584385D01*
X171813687Y-98572286D01*
X171774615Y-98561552D01*
X171774615Y-98425044D01*
X171774615Y-98288535D01*
X172421649Y-98288535D01*
X173068683Y-98288535D01*
X173068683Y-98466348D01*
G37*
G36*
X171776799Y-93549881D02*
G01*
X171783546Y-93552359D01*
X171800887Y-93558886D01*
X171827810Y-93569077D01*
X171863306Y-93582545D01*
X171906361Y-93598905D01*
X171955966Y-93617771D01*
X172011108Y-93638759D01*
X172070777Y-93661482D01*
X172133961Y-93685554D01*
X172199648Y-93710591D01*
X172266828Y-93736207D01*
X172334489Y-93762016D01*
X172401619Y-93787633D01*
X172467208Y-93812672D01*
X172530244Y-93836748D01*
X172589716Y-93859474D01*
X172644612Y-93880467D01*
X172693922Y-93899339D01*
X172736633Y-93915706D01*
X172771735Y-93929182D01*
X172784941Y-93934235D01*
X172810275Y-93943801D01*
X172831014Y-93951468D01*
X172843628Y-93955925D01*
X172853037Y-93959298D01*
X172872245Y-93966501D01*
X172898248Y-93976404D01*
X172928503Y-93988023D01*
X172960469Y-94000377D01*
X172991606Y-94012483D01*
X173019370Y-94023358D01*
X173041221Y-94032020D01*
X173054617Y-94037486D01*
X173068683Y-94043472D01*
X173068683Y-94224232D01*
X173068671Y-94253558D01*
X173068551Y-94299958D01*
X173068236Y-94335939D01*
X173067645Y-94362861D01*
X173066698Y-94382085D01*
X173065315Y-94394972D01*
X173063415Y-94402884D01*
X173060918Y-94407182D01*
X173057743Y-94409225D01*
X173056347Y-94409760D01*
X173045026Y-94414085D01*
X173023302Y-94422377D01*
X172992098Y-94434285D01*
X172952336Y-94449456D01*
X172904938Y-94467539D01*
X172850827Y-94488182D01*
X172790923Y-94511033D01*
X172726149Y-94535742D01*
X172657428Y-94561955D01*
X172585680Y-94589322D01*
X172511828Y-94617491D01*
X172436794Y-94646110D01*
X172361501Y-94674827D01*
X172286869Y-94703291D01*
X172213821Y-94731150D01*
X172143279Y-94758053D01*
X172076165Y-94783647D01*
X172013401Y-94807581D01*
X171955909Y-94829503D01*
X171944311Y-94833923D01*
X171892803Y-94853478D01*
X171851983Y-94868824D01*
X171821056Y-94880253D01*
X171799226Y-94888056D01*
X171785696Y-94892525D01*
X171779670Y-94893949D01*
X171779279Y-94893402D01*
X171778031Y-94883983D01*
X171776914Y-94864066D01*
X171775972Y-94835194D01*
X171775246Y-94798911D01*
X171774780Y-94756761D01*
X171774615Y-94710289D01*
X171774615Y-94526628D01*
X171838693Y-94504538D01*
X171844811Y-94502433D01*
X171871736Y-94493229D01*
X171908580Y-94480694D01*
X171953872Y-94465324D01*
X172006137Y-94447618D01*
X172063903Y-94428074D01*
X172125697Y-94407190D01*
X172190046Y-94385464D01*
X172255477Y-94363393D01*
X172320516Y-94341476D01*
X172383692Y-94320210D01*
X172443529Y-94300094D01*
X172477391Y-94288949D01*
X172541116Y-94269323D01*
X172598883Y-94253359D01*
X172649319Y-94241398D01*
X172691050Y-94233781D01*
X172722705Y-94230847D01*
X172742893Y-94229760D01*
X172757309Y-94227062D01*
X172760377Y-94223467D01*
X172751727Y-94219630D01*
X172730989Y-94216203D01*
X172704969Y-94212944D01*
X172626723Y-94199089D01*
X172542732Y-94178315D01*
X172451005Y-94150154D01*
X172439067Y-94146179D01*
X172395409Y-94131584D01*
X172346388Y-94115118D01*
X172293233Y-94097200D01*
X172237172Y-94078251D01*
X172179435Y-94058687D01*
X172121253Y-94038930D01*
X172063853Y-94019397D01*
X172008465Y-94000509D01*
X171956320Y-93982683D01*
X171908645Y-93966340D01*
X171866670Y-93951898D01*
X171831625Y-93939776D01*
X171804740Y-93930394D01*
X171787242Y-93924170D01*
X171780363Y-93921524D01*
X171780014Y-93920763D01*
X171778890Y-93910815D01*
X171777844Y-93890908D01*
X171776896Y-93862912D01*
X171776062Y-93828701D01*
X171775362Y-93790144D01*
X171774814Y-93749114D01*
X171774436Y-93707483D01*
X171774245Y-93667121D01*
X171774261Y-93629901D01*
X171774501Y-93597694D01*
X171774983Y-93572372D01*
X171775727Y-93555806D01*
X171776749Y-93549869D01*
X171776799Y-93549881D01*
G37*
G36*
X172443230Y-92261520D02*
G01*
X172532922Y-92265731D01*
X172613654Y-92276808D01*
X172687014Y-92295239D01*
X172754584Y-92321508D01*
X172817950Y-92356100D01*
X172878696Y-92399501D01*
X172887951Y-92407168D01*
X172934311Y-92453908D01*
X172976461Y-92510268D01*
X173013295Y-92574113D01*
X173043706Y-92643306D01*
X173066583Y-92715711D01*
X173080821Y-92789193D01*
X173082328Y-92803404D01*
X173084498Y-92837588D01*
X173085869Y-92879387D01*
X173086444Y-92925646D01*
X173086222Y-92973211D01*
X173085204Y-93018926D01*
X173083390Y-93059637D01*
X173080781Y-93092190D01*
X173076076Y-93127772D01*
X173059428Y-93210277D01*
X173035637Y-93290551D01*
X173005997Y-93363885D01*
X172997909Y-93381077D01*
X172861379Y-93381077D01*
X172823519Y-93380927D01*
X172780527Y-93380212D01*
X172749672Y-93378911D01*
X172731074Y-93377031D01*
X172724848Y-93374577D01*
X172725150Y-93372534D01*
X172729309Y-93360776D01*
X172736794Y-93344660D01*
X172744436Y-93328212D01*
X172757589Y-93295010D01*
X172771471Y-93255226D01*
X172784968Y-93212284D01*
X172796967Y-93169611D01*
X172806355Y-93130631D01*
X172810958Y-93107485D01*
X172815554Y-93077377D01*
X172818531Y-93045516D01*
X172820195Y-93008323D01*
X172820854Y-92962224D01*
X172820875Y-92957865D01*
X172820865Y-92919298D01*
X172820273Y-92890370D01*
X172818849Y-92868478D01*
X172816342Y-92851016D01*
X172812501Y-92835377D01*
X172807076Y-92818957D01*
X172790443Y-92780455D01*
X172758399Y-92731401D01*
X172717289Y-92690811D01*
X172667356Y-92658864D01*
X172608843Y-92635742D01*
X172541991Y-92621623D01*
X172512296Y-92617623D01*
X172512296Y-93034493D01*
X172512296Y-93451362D01*
X172357570Y-93448216D01*
X172352611Y-93448114D01*
X172303081Y-93446955D01*
X172263821Y-93445654D01*
X172232776Y-93444044D01*
X172207894Y-93441955D01*
X172187124Y-93439220D01*
X172168412Y-93435668D01*
X172149707Y-93431131D01*
X172144508Y-93429744D01*
X172066932Y-93402891D01*
X171996420Y-93366666D01*
X171933726Y-93321694D01*
X171879605Y-93268603D01*
X171834810Y-93208020D01*
X171800097Y-93140571D01*
X171789266Y-93113344D01*
X171774986Y-93070879D01*
X171764835Y-93029027D01*
X171758244Y-92984543D01*
X171754644Y-92934183D01*
X171753546Y-92878691D01*
X172009159Y-92878691D01*
X172009455Y-92909970D01*
X172010725Y-92932522D01*
X172013491Y-92949757D01*
X172018275Y-92965081D01*
X172025601Y-92981904D01*
X172025820Y-92982369D01*
X172052827Y-93025302D01*
X172089206Y-93060801D01*
X172133232Y-93087181D01*
X172144006Y-93091636D01*
X172174137Y-93101634D01*
X172207505Y-93110229D01*
X172239198Y-93116246D01*
X172264309Y-93118512D01*
X172266647Y-93117909D01*
X172268865Y-93115068D01*
X172270639Y-93108840D01*
X172272019Y-93098087D01*
X172273053Y-93081667D01*
X172273789Y-93058443D01*
X172274277Y-93027274D01*
X172274566Y-92987020D01*
X172274703Y-92936543D01*
X172274738Y-92874702D01*
X172274738Y-92630893D01*
X172254420Y-92630985D01*
X172247274Y-92631274D01*
X172219159Y-92635192D01*
X172186690Y-92642635D01*
X172155162Y-92652255D01*
X172129867Y-92662704D01*
X172110100Y-92674582D01*
X172077013Y-92701702D01*
X172047746Y-92734121D01*
X172026444Y-92767636D01*
X172024772Y-92771091D01*
X172017747Y-92787091D01*
X172013220Y-92802073D01*
X172010643Y-92819416D01*
X172009473Y-92842499D01*
X172009163Y-92874702D01*
X172009159Y-92878691D01*
X171753546Y-92878691D01*
X171753467Y-92874702D01*
X171753464Y-92873492D01*
X171754731Y-92809509D01*
X171759097Y-92754751D01*
X171767043Y-92706266D01*
X171779050Y-92661103D01*
X171795600Y-92616310D01*
X171829486Y-92546973D01*
X171874512Y-92479774D01*
X171927889Y-92421666D01*
X171989695Y-92372604D01*
X172060008Y-92332544D01*
X172138907Y-92301443D01*
X172226470Y-92279257D01*
X172274738Y-92272583D01*
X172322775Y-92265941D01*
X172427900Y-92261452D01*
X172443230Y-92261520D01*
G37*
G36*
X172284115Y-90727130D02*
G01*
X172349107Y-90741146D01*
X172432565Y-90769971D01*
X172510878Y-90809764D01*
X172583309Y-90859995D01*
X172649121Y-90920132D01*
X172707577Y-90989647D01*
X172757939Y-91068008D01*
X172773628Y-91096140D01*
X173061366Y-91099266D01*
X173086226Y-91099537D01*
X173149654Y-91100262D01*
X173202102Y-91100949D01*
X173244699Y-91101660D01*
X173278575Y-91102453D01*
X173304858Y-91103387D01*
X173324678Y-91104521D01*
X173339164Y-91105916D01*
X173349446Y-91107630D01*
X173356653Y-91109723D01*
X173361914Y-91112253D01*
X173366358Y-91115281D01*
X173373973Y-91121366D01*
X173398728Y-91149417D01*
X173412505Y-91181303D01*
X173413333Y-91187157D01*
X173414556Y-91205890D01*
X173415589Y-91234383D01*
X173416430Y-91270924D01*
X173417079Y-91313802D01*
X173417534Y-91361305D01*
X173417795Y-91411721D01*
X173417861Y-91463340D01*
X173417731Y-91514449D01*
X173417404Y-91563338D01*
X173416879Y-91608293D01*
X173416156Y-91647605D01*
X173415232Y-91679560D01*
X173414109Y-91702449D01*
X173412783Y-91714558D01*
X173405129Y-91737257D01*
X173386181Y-91766010D01*
X173360398Y-91786208D01*
X173329824Y-91796881D01*
X173296503Y-91797062D01*
X173262481Y-91785781D01*
X173260269Y-91784620D01*
X173236815Y-91767508D01*
X173220283Y-91743412D01*
X173218911Y-91740666D01*
X173215228Y-91732564D01*
X173212335Y-91723935D01*
X173210139Y-91713283D01*
X173208542Y-91699111D01*
X173207450Y-91679921D01*
X173206767Y-91654217D01*
X173206398Y-91620501D01*
X173206246Y-91577276D01*
X173206217Y-91523046D01*
X173206217Y-91330573D01*
X173019486Y-91330573D01*
X172832756Y-91330573D01*
X172829523Y-91413405D01*
X172828853Y-91427819D01*
X172822771Y-91490508D01*
X172811002Y-91547871D01*
X172792381Y-91604511D01*
X172765741Y-91665030D01*
X172758325Y-91679844D01*
X172712923Y-91754916D01*
X172659158Y-91821659D01*
X172598079Y-91879786D01*
X172530737Y-91929010D01*
X172458180Y-91969046D01*
X172381457Y-91999607D01*
X172301619Y-92020407D01*
X172219715Y-92031159D01*
X172136794Y-92031577D01*
X172053905Y-92021376D01*
X171972099Y-92000267D01*
X171892424Y-91967966D01*
X171815930Y-91924185D01*
X171797240Y-91911890D01*
X171777637Y-91899367D01*
X171764029Y-91891127D01*
X171758598Y-91888529D01*
X171756131Y-91894256D01*
X171750161Y-91909434D01*
X171741621Y-91931685D01*
X171731425Y-91958647D01*
X171728685Y-91965856D01*
X171712195Y-92004893D01*
X171696293Y-92033525D01*
X171679642Y-92053409D01*
X171660910Y-92066199D01*
X171638760Y-92073550D01*
X171604517Y-92075526D01*
X171571213Y-92066342D01*
X171542679Y-92046517D01*
X171520869Y-92016989D01*
X171520474Y-92016223D01*
X171515087Y-92002578D01*
X171512713Y-91987162D01*
X171513660Y-91968351D01*
X171518233Y-91944520D01*
X171526739Y-91914041D01*
X171539485Y-91875292D01*
X171556778Y-91826645D01*
X171561708Y-91813057D01*
X171575426Y-91774852D01*
X171585345Y-91746120D01*
X171591912Y-91725139D01*
X171595569Y-91710186D01*
X171596762Y-91699540D01*
X171595936Y-91691478D01*
X171593535Y-91684279D01*
X171588330Y-91671654D01*
X171567390Y-91619066D01*
X171551313Y-91574490D01*
X171539488Y-91535319D01*
X171531308Y-91498948D01*
X171526162Y-91462773D01*
X171523442Y-91424187D01*
X171522539Y-91380585D01*
X171522587Y-91365761D01*
X171522636Y-91364929D01*
X171826746Y-91364929D01*
X171829994Y-91426888D01*
X171845160Y-91489900D01*
X171870335Y-91546922D01*
X171904272Y-91597174D01*
X171945752Y-91640049D01*
X171993555Y-91674941D01*
X172046462Y-91701245D01*
X172103252Y-91718353D01*
X172162706Y-91725661D01*
X172223605Y-91722562D01*
X172284728Y-91708450D01*
X172344855Y-91682719D01*
X172383432Y-91657048D01*
X172423698Y-91619400D01*
X172459441Y-91574698D01*
X172488409Y-91525796D01*
X172508347Y-91475551D01*
X172519611Y-91422521D01*
X172521959Y-91358507D01*
X172512138Y-91295496D01*
X172490317Y-91234466D01*
X172456666Y-91176399D01*
X172446929Y-91163211D01*
X172403198Y-91116601D01*
X172352325Y-91079522D01*
X172295642Y-91052500D01*
X172234485Y-91036062D01*
X172170184Y-91030736D01*
X172104074Y-91037048D01*
X172067453Y-91046149D01*
X172011639Y-91069704D01*
X171961349Y-91102891D01*
X171917554Y-91144326D01*
X171881225Y-91192629D01*
X171853333Y-91246418D01*
X171834850Y-91304312D01*
X171826746Y-91364929D01*
X171522636Y-91364929D01*
X171527184Y-91287179D01*
X171539674Y-91215099D01*
X171560798Y-91146256D01*
X171591296Y-91077385D01*
X171613803Y-91036602D01*
X171664086Y-90964291D01*
X171722825Y-90900245D01*
X171788989Y-90844984D01*
X171861545Y-90799031D01*
X171939463Y-90762907D01*
X172021711Y-90737133D01*
X172107256Y-90722231D01*
X172170184Y-90719717D01*
X172195068Y-90718723D01*
X172284115Y-90727130D01*
G37*
G36*
X171157318Y-94977017D02*
G01*
X171206672Y-94989146D01*
X171253261Y-95010359D01*
X171295634Y-95040661D01*
X171332342Y-95080060D01*
X171361934Y-95128561D01*
X171378450Y-95171907D01*
X171388355Y-95226391D01*
X171387558Y-95281089D01*
X171376615Y-95334280D01*
X171356082Y-95384246D01*
X171326515Y-95429266D01*
X171288473Y-95467620D01*
X171242510Y-95497590D01*
X171211242Y-95513434D01*
X171213809Y-96211752D01*
X171213933Y-96245367D01*
X171214371Y-96356812D01*
X171214822Y-96456730D01*
X171215316Y-96545886D01*
X171215880Y-96625041D01*
X171216543Y-96694958D01*
X171217333Y-96756399D01*
X171218277Y-96810126D01*
X171219404Y-96856903D01*
X171220741Y-96897492D01*
X171222318Y-96932655D01*
X171224162Y-96963154D01*
X171226301Y-96989752D01*
X171228763Y-97013212D01*
X171231576Y-97034296D01*
X171234769Y-97053766D01*
X171238370Y-97072385D01*
X171242405Y-97090915D01*
X171246905Y-97110120D01*
X171251066Y-97126677D01*
X171263764Y-97167721D01*
X171279063Y-97202204D01*
X171298055Y-97230704D01*
X171321831Y-97253803D01*
X171351485Y-97272080D01*
X171388108Y-97286115D01*
X171432793Y-97296487D01*
X171486632Y-97303776D01*
X171550717Y-97308562D01*
X171626141Y-97311425D01*
X171632832Y-97311597D01*
X171676946Y-97312687D01*
X171710271Y-97313330D01*
X171734322Y-97313427D01*
X171750608Y-97312884D01*
X171760644Y-97311605D01*
X171765940Y-97309492D01*
X171768009Y-97306451D01*
X171768363Y-97302385D01*
X171768707Y-97298556D01*
X171771721Y-97282880D01*
X171777171Y-97260290D01*
X171784240Y-97234287D01*
X171800508Y-97184756D01*
X171836473Y-97104543D01*
X171881604Y-97031362D01*
X171934939Y-96965650D01*
X171995515Y-96907843D01*
X172062369Y-96858379D01*
X172134538Y-96817694D01*
X172211060Y-96786224D01*
X172290971Y-96764407D01*
X172373310Y-96752679D01*
X172422125Y-96751979D01*
X172457112Y-96751478D01*
X172541416Y-96761239D01*
X172625258Y-96782400D01*
X172707675Y-96815397D01*
X172738174Y-96831040D01*
X172812554Y-96878420D01*
X172879765Y-96934873D01*
X172938951Y-96999246D01*
X172989253Y-97070388D01*
X173029813Y-97147147D01*
X173059774Y-97228373D01*
X173078278Y-97312913D01*
X173085414Y-97393313D01*
X173082310Y-97483977D01*
X173067375Y-97571990D01*
X173040877Y-97656523D01*
X173003085Y-97736743D01*
X172954268Y-97811819D01*
X172894693Y-97880920D01*
X172837155Y-97932917D01*
X172765667Y-97982941D01*
X172689500Y-98022536D01*
X172609767Y-98051674D01*
X172527577Y-98070326D01*
X172444044Y-98078462D01*
X172360279Y-98076054D01*
X172277393Y-98063073D01*
X172196498Y-98039489D01*
X172118707Y-98005274D01*
X172045130Y-97960399D01*
X171976879Y-97904835D01*
X171944133Y-97872387D01*
X171885931Y-97803154D01*
X171838439Y-97729409D01*
X171802216Y-97652086D01*
X171777819Y-97572119D01*
X171767792Y-97527743D01*
X171638358Y-97523443D01*
X171611704Y-97522507D01*
X171544341Y-97519505D01*
X171487157Y-97515752D01*
X171438441Y-97510966D01*
X171396482Y-97504867D01*
X171359569Y-97497174D01*
X171325990Y-97487606D01*
X171294033Y-97475883D01*
X171261988Y-97461725D01*
X171240055Y-97450714D01*
X171213733Y-97434651D01*
X171189139Y-97415184D01*
X171180410Y-97406854D01*
X172094937Y-97406854D01*
X172099483Y-97468631D01*
X172109508Y-97510197D01*
X172133234Y-97566428D01*
X172166723Y-97617160D01*
X172208641Y-97661071D01*
X172257655Y-97696837D01*
X172312432Y-97723135D01*
X172371636Y-97738642D01*
X172384752Y-97740452D01*
X172446810Y-97741776D01*
X172506776Y-97731542D01*
X172563302Y-97710526D01*
X172615036Y-97679502D01*
X172660629Y-97639245D01*
X172698729Y-97590531D01*
X172727986Y-97534133D01*
X172736828Y-97506926D01*
X172745106Y-97463387D01*
X172748696Y-97416865D01*
X172747300Y-97372083D01*
X172740619Y-97333765D01*
X172718991Y-97276224D01*
X172686887Y-97222406D01*
X172646330Y-97176424D01*
X172598447Y-97139147D01*
X172544367Y-97111444D01*
X172485217Y-97094185D01*
X172422125Y-97088239D01*
X172389583Y-97089833D01*
X172329702Y-97101466D01*
X172274451Y-97123405D01*
X172224806Y-97154496D01*
X172181747Y-97193585D01*
X172146252Y-97239519D01*
X172119300Y-97291145D01*
X172101868Y-97347307D01*
X172094937Y-97406854D01*
X171180410Y-97406854D01*
X171161689Y-97388990D01*
X171154428Y-97381514D01*
X171124261Y-97346296D01*
X171098493Y-97308134D01*
X171076666Y-97265671D01*
X171058322Y-97217549D01*
X171043003Y-97162412D01*
X171030250Y-97098901D01*
X171019606Y-97025659D01*
X171010612Y-96941328D01*
X171009765Y-96930978D01*
X171008494Y-96909905D01*
X171007390Y-96883445D01*
X171006447Y-96850949D01*
X171005660Y-96811772D01*
X171005025Y-96765267D01*
X171004535Y-96710786D01*
X171004186Y-96647683D01*
X171003971Y-96575312D01*
X171003886Y-96493025D01*
X171003926Y-96400176D01*
X171004085Y-96296117D01*
X171004357Y-96180203D01*
X171004426Y-96153090D01*
X171004626Y-96049148D01*
X171004704Y-95952754D01*
X171004662Y-95864402D01*
X171004503Y-95784589D01*
X171004231Y-95713810D01*
X171003849Y-95652561D01*
X171003359Y-95601336D01*
X171002764Y-95560633D01*
X171002068Y-95530945D01*
X171001272Y-95512769D01*
X171000381Y-95506600D01*
X171000125Y-95506596D01*
X170987920Y-95502171D01*
X170969806Y-95490858D01*
X170948413Y-95474765D01*
X170926371Y-95455996D01*
X170906306Y-95436657D01*
X170890850Y-95418856D01*
X170866840Y-95382007D01*
X170848746Y-95339374D01*
X170839403Y-95292699D01*
X170837867Y-95238776D01*
X170838831Y-95216522D01*
X170840996Y-95192587D01*
X170845073Y-95173350D01*
X170852134Y-95154238D01*
X170863253Y-95130680D01*
X170884325Y-95094657D01*
X170919820Y-95052413D01*
X170961251Y-95019215D01*
X171007165Y-94995071D01*
X171056115Y-94979985D01*
X171106649Y-94973965D01*
X171157318Y-94977017D01*
G37*
D13*
X165884750Y-78375250D02*
G75*
G03*
X165784750Y-78375250I-50000J0D01*
G01*
X165784750Y-78375250D02*
G75*
G03*
X165884750Y-78375250I50000J0D01*
G01*
D12*
X133723609Y-88935250D02*
X134030891Y-88935250D01*
X133723609Y-89695250D02*
X134030891Y-89695250D01*
X130028609Y-94625250D02*
X130335891Y-94625250D01*
X130028609Y-95385250D02*
X130335891Y-95385250D01*
X129634750Y-99517414D02*
X129634750Y-99733086D01*
X128914750Y-99517414D02*
X128914750Y-99733086D01*
X132574750Y-89825250D02*
G75*
G03*
X131174750Y-89825250I-700000J0D01*
G01*
X131174750Y-89825250D02*
G75*
G03*
X132574750Y-89825250I700000J0D01*
G01*
X131324750Y-91065250D02*
X130674750Y-91065250D01*
X131324750Y-91065250D02*
X131974750Y-91065250D01*
X131324750Y-94185250D02*
X129649750Y-94185250D01*
X131324750Y-94185250D02*
X131974750Y-94185250D01*
X156174750Y-113725250D02*
X156774750Y-113725250D01*
X157474750Y-113075250D02*
X157474750Y-110275250D01*
X155474750Y-110275250D02*
X155474750Y-113075250D01*
X156774750Y-109625250D02*
X156174750Y-109625250D01*
X155474750Y-113025250D02*
G75*
G03*
X156174750Y-113725250I699999J-1D01*
G01*
X156774750Y-113725250D02*
G75*
G03*
X157474750Y-113025250I1J699999D01*
G01*
X156174750Y-109625250D02*
G75*
G03*
X155474750Y-110325250I0J-700000D01*
G01*
X157474750Y-110325250D02*
G75*
G03*
X156774750Y-109625250I-700000J0D01*
G01*
X143114750Y-98913086D02*
X143114750Y-98697414D01*
X143834750Y-98913086D02*
X143834750Y-98697414D01*
X162764750Y-75433086D02*
X162764750Y-75217414D01*
X163484750Y-75433086D02*
X163484750Y-75217414D01*
X146004750Y-98621609D02*
X146004750Y-98928891D01*
X145244750Y-98621609D02*
X145244750Y-98928891D01*
D13*
X168724750Y-74200250D02*
X166124750Y-74200250D01*
D10*
X167524750Y-77800250D02*
X167524750Y-77800250D01*
X167324750Y-77800250D02*
X167324750Y-77800250D01*
X167324750Y-77800250D02*
G75*
G03*
X167524750Y-77800250I100000J0D01*
G01*
X167524750Y-77800250D02*
G75*
G03*
X167324750Y-77800250I-100000J0D01*
G01*
D12*
X156662586Y-108935250D02*
X156446914Y-108935250D01*
X156662586Y-108215250D02*
X156446914Y-108215250D01*
X130014750Y-100825250D02*
X130014750Y-101625250D01*
X130014750Y-100825250D02*
X130014750Y-100025250D01*
X133134750Y-100825250D02*
X133134750Y-102625250D01*
X133134750Y-100825250D02*
X133134750Y-100025250D01*
X159214750Y-75508891D02*
X159214750Y-75201609D01*
X159974750Y-75508891D02*
X159974750Y-75201609D01*
X128982250Y-90845250D02*
X128982250Y-94855250D01*
X126982250Y-90845250D02*
X128982250Y-90845250D01*
X126982250Y-90845250D02*
X126982250Y-94855250D01*
X131066914Y-104265250D02*
X131282586Y-104265250D01*
X131066914Y-104985250D02*
X131282586Y-104985250D01*
X160246359Y-97895250D02*
X160553641Y-97895250D01*
X160246359Y-98655250D02*
X160553641Y-98655250D01*
X139304750Y-98671609D02*
X139304750Y-98978891D01*
X138544750Y-98671609D02*
X138544750Y-98978891D01*
X155404750Y-75473086D02*
X155404750Y-75257414D01*
X156124750Y-75473086D02*
X156124750Y-75257414D01*
X157934750Y-112328891D02*
X157934750Y-112021609D01*
X158694750Y-112328891D02*
X158694750Y-112021609D01*
X153524750Y-113725250D02*
X154124750Y-113725250D01*
X154824750Y-113075250D02*
X154824750Y-110275250D01*
X152824750Y-110275250D02*
X152824750Y-113075250D01*
X154124750Y-109625250D02*
X153524750Y-109625250D01*
X152824750Y-113025250D02*
G75*
G03*
X153524750Y-113725250I699999J-1D01*
G01*
X154124750Y-113725250D02*
G75*
G03*
X154824750Y-113025250I1J699999D01*
G01*
X153524750Y-109625250D02*
G75*
G03*
X152824750Y-110325250I0J-700000D01*
G01*
X154824750Y-110325250D02*
G75*
G03*
X154124750Y-109625250I-700000J0D01*
G01*
X133671109Y-87545250D02*
X133978391Y-87545250D01*
X133671109Y-88305250D02*
X133978391Y-88305250D01*
X166836914Y-79015250D02*
X167052586Y-79015250D01*
X166836914Y-79735250D02*
X167052586Y-79735250D01*
X156632586Y-107835250D02*
X156416914Y-107835250D01*
X156632586Y-107115250D02*
X156416914Y-107115250D01*
X138974750Y-94465250D02*
X138974750Y-93665250D01*
X138974750Y-94465250D02*
X138974750Y-95265250D01*
X135854750Y-94465250D02*
X135854750Y-92665250D01*
X135854750Y-94465250D02*
X135854750Y-95265250D01*
X131066914Y-103100250D02*
X131282586Y-103100250D01*
X131066914Y-103820250D02*
X131282586Y-103820250D01*
D13*
X153174750Y-75225250D02*
G75*
G03*
X151874750Y-75225250I-650000J0D01*
G01*
X151874750Y-75225250D02*
G75*
G03*
X153174750Y-75225250I650000J0D01*
G01*
D12*
X149254750Y-98571609D02*
X149254750Y-98878891D01*
X148494750Y-98571609D02*
X148494750Y-98878891D01*
X166836914Y-81865250D02*
X167052586Y-81865250D01*
X166836914Y-82585250D02*
X167052586Y-82585250D01*
X136586914Y-90265250D02*
X136802586Y-90265250D01*
X136586914Y-90985250D02*
X136802586Y-90985250D01*
X164028391Y-103905250D02*
X163721109Y-103905250D01*
X164028391Y-103145250D02*
X163721109Y-103145250D01*
D13*
X150774750Y-75025250D02*
G75*
G03*
X149474750Y-75025250I-650000J0D01*
G01*
X149474750Y-75025250D02*
G75*
G03*
X150774750Y-75025250I650000J0D01*
G01*
D12*
X147394750Y-98878891D02*
X147394750Y-98571609D01*
X148154750Y-98878891D02*
X148154750Y-98571609D01*
X147104750Y-98581609D02*
X147104750Y-98888891D01*
X146344750Y-98581609D02*
X146344750Y-98888891D01*
X140404750Y-98671609D02*
X140404750Y-98978891D01*
X139644750Y-98671609D02*
X139644750Y-98978891D01*
X139444750Y-75138891D02*
X139444750Y-74831609D01*
X140204750Y-75138891D02*
X140204750Y-74831609D01*
X141474750Y-96775250D02*
X143074750Y-96775250D01*
X159874750Y-96575250D02*
X160274750Y-96575250D01*
X141474750Y-94775250D02*
X141474750Y-96775250D01*
X161374750Y-94775250D02*
X161374750Y-96175250D01*
X161374750Y-79175250D02*
X161374750Y-77175250D01*
X141674750Y-77175250D02*
X141674750Y-78775250D01*
X143074750Y-77175250D02*
X141674750Y-77175250D01*
X161374750Y-77175250D02*
X159874750Y-77175250D01*
D14*
X159474750Y-97775250D02*
G75*
G03*
X159074750Y-97775250I-200000J0D01*
G01*
X159074750Y-97775250D02*
G75*
G03*
X159474750Y-97775250I200000J0D01*
G01*
D12*
X139464750Y-89733086D02*
X139464750Y-89517414D01*
X140184750Y-89733086D02*
X140184750Y-89517414D01*
D15*
X134599750Y-106225250D02*
X134599750Y-104125250D01*
X134599750Y-112125250D02*
X134599750Y-109225250D01*
X134599750Y-114825250D02*
X147699750Y-114825250D01*
X135273750Y-100775250D02*
X136275750Y-100775250D01*
X142023750Y-100775250D02*
X147025750Y-100775250D01*
D10*
X138869750Y-115275250D02*
G75*
G03*
X138669750Y-115275250I-100000J0D01*
G01*
X138669750Y-115275250D02*
G75*
G03*
X138869750Y-115275250I100000J0D01*
G01*
D12*
X127772686Y-88715250D02*
X128976814Y-88715250D01*
X127772686Y-90535250D02*
X128976814Y-90535250D01*
X160434750Y-75493086D02*
X160434750Y-75277414D01*
X161154750Y-75493086D02*
X161154750Y-75277414D01*
M02*
