G04 #@! TF.GenerationSoftware,KiCad,Pcbnew,7.0.2*
G04 #@! TF.CreationDate,2023-12-12T10:26:30+03:00*
G04 #@! TF.ProjectId,GPS_MODULE_V3.kicad_pro,4750535f-4d4f-4445-954c-455f56332e6b,rev?*
G04 #@! TF.SameCoordinates,Original*
G04 #@! TF.FileFunction,Copper,L3,Inr*
G04 #@! TF.FilePolarity,Positive*
%FSLAX46Y46*%
G04 Gerber Fmt 4.6, Leading zero omitted, Abs format (unit mm)*
G04 Created by KiCad (PCBNEW 7.0.2) date 2023-12-12 10:26:30*
%MOMM*%
%LPD*%
G01*
G04 APERTURE LIST*
G04 Aperture macros list*
%AMRoundRect*
0 Rectangle with rounded corners*
0 $1 Rounding radius*
0 $2 $3 $4 $5 $6 $7 $8 $9 X,Y pos of 4 corners*
0 Add a 4 corners polygon primitive as box body*
4,1,4,$2,$3,$4,$5,$6,$7,$8,$9,$2,$3,0*
0 Add four circle primitives for the rounded corners*
1,1,$1+$1,$2,$3*
1,1,$1+$1,$4,$5*
1,1,$1+$1,$6,$7*
1,1,$1+$1,$8,$9*
0 Add four rect primitives between the rounded corners*
20,1,$1+$1,$2,$3,$4,$5,0*
20,1,$1+$1,$4,$5,$6,$7,0*
20,1,$1+$1,$6,$7,$8,$9,0*
20,1,$1+$1,$8,$9,$2,$3,0*%
G04 Aperture macros list end*
G04 #@! TA.AperFunction,ComponentPad*
%ADD10R,2.400000X2.400000*%
G04 #@! TD*
G04 #@! TA.AperFunction,ComponentPad*
%ADD11C,2.400000*%
G04 #@! TD*
G04 #@! TA.AperFunction,ComponentPad*
%ADD12RoundRect,0.250000X-0.600000X-0.600000X0.600000X-0.600000X0.600000X0.600000X-0.600000X0.600000X0*%
G04 #@! TD*
G04 #@! TA.AperFunction,ComponentPad*
%ADD13C,1.700000*%
G04 #@! TD*
G04 #@! TA.AperFunction,ViaPad*
%ADD14C,0.600000*%
G04 #@! TD*
G04 #@! TA.AperFunction,Conductor*
%ADD15C,0.525000*%
G04 #@! TD*
G04 #@! TA.AperFunction,Conductor*
%ADD16C,0.200000*%
G04 #@! TD*
G04 #@! TA.AperFunction,Conductor*
%ADD17C,0.250000*%
G04 #@! TD*
G04 APERTURE END LIST*
D10*
X228950000Y-74300000D03*
D11*
X228950000Y-77800000D03*
D12*
X265880000Y-93760000D03*
D13*
X265880000Y-96260000D03*
X268380000Y-93760000D03*
X268380000Y-96260000D03*
D12*
X265985000Y-77500000D03*
D13*
X265985000Y-80000000D03*
X265985000Y-82500000D03*
X268485000Y-77500000D03*
X268485000Y-80000000D03*
X268485000Y-82500000D03*
D14*
X249500000Y-76900000D03*
X272700000Y-96700000D03*
X250750000Y-72400000D03*
X263900000Y-66800000D03*
X246550000Y-99650000D03*
X247100000Y-71900000D03*
X254250000Y-67550000D03*
X255991107Y-69132836D03*
X257100000Y-70700000D03*
X257900000Y-70700000D03*
X272100000Y-105700000D03*
X255070371Y-67544998D03*
X256800000Y-67545500D03*
X251350000Y-78600500D03*
X251867357Y-67510446D03*
X247500000Y-91300000D03*
X264300000Y-70700000D03*
X253225000Y-71400000D03*
X255600000Y-69725000D03*
X272900000Y-92600000D03*
X235500000Y-66800000D03*
X246000000Y-75900000D03*
X265900000Y-70700000D03*
X250200000Y-78400000D03*
X234150000Y-69000000D03*
X237050000Y-70900000D03*
X248500000Y-69600000D03*
X248600000Y-90500000D03*
X249800000Y-70425000D03*
X231750000Y-71250000D03*
X252900000Y-96550000D03*
X236600000Y-67657689D03*
X254800000Y-71800000D03*
X253650000Y-66800000D03*
X256300000Y-71775000D03*
X251000000Y-71100000D03*
X256175000Y-70400000D03*
X272400000Y-76800000D03*
X259750000Y-94600000D03*
X233250000Y-70500000D03*
X264700000Y-69200000D03*
X230600000Y-71900000D03*
X228700000Y-95300000D03*
X229000000Y-71900000D03*
X232800000Y-98900000D03*
X249100000Y-78400000D03*
X247200000Y-72650000D03*
X231000000Y-71250000D03*
X237500000Y-68842311D03*
X258700000Y-71500000D03*
X259500000Y-71500000D03*
X252650000Y-67505500D03*
X260000000Y-83650000D03*
X262300000Y-67950000D03*
X241100000Y-69100000D03*
X242300000Y-66500000D03*
X266200000Y-68400000D03*
X237750000Y-70200000D03*
X262300000Y-68650000D03*
X259500000Y-70700000D03*
X240400000Y-70200000D03*
X235500000Y-72100000D03*
X247700000Y-76000000D03*
X263900000Y-67600000D03*
X243100000Y-67200000D03*
X254800000Y-71100000D03*
X251750000Y-72125000D03*
X243500000Y-82300000D03*
X224000000Y-71400000D03*
X239800000Y-88900000D03*
X237750000Y-71600000D03*
X248050000Y-67100000D03*
X261300000Y-68650000D03*
X262700000Y-71500000D03*
X244400000Y-67100000D03*
X265500000Y-69200000D03*
X234100000Y-67600000D03*
X265100000Y-71500000D03*
X243900000Y-66500000D03*
X264400000Y-103750000D03*
X240100000Y-68600000D03*
X240000000Y-92000000D03*
X247900000Y-71800000D03*
X255400000Y-66800000D03*
X244000000Y-78600000D03*
X233800000Y-72100000D03*
X240600000Y-71100000D03*
X230250000Y-71250000D03*
X269800000Y-75900000D03*
X237000000Y-69500000D03*
X246347674Y-68734851D03*
X239600000Y-67300000D03*
X241900000Y-69700000D03*
X268200000Y-100800000D03*
X252300000Y-70675000D03*
X243900000Y-86100000D03*
X228750000Y-69600000D03*
X260300000Y-71500000D03*
X237800000Y-72400000D03*
X245700000Y-92800000D03*
X263900000Y-70000000D03*
X234000000Y-71250000D03*
X233300000Y-67100000D03*
X244400000Y-71000000D03*
X233500000Y-69750000D03*
X238400000Y-69700000D03*
X245100000Y-72350000D03*
X253200000Y-78000000D03*
X259650000Y-69400000D03*
X252300000Y-77200000D03*
X238954371Y-67799928D03*
X241200000Y-72400000D03*
X229300000Y-92700000D03*
X264700000Y-70000000D03*
X245100000Y-67100000D03*
X234900000Y-66500000D03*
X250600000Y-95800000D03*
X266700000Y-71500000D03*
X243800000Y-93600000D03*
X237050000Y-70200000D03*
X232500000Y-71250000D03*
X261250000Y-82150000D03*
X243100000Y-66500000D03*
X228750000Y-67300000D03*
X252650000Y-72125000D03*
X241600000Y-67000000D03*
X237700000Y-82700000D03*
X247600000Y-90500000D03*
X245100000Y-67800000D03*
X245900000Y-67100000D03*
X229500000Y-69600000D03*
X228000000Y-71200000D03*
X245907689Y-70231621D03*
X270100000Y-79700000D03*
X236700000Y-88800000D03*
X238000000Y-66800000D03*
X252175000Y-69950000D03*
X234900000Y-67400000D03*
X263100000Y-66800000D03*
X245976345Y-69472448D03*
X238268940Y-68852760D03*
X254500000Y-70400000D03*
X265500000Y-67600000D03*
X230100000Y-68000000D03*
X228750000Y-71250000D03*
X247092311Y-71100000D03*
X255600000Y-71100000D03*
X257575000Y-70000000D03*
X252899400Y-69225000D03*
X252975000Y-69950000D03*
X245700000Y-94300000D03*
X261900000Y-70700000D03*
X263100000Y-106300000D03*
X247612229Y-67872293D03*
X238500000Y-72200000D03*
X244900000Y-77000000D03*
X248433411Y-67733535D03*
X260300000Y-70700000D03*
X254550000Y-66800000D03*
X263100000Y-70000000D03*
X255199400Y-69125000D03*
X241300000Y-71500000D03*
X231000000Y-70500000D03*
X240800000Y-94800000D03*
X248000000Y-70150000D03*
X247700000Y-78800000D03*
X264700000Y-67600000D03*
X245907689Y-71775000D03*
X250009041Y-67726654D03*
X254500000Y-87750000D03*
X229500000Y-70500000D03*
X252650000Y-66800000D03*
X263100000Y-68400000D03*
X246700000Y-66800000D03*
X239543129Y-68101378D03*
X249400000Y-66800000D03*
X237700000Y-69500000D03*
X232900000Y-66500000D03*
X265500000Y-70000000D03*
X236750000Y-68842311D03*
X238300000Y-88800000D03*
X260100000Y-70000000D03*
X237050000Y-71600000D03*
X243600000Y-70200000D03*
X257900000Y-71500000D03*
X238900000Y-66800000D03*
X248700000Y-71100000D03*
X237200000Y-75000000D03*
X240200000Y-67800000D03*
X242300000Y-67200000D03*
X249200000Y-69600000D03*
X241200000Y-70700000D03*
X254100000Y-71100000D03*
X248850000Y-67150000D03*
X266200000Y-66800000D03*
X255905196Y-67506476D03*
X256400000Y-71100000D03*
X245900000Y-67800000D03*
X244400000Y-70300000D03*
X228500000Y-98900000D03*
X261300000Y-67950000D03*
X245150000Y-70650000D03*
X229200000Y-68800000D03*
X245907689Y-71025000D03*
X240400000Y-69300000D03*
X237200000Y-66900000D03*
X238500000Y-71200000D03*
X240500000Y-67000000D03*
X253800000Y-70400000D03*
X241000000Y-67600000D03*
X244400000Y-71800000D03*
X245600000Y-84800000D03*
X236300000Y-70200000D03*
X264700000Y-68400000D03*
X250700000Y-69600000D03*
X249200000Y-67732689D03*
X229800000Y-71900000D03*
X236800000Y-80800000D03*
X231000000Y-104100000D03*
X246600000Y-96300000D03*
X265500000Y-66800000D03*
X231800000Y-68800000D03*
X228750000Y-70500000D03*
X253350000Y-72125000D03*
X251600000Y-70675000D03*
X225400000Y-98400000D03*
X257100000Y-71500000D03*
X267800000Y-71600000D03*
X267200000Y-66800000D03*
X267200000Y-67600000D03*
X243600000Y-69400000D03*
X242998934Y-103173434D03*
X237100000Y-72400000D03*
X264700000Y-66800000D03*
X254875000Y-69750000D03*
X264300000Y-71500000D03*
X268600000Y-75500000D03*
X237326609Y-98773391D03*
X252425000Y-71400000D03*
X236700000Y-83800000D03*
X266700000Y-70700000D03*
X243700000Y-67700000D03*
X228750000Y-66500000D03*
X251000000Y-77000000D03*
X245900000Y-72600000D03*
X243800000Y-85100000D03*
X249575000Y-68925000D03*
X230100000Y-68800000D03*
X243500000Y-84100000D03*
X256200000Y-66800000D03*
X231750000Y-70500000D03*
X229700000Y-67300000D03*
X265500000Y-68400000D03*
X250000000Y-69600000D03*
X249000000Y-88700000D03*
X231900000Y-68000000D03*
X255600000Y-71775000D03*
X231300000Y-71900000D03*
X248075000Y-69000000D03*
X263900000Y-68400000D03*
X244400000Y-69400000D03*
X233900000Y-66500000D03*
X259341311Y-67368721D03*
X270200000Y-81800000D03*
X234000000Y-70500000D03*
X246100000Y-77200000D03*
X232100000Y-71900000D03*
X245200000Y-78600000D03*
X250300000Y-71800000D03*
X231000000Y-68000000D03*
X238500000Y-70500000D03*
X265100000Y-70700000D03*
X243900000Y-95100000D03*
X251114274Y-67627567D03*
X229800000Y-98800000D03*
X244200000Y-68600000D03*
X251725000Y-71400000D03*
X250150000Y-66800000D03*
X250300000Y-71100000D03*
X266200000Y-70000000D03*
X272300000Y-100800000D03*
X247850000Y-96300000D03*
X258850000Y-68917311D03*
X272300000Y-89500000D03*
X245500000Y-66500000D03*
X240400000Y-72400000D03*
X240900000Y-68400000D03*
X266200000Y-67600000D03*
X235827167Y-68842311D03*
X256800000Y-70000000D03*
X249150000Y-72450000D03*
X241100000Y-69900000D03*
X257134775Y-90443484D03*
X238200000Y-67500000D03*
X247316316Y-69422423D03*
X251499400Y-69225000D03*
X229700000Y-66500000D03*
X255300000Y-70400000D03*
X248600000Y-91400000D03*
X227500000Y-100800000D03*
X242900000Y-69700000D03*
X268600000Y-105600000D03*
X249800000Y-91600000D03*
X272700000Y-79800000D03*
X261100000Y-70700000D03*
X237300000Y-84400000D03*
X247650000Y-99650000D03*
X231000000Y-68800000D03*
X263500000Y-70700000D03*
X253700000Y-77100000D03*
X247850000Y-70925000D03*
X267200000Y-68400000D03*
X243900000Y-80700000D03*
X230250000Y-70500000D03*
X228200000Y-71900000D03*
X245150000Y-69800000D03*
X250700000Y-70400000D03*
X236300000Y-72400000D03*
X248825000Y-70400000D03*
X260000000Y-88200000D03*
X248300000Y-72450000D03*
X263100000Y-67600000D03*
X233250000Y-71250000D03*
X246700000Y-67500000D03*
X259750000Y-66800000D03*
X252199400Y-69225000D03*
X228000000Y-70400000D03*
X262700000Y-70700000D03*
X229800000Y-97000000D03*
X243900000Y-96400000D03*
X257050000Y-66800000D03*
X245700000Y-95500000D03*
X261900000Y-106300000D03*
X267200000Y-69200000D03*
X237750000Y-70900000D03*
X236700000Y-82300000D03*
X265900000Y-71500000D03*
X258000000Y-66800000D03*
X249850000Y-96350000D03*
X243400000Y-79200000D03*
X245150000Y-71400000D03*
X257649699Y-67530506D03*
X228500000Y-88400000D03*
X258627932Y-67732689D03*
X229200000Y-68000000D03*
X249950000Y-72400000D03*
X245300000Y-85700000D03*
X235000000Y-98800000D03*
X232500000Y-70500000D03*
X263100000Y-69200000D03*
X263900000Y-69200000D03*
X258750000Y-66800000D03*
X247100000Y-70275000D03*
X235833053Y-67657689D03*
X236300000Y-71600000D03*
X248850000Y-68925000D03*
X247450000Y-66600000D03*
X253100000Y-70675000D03*
X237400000Y-67657689D03*
X251000000Y-71800000D03*
X248700000Y-71800000D03*
X239000000Y-69250000D03*
X245000000Y-68600000D03*
X266200000Y-69200000D03*
X258700000Y-70700000D03*
X234250000Y-69750000D03*
X236250000Y-69500000D03*
X261100000Y-71500000D03*
X251475000Y-69950000D03*
X246901322Y-68225389D03*
X250950000Y-66800000D03*
X272900000Y-82800000D03*
X267200000Y-70000000D03*
X239157689Y-70250000D03*
X259200000Y-70000000D03*
X240700000Y-71800000D03*
X250800000Y-90600000D03*
X263500000Y-71500000D03*
X249900000Y-94700000D03*
X229500000Y-71250000D03*
X236300000Y-70900000D03*
X249500000Y-71800000D03*
X240000000Y-66500000D03*
X241100000Y-66500000D03*
X254443470Y-69129637D03*
X249500000Y-71100000D03*
X255191589Y-92308411D03*
X254100000Y-71800000D03*
X244400000Y-67800000D03*
X258400000Y-70000000D03*
X261900000Y-71500000D03*
X253489602Y-67548852D03*
X251750000Y-66800000D03*
X272900000Y-86500000D03*
X236400000Y-66900000D03*
X245650000Y-68850000D03*
X241100000Y-87200000D03*
X241800000Y-84400000D03*
X237350000Y-104224500D03*
X232300000Y-83800000D03*
X232300000Y-84500000D03*
X230000000Y-83800000D03*
X229600000Y-86250000D03*
X230800000Y-83800000D03*
X231550000Y-83800000D03*
X245700000Y-83500000D03*
X241050000Y-85700000D03*
X241100000Y-86450000D03*
X232300000Y-85200000D03*
X230250000Y-86250000D03*
X231700000Y-86250000D03*
X230950000Y-86250000D03*
X232300000Y-85900000D03*
X241200000Y-88950000D03*
X264100000Y-98200000D03*
X260900000Y-100314500D03*
X241000000Y-80900000D03*
X256350000Y-97655120D03*
X252979500Y-100600000D03*
X245000000Y-79500000D03*
X232250000Y-100750000D03*
X241000000Y-79200000D03*
X235700444Y-102397378D03*
X250650000Y-100050000D03*
X246250000Y-100750000D03*
X241000000Y-80000000D03*
X241000000Y-78400000D03*
X250950000Y-82050000D03*
X264750000Y-83700500D03*
X251298911Y-85248911D03*
X267600000Y-85800000D03*
X255849500Y-90952678D03*
X256300000Y-82200000D03*
X250450000Y-89650000D03*
X264650000Y-92650000D03*
X253741525Y-87497175D03*
X257075830Y-93338791D03*
X242282153Y-102700500D03*
X242800000Y-99800000D03*
X241950000Y-92100000D03*
X243900000Y-75400000D03*
X242100000Y-75400000D03*
X241200000Y-75400000D03*
X243000000Y-75400000D03*
X237705265Y-102648145D03*
X240700000Y-102500000D03*
X241473951Y-102700500D03*
X263500000Y-96550000D03*
X265658815Y-99065500D03*
X264862000Y-99000000D03*
X256250000Y-106369500D03*
X263750000Y-94850000D03*
X229750000Y-106100000D03*
X253350000Y-84700000D03*
X257650000Y-96800000D03*
X247550000Y-84450000D03*
X259223911Y-96823911D03*
X256780150Y-95269851D03*
X252583572Y-84300500D03*
X230000000Y-95200000D03*
X252624199Y-86900500D03*
X237120498Y-92550000D03*
X230250000Y-88550000D03*
X237120499Y-91383389D03*
X252363684Y-86144632D03*
X256250000Y-85350000D03*
X262650000Y-85300000D03*
X261266589Y-76116589D03*
X248050000Y-83550000D03*
X255367323Y-100949500D03*
X266550000Y-105800000D03*
X264300000Y-75224500D03*
X269600000Y-73500000D03*
X246099500Y-102200000D03*
X251600000Y-87500000D03*
X246024058Y-103291143D03*
X255302655Y-83241304D03*
X237400975Y-105450500D03*
X250700000Y-101920000D03*
X246800000Y-103600000D03*
X232950000Y-103110000D03*
X257282094Y-106355087D03*
X262450000Y-86950000D03*
X260600000Y-106300000D03*
X261350000Y-79900000D03*
X254100000Y-105850000D03*
X261850000Y-86050000D03*
X232100000Y-80100000D03*
X224100000Y-91600000D03*
X224719500Y-85950000D03*
X230650000Y-80724500D03*
X260450500Y-92700000D03*
X256400500Y-92200000D03*
X264050000Y-85050000D03*
X260265500Y-96850000D03*
X255050500Y-84000000D03*
X247550000Y-102899500D03*
X247900000Y-104200000D03*
X256100000Y-83300000D03*
X245726339Y-86675839D03*
X233050000Y-105600000D03*
X235600319Y-95000819D03*
X254183922Y-84829774D03*
X253103939Y-79579044D03*
X236650000Y-105775500D03*
X252400000Y-79200000D03*
X237500000Y-99750000D03*
X251700000Y-82649500D03*
X262750500Y-82150000D03*
X248300000Y-82300000D03*
X252488995Y-82778698D03*
D15*
X237034162Y-103462000D02*
X237665838Y-103462000D01*
X244650000Y-102350000D02*
X246250000Y-100750000D01*
X235700444Y-102397378D02*
X235700444Y-103150444D01*
X236150000Y-103600000D02*
X236896162Y-103600000D01*
X236896162Y-103600000D02*
X237034162Y-103462000D01*
X242800000Y-104450000D02*
X244650000Y-102600000D01*
X238653838Y-104450000D02*
X242800000Y-104450000D01*
X244650000Y-102600000D02*
X244650000Y-102350000D01*
X235700444Y-103150444D02*
X236150000Y-103600000D01*
X237665838Y-103462000D02*
X238653838Y-104450000D01*
D16*
X258000000Y-92414621D02*
X258000000Y-89631372D01*
X253741525Y-87991525D02*
X253741525Y-87497175D01*
X255771573Y-88550000D02*
X255671573Y-88450000D01*
X254200000Y-88450000D02*
X253741525Y-87991525D01*
X255671573Y-88450000D02*
X254200000Y-88450000D01*
X257075830Y-93338791D02*
X258000000Y-92414621D01*
X256918628Y-88550000D02*
X255771573Y-88550000D01*
X258000000Y-89631372D02*
X256918628Y-88550000D01*
D15*
X242500000Y-95000000D02*
X241950000Y-94450000D01*
X242800000Y-99800000D02*
X242500000Y-99500000D01*
X242800000Y-99800000D02*
X242800000Y-102182653D01*
X241950000Y-94450000D02*
X241950000Y-92100000D01*
X242500000Y-99500000D02*
X242500000Y-95000000D01*
X242800000Y-102182653D02*
X242282153Y-102700500D01*
D16*
X263500000Y-96550000D02*
X265658815Y-98708815D01*
X265658815Y-98708815D02*
X265658815Y-99065500D01*
D17*
X256144500Y-106475000D02*
X240325000Y-106475000D01*
X240325000Y-106475000D02*
X240250000Y-106400000D01*
X229950000Y-106300000D02*
X229750000Y-106100000D01*
X233400000Y-106400000D02*
X233300000Y-106300000D01*
X256250000Y-106369500D02*
X256144500Y-106475000D01*
X240250000Y-106400000D02*
X233400000Y-106400000D01*
X233300000Y-106300000D02*
X229950000Y-106300000D01*
D16*
X258800000Y-89300000D02*
X258800000Y-94135785D01*
X258750000Y-94185786D02*
X258750000Y-95014215D01*
X258800000Y-95064215D02*
X258800000Y-95650000D01*
X253350000Y-85650000D02*
X253800000Y-86100000D01*
X258750000Y-95014215D02*
X258800000Y-95064215D01*
X258800000Y-95650000D02*
X257650000Y-96800000D01*
X257250000Y-87750000D02*
X258800000Y-89300000D01*
X253350000Y-84700000D02*
X253350000Y-85650000D01*
X254452942Y-86100000D02*
X256102944Y-87750000D01*
X258800000Y-94135785D02*
X258750000Y-94185786D01*
X256102944Y-87750000D02*
X257250000Y-87750000D01*
X253800000Y-86100000D02*
X254452942Y-86100000D01*
X247550000Y-84450000D02*
X247550000Y-86915685D01*
X256780150Y-94457326D02*
X256780150Y-95269851D01*
X250650000Y-88100000D02*
X251800000Y-89250000D01*
X255250000Y-89550000D02*
X255250000Y-91518293D01*
X255800500Y-93477675D02*
X256780150Y-94457326D01*
X251800000Y-89250000D02*
X254950000Y-89250000D01*
X255800500Y-92068793D02*
X255800500Y-93477675D01*
X248734315Y-88100000D02*
X250650000Y-88100000D01*
X255250000Y-91518293D02*
X255800500Y-92068793D01*
X254950000Y-89250000D02*
X255250000Y-89550000D01*
X247550000Y-86915685D02*
X248734315Y-88100000D01*
X262600000Y-85350000D02*
X262650000Y-85300000D01*
X256250000Y-85350000D02*
X262600000Y-85350000D01*
X256475830Y-93090262D02*
X256475830Y-93587320D01*
X257450000Y-94561490D02*
X257450000Y-95550000D01*
X256475830Y-93587320D02*
X257450000Y-94561490D01*
X252101471Y-88850000D02*
X255234314Y-88850000D01*
X255234314Y-88850000D02*
X256449500Y-90065186D01*
X257450000Y-95550000D02*
X255650000Y-97350000D01*
X248150000Y-83650000D02*
X248150000Y-86950000D01*
X255650000Y-100666823D02*
X255367323Y-100949500D01*
X257000500Y-91951471D02*
X257000500Y-92565592D01*
X250501471Y-87250000D02*
X252101471Y-88850000D01*
X248150000Y-86950000D02*
X248450000Y-87250000D01*
X256449500Y-90065186D02*
X256449500Y-91400471D01*
X248050000Y-83550000D02*
X248150000Y-83650000D01*
X248450000Y-87250000D02*
X250501471Y-87250000D01*
X255650000Y-97350000D02*
X255650000Y-100666823D01*
X257000500Y-92565592D02*
X256475830Y-93090262D01*
X256449500Y-91400471D02*
X257000500Y-91951471D01*
X257084314Y-88150000D02*
X255937258Y-88150000D01*
X256050000Y-98802942D02*
X257050000Y-97802942D01*
X249950000Y-102750000D02*
X254450000Y-102750000D01*
X254684432Y-86897175D02*
X253492996Y-86897175D01*
X249100000Y-101900000D02*
X249950000Y-102750000D01*
X246099500Y-102200000D02*
X246399500Y-101900000D01*
X256050000Y-101150000D02*
X256050000Y-98802942D01*
X253492996Y-86897175D02*
X252890170Y-87500000D01*
X252890170Y-87500000D02*
X251600000Y-87500000D01*
X258400000Y-89465686D02*
X257084314Y-88150000D01*
X246399500Y-101900000D02*
X249100000Y-101900000D01*
X258349998Y-94020104D02*
X258400000Y-93970101D01*
X258400000Y-93970101D02*
X258400000Y-89465686D01*
X257050000Y-97802942D02*
X257050000Y-96551471D01*
X257050000Y-96551471D02*
X258385785Y-95215686D01*
X255937258Y-88150000D02*
X254684432Y-86897175D01*
X254450000Y-102750000D02*
X256050000Y-101150000D01*
X258385785Y-95215686D02*
X258350000Y-95179900D01*
X258350000Y-95179900D02*
X258349998Y-94020104D01*
X254450500Y-84248529D02*
X254850000Y-84648029D01*
X247000000Y-102300000D02*
X246024058Y-103275942D01*
X258250000Y-97168628D02*
X256450000Y-98968628D01*
X254450500Y-83296657D02*
X254450500Y-84248529D01*
X254505853Y-83241304D02*
X254450500Y-83296657D01*
X259200000Y-94898529D02*
X259200000Y-95815686D01*
X256268629Y-87350000D02*
X257800000Y-87350000D01*
X249215685Y-103200000D02*
X248315685Y-102300000D01*
X258250000Y-96765686D02*
X258250000Y-97168628D01*
X259150000Y-94848529D02*
X259200000Y-94898529D01*
X256450000Y-101315686D02*
X254565686Y-103200000D01*
X259200000Y-94301471D02*
X259150000Y-94351471D01*
X259200000Y-88750000D02*
X259200000Y-94301471D01*
X259200000Y-95815686D02*
X258250000Y-96765686D01*
X248315685Y-102300000D02*
X247000000Y-102300000D01*
X256450000Y-98968628D02*
X256450000Y-101315686D01*
X259150000Y-94351471D02*
X259150000Y-94848529D01*
X257800000Y-87350000D02*
X259200000Y-88750000D01*
X254565686Y-103200000D02*
X249215685Y-103200000D01*
X254850000Y-84648029D02*
X254850000Y-85931372D01*
X254850000Y-85931372D02*
X256268629Y-87350000D01*
X246024058Y-103275942D02*
X246024058Y-103291143D01*
X255302655Y-83241304D02*
X254505853Y-83241304D01*
X262450000Y-97265686D02*
X262450000Y-86950000D01*
X258050000Y-99700000D02*
X258650000Y-99100000D01*
X260615686Y-99100000D02*
X262450000Y-97265686D01*
X257282094Y-106355087D02*
X258050000Y-105587181D01*
X258050000Y-105587181D02*
X258050000Y-99700000D01*
X258650000Y-99100000D02*
X260615686Y-99100000D01*
X261100000Y-99500000D02*
X262850000Y-97750000D01*
X262850000Y-87398529D02*
X263350500Y-86898029D01*
X261850000Y-79900000D02*
X261350000Y-79900000D01*
X258815686Y-99500000D02*
X261100000Y-99500000D01*
X263350500Y-86898029D02*
X263350500Y-81400500D01*
X260600000Y-106300000D02*
X258450000Y-104150000D01*
X258450000Y-104150000D02*
X258450000Y-99865686D01*
X258450000Y-99865686D02*
X258815686Y-99500000D01*
X263350500Y-81400500D02*
X261850000Y-79900000D01*
X262850000Y-97750000D02*
X262850000Y-87398529D01*
X254700000Y-105250000D02*
X257250000Y-105250000D01*
X257650000Y-104850000D02*
X257650000Y-99534314D01*
X261850000Y-97300000D02*
X261850000Y-86050000D01*
X260450000Y-98700000D02*
X261850000Y-97300000D01*
X254100000Y-105850000D02*
X254700000Y-105250000D01*
X257650000Y-99534314D02*
X258484314Y-98700000D01*
X257250000Y-105250000D02*
X257650000Y-104850000D01*
X258484314Y-98700000D02*
X260450000Y-98700000D01*
X256434314Y-86950000D02*
X255250000Y-85765686D01*
X258084314Y-97900000D02*
X260084314Y-97900000D01*
X260600000Y-86950000D02*
X256434314Y-86950000D01*
X255250000Y-84199500D02*
X255050500Y-84000000D01*
X256184314Y-103800000D02*
X256850000Y-103134314D01*
X248349500Y-102899500D02*
X249250000Y-103800000D01*
X247550000Y-102899500D02*
X248349500Y-102899500D01*
X249250000Y-103800000D02*
X256184314Y-103800000D01*
X256850000Y-103134314D02*
X256850000Y-99134314D01*
X260084314Y-97900000D02*
X261050000Y-96934314D01*
X255250000Y-85765686D02*
X255250000Y-84199500D01*
X261050000Y-87400000D02*
X260600000Y-86950000D01*
X261050000Y-96934314D02*
X261050000Y-87400000D01*
X256850000Y-99134314D02*
X258084314Y-97900000D01*
X256550000Y-86500000D02*
X255650000Y-85600000D01*
X260250000Y-98300000D02*
X261450000Y-97100000D01*
X261450000Y-97100000D02*
X261450000Y-86900000D01*
X247900000Y-104200000D02*
X256350000Y-104200000D01*
X258250000Y-98300000D02*
X260250000Y-98300000D01*
X257250000Y-99300000D02*
X258250000Y-98300000D01*
X261450000Y-86900000D02*
X261050000Y-86500000D01*
X257250000Y-103300000D02*
X257250000Y-99300000D01*
X261050000Y-86500000D02*
X256550000Y-86500000D01*
X255650000Y-85600000D02*
X255650000Y-83750000D01*
X256350000Y-104200000D02*
X257250000Y-103300000D01*
X255650000Y-83750000D02*
X256100000Y-83300000D01*
X239234315Y-90400000D02*
X241900000Y-90400000D01*
X235600319Y-95000819D02*
X238149181Y-95000819D01*
X241900000Y-90400000D02*
X241900000Y-88200000D01*
X238149181Y-95000819D02*
X238350000Y-94800000D01*
X238350000Y-91284314D02*
X239234315Y-90400000D01*
X238350000Y-94800000D02*
X238350000Y-91284314D01*
X245102178Y-87300000D02*
X245726339Y-86675839D01*
X241900000Y-88200000D02*
X242800000Y-87300000D01*
X242800000Y-87300000D02*
X245102178Y-87300000D01*
X235050000Y-102200000D02*
X236150000Y-101100000D01*
X239750000Y-91350000D02*
X246550000Y-91350000D01*
X239300000Y-91800000D02*
X239750000Y-91350000D01*
X235000000Y-103500000D02*
X235050000Y-103450000D01*
X246550000Y-91350000D02*
X246750000Y-91150000D01*
X253070956Y-79579044D02*
X253103939Y-79579044D01*
X237450000Y-101100000D02*
X239300000Y-99250000D01*
X236524500Y-105650000D02*
X235750000Y-105650000D01*
X246750000Y-81600000D02*
X248450000Y-79900000D01*
X235750000Y-105650000D02*
X235000000Y-104900000D01*
X235050000Y-103450000D02*
X235050000Y-102200000D01*
X252750000Y-79900000D02*
X253070956Y-79579044D01*
X239300000Y-99250000D02*
X239300000Y-91800000D01*
X235000000Y-104900000D02*
X235000000Y-103500000D01*
X248450000Y-79900000D02*
X252750000Y-79900000D01*
X246750000Y-91150000D02*
X246750000Y-81600000D01*
X236150000Y-101100000D02*
X237450000Y-101100000D01*
X236650000Y-105775500D02*
X236524500Y-105650000D01*
X245900000Y-90800000D02*
X239400000Y-90800000D01*
X248250000Y-79200000D02*
X246350000Y-81100000D01*
X239400000Y-90800000D02*
X238750000Y-91450000D01*
X238750000Y-91450000D02*
X238750000Y-98500000D01*
X246350000Y-90350000D02*
X245900000Y-90800000D01*
X238750000Y-98500000D02*
X237500000Y-99750000D01*
X246350000Y-81100000D02*
X246350000Y-90350000D01*
X252400000Y-79200000D02*
X248250000Y-79200000D01*
X265100000Y-77500000D02*
X265985000Y-77500000D01*
X254350000Y-79650000D02*
X259500000Y-79650000D01*
X263900000Y-78700000D02*
X265100000Y-77500000D01*
X251700000Y-82300000D02*
X254350000Y-79650000D01*
X259500000Y-79650000D02*
X260450000Y-78700000D01*
X251700000Y-82649500D02*
X251700000Y-82300000D01*
X260450000Y-78700000D02*
X263900000Y-78700000D01*
X250200000Y-82300000D02*
X248300000Y-82300000D01*
X253350000Y-81781372D02*
X253350000Y-82150000D01*
X262750500Y-81750500D02*
X262000000Y-81000000D01*
X260300000Y-80650000D02*
X254481372Y-80650000D01*
X262750500Y-82150000D02*
X262750500Y-81750500D01*
X260650000Y-81000000D02*
X260300000Y-80650000D01*
X253100000Y-83250000D02*
X252900000Y-83450000D01*
X251350000Y-83450000D02*
X250550000Y-82650000D01*
X250550000Y-82650000D02*
X250200000Y-82300000D01*
X253350000Y-82150000D02*
X253350000Y-83000000D01*
X251800000Y-83450000D02*
X251350000Y-83450000D01*
X252900000Y-83450000D02*
X251800000Y-83450000D01*
X254481372Y-80650000D02*
X253715686Y-81415686D01*
X262000000Y-81000000D02*
X260650000Y-81000000D01*
X253350000Y-83000000D02*
X253100000Y-83250000D01*
X253715686Y-81415686D02*
X253350000Y-81781372D01*
X260200000Y-80050000D02*
X260950000Y-79300000D01*
X264500000Y-79300000D02*
X265200000Y-80000000D01*
X252488995Y-82778698D02*
X252488995Y-82076691D01*
X265200000Y-80000000D02*
X265985000Y-80000000D01*
X254515686Y-80050000D02*
X260200000Y-80050000D01*
X260950000Y-79300000D02*
X264500000Y-79300000D01*
X252488995Y-82076691D02*
X254515686Y-80050000D01*
G04 #@! TA.AperFunction,Conductor*
G36*
X270553472Y-66200695D02*
G01*
X270845306Y-66217084D01*
X270859103Y-66218638D01*
X271143827Y-66267015D01*
X271157384Y-66270109D01*
X271434899Y-66350060D01*
X271448025Y-66354653D01*
X271714841Y-66465172D01*
X271727355Y-66471198D01*
X271756221Y-66487152D01*
X271980125Y-66610899D01*
X271991899Y-66618297D01*
X272227430Y-66785415D01*
X272238302Y-66794085D01*
X272453642Y-66986524D01*
X272463475Y-66996357D01*
X272655914Y-67211697D01*
X272664584Y-67222569D01*
X272831702Y-67458100D01*
X272839100Y-67469874D01*
X272978797Y-67722637D01*
X272984830Y-67735165D01*
X273095346Y-68001975D01*
X273099939Y-68015100D01*
X273179890Y-68292615D01*
X273182984Y-68306172D01*
X273231359Y-68590885D01*
X273232916Y-68604703D01*
X273249305Y-68896527D01*
X273249500Y-68903480D01*
X273249500Y-74494484D01*
X273279058Y-74681113D01*
X273332042Y-74844178D01*
X273337453Y-74860832D01*
X273423240Y-75029199D01*
X273449077Y-75064760D01*
X273534309Y-75182073D01*
X273667926Y-75315690D01*
X273720982Y-75354237D01*
X273820801Y-75426760D01*
X273989168Y-75512547D01*
X274168882Y-75570940D01*
X274168883Y-75570940D01*
X274168886Y-75570941D01*
X274355516Y-75600500D01*
X274876000Y-75600500D01*
X274943039Y-75620185D01*
X274988794Y-75672989D01*
X275000000Y-75724500D01*
X275000000Y-76498741D01*
X274980315Y-76565780D01*
X274950728Y-76597694D01*
X274886595Y-76646125D01*
X274742947Y-76803698D01*
X274630701Y-76984982D01*
X274553679Y-77183801D01*
X274544064Y-77235239D01*
X274514500Y-77393390D01*
X274514500Y-77606610D01*
X274532534Y-77703083D01*
X274553679Y-77816198D01*
X274630701Y-78015017D01*
X274742947Y-78196301D01*
X274882569Y-78349458D01*
X274886593Y-78353872D01*
X274950728Y-78402305D01*
X274992362Y-78458411D01*
X275000000Y-78501257D01*
X275000000Y-81498741D01*
X274980315Y-81565780D01*
X274950728Y-81597694D01*
X274886595Y-81646125D01*
X274742947Y-81803698D01*
X274630701Y-81984982D01*
X274553679Y-82183801D01*
X274553679Y-82183802D01*
X274514500Y-82393390D01*
X274514500Y-82606610D01*
X274532261Y-82701623D01*
X274553679Y-82816198D01*
X274629523Y-83011977D01*
X274630702Y-83015019D01*
X274664342Y-83069350D01*
X274742947Y-83196301D01*
X274808470Y-83268176D01*
X274886593Y-83353872D01*
X274950728Y-83402305D01*
X274992362Y-83458411D01*
X275000000Y-83501257D01*
X275000000Y-84325500D01*
X274980315Y-84392539D01*
X274927511Y-84438294D01*
X274876000Y-84449500D01*
X274355516Y-84449500D01*
X274168886Y-84479058D01*
X273989167Y-84537453D01*
X273909350Y-84578122D01*
X273820801Y-84623240D01*
X273820798Y-84623241D01*
X273820798Y-84623242D01*
X273667926Y-84734309D01*
X273534309Y-84867926D01*
X273438716Y-84999500D01*
X273423240Y-85020801D01*
X273390698Y-85084668D01*
X273337453Y-85189167D01*
X273279058Y-85368886D01*
X273249500Y-85555515D01*
X273249500Y-85649655D01*
X273229754Y-90595478D01*
X273229500Y-90596753D01*
X273229500Y-90659495D01*
X273229359Y-90694646D01*
X273229500Y-90695915D01*
X273229500Y-90754484D01*
X273259058Y-90941113D01*
X273295041Y-91051856D01*
X273317453Y-91120832D01*
X273403240Y-91289199D01*
X273429077Y-91324760D01*
X273514309Y-91442073D01*
X273647926Y-91575690D01*
X273700982Y-91614237D01*
X273800801Y-91686760D01*
X273969168Y-91772547D01*
X274148882Y-91830940D01*
X274148883Y-91830940D01*
X274148886Y-91830941D01*
X274335516Y-91860500D01*
X274876000Y-91860500D01*
X274943039Y-91880185D01*
X274988794Y-91932989D01*
X275000000Y-91984500D01*
X275000000Y-92679448D01*
X274980315Y-92746487D01*
X274950727Y-92778402D01*
X274781594Y-92906126D01*
X274637947Y-93063698D01*
X274525701Y-93244982D01*
X274489360Y-93338791D01*
X274448679Y-93443802D01*
X274409500Y-93653390D01*
X274409500Y-93866610D01*
X274448679Y-94076198D01*
X274525702Y-94275019D01*
X274547529Y-94310271D01*
X274637947Y-94456301D01*
X274701758Y-94526298D01*
X274781593Y-94613872D01*
X274926357Y-94723194D01*
X274950727Y-94741597D01*
X274992363Y-94797706D01*
X275000000Y-94840551D01*
X275000000Y-95179448D01*
X274980315Y-95246487D01*
X274950727Y-95278402D01*
X274781594Y-95406126D01*
X274637947Y-95563698D01*
X274525701Y-95744982D01*
X274448679Y-95943801D01*
X274448679Y-95943802D01*
X274409500Y-96153390D01*
X274409500Y-96366610D01*
X274443782Y-96550000D01*
X274448679Y-96576198D01*
X274525701Y-96775017D01*
X274637947Y-96956301D01*
X274690615Y-97014075D01*
X274773686Y-97105199D01*
X274781594Y-97113873D01*
X274950727Y-97241597D01*
X274992363Y-97297706D01*
X275000000Y-97340551D01*
X275000000Y-98135500D01*
X274980315Y-98202539D01*
X274927511Y-98248294D01*
X274876000Y-98259500D01*
X274335516Y-98259500D01*
X274148886Y-98289058D01*
X273969167Y-98347453D01*
X273923947Y-98370494D01*
X273800801Y-98433240D01*
X273800798Y-98433241D01*
X273800798Y-98433242D01*
X273647926Y-98544309D01*
X273514309Y-98677926D01*
X273403242Y-98830798D01*
X273403240Y-98830801D01*
X273383910Y-98868739D01*
X273317453Y-98999167D01*
X273259058Y-99178886D01*
X273229500Y-99365515D01*
X273229500Y-99424160D01*
X273229347Y-99425544D01*
X273229500Y-99460544D01*
X273229500Y-99523278D01*
X273229779Y-99524665D01*
X273249480Y-104046290D01*
X273249286Y-104053782D01*
X273232916Y-104345294D01*
X273231359Y-104359113D01*
X273182984Y-104643827D01*
X273179890Y-104657384D01*
X273099939Y-104934899D01*
X273095346Y-104948024D01*
X272984830Y-105214834D01*
X272978797Y-105227362D01*
X272839100Y-105480125D01*
X272831702Y-105491899D01*
X272664584Y-105727430D01*
X272655914Y-105738302D01*
X272463475Y-105953642D01*
X272453642Y-105963475D01*
X272238302Y-106155914D01*
X272227430Y-106164584D01*
X271991899Y-106331702D01*
X271980125Y-106339100D01*
X271727362Y-106478797D01*
X271714834Y-106484830D01*
X271448024Y-106595346D01*
X271434899Y-106599939D01*
X271157384Y-106679890D01*
X271143827Y-106682984D01*
X270859114Y-106731359D01*
X270845296Y-106732916D01*
X270553472Y-106749305D01*
X270546519Y-106749500D01*
X261195247Y-106749500D01*
X261128208Y-106729815D01*
X261082453Y-106677011D01*
X261072509Y-106607853D01*
X261080686Y-106578048D01*
X261101778Y-106527125D01*
X261136330Y-106443709D01*
X261155250Y-106300000D01*
X261136330Y-106156291D01*
X261088781Y-106041495D01*
X261080862Y-106022377D01*
X261080861Y-106022376D01*
X261080861Y-106022375D01*
X260992621Y-105907379D01*
X260877625Y-105819139D01*
X260877624Y-105819138D01*
X260877622Y-105819137D01*
X260831417Y-105799999D01*
X265994749Y-105799999D01*
X266013670Y-105943709D01*
X266069137Y-106077622D01*
X266069138Y-106077624D01*
X266069139Y-106077625D01*
X266157379Y-106192621D01*
X266272375Y-106280861D01*
X266272376Y-106280861D01*
X266272377Y-106280862D01*
X266302715Y-106293428D01*
X266406291Y-106336330D01*
X266531079Y-106352758D01*
X266549999Y-106355250D01*
X266549999Y-106355249D01*
X266550000Y-106355250D01*
X266693709Y-106336330D01*
X266827625Y-106280861D01*
X266942621Y-106192621D01*
X267030861Y-106077625D01*
X267086330Y-105943709D01*
X267105250Y-105800000D01*
X267086330Y-105656291D01*
X267040129Y-105544750D01*
X267030862Y-105522377D01*
X267030861Y-105522376D01*
X267030861Y-105522375D01*
X266942621Y-105407379D01*
X266827625Y-105319139D01*
X266827624Y-105319138D01*
X266827622Y-105319137D01*
X266693709Y-105263670D01*
X266550000Y-105244749D01*
X266406290Y-105263670D01*
X266272377Y-105319137D01*
X266157379Y-105407379D01*
X266069137Y-105522377D01*
X266013670Y-105656290D01*
X265994749Y-105799999D01*
X260831417Y-105799999D01*
X260743709Y-105763670D01*
X260583814Y-105742619D01*
X260584161Y-105739982D01*
X260538951Y-105732931D01*
X260504122Y-105708440D01*
X259671916Y-104876234D01*
X258836819Y-104041136D01*
X258803334Y-103979813D01*
X258800500Y-103953455D01*
X258800500Y-103940000D01*
X268774396Y-103940000D01*
X268781951Y-104035999D01*
X268794779Y-104198995D01*
X268855426Y-104451610D01*
X268909719Y-104582683D01*
X268954846Y-104691628D01*
X269083591Y-104901722D01*
X269090590Y-104913143D01*
X269138794Y-104969582D01*
X269259311Y-105110689D01*
X269387589Y-105220249D01*
X269438428Y-105263670D01*
X269456860Y-105279412D01*
X269678372Y-105415154D01*
X269858385Y-105489718D01*
X269918389Y-105514573D01*
X269984389Y-105530418D01*
X270171006Y-105575221D01*
X270365147Y-105590500D01*
X270367592Y-105590500D01*
X270492408Y-105590500D01*
X270494853Y-105590500D01*
X270688994Y-105575221D01*
X270941610Y-105514573D01*
X271181628Y-105415154D01*
X271403140Y-105279412D01*
X271600689Y-105110689D01*
X271769412Y-104913140D01*
X271905154Y-104691628D01*
X272004573Y-104451610D01*
X272065221Y-104198994D01*
X272085604Y-103940000D01*
X272065221Y-103681006D01*
X272013368Y-103465023D01*
X272004573Y-103428389D01*
X271967087Y-103337892D01*
X271905154Y-103188372D01*
X271769412Y-102966860D01*
X271768925Y-102966290D01*
X271691307Y-102875411D01*
X271600689Y-102769311D01*
X271428298Y-102622075D01*
X271403143Y-102600590D01*
X271403140Y-102600588D01*
X271181628Y-102464846D01*
X271051983Y-102411145D01*
X270941610Y-102365426D01*
X270688995Y-102304779D01*
X270497287Y-102289691D01*
X270497272Y-102289690D01*
X270494853Y-102289500D01*
X270365147Y-102289500D01*
X270362728Y-102289690D01*
X270362712Y-102289691D01*
X270171004Y-102304779D01*
X269918389Y-102365426D01*
X269724044Y-102445928D01*
X269678372Y-102464846D01*
X269534359Y-102553096D01*
X269456856Y-102600590D01*
X269259311Y-102769311D01*
X269090590Y-102966856D01*
X269054348Y-103025999D01*
X268954846Y-103188372D01*
X268940285Y-103223524D01*
X268855426Y-103428389D01*
X268794779Y-103681004D01*
X268774632Y-103937000D01*
X268774396Y-103940000D01*
X258800500Y-103940000D01*
X258800500Y-100062230D01*
X258820185Y-99995191D01*
X258836819Y-99974548D01*
X258924550Y-99886818D01*
X258985874Y-99853334D01*
X259012231Y-99850500D01*
X260310759Y-99850500D01*
X260377798Y-99870185D01*
X260423553Y-99922989D01*
X260433497Y-99992147D01*
X260425320Y-100021952D01*
X260363670Y-100170790D01*
X260344749Y-100314499D01*
X260363670Y-100458209D01*
X260419137Y-100592122D01*
X260419138Y-100592124D01*
X260419139Y-100592125D01*
X260507379Y-100707121D01*
X260622375Y-100795361D01*
X260756291Y-100850830D01*
X260881079Y-100867258D01*
X260899999Y-100869750D01*
X260899999Y-100869749D01*
X260900000Y-100869750D01*
X261043709Y-100850830D01*
X261177625Y-100795361D01*
X261292621Y-100707121D01*
X261380861Y-100592125D01*
X261436330Y-100458209D01*
X261455250Y-100314500D01*
X261436330Y-100170791D01*
X261391363Y-100062230D01*
X261380861Y-100036874D01*
X261308564Y-99942656D01*
X261283369Y-99877487D01*
X261297407Y-99809042D01*
X261315708Y-99783187D01*
X261318255Y-99780419D01*
X261318258Y-99780418D01*
X261351253Y-99744574D01*
X261354756Y-99740924D01*
X263063043Y-98032636D01*
X263082895Y-98016515D01*
X263090669Y-98011437D01*
X263108500Y-97988526D01*
X263118227Y-97977513D01*
X263129550Y-97961653D01*
X263132604Y-97957555D01*
X263162517Y-97919126D01*
X263162517Y-97919123D01*
X263167108Y-97913226D01*
X263183127Y-97859419D01*
X263184679Y-97854569D01*
X263200500Y-97808488D01*
X263200500Y-97808483D01*
X263202925Y-97801420D01*
X263202616Y-97793955D01*
X263202617Y-97793954D01*
X263200606Y-97745321D01*
X263200500Y-97740198D01*
X263200500Y-97207214D01*
X263220185Y-97140175D01*
X263272989Y-97094420D01*
X263340686Y-97084275D01*
X263356289Y-97086329D01*
X263356291Y-97086330D01*
X263500000Y-97105250D01*
X263500000Y-97105249D01*
X263516187Y-97107381D01*
X263515839Y-97110018D01*
X263561031Y-97117060D01*
X263595877Y-97141559D01*
X263939403Y-97485085D01*
X263972888Y-97546408D01*
X263967904Y-97616100D01*
X263926032Y-97672033D01*
X263899175Y-97687327D01*
X263822376Y-97719138D01*
X263707379Y-97807379D01*
X263619137Y-97922377D01*
X263563670Y-98056290D01*
X263544749Y-98199999D01*
X263563670Y-98343709D01*
X263619137Y-98477622D01*
X263619138Y-98477624D01*
X263619139Y-98477625D01*
X263707379Y-98592621D01*
X263822375Y-98680861D01*
X263956291Y-98736330D01*
X264100000Y-98755250D01*
X264182971Y-98744326D01*
X264252004Y-98755091D01*
X264304260Y-98801471D01*
X264323146Y-98868739D01*
X264322094Y-98883450D01*
X264306749Y-98999999D01*
X264325670Y-99143709D01*
X264381137Y-99277622D01*
X264381138Y-99277624D01*
X264381139Y-99277625D01*
X264469379Y-99392621D01*
X264584375Y-99480861D01*
X264584376Y-99480861D01*
X264584377Y-99480862D01*
X264588228Y-99482457D01*
X264718291Y-99536330D01*
X264843079Y-99552758D01*
X264861999Y-99555250D01*
X264861999Y-99555249D01*
X264862000Y-99555250D01*
X265005709Y-99536330D01*
X265139625Y-99480861D01*
X265142236Y-99478857D01*
X265207400Y-99453660D01*
X265275846Y-99467693D01*
X265293208Y-99478850D01*
X265381190Y-99546361D01*
X265515106Y-99601830D01*
X265658815Y-99620750D01*
X265802524Y-99601830D01*
X265936440Y-99546361D01*
X266051436Y-99458121D01*
X266139676Y-99343125D01*
X266195145Y-99209209D01*
X266214065Y-99065500D01*
X266195145Y-98921791D01*
X266145308Y-98801471D01*
X266139676Y-98787874D01*
X266071965Y-98699633D01*
X266051436Y-98672879D01*
X266051435Y-98672878D01*
X266042468Y-98665997D01*
X266006562Y-98622096D01*
X266004070Y-98617000D01*
X265998862Y-98600743D01*
X265990417Y-98585139D01*
X265971740Y-98550626D01*
X265969396Y-98546071D01*
X265944733Y-98495620D01*
X265925182Y-98477622D01*
X265903402Y-98457572D01*
X265899729Y-98454047D01*
X264091559Y-96645877D01*
X264058074Y-96584554D01*
X264057276Y-96565395D01*
X264055249Y-96550003D01*
X264055250Y-96550000D01*
X264036330Y-96406291D01*
X263990129Y-96294750D01*
X263980862Y-96272377D01*
X263980861Y-96272376D01*
X263980861Y-96272375D01*
X263971365Y-96260000D01*
X264774785Y-96260000D01*
X264793602Y-96463083D01*
X264849418Y-96659251D01*
X264940324Y-96841818D01*
X265063236Y-97004580D01*
X265213958Y-97141981D01*
X265377183Y-97243045D01*
X265387363Y-97249348D01*
X265577544Y-97323024D01*
X265778024Y-97360500D01*
X265778026Y-97360500D01*
X265981974Y-97360500D01*
X265981976Y-97360500D01*
X266182456Y-97323024D01*
X266372637Y-97249348D01*
X266546041Y-97141981D01*
X266696764Y-97004579D01*
X266819673Y-96841821D01*
X266819673Y-96841819D01*
X266819675Y-96841818D01*
X266865313Y-96750161D01*
X266910582Y-96659250D01*
X266966397Y-96463083D01*
X266985215Y-96260000D01*
X266966397Y-96056917D01*
X266963899Y-96048139D01*
X266937534Y-95955475D01*
X266910582Y-95860750D01*
X266883267Y-95805893D01*
X266819675Y-95678181D01*
X266696763Y-95515419D01*
X266546041Y-95378018D01*
X266372638Y-95270652D01*
X266182457Y-95196976D01*
X266088689Y-95179448D01*
X265981976Y-95159500D01*
X265778024Y-95159500D01*
X265688836Y-95176172D01*
X265577542Y-95196976D01*
X265387361Y-95270652D01*
X265213958Y-95378018D01*
X265063236Y-95515419D01*
X264940324Y-95678181D01*
X264849418Y-95860748D01*
X264793602Y-96056916D01*
X264774785Y-96260000D01*
X263971365Y-96260000D01*
X263892621Y-96157379D01*
X263777625Y-96069139D01*
X263777624Y-96069138D01*
X263777622Y-96069137D01*
X263643709Y-96013670D01*
X263499999Y-95994749D01*
X263340685Y-96015724D01*
X263271650Y-96004958D01*
X263219394Y-95958578D01*
X263200500Y-95892785D01*
X263200500Y-95373691D01*
X263220185Y-95306652D01*
X263272989Y-95260897D01*
X263342147Y-95250953D01*
X263399985Y-95275314D01*
X263472375Y-95330861D01*
X263606291Y-95386330D01*
X263731078Y-95402758D01*
X263749999Y-95405250D01*
X263749999Y-95405249D01*
X263750000Y-95405250D01*
X263893709Y-95386330D01*
X264027625Y-95330861D01*
X264142621Y-95242621D01*
X264230861Y-95127625D01*
X264286330Y-94993709D01*
X264305250Y-94850000D01*
X264286330Y-94706291D01*
X264230861Y-94572375D01*
X264142621Y-94457379D01*
X264027625Y-94369139D01*
X264027624Y-94369138D01*
X264027622Y-94369137D01*
X263893709Y-94313670D01*
X263750000Y-94294749D01*
X263606290Y-94313670D01*
X263472374Y-94369138D01*
X263399986Y-94424684D01*
X263334817Y-94449878D01*
X263266372Y-94435839D01*
X263216382Y-94387025D01*
X263200500Y-94326308D01*
X263200500Y-92649999D01*
X264094749Y-92649999D01*
X264113670Y-92793709D01*
X264169137Y-92927622D01*
X264169138Y-92927624D01*
X264169139Y-92927625D01*
X264257379Y-93042621D01*
X264372375Y-93130861D01*
X264506291Y-93186330D01*
X264650000Y-93205250D01*
X264666186Y-93207381D01*
X264665738Y-93210777D01*
X264708332Y-93217413D01*
X264760595Y-93263784D01*
X264779500Y-93329595D01*
X264779500Y-94404560D01*
X264779500Y-94404578D01*
X264779501Y-94407872D01*
X264779853Y-94411152D01*
X264779854Y-94411159D01*
X264785909Y-94467484D01*
X264790829Y-94480675D01*
X264836204Y-94602331D01*
X264922454Y-94717546D01*
X265037669Y-94803796D01*
X265172517Y-94854091D01*
X265232127Y-94860500D01*
X266527872Y-94860499D01*
X266587483Y-94854091D01*
X266722331Y-94803796D01*
X266837546Y-94717546D01*
X266923796Y-94602331D01*
X266974091Y-94467483D01*
X266980500Y-94407873D01*
X266980499Y-93760000D01*
X267274785Y-93760000D01*
X267293602Y-93963083D01*
X267349418Y-94159251D01*
X267440324Y-94341818D01*
X267563236Y-94504580D01*
X267713958Y-94641981D01*
X267887361Y-94749347D01*
X267887363Y-94749348D01*
X268077544Y-94823024D01*
X268278024Y-94860500D01*
X268278026Y-94860500D01*
X268481974Y-94860500D01*
X268481976Y-94860500D01*
X268682456Y-94823024D01*
X268872637Y-94749348D01*
X269046041Y-94641981D01*
X269083099Y-94608198D01*
X269196763Y-94504580D01*
X269199852Y-94500490D01*
X269319673Y-94341821D01*
X269319673Y-94341819D01*
X269319675Y-94341818D01*
X269397190Y-94186145D01*
X269410582Y-94159250D01*
X269466397Y-93963083D01*
X269485215Y-93760000D01*
X269466397Y-93556917D01*
X269458230Y-93528215D01*
X269437088Y-93453909D01*
X269410582Y-93360750D01*
X269395069Y-93329595D01*
X269319675Y-93178181D01*
X269196763Y-93015419D01*
X269046041Y-92878018D01*
X268872638Y-92770652D01*
X268682457Y-92696976D01*
X268588689Y-92679448D01*
X268481976Y-92659500D01*
X268278024Y-92659500D01*
X268177784Y-92678238D01*
X268077542Y-92696976D01*
X267887361Y-92770652D01*
X267713958Y-92878018D01*
X267563236Y-93015419D01*
X267440324Y-93178181D01*
X267349418Y-93360748D01*
X267293602Y-93556916D01*
X267274785Y-93760000D01*
X266980499Y-93760000D01*
X266980499Y-93112128D01*
X266974091Y-93052517D01*
X266923796Y-92917669D01*
X266837546Y-92802454D01*
X266722331Y-92716204D01*
X266587483Y-92665909D01*
X266587483Y-92665908D01*
X266531166Y-92659854D01*
X266531165Y-92659853D01*
X266527873Y-92659500D01*
X266524551Y-92659500D01*
X265315245Y-92659500D01*
X265248206Y-92639815D01*
X265202451Y-92587011D01*
X265192306Y-92551685D01*
X265186330Y-92506291D01*
X265130861Y-92372375D01*
X265042621Y-92257379D01*
X264927625Y-92169139D01*
X264927624Y-92169138D01*
X264927622Y-92169137D01*
X264793709Y-92113670D01*
X264650000Y-92094749D01*
X264506290Y-92113670D01*
X264372377Y-92169137D01*
X264257379Y-92257379D01*
X264169137Y-92372377D01*
X264113670Y-92506290D01*
X264094749Y-92649999D01*
X263200500Y-92649999D01*
X263200500Y-87595071D01*
X263220185Y-87528032D01*
X263236815Y-87507394D01*
X263563539Y-87180669D01*
X263583402Y-87164540D01*
X263591169Y-87159466D01*
X263609000Y-87136555D01*
X263618727Y-87125542D01*
X263630050Y-87109682D01*
X263633104Y-87105584D01*
X263663017Y-87067155D01*
X263663017Y-87067152D01*
X263667608Y-87061255D01*
X263678347Y-87025185D01*
X263683629Y-87007441D01*
X263685179Y-87002598D01*
X263701000Y-86956517D01*
X263701000Y-86956513D01*
X263703425Y-86949450D01*
X263703116Y-86941985D01*
X263703117Y-86941983D01*
X263701105Y-86893359D01*
X263701000Y-86888236D01*
X263701000Y-85800000D01*
X267044749Y-85800000D01*
X267063670Y-85943709D01*
X267119137Y-86077622D01*
X267119138Y-86077624D01*
X267119139Y-86077625D01*
X267207379Y-86192621D01*
X267322375Y-86280861D01*
X267322376Y-86280861D01*
X267322377Y-86280862D01*
X267352715Y-86293428D01*
X267456291Y-86336330D01*
X267600000Y-86355250D01*
X267743709Y-86336330D01*
X267877625Y-86280861D01*
X267992621Y-86192621D01*
X268080861Y-86077625D01*
X268136330Y-85943709D01*
X268155250Y-85800000D01*
X268136330Y-85656291D01*
X268088632Y-85541136D01*
X268080862Y-85522377D01*
X268080861Y-85522376D01*
X268080861Y-85522375D01*
X267992621Y-85407379D01*
X267877625Y-85319139D01*
X267877624Y-85319138D01*
X267877622Y-85319137D01*
X267743709Y-85263670D01*
X267599999Y-85244749D01*
X267456290Y-85263670D01*
X267322377Y-85319137D01*
X267207379Y-85407379D01*
X267119137Y-85522377D01*
X267063670Y-85656290D01*
X267044749Y-85800000D01*
X263701000Y-85800000D01*
X263701000Y-85686874D01*
X263720685Y-85619835D01*
X263773489Y-85574080D01*
X263842647Y-85564136D01*
X263872445Y-85572310D01*
X263906291Y-85586330D01*
X264035022Y-85603278D01*
X264049999Y-85605250D01*
X264049999Y-85605249D01*
X264050000Y-85605250D01*
X264193709Y-85586330D01*
X264327625Y-85530861D01*
X264442621Y-85442621D01*
X264530861Y-85327625D01*
X264586330Y-85193709D01*
X264605250Y-85050000D01*
X264586330Y-84906291D01*
X264540129Y-84794750D01*
X264530862Y-84772377D01*
X264530861Y-84772376D01*
X264530861Y-84772375D01*
X264442621Y-84657379D01*
X264327625Y-84569139D01*
X264327624Y-84569138D01*
X264327622Y-84569137D01*
X264193709Y-84513670D01*
X264050000Y-84494749D01*
X263906290Y-84513669D01*
X263906291Y-84513670D01*
X263872450Y-84527687D01*
X263802982Y-84535155D01*
X263740503Y-84503879D01*
X263704851Y-84443789D01*
X263701000Y-84413125D01*
X263701000Y-83700499D01*
X264194749Y-83700499D01*
X264213670Y-83844209D01*
X264269137Y-83978122D01*
X264269138Y-83978124D01*
X264269139Y-83978125D01*
X264357379Y-84093121D01*
X264472375Y-84181361D01*
X264606291Y-84236830D01*
X264750000Y-84255750D01*
X264893709Y-84236830D01*
X265027625Y-84181361D01*
X265142621Y-84093121D01*
X265230861Y-83978125D01*
X265286330Y-83844209D01*
X265305250Y-83700500D01*
X265292513Y-83603756D01*
X265303278Y-83534723D01*
X265349658Y-83482467D01*
X265416927Y-83463581D01*
X265480729Y-83482145D01*
X265492361Y-83489347D01*
X265492363Y-83489348D01*
X265682544Y-83563024D01*
X265883024Y-83600500D01*
X265883026Y-83600500D01*
X266086974Y-83600500D01*
X266086976Y-83600500D01*
X266287456Y-83563024D01*
X266477637Y-83489348D01*
X266651041Y-83381981D01*
X266800653Y-83245592D01*
X266801763Y-83244580D01*
X266806323Y-83238542D01*
X266924673Y-83081821D01*
X266924673Y-83081819D01*
X266924675Y-83081818D01*
X266986650Y-82957354D01*
X267015582Y-82899250D01*
X267071397Y-82703083D01*
X267090215Y-82500000D01*
X267071397Y-82296917D01*
X267070484Y-82293709D01*
X267043821Y-82199999D01*
X267015582Y-82100750D01*
X266993444Y-82056290D01*
X266924675Y-81918181D01*
X266801763Y-81755419D01*
X266651041Y-81618018D01*
X266477638Y-81510652D01*
X266287457Y-81436976D01*
X266210524Y-81422595D01*
X266086976Y-81399500D01*
X265883024Y-81399500D01*
X265782784Y-81418238D01*
X265682542Y-81436976D01*
X265492361Y-81510652D01*
X265318958Y-81618018D01*
X265168236Y-81755419D01*
X265045324Y-81918181D01*
X264954418Y-82100748D01*
X264898602Y-82296916D01*
X264879785Y-82500000D01*
X264898602Y-82703083D01*
X264954416Y-82899247D01*
X264995959Y-82982677D01*
X265008219Y-83051463D01*
X264981345Y-83115958D01*
X264923869Y-83155685D01*
X264868772Y-83160886D01*
X264860047Y-83159738D01*
X264750000Y-83145249D01*
X264606290Y-83164170D01*
X264472377Y-83219637D01*
X264357379Y-83307879D01*
X264269137Y-83422877D01*
X264213670Y-83556790D01*
X264194749Y-83700499D01*
X263701000Y-83700499D01*
X263701000Y-81449708D01*
X263703639Y-81424260D01*
X263703988Y-81422595D01*
X263705542Y-81415185D01*
X263701950Y-81386379D01*
X263701040Y-81371706D01*
X263700999Y-81371466D01*
X263701000Y-81371460D01*
X263697831Y-81352472D01*
X263697094Y-81347416D01*
X263691073Y-81299107D01*
X263691072Y-81299105D01*
X263690148Y-81291691D01*
X263686592Y-81285120D01*
X263686592Y-81285119D01*
X263663425Y-81242311D01*
X263661081Y-81237756D01*
X263636418Y-81187305D01*
X263630918Y-81182242D01*
X263595087Y-81149257D01*
X263591414Y-81145732D01*
X262307863Y-79862181D01*
X262274378Y-79800858D01*
X262279362Y-79731166D01*
X262321234Y-79675233D01*
X262386698Y-79650816D01*
X262395544Y-79650500D01*
X264303456Y-79650500D01*
X264370495Y-79670185D01*
X264391137Y-79686819D01*
X264872332Y-80168014D01*
X264903917Y-80221761D01*
X264954417Y-80399250D01*
X265045324Y-80581818D01*
X265168236Y-80744580D01*
X265318958Y-80881981D01*
X265492361Y-80989347D01*
X265492363Y-80989348D01*
X265682544Y-81063024D01*
X265883024Y-81100500D01*
X265883026Y-81100500D01*
X266086974Y-81100500D01*
X266086976Y-81100500D01*
X266287456Y-81063024D01*
X266477637Y-80989348D01*
X266651041Y-80881981D01*
X266801764Y-80744579D01*
X266924673Y-80581821D01*
X266924673Y-80581819D01*
X266924675Y-80581818D01*
X266987932Y-80454779D01*
X267015582Y-80399250D01*
X267071397Y-80203083D01*
X267090215Y-80000000D01*
X267071397Y-79796917D01*
X267015582Y-79600750D01*
X267004774Y-79579044D01*
X266924675Y-79418181D01*
X266801763Y-79255419D01*
X266651041Y-79118018D01*
X266477638Y-79010652D01*
X266287457Y-78936976D01*
X266209342Y-78922374D01*
X266086976Y-78899500D01*
X265883024Y-78899500D01*
X265805017Y-78914082D01*
X265682542Y-78936976D01*
X265492361Y-79010652D01*
X265318958Y-79118018D01*
X265168235Y-79255420D01*
X265160684Y-79265420D01*
X265104573Y-79307054D01*
X265034861Y-79311742D01*
X264974052Y-79278370D01*
X264782638Y-79086956D01*
X264766509Y-79067094D01*
X264761437Y-79059330D01*
X264738533Y-79041504D01*
X264727508Y-79031768D01*
X264711653Y-79020448D01*
X264707544Y-79017384D01*
X264663229Y-78982892D01*
X264609409Y-78966869D01*
X264604531Y-78965306D01*
X264551421Y-78947074D01*
X264495332Y-78949394D01*
X264490208Y-78949500D01*
X264445543Y-78949500D01*
X264378504Y-78929815D01*
X264332749Y-78877011D01*
X264322805Y-78807853D01*
X264351830Y-78744297D01*
X264357862Y-78737819D01*
X264551972Y-78543709D01*
X264759594Y-78336086D01*
X264820915Y-78302603D01*
X264890606Y-78307587D01*
X264946538Y-78349456D01*
X265027454Y-78457546D01*
X265142669Y-78543796D01*
X265277517Y-78594091D01*
X265337127Y-78600500D01*
X266632872Y-78600499D01*
X266692483Y-78594091D01*
X266827331Y-78543796D01*
X266942546Y-78457546D01*
X267028796Y-78342331D01*
X267079091Y-78207483D01*
X267085500Y-78147873D01*
X267085499Y-77499999D01*
X267379785Y-77499999D01*
X267398602Y-77703083D01*
X267454418Y-77899251D01*
X267545324Y-78081818D01*
X267668236Y-78244580D01*
X267818958Y-78381981D01*
X267992361Y-78489347D01*
X267992363Y-78489348D01*
X268182544Y-78563024D01*
X268383024Y-78600500D01*
X268383026Y-78600500D01*
X268586974Y-78600500D01*
X268586976Y-78600500D01*
X268787456Y-78563024D01*
X268977637Y-78489348D01*
X269151041Y-78381981D01*
X269301764Y-78244579D01*
X269424673Y-78081821D01*
X269424673Y-78081819D01*
X269424675Y-78081818D01*
X269470313Y-77990161D01*
X269515582Y-77899250D01*
X269571397Y-77703083D01*
X269590215Y-77500000D01*
X269571397Y-77296917D01*
X269559581Y-77255390D01*
X269548968Y-77218089D01*
X269515582Y-77100750D01*
X269457937Y-76984982D01*
X269424675Y-76918181D01*
X269301763Y-76755419D01*
X269151041Y-76618018D01*
X268977638Y-76510652D01*
X268787457Y-76436976D01*
X268710524Y-76422595D01*
X268586976Y-76399500D01*
X268383024Y-76399500D01*
X268282783Y-76418238D01*
X268182542Y-76436976D01*
X267992361Y-76510652D01*
X267818958Y-76618018D01*
X267668236Y-76755419D01*
X267545324Y-76918181D01*
X267454418Y-77100748D01*
X267398602Y-77296916D01*
X267379785Y-77499999D01*
X267085499Y-77499999D01*
X267085499Y-76852128D01*
X267079091Y-76792517D01*
X267028796Y-76657669D01*
X266942546Y-76542454D01*
X266827331Y-76456204D01*
X266692483Y-76405909D01*
X266632873Y-76399500D01*
X266629550Y-76399500D01*
X265340439Y-76399500D01*
X265340420Y-76399500D01*
X265337128Y-76399501D01*
X265333848Y-76399853D01*
X265333840Y-76399854D01*
X265277515Y-76405909D01*
X265142669Y-76456204D01*
X265027454Y-76542454D01*
X264941204Y-76657668D01*
X264890910Y-76792515D01*
X264890909Y-76792517D01*
X264884500Y-76852127D01*
X264884500Y-76855448D01*
X264884500Y-76855449D01*
X264884500Y-77168200D01*
X264864815Y-77235239D01*
X264851725Y-77252188D01*
X264848777Y-77255390D01*
X264845233Y-77259083D01*
X263791137Y-78313181D01*
X263729814Y-78346666D01*
X263703456Y-78349500D01*
X260499212Y-78349500D01*
X260473766Y-78346861D01*
X260464685Y-78344957D01*
X260435877Y-78348548D01*
X260421201Y-78349458D01*
X260401961Y-78352668D01*
X260396903Y-78353405D01*
X260341189Y-78360351D01*
X260291813Y-78387072D01*
X260287261Y-78389415D01*
X260236804Y-78414082D01*
X260198780Y-78455387D01*
X260195233Y-78459083D01*
X259391137Y-79263181D01*
X259329814Y-79296666D01*
X259303456Y-79299500D01*
X257524000Y-79299500D01*
X257456961Y-79279815D01*
X257411206Y-79227011D01*
X257400000Y-79175500D01*
X257400000Y-76800000D01*
X255000000Y-76800000D01*
X255000000Y-79175500D01*
X254980315Y-79242539D01*
X254927511Y-79288294D01*
X254876000Y-79299500D01*
X254399212Y-79299500D01*
X254373766Y-79296861D01*
X254364685Y-79294957D01*
X254335877Y-79298548D01*
X254321201Y-79299458D01*
X254301961Y-79302668D01*
X254296903Y-79303405D01*
X254241189Y-79310351D01*
X254191813Y-79337072D01*
X254187261Y-79339415D01*
X254136804Y-79364082D01*
X254098780Y-79405387D01*
X254095233Y-79409083D01*
X253867943Y-79636373D01*
X253806620Y-79669858D01*
X253736928Y-79664874D01*
X253680995Y-79623002D01*
X253657324Y-79564880D01*
X253640269Y-79435335D01*
X253585491Y-79303087D01*
X253584801Y-79301421D01*
X253584800Y-79301420D01*
X253584800Y-79301419D01*
X253496560Y-79186423D01*
X253381564Y-79098183D01*
X253381563Y-79098182D01*
X253381561Y-79098181D01*
X253247648Y-79042714D01*
X253103938Y-79023793D01*
X253026567Y-79033980D01*
X252957532Y-79023214D01*
X252905276Y-78976834D01*
X252895823Y-78958498D01*
X252880861Y-78922375D01*
X252792621Y-78807379D01*
X252677625Y-78719139D01*
X252677624Y-78719138D01*
X252677622Y-78719137D01*
X252543709Y-78663670D01*
X252400000Y-78644749D01*
X252256290Y-78663670D01*
X252122377Y-78719137D01*
X252044145Y-78779166D01*
X252016996Y-78800000D01*
X251994428Y-78817317D01*
X251992808Y-78815206D01*
X251955855Y-78842190D01*
X251913908Y-78849500D01*
X248299212Y-78849500D01*
X248273766Y-78846861D01*
X248264685Y-78844957D01*
X248235877Y-78848548D01*
X248221201Y-78849458D01*
X248201961Y-78852668D01*
X248196903Y-78853405D01*
X248141189Y-78860351D01*
X248091813Y-78887072D01*
X248087261Y-78889415D01*
X248036804Y-78914082D01*
X247998780Y-78955387D01*
X247995233Y-78959083D01*
X246136955Y-80817361D01*
X246117104Y-80833483D01*
X246109332Y-80838561D01*
X246091500Y-80861471D01*
X246081765Y-80872496D01*
X246070441Y-80888357D01*
X246067392Y-80892445D01*
X246061514Y-80899999D01*
X246032891Y-80936773D01*
X246016871Y-80990582D01*
X246015309Y-80995458D01*
X245997074Y-81048577D01*
X245999394Y-81104668D01*
X245999500Y-81109792D01*
X245999500Y-82842785D01*
X245979815Y-82909824D01*
X245927011Y-82955579D01*
X245859315Y-82965724D01*
X245700000Y-82944749D01*
X245556290Y-82963670D01*
X245422377Y-83019137D01*
X245307379Y-83107379D01*
X245219137Y-83222377D01*
X245163670Y-83356290D01*
X245144749Y-83500000D01*
X245163670Y-83643709D01*
X245219137Y-83777622D01*
X245219138Y-83777624D01*
X245219139Y-83777625D01*
X245307379Y-83892621D01*
X245422375Y-83980861D01*
X245556291Y-84036330D01*
X245700000Y-84055250D01*
X245843709Y-84036330D01*
X245843711Y-84036329D01*
X245859314Y-84034275D01*
X245928349Y-84045040D01*
X245980605Y-84091420D01*
X245999500Y-84157214D01*
X245999500Y-86015157D01*
X245979815Y-86082196D01*
X245927011Y-86127951D01*
X245859314Y-86138095D01*
X245838635Y-86135373D01*
X245726339Y-86120588D01*
X245582629Y-86139509D01*
X245448716Y-86194976D01*
X245333718Y-86283218D01*
X245245476Y-86398216D01*
X245190009Y-86532129D01*
X245168958Y-86692025D01*
X245166321Y-86691677D01*
X245159271Y-86736885D01*
X245134781Y-86771713D01*
X244993313Y-86913182D01*
X244931993Y-86946666D01*
X244905634Y-86949500D01*
X242849207Y-86949500D01*
X242823761Y-86946861D01*
X242814685Y-86944958D01*
X242785884Y-86948548D01*
X242771203Y-86949459D01*
X242751986Y-86952665D01*
X242746924Y-86953402D01*
X242691192Y-86960350D01*
X242641813Y-86987072D01*
X242637261Y-86989415D01*
X242586804Y-87014082D01*
X242548780Y-87055387D01*
X242545233Y-87059083D01*
X241967181Y-87637136D01*
X241905858Y-87670621D01*
X241836167Y-87665637D01*
X241780233Y-87623766D01*
X241755816Y-87558301D01*
X241755500Y-87549455D01*
X241755500Y-85377310D01*
X241755500Y-85377309D01*
X241755500Y-85374000D01*
X241749661Y-85319687D01*
X241738455Y-85268176D01*
X241731219Y-85241802D01*
X241719500Y-85221223D01*
X241675845Y-85144558D01*
X241677946Y-85143361D01*
X241655932Y-85095150D01*
X241665880Y-85025992D01*
X241711639Y-84973191D01*
X241778679Y-84953511D01*
X241794853Y-84954572D01*
X241800000Y-84955250D01*
X241943709Y-84936330D01*
X242077625Y-84880861D01*
X242192621Y-84792621D01*
X242280861Y-84677625D01*
X242336330Y-84543709D01*
X242355250Y-84400000D01*
X242336330Y-84256291D01*
X242290129Y-84144750D01*
X242280862Y-84122377D01*
X242280861Y-84122376D01*
X242280861Y-84122375D01*
X242192621Y-84007379D01*
X242077625Y-83919139D01*
X242077624Y-83919138D01*
X242077622Y-83919137D01*
X241943709Y-83863670D01*
X241800000Y-83844749D01*
X241656290Y-83863670D01*
X241522377Y-83919137D01*
X241407379Y-84007379D01*
X241319137Y-84122377D01*
X241263670Y-84256290D01*
X241244749Y-84400000D01*
X241263670Y-84543709D01*
X241319137Y-84677622D01*
X241319138Y-84677624D01*
X241319139Y-84677625D01*
X241407379Y-84792621D01*
X241407380Y-84792622D01*
X241409215Y-84795013D01*
X241434409Y-84860182D01*
X241420371Y-84928627D01*
X241371557Y-84978617D01*
X241310839Y-84994500D01*
X233379500Y-84994500D01*
X233312461Y-84974815D01*
X233266706Y-84922011D01*
X233255500Y-84870500D01*
X233255500Y-83377310D01*
X233255500Y-83374000D01*
X233249661Y-83319687D01*
X233238455Y-83268176D01*
X233231219Y-83241802D01*
X233211708Y-83207539D01*
X233181890Y-83155174D01*
X233137945Y-83104459D01*
X233137943Y-83104457D01*
X233136133Y-83102368D01*
X233103359Y-83070743D01*
X233015024Y-83024535D01*
X233007668Y-83022375D01*
X232947984Y-83004849D01*
X232876000Y-82994500D01*
X229374000Y-82994500D01*
X229370720Y-82994852D01*
X229370712Y-82994853D01*
X229322987Y-82999984D01*
X229322982Y-82999984D01*
X229319687Y-83000339D01*
X229316446Y-83001043D01*
X229316440Y-83001045D01*
X229269781Y-83011195D01*
X229269751Y-83011202D01*
X229268176Y-83011545D01*
X229266613Y-83011973D01*
X229266600Y-83011977D01*
X229249496Y-83016669D01*
X229241802Y-83018781D01*
X229241801Y-83018781D01*
X229241799Y-83018782D01*
X229155174Y-83068109D01*
X229104459Y-83112054D01*
X229104445Y-83112067D01*
X229102368Y-83113867D01*
X229089183Y-83127531D01*
X229070742Y-83146642D01*
X229024535Y-83234975D01*
X229004849Y-83302015D01*
X228994499Y-83374000D01*
X228994500Y-84999500D01*
X228994500Y-86626000D01*
X228994852Y-86629280D01*
X228994853Y-86629287D01*
X228999858Y-86675839D01*
X229000339Y-86680313D01*
X229001044Y-86683556D01*
X229001045Y-86683559D01*
X229011195Y-86730218D01*
X229011200Y-86730239D01*
X229011545Y-86731824D01*
X229011975Y-86733394D01*
X229011977Y-86733399D01*
X229018782Y-86758200D01*
X229068109Y-86844825D01*
X229098428Y-86879815D01*
X229113867Y-86897632D01*
X229146641Y-86929257D01*
X229234976Y-86975465D01*
X229302015Y-86995150D01*
X229374000Y-87005500D01*
X232120500Y-87005500D01*
X232187539Y-87025185D01*
X232233294Y-87077989D01*
X232244500Y-87129499D01*
X232244500Y-87876000D01*
X232244852Y-87879280D01*
X232244853Y-87879287D01*
X232247080Y-87900000D01*
X232250339Y-87930313D01*
X232251044Y-87933556D01*
X232251045Y-87933559D01*
X232261195Y-87980218D01*
X232261200Y-87980239D01*
X232261545Y-87981824D01*
X232268081Y-88005648D01*
X232268782Y-88008200D01*
X232318109Y-88094825D01*
X232362054Y-88145540D01*
X232363867Y-88147632D01*
X232396641Y-88179257D01*
X232484976Y-88225465D01*
X232529215Y-88238455D01*
X232552015Y-88245150D01*
X232624000Y-88255500D01*
X240835502Y-88255500D01*
X240902541Y-88275185D01*
X240948296Y-88327989D01*
X240958240Y-88397147D01*
X240929215Y-88460703D01*
X240910989Y-88477876D01*
X240807379Y-88557379D01*
X240719137Y-88672377D01*
X240663670Y-88806290D01*
X240644749Y-88949999D01*
X240663670Y-89093709D01*
X240719137Y-89227622D01*
X240719138Y-89227624D01*
X240719139Y-89227625D01*
X240807379Y-89342621D01*
X240922375Y-89430861D01*
X241056291Y-89486330D01*
X241181078Y-89502758D01*
X241199999Y-89505250D01*
X241199999Y-89505249D01*
X241200000Y-89505250D01*
X241343709Y-89486330D01*
X241378050Y-89472105D01*
X241447516Y-89464637D01*
X241509996Y-89495912D01*
X241545648Y-89556001D01*
X241549500Y-89586667D01*
X241549500Y-89925500D01*
X241529815Y-89992539D01*
X241477011Y-90038294D01*
X241425500Y-90049500D01*
X239283528Y-90049500D01*
X239258082Y-90046861D01*
X239249001Y-90044957D01*
X239220193Y-90048548D01*
X239205520Y-90049458D01*
X239186310Y-90052664D01*
X239181244Y-90053402D01*
X239125506Y-90060351D01*
X239076119Y-90087076D01*
X239071569Y-90089418D01*
X239021120Y-90114082D01*
X238983096Y-90155386D01*
X238979549Y-90159082D01*
X238136955Y-91001675D01*
X238117104Y-91017797D01*
X238109332Y-91022875D01*
X238091500Y-91045785D01*
X238081765Y-91056810D01*
X238070441Y-91072671D01*
X238067392Y-91076759D01*
X238050954Y-91097880D01*
X238032891Y-91121087D01*
X238016871Y-91174896D01*
X238015309Y-91179772D01*
X237997073Y-91232892D01*
X237999393Y-91288983D01*
X237999499Y-91294105D01*
X237999500Y-94526319D01*
X237979815Y-94593358D01*
X237927011Y-94639113D01*
X237875500Y-94650319D01*
X236086411Y-94650319D01*
X236019372Y-94630634D01*
X236005262Y-94617653D01*
X235903719Y-94539736D01*
X235877944Y-94519958D01*
X235877943Y-94519957D01*
X235877941Y-94519956D01*
X235744028Y-94464489D01*
X235600319Y-94445568D01*
X235456609Y-94464489D01*
X235322696Y-94519956D01*
X235207698Y-94608198D01*
X235119456Y-94723196D01*
X235063989Y-94857109D01*
X235045068Y-95000819D01*
X235063989Y-95144528D01*
X235119456Y-95278441D01*
X235119457Y-95278443D01*
X235119458Y-95278444D01*
X235207698Y-95393440D01*
X235322694Y-95481680D01*
X235456610Y-95537149D01*
X235600319Y-95556069D01*
X235744028Y-95537149D01*
X235877944Y-95481680D01*
X235992940Y-95393440D01*
X235992940Y-95393439D01*
X236005891Y-95383502D01*
X236007510Y-95385612D01*
X236044464Y-95358629D01*
X236086411Y-95351319D01*
X238099969Y-95351319D01*
X238125415Y-95353958D01*
X238126737Y-95354235D01*
X238134496Y-95355862D01*
X238160545Y-95352614D01*
X238163304Y-95352271D01*
X238177976Y-95351360D01*
X238197194Y-95348153D01*
X238202250Y-95347415D01*
X238234662Y-95343375D01*
X238260163Y-95340197D01*
X238329122Y-95351439D01*
X238381057Y-95398178D01*
X238399500Y-95463245D01*
X238399500Y-98303455D01*
X238379815Y-98370494D01*
X238363181Y-98391136D01*
X237595876Y-99158440D01*
X237534553Y-99191925D01*
X237515392Y-99192723D01*
X237356290Y-99213670D01*
X237222377Y-99269137D01*
X237107379Y-99357379D01*
X237019137Y-99472377D01*
X236963670Y-99606290D01*
X236944749Y-99750000D01*
X236963670Y-99893709D01*
X237019137Y-100027622D01*
X237019138Y-100027624D01*
X237019139Y-100027625D01*
X237107379Y-100142621D01*
X237222375Y-100230861D01*
X237356291Y-100286330D01*
X237470797Y-100301405D01*
X237534693Y-100329672D01*
X237573164Y-100387996D01*
X237573995Y-100457861D01*
X237542292Y-100512025D01*
X237341137Y-100713181D01*
X237279814Y-100746666D01*
X237253456Y-100749500D01*
X236199212Y-100749500D01*
X236173766Y-100746861D01*
X236164685Y-100744957D01*
X236135877Y-100748548D01*
X236121201Y-100749458D01*
X236101961Y-100752668D01*
X236096903Y-100753405D01*
X236041189Y-100760351D01*
X235991813Y-100787072D01*
X235987261Y-100789415D01*
X235936804Y-100814082D01*
X235898780Y-100855387D01*
X235895233Y-100859083D01*
X234836955Y-101917361D01*
X234817104Y-101933483D01*
X234809332Y-101938561D01*
X234791500Y-101961471D01*
X234781765Y-101972496D01*
X234770441Y-101988357D01*
X234767392Y-101992445D01*
X234756470Y-102006479D01*
X234732891Y-102036773D01*
X234716871Y-102090582D01*
X234715309Y-102095458D01*
X234697074Y-102148577D01*
X234699394Y-102204668D01*
X234699500Y-102209792D01*
X234699500Y-103275183D01*
X234692773Y-103315470D01*
X234690932Y-103320829D01*
X234683121Y-103336002D01*
X234666871Y-103390582D01*
X234665309Y-103395458D01*
X234647074Y-103448577D01*
X234649394Y-103504668D01*
X234649500Y-103509792D01*
X234649500Y-104850788D01*
X234646861Y-104876234D01*
X234644957Y-104885315D01*
X234647120Y-104902665D01*
X234648548Y-104914121D01*
X234649458Y-104928795D01*
X234652665Y-104948013D01*
X234653403Y-104953078D01*
X234660351Y-105008809D01*
X234687081Y-105058202D01*
X234689421Y-105062747D01*
X234710802Y-105106484D01*
X234710803Y-105106485D01*
X234714084Y-105113196D01*
X234719581Y-105118256D01*
X234719582Y-105118258D01*
X234755399Y-105151230D01*
X234759097Y-105154779D01*
X235417137Y-105812819D01*
X235450622Y-105874142D01*
X235445638Y-105943834D01*
X235403766Y-105999767D01*
X235338302Y-106024184D01*
X235329456Y-106024500D01*
X233655602Y-106024500D01*
X233588563Y-106004815D01*
X233542808Y-105952011D01*
X233532864Y-105882853D01*
X233541041Y-105853048D01*
X233546834Y-105839061D01*
X233586330Y-105743709D01*
X233605250Y-105600000D01*
X233586330Y-105456291D01*
X233530861Y-105322375D01*
X233442621Y-105207379D01*
X233327625Y-105119139D01*
X233327624Y-105119138D01*
X233327622Y-105119137D01*
X233193709Y-105063670D01*
X233050000Y-105044749D01*
X232906290Y-105063670D01*
X232772377Y-105119137D01*
X232657379Y-105207379D01*
X232569137Y-105322377D01*
X232513670Y-105456290D01*
X232494749Y-105600000D01*
X232508744Y-105706291D01*
X232513670Y-105743709D01*
X232515981Y-105749288D01*
X232517539Y-105753049D01*
X232525006Y-105822519D01*
X232493730Y-105884997D01*
X232433641Y-105920649D01*
X232402977Y-105924500D01*
X230356017Y-105924500D01*
X230288978Y-105904815D01*
X230243223Y-105852011D01*
X230241456Y-105847953D01*
X230235332Y-105833170D01*
X230230861Y-105822375D01*
X230142621Y-105707379D01*
X230027625Y-105619139D01*
X230027624Y-105619138D01*
X230027622Y-105619137D01*
X229893709Y-105563670D01*
X229750000Y-105544749D01*
X229606290Y-105563670D01*
X229472377Y-105619137D01*
X229357379Y-105707379D01*
X229269137Y-105822377D01*
X229213670Y-105956290D01*
X229194749Y-106099999D01*
X229213670Y-106243709D01*
X229269137Y-106377622D01*
X229269138Y-106377624D01*
X229269139Y-106377625D01*
X229346771Y-106478797D01*
X229357381Y-106492623D01*
X229402344Y-106527125D01*
X229443546Y-106583553D01*
X229447701Y-106653299D01*
X229413488Y-106714219D01*
X229351771Y-106746971D01*
X229326857Y-106749500D01*
X226253481Y-106749500D01*
X226246528Y-106749305D01*
X225954703Y-106732916D01*
X225940885Y-106731359D01*
X225656172Y-106682984D01*
X225642615Y-106679890D01*
X225365100Y-106599939D01*
X225351975Y-106595346D01*
X225085165Y-106484830D01*
X225072637Y-106478797D01*
X224819874Y-106339100D01*
X224808100Y-106331702D01*
X224572569Y-106164584D01*
X224561697Y-106155914D01*
X224412106Y-106022232D01*
X224346355Y-105963473D01*
X224336524Y-105953642D01*
X224335066Y-105952011D01*
X224144085Y-105738302D01*
X224135415Y-105727430D01*
X223968297Y-105491899D01*
X223960899Y-105480125D01*
X223873714Y-105322375D01*
X223821198Y-105227355D01*
X223815172Y-105214841D01*
X223704653Y-104948024D01*
X223700060Y-104934899D01*
X223620109Y-104657384D01*
X223617015Y-104643827D01*
X223568638Y-104359103D01*
X223567084Y-104345306D01*
X223550695Y-104053472D01*
X223550500Y-104046519D01*
X223550500Y-103940000D01*
X224694396Y-103940000D01*
X224714779Y-104198995D01*
X224775426Y-104451610D01*
X224829719Y-104582683D01*
X224874846Y-104691628D01*
X225003591Y-104901722D01*
X225010590Y-104913143D01*
X225058794Y-104969582D01*
X225179311Y-105110689D01*
X225307589Y-105220249D01*
X225358428Y-105263670D01*
X225376860Y-105279412D01*
X225598372Y-105415154D01*
X225778385Y-105489718D01*
X225838389Y-105514573D01*
X225904389Y-105530418D01*
X226091006Y-105575221D01*
X226285147Y-105590500D01*
X226287592Y-105590500D01*
X226412408Y-105590500D01*
X226414853Y-105590500D01*
X226608994Y-105575221D01*
X226861610Y-105514573D01*
X227101628Y-105415154D01*
X227323140Y-105279412D01*
X227520689Y-105110689D01*
X227689412Y-104913140D01*
X227825154Y-104691628D01*
X227924573Y-104451610D01*
X227985221Y-104198994D01*
X228005604Y-103940000D01*
X227985221Y-103681006D01*
X227933368Y-103465023D01*
X227924573Y-103428389D01*
X227887087Y-103337892D01*
X227825154Y-103188372D01*
X227777128Y-103110000D01*
X232394749Y-103110000D01*
X232413670Y-103253709D01*
X232469137Y-103387622D01*
X232469138Y-103387624D01*
X232469139Y-103387625D01*
X232557379Y-103502621D01*
X232672375Y-103590861D01*
X232806291Y-103646330D01*
X232931078Y-103662758D01*
X232949999Y-103665250D01*
X232949999Y-103665249D01*
X232950000Y-103665250D01*
X233093709Y-103646330D01*
X233227625Y-103590861D01*
X233342621Y-103502621D01*
X233430861Y-103387625D01*
X233486330Y-103253709D01*
X233505250Y-103110000D01*
X233486330Y-102966291D01*
X233430861Y-102832375D01*
X233342621Y-102717379D01*
X233227625Y-102629139D01*
X233227624Y-102629138D01*
X233227622Y-102629137D01*
X233093709Y-102573670D01*
X232950000Y-102554749D01*
X232806290Y-102573670D01*
X232672377Y-102629137D01*
X232557379Y-102717379D01*
X232469137Y-102832377D01*
X232413670Y-102966290D01*
X232394749Y-103110000D01*
X227777128Y-103110000D01*
X227689412Y-102966860D01*
X227688925Y-102966290D01*
X227611307Y-102875411D01*
X227520689Y-102769311D01*
X227348298Y-102622075D01*
X227323143Y-102600590D01*
X227323140Y-102600588D01*
X227101628Y-102464846D01*
X226971983Y-102411145D01*
X226861610Y-102365426D01*
X226608995Y-102304779D01*
X226417287Y-102289691D01*
X226417272Y-102289690D01*
X226414853Y-102289500D01*
X226285147Y-102289500D01*
X226282728Y-102289690D01*
X226282712Y-102289691D01*
X226091004Y-102304779D01*
X225838389Y-102365426D01*
X225644044Y-102445928D01*
X225598372Y-102464846D01*
X225454359Y-102553096D01*
X225376856Y-102600590D01*
X225179311Y-102769311D01*
X225010590Y-102966856D01*
X224974348Y-103025999D01*
X224874846Y-103188372D01*
X224860285Y-103223524D01*
X224775426Y-103428389D01*
X224714779Y-103681004D01*
X224694396Y-103940000D01*
X223550500Y-103940000D01*
X223550500Y-100750000D01*
X231694749Y-100750000D01*
X231713670Y-100893709D01*
X231769137Y-101027622D01*
X231769138Y-101027624D01*
X231769139Y-101027625D01*
X231857379Y-101142621D01*
X231972375Y-101230861D01*
X232106291Y-101286330D01*
X232250000Y-101305250D01*
X232393709Y-101286330D01*
X232527625Y-101230861D01*
X232642621Y-101142621D01*
X232730861Y-101027625D01*
X232786330Y-100893709D01*
X232805250Y-100750000D01*
X232786330Y-100606291D01*
X232730861Y-100472375D01*
X232642621Y-100357379D01*
X232527625Y-100269139D01*
X232527624Y-100269138D01*
X232527622Y-100269137D01*
X232393709Y-100213670D01*
X232250000Y-100194749D01*
X232106290Y-100213670D01*
X231972377Y-100269137D01*
X231857379Y-100357379D01*
X231769137Y-100472377D01*
X231713670Y-100606290D01*
X231694749Y-100750000D01*
X223550500Y-100750000D01*
X223550500Y-95200000D01*
X229444749Y-95200000D01*
X229463670Y-95343709D01*
X229519137Y-95477622D01*
X229519138Y-95477624D01*
X229519139Y-95477625D01*
X229607379Y-95592621D01*
X229722375Y-95680861D01*
X229856291Y-95736330D01*
X229981079Y-95752758D01*
X229999999Y-95755250D01*
X229999999Y-95755249D01*
X230000000Y-95755250D01*
X230143709Y-95736330D01*
X230277625Y-95680861D01*
X230392621Y-95592621D01*
X230480861Y-95477625D01*
X230536330Y-95343709D01*
X230555250Y-95200000D01*
X230536330Y-95056291D01*
X230491368Y-94947741D01*
X230480862Y-94922377D01*
X230480861Y-94922376D01*
X230480861Y-94922375D01*
X230392621Y-94807379D01*
X230277625Y-94719139D01*
X230277624Y-94719138D01*
X230277622Y-94719137D01*
X230143709Y-94663670D01*
X230000000Y-94644749D01*
X229856290Y-94663670D01*
X229722377Y-94719137D01*
X229607379Y-94807379D01*
X229519137Y-94922377D01*
X229463670Y-95056290D01*
X229444749Y-95200000D01*
X223550500Y-95200000D01*
X223550500Y-92550000D01*
X236565247Y-92550000D01*
X236584168Y-92693709D01*
X236639635Y-92827622D01*
X236639636Y-92827624D01*
X236639637Y-92827625D01*
X236727877Y-92942621D01*
X236842873Y-93030861D01*
X236976789Y-93086330D01*
X237120498Y-93105250D01*
X237264207Y-93086330D01*
X237398123Y-93030861D01*
X237513119Y-92942621D01*
X237601359Y-92827625D01*
X237656828Y-92693709D01*
X237675748Y-92550000D01*
X237656828Y-92406291D01*
X237612815Y-92300033D01*
X237601360Y-92272377D01*
X237601359Y-92272376D01*
X237601359Y-92272375D01*
X237513119Y-92157379D01*
X237398123Y-92069139D01*
X237398122Y-92069138D01*
X237392820Y-92065070D01*
X237351618Y-92008642D01*
X237347463Y-91938896D01*
X237381676Y-91877975D01*
X237392821Y-91868318D01*
X237398120Y-91864251D01*
X237398124Y-91864250D01*
X237513120Y-91776010D01*
X237601360Y-91661014D01*
X237656829Y-91527098D01*
X237675749Y-91383389D01*
X237656829Y-91239680D01*
X237606899Y-91119137D01*
X237601361Y-91105766D01*
X237601360Y-91105765D01*
X237601360Y-91105764D01*
X237513120Y-90990768D01*
X237398124Y-90902528D01*
X237398123Y-90902527D01*
X237398121Y-90902526D01*
X237264208Y-90847059D01*
X237120499Y-90828138D01*
X236976789Y-90847059D01*
X236842876Y-90902526D01*
X236727878Y-90990768D01*
X236639636Y-91105766D01*
X236584169Y-91239679D01*
X236565248Y-91383388D01*
X236584169Y-91527098D01*
X236639636Y-91661011D01*
X236639637Y-91661013D01*
X236639638Y-91661014D01*
X236727878Y-91776010D01*
X236842874Y-91864250D01*
X236842875Y-91864250D01*
X236848176Y-91868318D01*
X236889378Y-91924746D01*
X236893533Y-91994492D01*
X236859320Y-92055413D01*
X236848176Y-92065070D01*
X236842873Y-92069138D01*
X236842873Y-92069139D01*
X236798517Y-92103175D01*
X236727877Y-92157379D01*
X236639635Y-92272377D01*
X236584168Y-92406290D01*
X236565247Y-92550000D01*
X223550500Y-92550000D01*
X223550500Y-92123691D01*
X223570185Y-92056652D01*
X223622989Y-92010897D01*
X223692147Y-92000953D01*
X223749985Y-92025314D01*
X223822375Y-92080861D01*
X223956291Y-92136330D01*
X224081079Y-92152758D01*
X224099999Y-92155250D01*
X224099999Y-92155249D01*
X224100000Y-92155250D01*
X224243709Y-92136330D01*
X224377625Y-92080861D01*
X224492621Y-91992621D01*
X224580861Y-91877625D01*
X224636330Y-91743709D01*
X224655250Y-91600000D01*
X224636330Y-91456291D01*
X224580861Y-91322375D01*
X224492621Y-91207379D01*
X224377625Y-91119139D01*
X224377624Y-91119138D01*
X224377622Y-91119137D01*
X224243709Y-91063670D01*
X224100000Y-91044749D01*
X223956290Y-91063670D01*
X223822374Y-91119138D01*
X223749986Y-91174684D01*
X223684817Y-91199878D01*
X223616372Y-91185839D01*
X223566382Y-91137025D01*
X223550500Y-91076308D01*
X223550500Y-88550000D01*
X229694749Y-88550000D01*
X229713670Y-88693709D01*
X229769137Y-88827622D01*
X229769138Y-88827624D01*
X229769139Y-88827625D01*
X229857379Y-88942621D01*
X229972375Y-89030861D01*
X230106291Y-89086330D01*
X230250000Y-89105250D01*
X230393709Y-89086330D01*
X230527625Y-89030861D01*
X230642621Y-88942621D01*
X230730861Y-88827625D01*
X230786330Y-88693709D01*
X230805250Y-88550000D01*
X230786330Y-88406291D01*
X230730861Y-88272375D01*
X230642621Y-88157379D01*
X230527625Y-88069139D01*
X230527624Y-88069138D01*
X230527622Y-88069137D01*
X230393709Y-88013670D01*
X230249999Y-87994749D01*
X230106290Y-88013670D01*
X229972377Y-88069137D01*
X229857379Y-88157379D01*
X229769137Y-88272377D01*
X229713670Y-88406290D01*
X229694749Y-88550000D01*
X223550500Y-88550000D01*
X223550500Y-85950000D01*
X224164249Y-85950000D01*
X224183170Y-86093709D01*
X224238637Y-86227622D01*
X224238638Y-86227624D01*
X224238639Y-86227625D01*
X224326879Y-86342621D01*
X224441875Y-86430861D01*
X224441876Y-86430861D01*
X224441877Y-86430862D01*
X224461141Y-86438841D01*
X224575791Y-86486330D01*
X224719500Y-86505250D01*
X224863209Y-86486330D01*
X224997125Y-86430861D01*
X225112121Y-86342621D01*
X225200361Y-86227625D01*
X225255830Y-86093709D01*
X225274750Y-85950000D01*
X225255830Y-85806291D01*
X225203122Y-85679040D01*
X225200362Y-85672377D01*
X225200361Y-85672376D01*
X225200361Y-85672375D01*
X225112121Y-85557379D01*
X224997125Y-85469139D01*
X224997124Y-85469138D01*
X224997122Y-85469137D01*
X224863209Y-85413670D01*
X224719499Y-85394749D01*
X224575790Y-85413670D01*
X224441877Y-85469137D01*
X224326879Y-85557379D01*
X224238637Y-85672377D01*
X224183170Y-85806290D01*
X224164249Y-85950000D01*
X223550500Y-85950000D01*
X223550500Y-80724499D01*
X230094749Y-80724499D01*
X230113670Y-80868209D01*
X230169137Y-81002122D01*
X230169138Y-81002124D01*
X230169139Y-81002125D01*
X230257379Y-81117121D01*
X230372375Y-81205361D01*
X230506291Y-81260830D01*
X230650000Y-81279750D01*
X230793709Y-81260830D01*
X230927625Y-81205361D01*
X231042621Y-81117121D01*
X231130861Y-81002125D01*
X231173162Y-80899999D01*
X240444749Y-80899999D01*
X240463670Y-81043709D01*
X240519137Y-81177622D01*
X240519138Y-81177624D01*
X240519139Y-81177625D01*
X240607379Y-81292621D01*
X240722375Y-81380861D01*
X240722376Y-81380861D01*
X240722377Y-81380862D01*
X240736759Y-81386819D01*
X240856291Y-81436330D01*
X240981078Y-81452758D01*
X240999999Y-81455250D01*
X240999999Y-81455249D01*
X241000000Y-81455250D01*
X241143709Y-81436330D01*
X241277625Y-81380861D01*
X241392621Y-81292621D01*
X241480861Y-81177625D01*
X241536330Y-81043709D01*
X241555250Y-80900000D01*
X241536330Y-80756291D01*
X241494478Y-80655250D01*
X241480861Y-80622374D01*
X241406516Y-80525487D01*
X241381321Y-80460318D01*
X241395359Y-80391873D01*
X241406516Y-80374513D01*
X241480861Y-80277625D01*
X241483778Y-80270582D01*
X241536330Y-80143709D01*
X241555250Y-80000000D01*
X241536330Y-79856291D01*
X241480861Y-79722375D01*
X241444880Y-79675484D01*
X241419687Y-79610319D01*
X241433725Y-79541874D01*
X241444876Y-79524521D01*
X241463692Y-79500000D01*
X244444749Y-79500000D01*
X244463670Y-79643709D01*
X244519137Y-79777622D01*
X244519138Y-79777624D01*
X244519139Y-79777625D01*
X244607379Y-79892621D01*
X244722375Y-79980861D01*
X244856291Y-80036330D01*
X245000000Y-80055250D01*
X245143709Y-80036330D01*
X245277625Y-79980861D01*
X245392621Y-79892621D01*
X245480861Y-79777625D01*
X245536330Y-79643709D01*
X245555250Y-79500000D01*
X245536330Y-79356291D01*
X245480861Y-79222375D01*
X245392621Y-79107379D01*
X245277625Y-79019139D01*
X245277624Y-79019138D01*
X245277622Y-79019137D01*
X245143709Y-78963670D01*
X244999999Y-78944749D01*
X244856290Y-78963670D01*
X244722377Y-79019137D01*
X244607379Y-79107379D01*
X244519137Y-79222377D01*
X244463670Y-79356290D01*
X244444749Y-79500000D01*
X241463692Y-79500000D01*
X241480861Y-79477625D01*
X241536330Y-79343709D01*
X241555250Y-79200000D01*
X241536330Y-79056291D01*
X241492052Y-78949394D01*
X241480862Y-78922377D01*
X241480861Y-78922376D01*
X241480861Y-78922375D01*
X241444880Y-78875484D01*
X241419687Y-78810319D01*
X241433725Y-78741874D01*
X241444876Y-78724521D01*
X241480861Y-78677625D01*
X241536330Y-78543709D01*
X241555250Y-78400000D01*
X241536330Y-78256291D01*
X241480861Y-78122375D01*
X241392621Y-78007379D01*
X241277625Y-77919139D01*
X241277624Y-77919138D01*
X241277622Y-77919137D01*
X241143709Y-77863670D01*
X241000000Y-77844749D01*
X240856290Y-77863670D01*
X240722377Y-77919137D01*
X240607379Y-78007379D01*
X240519137Y-78122377D01*
X240463670Y-78256290D01*
X240444749Y-78400000D01*
X240463670Y-78543709D01*
X240519138Y-78677625D01*
X240555117Y-78724514D01*
X240580311Y-78789684D01*
X240566272Y-78858129D01*
X240555117Y-78875486D01*
X240519138Y-78922374D01*
X240463670Y-79056290D01*
X240444749Y-79200000D01*
X240463670Y-79343709D01*
X240519138Y-79477625D01*
X240555117Y-79524514D01*
X240580311Y-79589684D01*
X240566272Y-79658129D01*
X240555117Y-79675486D01*
X240519138Y-79722374D01*
X240463670Y-79856290D01*
X240444749Y-80000000D01*
X240463670Y-80143709D01*
X240519138Y-80277624D01*
X240593484Y-80374514D01*
X240618678Y-80439683D01*
X240604640Y-80508128D01*
X240593484Y-80525486D01*
X240519138Y-80622375D01*
X240463670Y-80756290D01*
X240444749Y-80899999D01*
X231173162Y-80899999D01*
X231186330Y-80868209D01*
X231205250Y-80724500D01*
X231186330Y-80580791D01*
X231134135Y-80454779D01*
X231130862Y-80446877D01*
X231130861Y-80446876D01*
X231130861Y-80446875D01*
X231042621Y-80331879D01*
X230927625Y-80243639D01*
X230927624Y-80243638D01*
X230927622Y-80243637D01*
X230793709Y-80188170D01*
X230650000Y-80169249D01*
X230506290Y-80188170D01*
X230372377Y-80243637D01*
X230257379Y-80331879D01*
X230169137Y-80446877D01*
X230113670Y-80580790D01*
X230094749Y-80724499D01*
X223550500Y-80724499D01*
X223550500Y-80099999D01*
X231544749Y-80099999D01*
X231563670Y-80243709D01*
X231619137Y-80377622D01*
X231619138Y-80377624D01*
X231619139Y-80377625D01*
X231707379Y-80492621D01*
X231822375Y-80580861D01*
X231822376Y-80580861D01*
X231822377Y-80580862D01*
X231852715Y-80593428D01*
X231956291Y-80636330D01*
X232081079Y-80652758D01*
X232099999Y-80655250D01*
X232099999Y-80655249D01*
X232100000Y-80655250D01*
X232243709Y-80636330D01*
X232377625Y-80580861D01*
X232492621Y-80492621D01*
X232580861Y-80377625D01*
X232636330Y-80243709D01*
X232655250Y-80100000D01*
X232636330Y-79956291D01*
X232580861Y-79822375D01*
X232492621Y-79707379D01*
X232377625Y-79619139D01*
X232377624Y-79619138D01*
X232377622Y-79619137D01*
X232243709Y-79563670D01*
X232100000Y-79544749D01*
X231956290Y-79563670D01*
X231822377Y-79619137D01*
X231707379Y-79707379D01*
X231619137Y-79822377D01*
X231563670Y-79956290D01*
X231544749Y-80099999D01*
X223550500Y-80099999D01*
X223550500Y-76116588D01*
X260711338Y-76116588D01*
X260730259Y-76260298D01*
X260785726Y-76394211D01*
X260785727Y-76394213D01*
X260785728Y-76394214D01*
X260873968Y-76509210D01*
X260988964Y-76597450D01*
X261122880Y-76652919D01*
X261266589Y-76671839D01*
X261410298Y-76652919D01*
X261544214Y-76597450D01*
X261659210Y-76509210D01*
X261747450Y-76394214D01*
X261802919Y-76260298D01*
X261821839Y-76116589D01*
X261802919Y-75972880D01*
X261747450Y-75838964D01*
X261659210Y-75723968D01*
X261544214Y-75635728D01*
X261544213Y-75635727D01*
X261544211Y-75635726D01*
X261410298Y-75580259D01*
X261266588Y-75561338D01*
X261122879Y-75580259D01*
X260988966Y-75635726D01*
X260873968Y-75723968D01*
X260785726Y-75838966D01*
X260730259Y-75972879D01*
X260711338Y-76116588D01*
X223550500Y-76116588D01*
X223550500Y-75524674D01*
X227499500Y-75524674D01*
X227514033Y-75597738D01*
X227514033Y-75597739D01*
X227514034Y-75597740D01*
X227569399Y-75680601D01*
X227652260Y-75735966D01*
X227688792Y-75743233D01*
X227725325Y-75750500D01*
X227725326Y-75750500D01*
X230174675Y-75750500D01*
X230199029Y-75745655D01*
X230247740Y-75735966D01*
X230330601Y-75680601D01*
X230385966Y-75597740D01*
X230400500Y-75524674D01*
X230400500Y-75399999D01*
X240644749Y-75399999D01*
X240663670Y-75543709D01*
X240719137Y-75677622D01*
X240719138Y-75677624D01*
X240719139Y-75677625D01*
X240807379Y-75792621D01*
X240922375Y-75880861D01*
X241056291Y-75936330D01*
X241181079Y-75952758D01*
X241199999Y-75955250D01*
X241199999Y-75955249D01*
X241200000Y-75955250D01*
X241343709Y-75936330D01*
X241477625Y-75880861D01*
X241574512Y-75806516D01*
X241639682Y-75781321D01*
X241708127Y-75795359D01*
X241725487Y-75806516D01*
X241822374Y-75880861D01*
X241877843Y-75903836D01*
X241956291Y-75936330D01*
X242081079Y-75952758D01*
X242099999Y-75955250D01*
X242099999Y-75955249D01*
X242100000Y-75955250D01*
X242243709Y-75936330D01*
X242377625Y-75880861D01*
X242474512Y-75806516D01*
X242539682Y-75781321D01*
X242608127Y-75795359D01*
X242625487Y-75806516D01*
X242722374Y-75880861D01*
X242777843Y-75903836D01*
X242856291Y-75936330D01*
X243000000Y-75955250D01*
X243143709Y-75936330D01*
X243277625Y-75880861D01*
X243374512Y-75806516D01*
X243439682Y-75781321D01*
X243508127Y-75795359D01*
X243525487Y-75806516D01*
X243622374Y-75880861D01*
X243677843Y-75903836D01*
X243756291Y-75936330D01*
X243881079Y-75952758D01*
X243899999Y-75955250D01*
X243899999Y-75955249D01*
X243900000Y-75955250D01*
X244043709Y-75936330D01*
X244177625Y-75880861D01*
X244292621Y-75792621D01*
X244380861Y-75677625D01*
X244436330Y-75543709D01*
X244455250Y-75400000D01*
X244436330Y-75256291D01*
X244423162Y-75224500D01*
X263744749Y-75224500D01*
X263763670Y-75368209D01*
X263819137Y-75502122D01*
X263819138Y-75502124D01*
X263819139Y-75502125D01*
X263907379Y-75617121D01*
X264022375Y-75705361D01*
X264156291Y-75760830D01*
X264300000Y-75779750D01*
X264443709Y-75760830D01*
X264577625Y-75705361D01*
X264692621Y-75617121D01*
X264780861Y-75502125D01*
X264836330Y-75368209D01*
X264855250Y-75224500D01*
X264836330Y-75080791D01*
X264780861Y-74946875D01*
X264692621Y-74831879D01*
X264577625Y-74743639D01*
X264577624Y-74743638D01*
X264577622Y-74743637D01*
X264443709Y-74688170D01*
X264299999Y-74669249D01*
X264156290Y-74688170D01*
X264022377Y-74743637D01*
X263907379Y-74831879D01*
X263819137Y-74946877D01*
X263763670Y-75080790D01*
X263744749Y-75224500D01*
X244423162Y-75224500D01*
X244380861Y-75122375D01*
X244292621Y-75007379D01*
X244177625Y-74919139D01*
X244177624Y-74919138D01*
X244177622Y-74919137D01*
X244043709Y-74863670D01*
X243900000Y-74844749D01*
X243756290Y-74863670D01*
X243622374Y-74919138D01*
X243525485Y-74993484D01*
X243460316Y-75018678D01*
X243391871Y-75004639D01*
X243374516Y-74993487D01*
X243277625Y-74919139D01*
X243277624Y-74919138D01*
X243277622Y-74919137D01*
X243143709Y-74863670D01*
X243000000Y-74844749D01*
X242856290Y-74863670D01*
X242722375Y-74919138D01*
X242625486Y-74993484D01*
X242560317Y-75018678D01*
X242491872Y-75004640D01*
X242474514Y-74993484D01*
X242377624Y-74919138D01*
X242243709Y-74863670D01*
X242099999Y-74844749D01*
X241956290Y-74863670D01*
X241822375Y-74919138D01*
X241725486Y-74993484D01*
X241660317Y-75018678D01*
X241591872Y-75004640D01*
X241574514Y-74993484D01*
X241477624Y-74919138D01*
X241343709Y-74863670D01*
X241200000Y-74844749D01*
X241056290Y-74863670D01*
X240922377Y-74919137D01*
X240807379Y-75007379D01*
X240719137Y-75122377D01*
X240663670Y-75256290D01*
X240644749Y-75399999D01*
X230400500Y-75399999D01*
X230400500Y-73500000D01*
X269044749Y-73500000D01*
X269063670Y-73643709D01*
X269119137Y-73777622D01*
X269119138Y-73777624D01*
X269119139Y-73777625D01*
X269207379Y-73892621D01*
X269322375Y-73980861D01*
X269456291Y-74036330D01*
X269600000Y-74055250D01*
X269743709Y-74036330D01*
X269877625Y-73980861D01*
X269992621Y-73892621D01*
X270080861Y-73777625D01*
X270136330Y-73643709D01*
X270155250Y-73500000D01*
X270136330Y-73356291D01*
X270080861Y-73222375D01*
X269992621Y-73107379D01*
X269877625Y-73019139D01*
X269877624Y-73019138D01*
X269877622Y-73019137D01*
X269743709Y-72963670D01*
X269599999Y-72944749D01*
X269456290Y-72963670D01*
X269322377Y-73019137D01*
X269207379Y-73107379D01*
X269119137Y-73222377D01*
X269063670Y-73356290D01*
X269044749Y-73500000D01*
X230400500Y-73500000D01*
X230400500Y-73075326D01*
X230385966Y-73002260D01*
X230330601Y-72919399D01*
X230247740Y-72864034D01*
X230247739Y-72864033D01*
X230247738Y-72864033D01*
X230174675Y-72849500D01*
X230174674Y-72849500D01*
X227725326Y-72849500D01*
X227725325Y-72849500D01*
X227652261Y-72864033D01*
X227569399Y-72919399D01*
X227514033Y-73002261D01*
X227499500Y-73075325D01*
X227499500Y-75524674D01*
X223550500Y-75524674D01*
X223550500Y-68960000D01*
X224694396Y-68960000D01*
X224714779Y-69218995D01*
X224775426Y-69471610D01*
X224835430Y-69616470D01*
X224874846Y-69711628D01*
X225010588Y-69933140D01*
X225010590Y-69933143D01*
X225077567Y-70011563D01*
X225179311Y-70130689D01*
X225376860Y-70299412D01*
X225598372Y-70435154D01*
X225778385Y-70509718D01*
X225838389Y-70534573D01*
X225918197Y-70553733D01*
X226091006Y-70595221D01*
X226285147Y-70610500D01*
X226287592Y-70610500D01*
X226412408Y-70610500D01*
X226414853Y-70610500D01*
X226608994Y-70595221D01*
X226861610Y-70534573D01*
X227101628Y-70435154D01*
X227323140Y-70299412D01*
X227520689Y-70130689D01*
X227689412Y-69933140D01*
X227825154Y-69711628D01*
X227924573Y-69471610D01*
X227985221Y-69218994D01*
X228005604Y-68960000D01*
X268774396Y-68960000D01*
X268794779Y-69218995D01*
X268855426Y-69471610D01*
X268915430Y-69616470D01*
X268954846Y-69711628D01*
X269090588Y-69933140D01*
X269090590Y-69933143D01*
X269157567Y-70011563D01*
X269259311Y-70130689D01*
X269456860Y-70299412D01*
X269678372Y-70435154D01*
X269858385Y-70509718D01*
X269918389Y-70534573D01*
X269998197Y-70553733D01*
X270171006Y-70595221D01*
X270365147Y-70610500D01*
X270367592Y-70610500D01*
X270492408Y-70610500D01*
X270494853Y-70610500D01*
X270688994Y-70595221D01*
X270941610Y-70534573D01*
X271181628Y-70435154D01*
X271403140Y-70299412D01*
X271600689Y-70130689D01*
X271769412Y-69933140D01*
X271905154Y-69711628D01*
X272004573Y-69471610D01*
X272065221Y-69218994D01*
X272085604Y-68960000D01*
X272065221Y-68701006D01*
X272004573Y-68448390D01*
X271905154Y-68208372D01*
X271769412Y-67986860D01*
X271600689Y-67789311D01*
X271481563Y-67687567D01*
X271403143Y-67620590D01*
X271403140Y-67620588D01*
X271181628Y-67484846D01*
X271086470Y-67445430D01*
X270941610Y-67385426D01*
X270688995Y-67324779D01*
X270497287Y-67309691D01*
X270497272Y-67309690D01*
X270494853Y-67309500D01*
X270365147Y-67309500D01*
X270362728Y-67309690D01*
X270362712Y-67309691D01*
X270171004Y-67324779D01*
X269918389Y-67385426D01*
X269713524Y-67470285D01*
X269678372Y-67484846D01*
X269534359Y-67573096D01*
X269456856Y-67620590D01*
X269259311Y-67789311D01*
X269090590Y-67986856D01*
X269043096Y-68064359D01*
X268954846Y-68208372D01*
X268954845Y-68208375D01*
X268855426Y-68448389D01*
X268794779Y-68701004D01*
X268774396Y-68960000D01*
X228005604Y-68960000D01*
X227985221Y-68701006D01*
X227924573Y-68448390D01*
X227825154Y-68208372D01*
X227689412Y-67986860D01*
X227520689Y-67789311D01*
X227401563Y-67687567D01*
X227323143Y-67620590D01*
X227323140Y-67620588D01*
X227101628Y-67484846D01*
X227006470Y-67445430D01*
X226861610Y-67385426D01*
X226608995Y-67324779D01*
X226417287Y-67309691D01*
X226417272Y-67309690D01*
X226414853Y-67309500D01*
X226285147Y-67309500D01*
X226282728Y-67309690D01*
X226282712Y-67309691D01*
X226091004Y-67324779D01*
X225838389Y-67385426D01*
X225633524Y-67470285D01*
X225598372Y-67484846D01*
X225454359Y-67573096D01*
X225376856Y-67620590D01*
X225179311Y-67789311D01*
X225010590Y-67986856D01*
X224963096Y-68064359D01*
X224874846Y-68208372D01*
X224874845Y-68208375D01*
X224775426Y-68448389D01*
X224714779Y-68701004D01*
X224694396Y-68960000D01*
X223550500Y-68960000D01*
X223550500Y-68903479D01*
X223550695Y-68896526D01*
X223561675Y-68701004D01*
X223567084Y-68604691D01*
X223568638Y-68590898D01*
X223617015Y-68306167D01*
X223620109Y-68292615D01*
X223644379Y-68208375D01*
X223700061Y-68015096D01*
X223704653Y-68001975D01*
X223710914Y-67986860D01*
X223815175Y-67735151D01*
X223821195Y-67722651D01*
X223960902Y-67469868D01*
X223968297Y-67458100D01*
X224135422Y-67222559D01*
X224144077Y-67211705D01*
X224336534Y-66996346D01*
X224346346Y-66986534D01*
X224561705Y-66794077D01*
X224572559Y-66785422D01*
X224808105Y-66618293D01*
X224819868Y-66610902D01*
X225072651Y-66471195D01*
X225085151Y-66465175D01*
X225351979Y-66354651D01*
X225365096Y-66350061D01*
X225642621Y-66270107D01*
X225656167Y-66267015D01*
X225940898Y-66218638D01*
X225954691Y-66217084D01*
X226246527Y-66200695D01*
X226253481Y-66200500D01*
X226289882Y-66200500D01*
X270510118Y-66200500D01*
X270546519Y-66200500D01*
X270553472Y-66200695D01*
G37*
G04 #@! TD.AperFunction*
G04 #@! TA.AperFunction,Conductor*
G36*
X247305703Y-87167516D02*
G01*
X247312181Y-87173548D01*
X248451676Y-88313043D01*
X248467804Y-88332903D01*
X248472878Y-88340670D01*
X248495784Y-88358498D01*
X248506803Y-88368228D01*
X248507005Y-88368372D01*
X248507008Y-88368375D01*
X248522647Y-88379540D01*
X248526761Y-88382607D01*
X248571085Y-88417106D01*
X248578248Y-88419238D01*
X248578249Y-88419239D01*
X248624927Y-88433135D01*
X248629753Y-88434681D01*
X248675827Y-88450500D01*
X248675829Y-88450500D01*
X248682892Y-88452925D01*
X248690358Y-88452616D01*
X248690361Y-88452617D01*
X248738983Y-88450605D01*
X248744107Y-88450500D01*
X250453456Y-88450500D01*
X250520495Y-88470185D01*
X250541137Y-88486819D01*
X251517361Y-89463043D01*
X251533489Y-89482903D01*
X251535727Y-89486329D01*
X251538563Y-89490669D01*
X251561473Y-89508500D01*
X251572496Y-89518235D01*
X251588355Y-89529558D01*
X251592464Y-89532622D01*
X251636771Y-89567107D01*
X251643932Y-89569239D01*
X251643934Y-89569240D01*
X251690614Y-89583137D01*
X251695455Y-89584688D01*
X251741512Y-89600500D01*
X251741514Y-89600500D01*
X251748578Y-89602925D01*
X251756044Y-89602616D01*
X251756047Y-89602617D01*
X251804678Y-89600606D01*
X251809802Y-89600500D01*
X254753456Y-89600500D01*
X254820495Y-89620185D01*
X254841137Y-89636819D01*
X254863181Y-89658863D01*
X254896666Y-89720186D01*
X254899500Y-89746544D01*
X254899500Y-91469081D01*
X254896861Y-91494527D01*
X254894957Y-91503606D01*
X254898548Y-91532414D01*
X254899458Y-91547088D01*
X254902665Y-91566306D01*
X254903403Y-91571371D01*
X254910351Y-91627102D01*
X254937081Y-91676495D01*
X254939421Y-91681040D01*
X254960802Y-91724777D01*
X254960803Y-91724778D01*
X254964084Y-91731489D01*
X254969581Y-91736549D01*
X254969582Y-91736551D01*
X254977358Y-91743709D01*
X255005399Y-91769523D01*
X255009097Y-91773072D01*
X255413681Y-92177656D01*
X255447166Y-92238979D01*
X255450000Y-92265337D01*
X255450000Y-93428463D01*
X255447361Y-93453909D01*
X255445457Y-93462988D01*
X255449048Y-93491796D01*
X255449958Y-93506470D01*
X255453165Y-93525688D01*
X255453903Y-93530753D01*
X255460851Y-93586484D01*
X255487581Y-93635877D01*
X255489921Y-93640422D01*
X255511302Y-93684159D01*
X255511303Y-93684160D01*
X255514584Y-93690871D01*
X255520081Y-93695931D01*
X255520082Y-93695933D01*
X255555898Y-93728904D01*
X255559596Y-93732453D01*
X256393331Y-94566188D01*
X256426816Y-94627511D01*
X256429650Y-94653869D01*
X256429650Y-94783759D01*
X256409965Y-94850798D01*
X256396984Y-94864907D01*
X256299287Y-94992228D01*
X256243820Y-95126141D01*
X256224899Y-95269851D01*
X256243820Y-95413560D01*
X256299287Y-95547473D01*
X256299288Y-95547475D01*
X256299289Y-95547476D01*
X256387529Y-95662472D01*
X256502525Y-95750712D01*
X256508611Y-95753233D01*
X256563014Y-95797070D01*
X256585081Y-95863364D01*
X256567804Y-95931064D01*
X256548841Y-95955475D01*
X255436955Y-97067361D01*
X255417104Y-97083483D01*
X255409332Y-97088561D01*
X255391500Y-97111471D01*
X255381765Y-97122496D01*
X255370441Y-97138357D01*
X255367392Y-97142445D01*
X255361870Y-97149541D01*
X255332891Y-97186773D01*
X255316871Y-97240582D01*
X255315309Y-97245458D01*
X255297073Y-97298578D01*
X255299393Y-97354670D01*
X255299499Y-97359792D01*
X255299500Y-100298883D01*
X255279815Y-100365922D01*
X255227011Y-100411677D01*
X255222952Y-100413444D01*
X255089700Y-100468637D01*
X254974702Y-100556879D01*
X254886460Y-100671877D01*
X254830993Y-100805790D01*
X254812072Y-100949499D01*
X254830993Y-101093209D01*
X254886460Y-101227122D01*
X254886461Y-101227124D01*
X254886462Y-101227125D01*
X254974702Y-101342121D01*
X255065384Y-101411704D01*
X255081780Y-101424285D01*
X255122982Y-101480713D01*
X255127137Y-101550459D01*
X255093974Y-101610342D01*
X254341137Y-102363181D01*
X254279814Y-102396666D01*
X254253456Y-102399500D01*
X251277404Y-102399500D01*
X251210365Y-102379815D01*
X251164610Y-102327011D01*
X251154666Y-102257853D01*
X251179029Y-102200013D01*
X251179642Y-102199212D01*
X251180861Y-102197625D01*
X251236330Y-102063709D01*
X251255250Y-101920000D01*
X251236330Y-101776291D01*
X251180861Y-101642375D01*
X251092621Y-101527379D01*
X250977625Y-101439139D01*
X250977624Y-101439138D01*
X250977622Y-101439137D01*
X250843709Y-101383670D01*
X250699999Y-101364749D01*
X250556290Y-101383670D01*
X250422377Y-101439137D01*
X250307379Y-101527379D01*
X250219137Y-101642377D01*
X250163670Y-101776290D01*
X250144749Y-101920000D01*
X250163669Y-102063706D01*
X250163669Y-102063708D01*
X250163670Y-102063709D01*
X250199277Y-102149674D01*
X250210977Y-102177919D01*
X250218445Y-102247389D01*
X250187169Y-102309868D01*
X250127080Y-102345520D01*
X250057255Y-102343025D01*
X250008734Y-102313052D01*
X249382638Y-101686956D01*
X249366509Y-101667094D01*
X249361437Y-101659330D01*
X249338533Y-101641504D01*
X249327508Y-101631768D01*
X249311653Y-101620448D01*
X249307544Y-101617384D01*
X249263229Y-101582892D01*
X249209409Y-101566869D01*
X249204531Y-101565306D01*
X249151421Y-101547074D01*
X249095332Y-101549394D01*
X249090208Y-101549500D01*
X246475352Y-101549500D01*
X246408313Y-101529815D01*
X246362558Y-101477011D01*
X246352614Y-101407853D01*
X246381639Y-101344297D01*
X246387656Y-101337833D01*
X246453861Y-101271628D01*
X246494083Y-101244753D01*
X246527625Y-101230861D01*
X246642621Y-101142621D01*
X246730861Y-101027625D01*
X246786330Y-100893709D01*
X246805250Y-100750000D01*
X246786330Y-100606291D01*
X246730861Y-100472375D01*
X246642621Y-100357379D01*
X246527625Y-100269139D01*
X246527624Y-100269138D01*
X246527622Y-100269137D01*
X246393709Y-100213670D01*
X246250000Y-100194749D01*
X246106290Y-100213670D01*
X245972377Y-100269137D01*
X245857377Y-100357380D01*
X245769138Y-100472376D01*
X245755246Y-100505914D01*
X245728367Y-100546140D01*
X244335679Y-101938828D01*
X244315043Y-101955459D01*
X244310602Y-101958312D01*
X244277195Y-101996866D01*
X244271171Y-102003337D01*
X244261308Y-102013200D01*
X244252958Y-102024354D01*
X244247411Y-102031238D01*
X244213998Y-102069800D01*
X244211803Y-102074606D01*
X244198285Y-102097388D01*
X244195123Y-102101611D01*
X244184253Y-102130753D01*
X244177472Y-102148935D01*
X244177291Y-102149419D01*
X244173905Y-102157591D01*
X244152718Y-102203985D01*
X244151968Y-102209205D01*
X244145415Y-102234884D01*
X244143569Y-102239833D01*
X244139929Y-102290717D01*
X244138984Y-102299509D01*
X244137038Y-102313052D01*
X244137000Y-102313314D01*
X244137000Y-102327258D01*
X244136684Y-102336109D01*
X244135999Y-102345681D01*
X244111579Y-102411145D01*
X244099996Y-102424511D01*
X242623828Y-103900681D01*
X242562505Y-103934166D01*
X242536147Y-103937000D01*
X238917691Y-103937000D01*
X238850652Y-103917315D01*
X238830010Y-103900681D01*
X238119296Y-103189967D01*
X238085811Y-103128644D01*
X238090795Y-103058952D01*
X238108596Y-103026807D01*
X238186126Y-102925770D01*
X238241595Y-102791854D01*
X238260515Y-102648145D01*
X238241595Y-102504436D01*
X238189976Y-102379815D01*
X238186127Y-102370522D01*
X238186126Y-102370521D01*
X238186126Y-102370520D01*
X238097886Y-102255524D01*
X237982890Y-102167284D01*
X237982889Y-102167283D01*
X237982887Y-102167282D01*
X237848974Y-102111815D01*
X237705265Y-102092894D01*
X237561555Y-102111815D01*
X237427642Y-102167282D01*
X237312644Y-102255524D01*
X237224402Y-102370522D01*
X237168935Y-102504435D01*
X237150014Y-102648145D01*
X237170824Y-102806207D01*
X237160058Y-102875242D01*
X237113678Y-102927498D01*
X237056731Y-102946076D01*
X237020266Y-102948684D01*
X237011420Y-102949000D01*
X236997474Y-102949000D01*
X236992007Y-102949785D01*
X236983671Y-102950984D01*
X236974878Y-102951929D01*
X236923993Y-102955569D01*
X236923994Y-102955569D01*
X236919042Y-102957415D01*
X236893366Y-102963968D01*
X236888149Y-102964718D01*
X236841745Y-102985909D01*
X236833571Y-102989294D01*
X236785777Y-103007120D01*
X236781553Y-103010283D01*
X236758764Y-103023805D01*
X236753959Y-103025999D01*
X236718512Y-103056714D01*
X236654956Y-103085738D01*
X236637311Y-103087000D01*
X236413855Y-103087000D01*
X236346816Y-103067315D01*
X236326174Y-103050681D01*
X236249762Y-102974269D01*
X236216277Y-102912946D01*
X236213443Y-102886588D01*
X236213443Y-102769311D01*
X236213443Y-102622070D01*
X236222882Y-102574624D01*
X236236774Y-102541087D01*
X236255694Y-102397378D01*
X236236774Y-102253669D01*
X236181305Y-102119753D01*
X236093065Y-102004757D01*
X236093063Y-102004756D01*
X236093063Y-102004755D01*
X236036654Y-101961471D01*
X236005989Y-101937941D01*
X235964787Y-101881514D01*
X235960632Y-101811768D01*
X235993793Y-101751887D01*
X236258862Y-101486819D01*
X236320185Y-101453334D01*
X236346543Y-101450500D01*
X237400788Y-101450500D01*
X237426234Y-101453139D01*
X237427556Y-101453416D01*
X237435315Y-101455043D01*
X237461364Y-101451795D01*
X237464123Y-101451452D01*
X237478795Y-101450541D01*
X237498013Y-101447334D01*
X237503069Y-101446596D01*
X237551393Y-101440573D01*
X237551394Y-101440572D01*
X237558808Y-101439648D01*
X237565378Y-101436092D01*
X237565381Y-101436092D01*
X237608201Y-101412918D01*
X237612747Y-101410577D01*
X237656484Y-101389198D01*
X237656486Y-101389195D01*
X237663195Y-101385916D01*
X237668254Y-101380419D01*
X237668258Y-101380418D01*
X237701254Y-101344572D01*
X237704756Y-101340924D01*
X239513046Y-99532634D01*
X239532903Y-99516510D01*
X239540669Y-99511437D01*
X239558496Y-99488531D01*
X239568232Y-99477507D01*
X239568375Y-99477307D01*
X239579561Y-99461637D01*
X239582610Y-99457548D01*
X239612517Y-99419126D01*
X239612517Y-99419124D01*
X239617108Y-99413227D01*
X239633127Y-99359419D01*
X239634679Y-99354569D01*
X239650500Y-99308488D01*
X239650500Y-99308484D01*
X239652925Y-99301421D01*
X239652616Y-99293956D01*
X239652617Y-99293954D01*
X239650605Y-99245331D01*
X239650500Y-99240208D01*
X239650500Y-91996543D01*
X239670185Y-91929504D01*
X239686819Y-91908862D01*
X239858863Y-91736819D01*
X239920186Y-91703334D01*
X239946544Y-91700500D01*
X241334043Y-91700500D01*
X241401082Y-91720185D01*
X241446837Y-91772989D01*
X241456781Y-91842147D01*
X241448604Y-91871952D01*
X241413670Y-91956290D01*
X241394749Y-92099999D01*
X241403132Y-92163670D01*
X241413670Y-92243709D01*
X241427561Y-92277246D01*
X241437000Y-92324696D01*
X241437000Y-94381520D01*
X241434166Y-94407879D01*
X241433045Y-94413027D01*
X241436684Y-94463895D01*
X241437000Y-94472741D01*
X241437000Y-94486686D01*
X241438984Y-94500490D01*
X241439929Y-94509284D01*
X241443568Y-94560166D01*
X241445413Y-94565111D01*
X241451967Y-94590789D01*
X241452718Y-94596011D01*
X241452719Y-94596015D01*
X241472401Y-94639113D01*
X241473909Y-94642416D01*
X241477294Y-94650589D01*
X241488727Y-94681242D01*
X241495121Y-94698383D01*
X241498281Y-94702605D01*
X241511807Y-94725402D01*
X241513998Y-94730200D01*
X241513999Y-94730201D01*
X241532556Y-94751617D01*
X241547408Y-94768756D01*
X241552957Y-94775643D01*
X241561312Y-94786803D01*
X241571171Y-94796662D01*
X241577191Y-94803128D01*
X241609618Y-94840551D01*
X241610602Y-94841686D01*
X241615043Y-94844540D01*
X241635680Y-94861171D01*
X241950681Y-95176172D01*
X241984166Y-95237495D01*
X241987000Y-95263853D01*
X241986999Y-99431520D01*
X241984166Y-99457874D01*
X241983045Y-99463024D01*
X241986684Y-99513895D01*
X241987000Y-99522741D01*
X241987000Y-99536686D01*
X241988984Y-99550490D01*
X241989929Y-99559284D01*
X241993568Y-99610166D01*
X241995413Y-99615111D01*
X242001967Y-99640789D01*
X242002718Y-99646011D01*
X242002719Y-99646015D01*
X242007412Y-99656291D01*
X242023909Y-99692416D01*
X242027294Y-99700589D01*
X242043709Y-99744599D01*
X242045121Y-99748383D01*
X242048281Y-99752605D01*
X242061807Y-99775402D01*
X242063998Y-99780200D01*
X242063999Y-99780201D01*
X242088990Y-99809042D01*
X242097408Y-99818756D01*
X242102957Y-99825643D01*
X242111312Y-99836803D01*
X242121171Y-99846662D01*
X242127191Y-99853128D01*
X242160602Y-99891686D01*
X242165043Y-99894540D01*
X242185680Y-99911171D01*
X242250680Y-99976171D01*
X242284165Y-100037494D01*
X242286999Y-100063852D01*
X242286999Y-101918798D01*
X242267314Y-101985837D01*
X242250680Y-102006479D01*
X242078292Y-102178867D01*
X242038066Y-102205746D01*
X242004530Y-102219637D01*
X241986941Y-102233134D01*
X241953537Y-102258765D01*
X241888369Y-102283959D01*
X241819925Y-102269921D01*
X241802569Y-102258767D01*
X241751576Y-102219639D01*
X241751575Y-102219638D01*
X241751573Y-102219637D01*
X241617660Y-102164170D01*
X241473951Y-102145249D01*
X241330242Y-102164170D01*
X241270902Y-102188749D01*
X241201433Y-102196216D01*
X241138954Y-102164941D01*
X241125075Y-102149674D01*
X241092621Y-102107379D01*
X240977625Y-102019139D01*
X240977624Y-102019138D01*
X240977622Y-102019137D01*
X240843709Y-101963670D01*
X240699999Y-101944749D01*
X240556290Y-101963670D01*
X240422377Y-102019137D01*
X240307379Y-102107379D01*
X240219137Y-102222377D01*
X240163670Y-102356290D01*
X240144749Y-102500000D01*
X240163670Y-102643709D01*
X240219137Y-102777622D01*
X240219138Y-102777624D01*
X240219139Y-102777625D01*
X240307379Y-102892621D01*
X240422375Y-102980861D01*
X240422376Y-102980861D01*
X240422377Y-102980862D01*
X240442343Y-102989132D01*
X240556291Y-103036330D01*
X240700000Y-103055250D01*
X240843709Y-103036330D01*
X240903049Y-103011750D01*
X240972515Y-103004282D01*
X241034995Y-103035557D01*
X241048874Y-103050825D01*
X241081327Y-103093118D01*
X241081328Y-103093119D01*
X241081330Y-103093121D01*
X241196326Y-103181361D01*
X241196327Y-103181361D01*
X241196328Y-103181362D01*
X241217103Y-103189967D01*
X241330242Y-103236830D01*
X241473951Y-103255750D01*
X241617660Y-103236830D01*
X241751576Y-103181361D01*
X241802566Y-103142234D01*
X241867734Y-103117041D01*
X241936179Y-103131079D01*
X241953534Y-103142232D01*
X242004528Y-103181361D01*
X242004529Y-103181361D01*
X242004530Y-103181362D01*
X242025305Y-103189967D01*
X242138444Y-103236830D01*
X242282153Y-103255750D01*
X242425862Y-103236830D01*
X242559778Y-103181361D01*
X242674774Y-103093121D01*
X242763014Y-102978125D01*
X242776905Y-102944586D01*
X242803782Y-102904361D01*
X243114324Y-102593819D01*
X243134961Y-102577189D01*
X243139398Y-102574339D01*
X243172797Y-102535792D01*
X243178815Y-102529328D01*
X243188688Y-102519457D01*
X243197060Y-102508271D01*
X243202577Y-102501425D01*
X243236001Y-102462854D01*
X243238192Y-102458054D01*
X243251718Y-102435257D01*
X243254879Y-102431036D01*
X243272714Y-102383215D01*
X243276084Y-102375080D01*
X243297281Y-102328668D01*
X243298031Y-102323447D01*
X243304586Y-102297764D01*
X243306431Y-102292820D01*
X243310070Y-102241926D01*
X243311011Y-102233171D01*
X243313000Y-102219341D01*
X243313000Y-102205394D01*
X243313316Y-102196548D01*
X243316954Y-102145680D01*
X243315834Y-102140532D01*
X243313000Y-102114173D01*
X243313000Y-100050000D01*
X250094749Y-100050000D01*
X250113670Y-100193709D01*
X250169137Y-100327622D01*
X250169138Y-100327624D01*
X250169139Y-100327625D01*
X250257379Y-100442621D01*
X250372375Y-100530861D01*
X250506291Y-100586330D01*
X250650000Y-100605250D01*
X250689877Y-100600000D01*
X252424249Y-100600000D01*
X252443170Y-100743709D01*
X252498637Y-100877622D01*
X252498638Y-100877624D01*
X252498639Y-100877625D01*
X252586879Y-100992621D01*
X252701875Y-101080861D01*
X252835791Y-101136330D01*
X252979500Y-101155250D01*
X253123209Y-101136330D01*
X253257125Y-101080861D01*
X253372121Y-100992621D01*
X253460361Y-100877625D01*
X253515830Y-100743709D01*
X253534750Y-100600000D01*
X253515830Y-100456291D01*
X253472928Y-100352715D01*
X253460362Y-100322377D01*
X253460361Y-100322376D01*
X253460361Y-100322375D01*
X253372121Y-100207379D01*
X253257125Y-100119139D01*
X253257124Y-100119138D01*
X253257122Y-100119137D01*
X253123209Y-100063670D01*
X252979500Y-100044749D01*
X252835790Y-100063670D01*
X252701877Y-100119137D01*
X252586879Y-100207379D01*
X252498637Y-100322377D01*
X252443170Y-100456290D01*
X252424249Y-100600000D01*
X250689877Y-100600000D01*
X250793709Y-100586330D01*
X250927625Y-100530861D01*
X251042621Y-100442621D01*
X251130861Y-100327625D01*
X251186330Y-100193709D01*
X251205250Y-100050000D01*
X251186330Y-99906291D01*
X251135655Y-99783949D01*
X251130862Y-99772377D01*
X251130861Y-99772376D01*
X251130861Y-99772375D01*
X251042621Y-99657379D01*
X250927625Y-99569139D01*
X250927624Y-99569138D01*
X250927622Y-99569137D01*
X250793709Y-99513670D01*
X250650000Y-99494749D01*
X250506290Y-99513670D01*
X250372377Y-99569137D01*
X250257379Y-99657379D01*
X250169137Y-99772377D01*
X250113670Y-99906290D01*
X250094749Y-100050000D01*
X243313000Y-100050000D01*
X243313000Y-100024696D01*
X243322438Y-99977246D01*
X243336330Y-99943709D01*
X243355250Y-99800000D01*
X243336330Y-99656291D01*
X243286641Y-99536329D01*
X243280862Y-99522377D01*
X243280861Y-99522376D01*
X243280861Y-99522375D01*
X243192621Y-99407379D01*
X243077625Y-99319139D01*
X243077623Y-99319138D01*
X243064673Y-99309201D01*
X243067123Y-99306007D01*
X243035142Y-99280234D01*
X243013079Y-99213939D01*
X243013000Y-99209516D01*
X243013000Y-95068480D01*
X243015834Y-95042120D01*
X243016954Y-95036971D01*
X243013316Y-94986104D01*
X243013000Y-94977258D01*
X243013000Y-94963318D01*
X243013000Y-94963312D01*
X243011010Y-94949475D01*
X243010070Y-94940731D01*
X243006431Y-94889832D01*
X243004584Y-94884882D01*
X242998031Y-94859203D01*
X242997281Y-94853985D01*
X242976087Y-94807578D01*
X242972709Y-94799422D01*
X242954879Y-94751617D01*
X242951717Y-94747393D01*
X242938191Y-94724595D01*
X242937551Y-94723194D01*
X242936001Y-94719799D01*
X242902590Y-94681241D01*
X242897037Y-94674349D01*
X242888687Y-94663195D01*
X242878833Y-94653341D01*
X242872802Y-94646863D01*
X242839398Y-94608313D01*
X242834961Y-94605462D01*
X242814321Y-94588829D01*
X242499319Y-94273826D01*
X242465834Y-94212503D01*
X242463000Y-94186145D01*
X242463000Y-92324696D01*
X242472438Y-92277246D01*
X242486330Y-92243709D01*
X242505250Y-92100000D01*
X242486330Y-91956291D01*
X242451395Y-91871951D01*
X242443927Y-91802483D01*
X242475202Y-91740004D01*
X242535292Y-91704352D01*
X242565957Y-91700500D01*
X246500788Y-91700500D01*
X246526234Y-91703139D01*
X246527556Y-91703416D01*
X246535315Y-91705043D01*
X246561364Y-91701795D01*
X246564123Y-91701452D01*
X246578795Y-91700541D01*
X246598013Y-91697334D01*
X246603069Y-91696596D01*
X246651393Y-91690573D01*
X246651394Y-91690572D01*
X246658808Y-91689648D01*
X246665378Y-91686092D01*
X246665381Y-91686092D01*
X246708201Y-91662918D01*
X246712747Y-91660577D01*
X246756484Y-91639198D01*
X246756486Y-91639195D01*
X246763195Y-91635916D01*
X246768254Y-91630419D01*
X246768258Y-91630418D01*
X246801254Y-91594572D01*
X246804756Y-91590924D01*
X246963046Y-91432634D01*
X246982903Y-91416510D01*
X246990669Y-91411437D01*
X247008496Y-91388531D01*
X247018228Y-91377511D01*
X247018370Y-91377311D01*
X247018376Y-91377306D01*
X247029586Y-91361603D01*
X247032600Y-91357561D01*
X247062517Y-91319126D01*
X247062517Y-91319124D01*
X247067107Y-91313228D01*
X247069238Y-91306067D01*
X247069240Y-91306066D01*
X247083129Y-91259412D01*
X247084692Y-91254534D01*
X247102925Y-91201424D01*
X247102616Y-91193956D01*
X247102617Y-91193954D01*
X247100606Y-91145321D01*
X247100500Y-91140198D01*
X247100500Y-89650000D01*
X249894749Y-89650000D01*
X249913670Y-89793709D01*
X249969137Y-89927622D01*
X249969138Y-89927624D01*
X249969139Y-89927625D01*
X250057379Y-90042621D01*
X250172375Y-90130861D01*
X250306291Y-90186330D01*
X250450000Y-90205250D01*
X250593709Y-90186330D01*
X250727625Y-90130861D01*
X250842621Y-90042621D01*
X250930861Y-89927625D01*
X250986330Y-89793709D01*
X251005250Y-89650000D01*
X250986330Y-89506291D01*
X250930861Y-89372375D01*
X250842621Y-89257379D01*
X250727625Y-89169139D01*
X250727624Y-89169138D01*
X250727622Y-89169137D01*
X250593709Y-89113670D01*
X250450000Y-89094749D01*
X250306290Y-89113670D01*
X250172377Y-89169137D01*
X250057379Y-89257379D01*
X249969137Y-89372377D01*
X249913670Y-89506290D01*
X249894749Y-89650000D01*
X247100500Y-89650000D01*
X247100500Y-87261229D01*
X247120185Y-87194190D01*
X247172989Y-87148435D01*
X247242147Y-87138491D01*
X247305703Y-87167516D01*
G37*
G04 #@! TD.AperFunction*
G04 #@! TA.AperFunction,Conductor*
G36*
X254554927Y-87267360D02*
G01*
X254575569Y-87283994D01*
X254962196Y-87670621D01*
X255179395Y-87887819D01*
X255212880Y-87949142D01*
X255207896Y-88018833D01*
X255166025Y-88074767D01*
X255100560Y-88099184D01*
X255091714Y-88099500D01*
X254396543Y-88099500D01*
X254329504Y-88079815D01*
X254308862Y-88063181D01*
X254240430Y-87994749D01*
X254211617Y-87965935D01*
X254178133Y-87904614D01*
X254183117Y-87834922D01*
X254200925Y-87802768D01*
X254222386Y-87774800D01*
X254277855Y-87640884D01*
X254296775Y-87497175D01*
X254282383Y-87387860D01*
X254293148Y-87318826D01*
X254339528Y-87266570D01*
X254405322Y-87247675D01*
X254487888Y-87247675D01*
X254554927Y-87267360D01*
G37*
G04 #@! TD.AperFunction*
G04 #@! TA.AperFunction,Conductor*
G36*
X260470495Y-87320185D02*
G01*
X260491137Y-87336819D01*
X260663180Y-87508862D01*
X260696665Y-87570185D01*
X260699499Y-87596543D01*
X260699499Y-92036136D01*
X260679814Y-92103175D01*
X260627010Y-92148930D01*
X260559314Y-92159075D01*
X260450500Y-92144749D01*
X260306790Y-92163670D01*
X260172877Y-92219137D01*
X260057879Y-92307379D01*
X259969637Y-92422377D01*
X259914170Y-92556290D01*
X259895249Y-92699999D01*
X259914170Y-92843709D01*
X259969637Y-92977622D01*
X259969638Y-92977624D01*
X259969639Y-92977625D01*
X260057879Y-93092621D01*
X260172875Y-93180861D01*
X260172876Y-93180861D01*
X260172877Y-93180862D01*
X260190593Y-93188200D01*
X260306791Y-93236330D01*
X260423452Y-93251689D01*
X260450499Y-93255250D01*
X260450499Y-93255249D01*
X260450500Y-93255250D01*
X260559313Y-93240924D01*
X260628349Y-93251689D01*
X260680605Y-93298069D01*
X260699499Y-93363863D01*
X260699499Y-96248332D01*
X260679814Y-96315371D01*
X260627010Y-96361126D01*
X260557852Y-96371070D01*
X260528049Y-96362894D01*
X260409209Y-96313670D01*
X260409208Y-96313669D01*
X260409206Y-96313669D01*
X260265499Y-96294749D01*
X260121790Y-96313670D01*
X259987877Y-96369137D01*
X259872876Y-96457380D01*
X259853088Y-96483169D01*
X259796659Y-96524370D01*
X259726913Y-96528523D01*
X259665993Y-96494309D01*
X259656338Y-96483166D01*
X259616533Y-96431291D01*
X259583953Y-96406291D01*
X259501536Y-96343050D01*
X259501535Y-96343049D01*
X259501533Y-96343048D01*
X259437366Y-96316470D01*
X259382962Y-96272630D01*
X259360897Y-96206336D01*
X259378176Y-96138636D01*
X259397133Y-96114232D01*
X259413043Y-96098322D01*
X259432895Y-96082201D01*
X259440669Y-96077123D01*
X259458500Y-96054212D01*
X259468227Y-96043199D01*
X259479550Y-96027339D01*
X259482604Y-96023241D01*
X259512517Y-95984812D01*
X259512517Y-95984809D01*
X259517108Y-95978912D01*
X259524086Y-95955475D01*
X259533129Y-95925098D01*
X259534679Y-95920255D01*
X259550500Y-95874174D01*
X259550500Y-95874170D01*
X259552925Y-95867107D01*
X259552616Y-95859642D01*
X259552617Y-95859640D01*
X259550605Y-95811016D01*
X259550500Y-95805893D01*
X259550500Y-94947741D01*
X259553140Y-94922292D01*
X259555042Y-94913217D01*
X259555043Y-94913214D01*
X259551450Y-94884404D01*
X259550541Y-94869743D01*
X259550499Y-94869497D01*
X259550500Y-94869489D01*
X259547330Y-94850494D01*
X259546595Y-94845448D01*
X259546481Y-94844535D01*
X259540573Y-94797136D01*
X259540572Y-94797135D01*
X259539648Y-94789718D01*
X259515445Y-94744995D01*
X259500500Y-94685978D01*
X259500500Y-94526298D01*
X259507215Y-94486045D01*
X259509058Y-94480675D01*
X259516869Y-94465499D01*
X259519239Y-94457538D01*
X259519240Y-94457537D01*
X259533129Y-94410883D01*
X259534679Y-94406040D01*
X259550500Y-94359959D01*
X259550500Y-94359954D01*
X259552925Y-94352891D01*
X259552616Y-94345426D01*
X259552617Y-94345425D01*
X259550606Y-94296792D01*
X259550500Y-94291669D01*
X259550500Y-88799211D01*
X259553139Y-88773764D01*
X259555043Y-88764685D01*
X259551452Y-88735876D01*
X259550541Y-88721213D01*
X259550500Y-88720967D01*
X259550500Y-88720960D01*
X259547330Y-88701965D01*
X259546595Y-88696919D01*
X259543536Y-88672377D01*
X259540573Y-88648607D01*
X259540572Y-88648605D01*
X259539648Y-88641191D01*
X259536092Y-88634620D01*
X259536092Y-88634619D01*
X259512925Y-88591811D01*
X259510581Y-88587256D01*
X259485918Y-88536805D01*
X259472323Y-88524290D01*
X259444587Y-88498757D01*
X259440914Y-88495232D01*
X258457863Y-87512181D01*
X258424378Y-87450858D01*
X258429362Y-87381166D01*
X258471234Y-87325233D01*
X258536698Y-87300816D01*
X258545544Y-87300500D01*
X260403456Y-87300500D01*
X260470495Y-87320185D01*
G37*
G04 #@! TD.AperFunction*
G04 #@! TA.AperFunction,Conductor*
G36*
X256789123Y-88920185D02*
G01*
X256809765Y-88936819D01*
X257613181Y-89740234D01*
X257646666Y-89801557D01*
X257649500Y-89827915D01*
X257649500Y-92218077D01*
X257629815Y-92285116D01*
X257613180Y-92305759D01*
X257562679Y-92356259D01*
X257501356Y-92389743D01*
X257431664Y-92384758D01*
X257375731Y-92342886D01*
X257351315Y-92277422D01*
X257351000Y-92268604D01*
X257351000Y-92000682D01*
X257353639Y-91975235D01*
X257355543Y-91966156D01*
X257351952Y-91937347D01*
X257351041Y-91922684D01*
X257351000Y-91922438D01*
X257351000Y-91922431D01*
X257347830Y-91903436D01*
X257347095Y-91898390D01*
X257344826Y-91880185D01*
X257341073Y-91850078D01*
X257341072Y-91850076D01*
X257340148Y-91842662D01*
X257336592Y-91836091D01*
X257336592Y-91836090D01*
X257313413Y-91793259D01*
X257311079Y-91788724D01*
X257286415Y-91738272D01*
X257245089Y-91700229D01*
X257241391Y-91696681D01*
X256836319Y-91291608D01*
X256802834Y-91230285D01*
X256800000Y-91203927D01*
X256800000Y-90659495D01*
X256800000Y-90114388D01*
X256802637Y-90088956D01*
X256804543Y-90079872D01*
X256801204Y-90053088D01*
X256800952Y-90051063D01*
X256800041Y-90036401D01*
X256800000Y-90036155D01*
X256800000Y-90036146D01*
X256796825Y-90017124D01*
X256796097Y-90012127D01*
X256790073Y-89963794D01*
X256790072Y-89963792D01*
X256789148Y-89956377D01*
X256782553Y-89944191D01*
X256762424Y-89906994D01*
X256760077Y-89902435D01*
X256735418Y-89851991D01*
X256729918Y-89846928D01*
X256694087Y-89813943D01*
X256690414Y-89810418D01*
X255992177Y-89112181D01*
X255958692Y-89050858D01*
X255963676Y-88981166D01*
X256005548Y-88925233D01*
X256071012Y-88900816D01*
X256079858Y-88900500D01*
X256722084Y-88900500D01*
X256789123Y-88920185D01*
G37*
G04 #@! TD.AperFunction*
G04 #@! TA.AperFunction,Conductor*
G36*
X260170495Y-81020185D02*
G01*
X260191137Y-81036819D01*
X260367359Y-81213041D01*
X260383483Y-81232895D01*
X260388561Y-81240667D01*
X260388562Y-81240668D01*
X260388563Y-81240669D01*
X260390678Y-81242315D01*
X260411473Y-81258500D01*
X260422488Y-81268228D01*
X260438349Y-81279553D01*
X260442456Y-81282616D01*
X260486771Y-81317108D01*
X260540593Y-81333131D01*
X260545437Y-81334682D01*
X260591512Y-81350500D01*
X260591515Y-81350500D01*
X260598579Y-81352925D01*
X260606044Y-81352616D01*
X260606046Y-81352617D01*
X260654678Y-81350606D01*
X260659802Y-81350500D01*
X261803456Y-81350500D01*
X261870495Y-81370185D01*
X261891137Y-81386819D01*
X262242407Y-81738089D01*
X262275892Y-81799412D01*
X262270908Y-81869104D01*
X262269288Y-81873221D01*
X262214170Y-82006291D01*
X262195249Y-82150000D01*
X262214170Y-82293709D01*
X262269637Y-82427622D01*
X262269638Y-82427624D01*
X262269639Y-82427625D01*
X262357879Y-82542621D01*
X262472875Y-82630861D01*
X262606791Y-82686330D01*
X262750500Y-82705250D01*
X262859814Y-82690858D01*
X262928849Y-82701623D01*
X262981105Y-82748003D01*
X263000000Y-82813797D01*
X263000000Y-84663539D01*
X262980315Y-84730578D01*
X262927511Y-84776333D01*
X262858353Y-84786277D01*
X262828549Y-84778101D01*
X262793709Y-84763670D01*
X262776989Y-84761468D01*
X262650000Y-84744749D01*
X262506290Y-84763670D01*
X262372377Y-84819137D01*
X262257377Y-84907380D01*
X262223918Y-84950986D01*
X262167490Y-84992189D01*
X262125542Y-84999500D01*
X256736092Y-84999500D01*
X256669053Y-84979815D01*
X256654943Y-84966834D01*
X256634290Y-84950986D01*
X256527625Y-84869139D01*
X256527624Y-84869138D01*
X256527622Y-84869137D01*
X256393709Y-84813670D01*
X256249999Y-84794749D01*
X256140685Y-84809141D01*
X256071650Y-84798375D01*
X256019394Y-84751995D01*
X256000500Y-84686202D01*
X256000500Y-83977094D01*
X256020185Y-83910055D01*
X256072989Y-83864300D01*
X256108313Y-83854155D01*
X256243709Y-83836330D01*
X256377625Y-83780861D01*
X256492621Y-83692621D01*
X256580861Y-83577625D01*
X256636330Y-83443709D01*
X256655250Y-83300000D01*
X256636330Y-83156291D01*
X256586473Y-83035924D01*
X256580862Y-83022377D01*
X256580861Y-83022376D01*
X256580861Y-83022375D01*
X256492621Y-82907379D01*
X256492620Y-82907378D01*
X256482683Y-82894428D01*
X256485380Y-82892358D01*
X256459890Y-82857439D01*
X256455745Y-82787692D01*
X256489966Y-82726777D01*
X256529131Y-82700947D01*
X256577625Y-82680861D01*
X256692621Y-82592621D01*
X256780861Y-82477625D01*
X256836330Y-82343709D01*
X256855250Y-82200000D01*
X256836330Y-82056291D01*
X256792052Y-81949394D01*
X256780862Y-81922377D01*
X256780861Y-81922376D01*
X256780861Y-81922375D01*
X256692621Y-81807379D01*
X256577625Y-81719139D01*
X256577624Y-81719138D01*
X256577622Y-81719137D01*
X256443709Y-81663670D01*
X256299999Y-81644749D01*
X256156290Y-81663670D01*
X256022377Y-81719137D01*
X255907379Y-81807379D01*
X255819137Y-81922377D01*
X255763670Y-82056290D01*
X255744749Y-82200000D01*
X255763670Y-82343709D01*
X255819137Y-82477622D01*
X255819138Y-82477624D01*
X255819139Y-82477625D01*
X255907379Y-82592621D01*
X255917317Y-82605572D01*
X255914619Y-82607642D01*
X255940104Y-82642544D01*
X255944259Y-82712290D01*
X255910047Y-82773210D01*
X255870867Y-82799053D01*
X255822373Y-82819139D01*
X255815056Y-82824754D01*
X255749886Y-82849945D01*
X255681442Y-82835904D01*
X255664087Y-82824751D01*
X255580280Y-82760443D01*
X255580279Y-82760442D01*
X255580277Y-82760441D01*
X255446364Y-82704974D01*
X255302654Y-82686053D01*
X255158945Y-82704974D01*
X255025032Y-82760441D01*
X254974713Y-82799053D01*
X254913711Y-82845862D01*
X254897083Y-82858621D01*
X254895463Y-82856510D01*
X254858510Y-82883494D01*
X254816563Y-82890804D01*
X254555065Y-82890804D01*
X254529619Y-82888165D01*
X254520538Y-82886261D01*
X254491730Y-82889852D01*
X254477054Y-82890762D01*
X254457814Y-82893972D01*
X254452756Y-82894709D01*
X254397042Y-82901655D01*
X254347666Y-82928376D01*
X254343114Y-82930719D01*
X254292657Y-82955386D01*
X254254633Y-82996691D01*
X254251086Y-83000387D01*
X254237455Y-83014018D01*
X254217604Y-83030140D01*
X254209832Y-83035218D01*
X254192000Y-83058128D01*
X254182265Y-83069153D01*
X254170941Y-83085014D01*
X254167892Y-83089102D01*
X254157568Y-83102368D01*
X254133391Y-83133430D01*
X254117371Y-83187239D01*
X254115809Y-83192115D01*
X254097574Y-83245234D01*
X254099894Y-83301325D01*
X254100000Y-83306449D01*
X254100000Y-84185825D01*
X254080315Y-84252864D01*
X254027511Y-84298619D01*
X254023452Y-84300386D01*
X253894185Y-84353929D01*
X253824715Y-84361398D01*
X253762236Y-84330122D01*
X253748357Y-84314854D01*
X253742622Y-84307380D01*
X253733656Y-84300500D01*
X253627625Y-84219139D01*
X253627624Y-84219138D01*
X253627622Y-84219137D01*
X253493709Y-84163670D01*
X253349999Y-84144749D01*
X253231471Y-84160354D01*
X253221406Y-84161679D01*
X253152371Y-84150915D01*
X253100115Y-84104535D01*
X253090660Y-84086193D01*
X253064434Y-84022877D01*
X253064433Y-84022876D01*
X253064433Y-84022875D01*
X253010166Y-83952154D01*
X252984973Y-83886985D01*
X252999011Y-83818541D01*
X253047825Y-83768551D01*
X253049523Y-83767615D01*
X253058200Y-83762919D01*
X253062747Y-83760577D01*
X253106484Y-83739198D01*
X253106486Y-83739195D01*
X253113195Y-83735916D01*
X253118254Y-83730419D01*
X253118258Y-83730418D01*
X253151255Y-83694572D01*
X253154732Y-83690948D01*
X253368376Y-83477306D01*
X253368376Y-83477305D01*
X253563046Y-83282634D01*
X253582903Y-83266510D01*
X253590669Y-83261437D01*
X253608496Y-83238531D01*
X253618232Y-83227506D01*
X253618371Y-83227310D01*
X253618375Y-83227307D01*
X253629554Y-83211648D01*
X253632604Y-83207556D01*
X253662517Y-83169126D01*
X253662517Y-83169124D01*
X253667107Y-83163228D01*
X253672459Y-83145250D01*
X253683131Y-83109401D01*
X253684686Y-83104549D01*
X253685435Y-83102368D01*
X253700500Y-83058488D01*
X253700500Y-83058484D01*
X253702925Y-83051421D01*
X253702616Y-83043956D01*
X253702617Y-83043954D01*
X253700603Y-82995281D01*
X253700500Y-82990256D01*
X253700500Y-82120960D01*
X253700499Y-81977915D01*
X253720185Y-81910876D01*
X253736819Y-81890234D01*
X253854677Y-81772377D01*
X253984061Y-81642993D01*
X254590234Y-81036819D01*
X254651558Y-81003334D01*
X254677916Y-81000500D01*
X260103456Y-81000500D01*
X260170495Y-81020185D01*
G37*
G04 #@! TD.AperFunction*
G04 #@! TA.AperFunction,Conductor*
G36*
X232943039Y-83269685D02*
G01*
X232988794Y-83322489D01*
X233000000Y-83374000D01*
X233000000Y-85250000D01*
X241376000Y-85250000D01*
X241443039Y-85269685D01*
X241488794Y-85322489D01*
X241500000Y-85374000D01*
X241500000Y-87876000D01*
X241480315Y-87943039D01*
X241427511Y-87988794D01*
X241376000Y-88000000D01*
X232624000Y-88000000D01*
X232556961Y-87980315D01*
X232511206Y-87927511D01*
X232500000Y-87876000D01*
X232500000Y-86750000D01*
X229374000Y-86750000D01*
X229306961Y-86730315D01*
X229261206Y-86677511D01*
X229250000Y-86626000D01*
X229250000Y-83374000D01*
X229269685Y-83306961D01*
X229322489Y-83261206D01*
X229374000Y-83250000D01*
X232876000Y-83250000D01*
X232943039Y-83269685D01*
G37*
G04 #@! TD.AperFunction*
M02*
