M48
; DRILL file {KiCad 7.0.10} date Thu Feb  8 00:17:30 2024
; FORMAT={-:-/ absolute / metric / decimal}
; #@! TF.CreationDate,2024-02-08T00:17:30+03:00
; #@! TF.GenerationSoftware,Kicad,Pcbnew,7.0.10
; #@! TF.FileFunction,Plated,1,4,PTH
FMAT,2
METRIC
; #@! TA.AperFunction,Plated,PTH,ViaDrill
T1C0.300
; #@! TA.AperFunction,Plated,PTH,ViaDrill
T2C0.400
; #@! TA.AperFunction,Plated,PTH,ComponentDrill
T3C1.100
; #@! TA.AperFunction,Plated,PTH,ComponentDrill
T4C1.500
; #@! TA.AperFunction,Plated,PTH,ComponentDrill
T5C3.250
%
G90
G05
T1
X125.975Y-104.925
X126.05Y-87.225
X126.075Y-86.5
X126.075Y-102.125
X126.275Y-108.825
X126.3Y-85.7
X126.775Y-98.625
X126.875Y-87.225
X126.875Y-102.125
X126.875Y-104.925
X126.9Y-86.5
X127.175Y-107.725
X127.275Y-85.525
X127.65Y-87.225
X127.675Y-86.5
X127.675Y-102.125
X127.775Y-104.925
X128.055Y-108.215
X128.075Y-85.525
X128.075Y-106.925
X128.375Y-87.25
X128.4Y-86.525
X128.575Y-102.125
X128.675Y-96.025
X128.875Y-102.925
X128.875Y-103.725
X128.975Y-85.525
X129.175Y-87.25
X129.2Y-86.525
X129.375Y-108.525
X129.75Y-87.775
X129.775Y-85.525
X129.803Y-104.695
X129.875Y-86.225
X129.875Y-86.975
X130.05Y-95.875
X130.575Y-85.525
X130.575Y-86.6
X130.575Y-87.375
X130.575Y-111.725
X130.675Y-110.725
X130.9Y-105.875
X131.1Y-97.0
X131.1Y-97.725
X131.225Y-87.025
X131.275Y-86.225
X131.475Y-83.125
X131.475Y-83.925
X131.475Y-84.725
X131.475Y-85.525
X131.675Y-77.925
X131.7Y-91.7
X131.7Y-108.8
X131.775Y-78.625
X131.825Y-93.725
X131.875Y-79.325
X131.925Y-109.546
X132.0Y-86.425
X132.025Y-87.15
X132.375Y-83.125
X132.375Y-83.925
X132.375Y-84.725
X132.375Y-85.525
X132.45Y-91.7
X132.475Y-77.925
X132.475Y-78.625
X132.525Y-93.725
X132.575Y-104.925
X132.675Y-79.325
X132.775Y-86.4
X132.8Y-87.175
X132.975Y-74.525
X133.175Y-78.625
X133.2Y-91.7
X133.225Y-93.725
X133.275Y-77.925
X133.275Y-83.125
X133.275Y-83.925
X133.275Y-84.725
X133.275Y-85.525
X133.375Y-79.325
X133.375Y-90.225
X133.525Y-86.4
X133.675Y-79.925
X133.7Y-92.275
X133.775Y-74.525
X133.775Y-77.425
X133.775Y-111.025
X133.975Y-93.725
X134.075Y-83.125
X134.075Y-83.925
X134.075Y-84.725
X134.075Y-85.525
X134.175Y-81.225
X134.175Y-82.025
X134.275Y-80.425
X134.275Y-96.225
X134.325Y-86.4
X134.375Y-75.225
X134.375Y-76.125
X134.375Y-76.925
X134.775Y-74.525
X134.875Y-83.125
X134.875Y-83.925
X134.875Y-84.725
X134.875Y-85.525
X134.975Y-81.225
X134.975Y-82.025
X135.075Y-80.525
X135.075Y-104.825
X135.175Y-99.475
X135.275Y-95.825
X135.275Y-110.525
X135.325Y-108.825
X135.375Y-90.825
X135.5Y-93.375
X135.575Y-76.725
X135.575Y-83.125
X135.675Y-76.025
X135.675Y-83.925
X135.775Y-81.225
X135.775Y-82.025
X135.875Y-75.325
X135.975Y-77.425
X135.975Y-80.425
X136.275Y-82.725
X136.375Y-108.825
X136.475Y-83.525
X136.475Y-99.2
X136.575Y-79.925
X136.675Y-77.725
X136.7Y-104.75
X136.8Y-84.225
X136.875Y-78.425
X136.925Y-102.025
X136.975Y-79.125
X136.975Y-85.825
X137.475Y-77.825
X137.475Y-83.225
X137.475Y-84.025
X137.475Y-84.925
X137.475Y-88.875
X137.537Y-95.988
X137.575Y-78.525
X137.575Y-79.425
X138.025Y-84.425
X138.075Y-85.625
X138.15Y-83.525
X138.275Y-77.825
X138.275Y-78.625
X138.275Y-79.425
X138.378Y-91.177
X138.475Y-85.025
X138.575Y-82.725
X138.6Y-100.17
X138.775Y-80.125
X138.875Y-77.425
X138.875Y-78.125
X138.875Y-84.225
X138.887Y-92.512
X138.9Y-96.325
X138.975Y-75.225
X138.975Y-78.825
X139.075Y-79.525
X139.175Y-76.225
X139.175Y-89.425
X139.31Y-112.275
X139.85Y-78.85
X139.85Y-99.95
X139.875Y-79.725
X140.11Y-112.275
X140.371Y-103.197
X140.475Y-80.225
X140.476Y-85.003
X140.675Y-75.725
X140.675Y-76.425
X140.975Y-112.225
X141.15Y-103.381
X141.15Y-78.2
X141.15Y-78.925
X141.175Y-76.825
X141.175Y-77.525
X141.3Y-95.65
X141.375Y-74.525
X141.401Y-97.426
X141.675Y-99.995
X141.85Y-78.175
X141.85Y-78.9
X141.875Y-76.825
X141.875Y-77.525
X142.05Y-95.675
X142.127Y-112.298
X142.175Y-74.525
X142.575Y-76.825
X142.575Y-77.525
X142.6Y-78.175
X142.6Y-78.9
X142.725Y-95.625
X142.975Y-74.525
X143.155Y-112.225
X143.225Y-79.825
X143.274Y-89.675
X143.373Y-92.995
X143.4Y-81.1
X143.4Y-82.0
X143.575Y-74.325
X143.625Y-79.025
X143.7Y-100.175
X143.875Y-91.425
X143.923Y-79.702
X144.024Y-85.825
X144.125Y-86.675
X144.175Y-84.875
X144.2Y-81.1
X144.275Y-84.125
X144.325Y-79.025
X144.475Y-90.025
X144.525Y-100.225
X144.725Y-79.625
X144.761Y-93.862
X144.875Y-91.951
X145.025Y-81.125
X145.125Y-79.025
X145.225Y-74.336
X145.475Y-100.095
X145.525Y-79.625
X145.525Y-87.625
X145.6Y-92.625
X145.925Y-95.225
X145.989Y-75.105
X146.095Y-76.027
X146.325Y-79.625
X146.425Y-88.075
X146.525Y-94.625
X146.725Y-79.025
X146.725Y-95.425
X146.89Y-99.982
X147.297Y-87.429
X147.325Y-94.625
X147.365Y-88.615
X147.85Y-99.925
X148.025Y-94.925
X148.277Y-97.397
X148.299Y-93.288
X148.321Y-106.928
X148.775Y-85.325
X148.775Y-103.307
X148.797Y-111.447
X148.835Y-82.695
X148.974Y-89.925
X148.975Y-86.125
X148.994Y-110.402
X149.006Y-108.757
X149.075Y-104.125
X149.075Y-106.275
X149.119Y-93.971
X149.125Y-84.061
X149.3Y-112.2
X149.337Y-109.642
X149.339Y-76.114
X149.473Y-107.724
X149.525Y-85.325
X149.62Y-93.348
X149.775Y-106.925
X149.776Y-84.526
X149.779Y-108.962
X149.789Y-92.275
X149.904Y-111.676
X150.023Y-101.62
X150.274Y-94.501
X150.3Y-90.125
X150.357Y-93.037
X150.85Y-106.1
X151.236Y-89.425
X151.375Y-80.475
X151.875Y-100.625
X152.479Y-99.835
X152.775Y-113.625
X152.843Y-94.825
X152.955Y-92.306
X153.212Y-93.063
X153.435Y-107.285
X153.526Y-94.296
X153.575Y-75.825
X153.725Y-105.375
X154.118Y-91.575
X154.15Y-95.07
X154.326Y-74.389
X154.425Y-82.725
X154.475Y-93.198
X154.575Y-105.525
X154.777Y-103.466
X155.125Y-74.425
X155.175Y-108.525
X155.225Y-111.425
X155.291Y-107.117
X155.475Y-107.925
X155.525Y-79.025
X155.81Y-91.208
X155.847Y-87.417
X155.875Y-82.925
X155.875Y-83.925
X156.213Y-93.199
X156.284Y-79.278
X156.329Y-80.079
X156.605Y-99.625
X156.613Y-93.998
X156.725Y-106.2
X156.75Y-87.325
X157.15Y-92.075
X157.325Y-90.075
X157.475Y-93.3
X157.525Y-74.825
X157.608Y-113.451
X157.625Y-87.575
X157.775Y-100.375
X157.875Y-94.825
X157.975Y-80.525
X158.262Y-98.245
X158.275Y-108.126
X158.32Y-85.971
X158.395Y-113.596
X158.475Y-92.225
X158.483Y-110.751
X158.525Y-75.025
X158.775Y-100.425
X159.175Y-109.635
X159.475Y-81.725
X159.475Y-82.625
X159.475Y-83.625
X159.475Y-84.525
X159.517Y-80.682
X159.575Y-88.225
X160.037Y-107.725
X160.175Y-112.275
X160.375Y-103.452
X160.65Y-108.425
X160.685Y-105.506
X161.022Y-100.426
X161.224Y-104.426
X161.224Y-96.425
X161.226Y-97.274
X161.667Y-77.328
X161.889Y-74.413
X162.198Y-95.651
X162.424Y-77.069
X162.625Y-77.725
X162.625Y-78.525
X162.625Y-79.225
X162.625Y-79.925
X162.625Y-80.625
X162.625Y-81.325
X162.625Y-82.025
X162.85Y-93.825
X162.925Y-82.725
X162.925Y-84.025
X162.925Y-84.725
X162.925Y-85.425
X162.974Y-110.2
X162.981Y-95.489
X163.005Y-90.562
X163.031Y-76.549
X163.074Y-88.522
X163.075Y-87.722
X163.229Y-91.329
X163.425Y-77.725
X163.425Y-78.525
X163.425Y-79.225
X163.425Y-79.925
X163.425Y-80.625
X163.425Y-81.325
X163.425Y-82.025
X163.624Y-92.045
X163.825Y-77.025
X163.825Y-82.725
X163.825Y-84.025
X163.825Y-84.725
X163.825Y-85.425
X163.825Y-110.675
X163.975Y-86.125
X163.975Y-108.425
X164.125Y-74.925
X164.125Y-75.625
X164.125Y-76.225
X164.125Y-77.725
X164.125Y-78.525
X164.125Y-79.225
X164.125Y-79.925
X164.125Y-80.625
X164.125Y-81.325
X164.125Y-82.025
X164.425Y-74.325
X164.525Y-77.025
X164.525Y-82.725
X164.525Y-84.025
X164.525Y-84.725
X164.525Y-85.525
X164.675Y-86.325
X164.75Y-110.625
X164.825Y-74.925
X164.825Y-75.625
X164.825Y-76.325
X164.825Y-77.725
X164.825Y-78.525
X164.825Y-79.225
X164.825Y-79.925
X164.825Y-80.625
X164.825Y-81.325
X164.825Y-82.025
X164.875Y-93.125
X164.875Y-90.525
X165.125Y-85.825
X165.199Y-94.302
X165.225Y-77.025
X165.325Y-82.725
X165.325Y-84.025
X165.325Y-84.725
X165.404Y-87.316
X165.525Y-77.625
X165.525Y-78.425
X165.525Y-79.225
X165.525Y-82.025
X165.725Y-79.925
X165.725Y-80.625
X165.725Y-81.325
X165.725Y-85.325
X165.725Y-86.125
X166.05Y-76.925
X166.125Y-83.968
X166.225Y-86.65
X166.275Y-84.625
X166.325Y-85.725
X166.375Y-77.55
X166.475Y-80.225
X166.475Y-80.925
X166.825Y-85.125
X166.825Y-86.225
X166.848Y-84.0
X166.925Y-74.625
X166.925Y-75.325
X166.925Y-76.0
X167.325Y-85.725
X167.425Y-84.825
X167.5Y-83.663
X167.525Y-86.425
X167.825Y-74.625
X167.825Y-75.325
X167.825Y-76.0
X167.975Y-85.525
X168.075Y-83.225
X168.075Y-84.825
X168.174Y-82.589
X168.175Y-84.025
X168.275Y-86.125
X168.375Y-78.425
X168.375Y-79.125
X168.375Y-79.825
X168.375Y-81.925
X168.386Y-77.742
X168.386Y-81.242
X168.424Y-76.975
X168.424Y-80.475
X168.775Y-84.925
X168.775Y-85.625
X168.975Y-86.425
X169.15Y-76.975
X169.15Y-77.675
X169.15Y-78.375
X169.175Y-79.125
X169.175Y-79.825
X169.175Y-80.525
X169.375Y-85.425
X169.675Y-74.625
X169.675Y-75.325
X169.675Y-76.025
X169.975Y-76.975
X169.975Y-77.675
X169.975Y-78.375
X170.0Y-79.125
X170.0Y-79.825
X170.275Y-86.4
X170.475Y-74.625
X170.475Y-75.325
X170.475Y-76.025
X170.575Y-103.225
X170.935Y-99.925
X170.95Y-78.475
X170.975Y-79.225
X170.975Y-79.925
X171.045Y-97.215
X171.275Y-74.625
X171.495Y-86.465
X171.555Y-88.415
X171.675Y-90.125
X171.675Y-102.025
X172.05Y-78.775
X172.075Y-74.625
X172.075Y-79.525
X172.109Y-80.209
X172.85Y-78.775
X172.875Y-79.525
X172.875Y-80.225
X173.075Y-74.625
X173.245Y-90.095
X173.445Y-100.715
X173.485Y-103.285
X173.535Y-93.285
X173.535Y-94.365
X173.535Y-96.275
X173.535Y-98.355
X173.65Y-78.575
X173.675Y-79.325
X173.675Y-80.025
X173.775Y-80.925
X174.075Y-75.325
X174.565Y-105.095
X174.575Y-76.225
X174.575Y-77.425
X174.65Y-78.575
X174.675Y-79.325
X174.675Y-80.025
X174.675Y-80.725
X174.855Y-108.595
T2
X126.285Y-106.465
X129.005Y-105.835
X147.519Y-80.269
X157.254Y-84.743
X157.515Y-83.725
X157.535Y-82.455
X169.425Y-110.475
X172.745Y-86.595
X173.085Y-88.515
X174.495Y-84.575
X174.835Y-106.475
T3
X166.775Y-88.525
X166.775Y-91.025
X166.775Y-93.525
X166.775Y-96.025
X166.775Y-98.525
X166.775Y-101.025
X169.775Y-88.525
X169.775Y-91.025
X169.775Y-93.525
X169.775Y-96.025
X169.775Y-98.525
X169.775Y-101.025
T4
X132.435Y-76.235
X132.435Y-81.315
X134.975Y-78.775
X137.515Y-76.235
X137.515Y-81.315
T5
X171.275Y-83.025
X171.275Y-106.525
M30
