M48
; DRILL file {KiCad 7.0.2} date Tue Dec 12 16:08:51 2023
; FORMAT={-:-/ absolute / metric / decimal}
; #@! TF.CreationDate,2023-12-12T16:08:51+03:00
; #@! TF.GenerationSoftware,Kicad,Pcbnew,7.0.2
; #@! TF.FileFunction,Plated,1,4,PTH
FMAT,2
METRIC
; #@! TA.AperFunction,Plated,PTH,ViaDrill
T1C0.300
; #@! TA.AperFunction,Plated,PTH,ViaDrill
T2C0.400
; #@! TA.AperFunction,Plated,PTH,ComponentDrill
T3C1.200
%
G90
G05
T1
X224.0Y-71.4
X224.1Y-91.6
X224.719Y-85.95
X225.2Y-101.8
X225.4Y-98.4
X227.5Y-100.8
X228.0Y-70.4
X228.0Y-71.2
X228.2Y-71.9
X228.5Y-88.4
X228.5Y-98.9
X228.6Y-103.4
X228.7Y-95.3
X228.75Y-66.5
X228.75Y-67.3
X228.75Y-69.6
X228.75Y-70.5
X228.75Y-71.25
X229.0Y-71.9
X229.2Y-68.0
X229.2Y-68.8
X229.3Y-92.7
X229.5Y-69.6
X229.5Y-70.5
X229.5Y-71.25
X229.6Y-86.25
X229.7Y-66.5
X229.7Y-67.3
X229.75Y-106.1
X229.8Y-71.9
X229.8Y-97.0
X229.8Y-98.8
X230.0Y-83.8
X230.0Y-95.2
X230.1Y-68.0
X230.1Y-68.8
X230.25Y-70.5
X230.25Y-71.25
X230.25Y-86.25
X230.25Y-88.55
X230.4Y-100.6
X230.6Y-71.9
X230.65Y-80.724
X230.8Y-83.8
X230.95Y-86.25
X231.0Y-68.0
X231.0Y-68.8
X231.0Y-70.5
X231.0Y-71.25
X231.0Y-104.1
X231.3Y-71.9
X231.55Y-83.8
X231.7Y-86.25
X231.75Y-70.5
X231.75Y-71.25
X231.8Y-68.8
X231.9Y-68.0
X232.1Y-71.9
X232.1Y-80.1
X232.25Y-100.75
X232.3Y-83.8
X232.3Y-84.5
X232.3Y-85.2
X232.3Y-85.9
X232.5Y-70.5
X232.5Y-71.25
X232.8Y-98.9
X232.9Y-66.5
X232.95Y-103.11
X233.05Y-105.6
X233.25Y-70.5
X233.25Y-71.25
X233.3Y-67.1
X233.5Y-69.75
X233.8Y-72.1
X233.9Y-66.5
X234.0Y-70.5
X234.0Y-71.25
X234.1Y-67.6
X234.15Y-69.0
X234.25Y-69.75
X234.9Y-66.5
X234.9Y-67.4
X235.0Y-98.8
X235.5Y-66.8
X235.5Y-72.1
X235.6Y-95.001
X235.7Y-102.397
X235.827Y-68.842
X235.833Y-67.658
X236.25Y-69.5
X236.3Y-70.2
X236.3Y-70.9
X236.3Y-71.6
X236.3Y-72.4
X236.4Y-66.9
X236.6Y-67.658
X236.65Y-105.775
X236.75Y-68.842
X236.9Y-89.0
X237.0Y-69.5
X237.05Y-70.2
X237.05Y-70.9
X237.05Y-71.6
X237.1Y-72.4
X237.1Y-76.6
X237.1Y-77.4
X237.12Y-92.4
X237.12Y-91.383
X237.2Y-66.9
X237.327Y-98.773
X237.35Y-104.224
X237.4Y-67.658
X237.401Y-105.45
X237.5Y-68.842
X237.5Y-99.75
X237.7Y-69.5
X237.705Y-102.648
X237.75Y-70.2
X237.75Y-70.9
X237.75Y-71.6
X237.8Y-72.4
X238.0Y-66.8
X238.2Y-67.5
X238.269Y-68.853
X238.4Y-69.7
X238.5Y-70.5
X238.5Y-71.2
X238.5Y-72.2
X238.9Y-66.8
X238.954Y-67.8
X239.0Y-69.25
X239.158Y-70.25
X239.543Y-68.101
X239.6Y-67.3
X240.0Y-66.5
X240.0Y-92.0
X240.1Y-68.6
X240.2Y-67.8
X240.4Y-69.3
X240.4Y-70.2
X240.4Y-72.4
X240.5Y-67.0
X240.6Y-71.1
X240.7Y-71.8
X240.7Y-102.5
X240.8Y-94.8
X240.9Y-68.4
X241.0Y-67.6
X241.1Y-66.5
X241.1Y-69.1
X241.1Y-69.9
X241.2Y-70.7
X241.2Y-72.4
X241.2Y-75.4
X241.3Y-71.5
X241.474Y-102.7
X241.6Y-67.0
X241.9Y-69.7
X241.95Y-92.1
X242.1Y-75.4
X242.282Y-102.7
X242.3Y-66.5
X242.3Y-67.2
X242.3Y-84.1
X242.4Y-76.6
X242.4Y-77.4
X242.5Y-99.4
X242.9Y-69.7
X242.999Y-103.173
X243.0Y-75.4
X243.1Y-66.5
X243.1Y-67.2
X243.2Y-76.7
X243.2Y-77.4
X243.2Y-84.1
X243.3Y-82.9
X243.6Y-69.4
X243.6Y-70.2
X243.7Y-67.7
X243.8Y-93.6
X243.9Y-66.5
X243.9Y-75.4
X243.9Y-95.1
X243.9Y-96.4
X244.1Y-84.1
X244.2Y-68.6
X244.3Y-82.9
X244.4Y-67.1
X244.4Y-67.8
X244.4Y-69.4
X244.4Y-70.3
X244.4Y-71.0
X244.4Y-71.8
X245.0Y-68.6
X245.0Y-84.1
X245.1Y-67.1
X245.1Y-67.8
X245.1Y-72.35
X245.15Y-69.8
X245.15Y-70.65
X245.15Y-71.4
X245.4Y-77.325
X245.4Y-82.9
X245.5Y-66.5
X245.6Y-78.1
X245.65Y-68.85
X245.7Y-92.8
X245.7Y-94.3
X245.7Y-95.5
X245.9Y-67.1
X245.9Y-67.8
X245.9Y-72.6
X245.908Y-70.232
X245.908Y-71.025
X245.908Y-71.775
X245.976Y-69.472
X246.024Y-103.291
X246.099Y-102.2
X246.25Y-100.75
X246.348Y-68.735
X246.55Y-99.65
X246.6Y-96.3
X246.7Y-66.8
X246.7Y-67.5
X246.8Y-103.6
X246.901Y-68.225
X247.092Y-71.1
X247.1Y-70.275
X247.1Y-71.9
X247.173Y-90.1
X247.2Y-72.65
X247.316Y-69.422
X247.45Y-66.6
X247.485Y-80.835
X247.55Y-84.45
X247.55Y-102.899
X247.612Y-67.872
X247.65Y-99.65
X247.8Y-80.1
X247.85Y-70.925
X247.85Y-96.3
X247.893Y-88.107
X247.9Y-71.8
X247.9Y-104.2
X248.0Y-70.15
X248.05Y-67.1
X248.05Y-83.55
X248.075Y-69.0
X248.3Y-72.45
X248.3Y-82.3
X248.433Y-67.734
X248.5Y-69.6
X248.7Y-71.1
X248.7Y-71.8
X248.825Y-70.4
X248.85Y-67.15
X248.85Y-68.925
X249.15Y-72.45
X249.2Y-67.733
X249.2Y-69.6
X249.4Y-66.8
X249.5Y-71.1
X249.5Y-71.8
X249.575Y-68.925
X249.8Y-70.425
X249.8Y-77.8
X249.8Y-91.6
X249.85Y-96.35
X249.9Y-94.7
X249.95Y-72.4
X250.0Y-69.6
X250.009Y-67.727
X250.15Y-66.8
X250.3Y-71.1
X250.3Y-71.8
X250.45Y-89.65
X250.6Y-78.1
X250.6Y-95.8
X250.65Y-100.05
X250.7Y-69.6
X250.7Y-70.4
X250.7Y-101.92
X250.75Y-72.4
X250.8Y-90.6
X250.95Y-66.8
X250.95Y-82.05
X251.0Y-71.1
X251.0Y-71.8
X251.114Y-67.628
X251.299Y-85.249
X251.475Y-69.95
X251.499Y-69.225
X251.5Y-75.7
X251.5Y-78.1
X251.6Y-70.675
X251.6Y-87.5
X251.7Y-82.65
X251.725Y-71.4
X251.75Y-66.8
X251.75Y-72.125
X251.867Y-67.51
X252.175Y-69.95
X252.199Y-69.225
X252.3Y-70.675
X252.364Y-86.145
X252.4Y-79.2
X252.425Y-71.4
X252.489Y-82.779
X252.584Y-84.3
X252.624Y-86.9
X252.65Y-66.8
X252.65Y-67.505
X252.65Y-72.125
X252.7Y-78.1
X252.899Y-69.225
X252.9Y-96.55
X252.975Y-69.95
X252.98Y-100.6
X253.1Y-70.675
X253.104Y-79.579
X253.225Y-71.4
X253.35Y-72.125
X253.35Y-84.7
X253.49Y-67.549
X253.65Y-66.8
X253.742Y-87.497
X253.8Y-70.4
X254.0Y-78.1
X254.1Y-71.1
X254.1Y-71.8
X254.1Y-105.85
X254.184Y-84.83
X254.25Y-67.55
X254.443Y-69.13
X254.5Y-70.4
X254.5Y-87.75
X254.55Y-66.8
X254.8Y-71.1
X254.8Y-71.8
X254.875Y-69.75
X255.07Y-67.545
X255.1Y-82.6
X255.192Y-92.308
X255.199Y-69.125
X255.3Y-70.4
X255.349Y-83.576
X255.367Y-100.95
X255.4Y-66.8
X255.4Y-84.4
X255.6Y-69.725
X255.6Y-71.1
X255.6Y-71.775
X255.849Y-90.953
X255.905Y-67.506
X255.991Y-69.133
X256.1Y-83.3
X256.175Y-70.4
X256.2Y-66.8
X256.25Y-85.35
X256.25Y-106.37
X256.3Y-71.775
X256.3Y-82.2
X256.35Y-97.655
X256.4Y-71.1
X256.4Y-92.2
X256.78Y-95.27
X256.8Y-67.545
X256.8Y-70.0
X257.05Y-66.8
X257.07Y-106.32
X257.076Y-93.339
X257.1Y-70.7
X257.1Y-71.5
X257.135Y-90.443
X257.575Y-70.0
X257.65Y-67.531
X257.65Y-96.8
X257.9Y-70.7
X257.9Y-71.5
X258.0Y-66.8
X258.4Y-70.0
X258.628Y-67.733
X258.7Y-70.7
X258.7Y-71.5
X258.75Y-66.8
X258.85Y-68.917
X259.2Y-70.0
X259.224Y-96.824
X259.341Y-67.369
X259.5Y-70.7
X259.5Y-71.5
X259.65Y-69.4
X259.75Y-66.8
X259.75Y-94.6
X260.0Y-83.65
X260.0Y-88.2
X260.1Y-70.0
X260.265Y-96.85
X260.3Y-70.7
X260.3Y-71.5
X260.4Y-76.716
X260.45Y-92.7
X260.6Y-106.3
X260.9Y-100.314
X261.1Y-70.7
X261.1Y-71.5
X261.25Y-82.15
X261.267Y-76.117
X261.3Y-67.95
X261.3Y-68.65
X261.35Y-79.9
X261.85Y-86.05
X261.9Y-70.7
X261.9Y-71.5
X261.9Y-106.3
X262.3Y-67.95
X262.3Y-68.65
X262.45Y-86.95
X262.65Y-85.3
X262.7Y-70.7
X262.7Y-71.5
X262.75Y-82.15
X263.1Y-66.8
X263.1Y-67.6
X263.1Y-68.4
X263.1Y-69.2
X263.1Y-70.0
X263.1Y-106.3
X263.5Y-70.7
X263.5Y-71.5
X263.5Y-96.55
X263.75Y-94.85
X263.9Y-66.8
X263.9Y-67.6
X263.9Y-68.4
X263.9Y-69.2
X263.9Y-70.0
X264.05Y-85.05
X264.1Y-98.2
X264.3Y-70.7
X264.3Y-71.5
X264.3Y-75.224
X264.4Y-103.75
X264.65Y-92.65
X264.7Y-66.8
X264.7Y-67.6
X264.7Y-68.4
X264.7Y-69.2
X264.7Y-70.0
X264.75Y-83.7
X264.862Y-99.0
X265.1Y-70.7
X265.1Y-71.5
X265.5Y-66.8
X265.5Y-67.6
X265.5Y-68.4
X265.5Y-69.2
X265.5Y-70.0
X265.659Y-99.066
X265.9Y-70.7
X265.9Y-71.5
X266.2Y-66.8
X266.2Y-67.6
X266.2Y-68.4
X266.2Y-69.2
X266.2Y-70.0
X266.55Y-105.8
X266.7Y-70.7
X266.7Y-71.5
X267.2Y-66.8
X267.2Y-67.6
X267.2Y-68.4
X267.2Y-69.2
X267.2Y-70.0
X267.6Y-85.8
X267.8Y-71.6
X268.2Y-100.8
X268.6Y-75.5
X268.6Y-105.6
X269.6Y-73.5
X269.8Y-75.9
X270.1Y-79.7
X270.2Y-81.8
X272.1Y-105.7
X272.3Y-89.5
X272.3Y-100.8
X272.4Y-76.8
X272.6Y-99.2
X272.7Y-79.8
X272.7Y-96.7
X272.9Y-82.8
X272.9Y-86.5
X272.9Y-92.6
T2
X237.7Y-80.1
X238.9Y-80.1
X239.9Y-80.1
X241.0Y-80.1
X242.1Y-80.1
X242.2Y-81.2
X242.2Y-82.2
X268.32Y-98.5
T3
X228.95Y-74.3
X228.95Y-77.8
X265.88Y-93.76
X265.88Y-96.26
X265.985Y-77.5
X265.985Y-80.0
X265.985Y-82.5
X268.38Y-93.76
X268.38Y-96.26
X268.485Y-77.5
X268.485Y-80.0
X268.485Y-82.5
T0
M30
