G04 #@! TF.GenerationSoftware,KiCad,Pcbnew,7.0.2*
G04 #@! TF.CreationDate,2023-12-12T10:52:05+03:00*
G04 #@! TF.ProjectId,GPS_MODULE_V3.kicad_pro,4750535f-4d4f-4445-954c-455f56332e6b,rev?*
G04 #@! TF.SameCoordinates,Original*
G04 #@! TF.FileFunction,Paste,Bot*
G04 #@! TF.FilePolarity,Positive*
%FSLAX46Y46*%
G04 Gerber Fmt 4.6, Leading zero omitted, Abs format (unit mm)*
G04 Created by KiCad (PCBNEW 7.0.2) date 2023-12-12 10:52:05*
%MOMM*%
%LPD*%
G01*
G04 APERTURE LIST*
G04 Aperture macros list*
%AMRoundRect*
0 Rectangle with rounded corners*
0 $1 Rounding radius*
0 $2 $3 $4 $5 $6 $7 $8 $9 X,Y pos of 4 corners*
0 Add a 4 corners polygon primitive as box body*
4,1,4,$2,$3,$4,$5,$6,$7,$8,$9,$2,$3,0*
0 Add four circle primitives for the rounded corners*
1,1,$1+$1,$2,$3*
1,1,$1+$1,$4,$5*
1,1,$1+$1,$6,$7*
1,1,$1+$1,$8,$9*
0 Add four rect primitives between the rounded corners*
20,1,$1+$1,$2,$3,$4,$5,0*
20,1,$1+$1,$4,$5,$6,$7,0*
20,1,$1+$1,$6,$7,$8,$9,0*
20,1,$1+$1,$8,$9,$2,$3,0*%
G04 Aperture macros list end*
%ADD10R,1.050000X1.000000*%
%ADD11R,2.200000X1.050000*%
%ADD12RoundRect,0.150000X-0.587500X-0.150000X0.587500X-0.150000X0.587500X0.150000X-0.587500X0.150000X0*%
%ADD13RoundRect,0.135000X-0.135000X-0.185000X0.135000X-0.185000X0.135000X0.185000X-0.135000X0.185000X0*%
%ADD14RoundRect,0.135000X0.135000X0.185000X-0.135000X0.185000X-0.135000X-0.185000X0.135000X-0.185000X0*%
%ADD15RoundRect,0.147500X0.172500X-0.147500X0.172500X0.147500X-0.172500X0.147500X-0.172500X-0.147500X0*%
%ADD16RoundRect,0.150000X-0.150000X0.587500X-0.150000X-0.587500X0.150000X-0.587500X0.150000X0.587500X0*%
%ADD17RoundRect,0.135000X0.185000X-0.135000X0.185000X0.135000X-0.185000X0.135000X-0.185000X-0.135000X0*%
%ADD18RoundRect,0.135000X-0.185000X0.135000X-0.185000X-0.135000X0.185000X-0.135000X0.185000X0.135000X0*%
%ADD19RoundRect,0.140000X-0.170000X0.140000X-0.170000X-0.140000X0.170000X-0.140000X0.170000X0.140000X0*%
%ADD20RoundRect,0.150000X0.150000X-0.587500X0.150000X0.587500X-0.150000X0.587500X-0.150000X-0.587500X0*%
%ADD21RoundRect,0.140000X0.170000X-0.140000X0.170000X0.140000X-0.170000X0.140000X-0.170000X-0.140000X0*%
%ADD22RoundRect,0.250000X0.425000X-0.450000X0.425000X0.450000X-0.425000X0.450000X-0.425000X-0.450000X0*%
%ADD23RoundRect,0.200000X0.200000X0.275000X-0.200000X0.275000X-0.200000X-0.275000X0.200000X-0.275000X0*%
%ADD24RoundRect,0.140000X-0.140000X-0.170000X0.140000X-0.170000X0.140000X0.170000X-0.140000X0.170000X0*%
%ADD25RoundRect,0.147500X-0.147500X-0.172500X0.147500X-0.172500X0.147500X0.172500X-0.147500X0.172500X0*%
%ADD26RoundRect,0.225000X-0.375000X0.225000X-0.375000X-0.225000X0.375000X-0.225000X0.375000X0.225000X0*%
%ADD27RoundRect,0.140000X0.140000X0.170000X-0.140000X0.170000X-0.140000X-0.170000X0.140000X-0.170000X0*%
%ADD28O,2.000000X0.600000*%
%ADD29O,0.600000X2.000000*%
%ADD30R,0.250000X0.180000*%
%ADD31RoundRect,0.237500X-0.287500X-0.237500X0.287500X-0.237500X0.287500X0.237500X-0.287500X0.237500X0*%
G04 APERTURE END LIST*
D10*
X260000000Y-68350000D03*
D11*
X261525000Y-69825000D03*
X261525000Y-66875000D03*
D12*
X226762500Y-90650000D03*
X226762500Y-88750000D03*
X228637500Y-89700000D03*
D13*
X253280000Y-100110000D03*
X254300000Y-100110000D03*
D14*
X225167500Y-94940000D03*
X224147500Y-94940000D03*
D15*
X257825000Y-69295000D03*
X257825000Y-68325000D03*
D16*
X262350000Y-78512500D03*
X264250000Y-78512500D03*
X263300000Y-80387500D03*
D17*
X253240000Y-105935000D03*
X253240000Y-104915000D03*
D14*
X231200000Y-89540000D03*
X230180000Y-89540000D03*
D18*
X242800000Y-100900000D03*
X242800000Y-101920000D03*
D19*
X243900000Y-100930000D03*
X243900000Y-101890000D03*
D20*
X266460000Y-102327500D03*
X264560000Y-102327500D03*
X265510000Y-100452500D03*
D17*
X257370000Y-105550000D03*
X257370000Y-104530000D03*
D13*
X254715000Y-68325000D03*
X255735000Y-68325000D03*
D21*
X256725000Y-69285000D03*
X256725000Y-68325000D03*
D17*
X260760000Y-105090000D03*
X260760000Y-104070000D03*
D18*
X262060000Y-75992500D03*
X262060000Y-77012500D03*
D13*
X227597500Y-87180000D03*
X228617500Y-87180000D03*
D18*
X262800000Y-104090000D03*
X262800000Y-105110000D03*
D22*
X242500000Y-71250000D03*
X242500000Y-68550000D03*
D12*
X226662500Y-94950000D03*
X226662500Y-93050000D03*
X228537500Y-94000000D03*
X228312500Y-85750000D03*
X228312500Y-83850000D03*
X230187500Y-84800000D03*
D23*
X232252500Y-91120000D03*
X230602500Y-91120000D03*
D24*
X231855000Y-75880000D03*
X232815000Y-75880000D03*
D25*
X231900000Y-73750000D03*
X232870000Y-73750000D03*
D24*
X231855000Y-74800000D03*
X232815000Y-74800000D03*
D19*
X237300000Y-100920000D03*
X237300000Y-101880000D03*
D13*
X261060000Y-99230000D03*
X262080000Y-99230000D03*
D10*
X233025000Y-68400000D03*
D11*
X231500000Y-66925000D03*
X231500000Y-69875000D03*
D15*
X235050000Y-69220000D03*
X235050000Y-68250000D03*
D23*
X232242500Y-92640000D03*
X230592500Y-92640000D03*
D26*
X225907500Y-83730000D03*
X225907500Y-87030000D03*
D21*
X253725000Y-69285000D03*
X253725000Y-68325000D03*
D18*
X241700000Y-100900000D03*
X241700000Y-101920000D03*
X259300000Y-104560000D03*
X259300000Y-105580000D03*
X240600000Y-100900000D03*
X240600000Y-101920000D03*
D13*
X224270000Y-88640000D03*
X225290000Y-88640000D03*
D17*
X266480000Y-104880000D03*
X266480000Y-103860000D03*
D18*
X255370000Y-104915000D03*
X255370000Y-105935000D03*
D27*
X232845000Y-72700000D03*
X231885000Y-72700000D03*
D21*
X250625000Y-69285000D03*
X250625000Y-68325000D03*
D18*
X263070000Y-75982500D03*
X263070000Y-77002500D03*
D20*
X262840000Y-102617500D03*
X260940000Y-102617500D03*
X261890000Y-100742500D03*
D19*
X239500000Y-100930000D03*
X239500000Y-101890000D03*
D18*
X238400000Y-100900000D03*
X238400000Y-101920000D03*
D20*
X259340000Y-103067500D03*
X257440000Y-103067500D03*
X258390000Y-101192500D03*
D14*
X231027500Y-94000000D03*
X230007500Y-94000000D03*
D17*
X265300000Y-104820000D03*
X265300000Y-103800000D03*
D13*
X257100000Y-99610000D03*
X258120000Y-99610000D03*
D20*
X255260000Y-103477500D03*
X253360000Y-103477500D03*
X254310000Y-101602500D03*
D13*
X224147500Y-92900000D03*
X225167500Y-92900000D03*
D18*
X235040000Y-70200000D03*
X235040000Y-71220000D03*
D25*
X251640000Y-68325000D03*
X252610000Y-68325000D03*
D28*
X258500000Y-78000000D03*
X258500000Y-79000000D03*
X258500000Y-80000000D03*
X258500000Y-81000000D03*
X258500000Y-82000000D03*
X258500000Y-83000000D03*
X258500000Y-84000000D03*
X258500000Y-85000000D03*
X258500000Y-86000000D03*
X258500000Y-87000000D03*
X258500000Y-88000000D03*
X258500000Y-89000000D03*
X258500000Y-90000000D03*
X258500000Y-91000000D03*
X258500000Y-92000000D03*
X258500000Y-93000000D03*
X258500000Y-94000000D03*
D29*
X254500000Y-98000000D03*
X253500000Y-98000000D03*
X252500000Y-98000000D03*
X251500000Y-98000000D03*
X250500000Y-98000000D03*
X249500000Y-98000000D03*
X248500000Y-98000000D03*
X247500000Y-98000000D03*
X246500000Y-98000000D03*
X245500000Y-98000000D03*
X244500000Y-98000000D03*
X243500000Y-98000000D03*
X242500000Y-98000000D03*
X241500000Y-98000000D03*
X240500000Y-98000000D03*
X239500000Y-98000000D03*
X238500000Y-98000000D03*
D28*
X234500000Y-94000000D03*
X234500000Y-93000000D03*
X234500000Y-92000000D03*
X234500000Y-91000000D03*
X234500000Y-90000000D03*
X234500000Y-89000000D03*
X234500000Y-88000000D03*
X234500000Y-87000000D03*
X234500000Y-86000000D03*
X234500000Y-85000000D03*
X234500000Y-84000000D03*
X234500000Y-83000000D03*
X234500000Y-82000000D03*
X234500000Y-81000000D03*
X234500000Y-80000000D03*
X234500000Y-79000000D03*
X234500000Y-78000000D03*
D29*
X238500000Y-74000000D03*
X239500000Y-74000000D03*
X240500000Y-74000000D03*
X241500000Y-74000000D03*
X242500000Y-74000000D03*
X243500000Y-74000000D03*
X244500000Y-74000000D03*
X245500000Y-74000000D03*
X246500000Y-74000000D03*
X247500000Y-74000000D03*
X248500000Y-74000000D03*
X249500000Y-74000000D03*
X250500000Y-74000000D03*
X251500000Y-74000000D03*
X252500000Y-74000000D03*
X253500000Y-74000000D03*
X254500000Y-74000000D03*
D30*
X239750000Y-70880000D03*
X240000000Y-71265000D03*
X240000000Y-71650000D03*
X239500000Y-71650000D03*
X239500000Y-71265000D03*
D14*
X225260000Y-90750000D03*
X224240000Y-90750000D03*
D31*
X225422500Y-82060000D03*
X227172500Y-82060000D03*
M02*
