G04 #@! TF.GenerationSoftware,KiCad,Pcbnew,7.0.2*
G04 #@! TF.CreationDate,2023-12-12T16:08:46+03:00*
G04 #@! TF.ProjectId,GPS_MODULE_V3.kicad_pro,4750535f-4d4f-4445-954c-455f56332e6b,rev?*
G04 #@! TF.SameCoordinates,Original*
G04 #@! TF.FileFunction,Copper,L3,Inr*
G04 #@! TF.FilePolarity,Positive*
%FSLAX46Y46*%
G04 Gerber Fmt 4.6, Leading zero omitted, Abs format (unit mm)*
G04 Created by KiCad (PCBNEW 7.0.2) date 2023-12-12 16:08:46*
%MOMM*%
%LPD*%
G01*
G04 APERTURE LIST*
G04 Aperture macros list*
%AMRoundRect*
0 Rectangle with rounded corners*
0 $1 Rounding radius*
0 $2 $3 $4 $5 $6 $7 $8 $9 X,Y pos of 4 corners*
0 Add a 4 corners polygon primitive as box body*
4,1,4,$2,$3,$4,$5,$6,$7,$8,$9,$2,$3,0*
0 Add four circle primitives for the rounded corners*
1,1,$1+$1,$2,$3*
1,1,$1+$1,$4,$5*
1,1,$1+$1,$6,$7*
1,1,$1+$1,$8,$9*
0 Add four rect primitives between the rounded corners*
20,1,$1+$1,$2,$3,$4,$5,0*
20,1,$1+$1,$4,$5,$6,$7,0*
20,1,$1+$1,$6,$7,$8,$9,0*
20,1,$1+$1,$8,$9,$2,$3,0*%
G04 Aperture macros list end*
G04 #@! TA.AperFunction,ComponentPad*
%ADD10R,2.400000X2.400000*%
G04 #@! TD*
G04 #@! TA.AperFunction,ComponentPad*
%ADD11C,2.400000*%
G04 #@! TD*
G04 #@! TA.AperFunction,ComponentPad*
%ADD12RoundRect,0.250000X-0.600000X-0.600000X0.600000X-0.600000X0.600000X0.600000X-0.600000X0.600000X0*%
G04 #@! TD*
G04 #@! TA.AperFunction,ComponentPad*
%ADD13C,1.700000*%
G04 #@! TD*
G04 #@! TA.AperFunction,ViaPad*
%ADD14C,0.600000*%
G04 #@! TD*
G04 #@! TA.AperFunction,ViaPad*
%ADD15C,0.800000*%
G04 #@! TD*
G04 #@! TA.AperFunction,Conductor*
%ADD16C,0.200000*%
G04 #@! TD*
G04 #@! TA.AperFunction,Conductor*
%ADD17C,0.250000*%
G04 #@! TD*
G04 #@! TA.AperFunction,Conductor*
%ADD18C,0.525000*%
G04 #@! TD*
G04 APERTURE END LIST*
D10*
X228950000Y-74300000D03*
D11*
X228950000Y-77800000D03*
D12*
X265880000Y-93760000D03*
D13*
X265880000Y-96260000D03*
X268380000Y-93760000D03*
X268380000Y-96260000D03*
D12*
X265985000Y-77500000D03*
D13*
X265985000Y-80000000D03*
X265985000Y-82500000D03*
X268485000Y-77500000D03*
X268485000Y-80000000D03*
X268485000Y-82500000D03*
D14*
X255100000Y-82600000D03*
X236900000Y-89000000D03*
X247173056Y-90100500D03*
X242300000Y-84100000D03*
X243200000Y-84100000D03*
X244100000Y-84100000D03*
X260400000Y-76716089D03*
X247485061Y-80834859D03*
X245400000Y-82900000D03*
X244300000Y-82900000D03*
X243300000Y-82900000D03*
D15*
X242200000Y-82200000D03*
X242200000Y-81200000D03*
X242100000Y-80100000D03*
X241000000Y-80100000D03*
X239900000Y-80100000D03*
X238900000Y-80100000D03*
X237700000Y-80100000D03*
D14*
X251500000Y-78100000D03*
X245400000Y-77324500D03*
X247800000Y-80100000D03*
X245000000Y-84100000D03*
X249800000Y-77800000D03*
X245600000Y-78100000D03*
X237100000Y-77400000D03*
X237100000Y-76600000D03*
X243200000Y-77400000D03*
X243200000Y-76700000D03*
X242400000Y-77400000D03*
X242400000Y-76600000D03*
X247893246Y-88106754D03*
X230400000Y-100600000D03*
X225200000Y-101800000D03*
X228600000Y-103400000D03*
X272600000Y-99200000D03*
D15*
X268320000Y-98500000D03*
D14*
X272700000Y-96700000D03*
X250750000Y-72400000D03*
X263900000Y-66800000D03*
X246550000Y-99650000D03*
X247100000Y-71900000D03*
X254250000Y-67550000D03*
X255991107Y-69132836D03*
X257100000Y-70700000D03*
X257900000Y-70700000D03*
X272100000Y-105700000D03*
X255070371Y-67544998D03*
X256800000Y-67545500D03*
X251867357Y-67510446D03*
X264300000Y-70700000D03*
X253225000Y-71400000D03*
X255600000Y-69725000D03*
X272900000Y-92600000D03*
X235500000Y-66800000D03*
X265900000Y-70700000D03*
X234150000Y-69000000D03*
X237050000Y-70900000D03*
X248500000Y-69600000D03*
X249800000Y-70425000D03*
X231750000Y-71250000D03*
X252900000Y-96550000D03*
X236600000Y-67657689D03*
X254800000Y-71800000D03*
X253650000Y-66800000D03*
X256300000Y-71775000D03*
X251000000Y-71100000D03*
X256175000Y-70400000D03*
X272400000Y-76800000D03*
X259750000Y-94600000D03*
X233250000Y-70500000D03*
X264700000Y-69200000D03*
X230600000Y-71900000D03*
X228700000Y-95300000D03*
X229000000Y-71900000D03*
X232800000Y-98900000D03*
X247200000Y-72650000D03*
X231000000Y-71250000D03*
X237500000Y-68842311D03*
X258700000Y-71500000D03*
X259500000Y-71500000D03*
X252650000Y-67505500D03*
X260000000Y-83650000D03*
X262300000Y-67950000D03*
X241100000Y-69100000D03*
X242300000Y-66500000D03*
X266200000Y-68400000D03*
X237750000Y-70200000D03*
X262300000Y-68650000D03*
X259500000Y-70700000D03*
X240400000Y-70200000D03*
X235500000Y-72100000D03*
X251500000Y-75700000D03*
X263900000Y-67600000D03*
X243100000Y-67200000D03*
X254800000Y-71100000D03*
X251750000Y-72125000D03*
X224000000Y-71400000D03*
X237750000Y-71600000D03*
X248050000Y-67100000D03*
X261300000Y-68650000D03*
X262700000Y-71500000D03*
X244400000Y-67100000D03*
X265500000Y-69200000D03*
X234100000Y-67600000D03*
X265100000Y-71500000D03*
X243900000Y-66500000D03*
X264400000Y-103750000D03*
X240100000Y-68600000D03*
X240000000Y-92000000D03*
X247900000Y-71800000D03*
X255400000Y-66800000D03*
X233800000Y-72100000D03*
X240600000Y-71100000D03*
X230250000Y-71250000D03*
X269800000Y-75900000D03*
X237000000Y-69500000D03*
X246347674Y-68734851D03*
X239600000Y-67300000D03*
X241900000Y-69700000D03*
X268200000Y-100800000D03*
X252300000Y-70675000D03*
X228750000Y-69600000D03*
X260300000Y-71500000D03*
X237800000Y-72400000D03*
X245700000Y-92800000D03*
X263900000Y-70000000D03*
X234000000Y-71250000D03*
X233300000Y-67100000D03*
X244400000Y-71000000D03*
X233500000Y-69750000D03*
X238400000Y-69700000D03*
X245100000Y-72350000D03*
X254000000Y-78100000D03*
X259650000Y-69400000D03*
X250600000Y-78100000D03*
X238954371Y-67799928D03*
X241200000Y-72400000D03*
X229300000Y-92700000D03*
X264700000Y-70000000D03*
X245100000Y-67100000D03*
X234900000Y-66500000D03*
X250600000Y-95800000D03*
X266700000Y-71500000D03*
X243800000Y-93600000D03*
X237050000Y-70200000D03*
X232500000Y-71250000D03*
X261250000Y-82150000D03*
X243100000Y-66500000D03*
X228750000Y-67300000D03*
X252650000Y-72125000D03*
X241600000Y-67000000D03*
X245100000Y-67800000D03*
X245900000Y-67100000D03*
X229500000Y-69600000D03*
X228000000Y-71200000D03*
X245907689Y-70231621D03*
X270100000Y-79700000D03*
X238000000Y-66800000D03*
X252175000Y-69950000D03*
X234900000Y-67400000D03*
X263100000Y-66800000D03*
X245976345Y-69472448D03*
X238268940Y-68852760D03*
X254500000Y-70400000D03*
X265500000Y-67600000D03*
X230100000Y-68000000D03*
X228750000Y-71250000D03*
X247092311Y-71100000D03*
X255600000Y-71100000D03*
X257575000Y-70000000D03*
X252899400Y-69225000D03*
X252975000Y-69950000D03*
X245700000Y-94300000D03*
X261900000Y-70700000D03*
X263100000Y-106300000D03*
X247612229Y-67872293D03*
X238500000Y-72200000D03*
X248433411Y-67733535D03*
X260300000Y-70700000D03*
X254550000Y-66800000D03*
X263100000Y-70000000D03*
X255199400Y-69125000D03*
X241300000Y-71500000D03*
X231000000Y-70500000D03*
X240800000Y-94800000D03*
X248000000Y-70150000D03*
X264700000Y-67600000D03*
X245907689Y-71775000D03*
X250009041Y-67726654D03*
X254500000Y-87750000D03*
X229500000Y-70500000D03*
X252650000Y-66800000D03*
X263100000Y-68400000D03*
X246700000Y-66800000D03*
X239543129Y-68101378D03*
X249400000Y-66800000D03*
X237700000Y-69500000D03*
X232900000Y-66500000D03*
X265500000Y-70000000D03*
X236750000Y-68842311D03*
X260100000Y-70000000D03*
X237050000Y-71600000D03*
X243600000Y-70200000D03*
X257900000Y-71500000D03*
X238900000Y-66800000D03*
X248700000Y-71100000D03*
X240200000Y-67800000D03*
X242300000Y-67200000D03*
X249200000Y-69600000D03*
X241200000Y-70700000D03*
X254100000Y-71100000D03*
X248850000Y-67150000D03*
X266200000Y-66800000D03*
X255905196Y-67506476D03*
X256400000Y-71100000D03*
X245900000Y-67800000D03*
X244400000Y-70300000D03*
X228500000Y-98900000D03*
X261300000Y-67950000D03*
X245150000Y-70650000D03*
X229200000Y-68800000D03*
X245907689Y-71025000D03*
X240400000Y-69300000D03*
X237200000Y-66900000D03*
X238500000Y-71200000D03*
X240500000Y-67000000D03*
X253800000Y-70400000D03*
X241000000Y-67600000D03*
X244400000Y-71800000D03*
X236300000Y-70200000D03*
X264700000Y-68400000D03*
X250700000Y-69600000D03*
X249200000Y-67732689D03*
X229800000Y-71900000D03*
X231000000Y-104100000D03*
X246600000Y-96300000D03*
X265500000Y-66800000D03*
X231800000Y-68800000D03*
X228750000Y-70500000D03*
X253350000Y-72125000D03*
X251600000Y-70675000D03*
X225400000Y-98400000D03*
X257100000Y-71500000D03*
X267800000Y-71600000D03*
X267200000Y-66800000D03*
X267200000Y-67600000D03*
X243600000Y-69400000D03*
X242998934Y-103173434D03*
X237100000Y-72400000D03*
X264700000Y-66800000D03*
X254875000Y-69750000D03*
X264300000Y-71500000D03*
X268600000Y-75500000D03*
X237326609Y-98773391D03*
X252425000Y-71400000D03*
X266700000Y-70700000D03*
X243700000Y-67700000D03*
X228750000Y-66500000D03*
X245900000Y-72600000D03*
X249575000Y-68925000D03*
X230100000Y-68800000D03*
X256200000Y-66800000D03*
X231750000Y-70500000D03*
X229700000Y-67300000D03*
X265500000Y-68400000D03*
X250000000Y-69600000D03*
X231900000Y-68000000D03*
X255600000Y-71775000D03*
X231300000Y-71900000D03*
X248075000Y-69000000D03*
X263900000Y-68400000D03*
X244400000Y-69400000D03*
X233900000Y-66500000D03*
X259341311Y-67368721D03*
X270200000Y-81800000D03*
X234000000Y-70500000D03*
X232100000Y-71900000D03*
X250300000Y-71800000D03*
X231000000Y-68000000D03*
X238500000Y-70500000D03*
X265100000Y-70700000D03*
X243900000Y-95100000D03*
X251114274Y-67627567D03*
X229800000Y-98800000D03*
X244200000Y-68600000D03*
X251725000Y-71400000D03*
X250150000Y-66800000D03*
X250300000Y-71100000D03*
X266200000Y-70000000D03*
X272300000Y-100800000D03*
X247850000Y-96300000D03*
X258850000Y-68917311D03*
X272300000Y-89500000D03*
X245500000Y-66500000D03*
X240400000Y-72400000D03*
X240900000Y-68400000D03*
X266200000Y-67600000D03*
X235827167Y-68842311D03*
X256800000Y-70000000D03*
X249150000Y-72450000D03*
X241100000Y-69900000D03*
X257134775Y-90443484D03*
X238200000Y-67500000D03*
X247316316Y-69422423D03*
X251499400Y-69225000D03*
X229700000Y-66500000D03*
X255300000Y-70400000D03*
X227500000Y-100800000D03*
X242900000Y-69700000D03*
X268600000Y-105600000D03*
X249800000Y-91600000D03*
X272700000Y-79800000D03*
X261100000Y-70700000D03*
X247650000Y-99650000D03*
X231000000Y-68800000D03*
X263500000Y-70700000D03*
X252700000Y-78100000D03*
X247850000Y-70925000D03*
X267200000Y-68400000D03*
X230250000Y-70500000D03*
X228200000Y-71900000D03*
X245150000Y-69800000D03*
X250700000Y-70400000D03*
X236300000Y-72400000D03*
X248825000Y-70400000D03*
X260000000Y-88200000D03*
X248300000Y-72450000D03*
X263100000Y-67600000D03*
X233250000Y-71250000D03*
X246700000Y-67500000D03*
X259750000Y-66800000D03*
X252199400Y-69225000D03*
X228000000Y-70400000D03*
X262700000Y-70700000D03*
X229800000Y-97000000D03*
X243900000Y-96400000D03*
X257050000Y-66800000D03*
X245700000Y-95500000D03*
X261900000Y-106300000D03*
X267200000Y-69200000D03*
X237750000Y-70900000D03*
X265900000Y-71500000D03*
X258000000Y-66800000D03*
X249850000Y-96350000D03*
X245150000Y-71400000D03*
X257649699Y-67530506D03*
X228500000Y-88400000D03*
X258627932Y-67732689D03*
X229200000Y-68000000D03*
X249950000Y-72400000D03*
X235000000Y-98800000D03*
X232500000Y-70500000D03*
X263100000Y-69200000D03*
X263900000Y-69200000D03*
X258750000Y-66800000D03*
X247100000Y-70275000D03*
X235833053Y-67657689D03*
X236300000Y-71600000D03*
X248850000Y-68925000D03*
X247450000Y-66600000D03*
X253100000Y-70675000D03*
X237400000Y-67657689D03*
X251000000Y-71800000D03*
X248700000Y-71800000D03*
X239000000Y-69250000D03*
X245000000Y-68600000D03*
X266200000Y-69200000D03*
X258700000Y-70700000D03*
X234250000Y-69750000D03*
X236250000Y-69500000D03*
X261100000Y-71500000D03*
X251475000Y-69950000D03*
X246901322Y-68225389D03*
X250950000Y-66800000D03*
X272900000Y-82800000D03*
X267200000Y-70000000D03*
X239157689Y-70250000D03*
X259200000Y-70000000D03*
X240700000Y-71800000D03*
X250800000Y-90600000D03*
X263500000Y-71500000D03*
X249900000Y-94700000D03*
X229500000Y-71250000D03*
X236300000Y-70900000D03*
X249500000Y-71800000D03*
X240000000Y-66500000D03*
X241100000Y-66500000D03*
X254443470Y-69129637D03*
X249500000Y-71100000D03*
X255191589Y-92308411D03*
X254100000Y-71800000D03*
X244400000Y-67800000D03*
X258400000Y-70000000D03*
X261900000Y-71500000D03*
X253489602Y-67548852D03*
X251750000Y-66800000D03*
X272900000Y-86500000D03*
X236400000Y-66900000D03*
X245650000Y-68850000D03*
X237350000Y-104224500D03*
X232300000Y-83800000D03*
X232300000Y-84500000D03*
X230000000Y-83800000D03*
X229600000Y-86250000D03*
X230800000Y-83800000D03*
X231550000Y-83800000D03*
X232300000Y-85200000D03*
X230250000Y-86250000D03*
X231700000Y-86250000D03*
X230950000Y-86250000D03*
X232300000Y-85900000D03*
X264100000Y-98200000D03*
X260900000Y-100314500D03*
X256350000Y-97655120D03*
X252979500Y-100600000D03*
X232250000Y-100750000D03*
X235700444Y-102397378D03*
X250650000Y-100050000D03*
X246250000Y-100750000D03*
X250950000Y-82050000D03*
X264750000Y-83700500D03*
X251298911Y-85248911D03*
X267600000Y-85800000D03*
X255849500Y-90952678D03*
X256300000Y-82200000D03*
X250450000Y-89650000D03*
X264650000Y-92650000D03*
X253741525Y-87497175D03*
X257075830Y-93338791D03*
X242282153Y-102700500D03*
X242500000Y-99400000D03*
X241950000Y-92100000D03*
X243900000Y-75400000D03*
X242100000Y-75400000D03*
X241200000Y-75400000D03*
X243000000Y-75400000D03*
X237705265Y-102648145D03*
X240700000Y-102500000D03*
X241473951Y-102700500D03*
X263500000Y-96550000D03*
X265658815Y-99065500D03*
X264862000Y-99000000D03*
X256250000Y-106369500D03*
X263750000Y-94850000D03*
X229750000Y-106100000D03*
X253350000Y-84700000D03*
X257650000Y-96800000D03*
X247550000Y-84450000D03*
X259223911Y-96823911D03*
X256780150Y-95269851D03*
X252583572Y-84300500D03*
X230000000Y-95200000D03*
X252624199Y-86900500D03*
X237120498Y-92400000D03*
X230250000Y-88550000D03*
X237120499Y-91383389D03*
X252363684Y-86144632D03*
X256250000Y-85350000D03*
X262650000Y-85300000D03*
X261266589Y-76116589D03*
X248050000Y-83550000D03*
X255367323Y-100949500D03*
X266550000Y-105800000D03*
X264300000Y-75224500D03*
X269600000Y-73500000D03*
X246099500Y-102200000D03*
X251600000Y-87500000D03*
X246024058Y-103291143D03*
X255349490Y-83575569D03*
X237400975Y-105450500D03*
X250700000Y-101920000D03*
X246800000Y-103600000D03*
X232950000Y-103110000D03*
X257070000Y-106320000D03*
X262450000Y-86950000D03*
X260600000Y-106300000D03*
X261350000Y-79900000D03*
X254100000Y-105850000D03*
X261850000Y-86050000D03*
X232100000Y-80100000D03*
X224100000Y-91600000D03*
X224719500Y-85950000D03*
X230650000Y-80724500D03*
X260450500Y-92700000D03*
X256400500Y-92200000D03*
X264050000Y-85050000D03*
X260265500Y-96850000D03*
X255400500Y-84400000D03*
X247550000Y-102899500D03*
X247900000Y-104200000D03*
X256100000Y-83300000D03*
X233050000Y-105600000D03*
X235600319Y-95000819D03*
X254183922Y-84829774D03*
X253103939Y-79579044D03*
X236650000Y-105775500D03*
X252400000Y-79200000D03*
X237500000Y-99750000D03*
X251700000Y-82649500D03*
X262750500Y-82150000D03*
X248300000Y-82300000D03*
X252488995Y-82778698D03*
D16*
X249134314Y-81300000D02*
X251234314Y-79200000D01*
X247885785Y-81300000D02*
X249134314Y-81300000D01*
X246350000Y-82835785D02*
X247885785Y-81300000D01*
X246350000Y-85065686D02*
X246350000Y-82835785D01*
X251234314Y-79200000D02*
X252400000Y-79200000D01*
X246750000Y-85465686D02*
X246350000Y-85065686D01*
X246750000Y-88377723D02*
X246750000Y-85465686D01*
X247800000Y-89427723D02*
X246750000Y-88377723D01*
X247800000Y-90734314D02*
X247800000Y-89427723D01*
X247334314Y-91200000D02*
X247800000Y-90734314D01*
X239200000Y-91000000D02*
X242264214Y-91000000D01*
X238750000Y-91450000D02*
X239200000Y-91000000D01*
X238750000Y-98500000D02*
X238750000Y-91450000D01*
X242264214Y-91000000D02*
X242464215Y-91200000D01*
X237500000Y-99750000D02*
X238750000Y-98500000D01*
X242464215Y-91200000D02*
X247334314Y-91200000D01*
X246024058Y-103275942D02*
X246024058Y-103291143D01*
X248315685Y-102300000D02*
X247000000Y-102300000D01*
X249215685Y-103200000D02*
X248315685Y-102300000D01*
X256450000Y-101315686D02*
X254565686Y-103200000D01*
X256450000Y-98968628D02*
X256450000Y-101315686D01*
X258250000Y-97168628D02*
X256450000Y-98968628D01*
X259200000Y-95815686D02*
X258250000Y-96765686D01*
X259200000Y-94898529D02*
X259200000Y-95815686D01*
X259150000Y-94848529D02*
X259200000Y-94898529D01*
X259150000Y-94351471D02*
X259150000Y-94848529D01*
X247000000Y-102300000D02*
X246024058Y-103275942D01*
X259200000Y-94301471D02*
X259150000Y-94351471D01*
X259200000Y-88750000D02*
X259200000Y-94301471D01*
X257800000Y-87350000D02*
X259200000Y-88750000D01*
X256268629Y-87350000D02*
X257800000Y-87350000D01*
X254850000Y-85931372D02*
X256268629Y-87350000D01*
X254850000Y-84698029D02*
X254850000Y-85931372D01*
X254800500Y-84648529D02*
X254850000Y-84698029D01*
X254800500Y-84151471D02*
X254800500Y-84648529D01*
X255151971Y-83800000D02*
X254800500Y-84151471D01*
X255349490Y-83800000D02*
X255151971Y-83800000D01*
X254565686Y-103200000D02*
X249215685Y-103200000D01*
X255349490Y-83575569D02*
X255349490Y-83800000D01*
X258250000Y-96765686D02*
X258250000Y-97168628D01*
X248349500Y-102899500D02*
X247550000Y-102899500D01*
X249250000Y-103800000D02*
X248349500Y-102899500D01*
X256184314Y-103800000D02*
X249250000Y-103800000D01*
X256850000Y-103134314D02*
X256184314Y-103800000D01*
X256850000Y-99134314D02*
X256850000Y-103134314D01*
X258084314Y-97900000D02*
X256850000Y-99134314D01*
X260084314Y-97900000D02*
X258084314Y-97900000D01*
X261050000Y-96934314D02*
X260084314Y-97900000D01*
X261050000Y-87400000D02*
X261050000Y-96934314D01*
X260600000Y-86950000D02*
X261050000Y-87400000D01*
X256434314Y-86950000D02*
X260600000Y-86950000D01*
X255250000Y-85765686D02*
X256434314Y-86950000D01*
X255400500Y-84400000D02*
X255250000Y-84550500D01*
X255250000Y-84550500D02*
X255250000Y-85765686D01*
X256000000Y-83400000D02*
X256100000Y-83300000D01*
X256000000Y-84751471D02*
X256000000Y-83400000D01*
X255650000Y-85101471D02*
X256000000Y-84751471D01*
X255650000Y-85600000D02*
X255650000Y-85101471D01*
X256550000Y-86500000D02*
X255650000Y-85600000D01*
X261050000Y-86500000D02*
X256550000Y-86500000D01*
X261450000Y-97100000D02*
X261450000Y-86900000D01*
X258250000Y-98300000D02*
X260250000Y-98300000D01*
X257250000Y-103300000D02*
X257250000Y-99300000D01*
X260250000Y-98300000D02*
X261450000Y-97100000D01*
X261450000Y-86900000D02*
X261050000Y-86500000D01*
X256350000Y-104200000D02*
X257250000Y-103300000D01*
X257250000Y-99300000D02*
X258250000Y-98300000D01*
X247900000Y-104200000D02*
X256350000Y-104200000D01*
D17*
X240250000Y-106400000D02*
X230050000Y-106400000D01*
X230050000Y-106400000D02*
X229750000Y-106100000D01*
X256144500Y-106475000D02*
X240325000Y-106475000D01*
X240325000Y-106475000D02*
X240250000Y-106400000D01*
X256250000Y-106369500D02*
X256144500Y-106475000D01*
D18*
X236900000Y-86400000D02*
X236900000Y-89000000D01*
X236000000Y-85500000D02*
X236900000Y-86400000D01*
X235700000Y-85200000D02*
X236000000Y-85500000D01*
X232300000Y-85200000D02*
X235700000Y-85200000D01*
D16*
X238149181Y-95000819D02*
X235600319Y-95000819D01*
X238350000Y-91284314D02*
X238350000Y-94800000D01*
X239034315Y-90600000D02*
X238350000Y-91284314D01*
X238350000Y-94800000D02*
X238149181Y-95000819D01*
X242429899Y-90600000D02*
X239034315Y-90600000D01*
X242629899Y-90800000D02*
X242429899Y-90600000D01*
X247173056Y-90100500D02*
X246473556Y-90800000D01*
X246473556Y-90800000D02*
X242629899Y-90800000D01*
X252782983Y-79900000D02*
X253103939Y-79579044D01*
X249300000Y-81700000D02*
X251100000Y-79900000D01*
X248051471Y-81700000D02*
X249300000Y-81700000D01*
X246750000Y-83001471D02*
X248051471Y-81700000D01*
X246750000Y-84900000D02*
X246750000Y-83001471D01*
X247150000Y-85300000D02*
X246750000Y-84900000D01*
X247150000Y-88212037D02*
X247150000Y-85300000D01*
X248200000Y-89262037D02*
X247150000Y-88212037D01*
X247500000Y-91600000D02*
X248200000Y-90900000D01*
X242298529Y-91600000D02*
X247500000Y-91600000D01*
X242098529Y-91400000D02*
X242298529Y-91600000D01*
X239751471Y-91400000D02*
X242098529Y-91400000D01*
X239300000Y-91851471D02*
X239751471Y-91400000D01*
X239300000Y-99250000D02*
X239300000Y-91851471D01*
X236150000Y-101100000D02*
X237450000Y-101100000D01*
X235050000Y-102200000D02*
X236150000Y-101100000D01*
X237450000Y-101100000D02*
X239300000Y-99250000D01*
X248200000Y-90900000D02*
X248200000Y-89262037D01*
X235050000Y-103450000D02*
X235050000Y-102200000D01*
X251100000Y-79900000D02*
X252782983Y-79900000D01*
X235000000Y-103500000D02*
X235050000Y-103450000D01*
X235000000Y-104900000D02*
X235000000Y-103500000D01*
X235750000Y-105650000D02*
X235000000Y-104900000D01*
X236524500Y-105650000D02*
X235750000Y-105650000D01*
X236650000Y-105775500D02*
X236524500Y-105650000D01*
D18*
X242500000Y-99400000D02*
X242500000Y-95000000D01*
X242500000Y-102482653D02*
X242282153Y-102700500D01*
X241950000Y-94450000D02*
X241950000Y-92100000D01*
X242500000Y-99400000D02*
X242500000Y-102482653D01*
X242500000Y-95000000D02*
X241950000Y-94450000D01*
D16*
X262450000Y-97265686D02*
X262450000Y-86950000D01*
X260615686Y-99100000D02*
X262450000Y-97265686D01*
X258650000Y-99100000D02*
X260615686Y-99100000D01*
X258050000Y-99700000D02*
X258650000Y-99100000D01*
X258050000Y-105340000D02*
X258050000Y-99700000D01*
X257070000Y-106320000D02*
X258050000Y-105340000D01*
D18*
X237034162Y-103462000D02*
X237665838Y-103462000D01*
X244650000Y-102350000D02*
X246250000Y-100750000D01*
X235700444Y-102397378D02*
X235700444Y-103150444D01*
X236150000Y-103600000D02*
X236896162Y-103600000D01*
X236896162Y-103600000D02*
X237034162Y-103462000D01*
X242800000Y-104450000D02*
X244650000Y-102600000D01*
X238653838Y-104450000D02*
X242800000Y-104450000D01*
X244650000Y-102600000D02*
X244650000Y-102350000D01*
X235700444Y-103150444D02*
X236150000Y-103600000D01*
X237665838Y-103462000D02*
X238653838Y-104450000D01*
D16*
X258000000Y-92414621D02*
X258000000Y-89631372D01*
X253741525Y-87991525D02*
X253741525Y-87497175D01*
X255771573Y-88550000D02*
X255671573Y-88450000D01*
X254200000Y-88450000D02*
X253741525Y-87991525D01*
X255671573Y-88450000D02*
X254200000Y-88450000D01*
X257075830Y-93338791D02*
X258000000Y-92414621D01*
X256918628Y-88550000D02*
X255771573Y-88550000D01*
X258000000Y-89631372D02*
X256918628Y-88550000D01*
X263500000Y-96550000D02*
X265658815Y-98708815D01*
X265658815Y-98708815D02*
X265658815Y-99065500D01*
X258800000Y-89300000D02*
X258800000Y-94135785D01*
X258750000Y-94185786D02*
X258750000Y-95014215D01*
X258800000Y-95064215D02*
X258800000Y-95650000D01*
X253350000Y-85650000D02*
X253800000Y-86100000D01*
X258750000Y-95014215D02*
X258800000Y-95064215D01*
X258800000Y-95650000D02*
X257650000Y-96800000D01*
X257250000Y-87750000D02*
X258800000Y-89300000D01*
X253350000Y-84700000D02*
X253350000Y-85650000D01*
X254452942Y-86100000D02*
X256102944Y-87750000D01*
X258800000Y-94135785D02*
X258750000Y-94185786D01*
X256102944Y-87750000D02*
X257250000Y-87750000D01*
X253800000Y-86100000D02*
X254452942Y-86100000D01*
X247550000Y-84450000D02*
X247550000Y-86915685D01*
X256780150Y-94457326D02*
X256780150Y-95269851D01*
X250650000Y-88100000D02*
X251800000Y-89250000D01*
X255250000Y-89550000D02*
X255250000Y-91518293D01*
X255800500Y-93477675D02*
X256780150Y-94457326D01*
X251800000Y-89250000D02*
X254950000Y-89250000D01*
X255800500Y-92068793D02*
X255800500Y-93477675D01*
X248734315Y-88100000D02*
X250650000Y-88100000D01*
X255250000Y-91518293D02*
X255800500Y-92068793D01*
X254950000Y-89250000D02*
X255250000Y-89550000D01*
X247550000Y-86915685D02*
X248734315Y-88100000D01*
X262600000Y-85350000D02*
X262650000Y-85300000D01*
X256250000Y-85350000D02*
X262600000Y-85350000D01*
X256475830Y-93090262D02*
X256475830Y-93587320D01*
X257450000Y-94561490D02*
X257450000Y-95550000D01*
X256475830Y-93587320D02*
X257450000Y-94561490D01*
X252101471Y-88850000D02*
X255234314Y-88850000D01*
X255234314Y-88850000D02*
X256449500Y-90065186D01*
X257450000Y-95550000D02*
X255650000Y-97350000D01*
X248150000Y-83650000D02*
X248150000Y-86950000D01*
X255650000Y-100666823D02*
X255367323Y-100949500D01*
X257000500Y-91951471D02*
X257000500Y-92565592D01*
X250501471Y-87250000D02*
X252101471Y-88850000D01*
X248150000Y-86950000D02*
X248450000Y-87250000D01*
X256449500Y-90065186D02*
X256449500Y-91400471D01*
X248050000Y-83550000D02*
X248150000Y-83650000D01*
X248450000Y-87250000D02*
X250501471Y-87250000D01*
X255650000Y-97350000D02*
X255650000Y-100666823D01*
X257000500Y-92565592D02*
X256475830Y-93090262D01*
X256449500Y-91400471D02*
X257000500Y-91951471D01*
X257084314Y-88150000D02*
X255937258Y-88150000D01*
X256050000Y-98802942D02*
X257050000Y-97802942D01*
X249950000Y-102750000D02*
X254450000Y-102750000D01*
X254684432Y-86897175D02*
X253492996Y-86897175D01*
X249100000Y-101900000D02*
X249950000Y-102750000D01*
X246099500Y-102200000D02*
X246399500Y-101900000D01*
X256050000Y-101150000D02*
X256050000Y-98802942D01*
X253492996Y-86897175D02*
X252890170Y-87500000D01*
X252890170Y-87500000D02*
X251600000Y-87500000D01*
X258400000Y-89465686D02*
X257084314Y-88150000D01*
X246399500Y-101900000D02*
X249100000Y-101900000D01*
X258349998Y-94020104D02*
X258400000Y-93970101D01*
X258400000Y-93970101D02*
X258400000Y-89465686D01*
X257050000Y-97802942D02*
X257050000Y-96551471D01*
X257050000Y-96551471D02*
X258385785Y-95215686D01*
X255937258Y-88150000D02*
X254684432Y-86897175D01*
X254450000Y-102750000D02*
X256050000Y-101150000D01*
X258385785Y-95215686D02*
X258350000Y-95179900D01*
X258350000Y-95179900D02*
X258349998Y-94020104D01*
X261100000Y-99500000D02*
X262850000Y-97750000D01*
X262850000Y-87398529D02*
X263350500Y-86898029D01*
X261850000Y-79900000D02*
X261350000Y-79900000D01*
X258815686Y-99500000D02*
X261100000Y-99500000D01*
X263350500Y-86898029D02*
X263350500Y-81400500D01*
X260600000Y-106300000D02*
X258450000Y-104150000D01*
X258450000Y-104150000D02*
X258450000Y-99865686D01*
X258450000Y-99865686D02*
X258815686Y-99500000D01*
X263350500Y-81400500D02*
X261850000Y-79900000D01*
X262850000Y-97750000D02*
X262850000Y-87398529D01*
X254700000Y-105250000D02*
X257250000Y-105250000D01*
X257650000Y-104850000D02*
X257650000Y-99534314D01*
X261850000Y-97300000D02*
X261850000Y-86050000D01*
X260450000Y-98700000D02*
X261850000Y-97300000D01*
X254100000Y-105850000D02*
X254700000Y-105250000D01*
X257650000Y-99534314D02*
X258484314Y-98700000D01*
X257250000Y-105250000D02*
X257650000Y-104850000D01*
X258484314Y-98700000D02*
X260450000Y-98700000D01*
X265100000Y-77500000D02*
X265985000Y-77500000D01*
X254350000Y-79650000D02*
X259500000Y-79650000D01*
X263900000Y-78700000D02*
X265100000Y-77500000D01*
X251700000Y-82300000D02*
X254350000Y-79650000D01*
X259500000Y-79650000D02*
X260450000Y-78700000D01*
X251700000Y-82649500D02*
X251700000Y-82300000D01*
X260450000Y-78700000D02*
X263900000Y-78700000D01*
X250200000Y-82300000D02*
X248300000Y-82300000D01*
X253350000Y-81781372D02*
X253350000Y-82150000D01*
X262750500Y-81750500D02*
X262000000Y-81000000D01*
X260300000Y-80650000D02*
X254481372Y-80650000D01*
X262750500Y-82150000D02*
X262750500Y-81750500D01*
X260650000Y-81000000D02*
X260300000Y-80650000D01*
X253100000Y-83250000D02*
X252900000Y-83450000D01*
X251350000Y-83450000D02*
X250550000Y-82650000D01*
X250550000Y-82650000D02*
X250200000Y-82300000D01*
X253350000Y-82150000D02*
X253350000Y-83000000D01*
X251800000Y-83450000D02*
X251350000Y-83450000D01*
X252900000Y-83450000D02*
X251800000Y-83450000D01*
X254481372Y-80650000D02*
X253715686Y-81415686D01*
X262000000Y-81000000D02*
X260650000Y-81000000D01*
X253350000Y-83000000D02*
X253100000Y-83250000D01*
X253715686Y-81415686D02*
X253350000Y-81781372D01*
X260200000Y-80050000D02*
X260950000Y-79300000D01*
X264500000Y-79300000D02*
X265200000Y-80000000D01*
X252488995Y-82778698D02*
X252488995Y-82076691D01*
X265200000Y-80000000D02*
X265985000Y-80000000D01*
X254515686Y-80050000D02*
X260200000Y-80050000D01*
X260950000Y-79300000D02*
X264500000Y-79300000D01*
X252488995Y-82076691D02*
X254515686Y-80050000D01*
G04 #@! TA.AperFunction,Conductor*
G36*
X270553472Y-66200695D02*
G01*
X270845306Y-66217084D01*
X270859103Y-66218638D01*
X271143827Y-66267015D01*
X271157384Y-66270109D01*
X271434899Y-66350060D01*
X271448025Y-66354653D01*
X271714841Y-66465172D01*
X271727355Y-66471198D01*
X271756221Y-66487152D01*
X271980125Y-66610899D01*
X271991899Y-66618297D01*
X272227430Y-66785415D01*
X272238302Y-66794085D01*
X272453642Y-66986524D01*
X272463475Y-66996357D01*
X272655914Y-67211697D01*
X272664584Y-67222569D01*
X272831702Y-67458100D01*
X272839100Y-67469874D01*
X272978797Y-67722637D01*
X272984830Y-67735165D01*
X273095346Y-68001975D01*
X273099939Y-68015100D01*
X273179890Y-68292615D01*
X273182984Y-68306172D01*
X273231359Y-68590885D01*
X273232916Y-68604703D01*
X273249305Y-68896527D01*
X273249500Y-68903480D01*
X273249500Y-74494484D01*
X273279058Y-74681113D01*
X273332042Y-74844178D01*
X273337453Y-74860832D01*
X273423240Y-75029199D01*
X273449077Y-75064760D01*
X273534309Y-75182073D01*
X273667926Y-75315690D01*
X273720982Y-75354237D01*
X273820801Y-75426760D01*
X273989168Y-75512547D01*
X274168882Y-75570940D01*
X274168883Y-75570940D01*
X274168886Y-75570941D01*
X274355516Y-75600500D01*
X274876000Y-75600500D01*
X274943039Y-75620185D01*
X274988794Y-75672989D01*
X275000000Y-75724500D01*
X275000000Y-76498741D01*
X274980315Y-76565780D01*
X274950728Y-76597694D01*
X274886595Y-76646125D01*
X274742947Y-76803698D01*
X274630701Y-76984982D01*
X274553679Y-77183801D01*
X274546782Y-77220696D01*
X274514500Y-77393390D01*
X274514500Y-77606610D01*
X274532534Y-77703083D01*
X274553679Y-77816198D01*
X274623861Y-77997362D01*
X274630702Y-78015019D01*
X274652371Y-78050015D01*
X274742947Y-78196301D01*
X274882569Y-78349458D01*
X274886593Y-78353872D01*
X274950728Y-78402305D01*
X274992362Y-78458411D01*
X275000000Y-78501257D01*
X275000000Y-81498741D01*
X274980315Y-81565780D01*
X274950728Y-81597694D01*
X274886595Y-81646125D01*
X274742947Y-81803698D01*
X274630701Y-81984982D01*
X274553679Y-82183801D01*
X274553679Y-82183802D01*
X274514500Y-82393390D01*
X274514500Y-82606610D01*
X274532261Y-82701623D01*
X274553679Y-82816198D01*
X274601459Y-82939535D01*
X274630702Y-83015019D01*
X274645787Y-83039382D01*
X274742947Y-83196301D01*
X274802327Y-83261437D01*
X274886593Y-83353872D01*
X274950728Y-83402305D01*
X274992362Y-83458411D01*
X275000000Y-83501257D01*
X275000000Y-84325500D01*
X274980315Y-84392539D01*
X274927511Y-84438294D01*
X274876000Y-84449500D01*
X274335516Y-84449500D01*
X274148886Y-84479058D01*
X273969167Y-84537453D01*
X273889350Y-84578122D01*
X273800801Y-84623240D01*
X273800798Y-84623241D01*
X273800798Y-84623242D01*
X273647926Y-84734309D01*
X273514309Y-84867926D01*
X273418716Y-84999500D01*
X273403240Y-85020801D01*
X273373175Y-85079807D01*
X273317453Y-85189167D01*
X273259058Y-85368886D01*
X273229500Y-85555515D01*
X273229500Y-90754484D01*
X273259058Y-90941113D01*
X273301804Y-91072671D01*
X273317453Y-91120832D01*
X273403240Y-91289199D01*
X273429077Y-91324760D01*
X273514309Y-91442073D01*
X273647926Y-91575690D01*
X273700982Y-91614237D01*
X273800801Y-91686760D01*
X273969168Y-91772547D01*
X274148882Y-91830940D01*
X274148883Y-91830940D01*
X274148886Y-91830941D01*
X274335516Y-91860500D01*
X274876000Y-91860500D01*
X274943039Y-91880185D01*
X274988794Y-91932989D01*
X275000000Y-91984500D01*
X275000000Y-92679448D01*
X274980315Y-92746487D01*
X274950727Y-92778402D01*
X274781594Y-92906126D01*
X274637947Y-93063698D01*
X274525701Y-93244982D01*
X274489360Y-93338791D01*
X274448679Y-93443802D01*
X274409500Y-93653390D01*
X274409500Y-93866610D01*
X274448679Y-94076198D01*
X274525702Y-94275019D01*
X274547529Y-94310271D01*
X274637947Y-94456301D01*
X274701758Y-94526298D01*
X274781593Y-94613872D01*
X274926357Y-94723194D01*
X274950727Y-94741597D01*
X274992363Y-94797706D01*
X275000000Y-94840551D01*
X275000000Y-95179448D01*
X274980315Y-95246487D01*
X274950727Y-95278402D01*
X274781594Y-95406126D01*
X274637947Y-95563698D01*
X274525701Y-95744982D01*
X274448679Y-95943801D01*
X274448679Y-95943802D01*
X274409500Y-96153390D01*
X274409500Y-96366610D01*
X274443782Y-96550000D01*
X274448679Y-96576198D01*
X274525701Y-96775017D01*
X274637947Y-96956301D01*
X274690615Y-97014075D01*
X274773686Y-97105199D01*
X274781594Y-97113873D01*
X274950727Y-97241597D01*
X274992363Y-97297706D01*
X275000000Y-97340551D01*
X275000000Y-98135500D01*
X274980315Y-98202539D01*
X274927511Y-98248294D01*
X274876000Y-98259500D01*
X274355516Y-98259500D01*
X274168886Y-98289058D01*
X273989167Y-98347453D01*
X273943947Y-98370494D01*
X273820801Y-98433240D01*
X273820798Y-98433241D01*
X273820798Y-98433242D01*
X273667926Y-98544309D01*
X273534309Y-98677926D01*
X273423242Y-98830798D01*
X273423240Y-98830801D01*
X273403910Y-98868739D01*
X273337453Y-98999167D01*
X273279058Y-99178886D01*
X273249500Y-99365515D01*
X273249500Y-104046519D01*
X273249305Y-104053472D01*
X273232916Y-104345296D01*
X273231359Y-104359114D01*
X273182984Y-104643827D01*
X273179890Y-104657384D01*
X273099939Y-104934899D01*
X273095346Y-104948024D01*
X272984830Y-105214834D01*
X272978797Y-105227362D01*
X272839100Y-105480125D01*
X272831702Y-105491899D01*
X272664584Y-105727430D01*
X272655914Y-105738302D01*
X272463475Y-105953642D01*
X272453642Y-105963475D01*
X272238302Y-106155914D01*
X272227430Y-106164584D01*
X271991899Y-106331702D01*
X271980125Y-106339100D01*
X271727362Y-106478797D01*
X271714834Y-106484830D01*
X271448024Y-106595346D01*
X271434899Y-106599939D01*
X271157384Y-106679890D01*
X271143827Y-106682984D01*
X270859114Y-106731359D01*
X270845296Y-106732916D01*
X270553472Y-106749305D01*
X270546519Y-106749500D01*
X261195247Y-106749500D01*
X261128208Y-106729815D01*
X261082453Y-106677011D01*
X261072509Y-106607853D01*
X261080686Y-106578048D01*
X261121796Y-106478797D01*
X261136330Y-106443709D01*
X261155250Y-106300000D01*
X261136330Y-106156291D01*
X261088781Y-106041495D01*
X261080862Y-106022377D01*
X261080861Y-106022376D01*
X261080861Y-106022375D01*
X260992621Y-105907379D01*
X260877625Y-105819139D01*
X260877624Y-105819138D01*
X260877622Y-105819137D01*
X260831417Y-105799999D01*
X265994749Y-105799999D01*
X266013670Y-105943709D01*
X266069137Y-106077622D01*
X266069138Y-106077624D01*
X266069139Y-106077625D01*
X266157379Y-106192621D01*
X266272375Y-106280861D01*
X266272376Y-106280861D01*
X266272377Y-106280862D01*
X266302715Y-106293428D01*
X266406291Y-106336330D01*
X266531079Y-106352758D01*
X266549999Y-106355250D01*
X266549999Y-106355249D01*
X266550000Y-106355250D01*
X266693709Y-106336330D01*
X266827625Y-106280861D01*
X266942621Y-106192621D01*
X267030861Y-106077625D01*
X267086330Y-105943709D01*
X267105250Y-105800000D01*
X267086330Y-105656291D01*
X267040129Y-105544750D01*
X267030862Y-105522377D01*
X267030861Y-105522376D01*
X267030861Y-105522375D01*
X266942621Y-105407379D01*
X266827625Y-105319139D01*
X266827624Y-105319138D01*
X266827622Y-105319137D01*
X266693709Y-105263670D01*
X266550000Y-105244749D01*
X266406290Y-105263670D01*
X266272377Y-105319137D01*
X266157379Y-105407379D01*
X266069137Y-105522377D01*
X266013670Y-105656290D01*
X265994749Y-105799999D01*
X260831417Y-105799999D01*
X260743709Y-105763670D01*
X260583814Y-105742619D01*
X260584161Y-105739982D01*
X260538951Y-105732931D01*
X260504122Y-105708440D01*
X259671916Y-104876234D01*
X258836819Y-104041136D01*
X258803334Y-103979813D01*
X258800500Y-103953455D01*
X258800500Y-103940000D01*
X268774396Y-103940000D01*
X268781951Y-104035999D01*
X268794779Y-104198995D01*
X268855426Y-104451610D01*
X268909719Y-104582683D01*
X268954846Y-104691628D01*
X269083591Y-104901722D01*
X269090590Y-104913143D01*
X269138794Y-104969582D01*
X269259311Y-105110689D01*
X269387589Y-105220249D01*
X269438428Y-105263670D01*
X269456860Y-105279412D01*
X269678372Y-105415154D01*
X269858385Y-105489718D01*
X269918389Y-105514573D01*
X269998197Y-105533733D01*
X270171006Y-105575221D01*
X270365147Y-105590500D01*
X270367592Y-105590500D01*
X270492408Y-105590500D01*
X270494853Y-105590500D01*
X270688994Y-105575221D01*
X270941610Y-105514573D01*
X271181628Y-105415154D01*
X271403140Y-105279412D01*
X271600689Y-105110689D01*
X271769412Y-104913140D01*
X271905154Y-104691628D01*
X272004573Y-104451610D01*
X272065221Y-104198994D01*
X272085604Y-103940000D01*
X272065221Y-103681006D01*
X272013368Y-103465023D01*
X272004573Y-103428389D01*
X271967087Y-103337892D01*
X271905154Y-103188372D01*
X271769412Y-102966860D01*
X271768925Y-102966290D01*
X271691307Y-102875411D01*
X271600689Y-102769311D01*
X271436022Y-102628672D01*
X271403143Y-102600590D01*
X271398510Y-102597751D01*
X271181628Y-102464846D01*
X271051983Y-102411145D01*
X270941610Y-102365426D01*
X270688995Y-102304779D01*
X270497287Y-102289691D01*
X270497272Y-102289690D01*
X270494853Y-102289500D01*
X270365147Y-102289500D01*
X270362728Y-102289690D01*
X270362712Y-102289691D01*
X270171004Y-102304779D01*
X269918389Y-102365426D01*
X269713524Y-102450285D01*
X269678372Y-102464846D01*
X269552556Y-102541946D01*
X269456856Y-102600590D01*
X269259311Y-102769311D01*
X269090590Y-102966856D01*
X269054348Y-103025999D01*
X268954846Y-103188372D01*
X268940285Y-103223524D01*
X268855426Y-103428389D01*
X268794779Y-103681004D01*
X268774632Y-103937000D01*
X268774396Y-103940000D01*
X258800500Y-103940000D01*
X258800500Y-100062230D01*
X258820185Y-99995191D01*
X258836819Y-99974548D01*
X258924550Y-99886818D01*
X258985874Y-99853334D01*
X259012231Y-99850500D01*
X260310759Y-99850500D01*
X260377798Y-99870185D01*
X260423553Y-99922989D01*
X260433497Y-99992147D01*
X260425320Y-100021952D01*
X260363670Y-100170790D01*
X260344749Y-100314499D01*
X260363670Y-100458209D01*
X260419137Y-100592122D01*
X260419138Y-100592124D01*
X260419139Y-100592125D01*
X260507379Y-100707121D01*
X260622375Y-100795361D01*
X260756291Y-100850830D01*
X260881079Y-100867258D01*
X260899999Y-100869750D01*
X260899999Y-100869749D01*
X260900000Y-100869750D01*
X261043709Y-100850830D01*
X261177625Y-100795361D01*
X261292621Y-100707121D01*
X261380861Y-100592125D01*
X261436330Y-100458209D01*
X261455250Y-100314500D01*
X261436330Y-100170791D01*
X261391363Y-100062230D01*
X261380861Y-100036874D01*
X261308564Y-99942656D01*
X261283369Y-99877487D01*
X261297407Y-99809042D01*
X261315708Y-99783187D01*
X261318255Y-99780419D01*
X261318258Y-99780418D01*
X261351253Y-99744574D01*
X261354756Y-99740924D01*
X263063043Y-98032636D01*
X263082895Y-98016515D01*
X263090669Y-98011437D01*
X263108500Y-97988526D01*
X263118227Y-97977513D01*
X263129550Y-97961653D01*
X263132604Y-97957555D01*
X263162517Y-97919126D01*
X263162517Y-97919123D01*
X263167108Y-97913226D01*
X263183127Y-97859419D01*
X263184679Y-97854569D01*
X263200500Y-97808488D01*
X263200500Y-97808483D01*
X263202925Y-97801420D01*
X263202616Y-97793955D01*
X263202617Y-97793954D01*
X263200606Y-97745321D01*
X263200500Y-97740198D01*
X263200500Y-97207214D01*
X263220185Y-97140175D01*
X263272989Y-97094420D01*
X263340686Y-97084275D01*
X263356289Y-97086329D01*
X263356291Y-97086330D01*
X263500000Y-97105250D01*
X263500000Y-97105249D01*
X263516187Y-97107381D01*
X263515839Y-97110018D01*
X263561031Y-97117060D01*
X263595877Y-97141559D01*
X263939403Y-97485085D01*
X263972888Y-97546408D01*
X263967904Y-97616100D01*
X263926032Y-97672033D01*
X263899175Y-97687327D01*
X263822376Y-97719138D01*
X263707379Y-97807379D01*
X263619137Y-97922377D01*
X263563670Y-98056290D01*
X263544749Y-98199999D01*
X263563670Y-98343709D01*
X263619137Y-98477622D01*
X263619138Y-98477624D01*
X263619139Y-98477625D01*
X263707379Y-98592621D01*
X263822375Y-98680861D01*
X263956291Y-98736330D01*
X264100000Y-98755250D01*
X264182971Y-98744326D01*
X264252004Y-98755091D01*
X264304260Y-98801471D01*
X264323146Y-98868739D01*
X264322094Y-98883450D01*
X264306749Y-98999999D01*
X264325670Y-99143709D01*
X264381137Y-99277622D01*
X264381138Y-99277624D01*
X264381139Y-99277625D01*
X264469379Y-99392621D01*
X264584375Y-99480861D01*
X264584376Y-99480861D01*
X264584377Y-99480862D01*
X264588228Y-99482457D01*
X264718291Y-99536330D01*
X264843079Y-99552758D01*
X264861999Y-99555250D01*
X264861999Y-99555249D01*
X264862000Y-99555250D01*
X265005709Y-99536330D01*
X265139625Y-99480861D01*
X265142236Y-99478857D01*
X265207400Y-99453660D01*
X265275846Y-99467693D01*
X265293208Y-99478850D01*
X265381190Y-99546361D01*
X265515106Y-99601830D01*
X265658815Y-99620750D01*
X265802524Y-99601830D01*
X265936440Y-99546361D01*
X266051436Y-99458121D01*
X266139676Y-99343125D01*
X266195145Y-99209209D01*
X266214065Y-99065500D01*
X266195145Y-98921791D01*
X266139676Y-98787875D01*
X266139676Y-98787874D01*
X266071965Y-98699633D01*
X266051436Y-98672879D01*
X266051435Y-98672878D01*
X266042468Y-98665997D01*
X266006562Y-98622096D01*
X266004070Y-98617000D01*
X265998862Y-98600743D01*
X265990417Y-98585139D01*
X265971740Y-98550626D01*
X265969396Y-98546071D01*
X265944733Y-98495620D01*
X265925182Y-98477622D01*
X265903402Y-98457572D01*
X265899729Y-98454047D01*
X264091559Y-96645877D01*
X264058074Y-96584554D01*
X264057276Y-96565395D01*
X264055249Y-96550003D01*
X264055250Y-96550000D01*
X264036330Y-96406291D01*
X263990129Y-96294750D01*
X263980862Y-96272377D01*
X263980861Y-96272376D01*
X263980861Y-96272375D01*
X263971365Y-96260000D01*
X264774785Y-96260000D01*
X264793602Y-96463083D01*
X264849418Y-96659251D01*
X264940324Y-96841818D01*
X265063236Y-97004580D01*
X265213958Y-97141981D01*
X265377183Y-97243045D01*
X265387363Y-97249348D01*
X265577544Y-97323024D01*
X265778024Y-97360500D01*
X265778026Y-97360500D01*
X265981974Y-97360500D01*
X265981976Y-97360500D01*
X266182456Y-97323024D01*
X266372637Y-97249348D01*
X266546041Y-97141981D01*
X266696764Y-97004579D01*
X266819673Y-96841821D01*
X266819673Y-96841819D01*
X266819675Y-96841818D01*
X266865313Y-96750161D01*
X266910582Y-96659250D01*
X266966397Y-96463083D01*
X266985215Y-96260000D01*
X266966397Y-96056917D01*
X266963899Y-96048139D01*
X266937534Y-95955475D01*
X266910582Y-95860750D01*
X266883267Y-95805893D01*
X266819675Y-95678181D01*
X266696763Y-95515419D01*
X266546041Y-95378018D01*
X266372638Y-95270652D01*
X266182457Y-95196976D01*
X266088689Y-95179448D01*
X265981976Y-95159500D01*
X265778024Y-95159500D01*
X265688836Y-95176172D01*
X265577542Y-95196976D01*
X265387361Y-95270652D01*
X265213958Y-95378018D01*
X265063236Y-95515419D01*
X264940324Y-95678181D01*
X264849418Y-95860748D01*
X264793602Y-96056916D01*
X264774785Y-96260000D01*
X263971365Y-96260000D01*
X263892621Y-96157379D01*
X263777625Y-96069139D01*
X263777624Y-96069138D01*
X263777622Y-96069137D01*
X263643709Y-96013670D01*
X263499999Y-95994749D01*
X263340685Y-96015724D01*
X263271650Y-96004958D01*
X263219394Y-95958578D01*
X263200500Y-95892785D01*
X263200500Y-95373691D01*
X263220185Y-95306652D01*
X263272989Y-95260897D01*
X263342147Y-95250953D01*
X263399985Y-95275314D01*
X263472375Y-95330861D01*
X263606291Y-95386330D01*
X263731078Y-95402758D01*
X263749999Y-95405250D01*
X263749999Y-95405249D01*
X263750000Y-95405250D01*
X263893709Y-95386330D01*
X264027625Y-95330861D01*
X264142621Y-95242621D01*
X264230861Y-95127625D01*
X264286330Y-94993709D01*
X264305250Y-94850000D01*
X264286330Y-94706291D01*
X264230861Y-94572375D01*
X264142621Y-94457379D01*
X264027625Y-94369139D01*
X264027624Y-94369138D01*
X264027622Y-94369137D01*
X263893709Y-94313670D01*
X263750000Y-94294749D01*
X263606290Y-94313670D01*
X263472374Y-94369138D01*
X263399986Y-94424684D01*
X263334817Y-94449878D01*
X263266372Y-94435839D01*
X263216382Y-94387025D01*
X263200500Y-94326308D01*
X263200500Y-92649999D01*
X264094749Y-92649999D01*
X264113670Y-92793709D01*
X264169137Y-92927622D01*
X264169138Y-92927624D01*
X264169139Y-92927625D01*
X264257379Y-93042621D01*
X264372375Y-93130861D01*
X264506291Y-93186330D01*
X264650000Y-93205250D01*
X264666186Y-93207381D01*
X264665738Y-93210777D01*
X264708332Y-93217413D01*
X264760595Y-93263784D01*
X264779500Y-93329595D01*
X264779500Y-94404560D01*
X264779500Y-94404578D01*
X264779501Y-94407872D01*
X264779853Y-94411152D01*
X264779854Y-94411159D01*
X264785909Y-94467484D01*
X264790829Y-94480675D01*
X264836204Y-94602331D01*
X264922454Y-94717546D01*
X265037669Y-94803796D01*
X265172517Y-94854091D01*
X265232127Y-94860500D01*
X266527872Y-94860499D01*
X266587483Y-94854091D01*
X266722331Y-94803796D01*
X266837546Y-94717546D01*
X266923796Y-94602331D01*
X266974091Y-94467483D01*
X266980500Y-94407873D01*
X266980499Y-93760000D01*
X267274785Y-93760000D01*
X267293602Y-93963083D01*
X267349418Y-94159251D01*
X267440324Y-94341818D01*
X267563236Y-94504580D01*
X267713958Y-94641981D01*
X267887361Y-94749347D01*
X267887363Y-94749348D01*
X268077544Y-94823024D01*
X268278024Y-94860500D01*
X268278026Y-94860500D01*
X268481974Y-94860500D01*
X268481976Y-94860500D01*
X268682456Y-94823024D01*
X268872637Y-94749348D01*
X269046041Y-94641981D01*
X269083099Y-94608198D01*
X269196763Y-94504580D01*
X269199852Y-94500490D01*
X269319673Y-94341821D01*
X269319673Y-94341819D01*
X269319675Y-94341818D01*
X269397190Y-94186145D01*
X269410582Y-94159250D01*
X269466397Y-93963083D01*
X269485215Y-93760000D01*
X269466397Y-93556917D01*
X269458230Y-93528215D01*
X269437088Y-93453909D01*
X269410582Y-93360750D01*
X269395069Y-93329595D01*
X269319675Y-93178181D01*
X269196763Y-93015419D01*
X269046041Y-92878018D01*
X268872638Y-92770652D01*
X268682457Y-92696976D01*
X268588689Y-92679448D01*
X268481976Y-92659500D01*
X268278024Y-92659500D01*
X268181079Y-92677622D01*
X268077542Y-92696976D01*
X267887361Y-92770652D01*
X267713958Y-92878018D01*
X267563236Y-93015419D01*
X267440324Y-93178181D01*
X267349418Y-93360748D01*
X267293602Y-93556916D01*
X267274785Y-93760000D01*
X266980499Y-93760000D01*
X266980499Y-93112128D01*
X266974091Y-93052517D01*
X266923796Y-92917669D01*
X266837546Y-92802454D01*
X266722331Y-92716204D01*
X266587483Y-92665909D01*
X266587483Y-92665908D01*
X266531166Y-92659854D01*
X266531165Y-92659853D01*
X266527873Y-92659500D01*
X266524551Y-92659500D01*
X265315245Y-92659500D01*
X265248206Y-92639815D01*
X265202451Y-92587011D01*
X265192306Y-92551685D01*
X265191256Y-92543709D01*
X265186330Y-92506291D01*
X265130861Y-92372375D01*
X265042621Y-92257379D01*
X264927625Y-92169139D01*
X264927624Y-92169138D01*
X264927622Y-92169137D01*
X264793709Y-92113670D01*
X264650000Y-92094749D01*
X264506290Y-92113670D01*
X264372377Y-92169137D01*
X264257379Y-92257379D01*
X264169137Y-92372377D01*
X264113670Y-92506290D01*
X264094749Y-92649999D01*
X263200500Y-92649999D01*
X263200500Y-87595071D01*
X263220185Y-87528032D01*
X263236815Y-87507394D01*
X263563539Y-87180669D01*
X263583402Y-87164540D01*
X263591169Y-87159466D01*
X263609000Y-87136555D01*
X263618727Y-87125542D01*
X263630050Y-87109682D01*
X263633104Y-87105584D01*
X263663017Y-87067155D01*
X263663017Y-87067152D01*
X263667608Y-87061255D01*
X263680147Y-87019139D01*
X263683629Y-87007441D01*
X263685179Y-87002598D01*
X263701000Y-86956517D01*
X263701000Y-86956513D01*
X263703425Y-86949450D01*
X263703116Y-86941985D01*
X263703117Y-86941983D01*
X263701105Y-86893359D01*
X263701000Y-86888236D01*
X263701000Y-85800000D01*
X267044749Y-85800000D01*
X267063670Y-85943709D01*
X267119137Y-86077622D01*
X267119138Y-86077624D01*
X267119139Y-86077625D01*
X267207379Y-86192621D01*
X267322375Y-86280861D01*
X267322376Y-86280861D01*
X267322377Y-86280862D01*
X267344036Y-86289833D01*
X267456291Y-86336330D01*
X267600000Y-86355250D01*
X267743709Y-86336330D01*
X267877625Y-86280861D01*
X267992621Y-86192621D01*
X268080861Y-86077625D01*
X268136330Y-85943709D01*
X268155250Y-85800000D01*
X268136330Y-85656291D01*
X268088632Y-85541136D01*
X268080862Y-85522377D01*
X268080861Y-85522376D01*
X268080861Y-85522375D01*
X267992621Y-85407379D01*
X267877625Y-85319139D01*
X267877624Y-85319138D01*
X267877622Y-85319137D01*
X267743709Y-85263670D01*
X267599999Y-85244749D01*
X267456290Y-85263670D01*
X267322377Y-85319137D01*
X267207379Y-85407379D01*
X267119137Y-85522377D01*
X267063670Y-85656290D01*
X267044749Y-85800000D01*
X263701000Y-85800000D01*
X263701000Y-85686874D01*
X263720685Y-85619835D01*
X263773489Y-85574080D01*
X263842647Y-85564136D01*
X263872445Y-85572310D01*
X263906291Y-85586330D01*
X264035022Y-85603278D01*
X264049999Y-85605250D01*
X264049999Y-85605249D01*
X264050000Y-85605250D01*
X264193709Y-85586330D01*
X264327625Y-85530861D01*
X264442621Y-85442621D01*
X264530861Y-85327625D01*
X264586330Y-85193709D01*
X264605250Y-85050000D01*
X264586330Y-84906291D01*
X264541230Y-84797408D01*
X264530862Y-84772377D01*
X264530861Y-84772376D01*
X264530861Y-84772375D01*
X264442621Y-84657379D01*
X264327625Y-84569139D01*
X264327624Y-84569138D01*
X264327622Y-84569137D01*
X264193709Y-84513670D01*
X264050000Y-84494749D01*
X263906290Y-84513669D01*
X263906291Y-84513670D01*
X263872450Y-84527687D01*
X263802982Y-84535155D01*
X263740503Y-84503879D01*
X263704851Y-84443789D01*
X263701000Y-84413125D01*
X263701000Y-83700499D01*
X264194749Y-83700499D01*
X264213670Y-83844209D01*
X264269137Y-83978122D01*
X264269138Y-83978124D01*
X264269139Y-83978125D01*
X264357379Y-84093121D01*
X264472375Y-84181361D01*
X264606291Y-84236830D01*
X264750000Y-84255750D01*
X264893709Y-84236830D01*
X265027625Y-84181361D01*
X265142621Y-84093121D01*
X265230861Y-83978125D01*
X265286330Y-83844209D01*
X265305250Y-83700500D01*
X265292513Y-83603756D01*
X265303278Y-83534723D01*
X265349658Y-83482467D01*
X265416927Y-83463581D01*
X265480729Y-83482145D01*
X265492361Y-83489347D01*
X265492363Y-83489348D01*
X265682544Y-83563024D01*
X265883024Y-83600500D01*
X265883026Y-83600500D01*
X266086974Y-83600500D01*
X266086976Y-83600500D01*
X266287456Y-83563024D01*
X266477637Y-83489348D01*
X266651041Y-83381981D01*
X266801764Y-83244579D01*
X266924673Y-83081821D01*
X266924673Y-83081819D01*
X266924675Y-83081818D01*
X266979664Y-82971384D01*
X267015582Y-82899250D01*
X267071397Y-82703083D01*
X267090215Y-82500000D01*
X267071397Y-82296917D01*
X267070484Y-82293709D01*
X267043821Y-82199999D01*
X267015582Y-82100750D01*
X266971083Y-82011383D01*
X266924675Y-81918181D01*
X266801763Y-81755419D01*
X266651041Y-81618018D01*
X266477638Y-81510652D01*
X266287457Y-81436976D01*
X266210524Y-81422595D01*
X266086976Y-81399500D01*
X265883024Y-81399500D01*
X265782784Y-81418238D01*
X265682542Y-81436976D01*
X265492361Y-81510652D01*
X265318958Y-81618018D01*
X265168236Y-81755419D01*
X265045324Y-81918181D01*
X264954418Y-82100748D01*
X264898602Y-82296916D01*
X264879785Y-82500000D01*
X264898602Y-82703083D01*
X264954416Y-82899247D01*
X264995959Y-82982677D01*
X265008219Y-83051463D01*
X264981345Y-83115958D01*
X264923869Y-83155685D01*
X264868772Y-83160886D01*
X264860047Y-83159738D01*
X264750000Y-83145249D01*
X264606290Y-83164170D01*
X264472377Y-83219637D01*
X264357379Y-83307879D01*
X264269137Y-83422877D01*
X264213670Y-83556790D01*
X264194749Y-83700499D01*
X263701000Y-83700499D01*
X263701000Y-81449708D01*
X263703639Y-81424260D01*
X263703988Y-81422595D01*
X263705542Y-81415185D01*
X263701950Y-81386379D01*
X263701040Y-81371706D01*
X263700999Y-81371466D01*
X263701000Y-81371460D01*
X263697831Y-81352472D01*
X263697094Y-81347416D01*
X263691073Y-81299107D01*
X263691072Y-81299105D01*
X263690148Y-81291691D01*
X263686592Y-81285120D01*
X263686592Y-81285119D01*
X263663425Y-81242311D01*
X263661081Y-81237756D01*
X263636418Y-81187305D01*
X263630918Y-81182242D01*
X263595087Y-81149257D01*
X263591414Y-81145732D01*
X262307863Y-79862181D01*
X262274378Y-79800858D01*
X262279362Y-79731166D01*
X262321234Y-79675233D01*
X262386698Y-79650816D01*
X262395544Y-79650500D01*
X264303456Y-79650500D01*
X264370495Y-79670185D01*
X264391137Y-79686819D01*
X264872332Y-80168014D01*
X264903917Y-80221761D01*
X264954417Y-80399250D01*
X265045324Y-80581818D01*
X265168236Y-80744580D01*
X265318958Y-80881981D01*
X265492361Y-80989347D01*
X265492363Y-80989348D01*
X265682544Y-81063024D01*
X265883024Y-81100500D01*
X265883026Y-81100500D01*
X266086974Y-81100500D01*
X266086976Y-81100500D01*
X266287456Y-81063024D01*
X266477637Y-80989348D01*
X266651041Y-80881981D01*
X266801764Y-80744579D01*
X266924673Y-80581821D01*
X266924673Y-80581819D01*
X266924675Y-80581818D01*
X266979551Y-80471611D01*
X267015582Y-80399250D01*
X267071397Y-80203083D01*
X267090215Y-80000000D01*
X267071397Y-79796917D01*
X267015582Y-79600750D01*
X267004774Y-79579044D01*
X266924675Y-79418181D01*
X266801763Y-79255419D01*
X266651041Y-79118018D01*
X266477638Y-79010652D01*
X266287457Y-78936976D01*
X266209347Y-78922375D01*
X266086976Y-78899500D01*
X265883024Y-78899500D01*
X265805017Y-78914082D01*
X265682542Y-78936976D01*
X265492361Y-79010652D01*
X265318958Y-79118018D01*
X265168235Y-79255420D01*
X265160684Y-79265420D01*
X265104573Y-79307054D01*
X265034861Y-79311742D01*
X264974052Y-79278370D01*
X264782638Y-79086956D01*
X264766509Y-79067094D01*
X264761437Y-79059330D01*
X264738533Y-79041504D01*
X264727508Y-79031768D01*
X264711653Y-79020448D01*
X264707544Y-79017384D01*
X264663229Y-78982892D01*
X264609409Y-78966869D01*
X264604531Y-78965306D01*
X264551421Y-78947074D01*
X264495332Y-78949394D01*
X264490208Y-78949500D01*
X264445543Y-78949500D01*
X264378504Y-78929815D01*
X264332749Y-78877011D01*
X264322805Y-78807853D01*
X264351830Y-78744297D01*
X264357862Y-78737819D01*
X264551886Y-78543795D01*
X264759594Y-78336086D01*
X264820915Y-78302603D01*
X264890606Y-78307587D01*
X264946538Y-78349456D01*
X265027454Y-78457546D01*
X265142669Y-78543796D01*
X265277517Y-78594091D01*
X265337127Y-78600500D01*
X266632872Y-78600499D01*
X266692483Y-78594091D01*
X266827331Y-78543796D01*
X266942546Y-78457546D01*
X267028796Y-78342331D01*
X267079091Y-78207483D01*
X267085500Y-78147873D01*
X267085499Y-77499999D01*
X267379785Y-77499999D01*
X267398602Y-77703083D01*
X267454418Y-77899251D01*
X267545324Y-78081818D01*
X267668236Y-78244580D01*
X267818958Y-78381981D01*
X267992361Y-78489347D01*
X267992363Y-78489348D01*
X268182544Y-78563024D01*
X268383024Y-78600500D01*
X268383026Y-78600500D01*
X268586974Y-78600500D01*
X268586976Y-78600500D01*
X268787456Y-78563024D01*
X268977637Y-78489348D01*
X269151041Y-78381981D01*
X269261963Y-78280862D01*
X269301763Y-78244580D01*
X269301764Y-78244579D01*
X269424673Y-78081821D01*
X269424673Y-78081819D01*
X269424675Y-78081818D01*
X269496314Y-77937945D01*
X269515582Y-77899250D01*
X269571397Y-77703083D01*
X269590215Y-77500000D01*
X269571397Y-77296917D01*
X269564119Y-77271339D01*
X269542954Y-77196950D01*
X269515582Y-77100750D01*
X269501316Y-77072099D01*
X269424675Y-76918181D01*
X269301763Y-76755419D01*
X269151041Y-76618018D01*
X268977638Y-76510652D01*
X268787457Y-76436976D01*
X268710524Y-76422595D01*
X268586976Y-76399500D01*
X268383024Y-76399500D01*
X268282783Y-76418238D01*
X268182542Y-76436976D01*
X267992361Y-76510652D01*
X267818958Y-76618018D01*
X267668236Y-76755419D01*
X267545324Y-76918181D01*
X267454418Y-77100748D01*
X267398602Y-77296916D01*
X267379785Y-77499999D01*
X267085499Y-77499999D01*
X267085499Y-76852128D01*
X267079091Y-76792517D01*
X267028796Y-76657669D01*
X266942546Y-76542454D01*
X266827331Y-76456204D01*
X266692483Y-76405909D01*
X266632873Y-76399500D01*
X266629550Y-76399500D01*
X265340439Y-76399500D01*
X265340420Y-76399500D01*
X265337128Y-76399501D01*
X265333848Y-76399853D01*
X265333840Y-76399854D01*
X265277515Y-76405909D01*
X265142669Y-76456204D01*
X265027454Y-76542454D01*
X264941204Y-76657668D01*
X264890909Y-76792516D01*
X264885413Y-76843639D01*
X264884500Y-76852127D01*
X264884500Y-76855448D01*
X264884500Y-76855449D01*
X264884500Y-77168200D01*
X264864815Y-77235239D01*
X264851725Y-77252188D01*
X264848777Y-77255390D01*
X264845233Y-77259083D01*
X263791137Y-78313181D01*
X263729814Y-78346666D01*
X263703456Y-78349500D01*
X260499212Y-78349500D01*
X260473766Y-78346861D01*
X260464685Y-78344957D01*
X260435877Y-78348548D01*
X260421201Y-78349458D01*
X260401961Y-78352668D01*
X260396903Y-78353405D01*
X260341189Y-78360351D01*
X260291813Y-78387072D01*
X260287261Y-78389415D01*
X260236804Y-78414082D01*
X260198780Y-78455387D01*
X260195233Y-78459083D01*
X259391137Y-79263181D01*
X259329814Y-79296666D01*
X259303456Y-79299500D01*
X257524000Y-79299500D01*
X257456961Y-79279815D01*
X257411206Y-79227011D01*
X257400000Y-79175500D01*
X257400000Y-76800000D01*
X255000000Y-76800000D01*
X255000000Y-79175500D01*
X254980315Y-79242539D01*
X254927511Y-79288294D01*
X254876000Y-79299500D01*
X254399212Y-79299500D01*
X254373766Y-79296861D01*
X254364685Y-79294957D01*
X254335877Y-79298548D01*
X254321201Y-79299458D01*
X254301961Y-79302668D01*
X254296903Y-79303405D01*
X254241189Y-79310351D01*
X254191813Y-79337072D01*
X254187261Y-79339415D01*
X254136804Y-79364082D01*
X254098780Y-79405387D01*
X254095233Y-79409083D01*
X253867943Y-79636373D01*
X253806620Y-79669858D01*
X253736928Y-79664874D01*
X253680995Y-79623002D01*
X253657324Y-79564880D01*
X253640269Y-79435335D01*
X253585491Y-79303087D01*
X253584801Y-79301421D01*
X253584800Y-79301420D01*
X253584800Y-79301419D01*
X253496560Y-79186423D01*
X253381564Y-79098183D01*
X253381563Y-79098182D01*
X253381561Y-79098181D01*
X253247648Y-79042714D01*
X253103938Y-79023793D01*
X253026567Y-79033980D01*
X252957532Y-79023214D01*
X252905276Y-78976834D01*
X252895823Y-78958498D01*
X252880861Y-78922375D01*
X252792621Y-78807379D01*
X252677625Y-78719139D01*
X252677624Y-78719138D01*
X252677622Y-78719137D01*
X252543709Y-78663670D01*
X252400000Y-78644749D01*
X252256290Y-78663670D01*
X252122377Y-78719137D01*
X252044145Y-78779166D01*
X252011993Y-78803839D01*
X251994428Y-78817317D01*
X251992808Y-78815206D01*
X251955855Y-78842190D01*
X251913908Y-78849500D01*
X251283521Y-78849500D01*
X251258075Y-78846861D01*
X251248999Y-78844958D01*
X251220198Y-78848548D01*
X251205517Y-78849459D01*
X251186300Y-78852665D01*
X251181238Y-78853402D01*
X251125506Y-78860350D01*
X251076127Y-78887072D01*
X251071575Y-78889415D01*
X251021118Y-78914082D01*
X250983094Y-78955387D01*
X250979547Y-78959083D01*
X249025451Y-80913181D01*
X248964128Y-80946666D01*
X248937770Y-80949500D01*
X248164149Y-80949500D01*
X248097110Y-80929815D01*
X248051355Y-80877011D01*
X248041210Y-80841686D01*
X248026432Y-80729441D01*
X248022707Y-80701148D01*
X248033472Y-80632116D01*
X248070160Y-80586589D01*
X248093299Y-80568834D01*
X248192621Y-80492621D01*
X248280861Y-80377625D01*
X248336330Y-80243709D01*
X248355250Y-80100000D01*
X248336330Y-79956291D01*
X248280861Y-79822375D01*
X248192621Y-79707379D01*
X248077625Y-79619139D01*
X248077624Y-79619138D01*
X248077622Y-79619137D01*
X247943709Y-79563670D01*
X247800000Y-79544749D01*
X247656290Y-79563670D01*
X247522377Y-79619137D01*
X247407379Y-79707379D01*
X247319137Y-79822377D01*
X247263670Y-79956290D01*
X247244749Y-80100000D01*
X247262353Y-80233708D01*
X247251587Y-80302743D01*
X247214901Y-80348268D01*
X247092442Y-80442235D01*
X247004198Y-80557236D01*
X246948731Y-80691149D01*
X246929810Y-80834859D01*
X246948731Y-80978568D01*
X247004198Y-81112481D01*
X247004199Y-81112483D01*
X247004200Y-81112484D01*
X247092440Y-81227480D01*
X247092441Y-81227481D01*
X247109628Y-81240669D01*
X247189722Y-81302128D01*
X247230925Y-81358555D01*
X247235080Y-81428301D01*
X247201917Y-81488184D01*
X246136955Y-82553146D01*
X246117104Y-82569268D01*
X246109332Y-82574346D01*
X246091500Y-82597256D01*
X246081765Y-82608281D01*
X246070441Y-82624142D01*
X246067392Y-82628230D01*
X246056279Y-82642510D01*
X246032891Y-82672558D01*
X246016871Y-82726367D01*
X246015309Y-82731243D01*
X245997074Y-82784362D01*
X245999394Y-82840453D01*
X245999500Y-82845577D01*
X245999500Y-85016474D01*
X245996861Y-85041920D01*
X245994957Y-85050999D01*
X245998548Y-85079807D01*
X245999458Y-85094481D01*
X246002665Y-85113699D01*
X246003403Y-85118764D01*
X246010351Y-85174495D01*
X246037081Y-85223888D01*
X246039421Y-85228433D01*
X246060802Y-85272170D01*
X246060803Y-85272171D01*
X246064084Y-85278882D01*
X246069581Y-85283942D01*
X246069582Y-85283944D01*
X246098576Y-85310635D01*
X246105399Y-85316916D01*
X246109097Y-85320465D01*
X246363180Y-85574548D01*
X246396665Y-85635871D01*
X246399499Y-85662229D01*
X246399500Y-88328511D01*
X246396861Y-88353957D01*
X246394957Y-88363038D01*
X246398548Y-88391844D01*
X246399458Y-88406518D01*
X246402665Y-88425736D01*
X246403403Y-88430801D01*
X246410351Y-88486532D01*
X246437081Y-88535925D01*
X246439421Y-88540470D01*
X246460802Y-88584207D01*
X246460803Y-88584208D01*
X246464084Y-88590919D01*
X246469581Y-88595979D01*
X246469582Y-88595981D01*
X246505399Y-88628953D01*
X246509097Y-88632502D01*
X247215102Y-89338507D01*
X247248587Y-89399830D01*
X247243603Y-89469522D01*
X247201731Y-89525455D01*
X247143607Y-89549127D01*
X247029346Y-89564170D01*
X246895433Y-89619637D01*
X246780435Y-89707879D01*
X246692193Y-89822877D01*
X246636726Y-89956790D01*
X246615675Y-90116686D01*
X246613038Y-90116338D01*
X246605988Y-90161546D01*
X246581496Y-90196377D01*
X246364693Y-90413181D01*
X246303370Y-90446666D01*
X246277012Y-90449500D01*
X245324000Y-90449500D01*
X245256961Y-90429815D01*
X245211206Y-90377011D01*
X245200000Y-90325500D01*
X245200000Y-87900000D01*
X242800000Y-87900000D01*
X242800000Y-90190261D01*
X242780315Y-90257300D01*
X242727511Y-90303055D01*
X242658353Y-90312999D01*
X242599841Y-90288117D01*
X242593128Y-90282892D01*
X242539308Y-90266869D01*
X242534430Y-90265306D01*
X242481320Y-90247074D01*
X242425231Y-90249394D01*
X242420107Y-90249500D01*
X239083528Y-90249500D01*
X239058082Y-90246861D01*
X239049001Y-90244957D01*
X239020193Y-90248548D01*
X239005520Y-90249458D01*
X238986310Y-90252664D01*
X238981244Y-90253402D01*
X238925507Y-90260351D01*
X238876119Y-90287077D01*
X238871567Y-90289420D01*
X238821117Y-90314084D01*
X238783073Y-90355410D01*
X238779526Y-90359106D01*
X238136955Y-91001675D01*
X238117104Y-91017797D01*
X238109332Y-91022875D01*
X238091500Y-91045785D01*
X238081765Y-91056810D01*
X238070441Y-91072671D01*
X238067392Y-91076759D01*
X238050954Y-91097880D01*
X238032891Y-91121087D01*
X238016871Y-91174896D01*
X238015309Y-91179772D01*
X237997073Y-91232892D01*
X237999393Y-91288983D01*
X237999499Y-91294105D01*
X237999500Y-94526319D01*
X237979815Y-94593358D01*
X237927011Y-94639113D01*
X237875500Y-94650319D01*
X236086411Y-94650319D01*
X236019372Y-94630634D01*
X236005262Y-94617653D01*
X235903719Y-94539736D01*
X235877944Y-94519958D01*
X235877943Y-94519957D01*
X235877941Y-94519956D01*
X235744028Y-94464489D01*
X235600319Y-94445568D01*
X235456609Y-94464489D01*
X235322696Y-94519956D01*
X235207698Y-94608198D01*
X235119456Y-94723196D01*
X235063989Y-94857109D01*
X235045068Y-95000819D01*
X235063989Y-95144528D01*
X235119456Y-95278441D01*
X235119457Y-95278443D01*
X235119458Y-95278444D01*
X235207698Y-95393440D01*
X235322694Y-95481680D01*
X235456610Y-95537149D01*
X235600319Y-95556069D01*
X235744028Y-95537149D01*
X235877944Y-95481680D01*
X235992940Y-95393440D01*
X235992940Y-95393439D01*
X236005891Y-95383502D01*
X236007510Y-95385612D01*
X236044464Y-95358629D01*
X236086411Y-95351319D01*
X238099969Y-95351319D01*
X238125415Y-95353958D01*
X238126737Y-95354235D01*
X238134496Y-95355862D01*
X238160545Y-95352614D01*
X238163304Y-95352271D01*
X238177976Y-95351360D01*
X238197194Y-95348153D01*
X238202250Y-95347415D01*
X238234662Y-95343375D01*
X238260163Y-95340197D01*
X238329122Y-95351439D01*
X238381057Y-95398178D01*
X238399500Y-95463245D01*
X238399500Y-98303455D01*
X238379815Y-98370494D01*
X238363181Y-98391136D01*
X237595876Y-99158440D01*
X237534553Y-99191925D01*
X237515392Y-99192723D01*
X237356290Y-99213670D01*
X237222377Y-99269137D01*
X237107379Y-99357379D01*
X237019137Y-99472377D01*
X236963670Y-99606290D01*
X236944749Y-99750000D01*
X236963670Y-99893709D01*
X237019137Y-100027622D01*
X237019138Y-100027624D01*
X237019139Y-100027625D01*
X237107379Y-100142621D01*
X237222375Y-100230861D01*
X237356291Y-100286330D01*
X237470797Y-100301405D01*
X237534693Y-100329672D01*
X237573164Y-100387996D01*
X237573995Y-100457861D01*
X237542292Y-100512025D01*
X237341137Y-100713181D01*
X237279814Y-100746666D01*
X237253456Y-100749500D01*
X236199212Y-100749500D01*
X236173766Y-100746861D01*
X236164685Y-100744957D01*
X236135877Y-100748548D01*
X236121201Y-100749458D01*
X236101961Y-100752668D01*
X236096903Y-100753405D01*
X236041189Y-100760351D01*
X235991813Y-100787072D01*
X235987261Y-100789415D01*
X235936804Y-100814082D01*
X235898780Y-100855387D01*
X235895233Y-100859083D01*
X234836955Y-101917361D01*
X234817104Y-101933483D01*
X234809332Y-101938561D01*
X234791500Y-101961471D01*
X234781765Y-101972496D01*
X234770441Y-101988357D01*
X234767392Y-101992445D01*
X234751241Y-102013197D01*
X234732891Y-102036773D01*
X234716871Y-102090582D01*
X234715309Y-102095458D01*
X234697074Y-102148577D01*
X234699394Y-102204668D01*
X234699500Y-102209792D01*
X234699500Y-103275183D01*
X234692773Y-103315470D01*
X234690932Y-103320829D01*
X234683121Y-103336002D01*
X234666871Y-103390582D01*
X234665309Y-103395458D01*
X234647074Y-103448577D01*
X234649394Y-103504668D01*
X234649500Y-103509792D01*
X234649500Y-104850788D01*
X234646861Y-104876234D01*
X234644957Y-104885315D01*
X234647120Y-104902665D01*
X234648548Y-104914121D01*
X234649458Y-104928795D01*
X234652665Y-104948013D01*
X234653403Y-104953078D01*
X234660351Y-105008809D01*
X234687081Y-105058202D01*
X234689421Y-105062747D01*
X234710802Y-105106484D01*
X234710803Y-105106485D01*
X234714084Y-105113196D01*
X234719581Y-105118256D01*
X234719582Y-105118258D01*
X234755399Y-105151230D01*
X234759097Y-105154779D01*
X235417137Y-105812819D01*
X235450622Y-105874142D01*
X235445638Y-105943834D01*
X235403766Y-105999767D01*
X235338302Y-106024184D01*
X235329456Y-106024500D01*
X233655602Y-106024500D01*
X233588563Y-106004815D01*
X233542808Y-105952011D01*
X233532864Y-105882853D01*
X233541041Y-105853048D01*
X233546802Y-105839139D01*
X233586330Y-105743709D01*
X233605250Y-105600000D01*
X233586330Y-105456291D01*
X233535166Y-105332769D01*
X233530862Y-105322377D01*
X233530861Y-105322376D01*
X233530861Y-105322375D01*
X233442621Y-105207379D01*
X233327625Y-105119139D01*
X233327624Y-105119138D01*
X233327622Y-105119137D01*
X233193709Y-105063670D01*
X233050000Y-105044749D01*
X232906290Y-105063670D01*
X232772377Y-105119137D01*
X232657379Y-105207379D01*
X232569137Y-105322377D01*
X232513670Y-105456290D01*
X232494749Y-105600000D01*
X232513670Y-105743709D01*
X232558959Y-105853048D01*
X232566428Y-105922517D01*
X232535152Y-105984996D01*
X232475063Y-106020648D01*
X232444398Y-106024500D01*
X230397437Y-106024500D01*
X230330398Y-106004815D01*
X230284643Y-105952011D01*
X230282876Y-105947952D01*
X230230862Y-105822377D01*
X230230861Y-105822376D01*
X230230861Y-105822375D01*
X230142621Y-105707379D01*
X230027625Y-105619139D01*
X230027624Y-105619138D01*
X230027622Y-105619137D01*
X229893709Y-105563670D01*
X229750000Y-105544749D01*
X229606290Y-105563670D01*
X229472377Y-105619137D01*
X229357379Y-105707379D01*
X229269137Y-105822377D01*
X229213670Y-105956290D01*
X229194749Y-106099999D01*
X229213670Y-106243709D01*
X229269137Y-106377622D01*
X229269138Y-106377624D01*
X229269139Y-106377625D01*
X229346771Y-106478797D01*
X229357381Y-106492623D01*
X229402344Y-106527125D01*
X229443546Y-106583553D01*
X229447701Y-106653299D01*
X229413488Y-106714219D01*
X229351771Y-106746971D01*
X229326857Y-106749500D01*
X226253481Y-106749500D01*
X226246528Y-106749305D01*
X225954703Y-106732916D01*
X225940885Y-106731359D01*
X225656172Y-106682984D01*
X225642615Y-106679890D01*
X225365100Y-106599939D01*
X225351975Y-106595346D01*
X225085165Y-106484830D01*
X225072637Y-106478797D01*
X224819874Y-106339100D01*
X224808100Y-106331702D01*
X224572569Y-106164584D01*
X224561697Y-106155914D01*
X224412106Y-106022232D01*
X224346355Y-105963473D01*
X224336524Y-105953642D01*
X224335066Y-105952011D01*
X224144085Y-105738302D01*
X224135415Y-105727430D01*
X223968297Y-105491899D01*
X223960899Y-105480125D01*
X223880875Y-105335332D01*
X223821198Y-105227355D01*
X223815172Y-105214841D01*
X223704653Y-104948024D01*
X223700060Y-104934899D01*
X223620109Y-104657384D01*
X223617015Y-104643827D01*
X223568638Y-104359103D01*
X223567084Y-104345306D01*
X223550695Y-104053472D01*
X223550500Y-104046519D01*
X223550500Y-103940000D01*
X224694396Y-103940000D01*
X224714779Y-104198995D01*
X224775426Y-104451610D01*
X224829719Y-104582683D01*
X224874846Y-104691628D01*
X225003591Y-104901722D01*
X225010590Y-104913143D01*
X225058794Y-104969582D01*
X225179311Y-105110689D01*
X225307589Y-105220249D01*
X225358428Y-105263670D01*
X225376860Y-105279412D01*
X225598372Y-105415154D01*
X225778385Y-105489718D01*
X225838389Y-105514573D01*
X225918197Y-105533733D01*
X226091006Y-105575221D01*
X226285147Y-105590500D01*
X226287592Y-105590500D01*
X226412408Y-105590500D01*
X226414853Y-105590500D01*
X226608994Y-105575221D01*
X226861610Y-105514573D01*
X227101628Y-105415154D01*
X227323140Y-105279412D01*
X227520689Y-105110689D01*
X227689412Y-104913140D01*
X227825154Y-104691628D01*
X227924573Y-104451610D01*
X227985221Y-104198994D01*
X228005604Y-103940000D01*
X227985221Y-103681006D01*
X227933368Y-103465023D01*
X227924573Y-103428389D01*
X227887087Y-103337892D01*
X227825154Y-103188372D01*
X227777128Y-103110000D01*
X232394749Y-103110000D01*
X232413670Y-103253709D01*
X232469137Y-103387622D01*
X232469138Y-103387624D01*
X232469139Y-103387625D01*
X232557379Y-103502621D01*
X232672375Y-103590861D01*
X232806291Y-103646330D01*
X232931078Y-103662758D01*
X232949999Y-103665250D01*
X232949999Y-103665249D01*
X232950000Y-103665250D01*
X233093709Y-103646330D01*
X233227625Y-103590861D01*
X233342621Y-103502621D01*
X233430861Y-103387625D01*
X233486330Y-103253709D01*
X233505250Y-103110000D01*
X233486330Y-102966291D01*
X233437491Y-102848381D01*
X233430862Y-102832377D01*
X233430861Y-102832376D01*
X233430861Y-102832375D01*
X233342621Y-102717379D01*
X233227625Y-102629139D01*
X233227624Y-102629138D01*
X233227622Y-102629137D01*
X233093709Y-102573670D01*
X232950000Y-102554749D01*
X232806290Y-102573670D01*
X232672377Y-102629137D01*
X232557379Y-102717379D01*
X232469137Y-102832377D01*
X232413670Y-102966290D01*
X232394749Y-103110000D01*
X227777128Y-103110000D01*
X227689412Y-102966860D01*
X227688925Y-102966290D01*
X227611307Y-102875411D01*
X227520689Y-102769311D01*
X227356022Y-102628672D01*
X227323143Y-102600590D01*
X227318510Y-102597751D01*
X227101628Y-102464846D01*
X226971983Y-102411145D01*
X226861610Y-102365426D01*
X226608995Y-102304779D01*
X226417287Y-102289691D01*
X226417272Y-102289690D01*
X226414853Y-102289500D01*
X226285147Y-102289500D01*
X226282728Y-102289690D01*
X226282712Y-102289691D01*
X226091004Y-102304779D01*
X225838389Y-102365426D01*
X225633524Y-102450285D01*
X225598372Y-102464846D01*
X225472556Y-102541946D01*
X225376856Y-102600590D01*
X225179311Y-102769311D01*
X225010590Y-102966856D01*
X224974348Y-103025999D01*
X224874846Y-103188372D01*
X224860285Y-103223524D01*
X224775426Y-103428389D01*
X224714779Y-103681004D01*
X224694396Y-103940000D01*
X223550500Y-103940000D01*
X223550500Y-100750000D01*
X231694749Y-100750000D01*
X231713670Y-100893709D01*
X231769137Y-101027622D01*
X231769138Y-101027624D01*
X231769139Y-101027625D01*
X231857379Y-101142621D01*
X231972375Y-101230861D01*
X232106291Y-101286330D01*
X232250000Y-101305250D01*
X232393709Y-101286330D01*
X232527625Y-101230861D01*
X232642621Y-101142621D01*
X232730861Y-101027625D01*
X232786330Y-100893709D01*
X232805250Y-100750000D01*
X232786330Y-100606291D01*
X232730861Y-100472375D01*
X232642621Y-100357379D01*
X232527625Y-100269139D01*
X232527624Y-100269138D01*
X232527622Y-100269137D01*
X232393709Y-100213670D01*
X232250000Y-100194749D01*
X232106290Y-100213670D01*
X231972377Y-100269137D01*
X231857379Y-100357379D01*
X231769137Y-100472377D01*
X231713670Y-100606290D01*
X231694749Y-100750000D01*
X223550500Y-100750000D01*
X223550500Y-95200000D01*
X229444749Y-95200000D01*
X229463670Y-95343709D01*
X229519137Y-95477622D01*
X229519138Y-95477624D01*
X229519139Y-95477625D01*
X229607379Y-95592621D01*
X229722375Y-95680861D01*
X229856291Y-95736330D01*
X229981079Y-95752758D01*
X229999999Y-95755250D01*
X229999999Y-95755249D01*
X230000000Y-95755250D01*
X230143709Y-95736330D01*
X230277625Y-95680861D01*
X230392621Y-95592621D01*
X230480861Y-95477625D01*
X230536330Y-95343709D01*
X230555250Y-95200000D01*
X230536330Y-95056291D01*
X230491368Y-94947741D01*
X230480862Y-94922377D01*
X230480861Y-94922376D01*
X230480861Y-94922375D01*
X230392621Y-94807379D01*
X230277625Y-94719139D01*
X230277624Y-94719138D01*
X230277622Y-94719137D01*
X230143709Y-94663670D01*
X230000000Y-94644749D01*
X229856290Y-94663670D01*
X229722377Y-94719137D01*
X229607379Y-94807379D01*
X229519137Y-94922377D01*
X229463670Y-95056290D01*
X229444749Y-95200000D01*
X223550500Y-95200000D01*
X223550500Y-92399999D01*
X236565247Y-92399999D01*
X236584168Y-92543709D01*
X236639635Y-92677622D01*
X236639636Y-92677624D01*
X236639637Y-92677625D01*
X236727877Y-92792621D01*
X236842873Y-92880861D01*
X236976789Y-92936330D01*
X237101576Y-92952758D01*
X237120497Y-92955250D01*
X237120497Y-92955249D01*
X237120498Y-92955250D01*
X237264207Y-92936330D01*
X237398123Y-92880861D01*
X237513119Y-92792621D01*
X237601359Y-92677625D01*
X237656828Y-92543709D01*
X237675748Y-92400000D01*
X237656828Y-92256291D01*
X237610627Y-92144750D01*
X237601360Y-92122377D01*
X237601359Y-92122376D01*
X237601359Y-92122375D01*
X237513119Y-92007379D01*
X237501962Y-91998817D01*
X237490561Y-91990069D01*
X237449359Y-91933640D01*
X237445205Y-91863894D01*
X237479419Y-91802974D01*
X237490554Y-91793325D01*
X237513120Y-91776010D01*
X237601360Y-91661014D01*
X237656829Y-91527098D01*
X237675749Y-91383389D01*
X237656829Y-91239680D01*
X237606899Y-91119137D01*
X237601361Y-91105766D01*
X237601360Y-91105765D01*
X237601360Y-91105764D01*
X237513120Y-90990768D01*
X237398124Y-90902528D01*
X237398123Y-90902527D01*
X237398121Y-90902526D01*
X237264208Y-90847059D01*
X237120499Y-90828138D01*
X236976789Y-90847059D01*
X236842876Y-90902526D01*
X236727878Y-90990768D01*
X236639636Y-91105766D01*
X236584169Y-91239679D01*
X236565248Y-91383388D01*
X236584169Y-91527098D01*
X236639636Y-91661011D01*
X236639637Y-91661013D01*
X236639638Y-91661014D01*
X236723408Y-91770185D01*
X236727880Y-91776012D01*
X236750434Y-91793319D01*
X236791637Y-91849747D01*
X236795791Y-91919493D01*
X236761578Y-91980413D01*
X236750435Y-91990069D01*
X236727878Y-92007378D01*
X236639635Y-92122377D01*
X236584168Y-92256290D01*
X236565247Y-92399999D01*
X223550500Y-92399999D01*
X223550500Y-92123691D01*
X223570185Y-92056652D01*
X223622989Y-92010897D01*
X223692147Y-92000953D01*
X223749985Y-92025314D01*
X223822375Y-92080861D01*
X223822376Y-92080861D01*
X223822377Y-92080862D01*
X223852715Y-92093428D01*
X223956291Y-92136330D01*
X224081079Y-92152758D01*
X224099999Y-92155250D01*
X224099999Y-92155249D01*
X224100000Y-92155250D01*
X224243709Y-92136330D01*
X224377625Y-92080861D01*
X224492621Y-91992621D01*
X224580861Y-91877625D01*
X224636330Y-91743709D01*
X224655250Y-91600000D01*
X224636330Y-91456291D01*
X224580861Y-91322375D01*
X224492621Y-91207379D01*
X224377625Y-91119139D01*
X224377624Y-91119138D01*
X224377622Y-91119137D01*
X224243709Y-91063670D01*
X224100000Y-91044749D01*
X223956290Y-91063670D01*
X223822374Y-91119138D01*
X223749986Y-91174684D01*
X223684817Y-91199878D01*
X223616372Y-91185839D01*
X223566382Y-91137025D01*
X223550500Y-91076308D01*
X223550500Y-88550000D01*
X229694749Y-88550000D01*
X229713670Y-88693709D01*
X229769137Y-88827622D01*
X229769138Y-88827624D01*
X229769139Y-88827625D01*
X229857379Y-88942621D01*
X229972375Y-89030861D01*
X230106291Y-89086330D01*
X230250000Y-89105250D01*
X230393709Y-89086330D01*
X230527625Y-89030861D01*
X230642621Y-88942621D01*
X230730861Y-88827625D01*
X230786330Y-88693709D01*
X230805250Y-88550000D01*
X230786330Y-88406291D01*
X230730861Y-88272375D01*
X230642621Y-88157379D01*
X230527625Y-88069139D01*
X230527624Y-88069138D01*
X230527622Y-88069137D01*
X230393709Y-88013670D01*
X230249999Y-87994749D01*
X230106290Y-88013670D01*
X229972377Y-88069137D01*
X229857379Y-88157379D01*
X229769137Y-88272377D01*
X229713670Y-88406290D01*
X229694749Y-88550000D01*
X223550500Y-88550000D01*
X223550500Y-85950000D01*
X224164249Y-85950000D01*
X224183170Y-86093709D01*
X224238637Y-86227622D01*
X224238638Y-86227624D01*
X224238639Y-86227625D01*
X224326879Y-86342621D01*
X224441875Y-86430861D01*
X224441876Y-86430861D01*
X224441877Y-86430862D01*
X224456626Y-86436971D01*
X224575791Y-86486330D01*
X224719500Y-86505250D01*
X224863209Y-86486330D01*
X224997125Y-86430861D01*
X225112121Y-86342621D01*
X225200361Y-86227625D01*
X225255830Y-86093709D01*
X225274750Y-85950000D01*
X225255830Y-85806291D01*
X225203122Y-85679040D01*
X225200362Y-85672377D01*
X225200361Y-85672376D01*
X225200361Y-85672375D01*
X225112121Y-85557379D01*
X224997125Y-85469139D01*
X224997124Y-85469138D01*
X224997122Y-85469137D01*
X224863209Y-85413670D01*
X224719499Y-85394749D01*
X224575790Y-85413670D01*
X224441877Y-85469137D01*
X224326879Y-85557379D01*
X224238637Y-85672377D01*
X224183170Y-85806290D01*
X224164249Y-85950000D01*
X223550500Y-85950000D01*
X223550500Y-75524674D01*
X227499500Y-75524674D01*
X227514033Y-75597738D01*
X227514033Y-75597739D01*
X227514034Y-75597740D01*
X227569399Y-75680601D01*
X227652260Y-75735966D01*
X227688792Y-75743233D01*
X227725325Y-75750500D01*
X227725326Y-75750500D01*
X228893311Y-75750500D01*
X228960350Y-75770185D01*
X229006105Y-75822989D01*
X229016049Y-75892147D01*
X229003590Y-75931196D01*
X228974443Y-75987888D01*
X228955235Y-76055059D01*
X228945393Y-76127124D01*
X228946161Y-76235226D01*
X228946402Y-76269153D01*
X228946540Y-76271094D01*
X228946541Y-76271113D01*
X228947370Y-76282752D01*
X228948723Y-76301743D01*
X228948987Y-76303689D01*
X228948989Y-76303704D01*
X228952984Y-76333100D01*
X228953758Y-76338382D01*
X228988156Y-76431947D01*
X228988158Y-76431950D01*
X229024598Y-76491565D01*
X229026243Y-76493785D01*
X229026249Y-76493793D01*
X229051720Y-76528154D01*
X229107589Y-76570389D01*
X229115005Y-76580394D01*
X229120220Y-76582920D01*
X229120314Y-76582978D01*
X229131244Y-76588270D01*
X229131245Y-76588271D01*
X229186459Y-76615007D01*
X229186459Y-76615006D01*
X229187482Y-76615502D01*
X229192039Y-76619635D01*
X229198638Y-76621900D01*
X229211136Y-76627049D01*
X229211846Y-76627015D01*
X229223052Y-76630281D01*
X229224338Y-76630722D01*
X229224338Y-76630723D01*
X229421961Y-76698566D01*
X229440697Y-76706785D01*
X229596810Y-76791269D01*
X229613950Y-76802467D01*
X229754016Y-76911484D01*
X229769081Y-76925353D01*
X229889292Y-77055939D01*
X229901870Y-77072099D01*
X229998954Y-77220696D01*
X230008702Y-77238708D01*
X230079995Y-77401240D01*
X230086645Y-77420610D01*
X230130219Y-77592681D01*
X230133589Y-77612881D01*
X230148246Y-77789759D01*
X230148246Y-77810239D01*
X230133589Y-77987117D01*
X230130219Y-78007317D01*
X230086645Y-78179388D01*
X230079995Y-78198758D01*
X230008702Y-78361290D01*
X229998954Y-78379302D01*
X229901870Y-78527899D01*
X229889292Y-78544059D01*
X229769077Y-78674649D01*
X229754011Y-78688518D01*
X229682348Y-78744297D01*
X229613959Y-78797526D01*
X229596814Y-78808727D01*
X229440698Y-78893212D01*
X229421945Y-78901438D01*
X229339288Y-78929815D01*
X229224384Y-78969262D01*
X229224338Y-78969279D01*
X229222850Y-78969822D01*
X229211847Y-78973936D01*
X229210333Y-78974534D01*
X229199829Y-78978772D01*
X229126611Y-79023871D01*
X229076209Y-79068175D01*
X229076198Y-79068184D01*
X229074136Y-79069998D01*
X229072249Y-79071981D01*
X229072235Y-79071995D01*
X229042745Y-79102995D01*
X228997164Y-79191653D01*
X228977956Y-79258824D01*
X228968115Y-79330884D01*
X228977999Y-80724499D01*
X228978012Y-80726317D01*
X228994499Y-83049999D01*
X228994499Y-86622689D01*
X228994499Y-86622707D01*
X228994500Y-86626000D01*
X228994852Y-86629280D01*
X228994853Y-86629287D01*
X228999984Y-86677012D01*
X229000339Y-86680313D01*
X229001044Y-86683556D01*
X229001045Y-86683559D01*
X229011195Y-86730218D01*
X229011200Y-86730239D01*
X229011545Y-86731824D01*
X229011975Y-86733394D01*
X229011977Y-86733399D01*
X229018782Y-86758200D01*
X229068109Y-86844825D01*
X229084015Y-86863181D01*
X229113867Y-86897632D01*
X229146641Y-86929257D01*
X229234976Y-86975465D01*
X229302015Y-86995150D01*
X229374000Y-87005500D01*
X232371934Y-87005500D01*
X232375305Y-87005500D01*
X232430312Y-86999509D01*
X232482453Y-86988014D01*
X232509487Y-86980475D01*
X232595840Y-86930661D01*
X232648387Y-86884612D01*
X232679828Y-86851661D01*
X232725542Y-86763068D01*
X232744852Y-86695919D01*
X232752919Y-86637495D01*
X232754799Y-86623882D01*
X232753830Y-86450500D01*
X232752749Y-86257047D01*
X232772058Y-86189901D01*
X232778375Y-86180865D01*
X232780860Y-86177626D01*
X232780859Y-86177626D01*
X232780861Y-86177625D01*
X232836330Y-86043709D01*
X232855250Y-85900000D01*
X232853972Y-85890295D01*
X232849087Y-85853185D01*
X232859853Y-85784150D01*
X232906233Y-85731894D01*
X232972026Y-85713000D01*
X235436146Y-85713000D01*
X235503185Y-85732685D01*
X235523826Y-85749317D01*
X235578669Y-85804161D01*
X235628751Y-85854243D01*
X235628754Y-85854245D01*
X236350681Y-86576172D01*
X236384166Y-86637495D01*
X236387000Y-86663853D01*
X236387000Y-88775302D01*
X236377562Y-88822753D01*
X236363670Y-88856292D01*
X236344749Y-88999999D01*
X236363670Y-89143709D01*
X236419137Y-89277622D01*
X236419138Y-89277624D01*
X236419139Y-89277625D01*
X236507379Y-89392621D01*
X236622375Y-89480861D01*
X236622376Y-89480861D01*
X236622377Y-89480862D01*
X236646054Y-89490669D01*
X236756291Y-89536330D01*
X236881078Y-89552758D01*
X236899999Y-89555250D01*
X236899999Y-89555249D01*
X236900000Y-89555250D01*
X237043709Y-89536330D01*
X237177625Y-89480861D01*
X237292621Y-89392621D01*
X237380861Y-89277625D01*
X237436330Y-89143709D01*
X237455250Y-89000000D01*
X237436330Y-88856291D01*
X237422437Y-88822750D01*
X237413000Y-88775302D01*
X237413000Y-86468480D01*
X237415834Y-86442120D01*
X237416954Y-86436973D01*
X237416731Y-86433861D01*
X237413316Y-86386104D01*
X237413000Y-86377258D01*
X237413000Y-86363318D01*
X237413000Y-86363312D01*
X237411010Y-86349475D01*
X237410070Y-86340731D01*
X237406431Y-86289833D01*
X237404584Y-86284883D01*
X237398031Y-86259205D01*
X237397281Y-86253985D01*
X237376090Y-86207583D01*
X237372704Y-86199408D01*
X237354879Y-86151617D01*
X237351721Y-86147399D01*
X237338192Y-86124597D01*
X237336001Y-86119799D01*
X237302590Y-86081241D01*
X237297037Y-86074349D01*
X237288687Y-86063195D01*
X237278833Y-86053341D01*
X237272802Y-86046863D01*
X237239398Y-86008313D01*
X237234961Y-86005462D01*
X237214321Y-85988829D01*
X236336803Y-85111312D01*
X236111171Y-84885680D01*
X236094540Y-84865043D01*
X236091686Y-84860602D01*
X236086085Y-84855749D01*
X236053128Y-84827191D01*
X236046662Y-84821171D01*
X236036803Y-84811312D01*
X236025643Y-84802957D01*
X236018756Y-84797408D01*
X235980200Y-84763998D01*
X235975402Y-84761807D01*
X235952605Y-84748281D01*
X235948383Y-84745121D01*
X235948381Y-84745120D01*
X235900589Y-84727294D01*
X235892416Y-84723909D01*
X235846015Y-84702719D01*
X235846012Y-84702718D01*
X235846011Y-84702718D01*
X235840789Y-84701967D01*
X235815111Y-84695413D01*
X235810166Y-84693568D01*
X235759284Y-84689929D01*
X235750490Y-84688984D01*
X235742730Y-84687868D01*
X235736688Y-84687000D01*
X235736687Y-84687000D01*
X235722742Y-84687000D01*
X235713896Y-84686684D01*
X235663027Y-84683045D01*
X235658618Y-84684005D01*
X235657877Y-84684166D01*
X235631520Y-84687000D01*
X232972026Y-84687000D01*
X232904987Y-84667315D01*
X232859232Y-84614511D01*
X232849087Y-84546815D01*
X232855250Y-84500000D01*
X232854559Y-84494749D01*
X232836330Y-84356291D01*
X232789698Y-84243709D01*
X232774614Y-84207292D01*
X232775993Y-84206720D01*
X232758054Y-84160321D01*
X232770424Y-84100000D01*
X241744749Y-84100000D01*
X241763670Y-84243709D01*
X241819137Y-84377622D01*
X241819138Y-84377624D01*
X241819139Y-84377625D01*
X241907379Y-84492621D01*
X242022375Y-84580861D01*
X242156291Y-84636330D01*
X242281078Y-84652758D01*
X242299999Y-84655250D01*
X242299999Y-84655249D01*
X242300000Y-84655250D01*
X242443709Y-84636330D01*
X242577625Y-84580861D01*
X242674513Y-84506515D01*
X242739681Y-84481321D01*
X242808126Y-84495359D01*
X242825485Y-84506515D01*
X242907096Y-84569137D01*
X242922375Y-84580861D01*
X243056291Y-84636330D01*
X243200000Y-84655250D01*
X243343709Y-84636330D01*
X243477625Y-84580861D01*
X243574512Y-84506516D01*
X243639682Y-84481321D01*
X243708127Y-84495359D01*
X243725487Y-84506516D01*
X243822374Y-84580861D01*
X243877843Y-84603836D01*
X243956291Y-84636330D01*
X244100000Y-84655250D01*
X244243709Y-84636330D01*
X244377625Y-84580861D01*
X244474512Y-84506516D01*
X244539682Y-84481321D01*
X244608127Y-84495359D01*
X244625487Y-84506516D01*
X244722374Y-84580861D01*
X244777843Y-84603836D01*
X244856291Y-84636330D01*
X244981078Y-84652758D01*
X244999999Y-84655250D01*
X244999999Y-84655249D01*
X245000000Y-84655250D01*
X245143709Y-84636330D01*
X245277625Y-84580861D01*
X245392621Y-84492621D01*
X245480861Y-84377625D01*
X245536330Y-84243709D01*
X245555250Y-84100000D01*
X245536330Y-83956291D01*
X245480861Y-83822375D01*
X245392621Y-83707379D01*
X245277625Y-83619139D01*
X245277624Y-83619138D01*
X245277622Y-83619137D01*
X245143709Y-83563670D01*
X245000000Y-83544749D01*
X244856290Y-83563670D01*
X244722375Y-83619138D01*
X244625486Y-83693484D01*
X244560317Y-83718678D01*
X244491872Y-83704640D01*
X244474514Y-83693484D01*
X244377624Y-83619138D01*
X244243709Y-83563670D01*
X244099999Y-83544749D01*
X243956290Y-83563670D01*
X243822375Y-83619138D01*
X243725486Y-83693484D01*
X243660317Y-83718678D01*
X243591872Y-83704640D01*
X243574514Y-83693484D01*
X243477624Y-83619138D01*
X243343709Y-83563670D01*
X243200000Y-83544749D01*
X243056290Y-83563670D01*
X242922375Y-83619138D01*
X242825486Y-83693484D01*
X242760317Y-83718678D01*
X242691872Y-83704640D01*
X242674514Y-83693484D01*
X242577624Y-83619138D01*
X242443709Y-83563670D01*
X242300000Y-83544749D01*
X242156290Y-83563670D01*
X242022377Y-83619137D01*
X241907379Y-83707379D01*
X241819137Y-83822377D01*
X241763670Y-83956290D01*
X241744749Y-84100000D01*
X232770424Y-84100000D01*
X232772090Y-84091876D01*
X232780158Y-84079321D01*
X232780859Y-84077626D01*
X232780861Y-84077625D01*
X232836330Y-83943709D01*
X232855250Y-83800000D01*
X232836330Y-83656291D01*
X232780861Y-83522375D01*
X232762541Y-83498499D01*
X232737348Y-83433330D01*
X232736920Y-83423707D01*
X232735164Y-83109435D01*
X232721858Y-80727562D01*
X232719780Y-80696438D01*
X232715930Y-80666465D01*
X232715412Y-80662656D01*
X232682246Y-80568643D01*
X232646594Y-80508554D01*
X232644978Y-80506313D01*
X232644963Y-80506290D01*
X232610845Y-80458977D01*
X232587600Y-80393087D01*
X232596861Y-80338998D01*
X232611878Y-80302743D01*
X232636330Y-80243709D01*
X232655250Y-80100000D01*
X232636330Y-79956291D01*
X232592270Y-79849919D01*
X232584801Y-79780450D01*
X232616077Y-79717971D01*
X232617044Y-79716943D01*
X232639836Y-79693057D01*
X232685550Y-79604464D01*
X232704860Y-79537315D01*
X232714807Y-79465276D01*
X232713949Y-79311742D01*
X232707628Y-78180193D01*
X232726938Y-78113044D01*
X232779485Y-78066995D01*
X232831626Y-78055500D01*
X243472690Y-78055500D01*
X243476000Y-78055500D01*
X243530313Y-78049661D01*
X243581824Y-78038455D01*
X243608198Y-78031219D01*
X243672907Y-77994370D01*
X243694825Y-77981890D01*
X243694825Y-77981889D01*
X243694828Y-77981888D01*
X243747632Y-77936133D01*
X243779257Y-77903359D01*
X243825465Y-77815024D01*
X243845150Y-77747985D01*
X243855500Y-77676000D01*
X243855500Y-77324500D01*
X244844749Y-77324500D01*
X244863670Y-77468209D01*
X244919137Y-77602122D01*
X244919138Y-77602124D01*
X244919139Y-77602125D01*
X245007379Y-77717121D01*
X245122375Y-77805361D01*
X245122376Y-77805361D01*
X245122377Y-77805362D01*
X245145704Y-77815024D01*
X245256291Y-77860830D01*
X245400000Y-77879750D01*
X245543709Y-77860830D01*
X245677625Y-77805361D01*
X245684613Y-77799999D01*
X249244749Y-77799999D01*
X249263670Y-77943709D01*
X249319137Y-78077622D01*
X249319138Y-78077624D01*
X249319139Y-78077625D01*
X249407379Y-78192621D01*
X249522375Y-78280861D01*
X249656291Y-78336330D01*
X249800000Y-78355250D01*
X249943709Y-78336330D01*
X250077625Y-78280861D01*
X250192621Y-78192621D01*
X250280861Y-78077625D01*
X250336330Y-77943709D01*
X250355250Y-77800000D01*
X250336330Y-77656291D01*
X250280861Y-77522375D01*
X250192621Y-77407379D01*
X250077625Y-77319139D01*
X250077624Y-77319138D01*
X250077622Y-77319137D01*
X249943709Y-77263670D01*
X249800000Y-77244749D01*
X249656290Y-77263670D01*
X249522377Y-77319137D01*
X249407379Y-77407379D01*
X249319137Y-77522377D01*
X249263670Y-77656290D01*
X249244749Y-77799999D01*
X245684613Y-77799999D01*
X245792621Y-77717121D01*
X245880861Y-77602125D01*
X245936330Y-77468209D01*
X245955250Y-77324500D01*
X245936330Y-77180791D01*
X245880861Y-77046875D01*
X245792621Y-76931879D01*
X245677625Y-76843639D01*
X245677624Y-76843638D01*
X245677622Y-76843637D01*
X245543709Y-76788170D01*
X245400000Y-76769249D01*
X245256290Y-76788170D01*
X245122377Y-76843637D01*
X245007379Y-76931879D01*
X244919137Y-77046877D01*
X244863670Y-77180790D01*
X244844749Y-77324500D01*
X243855500Y-77324500D01*
X243855500Y-76716088D01*
X259844749Y-76716088D01*
X259863670Y-76859798D01*
X259919137Y-76993711D01*
X259919138Y-76993713D01*
X259919139Y-76993714D01*
X260007379Y-77108710D01*
X260122375Y-77196950D01*
X260256291Y-77252419D01*
X260400000Y-77271339D01*
X260543709Y-77252419D01*
X260677625Y-77196950D01*
X260792621Y-77108710D01*
X260880861Y-76993714D01*
X260936330Y-76859798D01*
X260950712Y-76750554D01*
X260978977Y-76686662D01*
X261037301Y-76648190D01*
X261107166Y-76647358D01*
X261121093Y-76652179D01*
X261122880Y-76652919D01*
X261266589Y-76671839D01*
X261410298Y-76652919D01*
X261544214Y-76597450D01*
X261659210Y-76509210D01*
X261747450Y-76394214D01*
X261802919Y-76260298D01*
X261821839Y-76116589D01*
X261802919Y-75972880D01*
X261747450Y-75838964D01*
X261659210Y-75723968D01*
X261544214Y-75635728D01*
X261544213Y-75635727D01*
X261544211Y-75635726D01*
X261410298Y-75580259D01*
X261266588Y-75561338D01*
X261122879Y-75580259D01*
X260988966Y-75635726D01*
X260873968Y-75723968D01*
X260785726Y-75838966D01*
X260730259Y-75972879D01*
X260715877Y-76082120D01*
X260687610Y-76146016D01*
X260629286Y-76184487D01*
X260559421Y-76185318D01*
X260545494Y-76180498D01*
X260543709Y-76179759D01*
X260513754Y-76175815D01*
X260400000Y-76160838D01*
X260256290Y-76179759D01*
X260122377Y-76235226D01*
X260007379Y-76323468D01*
X259919137Y-76438466D01*
X259863670Y-76572379D01*
X259844749Y-76716088D01*
X243855500Y-76716088D01*
X243855500Y-76173569D01*
X243849756Y-76119695D01*
X243845021Y-76097744D01*
X243850127Y-76028064D01*
X243892095Y-75972203D01*
X243950044Y-75948661D01*
X244043709Y-75936330D01*
X244177625Y-75880861D01*
X244292621Y-75792621D01*
X244380861Y-75677625D01*
X244436330Y-75543709D01*
X244455250Y-75400000D01*
X244436330Y-75256291D01*
X244423162Y-75224500D01*
X263744749Y-75224500D01*
X263763670Y-75368209D01*
X263819137Y-75502122D01*
X263819138Y-75502124D01*
X263819139Y-75502125D01*
X263907379Y-75617121D01*
X264022375Y-75705361D01*
X264156291Y-75760830D01*
X264300000Y-75779750D01*
X264443709Y-75760830D01*
X264577625Y-75705361D01*
X264692621Y-75617121D01*
X264780861Y-75502125D01*
X264836330Y-75368209D01*
X264855250Y-75224500D01*
X264836330Y-75080791D01*
X264780861Y-74946875D01*
X264692621Y-74831879D01*
X264577625Y-74743639D01*
X264577624Y-74743638D01*
X264577622Y-74743637D01*
X264443709Y-74688170D01*
X264299999Y-74669249D01*
X264156290Y-74688170D01*
X264022377Y-74743637D01*
X263907379Y-74831879D01*
X263819137Y-74946877D01*
X263763670Y-75080790D01*
X263744749Y-75224500D01*
X244423162Y-75224500D01*
X244380861Y-75122375D01*
X244292621Y-75007379D01*
X244177625Y-74919139D01*
X244177624Y-74919138D01*
X244177622Y-74919137D01*
X244043709Y-74863670D01*
X243900000Y-74844749D01*
X243756290Y-74863670D01*
X243622374Y-74919138D01*
X243525485Y-74993484D01*
X243460316Y-75018678D01*
X243391871Y-75004639D01*
X243374516Y-74993487D01*
X243277625Y-74919139D01*
X243277624Y-74919138D01*
X243277622Y-74919137D01*
X243143709Y-74863670D01*
X243000000Y-74844749D01*
X242856290Y-74863670D01*
X242722375Y-74919138D01*
X242625486Y-74993484D01*
X242560317Y-75018678D01*
X242491872Y-75004640D01*
X242474514Y-74993484D01*
X242377624Y-74919138D01*
X242243709Y-74863670D01*
X242099999Y-74844749D01*
X241956290Y-74863670D01*
X241822375Y-74919138D01*
X241725486Y-74993484D01*
X241660317Y-75018678D01*
X241591872Y-75004640D01*
X241574514Y-74993484D01*
X241477624Y-74919138D01*
X241343709Y-74863670D01*
X241200000Y-74844749D01*
X241056290Y-74863670D01*
X240922377Y-74919137D01*
X240807379Y-75007379D01*
X240719137Y-75122377D01*
X240663670Y-75256290D01*
X240644749Y-75399999D01*
X240663669Y-75543706D01*
X240663669Y-75543708D01*
X240663670Y-75543709D01*
X240692185Y-75612551D01*
X240699653Y-75682020D01*
X240668377Y-75744499D01*
X240608288Y-75780151D01*
X240577192Y-75784001D01*
X230506534Y-75749034D01*
X230439564Y-75729117D01*
X230393992Y-75676155D01*
X230384289Y-75606962D01*
X230385348Y-75600842D01*
X230385964Y-75597741D01*
X230385966Y-75597740D01*
X230400500Y-75524674D01*
X230400500Y-73500000D01*
X269044749Y-73500000D01*
X269063670Y-73643709D01*
X269119137Y-73777622D01*
X269119138Y-73777624D01*
X269119139Y-73777625D01*
X269207379Y-73892621D01*
X269322375Y-73980861D01*
X269456291Y-74036330D01*
X269600000Y-74055250D01*
X269743709Y-74036330D01*
X269877625Y-73980861D01*
X269992621Y-73892621D01*
X270080861Y-73777625D01*
X270136330Y-73643709D01*
X270155250Y-73500000D01*
X270136330Y-73356291D01*
X270080861Y-73222375D01*
X269992621Y-73107379D01*
X269877625Y-73019139D01*
X269877624Y-73019138D01*
X269877622Y-73019137D01*
X269743709Y-72963670D01*
X269599999Y-72944749D01*
X269456290Y-72963670D01*
X269322377Y-73019137D01*
X269207379Y-73107379D01*
X269119137Y-73222377D01*
X269063670Y-73356290D01*
X269044749Y-73500000D01*
X230400500Y-73500000D01*
X230400500Y-73075326D01*
X230385966Y-73002260D01*
X230330601Y-72919399D01*
X230247740Y-72864034D01*
X230247739Y-72864033D01*
X230247738Y-72864033D01*
X230174675Y-72849500D01*
X230174674Y-72849500D01*
X227725326Y-72849500D01*
X227725325Y-72849500D01*
X227652261Y-72864033D01*
X227569399Y-72919399D01*
X227514033Y-73002261D01*
X227499500Y-73075325D01*
X227499500Y-75524674D01*
X223550500Y-75524674D01*
X223550500Y-68960000D01*
X224694396Y-68960000D01*
X224714779Y-69218995D01*
X224775426Y-69471610D01*
X224835430Y-69616470D01*
X224874846Y-69711628D01*
X225010588Y-69933140D01*
X225010590Y-69933143D01*
X225077567Y-70011563D01*
X225179311Y-70130689D01*
X225376860Y-70299412D01*
X225598372Y-70435154D01*
X225778385Y-70509718D01*
X225838389Y-70534573D01*
X225918197Y-70553733D01*
X226091006Y-70595221D01*
X226285147Y-70610500D01*
X226287592Y-70610500D01*
X226412408Y-70610500D01*
X226414853Y-70610500D01*
X226608994Y-70595221D01*
X226861610Y-70534573D01*
X227101628Y-70435154D01*
X227323140Y-70299412D01*
X227520689Y-70130689D01*
X227689412Y-69933140D01*
X227825154Y-69711628D01*
X227924573Y-69471610D01*
X227985221Y-69218994D01*
X228005604Y-68960000D01*
X268774396Y-68960000D01*
X268794779Y-69218995D01*
X268855426Y-69471610D01*
X268915430Y-69616470D01*
X268954846Y-69711628D01*
X269090588Y-69933140D01*
X269090590Y-69933143D01*
X269157567Y-70011563D01*
X269259311Y-70130689D01*
X269456860Y-70299412D01*
X269678372Y-70435154D01*
X269858385Y-70509718D01*
X269918389Y-70534573D01*
X269998197Y-70553733D01*
X270171006Y-70595221D01*
X270365147Y-70610500D01*
X270367592Y-70610500D01*
X270492408Y-70610500D01*
X270494853Y-70610500D01*
X270688994Y-70595221D01*
X270941610Y-70534573D01*
X271181628Y-70435154D01*
X271403140Y-70299412D01*
X271600689Y-70130689D01*
X271769412Y-69933140D01*
X271905154Y-69711628D01*
X272004573Y-69471610D01*
X272065221Y-69218994D01*
X272085604Y-68960000D01*
X272065221Y-68701006D01*
X272004573Y-68448390D01*
X271905154Y-68208372D01*
X271769412Y-67986860D01*
X271600689Y-67789311D01*
X271481563Y-67687567D01*
X271403143Y-67620590D01*
X271403140Y-67620588D01*
X271181628Y-67484846D01*
X271086470Y-67445430D01*
X270941610Y-67385426D01*
X270688995Y-67324779D01*
X270497287Y-67309691D01*
X270497272Y-67309690D01*
X270494853Y-67309500D01*
X270365147Y-67309500D01*
X270362728Y-67309690D01*
X270362712Y-67309691D01*
X270171004Y-67324779D01*
X269918389Y-67385426D01*
X269713524Y-67470285D01*
X269678372Y-67484846D01*
X269534359Y-67573096D01*
X269456856Y-67620590D01*
X269259311Y-67789311D01*
X269090590Y-67986856D01*
X269043096Y-68064359D01*
X268954846Y-68208372D01*
X268954845Y-68208375D01*
X268855426Y-68448389D01*
X268794779Y-68701004D01*
X268774396Y-68960000D01*
X228005604Y-68960000D01*
X227985221Y-68701006D01*
X227924573Y-68448390D01*
X227825154Y-68208372D01*
X227689412Y-67986860D01*
X227520689Y-67789311D01*
X227401563Y-67687567D01*
X227323143Y-67620590D01*
X227323140Y-67620588D01*
X227101628Y-67484846D01*
X227006470Y-67445430D01*
X226861610Y-67385426D01*
X226608995Y-67324779D01*
X226417287Y-67309691D01*
X226417272Y-67309690D01*
X226414853Y-67309500D01*
X226285147Y-67309500D01*
X226282728Y-67309690D01*
X226282712Y-67309691D01*
X226091004Y-67324779D01*
X225838389Y-67385426D01*
X225633524Y-67470285D01*
X225598372Y-67484846D01*
X225454359Y-67573096D01*
X225376856Y-67620590D01*
X225179311Y-67789311D01*
X225010590Y-67986856D01*
X224963096Y-68064359D01*
X224874846Y-68208372D01*
X224874845Y-68208375D01*
X224775426Y-68448389D01*
X224714779Y-68701004D01*
X224694396Y-68960000D01*
X223550500Y-68960000D01*
X223550500Y-68903479D01*
X223550695Y-68896526D01*
X223561675Y-68701004D01*
X223567084Y-68604691D01*
X223568638Y-68590898D01*
X223617015Y-68306167D01*
X223620109Y-68292615D01*
X223644379Y-68208375D01*
X223700061Y-68015096D01*
X223704653Y-68001975D01*
X223710914Y-67986860D01*
X223815175Y-67735151D01*
X223821195Y-67722651D01*
X223960902Y-67469868D01*
X223968297Y-67458100D01*
X224135422Y-67222559D01*
X224144077Y-67211705D01*
X224336534Y-66996346D01*
X224346346Y-66986534D01*
X224561705Y-66794077D01*
X224572559Y-66785422D01*
X224808105Y-66618293D01*
X224819868Y-66610902D01*
X225072651Y-66471195D01*
X225085151Y-66465175D01*
X225351979Y-66354651D01*
X225365096Y-66350061D01*
X225642621Y-66270107D01*
X225656167Y-66267015D01*
X225940898Y-66218638D01*
X225954691Y-66217084D01*
X226246527Y-66200695D01*
X226253481Y-66200500D01*
X226289882Y-66200500D01*
X270510118Y-66200500D01*
X270546519Y-66200500D01*
X270553472Y-66200695D01*
G37*
G04 #@! TD.AperFunction*
G04 #@! TA.AperFunction,Conductor*
G36*
X247705703Y-87567516D02*
G01*
X247712181Y-87573548D01*
X248451676Y-88313043D01*
X248467804Y-88332903D01*
X248472878Y-88340670D01*
X248495784Y-88358498D01*
X248506803Y-88368228D01*
X248507005Y-88368372D01*
X248507008Y-88368375D01*
X248522647Y-88379540D01*
X248526760Y-88382606D01*
X248548440Y-88399481D01*
X248571085Y-88417106D01*
X248578248Y-88419238D01*
X248578249Y-88419239D01*
X248624927Y-88433135D01*
X248629753Y-88434681D01*
X248675827Y-88450500D01*
X248675829Y-88450500D01*
X248682892Y-88452925D01*
X248690358Y-88452616D01*
X248690361Y-88452617D01*
X248738983Y-88450605D01*
X248744107Y-88450500D01*
X250453456Y-88450500D01*
X250520495Y-88470185D01*
X250541137Y-88486819D01*
X251517361Y-89463043D01*
X251533489Y-89482903D01*
X251538563Y-89490669D01*
X251561473Y-89508500D01*
X251572496Y-89518235D01*
X251588355Y-89529558D01*
X251592464Y-89532622D01*
X251636771Y-89567107D01*
X251643932Y-89569239D01*
X251643934Y-89569240D01*
X251690614Y-89583137D01*
X251695455Y-89584688D01*
X251741512Y-89600500D01*
X251741514Y-89600500D01*
X251748578Y-89602925D01*
X251756044Y-89602616D01*
X251756047Y-89602617D01*
X251804678Y-89600606D01*
X251809802Y-89600500D01*
X254753456Y-89600500D01*
X254820495Y-89620185D01*
X254841137Y-89636819D01*
X254863181Y-89658863D01*
X254896666Y-89720186D01*
X254899500Y-89746544D01*
X254899500Y-91469081D01*
X254896861Y-91494527D01*
X254894957Y-91503606D01*
X254898548Y-91532414D01*
X254899458Y-91547088D01*
X254902665Y-91566306D01*
X254903403Y-91571371D01*
X254910351Y-91627102D01*
X254937081Y-91676495D01*
X254939421Y-91681040D01*
X254960802Y-91724777D01*
X254960803Y-91724778D01*
X254964084Y-91731489D01*
X254969581Y-91736549D01*
X254969582Y-91736551D01*
X254977358Y-91743709D01*
X255005399Y-91769523D01*
X255009097Y-91773072D01*
X255413681Y-92177656D01*
X255447166Y-92238979D01*
X255450000Y-92265337D01*
X255450000Y-93428463D01*
X255447361Y-93453909D01*
X255445457Y-93462988D01*
X255449048Y-93491796D01*
X255449958Y-93506470D01*
X255453165Y-93525688D01*
X255453903Y-93530753D01*
X255460851Y-93586484D01*
X255487581Y-93635877D01*
X255489921Y-93640422D01*
X255511302Y-93684159D01*
X255511303Y-93684160D01*
X255514584Y-93690871D01*
X255520081Y-93695931D01*
X255520082Y-93695933D01*
X255555898Y-93728904D01*
X255559596Y-93732453D01*
X256393331Y-94566188D01*
X256426816Y-94627511D01*
X256429650Y-94653869D01*
X256429650Y-94783759D01*
X256409965Y-94850798D01*
X256396984Y-94864907D01*
X256299287Y-94992228D01*
X256243820Y-95126141D01*
X256224899Y-95269851D01*
X256243820Y-95413560D01*
X256299287Y-95547473D01*
X256299288Y-95547475D01*
X256299289Y-95547476D01*
X256387529Y-95662472D01*
X256502525Y-95750712D01*
X256508611Y-95753233D01*
X256563014Y-95797070D01*
X256585081Y-95863364D01*
X256567804Y-95931064D01*
X256548841Y-95955475D01*
X255436955Y-97067361D01*
X255417104Y-97083483D01*
X255409332Y-97088561D01*
X255391500Y-97111471D01*
X255381765Y-97122496D01*
X255370441Y-97138357D01*
X255367392Y-97142445D01*
X255361870Y-97149541D01*
X255332891Y-97186773D01*
X255316871Y-97240582D01*
X255315309Y-97245458D01*
X255297073Y-97298578D01*
X255299393Y-97354670D01*
X255299499Y-97359792D01*
X255299500Y-100298883D01*
X255279815Y-100365922D01*
X255227011Y-100411677D01*
X255222952Y-100413444D01*
X255089700Y-100468637D01*
X254974702Y-100556879D01*
X254886460Y-100671877D01*
X254830993Y-100805790D01*
X254812072Y-100949499D01*
X254830993Y-101093209D01*
X254886460Y-101227122D01*
X254886461Y-101227124D01*
X254886462Y-101227125D01*
X254974702Y-101342121D01*
X255065384Y-101411704D01*
X255081780Y-101424285D01*
X255122982Y-101480713D01*
X255127137Y-101550459D01*
X255093974Y-101610342D01*
X254341137Y-102363181D01*
X254279814Y-102396666D01*
X254253456Y-102399500D01*
X251277404Y-102399500D01*
X251210365Y-102379815D01*
X251164610Y-102327011D01*
X251154666Y-102257853D01*
X251179029Y-102200013D01*
X251179642Y-102199212D01*
X251180861Y-102197625D01*
X251236330Y-102063709D01*
X251255250Y-101920000D01*
X251236330Y-101776291D01*
X251180861Y-101642375D01*
X251092621Y-101527379D01*
X250977625Y-101439139D01*
X250977624Y-101439138D01*
X250977622Y-101439137D01*
X250843709Y-101383670D01*
X250699999Y-101364749D01*
X250556290Y-101383670D01*
X250422377Y-101439137D01*
X250307379Y-101527379D01*
X250219137Y-101642377D01*
X250163670Y-101776290D01*
X250144749Y-101920000D01*
X250163669Y-102063706D01*
X250163669Y-102063708D01*
X250163670Y-102063709D01*
X250199277Y-102149674D01*
X250210977Y-102177919D01*
X250218445Y-102247389D01*
X250187169Y-102309868D01*
X250127080Y-102345520D01*
X250057255Y-102343025D01*
X250008734Y-102313052D01*
X249382638Y-101686956D01*
X249366509Y-101667094D01*
X249361437Y-101659330D01*
X249338533Y-101641504D01*
X249327508Y-101631768D01*
X249311653Y-101620448D01*
X249307544Y-101617384D01*
X249263229Y-101582892D01*
X249209409Y-101566869D01*
X249204531Y-101565306D01*
X249151421Y-101547074D01*
X249095332Y-101549394D01*
X249090208Y-101549500D01*
X246475352Y-101549500D01*
X246408313Y-101529815D01*
X246362558Y-101477011D01*
X246352614Y-101407853D01*
X246381639Y-101344297D01*
X246387656Y-101337833D01*
X246453861Y-101271628D01*
X246494083Y-101244753D01*
X246527625Y-101230861D01*
X246642621Y-101142621D01*
X246730861Y-101027625D01*
X246786330Y-100893709D01*
X246805250Y-100750000D01*
X246786330Y-100606291D01*
X246730861Y-100472375D01*
X246642621Y-100357379D01*
X246527625Y-100269139D01*
X246527624Y-100269138D01*
X246527622Y-100269137D01*
X246393709Y-100213670D01*
X246250000Y-100194749D01*
X246106290Y-100213670D01*
X245972377Y-100269137D01*
X245857377Y-100357380D01*
X245769138Y-100472376D01*
X245755246Y-100505914D01*
X245728367Y-100546140D01*
X244335679Y-101938828D01*
X244315043Y-101955459D01*
X244310602Y-101958312D01*
X244277195Y-101996866D01*
X244271171Y-102003337D01*
X244261308Y-102013200D01*
X244252958Y-102024354D01*
X244247411Y-102031238D01*
X244213998Y-102069800D01*
X244211803Y-102074606D01*
X244198285Y-102097388D01*
X244195123Y-102101611D01*
X244184253Y-102130753D01*
X244177472Y-102148935D01*
X244177291Y-102149419D01*
X244173905Y-102157591D01*
X244152718Y-102203985D01*
X244151968Y-102209205D01*
X244145415Y-102234884D01*
X244143569Y-102239833D01*
X244139929Y-102290717D01*
X244138984Y-102299509D01*
X244137038Y-102313052D01*
X244137000Y-102313314D01*
X244137000Y-102327258D01*
X244136684Y-102336109D01*
X244135999Y-102345681D01*
X244111579Y-102411145D01*
X244099996Y-102424511D01*
X242623828Y-103900681D01*
X242562505Y-103934166D01*
X242536147Y-103937000D01*
X238917691Y-103937000D01*
X238850652Y-103917315D01*
X238830010Y-103900681D01*
X238119296Y-103189967D01*
X238085811Y-103128644D01*
X238090795Y-103058952D01*
X238108596Y-103026807D01*
X238186126Y-102925770D01*
X238241595Y-102791854D01*
X238260515Y-102648145D01*
X238241595Y-102504436D01*
X238186126Y-102370520D01*
X238097886Y-102255524D01*
X237982890Y-102167284D01*
X237982889Y-102167283D01*
X237982887Y-102167282D01*
X237848974Y-102111815D01*
X237705265Y-102092894D01*
X237561555Y-102111815D01*
X237427642Y-102167282D01*
X237312644Y-102255524D01*
X237224402Y-102370522D01*
X237168935Y-102504435D01*
X237150014Y-102648145D01*
X237170824Y-102806207D01*
X237160058Y-102875242D01*
X237113678Y-102927498D01*
X237056731Y-102946076D01*
X237020266Y-102948684D01*
X237011420Y-102949000D01*
X236997474Y-102949000D01*
X236992007Y-102949785D01*
X236983671Y-102950984D01*
X236974878Y-102951929D01*
X236923993Y-102955569D01*
X236923994Y-102955569D01*
X236919042Y-102957415D01*
X236893366Y-102963968D01*
X236888149Y-102964718D01*
X236841745Y-102985909D01*
X236833571Y-102989294D01*
X236785777Y-103007120D01*
X236781553Y-103010283D01*
X236758764Y-103023805D01*
X236753959Y-103025999D01*
X236718512Y-103056714D01*
X236654956Y-103085738D01*
X236637311Y-103087000D01*
X236413855Y-103087000D01*
X236346816Y-103067315D01*
X236326174Y-103050681D01*
X236249762Y-102974269D01*
X236216277Y-102912946D01*
X236213443Y-102886588D01*
X236213443Y-102769311D01*
X236213443Y-102622070D01*
X236222882Y-102574624D01*
X236236774Y-102541087D01*
X236255694Y-102397378D01*
X236236774Y-102253669D01*
X236181305Y-102119753D01*
X236093065Y-102004757D01*
X236093063Y-102004756D01*
X236093063Y-102004755D01*
X236036654Y-101961471D01*
X236005989Y-101937941D01*
X235964787Y-101881514D01*
X235960632Y-101811768D01*
X235993793Y-101751887D01*
X236258862Y-101486819D01*
X236320185Y-101453334D01*
X236346543Y-101450500D01*
X237400788Y-101450500D01*
X237426234Y-101453139D01*
X237427556Y-101453416D01*
X237435315Y-101455043D01*
X237461364Y-101451795D01*
X237464123Y-101451452D01*
X237478795Y-101450541D01*
X237498013Y-101447334D01*
X237503069Y-101446596D01*
X237551393Y-101440573D01*
X237551394Y-101440572D01*
X237558808Y-101439648D01*
X237565378Y-101436092D01*
X237565381Y-101436092D01*
X237608201Y-101412918D01*
X237612747Y-101410577D01*
X237656484Y-101389198D01*
X237656486Y-101389195D01*
X237663195Y-101385916D01*
X237668254Y-101380419D01*
X237668258Y-101380418D01*
X237701254Y-101344572D01*
X237704756Y-101340924D01*
X239513046Y-99532634D01*
X239532903Y-99516510D01*
X239540669Y-99511437D01*
X239558496Y-99488531D01*
X239568232Y-99477507D01*
X239568375Y-99477307D01*
X239579561Y-99461637D01*
X239582610Y-99457548D01*
X239612517Y-99419126D01*
X239612517Y-99419124D01*
X239617108Y-99413227D01*
X239633127Y-99359419D01*
X239634679Y-99354569D01*
X239650500Y-99308488D01*
X239650500Y-99308484D01*
X239652925Y-99301421D01*
X239652616Y-99293956D01*
X239652617Y-99293954D01*
X239650605Y-99245331D01*
X239650500Y-99240208D01*
X239650500Y-95662471D01*
X239650500Y-92048010D01*
X239670184Y-91980975D01*
X239686809Y-91960343D01*
X239860335Y-91786816D01*
X239921658Y-91753334D01*
X239948015Y-91750500D01*
X241313332Y-91750500D01*
X241380371Y-91770185D01*
X241426126Y-91822989D01*
X241436070Y-91892147D01*
X241427894Y-91921951D01*
X241413670Y-91956291D01*
X241394749Y-92099999D01*
X241403132Y-92163670D01*
X241413670Y-92243709D01*
X241427561Y-92277246D01*
X241437000Y-92324696D01*
X241437000Y-94381520D01*
X241434166Y-94407879D01*
X241433045Y-94413027D01*
X241436684Y-94463895D01*
X241437000Y-94472741D01*
X241437000Y-94486686D01*
X241438984Y-94500490D01*
X241439929Y-94509284D01*
X241443568Y-94560166D01*
X241445413Y-94565111D01*
X241451967Y-94590789D01*
X241452718Y-94596011D01*
X241452719Y-94596015D01*
X241472401Y-94639113D01*
X241473909Y-94642416D01*
X241477294Y-94650589D01*
X241488727Y-94681242D01*
X241495121Y-94698383D01*
X241498281Y-94702605D01*
X241511807Y-94725402D01*
X241513998Y-94730200D01*
X241513999Y-94730201D01*
X241532556Y-94751617D01*
X241547408Y-94768756D01*
X241552957Y-94775643D01*
X241561312Y-94786803D01*
X241571171Y-94796662D01*
X241577191Y-94803128D01*
X241609618Y-94840551D01*
X241610602Y-94841686D01*
X241615043Y-94844540D01*
X241635680Y-94861171D01*
X241950681Y-95176172D01*
X241984166Y-95237495D01*
X241987000Y-95263853D01*
X241987000Y-99175302D01*
X241977562Y-99222750D01*
X241963670Y-99256291D01*
X241961698Y-99271268D01*
X241944749Y-99399999D01*
X241954928Y-99477307D01*
X241963670Y-99543709D01*
X241977561Y-99577246D01*
X241987000Y-99624696D01*
X241987000Y-102148839D01*
X241967315Y-102215878D01*
X241914511Y-102261633D01*
X241845353Y-102271577D01*
X241787514Y-102247215D01*
X241751576Y-102219639D01*
X241751575Y-102219638D01*
X241751573Y-102219637D01*
X241617660Y-102164170D01*
X241473951Y-102145249D01*
X241330242Y-102164170D01*
X241270902Y-102188749D01*
X241201433Y-102196216D01*
X241138954Y-102164941D01*
X241125075Y-102149674D01*
X241092621Y-102107379D01*
X240977625Y-102019139D01*
X240977624Y-102019138D01*
X240977622Y-102019137D01*
X240843709Y-101963670D01*
X240699999Y-101944749D01*
X240556290Y-101963670D01*
X240422377Y-102019137D01*
X240307379Y-102107379D01*
X240219137Y-102222377D01*
X240163670Y-102356290D01*
X240144749Y-102500000D01*
X240163670Y-102643709D01*
X240219137Y-102777622D01*
X240219138Y-102777624D01*
X240219139Y-102777625D01*
X240307379Y-102892621D01*
X240422375Y-102980861D01*
X240422376Y-102980861D01*
X240422377Y-102980862D01*
X240442343Y-102989132D01*
X240556291Y-103036330D01*
X240700000Y-103055250D01*
X240843709Y-103036330D01*
X240903049Y-103011750D01*
X240972515Y-103004282D01*
X241034995Y-103035557D01*
X241048874Y-103050825D01*
X241081327Y-103093118D01*
X241081328Y-103093119D01*
X241081330Y-103093121D01*
X241196326Y-103181361D01*
X241196327Y-103181361D01*
X241196328Y-103181362D01*
X241217103Y-103189967D01*
X241330242Y-103236830D01*
X241473951Y-103255750D01*
X241617660Y-103236830D01*
X241751576Y-103181361D01*
X241802566Y-103142234D01*
X241867734Y-103117041D01*
X241936179Y-103131079D01*
X241953534Y-103142232D01*
X242004528Y-103181361D01*
X242004529Y-103181361D01*
X242004530Y-103181362D01*
X242025305Y-103189967D01*
X242138444Y-103236830D01*
X242282153Y-103255750D01*
X242425862Y-103236830D01*
X242559778Y-103181361D01*
X242674774Y-103093121D01*
X242763014Y-102978125D01*
X242776904Y-102944587D01*
X242803785Y-102904358D01*
X242814322Y-102893820D01*
X242834961Y-102877189D01*
X242839398Y-102874339D01*
X242872797Y-102835792D01*
X242878815Y-102829328D01*
X242888688Y-102819457D01*
X242897060Y-102808271D01*
X242902577Y-102801425D01*
X242936001Y-102762854D01*
X242938192Y-102758054D01*
X242951718Y-102735257D01*
X242954879Y-102731036D01*
X242972714Y-102683215D01*
X242976084Y-102675080D01*
X242997281Y-102628668D01*
X242998031Y-102623447D01*
X243004586Y-102597764D01*
X243006431Y-102592820D01*
X243010070Y-102541923D01*
X243011011Y-102533171D01*
X243013000Y-102519341D01*
X243012999Y-102505393D01*
X243013315Y-102496547D01*
X243016954Y-102445680D01*
X243015834Y-102440531D01*
X243013000Y-102414173D01*
X243013000Y-101027622D01*
X243012999Y-100050000D01*
X250094749Y-100050000D01*
X250113670Y-100193709D01*
X250169137Y-100327622D01*
X250169138Y-100327624D01*
X250169139Y-100327625D01*
X250257379Y-100442621D01*
X250372375Y-100530861D01*
X250506291Y-100586330D01*
X250650000Y-100605250D01*
X250689877Y-100600000D01*
X252424249Y-100600000D01*
X252443170Y-100743709D01*
X252498637Y-100877622D01*
X252498638Y-100877624D01*
X252498639Y-100877625D01*
X252586879Y-100992621D01*
X252701875Y-101080861D01*
X252835791Y-101136330D01*
X252979500Y-101155250D01*
X253123209Y-101136330D01*
X253257125Y-101080861D01*
X253372121Y-100992621D01*
X253460361Y-100877625D01*
X253515830Y-100743709D01*
X253534750Y-100600000D01*
X253515830Y-100456291D01*
X253472928Y-100352715D01*
X253460362Y-100322377D01*
X253460361Y-100322376D01*
X253460361Y-100322375D01*
X253372121Y-100207379D01*
X253257125Y-100119139D01*
X253257124Y-100119138D01*
X253257122Y-100119137D01*
X253123209Y-100063670D01*
X252979500Y-100044749D01*
X252835790Y-100063670D01*
X252701877Y-100119137D01*
X252586879Y-100207379D01*
X252498637Y-100322377D01*
X252443170Y-100456290D01*
X252424249Y-100600000D01*
X250689877Y-100600000D01*
X250793709Y-100586330D01*
X250927625Y-100530861D01*
X251042621Y-100442621D01*
X251130861Y-100327625D01*
X251186330Y-100193709D01*
X251205250Y-100050000D01*
X251186330Y-99906291D01*
X251135655Y-99783949D01*
X251130862Y-99772377D01*
X251130861Y-99772376D01*
X251130861Y-99772375D01*
X251042621Y-99657379D01*
X250927625Y-99569139D01*
X250927624Y-99569138D01*
X250927622Y-99569137D01*
X250793709Y-99513670D01*
X250650000Y-99494749D01*
X250506290Y-99513670D01*
X250372377Y-99569137D01*
X250257379Y-99657379D01*
X250169137Y-99772377D01*
X250113670Y-99906290D01*
X250094749Y-100050000D01*
X243012999Y-100050000D01*
X243012999Y-99624690D01*
X243022437Y-99577248D01*
X243036330Y-99543709D01*
X243055250Y-99400000D01*
X243036330Y-99256291D01*
X243022437Y-99222750D01*
X243013000Y-99175302D01*
X243013000Y-97122496D01*
X243013000Y-95068469D01*
X243015832Y-95042127D01*
X243016954Y-95036973D01*
X243013314Y-94986100D01*
X243012999Y-94977251D01*
X243013000Y-94963312D01*
X243011016Y-94949515D01*
X243010069Y-94940709D01*
X243007909Y-94910500D01*
X243006431Y-94889832D01*
X243004584Y-94884882D01*
X242998031Y-94859203D01*
X242997281Y-94853985D01*
X242976087Y-94807578D01*
X242972709Y-94799422D01*
X242954879Y-94751617D01*
X242951717Y-94747393D01*
X242938191Y-94724595D01*
X242937551Y-94723194D01*
X242936001Y-94719799D01*
X242902590Y-94681241D01*
X242897037Y-94674349D01*
X242888687Y-94663195D01*
X242878833Y-94653341D01*
X242872802Y-94646863D01*
X242839398Y-94608313D01*
X242834961Y-94605462D01*
X242814321Y-94588829D01*
X242499319Y-94273826D01*
X242465834Y-94212503D01*
X242463000Y-94186145D01*
X242463000Y-92324696D01*
X242472438Y-92277246D01*
X242486330Y-92243709D01*
X242505250Y-92100000D01*
X242504024Y-92090685D01*
X242514790Y-92021649D01*
X242561170Y-91969394D01*
X242626963Y-91950500D01*
X247450788Y-91950500D01*
X247476234Y-91953139D01*
X247477556Y-91953416D01*
X247485315Y-91955043D01*
X247511364Y-91951795D01*
X247514123Y-91951452D01*
X247528795Y-91950541D01*
X247548013Y-91947334D01*
X247553069Y-91946596D01*
X247601393Y-91940573D01*
X247601394Y-91940572D01*
X247608808Y-91939648D01*
X247615378Y-91936092D01*
X247615381Y-91936092D01*
X247658201Y-91912918D01*
X247662747Y-91910577D01*
X247706484Y-91889198D01*
X247706486Y-91889195D01*
X247713195Y-91885916D01*
X247718254Y-91880419D01*
X247718258Y-91880418D01*
X247751254Y-91844572D01*
X247754756Y-91840924D01*
X248413046Y-91182634D01*
X248432903Y-91166510D01*
X248440669Y-91161437D01*
X248458496Y-91138531D01*
X248468232Y-91127506D01*
X248468371Y-91127310D01*
X248468375Y-91127307D01*
X248479554Y-91111648D01*
X248482604Y-91107556D01*
X248512517Y-91069126D01*
X248512517Y-91069124D01*
X248517107Y-91063228D01*
X248519239Y-91056067D01*
X248533131Y-91009401D01*
X248534686Y-91004549D01*
X248535673Y-91001675D01*
X248550500Y-90958488D01*
X248550500Y-90958484D01*
X248552925Y-90951421D01*
X248552616Y-90943956D01*
X248552617Y-90943954D01*
X248550605Y-90895331D01*
X248550500Y-90890208D01*
X248550500Y-89650000D01*
X249894749Y-89650000D01*
X249913670Y-89793709D01*
X249969137Y-89927622D01*
X249969138Y-89927624D01*
X249969139Y-89927625D01*
X250057379Y-90042621D01*
X250172375Y-90130861D01*
X250306291Y-90186330D01*
X250450000Y-90205250D01*
X250593709Y-90186330D01*
X250727625Y-90130861D01*
X250842621Y-90042621D01*
X250930861Y-89927625D01*
X250986330Y-89793709D01*
X251005250Y-89650000D01*
X250986330Y-89506291D01*
X250930861Y-89372375D01*
X250842621Y-89257379D01*
X250727625Y-89169139D01*
X250727624Y-89169138D01*
X250727622Y-89169137D01*
X250593709Y-89113670D01*
X250450000Y-89094749D01*
X250306290Y-89113670D01*
X250172377Y-89169137D01*
X250057379Y-89257379D01*
X249969137Y-89372377D01*
X249913670Y-89506290D01*
X249894749Y-89650000D01*
X248550500Y-89650000D01*
X248550500Y-89311245D01*
X248553139Y-89285797D01*
X248555042Y-89276722D01*
X248551450Y-89247916D01*
X248550540Y-89233243D01*
X248550499Y-89233003D01*
X248550500Y-89232997D01*
X248547331Y-89214009D01*
X248546594Y-89208953D01*
X248540573Y-89160644D01*
X248540572Y-89160642D01*
X248539648Y-89153228D01*
X248536092Y-89146657D01*
X248536092Y-89146656D01*
X248512925Y-89103848D01*
X248510581Y-89099293D01*
X248485918Y-89048842D01*
X248466385Y-89030861D01*
X248444587Y-89010794D01*
X248440914Y-89007269D01*
X247536819Y-88103173D01*
X247503334Y-88041850D01*
X247500500Y-88015492D01*
X247500500Y-87661229D01*
X247520185Y-87594190D01*
X247572989Y-87548435D01*
X247642147Y-87538491D01*
X247705703Y-87567516D01*
G37*
G04 #@! TD.AperFunction*
G04 #@! TA.AperFunction,Conductor*
G36*
X254554927Y-87267360D02*
G01*
X254575569Y-87283994D01*
X254960582Y-87669007D01*
X255179395Y-87887819D01*
X255212880Y-87949142D01*
X255207896Y-88018833D01*
X255166025Y-88074767D01*
X255100560Y-88099184D01*
X255091714Y-88099500D01*
X254396543Y-88099500D01*
X254329504Y-88079815D01*
X254308862Y-88063181D01*
X254240430Y-87994749D01*
X254211617Y-87965935D01*
X254178133Y-87904614D01*
X254183117Y-87834922D01*
X254200925Y-87802768D01*
X254222386Y-87774800D01*
X254277855Y-87640884D01*
X254296775Y-87497175D01*
X254282383Y-87387860D01*
X254293148Y-87318826D01*
X254339528Y-87266570D01*
X254405322Y-87247675D01*
X254487888Y-87247675D01*
X254554927Y-87267360D01*
G37*
G04 #@! TD.AperFunction*
G04 #@! TA.AperFunction,Conductor*
G36*
X260470495Y-87320185D02*
G01*
X260491137Y-87336819D01*
X260663180Y-87508862D01*
X260696665Y-87570185D01*
X260699499Y-87596543D01*
X260699499Y-92036136D01*
X260679814Y-92103175D01*
X260627010Y-92148930D01*
X260559314Y-92159075D01*
X260450500Y-92144749D01*
X260306790Y-92163670D01*
X260172877Y-92219137D01*
X260057879Y-92307379D01*
X259969637Y-92422377D01*
X259914170Y-92556290D01*
X259895249Y-92699999D01*
X259914170Y-92843709D01*
X259969637Y-92977622D01*
X259969638Y-92977624D01*
X259969639Y-92977625D01*
X260057879Y-93092621D01*
X260172875Y-93180861D01*
X260172876Y-93180861D01*
X260172877Y-93180862D01*
X260190593Y-93188200D01*
X260306791Y-93236330D01*
X260423452Y-93251689D01*
X260450499Y-93255250D01*
X260450499Y-93255249D01*
X260450500Y-93255250D01*
X260559313Y-93240924D01*
X260628349Y-93251689D01*
X260680605Y-93298069D01*
X260699499Y-93363863D01*
X260699499Y-96248332D01*
X260679814Y-96315371D01*
X260627010Y-96361126D01*
X260557852Y-96371070D01*
X260528049Y-96362894D01*
X260409209Y-96313670D01*
X260409208Y-96313669D01*
X260409206Y-96313669D01*
X260265499Y-96294749D01*
X260121790Y-96313670D01*
X259987877Y-96369137D01*
X259872876Y-96457380D01*
X259853088Y-96483169D01*
X259796659Y-96524370D01*
X259726913Y-96528523D01*
X259665993Y-96494309D01*
X259656338Y-96483166D01*
X259616533Y-96431291D01*
X259583953Y-96406291D01*
X259501536Y-96343050D01*
X259501535Y-96343049D01*
X259501533Y-96343048D01*
X259437366Y-96316470D01*
X259382962Y-96272630D01*
X259360897Y-96206336D01*
X259378176Y-96138636D01*
X259397133Y-96114232D01*
X259413043Y-96098322D01*
X259432895Y-96082201D01*
X259440669Y-96077123D01*
X259458500Y-96054212D01*
X259468227Y-96043199D01*
X259479550Y-96027339D01*
X259482604Y-96023241D01*
X259512517Y-95984812D01*
X259512517Y-95984809D01*
X259517108Y-95978912D01*
X259524086Y-95955475D01*
X259533129Y-95925098D01*
X259534679Y-95920255D01*
X259550500Y-95874174D01*
X259550500Y-95874170D01*
X259552925Y-95867107D01*
X259552616Y-95859642D01*
X259552617Y-95859640D01*
X259550605Y-95811016D01*
X259550500Y-95805893D01*
X259550500Y-94947741D01*
X259553140Y-94922292D01*
X259555042Y-94913217D01*
X259555043Y-94913214D01*
X259551450Y-94884404D01*
X259550541Y-94869743D01*
X259550499Y-94869497D01*
X259550500Y-94869489D01*
X259547330Y-94850494D01*
X259546595Y-94845448D01*
X259546481Y-94844535D01*
X259540573Y-94797136D01*
X259540572Y-94797135D01*
X259539648Y-94789718D01*
X259515445Y-94744995D01*
X259500500Y-94685978D01*
X259500500Y-94526298D01*
X259507215Y-94486045D01*
X259509058Y-94480675D01*
X259516869Y-94465499D01*
X259519239Y-94457538D01*
X259519240Y-94457537D01*
X259533129Y-94410883D01*
X259534679Y-94406040D01*
X259550500Y-94359959D01*
X259550500Y-94359954D01*
X259552925Y-94352891D01*
X259552616Y-94345426D01*
X259552617Y-94345425D01*
X259550606Y-94296792D01*
X259550500Y-94291669D01*
X259550500Y-88799211D01*
X259553139Y-88773764D01*
X259555043Y-88764685D01*
X259551452Y-88735876D01*
X259550541Y-88721213D01*
X259550500Y-88720967D01*
X259550500Y-88720960D01*
X259547330Y-88701965D01*
X259546595Y-88696919D01*
X259546195Y-88693709D01*
X259540573Y-88648607D01*
X259540572Y-88648605D01*
X259539648Y-88641191D01*
X259536092Y-88634620D01*
X259536092Y-88634619D01*
X259512925Y-88591811D01*
X259510581Y-88587256D01*
X259485918Y-88536805D01*
X259480418Y-88531742D01*
X259444587Y-88498757D01*
X259440914Y-88495232D01*
X258457863Y-87512181D01*
X258424378Y-87450858D01*
X258429362Y-87381166D01*
X258471234Y-87325233D01*
X258536698Y-87300816D01*
X258545544Y-87300500D01*
X260403456Y-87300500D01*
X260470495Y-87320185D01*
G37*
G04 #@! TD.AperFunction*
G04 #@! TA.AperFunction,Conductor*
G36*
X256789123Y-88920185D02*
G01*
X256809765Y-88936819D01*
X257613181Y-89740234D01*
X257646666Y-89801557D01*
X257649500Y-89827915D01*
X257649500Y-92218077D01*
X257629815Y-92285116D01*
X257613180Y-92305759D01*
X257562679Y-92356259D01*
X257501356Y-92389743D01*
X257431664Y-92384758D01*
X257375731Y-92342886D01*
X257351315Y-92277422D01*
X257351000Y-92268604D01*
X257351000Y-92000682D01*
X257353639Y-91975235D01*
X257355543Y-91966156D01*
X257351952Y-91937347D01*
X257351041Y-91922684D01*
X257351000Y-91922438D01*
X257351000Y-91922431D01*
X257347830Y-91903436D01*
X257347095Y-91898390D01*
X257346317Y-91892147D01*
X257341073Y-91850078D01*
X257341072Y-91850076D01*
X257340148Y-91842662D01*
X257336592Y-91836091D01*
X257336592Y-91836090D01*
X257313413Y-91793259D01*
X257311079Y-91788724D01*
X257286415Y-91738272D01*
X257245089Y-91700229D01*
X257241391Y-91696681D01*
X256836319Y-91291608D01*
X256802834Y-91230285D01*
X256800000Y-91203927D01*
X256800000Y-90660000D01*
X256800000Y-90114388D01*
X256802637Y-90088956D01*
X256804543Y-90079872D01*
X256800952Y-90051063D01*
X256800041Y-90036401D01*
X256800000Y-90036155D01*
X256800000Y-90036146D01*
X256796825Y-90017124D01*
X256796097Y-90012127D01*
X256790073Y-89963794D01*
X256790072Y-89963792D01*
X256789148Y-89956377D01*
X256782553Y-89944191D01*
X256762424Y-89906994D01*
X256760077Y-89902435D01*
X256735418Y-89851991D01*
X256729918Y-89846928D01*
X256694087Y-89813943D01*
X256690414Y-89810418D01*
X255992177Y-89112181D01*
X255958692Y-89050858D01*
X255963676Y-88981166D01*
X256005548Y-88925233D01*
X256071012Y-88900816D01*
X256079858Y-88900500D01*
X256722084Y-88900500D01*
X256789123Y-88920185D01*
G37*
G04 #@! TD.AperFunction*
G04 #@! TA.AperFunction,Conductor*
G36*
X260170495Y-81020185D02*
G01*
X260191137Y-81036819D01*
X260367359Y-81213041D01*
X260383483Y-81232895D01*
X260388561Y-81240667D01*
X260388562Y-81240668D01*
X260388563Y-81240669D01*
X260390678Y-81242315D01*
X260411473Y-81258500D01*
X260422488Y-81268228D01*
X260438349Y-81279553D01*
X260442456Y-81282616D01*
X260486771Y-81317108D01*
X260540593Y-81333131D01*
X260545437Y-81334682D01*
X260591512Y-81350500D01*
X260591515Y-81350500D01*
X260598579Y-81352925D01*
X260606044Y-81352616D01*
X260606046Y-81352617D01*
X260654678Y-81350606D01*
X260659802Y-81350500D01*
X261803456Y-81350500D01*
X261870495Y-81370185D01*
X261891137Y-81386819D01*
X262242407Y-81738089D01*
X262275892Y-81799412D01*
X262270908Y-81869104D01*
X262269288Y-81873221D01*
X262214170Y-82006291D01*
X262195249Y-82150000D01*
X262214170Y-82293709D01*
X262269637Y-82427622D01*
X262269638Y-82427624D01*
X262269639Y-82427625D01*
X262357879Y-82542621D01*
X262472875Y-82630861D01*
X262606791Y-82686330D01*
X262750500Y-82705250D01*
X262859814Y-82690858D01*
X262928849Y-82701623D01*
X262981105Y-82748003D01*
X263000000Y-82813797D01*
X263000000Y-84663539D01*
X262980315Y-84730578D01*
X262927511Y-84776333D01*
X262858353Y-84786277D01*
X262828549Y-84778101D01*
X262793709Y-84763670D01*
X262776989Y-84761468D01*
X262650000Y-84744749D01*
X262506290Y-84763670D01*
X262372377Y-84819137D01*
X262257377Y-84907380D01*
X262223918Y-84950986D01*
X262167490Y-84992189D01*
X262125542Y-84999500D01*
X256736092Y-84999500D01*
X256669053Y-84979815D01*
X256654943Y-84966834D01*
X256586486Y-84914305D01*
X256527625Y-84869139D01*
X256527624Y-84869138D01*
X256527622Y-84869137D01*
X256427047Y-84827478D01*
X256372643Y-84783637D01*
X256350578Y-84717343D01*
X256350500Y-84712973D01*
X256350500Y-83862823D01*
X256370185Y-83795784D01*
X256399012Y-83764449D01*
X256492621Y-83692621D01*
X256580861Y-83577625D01*
X256636330Y-83443709D01*
X256655250Y-83300000D01*
X256636330Y-83156291D01*
X256588357Y-83040472D01*
X256580862Y-83022377D01*
X256580861Y-83022376D01*
X256580861Y-83022375D01*
X256492621Y-82907379D01*
X256492620Y-82907378D01*
X256482683Y-82894428D01*
X256485380Y-82892358D01*
X256459890Y-82857439D01*
X256455745Y-82787692D01*
X256489966Y-82726777D01*
X256529131Y-82700947D01*
X256577625Y-82680861D01*
X256692621Y-82592621D01*
X256780861Y-82477625D01*
X256836330Y-82343709D01*
X256855250Y-82200000D01*
X256836330Y-82056291D01*
X256792052Y-81949394D01*
X256780862Y-81922377D01*
X256780861Y-81922376D01*
X256780861Y-81922375D01*
X256692621Y-81807379D01*
X256577625Y-81719139D01*
X256577624Y-81719138D01*
X256577622Y-81719137D01*
X256443709Y-81663670D01*
X256299999Y-81644749D01*
X256156290Y-81663670D01*
X256022377Y-81719137D01*
X255907379Y-81807379D01*
X255819137Y-81922377D01*
X255763670Y-82056290D01*
X255744749Y-82200000D01*
X255763670Y-82343709D01*
X255819137Y-82477622D01*
X255819138Y-82477624D01*
X255819139Y-82477625D01*
X255907379Y-82592621D01*
X255917317Y-82605572D01*
X255914619Y-82607641D01*
X255940108Y-82642556D01*
X255944255Y-82712303D01*
X255910036Y-82773220D01*
X255870866Y-82799053D01*
X255822377Y-82819137D01*
X255707376Y-82907381D01*
X255636867Y-82999270D01*
X255580439Y-83040472D01*
X255510693Y-83044627D01*
X255494284Y-83039382D01*
X255493199Y-83039239D01*
X255474919Y-83036832D01*
X255349490Y-83020318D01*
X255205780Y-83039239D01*
X255071867Y-83094706D01*
X254956869Y-83182948D01*
X254868627Y-83297946D01*
X254813160Y-83431859D01*
X254794239Y-83575568D01*
X254796319Y-83591364D01*
X254785551Y-83660399D01*
X254761060Y-83695227D01*
X254587455Y-83868832D01*
X254567604Y-83884954D01*
X254559832Y-83890032D01*
X254542000Y-83912942D01*
X254532265Y-83923967D01*
X254520941Y-83939828D01*
X254517892Y-83943916D01*
X254501454Y-83965037D01*
X254483391Y-83988244D01*
X254467371Y-84042053D01*
X254465809Y-84046929D01*
X254447573Y-84100049D01*
X254449893Y-84156138D01*
X254449999Y-84161260D01*
X254449999Y-84168159D01*
X254430314Y-84235198D01*
X254377510Y-84280953D01*
X254309814Y-84291098D01*
X254183922Y-84274523D01*
X254040215Y-84293443D01*
X254040212Y-84293444D01*
X254040213Y-84293444D01*
X253917845Y-84344130D01*
X253894185Y-84353930D01*
X253824715Y-84361398D01*
X253762236Y-84330122D01*
X253748357Y-84314854D01*
X253742622Y-84307380D01*
X253733656Y-84300500D01*
X253627625Y-84219139D01*
X253627624Y-84219138D01*
X253627622Y-84219137D01*
X253493709Y-84163670D01*
X253349999Y-84144749D01*
X253231729Y-84160321D01*
X253221406Y-84161679D01*
X253152371Y-84150915D01*
X253100115Y-84104535D01*
X253090660Y-84086193D01*
X253064434Y-84022877D01*
X253064433Y-84022876D01*
X253064433Y-84022875D01*
X253010166Y-83952154D01*
X252984973Y-83886985D01*
X252999011Y-83818541D01*
X253047825Y-83768551D01*
X253049523Y-83767615D01*
X253058200Y-83762919D01*
X253062747Y-83760577D01*
X253106484Y-83739198D01*
X253106486Y-83739195D01*
X253113195Y-83735916D01*
X253118254Y-83730419D01*
X253118258Y-83730418D01*
X253151255Y-83694572D01*
X253154732Y-83690948D01*
X253368376Y-83477306D01*
X253368376Y-83477305D01*
X253563046Y-83282634D01*
X253582903Y-83266510D01*
X253590669Y-83261437D01*
X253608496Y-83238531D01*
X253618232Y-83227506D01*
X253618371Y-83227310D01*
X253618375Y-83227307D01*
X253629554Y-83211648D01*
X253632604Y-83207556D01*
X253662517Y-83169126D01*
X253662517Y-83169124D01*
X253667107Y-83163228D01*
X253669353Y-83155685D01*
X253683131Y-83109401D01*
X253684686Y-83104549D01*
X253700500Y-83058488D01*
X253700500Y-83058484D01*
X253702925Y-83051421D01*
X253702616Y-83043956D01*
X253702617Y-83043954D01*
X253700603Y-82995281D01*
X253700500Y-82990256D01*
X253700500Y-82120960D01*
X253700499Y-81977915D01*
X253720185Y-81910876D01*
X253736819Y-81890234D01*
X253854677Y-81772377D01*
X253984061Y-81642993D01*
X254590234Y-81036819D01*
X254651558Y-81003334D01*
X254677916Y-81000500D01*
X260103456Y-81000500D01*
X260170495Y-81020185D01*
G37*
G04 #@! TD.AperFunction*
G04 #@! TA.AperFunction,Conductor*
G36*
X243476434Y-76049570D02*
G01*
X243543401Y-76069487D01*
X243588973Y-76122449D01*
X243600000Y-76173569D01*
X243600000Y-77676000D01*
X243580315Y-77743039D01*
X243527511Y-77788794D01*
X243476000Y-77800000D01*
X232450000Y-77800000D01*
X232459311Y-79466703D01*
X232440001Y-79533852D01*
X232387454Y-79579901D01*
X232318352Y-79590231D01*
X232287863Y-79581958D01*
X232243710Y-79563670D01*
X232100000Y-79544749D01*
X231956290Y-79563670D01*
X231822377Y-79619137D01*
X231707379Y-79707379D01*
X231619137Y-79822377D01*
X231563670Y-79956290D01*
X231544749Y-80099999D01*
X231563670Y-80243709D01*
X231619137Y-80377622D01*
X231619138Y-80377624D01*
X231619139Y-80377625D01*
X231707379Y-80492621D01*
X231822375Y-80580861D01*
X231956291Y-80636330D01*
X232081079Y-80652758D01*
X232099999Y-80655250D01*
X232099999Y-80655249D01*
X232100000Y-80655250D01*
X232243709Y-80636330D01*
X232294913Y-80615120D01*
X232364381Y-80607652D01*
X232426860Y-80638927D01*
X232462512Y-80699016D01*
X232466362Y-80728989D01*
X232499303Y-86625307D01*
X232479993Y-86692456D01*
X232427446Y-86738505D01*
X232375305Y-86750000D01*
X229374000Y-86750000D01*
X229306961Y-86730315D01*
X229261206Y-86677511D01*
X229250000Y-86626000D01*
X229250000Y-83050000D01*
X229249999Y-83049999D01*
X229233506Y-80724499D01*
X230094749Y-80724499D01*
X230113670Y-80868209D01*
X230169137Y-81002122D01*
X230169138Y-81002124D01*
X230169139Y-81002125D01*
X230257379Y-81117121D01*
X230372375Y-81205361D01*
X230506291Y-81260830D01*
X230650000Y-81279750D01*
X230793709Y-81260830D01*
X230927625Y-81205361D01*
X231042621Y-81117121D01*
X231130861Y-81002125D01*
X231186330Y-80868209D01*
X231205250Y-80724500D01*
X231186330Y-80580791D01*
X231130861Y-80446875D01*
X231042621Y-80331879D01*
X230927625Y-80243639D01*
X230927624Y-80243638D01*
X230927622Y-80243637D01*
X230793709Y-80188170D01*
X230650000Y-80169249D01*
X230506290Y-80188170D01*
X230372377Y-80243637D01*
X230257379Y-80331879D01*
X230169137Y-80446877D01*
X230113670Y-80580790D01*
X230094749Y-80724499D01*
X229233506Y-80724499D01*
X229223610Y-79329072D01*
X229242818Y-79261901D01*
X229295296Y-79215773D01*
X229307344Y-79210918D01*
X229534650Y-79132884D01*
X229534649Y-79132884D01*
X229534656Y-79132882D01*
X229746067Y-79018472D01*
X229935764Y-78870825D01*
X230098571Y-78693969D01*
X230230049Y-78492728D01*
X230326610Y-78272591D01*
X230385620Y-78039563D01*
X230405471Y-77800000D01*
X230385620Y-77560437D01*
X230326610Y-77327409D01*
X230230049Y-77107272D01*
X230098571Y-76906031D01*
X229935764Y-76729175D01*
X229914370Y-76712523D01*
X229746072Y-76581531D01*
X229746068Y-76581528D01*
X229746067Y-76581528D01*
X229534656Y-76467118D01*
X229534655Y-76467117D01*
X229534652Y-76467116D01*
X229307298Y-76389066D01*
X229305482Y-76388763D01*
X229303207Y-76387661D01*
X229297578Y-76385729D01*
X229297811Y-76385048D01*
X229242597Y-76358312D01*
X229206157Y-76298697D01*
X229201896Y-76267340D01*
X229200888Y-76125310D01*
X229220097Y-76058136D01*
X229272575Y-76012008D01*
X229325315Y-76000435D01*
X243476434Y-76049570D01*
G37*
G04 #@! TD.AperFunction*
M02*
